G04 #@! TF.GenerationSoftware,KiCad,Pcbnew,5.1.6-c6e7f7d~87~ubuntu19.10.1*
G04 #@! TF.CreationDate,2021-03-15T12:51:18-04:00*
G04 #@! TF.ProjectId,icarus,69636172-7573-42e6-9b69-6361645f7063,V1.0*
G04 #@! TF.SameCoordinates,Original*
G04 #@! TF.FileFunction,Legend,Bot*
G04 #@! TF.FilePolarity,Positive*
%FSLAX46Y46*%
G04 Gerber Fmt 4.6, Leading zero omitted, Abs format (unit mm)*
G04 Created by KiCad (PCBNEW 5.1.6-c6e7f7d~87~ubuntu19.10.1) date 2021-03-15 12:51:18*
%MOMM*%
%LPD*%
G01*
G04 APERTURE LIST*
%ADD10C,0.300000*%
%ADD11C,0.010000*%
G04 APERTURE END LIST*
D10*
X113913571Y-87450714D02*
X114985000Y-87450714D01*
X115199285Y-87379285D01*
X115342142Y-87236428D01*
X115413571Y-87022142D01*
X115413571Y-86879285D01*
X115342142Y-88736428D02*
X115413571Y-88593571D01*
X115413571Y-88307857D01*
X115342142Y-88165000D01*
X115199285Y-88093571D01*
X114627857Y-88093571D01*
X114485000Y-88165000D01*
X114413571Y-88307857D01*
X114413571Y-88593571D01*
X114485000Y-88736428D01*
X114627857Y-88807857D01*
X114770714Y-88807857D01*
X114913571Y-88093571D01*
X115413571Y-89450714D02*
X114413571Y-89450714D01*
X114699285Y-89450714D02*
X114556428Y-89522142D01*
X114485000Y-89593571D01*
X114413571Y-89736428D01*
X114413571Y-89879285D01*
X115342142Y-90950714D02*
X115413571Y-90807857D01*
X115413571Y-90522142D01*
X115342142Y-90379285D01*
X115199285Y-90307857D01*
X114627857Y-90307857D01*
X114485000Y-90379285D01*
X114413571Y-90522142D01*
X114413571Y-90807857D01*
X114485000Y-90950714D01*
X114627857Y-91022142D01*
X114770714Y-91022142D01*
X114913571Y-90307857D01*
X115413571Y-91665000D02*
X114413571Y-91665000D01*
X114556428Y-91665000D02*
X114485000Y-91736428D01*
X114413571Y-91879285D01*
X114413571Y-92093571D01*
X114485000Y-92236428D01*
X114627857Y-92307857D01*
X115413571Y-92307857D01*
X114627857Y-92307857D02*
X114485000Y-92379285D01*
X114413571Y-92522142D01*
X114413571Y-92736428D01*
X114485000Y-92879285D01*
X114627857Y-92950714D01*
X115413571Y-92950714D01*
X114413571Y-93522142D02*
X115413571Y-93879285D01*
X114413571Y-94236428D02*
X115413571Y-93879285D01*
X115770714Y-93736428D01*
X115842142Y-93665000D01*
X115913571Y-93522142D01*
X115413571Y-95950714D02*
X113913571Y-95950714D01*
X115413571Y-96807857D02*
X114556428Y-96165000D01*
X113913571Y-96807857D02*
X114770714Y-95950714D01*
X115413571Y-98093571D02*
X114627857Y-98093571D01*
X114485000Y-98022142D01*
X114413571Y-97879285D01*
X114413571Y-97593571D01*
X114485000Y-97450714D01*
X115342142Y-98093571D02*
X115413571Y-97950714D01*
X115413571Y-97593571D01*
X115342142Y-97450714D01*
X115199285Y-97379285D01*
X115056428Y-97379285D01*
X114913571Y-97450714D01*
X114842142Y-97593571D01*
X114842142Y-97950714D01*
X114770714Y-98093571D01*
X114413571Y-98807857D02*
X115413571Y-98807857D01*
X114556428Y-98807857D02*
X114485000Y-98879285D01*
X114413571Y-99022142D01*
X114413571Y-99236428D01*
X114485000Y-99379285D01*
X114627857Y-99450714D01*
X115413571Y-99450714D01*
X115413571Y-100379285D02*
X115342142Y-100236428D01*
X115270714Y-100165000D01*
X115127857Y-100093571D01*
X114699285Y-100093571D01*
X114556428Y-100165000D01*
X114485000Y-100236428D01*
X114413571Y-100379285D01*
X114413571Y-100593571D01*
X114485000Y-100736428D01*
X114556428Y-100807857D01*
X114699285Y-100879285D01*
X115127857Y-100879285D01*
X115270714Y-100807857D01*
X115342142Y-100736428D01*
X115413571Y-100593571D01*
X115413571Y-100379285D01*
X114413571Y-101379285D02*
X115413571Y-101736428D01*
X114413571Y-102093571D01*
X115342142Y-102593571D02*
X115413571Y-102736428D01*
X115413571Y-103022142D01*
X115342142Y-103165000D01*
X115199285Y-103236428D01*
X115127857Y-103236428D01*
X114985000Y-103165000D01*
X114913571Y-103022142D01*
X114913571Y-102807857D01*
X114842142Y-102665000D01*
X114699285Y-102593571D01*
X114627857Y-102593571D01*
X114485000Y-102665000D01*
X114413571Y-102807857D01*
X114413571Y-103022142D01*
X114485000Y-103165000D01*
X115413571Y-103879285D02*
X113913571Y-103879285D01*
X114842142Y-104022142D02*
X115413571Y-104450714D01*
X114413571Y-104450714D02*
X114985000Y-103879285D01*
X114413571Y-104950714D02*
X115413571Y-105307857D01*
X114413571Y-105665000D02*
X115413571Y-105307857D01*
X115770714Y-105165000D01*
X115842142Y-105093571D01*
X115913571Y-104950714D01*
X117892142Y-86950714D02*
X117963571Y-87165000D01*
X117963571Y-87522142D01*
X117892142Y-87665000D01*
X117820714Y-87736428D01*
X117677857Y-87807857D01*
X117535000Y-87807857D01*
X117392142Y-87736428D01*
X117320714Y-87665000D01*
X117249285Y-87522142D01*
X117177857Y-87236428D01*
X117106428Y-87093571D01*
X117035000Y-87022142D01*
X116892142Y-86950714D01*
X116749285Y-86950714D01*
X116606428Y-87022142D01*
X116535000Y-87093571D01*
X116463571Y-87236428D01*
X116463571Y-87593571D01*
X116535000Y-87807857D01*
X116963571Y-88450714D02*
X118463571Y-88450714D01*
X117035000Y-88450714D02*
X116963571Y-88593571D01*
X116963571Y-88879285D01*
X117035000Y-89022142D01*
X117106428Y-89093571D01*
X117249285Y-89165000D01*
X117677857Y-89165000D01*
X117820714Y-89093571D01*
X117892142Y-89022142D01*
X117963571Y-88879285D01*
X117963571Y-88593571D01*
X117892142Y-88450714D01*
X117963571Y-89807857D02*
X116963571Y-89807857D01*
X117249285Y-89807857D02*
X117106428Y-89879285D01*
X117035000Y-89950714D01*
X116963571Y-90093571D01*
X116963571Y-90236428D01*
X117963571Y-90736428D02*
X116963571Y-90736428D01*
X116463571Y-90736428D02*
X116535000Y-90665000D01*
X116606428Y-90736428D01*
X116535000Y-90807857D01*
X116463571Y-90736428D01*
X116606428Y-90736428D01*
X116963571Y-91450714D02*
X117963571Y-91450714D01*
X117106428Y-91450714D02*
X117035000Y-91522142D01*
X116963571Y-91665000D01*
X116963571Y-91879285D01*
X117035000Y-92022142D01*
X117177857Y-92093571D01*
X117963571Y-92093571D01*
X116963571Y-93450714D02*
X118177857Y-93450714D01*
X118320714Y-93379285D01*
X118392142Y-93307857D01*
X118463571Y-93165000D01*
X118463571Y-92950714D01*
X118392142Y-92807857D01*
X117892142Y-93450714D02*
X117963571Y-93307857D01*
X117963571Y-93022142D01*
X117892142Y-92879285D01*
X117820714Y-92807857D01*
X117677857Y-92736428D01*
X117249285Y-92736428D01*
X117106428Y-92807857D01*
X117035000Y-92879285D01*
X116963571Y-93022142D01*
X116963571Y-93307857D01*
X117035000Y-93450714D01*
X116606428Y-95236428D02*
X116535000Y-95307857D01*
X116463571Y-95450714D01*
X116463571Y-95807857D01*
X116535000Y-95950714D01*
X116606428Y-96022142D01*
X116749285Y-96093571D01*
X116892142Y-96093571D01*
X117106428Y-96022142D01*
X117963571Y-95165000D01*
X117963571Y-96093571D01*
X116463571Y-97022142D02*
X116463571Y-97165000D01*
X116535000Y-97307857D01*
X116606428Y-97379285D01*
X116749285Y-97450714D01*
X117035000Y-97522142D01*
X117392142Y-97522142D01*
X117677857Y-97450714D01*
X117820714Y-97379285D01*
X117892142Y-97307857D01*
X117963571Y-97165000D01*
X117963571Y-97022142D01*
X117892142Y-96879285D01*
X117820714Y-96807857D01*
X117677857Y-96736428D01*
X117392142Y-96665000D01*
X117035000Y-96665000D01*
X116749285Y-96736428D01*
X116606428Y-96807857D01*
X116535000Y-96879285D01*
X116463571Y-97022142D01*
X116606428Y-98093571D02*
X116535000Y-98165000D01*
X116463571Y-98307857D01*
X116463571Y-98665000D01*
X116535000Y-98807857D01*
X116606428Y-98879285D01*
X116749285Y-98950714D01*
X116892142Y-98950714D01*
X117106428Y-98879285D01*
X117963571Y-98022142D01*
X117963571Y-98950714D01*
X117963571Y-100379285D02*
X117963571Y-99522142D01*
X117963571Y-99950714D02*
X116463571Y-99950714D01*
X116677857Y-99807857D01*
X116820714Y-99665000D01*
X116892142Y-99522142D01*
D11*
G04 #@! TO.C,G\u002A\u002A\u002A*
G36*
X142252000Y-86163334D02*
G01*
X142252000Y-86046539D01*
X142261703Y-86002103D01*
X142294732Y-85941691D01*
X142356969Y-85858647D01*
X142454294Y-85746313D01*
X142592587Y-85598032D01*
X142777728Y-85407147D01*
X143015599Y-85167002D01*
X143130786Y-85051705D01*
X144009572Y-84173667D01*
X151798922Y-84173667D01*
X152676961Y-85052453D01*
X152938555Y-85315586D01*
X153144969Y-85526641D01*
X153302042Y-85692233D01*
X153415614Y-85818979D01*
X153491524Y-85913495D01*
X153535612Y-85982396D01*
X153553717Y-86032299D01*
X153555000Y-86047286D01*
X153555000Y-86163334D01*
X154613333Y-86163334D01*
X154613333Y-85675953D01*
X153395980Y-84459143D01*
X152178628Y-83242334D01*
X143627285Y-83242334D01*
X142410476Y-84459686D01*
X141193666Y-85677038D01*
X141193666Y-86163334D01*
X142252000Y-86163334D01*
G37*
X142252000Y-86163334D02*
X142252000Y-86046539D01*
X142261703Y-86002103D01*
X142294732Y-85941691D01*
X142356969Y-85858647D01*
X142454294Y-85746313D01*
X142592587Y-85598032D01*
X142777728Y-85407147D01*
X143015599Y-85167002D01*
X143130786Y-85051705D01*
X144009572Y-84173667D01*
X151798922Y-84173667D01*
X152676961Y-85052453D01*
X152938555Y-85315586D01*
X153144969Y-85526641D01*
X153302042Y-85692233D01*
X153415614Y-85818979D01*
X153491524Y-85913495D01*
X153535612Y-85982396D01*
X153553717Y-86032299D01*
X153555000Y-86047286D01*
X153555000Y-86163334D01*
X154613333Y-86163334D01*
X154613333Y-85675953D01*
X153395980Y-84459143D01*
X152178628Y-83242334D01*
X143627285Y-83242334D01*
X142410476Y-84459686D01*
X141193666Y-85677038D01*
X141193666Y-86163334D01*
X142252000Y-86163334D01*
G36*
X142241685Y-120040857D02*
G01*
X143459038Y-121257667D01*
X152010380Y-121257667D01*
X153227190Y-120040314D01*
X154444000Y-118822962D01*
X154444000Y-118336667D01*
X153385666Y-118336667D01*
X153385666Y-118453462D01*
X153375963Y-118497898D01*
X153342933Y-118558309D01*
X153280696Y-118641354D01*
X153183372Y-118753688D01*
X153045079Y-118901969D01*
X152859937Y-119092853D01*
X152622067Y-119332999D01*
X152506880Y-119448295D01*
X151628094Y-120326334D01*
X143840238Y-120326334D01*
X142961452Y-119448295D01*
X142700053Y-119185828D01*
X142493814Y-118975375D01*
X142336857Y-118810280D01*
X142223300Y-118683885D01*
X142147264Y-118589533D01*
X142102866Y-118520567D01*
X142084228Y-118470331D01*
X142082666Y-118453462D01*
X142082666Y-118336667D01*
X141024333Y-118336667D01*
X141024333Y-118824048D01*
X142241685Y-120040857D01*
G37*
X142241685Y-120040857D02*
X143459038Y-121257667D01*
X152010380Y-121257667D01*
X153227190Y-120040314D01*
X154444000Y-118822962D01*
X154444000Y-118336667D01*
X153385666Y-118336667D01*
X153385666Y-118453462D01*
X153375963Y-118497898D01*
X153342933Y-118558309D01*
X153280696Y-118641354D01*
X153183372Y-118753688D01*
X153045079Y-118901969D01*
X152859937Y-119092853D01*
X152622067Y-119332999D01*
X152506880Y-119448295D01*
X151628094Y-120326334D01*
X143840238Y-120326334D01*
X142961452Y-119448295D01*
X142700053Y-119185828D01*
X142493814Y-118975375D01*
X142336857Y-118810280D01*
X142223300Y-118683885D01*
X142147264Y-118589533D01*
X142102866Y-118520567D01*
X142084228Y-118470331D01*
X142082666Y-118453462D01*
X142082666Y-118336667D01*
X141024333Y-118336667D01*
X141024333Y-118824048D01*
X142241685Y-120040857D01*
G36*
X150591666Y-86375000D02*
G01*
X150591666Y-86586667D01*
X144368666Y-86586667D01*
X144368666Y-87263451D01*
X150570500Y-87285167D01*
X150583517Y-87465084D01*
X150596534Y-87645000D01*
X151269000Y-87645000D01*
X151269000Y-85316667D01*
X150591666Y-85316667D01*
X150591666Y-85697667D01*
X144368666Y-85697667D01*
X144368666Y-86375000D01*
X150591666Y-86375000D01*
G37*
X150591666Y-86375000D02*
X150591666Y-86586667D01*
X144368666Y-86586667D01*
X144368666Y-87263451D01*
X150570500Y-87285167D01*
X150583517Y-87465084D01*
X150596534Y-87645000D01*
X151269000Y-87645000D01*
X151269000Y-85316667D01*
X150591666Y-85316667D01*
X150591666Y-85697667D01*
X144368666Y-85697667D01*
X144368666Y-86375000D01*
X150591666Y-86375000D01*
G36*
X144404821Y-92436563D02*
G01*
X144508381Y-92913780D01*
X144671992Y-93372436D01*
X144888297Y-93787835D01*
X144931358Y-93854750D01*
X145080400Y-94052891D01*
X145271612Y-94269130D01*
X145486213Y-94485362D01*
X145705422Y-94683484D01*
X145910457Y-94845390D01*
X146056526Y-94939359D01*
X146273666Y-95058218D01*
X146272064Y-94664192D01*
X146270461Y-94270167D01*
X146080742Y-94122000D01*
X145930246Y-93985779D01*
X145759345Y-93801987D01*
X145589976Y-93596369D01*
X145444081Y-93394669D01*
X145395292Y-93317667D01*
X145338734Y-93206140D01*
X145269613Y-93045188D01*
X145201172Y-92866024D01*
X145188758Y-92830834D01*
X145138537Y-92677236D01*
X145104811Y-92543213D01*
X145084311Y-92404375D01*
X145073766Y-92236332D01*
X145069908Y-92014694D01*
X145069586Y-91941834D01*
X145070668Y-91703647D01*
X145077496Y-91526858D01*
X145093078Y-91388241D01*
X145120419Y-91264570D01*
X145162526Y-91132620D01*
X145181011Y-91081002D01*
X145345622Y-90701230D01*
X145550385Y-90372013D01*
X145815415Y-90061734D01*
X145855215Y-90021269D01*
X146217021Y-89710564D01*
X146615814Y-89470795D01*
X147014500Y-89309372D01*
X147185864Y-89257458D01*
X147338627Y-89224438D01*
X147501963Y-89206409D01*
X147705046Y-89199469D01*
X147840000Y-89198956D01*
X148079220Y-89202806D01*
X148263921Y-89215898D01*
X148424095Y-89242325D01*
X148589730Y-89286181D01*
X148674580Y-89312868D01*
X149106419Y-89496530D01*
X149500809Y-89751099D01*
X149848766Y-90067744D01*
X150141306Y-90437632D01*
X150369445Y-90851933D01*
X150452090Y-91060122D01*
X150500571Y-91206927D01*
X150533484Y-91335656D01*
X150553825Y-91469388D01*
X150564591Y-91631202D01*
X150568777Y-91844177D01*
X150569313Y-91963000D01*
X150567767Y-92212633D01*
X150560155Y-92400815D01*
X150543814Y-92550694D01*
X150516079Y-92685416D01*
X150474284Y-92828128D01*
X150467222Y-92849872D01*
X150326269Y-93180766D01*
X150125517Y-93514580D01*
X149883806Y-93822853D01*
X149700927Y-94007661D01*
X149448666Y-94235943D01*
X149448666Y-94623472D01*
X149451043Y-94792826D01*
X149457415Y-94924637D01*
X149466649Y-95000176D01*
X149472156Y-95011000D01*
X149531018Y-94985569D01*
X149637072Y-94917796D01*
X149773245Y-94820458D01*
X149922463Y-94706336D01*
X150067654Y-94588208D01*
X150191743Y-94478853D01*
X150222857Y-94449125D01*
X150520659Y-94108746D01*
X150785587Y-93710994D01*
X151002657Y-93281251D01*
X151145014Y-92887079D01*
X151199831Y-92631811D01*
X151236827Y-92323087D01*
X151255058Y-91989446D01*
X151253580Y-91659432D01*
X151231449Y-91361585D01*
X151201479Y-91179834D01*
X151098299Y-90837872D01*
X150942889Y-90481197D01*
X150748125Y-90131576D01*
X150526885Y-89810776D01*
X150292045Y-89540565D01*
X150160706Y-89420536D01*
X149746130Y-89118406D01*
X149304669Y-88868684D01*
X148856495Y-88681755D01*
X148559666Y-88596154D01*
X148247877Y-88545743D01*
X147892566Y-88524044D01*
X147526205Y-88530707D01*
X147181264Y-88565383D01*
X146940459Y-88613606D01*
X146443752Y-88787135D01*
X145984807Y-89035212D01*
X145568071Y-89354548D01*
X145197992Y-89741853D01*
X144943801Y-90090225D01*
X144729280Y-90479572D01*
X144557809Y-90908895D01*
X144437209Y-91352695D01*
X144375299Y-91785478D01*
X144368666Y-91965482D01*
X144404821Y-92436563D01*
G37*
X144404821Y-92436563D02*
X144508381Y-92913780D01*
X144671992Y-93372436D01*
X144888297Y-93787835D01*
X144931358Y-93854750D01*
X145080400Y-94052891D01*
X145271612Y-94269130D01*
X145486213Y-94485362D01*
X145705422Y-94683484D01*
X145910457Y-94845390D01*
X146056526Y-94939359D01*
X146273666Y-95058218D01*
X146272064Y-94664192D01*
X146270461Y-94270167D01*
X146080742Y-94122000D01*
X145930246Y-93985779D01*
X145759345Y-93801987D01*
X145589976Y-93596369D01*
X145444081Y-93394669D01*
X145395292Y-93317667D01*
X145338734Y-93206140D01*
X145269613Y-93045188D01*
X145201172Y-92866024D01*
X145188758Y-92830834D01*
X145138537Y-92677236D01*
X145104811Y-92543213D01*
X145084311Y-92404375D01*
X145073766Y-92236332D01*
X145069908Y-92014694D01*
X145069586Y-91941834D01*
X145070668Y-91703647D01*
X145077496Y-91526858D01*
X145093078Y-91388241D01*
X145120419Y-91264570D01*
X145162526Y-91132620D01*
X145181011Y-91081002D01*
X145345622Y-90701230D01*
X145550385Y-90372013D01*
X145815415Y-90061734D01*
X145855215Y-90021269D01*
X146217021Y-89710564D01*
X146615814Y-89470795D01*
X147014500Y-89309372D01*
X147185864Y-89257458D01*
X147338627Y-89224438D01*
X147501963Y-89206409D01*
X147705046Y-89199469D01*
X147840000Y-89198956D01*
X148079220Y-89202806D01*
X148263921Y-89215898D01*
X148424095Y-89242325D01*
X148589730Y-89286181D01*
X148674580Y-89312868D01*
X149106419Y-89496530D01*
X149500809Y-89751099D01*
X149848766Y-90067744D01*
X150141306Y-90437632D01*
X150369445Y-90851933D01*
X150452090Y-91060122D01*
X150500571Y-91206927D01*
X150533484Y-91335656D01*
X150553825Y-91469388D01*
X150564591Y-91631202D01*
X150568777Y-91844177D01*
X150569313Y-91963000D01*
X150567767Y-92212633D01*
X150560155Y-92400815D01*
X150543814Y-92550694D01*
X150516079Y-92685416D01*
X150474284Y-92828128D01*
X150467222Y-92849872D01*
X150326269Y-93180766D01*
X150125517Y-93514580D01*
X149883806Y-93822853D01*
X149700927Y-94007661D01*
X149448666Y-94235943D01*
X149448666Y-94623472D01*
X149451043Y-94792826D01*
X149457415Y-94924637D01*
X149466649Y-95000176D01*
X149472156Y-95011000D01*
X149531018Y-94985569D01*
X149637072Y-94917796D01*
X149773245Y-94820458D01*
X149922463Y-94706336D01*
X150067654Y-94588208D01*
X150191743Y-94478853D01*
X150222857Y-94449125D01*
X150520659Y-94108746D01*
X150785587Y-93710994D01*
X151002657Y-93281251D01*
X151145014Y-92887079D01*
X151199831Y-92631811D01*
X151236827Y-92323087D01*
X151255058Y-91989446D01*
X151253580Y-91659432D01*
X151231449Y-91361585D01*
X151201479Y-91179834D01*
X151098299Y-90837872D01*
X150942889Y-90481197D01*
X150748125Y-90131576D01*
X150526885Y-89810776D01*
X150292045Y-89540565D01*
X150160706Y-89420536D01*
X149746130Y-89118406D01*
X149304669Y-88868684D01*
X148856495Y-88681755D01*
X148559666Y-88596154D01*
X148247877Y-88545743D01*
X147892566Y-88524044D01*
X147526205Y-88530707D01*
X147181264Y-88565383D01*
X146940459Y-88613606D01*
X146443752Y-88787135D01*
X145984807Y-89035212D01*
X145568071Y-89354548D01*
X145197992Y-89741853D01*
X144943801Y-90090225D01*
X144729280Y-90479572D01*
X144557809Y-90908895D01*
X144437209Y-91352695D01*
X144375299Y-91785478D01*
X144368666Y-91965482D01*
X144404821Y-92436563D01*
G36*
X144437550Y-98981059D02*
G01*
X144493488Y-99007092D01*
X144618815Y-99063296D01*
X144806730Y-99146700D01*
X145050433Y-99254331D01*
X145343124Y-99383219D01*
X145678003Y-99530392D01*
X146048270Y-99692880D01*
X146447124Y-99867712D01*
X146867766Y-100051915D01*
X147303395Y-100242520D01*
X147747211Y-100436554D01*
X148192415Y-100631047D01*
X148632205Y-100823027D01*
X149059783Y-101009524D01*
X149468347Y-101187566D01*
X149851098Y-101354182D01*
X150201235Y-101506400D01*
X150511959Y-101641250D01*
X150776469Y-101755761D01*
X150987965Y-101846961D01*
X151139647Y-101911879D01*
X151224715Y-101947545D01*
X151240974Y-101953667D01*
X151254394Y-101914797D01*
X151264310Y-101812006D01*
X151268885Y-101666023D01*
X151269000Y-101637396D01*
X151269000Y-101321126D01*
X149893382Y-99594813D01*
X149629329Y-99263037D01*
X149381945Y-98951414D01*
X149156130Y-98666175D01*
X148956786Y-98413547D01*
X148788813Y-98199759D01*
X148657113Y-98031041D01*
X148566587Y-97913621D01*
X148522137Y-97853727D01*
X148518346Y-97847334D01*
X148555865Y-97826089D01*
X148662290Y-97775147D01*
X148828841Y-97698475D01*
X149046741Y-97600043D01*
X149307209Y-97483820D01*
X149601467Y-97353774D01*
X149883381Y-97230184D01*
X151247833Y-96634202D01*
X151260128Y-96288268D01*
X151262011Y-96129278D01*
X151256261Y-96008885D01*
X151244088Y-95946851D01*
X151238962Y-95942552D01*
X151196063Y-95959185D01*
X151081224Y-96007398D01*
X150900038Y-96084767D01*
X150658102Y-96188867D01*
X150361010Y-96317271D01*
X150014359Y-96467555D01*
X149623743Y-96637292D01*
X149194759Y-96824058D01*
X148733001Y-97025426D01*
X148244065Y-97238972D01*
X147831714Y-97419320D01*
X147831714Y-98173690D01*
X147877748Y-98173726D01*
X147913192Y-98211454D01*
X147993996Y-98305777D01*
X148112996Y-98447889D01*
X148263028Y-98628985D01*
X148436930Y-98840262D01*
X148627537Y-99072914D01*
X148827685Y-99318136D01*
X149030212Y-99567124D01*
X149227953Y-99811073D01*
X149413745Y-100041178D01*
X149580424Y-100248635D01*
X149720827Y-100424638D01*
X149827789Y-100560383D01*
X149894148Y-100647065D01*
X149913277Y-100675582D01*
X149886736Y-100674727D01*
X149882583Y-100672755D01*
X149838671Y-100653033D01*
X149724810Y-100602525D01*
X149548542Y-100524561D01*
X149317408Y-100422469D01*
X149038949Y-100299578D01*
X148720705Y-100159218D01*
X148370217Y-100004718D01*
X147995028Y-99839406D01*
X147935250Y-99813074D01*
X147558060Y-99646513D01*
X147205490Y-99490016D01*
X146884928Y-99346919D01*
X146603758Y-99220557D01*
X146369367Y-99114267D01*
X146189143Y-99031384D01*
X146070469Y-98975243D01*
X146020734Y-98949181D01*
X146019666Y-98947997D01*
X146056703Y-98925698D01*
X146160611Y-98874707D01*
X146320586Y-98800022D01*
X146525824Y-98706643D01*
X146765523Y-98599568D01*
X146919250Y-98531767D01*
X147257411Y-98385926D01*
X147521360Y-98277950D01*
X147712369Y-98207363D01*
X147831714Y-98173690D01*
X147831714Y-97419320D01*
X147781884Y-97441114D01*
X147171305Y-97708622D01*
X146634457Y-97944500D01*
X146167308Y-98150607D01*
X145765824Y-98328798D01*
X145425972Y-98480930D01*
X145143721Y-98608861D01*
X144915038Y-98714447D01*
X144735890Y-98799545D01*
X144602244Y-98866012D01*
X144510068Y-98915705D01*
X144455329Y-98950480D01*
X144433995Y-98972195D01*
X144437550Y-98981059D01*
G37*
X144437550Y-98981059D02*
X144493488Y-99007092D01*
X144618815Y-99063296D01*
X144806730Y-99146700D01*
X145050433Y-99254331D01*
X145343124Y-99383219D01*
X145678003Y-99530392D01*
X146048270Y-99692880D01*
X146447124Y-99867712D01*
X146867766Y-100051915D01*
X147303395Y-100242520D01*
X147747211Y-100436554D01*
X148192415Y-100631047D01*
X148632205Y-100823027D01*
X149059783Y-101009524D01*
X149468347Y-101187566D01*
X149851098Y-101354182D01*
X150201235Y-101506400D01*
X150511959Y-101641250D01*
X150776469Y-101755761D01*
X150987965Y-101846961D01*
X151139647Y-101911879D01*
X151224715Y-101947545D01*
X151240974Y-101953667D01*
X151254394Y-101914797D01*
X151264310Y-101812006D01*
X151268885Y-101666023D01*
X151269000Y-101637396D01*
X151269000Y-101321126D01*
X149893382Y-99594813D01*
X149629329Y-99263037D01*
X149381945Y-98951414D01*
X149156130Y-98666175D01*
X148956786Y-98413547D01*
X148788813Y-98199759D01*
X148657113Y-98031041D01*
X148566587Y-97913621D01*
X148522137Y-97853727D01*
X148518346Y-97847334D01*
X148555865Y-97826089D01*
X148662290Y-97775147D01*
X148828841Y-97698475D01*
X149046741Y-97600043D01*
X149307209Y-97483820D01*
X149601467Y-97353774D01*
X149883381Y-97230184D01*
X151247833Y-96634202D01*
X151260128Y-96288268D01*
X151262011Y-96129278D01*
X151256261Y-96008885D01*
X151244088Y-95946851D01*
X151238962Y-95942552D01*
X151196063Y-95959185D01*
X151081224Y-96007398D01*
X150900038Y-96084767D01*
X150658102Y-96188867D01*
X150361010Y-96317271D01*
X150014359Y-96467555D01*
X149623743Y-96637292D01*
X149194759Y-96824058D01*
X148733001Y-97025426D01*
X148244065Y-97238972D01*
X147831714Y-97419320D01*
X147831714Y-98173690D01*
X147877748Y-98173726D01*
X147913192Y-98211454D01*
X147993996Y-98305777D01*
X148112996Y-98447889D01*
X148263028Y-98628985D01*
X148436930Y-98840262D01*
X148627537Y-99072914D01*
X148827685Y-99318136D01*
X149030212Y-99567124D01*
X149227953Y-99811073D01*
X149413745Y-100041178D01*
X149580424Y-100248635D01*
X149720827Y-100424638D01*
X149827789Y-100560383D01*
X149894148Y-100647065D01*
X149913277Y-100675582D01*
X149886736Y-100674727D01*
X149882583Y-100672755D01*
X149838671Y-100653033D01*
X149724810Y-100602525D01*
X149548542Y-100524561D01*
X149317408Y-100422469D01*
X149038949Y-100299578D01*
X148720705Y-100159218D01*
X148370217Y-100004718D01*
X147995028Y-99839406D01*
X147935250Y-99813074D01*
X147558060Y-99646513D01*
X147205490Y-99490016D01*
X146884928Y-99346919D01*
X146603758Y-99220557D01*
X146369367Y-99114267D01*
X146189143Y-99031384D01*
X146070469Y-98975243D01*
X146020734Y-98949181D01*
X146019666Y-98947997D01*
X146056703Y-98925698D01*
X146160611Y-98874707D01*
X146320586Y-98800022D01*
X146525824Y-98706643D01*
X146765523Y-98599568D01*
X146919250Y-98531767D01*
X147257411Y-98385926D01*
X147521360Y-98277950D01*
X147712369Y-98207363D01*
X147831714Y-98173690D01*
X147831714Y-97419320D01*
X147781884Y-97441114D01*
X147171305Y-97708622D01*
X146634457Y-97944500D01*
X146167308Y-98150607D01*
X145765824Y-98328798D01*
X145425972Y-98480930D01*
X145143721Y-98608861D01*
X144915038Y-98714447D01*
X144735890Y-98799545D01*
X144602244Y-98866012D01*
X144510068Y-98915705D01*
X144455329Y-98950480D01*
X144433995Y-98972195D01*
X144437550Y-98981059D01*
G36*
X144369292Y-104038584D02*
G01*
X144372117Y-104492961D01*
X144381827Y-104873359D01*
X144401056Y-105190356D01*
X144432433Y-105454531D01*
X144478592Y-105676465D01*
X144542163Y-105866737D01*
X144625779Y-106035926D01*
X144732071Y-106194612D01*
X144863670Y-106353374D01*
X144974835Y-106472904D01*
X145282574Y-106736343D01*
X145629539Y-106934737D01*
X146004754Y-107068933D01*
X146397242Y-107139774D01*
X146796026Y-107148107D01*
X147190129Y-107094776D01*
X147568574Y-106980626D01*
X147920385Y-106806503D01*
X148234585Y-106573252D01*
X148500196Y-106281718D01*
X148559666Y-106196894D01*
X148623166Y-106100954D01*
X149927101Y-106673144D01*
X150237220Y-106808990D01*
X150522078Y-106933313D01*
X150772560Y-107042170D01*
X150979551Y-107131616D01*
X151133933Y-107197711D01*
X151226593Y-107236511D01*
X151250018Y-107245334D01*
X151258585Y-107206238D01*
X151265141Y-107101890D01*
X151268667Y-106951700D01*
X151269000Y-106884431D01*
X151269000Y-106523529D01*
X150962083Y-106385320D01*
X150829965Y-106326477D01*
X150636986Y-106241395D01*
X150399991Y-106137459D01*
X150135825Y-106022051D01*
X149861332Y-105902554D01*
X149787333Y-105870416D01*
X148919500Y-105493722D01*
X148934126Y-104168194D01*
X148948753Y-102842667D01*
X148263333Y-102842667D01*
X148263333Y-104006834D01*
X148262042Y-104310879D01*
X148258400Y-104585303D01*
X148252751Y-104819298D01*
X148245438Y-105002056D01*
X148236806Y-105122771D01*
X148227199Y-105170635D01*
X148226267Y-105171000D01*
X148170043Y-105155064D01*
X148062868Y-105113832D01*
X147961684Y-105070900D01*
X147775828Y-104989077D01*
X147655037Y-104944219D01*
X147585369Y-104942859D01*
X147552879Y-104991528D01*
X147543626Y-105096759D01*
X147543666Y-105265085D01*
X147543666Y-105622194D01*
X147755333Y-105721334D01*
X147871712Y-105781012D01*
X147948592Y-105830346D01*
X147967000Y-105851647D01*
X147933532Y-105910004D01*
X147845283Y-105997316D01*
X147720480Y-106099668D01*
X147577351Y-106203145D01*
X147434125Y-106293830D01*
X147309030Y-106357808D01*
X147298202Y-106362208D01*
X147151271Y-106411532D01*
X146998162Y-106441458D01*
X146810312Y-106456176D01*
X146633500Y-106459734D01*
X146430639Y-106458627D01*
X146284634Y-106449134D01*
X146167736Y-106426142D01*
X146052197Y-106384539D01*
X145935000Y-106331043D01*
X145624317Y-106142275D01*
X145373661Y-105903555D01*
X145191825Y-105623399D01*
X145181187Y-105600911D01*
X145123372Y-105457368D01*
X145086261Y-105311001D01*
X145064132Y-105132588D01*
X145053414Y-104948133D01*
X145036103Y-104534767D01*
X145231551Y-104620050D01*
X145398810Y-104693036D01*
X145575750Y-104770249D01*
X145621009Y-104790000D01*
X145740767Y-104839102D01*
X145829233Y-104869656D01*
X145853842Y-104874667D01*
X145871500Y-104835608D01*
X145884957Y-104731479D01*
X145892071Y-104581851D01*
X145892666Y-104519975D01*
X145892666Y-104165282D01*
X145470285Y-103980225D01*
X145284736Y-103897788D01*
X145163377Y-103838243D01*
X145092552Y-103791181D01*
X145058607Y-103746197D01*
X145047887Y-103692882D01*
X145046952Y-103657584D01*
X145046000Y-103520000D01*
X145850333Y-103520000D01*
X145850333Y-102842667D01*
X144368666Y-102842667D01*
X144369292Y-104038584D01*
G37*
X144369292Y-104038584D02*
X144372117Y-104492961D01*
X144381827Y-104873359D01*
X144401056Y-105190356D01*
X144432433Y-105454531D01*
X144478592Y-105676465D01*
X144542163Y-105866737D01*
X144625779Y-106035926D01*
X144732071Y-106194612D01*
X144863670Y-106353374D01*
X144974835Y-106472904D01*
X145282574Y-106736343D01*
X145629539Y-106934737D01*
X146004754Y-107068933D01*
X146397242Y-107139774D01*
X146796026Y-107148107D01*
X147190129Y-107094776D01*
X147568574Y-106980626D01*
X147920385Y-106806503D01*
X148234585Y-106573252D01*
X148500196Y-106281718D01*
X148559666Y-106196894D01*
X148623166Y-106100954D01*
X149927101Y-106673144D01*
X150237220Y-106808990D01*
X150522078Y-106933313D01*
X150772560Y-107042170D01*
X150979551Y-107131616D01*
X151133933Y-107197711D01*
X151226593Y-107236511D01*
X151250018Y-107245334D01*
X151258585Y-107206238D01*
X151265141Y-107101890D01*
X151268667Y-106951700D01*
X151269000Y-106884431D01*
X151269000Y-106523529D01*
X150962083Y-106385320D01*
X150829965Y-106326477D01*
X150636986Y-106241395D01*
X150399991Y-106137459D01*
X150135825Y-106022051D01*
X149861332Y-105902554D01*
X149787333Y-105870416D01*
X148919500Y-105493722D01*
X148934126Y-104168194D01*
X148948753Y-102842667D01*
X148263333Y-102842667D01*
X148263333Y-104006834D01*
X148262042Y-104310879D01*
X148258400Y-104585303D01*
X148252751Y-104819298D01*
X148245438Y-105002056D01*
X148236806Y-105122771D01*
X148227199Y-105170635D01*
X148226267Y-105171000D01*
X148170043Y-105155064D01*
X148062868Y-105113832D01*
X147961684Y-105070900D01*
X147775828Y-104989077D01*
X147655037Y-104944219D01*
X147585369Y-104942859D01*
X147552879Y-104991528D01*
X147543626Y-105096759D01*
X147543666Y-105265085D01*
X147543666Y-105622194D01*
X147755333Y-105721334D01*
X147871712Y-105781012D01*
X147948592Y-105830346D01*
X147967000Y-105851647D01*
X147933532Y-105910004D01*
X147845283Y-105997316D01*
X147720480Y-106099668D01*
X147577351Y-106203145D01*
X147434125Y-106293830D01*
X147309030Y-106357808D01*
X147298202Y-106362208D01*
X147151271Y-106411532D01*
X146998162Y-106441458D01*
X146810312Y-106456176D01*
X146633500Y-106459734D01*
X146430639Y-106458627D01*
X146284634Y-106449134D01*
X146167736Y-106426142D01*
X146052197Y-106384539D01*
X145935000Y-106331043D01*
X145624317Y-106142275D01*
X145373661Y-105903555D01*
X145191825Y-105623399D01*
X145181187Y-105600911D01*
X145123372Y-105457368D01*
X145086261Y-105311001D01*
X145064132Y-105132588D01*
X145053414Y-104948133D01*
X145036103Y-104534767D01*
X145231551Y-104620050D01*
X145398810Y-104693036D01*
X145575750Y-104770249D01*
X145621009Y-104790000D01*
X145740767Y-104839102D01*
X145829233Y-104869656D01*
X145853842Y-104874667D01*
X145871500Y-104835608D01*
X145884957Y-104731479D01*
X145892071Y-104581851D01*
X145892666Y-104519975D01*
X145892666Y-104165282D01*
X145470285Y-103980225D01*
X145284736Y-103897788D01*
X145163377Y-103838243D01*
X145092552Y-103791181D01*
X145058607Y-103746197D01*
X145047887Y-103692882D01*
X145046952Y-103657584D01*
X145046000Y-103520000D01*
X145850333Y-103520000D01*
X145850333Y-102842667D01*
X144368666Y-102842667D01*
X144369292Y-104038584D01*
G36*
X144887250Y-113954083D02*
G01*
X145011093Y-113899713D01*
X145205012Y-113814581D01*
X145461557Y-113701955D01*
X145773278Y-113565108D01*
X146132725Y-113407308D01*
X146532449Y-113231826D01*
X146965000Y-113041934D01*
X147422929Y-112840900D01*
X147898786Y-112631997D01*
X148342282Y-112437300D01*
X148905070Y-112189892D01*
X149394404Y-111973971D01*
X149814594Y-111787529D01*
X150169947Y-111628563D01*
X150464770Y-111495065D01*
X150703371Y-111385032D01*
X150890059Y-111296455D01*
X151029141Y-111227331D01*
X151124925Y-111175653D01*
X151181718Y-111139416D01*
X151203829Y-111116614D01*
X151199782Y-111106871D01*
X151144622Y-111081283D01*
X151020002Y-111025509D01*
X150832721Y-110942516D01*
X150589573Y-110835273D01*
X150297358Y-110706747D01*
X149962870Y-110559904D01*
X149592909Y-110397714D01*
X149194269Y-110223142D01*
X148773749Y-110039156D01*
X148338145Y-109848725D01*
X147894255Y-109654815D01*
X147448874Y-109460393D01*
X147008801Y-109268428D01*
X146580832Y-109081887D01*
X146171763Y-108903737D01*
X145788393Y-108736946D01*
X145437518Y-108584480D01*
X145125934Y-108449309D01*
X144860440Y-108334398D01*
X144647831Y-108242716D01*
X144494905Y-108177230D01*
X144408459Y-108140907D01*
X144391199Y-108134334D01*
X144380625Y-108173300D01*
X144375283Y-108276969D01*
X144375962Y-108425491D01*
X144377537Y-108478080D01*
X144389833Y-108821827D01*
X145194166Y-109179653D01*
X145410917Y-109275871D01*
X145691828Y-109400247D01*
X146023542Y-109546884D01*
X146392703Y-109709886D01*
X146785954Y-109883355D01*
X147189938Y-110061396D01*
X147591299Y-110238112D01*
X147734166Y-110300970D01*
X148169252Y-110492305D01*
X148532996Y-110652328D01*
X148831484Y-110783978D01*
X149070804Y-110890195D01*
X149257043Y-110973918D01*
X149396286Y-111038087D01*
X149494621Y-111085641D01*
X149558136Y-111119519D01*
X149592916Y-111142662D01*
X149605048Y-111158009D01*
X149600620Y-111168498D01*
X149585718Y-111177071D01*
X149567240Y-111186207D01*
X149520822Y-111207562D01*
X149405260Y-111259054D01*
X149229020Y-111336979D01*
X149000566Y-111437633D01*
X148728364Y-111557311D01*
X148420878Y-111692308D01*
X148086575Y-111838920D01*
X147733919Y-111993442D01*
X147371376Y-112152170D01*
X147007410Y-112311399D01*
X146650487Y-112467424D01*
X146309072Y-112616541D01*
X145991629Y-112755046D01*
X145706625Y-112879232D01*
X145462524Y-112985397D01*
X145267792Y-113069836D01*
X145130894Y-113128843D01*
X145060294Y-113158714D01*
X145056583Y-113160203D01*
X145042869Y-113149266D01*
X145031588Y-113100403D01*
X145022538Y-113007265D01*
X145015519Y-112863504D01*
X145010329Y-112662773D01*
X145006768Y-112398722D01*
X145004635Y-112065003D01*
X145003730Y-111655269D01*
X145003666Y-111487021D01*
X145003666Y-109792984D01*
X144368666Y-109579484D01*
X144368666Y-114181751D01*
X144887250Y-113954083D01*
G37*
X144887250Y-113954083D02*
X145011093Y-113899713D01*
X145205012Y-113814581D01*
X145461557Y-113701955D01*
X145773278Y-113565108D01*
X146132725Y-113407308D01*
X146532449Y-113231826D01*
X146965000Y-113041934D01*
X147422929Y-112840900D01*
X147898786Y-112631997D01*
X148342282Y-112437300D01*
X148905070Y-112189892D01*
X149394404Y-111973971D01*
X149814594Y-111787529D01*
X150169947Y-111628563D01*
X150464770Y-111495065D01*
X150703371Y-111385032D01*
X150890059Y-111296455D01*
X151029141Y-111227331D01*
X151124925Y-111175653D01*
X151181718Y-111139416D01*
X151203829Y-111116614D01*
X151199782Y-111106871D01*
X151144622Y-111081283D01*
X151020002Y-111025509D01*
X150832721Y-110942516D01*
X150589573Y-110835273D01*
X150297358Y-110706747D01*
X149962870Y-110559904D01*
X149592909Y-110397714D01*
X149194269Y-110223142D01*
X148773749Y-110039156D01*
X148338145Y-109848725D01*
X147894255Y-109654815D01*
X147448874Y-109460393D01*
X147008801Y-109268428D01*
X146580832Y-109081887D01*
X146171763Y-108903737D01*
X145788393Y-108736946D01*
X145437518Y-108584480D01*
X145125934Y-108449309D01*
X144860440Y-108334398D01*
X144647831Y-108242716D01*
X144494905Y-108177230D01*
X144408459Y-108140907D01*
X144391199Y-108134334D01*
X144380625Y-108173300D01*
X144375283Y-108276969D01*
X144375962Y-108425491D01*
X144377537Y-108478080D01*
X144389833Y-108821827D01*
X145194166Y-109179653D01*
X145410917Y-109275871D01*
X145691828Y-109400247D01*
X146023542Y-109546884D01*
X146392703Y-109709886D01*
X146785954Y-109883355D01*
X147189938Y-110061396D01*
X147591299Y-110238112D01*
X147734166Y-110300970D01*
X148169252Y-110492305D01*
X148532996Y-110652328D01*
X148831484Y-110783978D01*
X149070804Y-110890195D01*
X149257043Y-110973918D01*
X149396286Y-111038087D01*
X149494621Y-111085641D01*
X149558136Y-111119519D01*
X149592916Y-111142662D01*
X149605048Y-111158009D01*
X149600620Y-111168498D01*
X149585718Y-111177071D01*
X149567240Y-111186207D01*
X149520822Y-111207562D01*
X149405260Y-111259054D01*
X149229020Y-111336979D01*
X149000566Y-111437633D01*
X148728364Y-111557311D01*
X148420878Y-111692308D01*
X148086575Y-111838920D01*
X147733919Y-111993442D01*
X147371376Y-112152170D01*
X147007410Y-112311399D01*
X146650487Y-112467424D01*
X146309072Y-112616541D01*
X145991629Y-112755046D01*
X145706625Y-112879232D01*
X145462524Y-112985397D01*
X145267792Y-113069836D01*
X145130894Y-113128843D01*
X145060294Y-113158714D01*
X145056583Y-113160203D01*
X145042869Y-113149266D01*
X145031588Y-113100403D01*
X145022538Y-113007265D01*
X145015519Y-112863504D01*
X145010329Y-112662773D01*
X145006768Y-112398722D01*
X145004635Y-112065003D01*
X145003730Y-111655269D01*
X145003666Y-111487021D01*
X145003666Y-109792984D01*
X144368666Y-109579484D01*
X144368666Y-114181751D01*
X144887250Y-113954083D01*
G36*
X144393526Y-117614088D02*
G01*
X144473933Y-117956004D01*
X144602287Y-118273167D01*
X144679369Y-118412551D01*
X144783759Y-118570850D01*
X144902846Y-118732364D01*
X145024017Y-118881393D01*
X145134661Y-119002235D01*
X145222166Y-119079192D01*
X145265410Y-119098667D01*
X145308782Y-119071506D01*
X145399163Y-118998185D01*
X145523205Y-118890950D01*
X145667558Y-118762047D01*
X145818873Y-118623719D01*
X145963798Y-118488213D01*
X146088986Y-118367773D01*
X146181085Y-118274645D01*
X146226747Y-118221073D01*
X146229388Y-118214452D01*
X146201919Y-118173133D01*
X146130658Y-118086338D01*
X146029394Y-117970664D01*
X145997356Y-117935156D01*
X145767267Y-117681812D01*
X145537768Y-117908460D01*
X145422849Y-118012991D01*
X145327025Y-118083909D01*
X145268043Y-118108438D01*
X145262367Y-118106739D01*
X145228333Y-118054663D01*
X145181389Y-117943835D01*
X145131099Y-117797134D01*
X145126003Y-117780546D01*
X145057457Y-117442161D01*
X145053510Y-117107785D01*
X145111040Y-116792254D01*
X145226923Y-116510406D01*
X145398038Y-116277078D01*
X145453640Y-116224026D01*
X145687226Y-116069567D01*
X145944946Y-115986040D01*
X146211162Y-115972018D01*
X146470237Y-116026075D01*
X146706533Y-116146784D01*
X146904414Y-116332719D01*
X146923953Y-116358155D01*
X147010718Y-116475144D01*
X146762637Y-116725840D01*
X146514556Y-116976537D01*
X146737827Y-117234262D01*
X146852255Y-117364626D01*
X146931547Y-117435284D01*
X146998154Y-117448592D01*
X147074525Y-117406909D01*
X147183113Y-117312593D01*
X147214332Y-117284312D01*
X147291227Y-117219276D01*
X147329881Y-117209047D01*
X147353216Y-117249887D01*
X147357099Y-117261028D01*
X147548600Y-117744058D01*
X147770650Y-118164871D01*
X148018857Y-118515942D01*
X148207579Y-118717825D01*
X148505252Y-118941430D01*
X148838787Y-119093035D01*
X149197478Y-119171350D01*
X149570620Y-119175085D01*
X149947508Y-119102952D01*
X150288322Y-118968487D01*
X150506664Y-118829854D01*
X150724849Y-118640812D01*
X150916182Y-118427549D01*
X151052838Y-118218477D01*
X151145339Y-117987320D01*
X151217394Y-117710819D01*
X151260273Y-117427485D01*
X151268374Y-117267750D01*
X151269000Y-117024334D01*
X150591666Y-117024334D01*
X150591666Y-117243806D01*
X150559883Y-117558695D01*
X150469570Y-117850010D01*
X150328285Y-118095327D01*
X150288226Y-118144193D01*
X150079390Y-118321047D01*
X149828011Y-118438526D01*
X149551678Y-118496274D01*
X149267979Y-118493940D01*
X148994502Y-118431169D01*
X148748835Y-118307608D01*
X148596571Y-118178189D01*
X148490169Y-118055755D01*
X148396244Y-117922524D01*
X148306321Y-117762732D01*
X148211929Y-117560615D01*
X148104597Y-117300407D01*
X148050697Y-117162438D01*
X147850666Y-116644376D01*
X148184000Y-116325912D01*
X148517333Y-116007447D01*
X148517333Y-115014824D01*
X148019916Y-115508677D01*
X147522500Y-116002530D01*
X147304979Y-115777910D01*
X147149711Y-115638516D01*
X146970946Y-115508522D01*
X146839312Y-115432347D01*
X146716993Y-115376661D01*
X146609011Y-115341126D01*
X146489850Y-115321258D01*
X146333993Y-115312572D01*
X146146666Y-115310619D01*
X145939590Y-115312222D01*
X145790903Y-115321088D01*
X145674366Y-115342004D01*
X145563737Y-115379757D01*
X145432775Y-115439134D01*
X145427000Y-115441903D01*
X145113906Y-115637777D01*
X144847071Y-115897390D01*
X144632955Y-116209753D01*
X144478013Y-116563876D01*
X144388706Y-116948770D01*
X144368666Y-117242811D01*
X144393526Y-117614088D01*
G37*
X144393526Y-117614088D02*
X144473933Y-117956004D01*
X144602287Y-118273167D01*
X144679369Y-118412551D01*
X144783759Y-118570850D01*
X144902846Y-118732364D01*
X145024017Y-118881393D01*
X145134661Y-119002235D01*
X145222166Y-119079192D01*
X145265410Y-119098667D01*
X145308782Y-119071506D01*
X145399163Y-118998185D01*
X145523205Y-118890950D01*
X145667558Y-118762047D01*
X145818873Y-118623719D01*
X145963798Y-118488213D01*
X146088986Y-118367773D01*
X146181085Y-118274645D01*
X146226747Y-118221073D01*
X146229388Y-118214452D01*
X146201919Y-118173133D01*
X146130658Y-118086338D01*
X146029394Y-117970664D01*
X145997356Y-117935156D01*
X145767267Y-117681812D01*
X145537768Y-117908460D01*
X145422849Y-118012991D01*
X145327025Y-118083909D01*
X145268043Y-118108438D01*
X145262367Y-118106739D01*
X145228333Y-118054663D01*
X145181389Y-117943835D01*
X145131099Y-117797134D01*
X145126003Y-117780546D01*
X145057457Y-117442161D01*
X145053510Y-117107785D01*
X145111040Y-116792254D01*
X145226923Y-116510406D01*
X145398038Y-116277078D01*
X145453640Y-116224026D01*
X145687226Y-116069567D01*
X145944946Y-115986040D01*
X146211162Y-115972018D01*
X146470237Y-116026075D01*
X146706533Y-116146784D01*
X146904414Y-116332719D01*
X146923953Y-116358155D01*
X147010718Y-116475144D01*
X146762637Y-116725840D01*
X146514556Y-116976537D01*
X146737827Y-117234262D01*
X146852255Y-117364626D01*
X146931547Y-117435284D01*
X146998154Y-117448592D01*
X147074525Y-117406909D01*
X147183113Y-117312593D01*
X147214332Y-117284312D01*
X147291227Y-117219276D01*
X147329881Y-117209047D01*
X147353216Y-117249887D01*
X147357099Y-117261028D01*
X147548600Y-117744058D01*
X147770650Y-118164871D01*
X148018857Y-118515942D01*
X148207579Y-118717825D01*
X148505252Y-118941430D01*
X148838787Y-119093035D01*
X149197478Y-119171350D01*
X149570620Y-119175085D01*
X149947508Y-119102952D01*
X150288322Y-118968487D01*
X150506664Y-118829854D01*
X150724849Y-118640812D01*
X150916182Y-118427549D01*
X151052838Y-118218477D01*
X151145339Y-117987320D01*
X151217394Y-117710819D01*
X151260273Y-117427485D01*
X151268374Y-117267750D01*
X151269000Y-117024334D01*
X150591666Y-117024334D01*
X150591666Y-117243806D01*
X150559883Y-117558695D01*
X150469570Y-117850010D01*
X150328285Y-118095327D01*
X150288226Y-118144193D01*
X150079390Y-118321047D01*
X149828011Y-118438526D01*
X149551678Y-118496274D01*
X149267979Y-118493940D01*
X148994502Y-118431169D01*
X148748835Y-118307608D01*
X148596571Y-118178189D01*
X148490169Y-118055755D01*
X148396244Y-117922524D01*
X148306321Y-117762732D01*
X148211929Y-117560615D01*
X148104597Y-117300407D01*
X148050697Y-117162438D01*
X147850666Y-116644376D01*
X148184000Y-116325912D01*
X148517333Y-116007447D01*
X148517333Y-115014824D01*
X148019916Y-115508677D01*
X147522500Y-116002530D01*
X147304979Y-115777910D01*
X147149711Y-115638516D01*
X146970946Y-115508522D01*
X146839312Y-115432347D01*
X146716993Y-115376661D01*
X146609011Y-115341126D01*
X146489850Y-115321258D01*
X146333993Y-115312572D01*
X146146666Y-115310619D01*
X145939590Y-115312222D01*
X145790903Y-115321088D01*
X145674366Y-115342004D01*
X145563737Y-115379757D01*
X145432775Y-115439134D01*
X145427000Y-115441903D01*
X145113906Y-115637777D01*
X144847071Y-115897390D01*
X144632955Y-116209753D01*
X144478013Y-116563876D01*
X144388706Y-116948770D01*
X144368666Y-117242811D01*
X144393526Y-117614088D01*
G04 #@! TD*
M02*
