G04 #@! TF.GenerationSoftware,KiCad,Pcbnew,5.1.6-c6e7f7d~87~ubuntu19.10.1*
G04 #@! TF.CreationDate,2021-03-17T15:36:07-04:00*
G04 #@! TF.ProjectId,icarus,69636172-7573-42e6-9b69-6361645f7063,V1.0*
G04 #@! TF.SameCoordinates,Original*
G04 #@! TF.FileFunction,Legend,Bot*
G04 #@! TF.FilePolarity,Positive*
%FSLAX46Y46*%
G04 Gerber Fmt 4.6, Leading zero omitted, Abs format (unit mm)*
G04 Created by KiCad (PCBNEW 5.1.6-c6e7f7d~87~ubuntu19.10.1) date 2021-03-17 15:36:07*
%MOMM*%
%LPD*%
G01*
G04 APERTURE LIST*
%ADD10C,0.300000*%
%ADD11C,0.010000*%
G04 APERTURE END LIST*
D10*
X113913571Y-87450714D02*
X114985000Y-87450714D01*
X115199285Y-87379285D01*
X115342142Y-87236428D01*
X115413571Y-87022142D01*
X115413571Y-86879285D01*
X115342142Y-88736428D02*
X115413571Y-88593571D01*
X115413571Y-88307857D01*
X115342142Y-88165000D01*
X115199285Y-88093571D01*
X114627857Y-88093571D01*
X114485000Y-88165000D01*
X114413571Y-88307857D01*
X114413571Y-88593571D01*
X114485000Y-88736428D01*
X114627857Y-88807857D01*
X114770714Y-88807857D01*
X114913571Y-88093571D01*
X115413571Y-89450714D02*
X114413571Y-89450714D01*
X114699285Y-89450714D02*
X114556428Y-89522142D01*
X114485000Y-89593571D01*
X114413571Y-89736428D01*
X114413571Y-89879285D01*
X115342142Y-90950714D02*
X115413571Y-90807857D01*
X115413571Y-90522142D01*
X115342142Y-90379285D01*
X115199285Y-90307857D01*
X114627857Y-90307857D01*
X114485000Y-90379285D01*
X114413571Y-90522142D01*
X114413571Y-90807857D01*
X114485000Y-90950714D01*
X114627857Y-91022142D01*
X114770714Y-91022142D01*
X114913571Y-90307857D01*
X115413571Y-91665000D02*
X114413571Y-91665000D01*
X114556428Y-91665000D02*
X114485000Y-91736428D01*
X114413571Y-91879285D01*
X114413571Y-92093571D01*
X114485000Y-92236428D01*
X114627857Y-92307857D01*
X115413571Y-92307857D01*
X114627857Y-92307857D02*
X114485000Y-92379285D01*
X114413571Y-92522142D01*
X114413571Y-92736428D01*
X114485000Y-92879285D01*
X114627857Y-92950714D01*
X115413571Y-92950714D01*
X114413571Y-93522142D02*
X115413571Y-93879285D01*
X114413571Y-94236428D02*
X115413571Y-93879285D01*
X115770714Y-93736428D01*
X115842142Y-93665000D01*
X115913571Y-93522142D01*
X115413571Y-95950714D02*
X113913571Y-95950714D01*
X115413571Y-96807857D02*
X114556428Y-96165000D01*
X113913571Y-96807857D02*
X114770714Y-95950714D01*
X115413571Y-98093571D02*
X114627857Y-98093571D01*
X114485000Y-98022142D01*
X114413571Y-97879285D01*
X114413571Y-97593571D01*
X114485000Y-97450714D01*
X115342142Y-98093571D02*
X115413571Y-97950714D01*
X115413571Y-97593571D01*
X115342142Y-97450714D01*
X115199285Y-97379285D01*
X115056428Y-97379285D01*
X114913571Y-97450714D01*
X114842142Y-97593571D01*
X114842142Y-97950714D01*
X114770714Y-98093571D01*
X114413571Y-98807857D02*
X115413571Y-98807857D01*
X114556428Y-98807857D02*
X114485000Y-98879285D01*
X114413571Y-99022142D01*
X114413571Y-99236428D01*
X114485000Y-99379285D01*
X114627857Y-99450714D01*
X115413571Y-99450714D01*
X115413571Y-100379285D02*
X115342142Y-100236428D01*
X115270714Y-100165000D01*
X115127857Y-100093571D01*
X114699285Y-100093571D01*
X114556428Y-100165000D01*
X114485000Y-100236428D01*
X114413571Y-100379285D01*
X114413571Y-100593571D01*
X114485000Y-100736428D01*
X114556428Y-100807857D01*
X114699285Y-100879285D01*
X115127857Y-100879285D01*
X115270714Y-100807857D01*
X115342142Y-100736428D01*
X115413571Y-100593571D01*
X115413571Y-100379285D01*
X114413571Y-101379285D02*
X115413571Y-101736428D01*
X114413571Y-102093571D01*
X115342142Y-102593571D02*
X115413571Y-102736428D01*
X115413571Y-103022142D01*
X115342142Y-103165000D01*
X115199285Y-103236428D01*
X115127857Y-103236428D01*
X114985000Y-103165000D01*
X114913571Y-103022142D01*
X114913571Y-102807857D01*
X114842142Y-102665000D01*
X114699285Y-102593571D01*
X114627857Y-102593571D01*
X114485000Y-102665000D01*
X114413571Y-102807857D01*
X114413571Y-103022142D01*
X114485000Y-103165000D01*
X115413571Y-103879285D02*
X113913571Y-103879285D01*
X114842142Y-104022142D02*
X115413571Y-104450714D01*
X114413571Y-104450714D02*
X114985000Y-103879285D01*
X114413571Y-104950714D02*
X115413571Y-105307857D01*
X114413571Y-105665000D02*
X115413571Y-105307857D01*
X115770714Y-105165000D01*
X115842142Y-105093571D01*
X115913571Y-104950714D01*
X117892142Y-86950714D02*
X117963571Y-87165000D01*
X117963571Y-87522142D01*
X117892142Y-87665000D01*
X117820714Y-87736428D01*
X117677857Y-87807857D01*
X117535000Y-87807857D01*
X117392142Y-87736428D01*
X117320714Y-87665000D01*
X117249285Y-87522142D01*
X117177857Y-87236428D01*
X117106428Y-87093571D01*
X117035000Y-87022142D01*
X116892142Y-86950714D01*
X116749285Y-86950714D01*
X116606428Y-87022142D01*
X116535000Y-87093571D01*
X116463571Y-87236428D01*
X116463571Y-87593571D01*
X116535000Y-87807857D01*
X116963571Y-88450714D02*
X118463571Y-88450714D01*
X117035000Y-88450714D02*
X116963571Y-88593571D01*
X116963571Y-88879285D01*
X117035000Y-89022142D01*
X117106428Y-89093571D01*
X117249285Y-89165000D01*
X117677857Y-89165000D01*
X117820714Y-89093571D01*
X117892142Y-89022142D01*
X117963571Y-88879285D01*
X117963571Y-88593571D01*
X117892142Y-88450714D01*
X117963571Y-89807857D02*
X116963571Y-89807857D01*
X117249285Y-89807857D02*
X117106428Y-89879285D01*
X117035000Y-89950714D01*
X116963571Y-90093571D01*
X116963571Y-90236428D01*
X117963571Y-90736428D02*
X116963571Y-90736428D01*
X116463571Y-90736428D02*
X116535000Y-90665000D01*
X116606428Y-90736428D01*
X116535000Y-90807857D01*
X116463571Y-90736428D01*
X116606428Y-90736428D01*
X116963571Y-91450714D02*
X117963571Y-91450714D01*
X117106428Y-91450714D02*
X117035000Y-91522142D01*
X116963571Y-91665000D01*
X116963571Y-91879285D01*
X117035000Y-92022142D01*
X117177857Y-92093571D01*
X117963571Y-92093571D01*
X116963571Y-93450714D02*
X118177857Y-93450714D01*
X118320714Y-93379285D01*
X118392142Y-93307857D01*
X118463571Y-93165000D01*
X118463571Y-92950714D01*
X118392142Y-92807857D01*
X117892142Y-93450714D02*
X117963571Y-93307857D01*
X117963571Y-93022142D01*
X117892142Y-92879285D01*
X117820714Y-92807857D01*
X117677857Y-92736428D01*
X117249285Y-92736428D01*
X117106428Y-92807857D01*
X117035000Y-92879285D01*
X116963571Y-93022142D01*
X116963571Y-93307857D01*
X117035000Y-93450714D01*
X116606428Y-95236428D02*
X116535000Y-95307857D01*
X116463571Y-95450714D01*
X116463571Y-95807857D01*
X116535000Y-95950714D01*
X116606428Y-96022142D01*
X116749285Y-96093571D01*
X116892142Y-96093571D01*
X117106428Y-96022142D01*
X117963571Y-95165000D01*
X117963571Y-96093571D01*
X116463571Y-97022142D02*
X116463571Y-97165000D01*
X116535000Y-97307857D01*
X116606428Y-97379285D01*
X116749285Y-97450714D01*
X117035000Y-97522142D01*
X117392142Y-97522142D01*
X117677857Y-97450714D01*
X117820714Y-97379285D01*
X117892142Y-97307857D01*
X117963571Y-97165000D01*
X117963571Y-97022142D01*
X117892142Y-96879285D01*
X117820714Y-96807857D01*
X117677857Y-96736428D01*
X117392142Y-96665000D01*
X117035000Y-96665000D01*
X116749285Y-96736428D01*
X116606428Y-96807857D01*
X116535000Y-96879285D01*
X116463571Y-97022142D01*
X116606428Y-98093571D02*
X116535000Y-98165000D01*
X116463571Y-98307857D01*
X116463571Y-98665000D01*
X116535000Y-98807857D01*
X116606428Y-98879285D01*
X116749285Y-98950714D01*
X116892142Y-98950714D01*
X117106428Y-98879285D01*
X117963571Y-98022142D01*
X117963571Y-98950714D01*
X117963571Y-100379285D02*
X117963571Y-99522142D01*
X117963571Y-99950714D02*
X116463571Y-99950714D01*
X116677857Y-99807857D01*
X116820714Y-99665000D01*
X116892142Y-99522142D01*
D11*
G04 #@! TO.C,G\u002A\u002A\u002A*
G36*
X144593526Y-117204088D02*
G01*
X144673933Y-117546004D01*
X144802287Y-117863167D01*
X144879369Y-118002551D01*
X144983759Y-118160850D01*
X145102846Y-118322364D01*
X145224017Y-118471393D01*
X145334661Y-118592235D01*
X145422166Y-118669192D01*
X145465410Y-118688667D01*
X145508782Y-118661506D01*
X145599163Y-118588185D01*
X145723205Y-118480950D01*
X145867558Y-118352047D01*
X146018873Y-118213719D01*
X146163798Y-118078213D01*
X146288986Y-117957773D01*
X146381085Y-117864645D01*
X146426747Y-117811073D01*
X146429388Y-117804452D01*
X146401919Y-117763133D01*
X146330658Y-117676338D01*
X146229394Y-117560664D01*
X146197356Y-117525156D01*
X145967267Y-117271812D01*
X145737768Y-117498460D01*
X145622849Y-117602991D01*
X145527025Y-117673909D01*
X145468043Y-117698438D01*
X145462367Y-117696739D01*
X145428333Y-117644663D01*
X145381389Y-117533835D01*
X145331099Y-117387134D01*
X145326003Y-117370546D01*
X145257457Y-117032161D01*
X145253510Y-116697785D01*
X145311040Y-116382254D01*
X145426923Y-116100406D01*
X145598038Y-115867078D01*
X145653640Y-115814026D01*
X145887226Y-115659567D01*
X146144946Y-115576040D01*
X146411162Y-115562018D01*
X146670237Y-115616075D01*
X146906533Y-115736784D01*
X147104414Y-115922719D01*
X147123953Y-115948155D01*
X147210718Y-116065144D01*
X146962637Y-116315840D01*
X146714556Y-116566537D01*
X146937827Y-116824262D01*
X147052255Y-116954626D01*
X147131547Y-117025284D01*
X147198154Y-117038592D01*
X147274525Y-116996909D01*
X147383113Y-116902593D01*
X147414332Y-116874312D01*
X147491227Y-116809276D01*
X147529881Y-116799047D01*
X147553216Y-116839887D01*
X147557099Y-116851028D01*
X147748600Y-117334058D01*
X147970650Y-117754871D01*
X148218857Y-118105942D01*
X148407579Y-118307825D01*
X148705252Y-118531430D01*
X149038787Y-118683035D01*
X149397478Y-118761350D01*
X149770620Y-118765085D01*
X150147508Y-118692952D01*
X150488322Y-118558487D01*
X150706664Y-118419854D01*
X150924849Y-118230812D01*
X151116182Y-118017549D01*
X151252838Y-117808477D01*
X151345339Y-117577320D01*
X151417394Y-117300819D01*
X151460273Y-117017485D01*
X151468374Y-116857750D01*
X151469000Y-116614334D01*
X150791666Y-116614334D01*
X150791666Y-116833806D01*
X150759883Y-117148695D01*
X150669570Y-117440010D01*
X150528285Y-117685327D01*
X150488226Y-117734193D01*
X150279390Y-117911047D01*
X150028011Y-118028526D01*
X149751678Y-118086274D01*
X149467979Y-118083940D01*
X149194502Y-118021169D01*
X148948835Y-117897608D01*
X148796571Y-117768189D01*
X148690169Y-117645755D01*
X148596244Y-117512524D01*
X148506321Y-117352732D01*
X148411929Y-117150615D01*
X148304597Y-116890407D01*
X148250697Y-116752438D01*
X148050666Y-116234376D01*
X148384000Y-115915912D01*
X148717333Y-115597447D01*
X148717333Y-114604824D01*
X148219916Y-115098677D01*
X147722500Y-115592530D01*
X147504979Y-115367910D01*
X147349711Y-115228516D01*
X147170946Y-115098522D01*
X147039312Y-115022347D01*
X146916993Y-114966661D01*
X146809011Y-114931126D01*
X146689850Y-114911258D01*
X146533993Y-114902572D01*
X146346666Y-114900619D01*
X146139590Y-114902222D01*
X145990903Y-114911088D01*
X145874366Y-114932004D01*
X145763737Y-114969757D01*
X145632775Y-115029134D01*
X145627000Y-115031903D01*
X145313906Y-115227777D01*
X145047071Y-115487390D01*
X144832955Y-115799753D01*
X144678013Y-116153876D01*
X144588706Y-116538770D01*
X144568666Y-116832811D01*
X144593526Y-117204088D01*
G37*
X144593526Y-117204088D02*
X144673933Y-117546004D01*
X144802287Y-117863167D01*
X144879369Y-118002551D01*
X144983759Y-118160850D01*
X145102846Y-118322364D01*
X145224017Y-118471393D01*
X145334661Y-118592235D01*
X145422166Y-118669192D01*
X145465410Y-118688667D01*
X145508782Y-118661506D01*
X145599163Y-118588185D01*
X145723205Y-118480950D01*
X145867558Y-118352047D01*
X146018873Y-118213719D01*
X146163798Y-118078213D01*
X146288986Y-117957773D01*
X146381085Y-117864645D01*
X146426747Y-117811073D01*
X146429388Y-117804452D01*
X146401919Y-117763133D01*
X146330658Y-117676338D01*
X146229394Y-117560664D01*
X146197356Y-117525156D01*
X145967267Y-117271812D01*
X145737768Y-117498460D01*
X145622849Y-117602991D01*
X145527025Y-117673909D01*
X145468043Y-117698438D01*
X145462367Y-117696739D01*
X145428333Y-117644663D01*
X145381389Y-117533835D01*
X145331099Y-117387134D01*
X145326003Y-117370546D01*
X145257457Y-117032161D01*
X145253510Y-116697785D01*
X145311040Y-116382254D01*
X145426923Y-116100406D01*
X145598038Y-115867078D01*
X145653640Y-115814026D01*
X145887226Y-115659567D01*
X146144946Y-115576040D01*
X146411162Y-115562018D01*
X146670237Y-115616075D01*
X146906533Y-115736784D01*
X147104414Y-115922719D01*
X147123953Y-115948155D01*
X147210718Y-116065144D01*
X146962637Y-116315840D01*
X146714556Y-116566537D01*
X146937827Y-116824262D01*
X147052255Y-116954626D01*
X147131547Y-117025284D01*
X147198154Y-117038592D01*
X147274525Y-116996909D01*
X147383113Y-116902593D01*
X147414332Y-116874312D01*
X147491227Y-116809276D01*
X147529881Y-116799047D01*
X147553216Y-116839887D01*
X147557099Y-116851028D01*
X147748600Y-117334058D01*
X147970650Y-117754871D01*
X148218857Y-118105942D01*
X148407579Y-118307825D01*
X148705252Y-118531430D01*
X149038787Y-118683035D01*
X149397478Y-118761350D01*
X149770620Y-118765085D01*
X150147508Y-118692952D01*
X150488322Y-118558487D01*
X150706664Y-118419854D01*
X150924849Y-118230812D01*
X151116182Y-118017549D01*
X151252838Y-117808477D01*
X151345339Y-117577320D01*
X151417394Y-117300819D01*
X151460273Y-117017485D01*
X151468374Y-116857750D01*
X151469000Y-116614334D01*
X150791666Y-116614334D01*
X150791666Y-116833806D01*
X150759883Y-117148695D01*
X150669570Y-117440010D01*
X150528285Y-117685327D01*
X150488226Y-117734193D01*
X150279390Y-117911047D01*
X150028011Y-118028526D01*
X149751678Y-118086274D01*
X149467979Y-118083940D01*
X149194502Y-118021169D01*
X148948835Y-117897608D01*
X148796571Y-117768189D01*
X148690169Y-117645755D01*
X148596244Y-117512524D01*
X148506321Y-117352732D01*
X148411929Y-117150615D01*
X148304597Y-116890407D01*
X148250697Y-116752438D01*
X148050666Y-116234376D01*
X148384000Y-115915912D01*
X148717333Y-115597447D01*
X148717333Y-114604824D01*
X148219916Y-115098677D01*
X147722500Y-115592530D01*
X147504979Y-115367910D01*
X147349711Y-115228516D01*
X147170946Y-115098522D01*
X147039312Y-115022347D01*
X146916993Y-114966661D01*
X146809011Y-114931126D01*
X146689850Y-114911258D01*
X146533993Y-114902572D01*
X146346666Y-114900619D01*
X146139590Y-114902222D01*
X145990903Y-114911088D01*
X145874366Y-114932004D01*
X145763737Y-114969757D01*
X145632775Y-115029134D01*
X145627000Y-115031903D01*
X145313906Y-115227777D01*
X145047071Y-115487390D01*
X144832955Y-115799753D01*
X144678013Y-116153876D01*
X144588706Y-116538770D01*
X144568666Y-116832811D01*
X144593526Y-117204088D01*
G36*
X145087250Y-113544083D02*
G01*
X145211093Y-113489713D01*
X145405012Y-113404581D01*
X145661557Y-113291955D01*
X145973278Y-113155108D01*
X146332725Y-112997308D01*
X146732449Y-112821826D01*
X147165000Y-112631934D01*
X147622929Y-112430900D01*
X148098786Y-112221997D01*
X148542282Y-112027300D01*
X149105070Y-111779892D01*
X149594404Y-111563971D01*
X150014594Y-111377529D01*
X150369947Y-111218563D01*
X150664770Y-111085065D01*
X150903371Y-110975032D01*
X151090059Y-110886455D01*
X151229141Y-110817331D01*
X151324925Y-110765653D01*
X151381718Y-110729416D01*
X151403829Y-110706614D01*
X151399782Y-110696871D01*
X151344622Y-110671283D01*
X151220002Y-110615509D01*
X151032721Y-110532516D01*
X150789573Y-110425273D01*
X150497358Y-110296747D01*
X150162870Y-110149904D01*
X149792909Y-109987714D01*
X149394269Y-109813142D01*
X148973749Y-109629156D01*
X148538145Y-109438725D01*
X148094255Y-109244815D01*
X147648874Y-109050393D01*
X147208801Y-108858428D01*
X146780832Y-108671887D01*
X146371763Y-108493737D01*
X145988393Y-108326946D01*
X145637518Y-108174480D01*
X145325934Y-108039309D01*
X145060440Y-107924398D01*
X144847831Y-107832716D01*
X144694905Y-107767230D01*
X144608459Y-107730907D01*
X144591199Y-107724334D01*
X144580625Y-107763300D01*
X144575283Y-107866969D01*
X144575962Y-108015491D01*
X144577537Y-108068080D01*
X144589833Y-108411827D01*
X145394166Y-108769653D01*
X145610917Y-108865871D01*
X145891828Y-108990247D01*
X146223542Y-109136884D01*
X146592703Y-109299886D01*
X146985954Y-109473355D01*
X147389938Y-109651396D01*
X147791299Y-109828112D01*
X147934166Y-109890970D01*
X148369252Y-110082305D01*
X148732996Y-110242328D01*
X149031484Y-110373978D01*
X149270804Y-110480195D01*
X149457043Y-110563918D01*
X149596286Y-110628087D01*
X149694621Y-110675641D01*
X149758136Y-110709519D01*
X149792916Y-110732662D01*
X149805048Y-110748009D01*
X149800620Y-110758498D01*
X149785718Y-110767071D01*
X149767240Y-110776207D01*
X149720822Y-110797562D01*
X149605260Y-110849054D01*
X149429020Y-110926979D01*
X149200566Y-111027633D01*
X148928364Y-111147311D01*
X148620878Y-111282308D01*
X148286575Y-111428920D01*
X147933919Y-111583442D01*
X147571376Y-111742170D01*
X147207410Y-111901399D01*
X146850487Y-112057424D01*
X146509072Y-112206541D01*
X146191629Y-112345046D01*
X145906625Y-112469232D01*
X145662524Y-112575397D01*
X145467792Y-112659836D01*
X145330894Y-112718843D01*
X145260294Y-112748714D01*
X145256583Y-112750203D01*
X145242869Y-112739266D01*
X145231588Y-112690403D01*
X145222538Y-112597265D01*
X145215519Y-112453504D01*
X145210329Y-112252773D01*
X145206768Y-111988722D01*
X145204635Y-111655003D01*
X145203730Y-111245269D01*
X145203666Y-111077021D01*
X145203666Y-109382984D01*
X144568666Y-109169484D01*
X144568666Y-113771751D01*
X145087250Y-113544083D01*
G37*
X145087250Y-113544083D02*
X145211093Y-113489713D01*
X145405012Y-113404581D01*
X145661557Y-113291955D01*
X145973278Y-113155108D01*
X146332725Y-112997308D01*
X146732449Y-112821826D01*
X147165000Y-112631934D01*
X147622929Y-112430900D01*
X148098786Y-112221997D01*
X148542282Y-112027300D01*
X149105070Y-111779892D01*
X149594404Y-111563971D01*
X150014594Y-111377529D01*
X150369947Y-111218563D01*
X150664770Y-111085065D01*
X150903371Y-110975032D01*
X151090059Y-110886455D01*
X151229141Y-110817331D01*
X151324925Y-110765653D01*
X151381718Y-110729416D01*
X151403829Y-110706614D01*
X151399782Y-110696871D01*
X151344622Y-110671283D01*
X151220002Y-110615509D01*
X151032721Y-110532516D01*
X150789573Y-110425273D01*
X150497358Y-110296747D01*
X150162870Y-110149904D01*
X149792909Y-109987714D01*
X149394269Y-109813142D01*
X148973749Y-109629156D01*
X148538145Y-109438725D01*
X148094255Y-109244815D01*
X147648874Y-109050393D01*
X147208801Y-108858428D01*
X146780832Y-108671887D01*
X146371763Y-108493737D01*
X145988393Y-108326946D01*
X145637518Y-108174480D01*
X145325934Y-108039309D01*
X145060440Y-107924398D01*
X144847831Y-107832716D01*
X144694905Y-107767230D01*
X144608459Y-107730907D01*
X144591199Y-107724334D01*
X144580625Y-107763300D01*
X144575283Y-107866969D01*
X144575962Y-108015491D01*
X144577537Y-108068080D01*
X144589833Y-108411827D01*
X145394166Y-108769653D01*
X145610917Y-108865871D01*
X145891828Y-108990247D01*
X146223542Y-109136884D01*
X146592703Y-109299886D01*
X146985954Y-109473355D01*
X147389938Y-109651396D01*
X147791299Y-109828112D01*
X147934166Y-109890970D01*
X148369252Y-110082305D01*
X148732996Y-110242328D01*
X149031484Y-110373978D01*
X149270804Y-110480195D01*
X149457043Y-110563918D01*
X149596286Y-110628087D01*
X149694621Y-110675641D01*
X149758136Y-110709519D01*
X149792916Y-110732662D01*
X149805048Y-110748009D01*
X149800620Y-110758498D01*
X149785718Y-110767071D01*
X149767240Y-110776207D01*
X149720822Y-110797562D01*
X149605260Y-110849054D01*
X149429020Y-110926979D01*
X149200566Y-111027633D01*
X148928364Y-111147311D01*
X148620878Y-111282308D01*
X148286575Y-111428920D01*
X147933919Y-111583442D01*
X147571376Y-111742170D01*
X147207410Y-111901399D01*
X146850487Y-112057424D01*
X146509072Y-112206541D01*
X146191629Y-112345046D01*
X145906625Y-112469232D01*
X145662524Y-112575397D01*
X145467792Y-112659836D01*
X145330894Y-112718843D01*
X145260294Y-112748714D01*
X145256583Y-112750203D01*
X145242869Y-112739266D01*
X145231588Y-112690403D01*
X145222538Y-112597265D01*
X145215519Y-112453504D01*
X145210329Y-112252773D01*
X145206768Y-111988722D01*
X145204635Y-111655003D01*
X145203730Y-111245269D01*
X145203666Y-111077021D01*
X145203666Y-109382984D01*
X144568666Y-109169484D01*
X144568666Y-113771751D01*
X145087250Y-113544083D01*
G36*
X144569292Y-103628584D02*
G01*
X144572117Y-104082961D01*
X144581827Y-104463359D01*
X144601056Y-104780356D01*
X144632433Y-105044531D01*
X144678592Y-105266465D01*
X144742163Y-105456737D01*
X144825779Y-105625926D01*
X144932071Y-105784612D01*
X145063670Y-105943374D01*
X145174835Y-106062904D01*
X145482574Y-106326343D01*
X145829539Y-106524737D01*
X146204754Y-106658933D01*
X146597242Y-106729774D01*
X146996026Y-106738107D01*
X147390129Y-106684776D01*
X147768574Y-106570626D01*
X148120385Y-106396503D01*
X148434585Y-106163252D01*
X148700196Y-105871718D01*
X148759666Y-105786894D01*
X148823166Y-105690954D01*
X150127101Y-106263144D01*
X150437220Y-106398990D01*
X150722078Y-106523313D01*
X150972560Y-106632170D01*
X151179551Y-106721616D01*
X151333933Y-106787711D01*
X151426593Y-106826511D01*
X151450018Y-106835334D01*
X151458585Y-106796238D01*
X151465141Y-106691890D01*
X151468667Y-106541700D01*
X151469000Y-106474431D01*
X151469000Y-106113529D01*
X151162083Y-105975320D01*
X151029965Y-105916477D01*
X150836986Y-105831395D01*
X150599991Y-105727459D01*
X150335825Y-105612051D01*
X150061332Y-105492554D01*
X149987333Y-105460416D01*
X149119500Y-105083722D01*
X149134126Y-103758194D01*
X149148753Y-102432667D01*
X148463333Y-102432667D01*
X148463333Y-103596834D01*
X148462042Y-103900879D01*
X148458400Y-104175303D01*
X148452751Y-104409298D01*
X148445438Y-104592056D01*
X148436806Y-104712771D01*
X148427199Y-104760635D01*
X148426267Y-104761000D01*
X148370043Y-104745064D01*
X148262868Y-104703832D01*
X148161684Y-104660900D01*
X147975828Y-104579077D01*
X147855037Y-104534219D01*
X147785369Y-104532859D01*
X147752879Y-104581528D01*
X147743626Y-104686759D01*
X147743666Y-104855085D01*
X147743666Y-105212194D01*
X147955333Y-105311334D01*
X148071712Y-105371012D01*
X148148592Y-105420346D01*
X148167000Y-105441647D01*
X148133532Y-105500004D01*
X148045283Y-105587316D01*
X147920480Y-105689668D01*
X147777351Y-105793145D01*
X147634125Y-105883830D01*
X147509030Y-105947808D01*
X147498202Y-105952208D01*
X147351271Y-106001532D01*
X147198162Y-106031458D01*
X147010312Y-106046176D01*
X146833500Y-106049734D01*
X146630639Y-106048627D01*
X146484634Y-106039134D01*
X146367736Y-106016142D01*
X146252197Y-105974539D01*
X146135000Y-105921043D01*
X145824317Y-105732275D01*
X145573661Y-105493555D01*
X145391825Y-105213399D01*
X145381187Y-105190911D01*
X145323372Y-105047368D01*
X145286261Y-104901001D01*
X145264132Y-104722588D01*
X145253414Y-104538133D01*
X145236103Y-104124767D01*
X145431551Y-104210050D01*
X145598810Y-104283036D01*
X145775750Y-104360249D01*
X145821009Y-104380000D01*
X145940767Y-104429102D01*
X146029233Y-104459656D01*
X146053842Y-104464667D01*
X146071500Y-104425608D01*
X146084957Y-104321479D01*
X146092071Y-104171851D01*
X146092666Y-104109975D01*
X146092666Y-103755282D01*
X145670285Y-103570225D01*
X145484736Y-103487788D01*
X145363377Y-103428243D01*
X145292552Y-103381181D01*
X145258607Y-103336197D01*
X145247887Y-103282882D01*
X145246952Y-103247584D01*
X145246000Y-103110000D01*
X146050333Y-103110000D01*
X146050333Y-102432667D01*
X144568666Y-102432667D01*
X144569292Y-103628584D01*
G37*
X144569292Y-103628584D02*
X144572117Y-104082961D01*
X144581827Y-104463359D01*
X144601056Y-104780356D01*
X144632433Y-105044531D01*
X144678592Y-105266465D01*
X144742163Y-105456737D01*
X144825779Y-105625926D01*
X144932071Y-105784612D01*
X145063670Y-105943374D01*
X145174835Y-106062904D01*
X145482574Y-106326343D01*
X145829539Y-106524737D01*
X146204754Y-106658933D01*
X146597242Y-106729774D01*
X146996026Y-106738107D01*
X147390129Y-106684776D01*
X147768574Y-106570626D01*
X148120385Y-106396503D01*
X148434585Y-106163252D01*
X148700196Y-105871718D01*
X148759666Y-105786894D01*
X148823166Y-105690954D01*
X150127101Y-106263144D01*
X150437220Y-106398990D01*
X150722078Y-106523313D01*
X150972560Y-106632170D01*
X151179551Y-106721616D01*
X151333933Y-106787711D01*
X151426593Y-106826511D01*
X151450018Y-106835334D01*
X151458585Y-106796238D01*
X151465141Y-106691890D01*
X151468667Y-106541700D01*
X151469000Y-106474431D01*
X151469000Y-106113529D01*
X151162083Y-105975320D01*
X151029965Y-105916477D01*
X150836986Y-105831395D01*
X150599991Y-105727459D01*
X150335825Y-105612051D01*
X150061332Y-105492554D01*
X149987333Y-105460416D01*
X149119500Y-105083722D01*
X149134126Y-103758194D01*
X149148753Y-102432667D01*
X148463333Y-102432667D01*
X148463333Y-103596834D01*
X148462042Y-103900879D01*
X148458400Y-104175303D01*
X148452751Y-104409298D01*
X148445438Y-104592056D01*
X148436806Y-104712771D01*
X148427199Y-104760635D01*
X148426267Y-104761000D01*
X148370043Y-104745064D01*
X148262868Y-104703832D01*
X148161684Y-104660900D01*
X147975828Y-104579077D01*
X147855037Y-104534219D01*
X147785369Y-104532859D01*
X147752879Y-104581528D01*
X147743626Y-104686759D01*
X147743666Y-104855085D01*
X147743666Y-105212194D01*
X147955333Y-105311334D01*
X148071712Y-105371012D01*
X148148592Y-105420346D01*
X148167000Y-105441647D01*
X148133532Y-105500004D01*
X148045283Y-105587316D01*
X147920480Y-105689668D01*
X147777351Y-105793145D01*
X147634125Y-105883830D01*
X147509030Y-105947808D01*
X147498202Y-105952208D01*
X147351271Y-106001532D01*
X147198162Y-106031458D01*
X147010312Y-106046176D01*
X146833500Y-106049734D01*
X146630639Y-106048627D01*
X146484634Y-106039134D01*
X146367736Y-106016142D01*
X146252197Y-105974539D01*
X146135000Y-105921043D01*
X145824317Y-105732275D01*
X145573661Y-105493555D01*
X145391825Y-105213399D01*
X145381187Y-105190911D01*
X145323372Y-105047368D01*
X145286261Y-104901001D01*
X145264132Y-104722588D01*
X145253414Y-104538133D01*
X145236103Y-104124767D01*
X145431551Y-104210050D01*
X145598810Y-104283036D01*
X145775750Y-104360249D01*
X145821009Y-104380000D01*
X145940767Y-104429102D01*
X146029233Y-104459656D01*
X146053842Y-104464667D01*
X146071500Y-104425608D01*
X146084957Y-104321479D01*
X146092071Y-104171851D01*
X146092666Y-104109975D01*
X146092666Y-103755282D01*
X145670285Y-103570225D01*
X145484736Y-103487788D01*
X145363377Y-103428243D01*
X145292552Y-103381181D01*
X145258607Y-103336197D01*
X145247887Y-103282882D01*
X145246952Y-103247584D01*
X145246000Y-103110000D01*
X146050333Y-103110000D01*
X146050333Y-102432667D01*
X144568666Y-102432667D01*
X144569292Y-103628584D01*
G36*
X144637550Y-98571059D02*
G01*
X144693488Y-98597092D01*
X144818815Y-98653296D01*
X145006730Y-98736700D01*
X145250433Y-98844331D01*
X145543124Y-98973219D01*
X145878003Y-99120392D01*
X146248270Y-99282880D01*
X146647124Y-99457712D01*
X147067766Y-99641915D01*
X147503395Y-99832520D01*
X147947211Y-100026554D01*
X148392415Y-100221047D01*
X148832205Y-100413027D01*
X149259783Y-100599524D01*
X149668347Y-100777566D01*
X150051098Y-100944182D01*
X150401235Y-101096400D01*
X150711959Y-101231250D01*
X150976469Y-101345761D01*
X151187965Y-101436961D01*
X151339647Y-101501879D01*
X151424715Y-101537545D01*
X151440974Y-101543667D01*
X151454394Y-101504797D01*
X151464310Y-101402006D01*
X151468885Y-101256023D01*
X151469000Y-101227396D01*
X151469000Y-100911126D01*
X150093382Y-99184813D01*
X149829329Y-98853037D01*
X149581945Y-98541414D01*
X149356130Y-98256175D01*
X149156786Y-98003547D01*
X148988813Y-97789759D01*
X148857113Y-97621041D01*
X148766587Y-97503621D01*
X148722137Y-97443727D01*
X148718346Y-97437334D01*
X148755865Y-97416089D01*
X148862290Y-97365147D01*
X149028841Y-97288475D01*
X149246741Y-97190043D01*
X149507209Y-97073820D01*
X149801467Y-96943774D01*
X150083381Y-96820184D01*
X151447833Y-96224202D01*
X151460128Y-95878268D01*
X151462011Y-95719278D01*
X151456261Y-95598885D01*
X151444088Y-95536851D01*
X151438962Y-95532552D01*
X151396063Y-95549185D01*
X151281224Y-95597398D01*
X151100038Y-95674767D01*
X150858102Y-95778867D01*
X150561010Y-95907271D01*
X150214359Y-96057555D01*
X149823743Y-96227292D01*
X149394759Y-96414058D01*
X148933001Y-96615426D01*
X148444065Y-96828972D01*
X148031714Y-97009320D01*
X148031714Y-97763690D01*
X148077748Y-97763726D01*
X148113192Y-97801454D01*
X148193996Y-97895777D01*
X148312996Y-98037889D01*
X148463028Y-98218985D01*
X148636930Y-98430262D01*
X148827537Y-98662914D01*
X149027685Y-98908136D01*
X149230212Y-99157124D01*
X149427953Y-99401073D01*
X149613745Y-99631178D01*
X149780424Y-99838635D01*
X149920827Y-100014638D01*
X150027789Y-100150383D01*
X150094148Y-100237065D01*
X150113277Y-100265582D01*
X150086736Y-100264727D01*
X150082583Y-100262755D01*
X150038671Y-100243033D01*
X149924810Y-100192525D01*
X149748542Y-100114561D01*
X149517408Y-100012469D01*
X149238949Y-99889578D01*
X148920705Y-99749218D01*
X148570217Y-99594718D01*
X148195028Y-99429406D01*
X148135250Y-99403074D01*
X147758060Y-99236513D01*
X147405490Y-99080016D01*
X147084928Y-98936919D01*
X146803758Y-98810557D01*
X146569367Y-98704267D01*
X146389143Y-98621384D01*
X146270469Y-98565243D01*
X146220734Y-98539181D01*
X146219666Y-98537997D01*
X146256703Y-98515698D01*
X146360611Y-98464707D01*
X146520586Y-98390022D01*
X146725824Y-98296643D01*
X146965523Y-98189568D01*
X147119250Y-98121767D01*
X147457411Y-97975926D01*
X147721360Y-97867950D01*
X147912369Y-97797363D01*
X148031714Y-97763690D01*
X148031714Y-97009320D01*
X147981884Y-97031114D01*
X147371305Y-97298622D01*
X146834457Y-97534500D01*
X146367308Y-97740607D01*
X145965824Y-97918798D01*
X145625972Y-98070930D01*
X145343721Y-98198861D01*
X145115038Y-98304447D01*
X144935890Y-98389545D01*
X144802244Y-98456012D01*
X144710068Y-98505705D01*
X144655329Y-98540480D01*
X144633995Y-98562195D01*
X144637550Y-98571059D01*
G37*
X144637550Y-98571059D02*
X144693488Y-98597092D01*
X144818815Y-98653296D01*
X145006730Y-98736700D01*
X145250433Y-98844331D01*
X145543124Y-98973219D01*
X145878003Y-99120392D01*
X146248270Y-99282880D01*
X146647124Y-99457712D01*
X147067766Y-99641915D01*
X147503395Y-99832520D01*
X147947211Y-100026554D01*
X148392415Y-100221047D01*
X148832205Y-100413027D01*
X149259783Y-100599524D01*
X149668347Y-100777566D01*
X150051098Y-100944182D01*
X150401235Y-101096400D01*
X150711959Y-101231250D01*
X150976469Y-101345761D01*
X151187965Y-101436961D01*
X151339647Y-101501879D01*
X151424715Y-101537545D01*
X151440974Y-101543667D01*
X151454394Y-101504797D01*
X151464310Y-101402006D01*
X151468885Y-101256023D01*
X151469000Y-101227396D01*
X151469000Y-100911126D01*
X150093382Y-99184813D01*
X149829329Y-98853037D01*
X149581945Y-98541414D01*
X149356130Y-98256175D01*
X149156786Y-98003547D01*
X148988813Y-97789759D01*
X148857113Y-97621041D01*
X148766587Y-97503621D01*
X148722137Y-97443727D01*
X148718346Y-97437334D01*
X148755865Y-97416089D01*
X148862290Y-97365147D01*
X149028841Y-97288475D01*
X149246741Y-97190043D01*
X149507209Y-97073820D01*
X149801467Y-96943774D01*
X150083381Y-96820184D01*
X151447833Y-96224202D01*
X151460128Y-95878268D01*
X151462011Y-95719278D01*
X151456261Y-95598885D01*
X151444088Y-95536851D01*
X151438962Y-95532552D01*
X151396063Y-95549185D01*
X151281224Y-95597398D01*
X151100038Y-95674767D01*
X150858102Y-95778867D01*
X150561010Y-95907271D01*
X150214359Y-96057555D01*
X149823743Y-96227292D01*
X149394759Y-96414058D01*
X148933001Y-96615426D01*
X148444065Y-96828972D01*
X148031714Y-97009320D01*
X148031714Y-97763690D01*
X148077748Y-97763726D01*
X148113192Y-97801454D01*
X148193996Y-97895777D01*
X148312996Y-98037889D01*
X148463028Y-98218985D01*
X148636930Y-98430262D01*
X148827537Y-98662914D01*
X149027685Y-98908136D01*
X149230212Y-99157124D01*
X149427953Y-99401073D01*
X149613745Y-99631178D01*
X149780424Y-99838635D01*
X149920827Y-100014638D01*
X150027789Y-100150383D01*
X150094148Y-100237065D01*
X150113277Y-100265582D01*
X150086736Y-100264727D01*
X150082583Y-100262755D01*
X150038671Y-100243033D01*
X149924810Y-100192525D01*
X149748542Y-100114561D01*
X149517408Y-100012469D01*
X149238949Y-99889578D01*
X148920705Y-99749218D01*
X148570217Y-99594718D01*
X148195028Y-99429406D01*
X148135250Y-99403074D01*
X147758060Y-99236513D01*
X147405490Y-99080016D01*
X147084928Y-98936919D01*
X146803758Y-98810557D01*
X146569367Y-98704267D01*
X146389143Y-98621384D01*
X146270469Y-98565243D01*
X146220734Y-98539181D01*
X146219666Y-98537997D01*
X146256703Y-98515698D01*
X146360611Y-98464707D01*
X146520586Y-98390022D01*
X146725824Y-98296643D01*
X146965523Y-98189568D01*
X147119250Y-98121767D01*
X147457411Y-97975926D01*
X147721360Y-97867950D01*
X147912369Y-97797363D01*
X148031714Y-97763690D01*
X148031714Y-97009320D01*
X147981884Y-97031114D01*
X147371305Y-97298622D01*
X146834457Y-97534500D01*
X146367308Y-97740607D01*
X145965824Y-97918798D01*
X145625972Y-98070930D01*
X145343721Y-98198861D01*
X145115038Y-98304447D01*
X144935890Y-98389545D01*
X144802244Y-98456012D01*
X144710068Y-98505705D01*
X144655329Y-98540480D01*
X144633995Y-98562195D01*
X144637550Y-98571059D01*
G36*
X144604821Y-92026563D02*
G01*
X144708381Y-92503780D01*
X144871992Y-92962436D01*
X145088297Y-93377835D01*
X145131358Y-93444750D01*
X145280400Y-93642891D01*
X145471612Y-93859130D01*
X145686213Y-94075362D01*
X145905422Y-94273484D01*
X146110457Y-94435390D01*
X146256526Y-94529359D01*
X146473666Y-94648218D01*
X146472064Y-94254192D01*
X146470461Y-93860167D01*
X146280742Y-93712000D01*
X146130246Y-93575779D01*
X145959345Y-93391987D01*
X145789976Y-93186369D01*
X145644081Y-92984669D01*
X145595292Y-92907667D01*
X145538734Y-92796140D01*
X145469613Y-92635188D01*
X145401172Y-92456024D01*
X145388758Y-92420834D01*
X145338537Y-92267236D01*
X145304811Y-92133213D01*
X145284311Y-91994375D01*
X145273766Y-91826332D01*
X145269908Y-91604694D01*
X145269586Y-91531834D01*
X145270668Y-91293647D01*
X145277496Y-91116858D01*
X145293078Y-90978241D01*
X145320419Y-90854570D01*
X145362526Y-90722620D01*
X145381011Y-90671002D01*
X145545622Y-90291230D01*
X145750385Y-89962013D01*
X146015415Y-89651734D01*
X146055215Y-89611269D01*
X146417021Y-89300564D01*
X146815814Y-89060795D01*
X147214500Y-88899372D01*
X147385864Y-88847458D01*
X147538627Y-88814438D01*
X147701963Y-88796409D01*
X147905046Y-88789469D01*
X148040000Y-88788956D01*
X148279220Y-88792806D01*
X148463921Y-88805898D01*
X148624095Y-88832325D01*
X148789730Y-88876181D01*
X148874580Y-88902868D01*
X149306419Y-89086530D01*
X149700809Y-89341099D01*
X150048766Y-89657744D01*
X150341306Y-90027632D01*
X150569445Y-90441933D01*
X150652090Y-90650122D01*
X150700571Y-90796927D01*
X150733484Y-90925656D01*
X150753825Y-91059388D01*
X150764591Y-91221202D01*
X150768777Y-91434177D01*
X150769313Y-91553000D01*
X150767767Y-91802633D01*
X150760155Y-91990815D01*
X150743814Y-92140694D01*
X150716079Y-92275416D01*
X150674284Y-92418128D01*
X150667222Y-92439872D01*
X150526269Y-92770766D01*
X150325517Y-93104580D01*
X150083806Y-93412853D01*
X149900927Y-93597661D01*
X149648666Y-93825943D01*
X149648666Y-94213472D01*
X149651043Y-94382826D01*
X149657415Y-94514637D01*
X149666649Y-94590176D01*
X149672156Y-94601000D01*
X149731018Y-94575569D01*
X149837072Y-94507796D01*
X149973245Y-94410458D01*
X150122463Y-94296336D01*
X150267654Y-94178208D01*
X150391743Y-94068853D01*
X150422857Y-94039125D01*
X150720659Y-93698746D01*
X150985587Y-93300994D01*
X151202657Y-92871251D01*
X151345014Y-92477079D01*
X151399831Y-92221811D01*
X151436827Y-91913087D01*
X151455058Y-91579446D01*
X151453580Y-91249432D01*
X151431449Y-90951585D01*
X151401479Y-90769834D01*
X151298299Y-90427872D01*
X151142889Y-90071197D01*
X150948125Y-89721576D01*
X150726885Y-89400776D01*
X150492045Y-89130565D01*
X150360706Y-89010536D01*
X149946130Y-88708406D01*
X149504669Y-88458684D01*
X149056495Y-88271755D01*
X148759666Y-88186154D01*
X148447877Y-88135743D01*
X148092566Y-88114044D01*
X147726205Y-88120707D01*
X147381264Y-88155383D01*
X147140459Y-88203606D01*
X146643752Y-88377135D01*
X146184807Y-88625212D01*
X145768071Y-88944548D01*
X145397992Y-89331853D01*
X145143801Y-89680225D01*
X144929280Y-90069572D01*
X144757809Y-90498895D01*
X144637209Y-90942695D01*
X144575299Y-91375478D01*
X144568666Y-91555482D01*
X144604821Y-92026563D01*
G37*
X144604821Y-92026563D02*
X144708381Y-92503780D01*
X144871992Y-92962436D01*
X145088297Y-93377835D01*
X145131358Y-93444750D01*
X145280400Y-93642891D01*
X145471612Y-93859130D01*
X145686213Y-94075362D01*
X145905422Y-94273484D01*
X146110457Y-94435390D01*
X146256526Y-94529359D01*
X146473666Y-94648218D01*
X146472064Y-94254192D01*
X146470461Y-93860167D01*
X146280742Y-93712000D01*
X146130246Y-93575779D01*
X145959345Y-93391987D01*
X145789976Y-93186369D01*
X145644081Y-92984669D01*
X145595292Y-92907667D01*
X145538734Y-92796140D01*
X145469613Y-92635188D01*
X145401172Y-92456024D01*
X145388758Y-92420834D01*
X145338537Y-92267236D01*
X145304811Y-92133213D01*
X145284311Y-91994375D01*
X145273766Y-91826332D01*
X145269908Y-91604694D01*
X145269586Y-91531834D01*
X145270668Y-91293647D01*
X145277496Y-91116858D01*
X145293078Y-90978241D01*
X145320419Y-90854570D01*
X145362526Y-90722620D01*
X145381011Y-90671002D01*
X145545622Y-90291230D01*
X145750385Y-89962013D01*
X146015415Y-89651734D01*
X146055215Y-89611269D01*
X146417021Y-89300564D01*
X146815814Y-89060795D01*
X147214500Y-88899372D01*
X147385864Y-88847458D01*
X147538627Y-88814438D01*
X147701963Y-88796409D01*
X147905046Y-88789469D01*
X148040000Y-88788956D01*
X148279220Y-88792806D01*
X148463921Y-88805898D01*
X148624095Y-88832325D01*
X148789730Y-88876181D01*
X148874580Y-88902868D01*
X149306419Y-89086530D01*
X149700809Y-89341099D01*
X150048766Y-89657744D01*
X150341306Y-90027632D01*
X150569445Y-90441933D01*
X150652090Y-90650122D01*
X150700571Y-90796927D01*
X150733484Y-90925656D01*
X150753825Y-91059388D01*
X150764591Y-91221202D01*
X150768777Y-91434177D01*
X150769313Y-91553000D01*
X150767767Y-91802633D01*
X150760155Y-91990815D01*
X150743814Y-92140694D01*
X150716079Y-92275416D01*
X150674284Y-92418128D01*
X150667222Y-92439872D01*
X150526269Y-92770766D01*
X150325517Y-93104580D01*
X150083806Y-93412853D01*
X149900927Y-93597661D01*
X149648666Y-93825943D01*
X149648666Y-94213472D01*
X149651043Y-94382826D01*
X149657415Y-94514637D01*
X149666649Y-94590176D01*
X149672156Y-94601000D01*
X149731018Y-94575569D01*
X149837072Y-94507796D01*
X149973245Y-94410458D01*
X150122463Y-94296336D01*
X150267654Y-94178208D01*
X150391743Y-94068853D01*
X150422857Y-94039125D01*
X150720659Y-93698746D01*
X150985587Y-93300994D01*
X151202657Y-92871251D01*
X151345014Y-92477079D01*
X151399831Y-92221811D01*
X151436827Y-91913087D01*
X151455058Y-91579446D01*
X151453580Y-91249432D01*
X151431449Y-90951585D01*
X151401479Y-90769834D01*
X151298299Y-90427872D01*
X151142889Y-90071197D01*
X150948125Y-89721576D01*
X150726885Y-89400776D01*
X150492045Y-89130565D01*
X150360706Y-89010536D01*
X149946130Y-88708406D01*
X149504669Y-88458684D01*
X149056495Y-88271755D01*
X148759666Y-88186154D01*
X148447877Y-88135743D01*
X148092566Y-88114044D01*
X147726205Y-88120707D01*
X147381264Y-88155383D01*
X147140459Y-88203606D01*
X146643752Y-88377135D01*
X146184807Y-88625212D01*
X145768071Y-88944548D01*
X145397992Y-89331853D01*
X145143801Y-89680225D01*
X144929280Y-90069572D01*
X144757809Y-90498895D01*
X144637209Y-90942695D01*
X144575299Y-91375478D01*
X144568666Y-91555482D01*
X144604821Y-92026563D01*
G36*
X150791666Y-85965000D02*
G01*
X150791666Y-86176667D01*
X144568666Y-86176667D01*
X144568666Y-86853451D01*
X150770500Y-86875167D01*
X150783517Y-87055084D01*
X150796534Y-87235000D01*
X151469000Y-87235000D01*
X151469000Y-84906667D01*
X150791666Y-84906667D01*
X150791666Y-85287667D01*
X144568666Y-85287667D01*
X144568666Y-85965000D01*
X150791666Y-85965000D01*
G37*
X150791666Y-85965000D02*
X150791666Y-86176667D01*
X144568666Y-86176667D01*
X144568666Y-86853451D01*
X150770500Y-86875167D01*
X150783517Y-87055084D01*
X150796534Y-87235000D01*
X151469000Y-87235000D01*
X151469000Y-84906667D01*
X150791666Y-84906667D01*
X150791666Y-85287667D01*
X144568666Y-85287667D01*
X144568666Y-85965000D01*
X150791666Y-85965000D01*
G36*
X142441685Y-119630857D02*
G01*
X143659038Y-120847667D01*
X152210380Y-120847667D01*
X153427190Y-119630314D01*
X154644000Y-118412962D01*
X154644000Y-117926667D01*
X153585666Y-117926667D01*
X153585666Y-118043462D01*
X153575963Y-118087898D01*
X153542933Y-118148309D01*
X153480696Y-118231354D01*
X153383372Y-118343688D01*
X153245079Y-118491969D01*
X153059937Y-118682853D01*
X152822067Y-118922999D01*
X152706880Y-119038295D01*
X151828094Y-119916334D01*
X144040238Y-119916334D01*
X143161452Y-119038295D01*
X142900053Y-118775828D01*
X142693814Y-118565375D01*
X142536857Y-118400280D01*
X142423300Y-118273885D01*
X142347264Y-118179533D01*
X142302866Y-118110567D01*
X142284228Y-118060331D01*
X142282666Y-118043462D01*
X142282666Y-117926667D01*
X141224333Y-117926667D01*
X141224333Y-118414048D01*
X142441685Y-119630857D01*
G37*
X142441685Y-119630857D02*
X143659038Y-120847667D01*
X152210380Y-120847667D01*
X153427190Y-119630314D01*
X154644000Y-118412962D01*
X154644000Y-117926667D01*
X153585666Y-117926667D01*
X153585666Y-118043462D01*
X153575963Y-118087898D01*
X153542933Y-118148309D01*
X153480696Y-118231354D01*
X153383372Y-118343688D01*
X153245079Y-118491969D01*
X153059937Y-118682853D01*
X152822067Y-118922999D01*
X152706880Y-119038295D01*
X151828094Y-119916334D01*
X144040238Y-119916334D01*
X143161452Y-119038295D01*
X142900053Y-118775828D01*
X142693814Y-118565375D01*
X142536857Y-118400280D01*
X142423300Y-118273885D01*
X142347264Y-118179533D01*
X142302866Y-118110567D01*
X142284228Y-118060331D01*
X142282666Y-118043462D01*
X142282666Y-117926667D01*
X141224333Y-117926667D01*
X141224333Y-118414048D01*
X142441685Y-119630857D01*
G36*
X142452000Y-85753334D02*
G01*
X142452000Y-85636539D01*
X142461703Y-85592103D01*
X142494732Y-85531691D01*
X142556969Y-85448647D01*
X142654294Y-85336313D01*
X142792587Y-85188032D01*
X142977728Y-84997147D01*
X143215599Y-84757002D01*
X143330786Y-84641705D01*
X144209572Y-83763667D01*
X151998922Y-83763667D01*
X152876961Y-84642453D01*
X153138555Y-84905586D01*
X153344969Y-85116641D01*
X153502042Y-85282233D01*
X153615614Y-85408979D01*
X153691524Y-85503495D01*
X153735612Y-85572396D01*
X153753717Y-85622299D01*
X153755000Y-85637286D01*
X153755000Y-85753334D01*
X154813333Y-85753334D01*
X154813333Y-85265953D01*
X153595980Y-84049143D01*
X152378628Y-82832334D01*
X143827285Y-82832334D01*
X142610476Y-84049686D01*
X141393666Y-85267038D01*
X141393666Y-85753334D01*
X142452000Y-85753334D01*
G37*
X142452000Y-85753334D02*
X142452000Y-85636539D01*
X142461703Y-85592103D01*
X142494732Y-85531691D01*
X142556969Y-85448647D01*
X142654294Y-85336313D01*
X142792587Y-85188032D01*
X142977728Y-84997147D01*
X143215599Y-84757002D01*
X143330786Y-84641705D01*
X144209572Y-83763667D01*
X151998922Y-83763667D01*
X152876961Y-84642453D01*
X153138555Y-84905586D01*
X153344969Y-85116641D01*
X153502042Y-85282233D01*
X153615614Y-85408979D01*
X153691524Y-85503495D01*
X153735612Y-85572396D01*
X153753717Y-85622299D01*
X153755000Y-85637286D01*
X153755000Y-85753334D01*
X154813333Y-85753334D01*
X154813333Y-85265953D01*
X153595980Y-84049143D01*
X152378628Y-82832334D01*
X143827285Y-82832334D01*
X142610476Y-84049686D01*
X141393666Y-85267038D01*
X141393666Y-85753334D01*
X142452000Y-85753334D01*
G04 #@! TD*
M02*
