G04 #@! TF.GenerationSoftware,KiCad,Pcbnew,5.1.6-c6e7f7d~87~ubuntu19.10.1*
G04 #@! TF.CreationDate,2021-03-15T12:51:18-04:00*
G04 #@! TF.ProjectId,icarus,69636172-7573-42e6-9b69-6361645f7063,V1.0*
G04 #@! TF.SameCoordinates,Original*
G04 #@! TF.FileFunction,Paste,Top*
G04 #@! TF.FilePolarity,Positive*
%FSLAX46Y46*%
G04 Gerber Fmt 4.6, Leading zero omitted, Abs format (unit mm)*
G04 Created by KiCad (PCBNEW 5.1.6-c6e7f7d~87~ubuntu19.10.1) date 2021-03-15 12:51:18*
%MOMM*%
%LPD*%
G01*
G04 APERTURE LIST*
%ADD10C,0.152400*%
%ADD11R,1.549400X0.609600*%
%ADD12R,3.810000X2.006600*%
%ADD13R,8.991600X11.506200*%
%ADD14R,0.762000X0.254000*%
%ADD15R,0.400000X1.350000*%
%ADD16R,2.900000X1.900000*%
%ADD17R,0.300000X0.850000*%
%ADD18R,1.651000X2.184400*%
%ADD19R,0.700000X0.500000*%
%ADD20R,0.800000X0.900000*%
%ADD21R,0.600000X1.300000*%
%ADD22R,0.850000X0.300000*%
%ADD23R,0.812800X0.304800*%
%ADD24R,0.304800X0.812800*%
%ADD25R,5.689600X5.689600*%
%ADD26R,5.308600X4.140200*%
%ADD27R,1.346200X1.346200*%
%ADD28R,1.397000X0.431800*%
%ADD29R,1.000000X0.550000*%
G04 APERTURE END LIST*
D10*
G04 #@! TO.C,U2*
X134605200Y-111937600D02*
X135827600Y-111937600D01*
X134605200Y-110715200D02*
X134605200Y-111937600D01*
X135827600Y-110715200D02*
X134605200Y-110715200D01*
X135827600Y-111937600D02*
X135827600Y-110715200D01*
X134605200Y-113360000D02*
X135827600Y-113360000D01*
X134605200Y-112137600D02*
X134605200Y-113360000D01*
X135827600Y-112137600D02*
X134605200Y-112137600D01*
X135827600Y-113360000D02*
X135827600Y-112137600D01*
X134605200Y-114782400D02*
X135827600Y-114782400D01*
X134605200Y-113560000D02*
X134605200Y-114782400D01*
X135827600Y-113560000D02*
X134605200Y-113560000D01*
X135827600Y-114782400D02*
X135827600Y-113560000D01*
X134605200Y-116204800D02*
X135827600Y-116204800D01*
X134605200Y-114982400D02*
X134605200Y-116204800D01*
X135827600Y-114982400D02*
X134605200Y-114982400D01*
X135827600Y-116204800D02*
X135827600Y-114982400D01*
X136027600Y-111937600D02*
X137250000Y-111937600D01*
X136027600Y-110715200D02*
X136027600Y-111937600D01*
X137250000Y-110715200D02*
X136027600Y-110715200D01*
X137250000Y-111937600D02*
X137250000Y-110715200D01*
X136027600Y-113360000D02*
X137250000Y-113360000D01*
X136027600Y-112137600D02*
X136027600Y-113360000D01*
X137250000Y-112137600D02*
X136027600Y-112137600D01*
X137250000Y-113360000D02*
X137250000Y-112137600D01*
X136027600Y-114782400D02*
X137250000Y-114782400D01*
X136027600Y-113560000D02*
X136027600Y-114782400D01*
X137250000Y-113560000D02*
X136027600Y-113560000D01*
X137250000Y-114782400D02*
X137250000Y-113560000D01*
X136027600Y-116204800D02*
X137250000Y-116204800D01*
X136027600Y-114982400D02*
X136027600Y-116204800D01*
X137250000Y-114982400D02*
X136027600Y-114982400D01*
X137250000Y-116204800D02*
X137250000Y-114982400D01*
X137450000Y-111937600D02*
X138672400Y-111937600D01*
X137450000Y-110715200D02*
X137450000Y-111937600D01*
X138672400Y-110715200D02*
X137450000Y-110715200D01*
X138672400Y-111937600D02*
X138672400Y-110715200D01*
X137450000Y-113360000D02*
X138672400Y-113360000D01*
X137450000Y-112137600D02*
X137450000Y-113360000D01*
X138672400Y-112137600D02*
X137450000Y-112137600D01*
X138672400Y-113360000D02*
X138672400Y-112137600D01*
X137450000Y-114782400D02*
X138672400Y-114782400D01*
X137450000Y-113560000D02*
X137450000Y-114782400D01*
X138672400Y-113560000D02*
X137450000Y-113560000D01*
X138672400Y-114782400D02*
X138672400Y-113560000D01*
X137450000Y-116204800D02*
X138672400Y-116204800D01*
X137450000Y-114982400D02*
X137450000Y-116204800D01*
X138672400Y-114982400D02*
X137450000Y-114982400D01*
X138672400Y-116204800D02*
X138672400Y-114982400D01*
X138872400Y-111937600D02*
X140094800Y-111937600D01*
X138872400Y-110715200D02*
X138872400Y-111937600D01*
X140094800Y-110715200D02*
X138872400Y-110715200D01*
X140094800Y-111937600D02*
X140094800Y-110715200D01*
X138872400Y-113360000D02*
X140094800Y-113360000D01*
X138872400Y-112137600D02*
X138872400Y-113360000D01*
X140094800Y-112137600D02*
X138872400Y-112137600D01*
X140094800Y-113360000D02*
X140094800Y-112137600D01*
X138872400Y-114782400D02*
X140094800Y-114782400D01*
X138872400Y-113560000D02*
X138872400Y-114782400D01*
X140094800Y-113560000D02*
X138872400Y-113560000D01*
X140094800Y-114782400D02*
X140094800Y-113560000D01*
X138872400Y-116204800D02*
X140094800Y-116204800D01*
X138872400Y-114982400D02*
X138872400Y-116204800D01*
X140094800Y-114982400D02*
X138872400Y-114982400D01*
X140094800Y-116204800D02*
X140094800Y-114982400D01*
G04 #@! TD*
G04 #@! TO.C,R15*
G36*
G01*
X145185000Y-82652500D02*
X145185000Y-82997500D01*
G75*
G02*
X145037500Y-83145000I-147500J0D01*
G01*
X144742500Y-83145000D01*
G75*
G02*
X144595000Y-82997500I0J147500D01*
G01*
X144595000Y-82652500D01*
G75*
G02*
X144742500Y-82505000I147500J0D01*
G01*
X145037500Y-82505000D01*
G75*
G02*
X145185000Y-82652500I0J-147500D01*
G01*
G37*
G36*
G01*
X146155000Y-82652500D02*
X146155000Y-82997500D01*
G75*
G02*
X146007500Y-83145000I-147500J0D01*
G01*
X145712500Y-83145000D01*
G75*
G02*
X145565000Y-82997500I0J147500D01*
G01*
X145565000Y-82652500D01*
G75*
G02*
X145712500Y-82505000I147500J0D01*
G01*
X146007500Y-82505000D01*
G75*
G02*
X146155000Y-82652500I0J-147500D01*
G01*
G37*
G04 #@! TD*
G04 #@! TO.C,R7*
G36*
G01*
X137497500Y-80455000D02*
X137842500Y-80455000D01*
G75*
G02*
X137990000Y-80602500I0J-147500D01*
G01*
X137990000Y-80897500D01*
G75*
G02*
X137842500Y-81045000I-147500J0D01*
G01*
X137497500Y-81045000D01*
G75*
G02*
X137350000Y-80897500I0J147500D01*
G01*
X137350000Y-80602500D01*
G75*
G02*
X137497500Y-80455000I147500J0D01*
G01*
G37*
G36*
G01*
X137497500Y-81425000D02*
X137842500Y-81425000D01*
G75*
G02*
X137990000Y-81572500I0J-147500D01*
G01*
X137990000Y-81867500D01*
G75*
G02*
X137842500Y-82015000I-147500J0D01*
G01*
X137497500Y-82015000D01*
G75*
G02*
X137350000Y-81867500I0J147500D01*
G01*
X137350000Y-81572500D01*
G75*
G02*
X137497500Y-81425000I147500J0D01*
G01*
G37*
G04 #@! TD*
G04 #@! TO.C,R16*
G36*
G01*
X136842500Y-83635000D02*
X136497500Y-83635000D01*
G75*
G02*
X136350000Y-83487500I0J147500D01*
G01*
X136350000Y-83192500D01*
G75*
G02*
X136497500Y-83045000I147500J0D01*
G01*
X136842500Y-83045000D01*
G75*
G02*
X136990000Y-83192500I0J-147500D01*
G01*
X136990000Y-83487500D01*
G75*
G02*
X136842500Y-83635000I-147500J0D01*
G01*
G37*
G36*
G01*
X136842500Y-84605000D02*
X136497500Y-84605000D01*
G75*
G02*
X136350000Y-84457500I0J147500D01*
G01*
X136350000Y-84162500D01*
G75*
G02*
X136497500Y-84015000I147500J0D01*
G01*
X136842500Y-84015000D01*
G75*
G02*
X136990000Y-84162500I0J-147500D01*
G01*
X136990000Y-84457500D01*
G75*
G02*
X136842500Y-84605000I-147500J0D01*
G01*
G37*
G04 #@! TD*
G04 #@! TO.C,R9*
G36*
G01*
X136832500Y-82015000D02*
X136487500Y-82015000D01*
G75*
G02*
X136340000Y-81867500I0J147500D01*
G01*
X136340000Y-81572500D01*
G75*
G02*
X136487500Y-81425000I147500J0D01*
G01*
X136832500Y-81425000D01*
G75*
G02*
X136980000Y-81572500I0J-147500D01*
G01*
X136980000Y-81867500D01*
G75*
G02*
X136832500Y-82015000I-147500J0D01*
G01*
G37*
G36*
G01*
X136832500Y-81045000D02*
X136487500Y-81045000D01*
G75*
G02*
X136340000Y-80897500I0J147500D01*
G01*
X136340000Y-80602500D01*
G75*
G02*
X136487500Y-80455000I147500J0D01*
G01*
X136832500Y-80455000D01*
G75*
G02*
X136980000Y-80602500I0J-147500D01*
G01*
X136980000Y-80897500D01*
G75*
G02*
X136832500Y-81045000I-147500J0D01*
G01*
G37*
G04 #@! TD*
G04 #@! TO.C,C14*
G36*
G01*
X137180000Y-85682500D02*
X137180000Y-85337500D01*
G75*
G02*
X137327500Y-85190000I147500J0D01*
G01*
X137622500Y-85190000D01*
G75*
G02*
X137770000Y-85337500I0J-147500D01*
G01*
X137770000Y-85682500D01*
G75*
G02*
X137622500Y-85830000I-147500J0D01*
G01*
X137327500Y-85830000D01*
G75*
G02*
X137180000Y-85682500I0J147500D01*
G01*
G37*
G36*
G01*
X136210000Y-85682500D02*
X136210000Y-85337500D01*
G75*
G02*
X136357500Y-85190000I147500J0D01*
G01*
X136652500Y-85190000D01*
G75*
G02*
X136800000Y-85337500I0J-147500D01*
G01*
X136800000Y-85682500D01*
G75*
G02*
X136652500Y-85830000I-147500J0D01*
G01*
X136357500Y-85830000D01*
G75*
G02*
X136210000Y-85682500I0J147500D01*
G01*
G37*
G04 #@! TD*
G04 #@! TO.C,R14*
G36*
G01*
X137497500Y-83050000D02*
X137842500Y-83050000D01*
G75*
G02*
X137990000Y-83197500I0J-147500D01*
G01*
X137990000Y-83492500D01*
G75*
G02*
X137842500Y-83640000I-147500J0D01*
G01*
X137497500Y-83640000D01*
G75*
G02*
X137350000Y-83492500I0J147500D01*
G01*
X137350000Y-83197500D01*
G75*
G02*
X137497500Y-83050000I147500J0D01*
G01*
G37*
G36*
G01*
X137497500Y-84020000D02*
X137842500Y-84020000D01*
G75*
G02*
X137990000Y-84167500I0J-147500D01*
G01*
X137990000Y-84462500D01*
G75*
G02*
X137842500Y-84610000I-147500J0D01*
G01*
X137497500Y-84610000D01*
G75*
G02*
X137350000Y-84462500I0J147500D01*
G01*
X137350000Y-84167500D01*
G75*
G02*
X137497500Y-84020000I147500J0D01*
G01*
G37*
G04 #@! TD*
D11*
G04 #@! TO.C,U3*
X131260000Y-112635000D03*
X131260000Y-111365000D03*
X131260000Y-110095000D03*
X131260000Y-108825000D03*
X125860000Y-108825000D03*
X125860000Y-110095000D03*
X125860000Y-111365000D03*
X125860000Y-112635000D03*
G04 #@! TD*
D12*
G04 #@! TO.C,MOSFET5*
X162530399Y-101845000D03*
X162530399Y-96765000D03*
D13*
X151430398Y-99305000D03*
G04 #@! TD*
D12*
G04 #@! TO.C,MOSFET1*
X162505001Y-114765000D03*
X162505001Y-109685000D03*
D13*
X151405000Y-112225000D03*
G04 #@! TD*
D14*
G04 #@! TO.C,U15*
X156694400Y-118170000D03*
X156694400Y-118728800D03*
X157685000Y-118728800D03*
X157685000Y-118170000D03*
G04 #@! TD*
G04 #@! TO.C,C17*
G36*
G01*
X158772500Y-118940000D02*
X159117500Y-118940000D01*
G75*
G02*
X159265000Y-119087500I0J-147500D01*
G01*
X159265000Y-119382500D01*
G75*
G02*
X159117500Y-119530000I-147500J0D01*
G01*
X158772500Y-119530000D01*
G75*
G02*
X158625000Y-119382500I0J147500D01*
G01*
X158625000Y-119087500D01*
G75*
G02*
X158772500Y-118940000I147500J0D01*
G01*
G37*
G36*
G01*
X158772500Y-117970000D02*
X159117500Y-117970000D01*
G75*
G02*
X159265000Y-118117500I0J-147500D01*
G01*
X159265000Y-118412500D01*
G75*
G02*
X159117500Y-118560000I-147500J0D01*
G01*
X158772500Y-118560000D01*
G75*
G02*
X158625000Y-118412500I0J147500D01*
G01*
X158625000Y-118117500D01*
G75*
G02*
X158772500Y-117970000I147500J0D01*
G01*
G37*
G04 #@! TD*
D15*
G04 #@! TO.C,J4*
X122280000Y-120255000D03*
X122930000Y-120255000D03*
X123580000Y-120255000D03*
X124880000Y-120255000D03*
X124230000Y-120255000D03*
D16*
X123580000Y-122930000D03*
D17*
X127080000Y-122930000D03*
X120080000Y-122930000D03*
G04 #@! TD*
G04 #@! TO.C,U8*
G36*
G01*
X139305000Y-86845000D02*
X139305000Y-86635000D01*
G75*
G02*
X139340000Y-86600000I35000J0D01*
G01*
X140740000Y-86600000D01*
G75*
G02*
X140775000Y-86635000I0J-35000D01*
G01*
X140775000Y-86845000D01*
G75*
G02*
X140740000Y-86880000I-35000J0D01*
G01*
X139340000Y-86880000D01*
G75*
G02*
X139305000Y-86845000I0J35000D01*
G01*
G37*
G36*
G01*
X139305000Y-87345000D02*
X139305000Y-87135000D01*
G75*
G02*
X139340000Y-87100000I35000J0D01*
G01*
X140740000Y-87100000D01*
G75*
G02*
X140775000Y-87135000I0J-35000D01*
G01*
X140775000Y-87345000D01*
G75*
G02*
X140740000Y-87380000I-35000J0D01*
G01*
X139340000Y-87380000D01*
G75*
G02*
X139305000Y-87345000I0J35000D01*
G01*
G37*
G36*
G01*
X139305000Y-87845000D02*
X139305000Y-87635000D01*
G75*
G02*
X139340000Y-87600000I35000J0D01*
G01*
X140740000Y-87600000D01*
G75*
G02*
X140775000Y-87635000I0J-35000D01*
G01*
X140775000Y-87845000D01*
G75*
G02*
X140740000Y-87880000I-35000J0D01*
G01*
X139340000Y-87880000D01*
G75*
G02*
X139305000Y-87845000I0J35000D01*
G01*
G37*
G36*
G01*
X139305000Y-88345000D02*
X139305000Y-88135000D01*
G75*
G02*
X139340000Y-88100000I35000J0D01*
G01*
X140740000Y-88100000D01*
G75*
G02*
X140775000Y-88135000I0J-35000D01*
G01*
X140775000Y-88345000D01*
G75*
G02*
X140740000Y-88380000I-35000J0D01*
G01*
X139340000Y-88380000D01*
G75*
G02*
X139305000Y-88345000I0J35000D01*
G01*
G37*
G36*
G01*
X139305000Y-88845000D02*
X139305000Y-88635000D01*
G75*
G02*
X139340000Y-88600000I35000J0D01*
G01*
X140740000Y-88600000D01*
G75*
G02*
X140775000Y-88635000I0J-35000D01*
G01*
X140775000Y-88845000D01*
G75*
G02*
X140740000Y-88880000I-35000J0D01*
G01*
X139340000Y-88880000D01*
G75*
G02*
X139305000Y-88845000I0J35000D01*
G01*
G37*
G36*
G01*
X143605000Y-88845000D02*
X143605000Y-88635000D01*
G75*
G02*
X143640000Y-88600000I35000J0D01*
G01*
X145040000Y-88600000D01*
G75*
G02*
X145075000Y-88635000I0J-35000D01*
G01*
X145075000Y-88845000D01*
G75*
G02*
X145040000Y-88880000I-35000J0D01*
G01*
X143640000Y-88880000D01*
G75*
G02*
X143605000Y-88845000I0J35000D01*
G01*
G37*
G36*
G01*
X143605000Y-88345000D02*
X143605000Y-88135000D01*
G75*
G02*
X143640000Y-88100000I35000J0D01*
G01*
X145040000Y-88100000D01*
G75*
G02*
X145075000Y-88135000I0J-35000D01*
G01*
X145075000Y-88345000D01*
G75*
G02*
X145040000Y-88380000I-35000J0D01*
G01*
X143640000Y-88380000D01*
G75*
G02*
X143605000Y-88345000I0J35000D01*
G01*
G37*
G36*
G01*
X143605000Y-87845000D02*
X143605000Y-87635000D01*
G75*
G02*
X143640000Y-87600000I35000J0D01*
G01*
X145040000Y-87600000D01*
G75*
G02*
X145075000Y-87635000I0J-35000D01*
G01*
X145075000Y-87845000D01*
G75*
G02*
X145040000Y-87880000I-35000J0D01*
G01*
X143640000Y-87880000D01*
G75*
G02*
X143605000Y-87845000I0J35000D01*
G01*
G37*
G36*
G01*
X143605000Y-87345000D02*
X143605000Y-87135000D01*
G75*
G02*
X143640000Y-87100000I35000J0D01*
G01*
X145040000Y-87100000D01*
G75*
G02*
X145075000Y-87135000I0J-35000D01*
G01*
X145075000Y-87345000D01*
G75*
G02*
X145040000Y-87380000I-35000J0D01*
G01*
X143640000Y-87380000D01*
G75*
G02*
X143605000Y-87345000I0J35000D01*
G01*
G37*
G36*
G01*
X143605000Y-86845000D02*
X143605000Y-86635000D01*
G75*
G02*
X143640000Y-86600000I35000J0D01*
G01*
X145040000Y-86600000D01*
G75*
G02*
X145075000Y-86635000I0J-35000D01*
G01*
X145075000Y-86845000D01*
G75*
G02*
X145040000Y-86880000I-35000J0D01*
G01*
X143640000Y-86880000D01*
G75*
G02*
X143605000Y-86845000I0J35000D01*
G01*
G37*
G04 #@! TD*
G04 #@! TO.C,C1*
G36*
G01*
X127780000Y-114222500D02*
X127780000Y-113877500D01*
G75*
G02*
X127927500Y-113730000I147500J0D01*
G01*
X128222500Y-113730000D01*
G75*
G02*
X128370000Y-113877500I0J-147500D01*
G01*
X128370000Y-114222500D01*
G75*
G02*
X128222500Y-114370000I-147500J0D01*
G01*
X127927500Y-114370000D01*
G75*
G02*
X127780000Y-114222500I0J147500D01*
G01*
G37*
G36*
G01*
X128750000Y-114222500D02*
X128750000Y-113877500D01*
G75*
G02*
X128897500Y-113730000I147500J0D01*
G01*
X129192500Y-113730000D01*
G75*
G02*
X129340000Y-113877500I0J-147500D01*
G01*
X129340000Y-114222500D01*
G75*
G02*
X129192500Y-114370000I-147500J0D01*
G01*
X128897500Y-114370000D01*
G75*
G02*
X128750000Y-114222500I0J147500D01*
G01*
G37*
G04 #@! TD*
G04 #@! TO.C,C2*
G36*
G01*
X133110000Y-81756250D02*
X133110000Y-80843750D01*
G75*
G02*
X133353750Y-80600000I243750J0D01*
G01*
X133841250Y-80600000D01*
G75*
G02*
X134085000Y-80843750I0J-243750D01*
G01*
X134085000Y-81756250D01*
G75*
G02*
X133841250Y-82000000I-243750J0D01*
G01*
X133353750Y-82000000D01*
G75*
G02*
X133110000Y-81756250I0J243750D01*
G01*
G37*
G36*
G01*
X131235000Y-81756250D02*
X131235000Y-80843750D01*
G75*
G02*
X131478750Y-80600000I243750J0D01*
G01*
X131966250Y-80600000D01*
G75*
G02*
X132210000Y-80843750I0J-243750D01*
G01*
X132210000Y-81756250D01*
G75*
G02*
X131966250Y-82000000I-243750J0D01*
G01*
X131478750Y-82000000D01*
G75*
G02*
X131235000Y-81756250I0J243750D01*
G01*
G37*
G04 #@! TD*
G04 #@! TO.C,C3*
G36*
G01*
X124435000Y-85122500D02*
X124435000Y-84777500D01*
G75*
G02*
X124582500Y-84630000I147500J0D01*
G01*
X124877500Y-84630000D01*
G75*
G02*
X125025000Y-84777500I0J-147500D01*
G01*
X125025000Y-85122500D01*
G75*
G02*
X124877500Y-85270000I-147500J0D01*
G01*
X124582500Y-85270000D01*
G75*
G02*
X124435000Y-85122500I0J147500D01*
G01*
G37*
G36*
G01*
X125405000Y-85122500D02*
X125405000Y-84777500D01*
G75*
G02*
X125552500Y-84630000I147500J0D01*
G01*
X125847500Y-84630000D01*
G75*
G02*
X125995000Y-84777500I0J-147500D01*
G01*
X125995000Y-85122500D01*
G75*
G02*
X125847500Y-85270000I-147500J0D01*
G01*
X125552500Y-85270000D01*
G75*
G02*
X125405000Y-85122500I0J147500D01*
G01*
G37*
G04 #@! TD*
G04 #@! TO.C,C4*
G36*
G01*
X123716250Y-84645000D02*
X122803750Y-84645000D01*
G75*
G02*
X122560000Y-84401250I0J243750D01*
G01*
X122560000Y-83913750D01*
G75*
G02*
X122803750Y-83670000I243750J0D01*
G01*
X123716250Y-83670000D01*
G75*
G02*
X123960000Y-83913750I0J-243750D01*
G01*
X123960000Y-84401250D01*
G75*
G02*
X123716250Y-84645000I-243750J0D01*
G01*
G37*
G36*
G01*
X123716250Y-82770000D02*
X122803750Y-82770000D01*
G75*
G02*
X122560000Y-82526250I0J243750D01*
G01*
X122560000Y-82038750D01*
G75*
G02*
X122803750Y-81795000I243750J0D01*
G01*
X123716250Y-81795000D01*
G75*
G02*
X123960000Y-82038750I0J-243750D01*
G01*
X123960000Y-82526250D01*
G75*
G02*
X123716250Y-82770000I-243750J0D01*
G01*
G37*
G04 #@! TD*
G04 #@! TO.C,C5*
G36*
G01*
X142345000Y-113747500D02*
X142345000Y-113402500D01*
G75*
G02*
X142492500Y-113255000I147500J0D01*
G01*
X142787500Y-113255000D01*
G75*
G02*
X142935000Y-113402500I0J-147500D01*
G01*
X142935000Y-113747500D01*
G75*
G02*
X142787500Y-113895000I-147500J0D01*
G01*
X142492500Y-113895000D01*
G75*
G02*
X142345000Y-113747500I0J147500D01*
G01*
G37*
G36*
G01*
X143315000Y-113747500D02*
X143315000Y-113402500D01*
G75*
G02*
X143462500Y-113255000I147500J0D01*
G01*
X143757500Y-113255000D01*
G75*
G02*
X143905000Y-113402500I0J-147500D01*
G01*
X143905000Y-113747500D01*
G75*
G02*
X143757500Y-113895000I-147500J0D01*
G01*
X143462500Y-113895000D01*
G75*
G02*
X143315000Y-113747500I0J147500D01*
G01*
G37*
G04 #@! TD*
G04 #@! TO.C,C6*
G36*
G01*
X144210000Y-85277500D02*
X144210000Y-85622500D01*
G75*
G02*
X144062500Y-85770000I-147500J0D01*
G01*
X143767500Y-85770000D01*
G75*
G02*
X143620000Y-85622500I0J147500D01*
G01*
X143620000Y-85277500D01*
G75*
G02*
X143767500Y-85130000I147500J0D01*
G01*
X144062500Y-85130000D01*
G75*
G02*
X144210000Y-85277500I0J-147500D01*
G01*
G37*
G36*
G01*
X145180000Y-85277500D02*
X145180000Y-85622500D01*
G75*
G02*
X145032500Y-85770000I-147500J0D01*
G01*
X144737500Y-85770000D01*
G75*
G02*
X144590000Y-85622500I0J147500D01*
G01*
X144590000Y-85277500D01*
G75*
G02*
X144737500Y-85130000I147500J0D01*
G01*
X145032500Y-85130000D01*
G75*
G02*
X145180000Y-85277500I0J-147500D01*
G01*
G37*
G04 #@! TD*
G04 #@! TO.C,C7*
G36*
G01*
X161443750Y-118112500D02*
X162356250Y-118112500D01*
G75*
G02*
X162600000Y-118356250I0J-243750D01*
G01*
X162600000Y-118843750D01*
G75*
G02*
X162356250Y-119087500I-243750J0D01*
G01*
X161443750Y-119087500D01*
G75*
G02*
X161200000Y-118843750I0J243750D01*
G01*
X161200000Y-118356250D01*
G75*
G02*
X161443750Y-118112500I243750J0D01*
G01*
G37*
G36*
G01*
X161443750Y-119987500D02*
X162356250Y-119987500D01*
G75*
G02*
X162600000Y-120231250I0J-243750D01*
G01*
X162600000Y-120718750D01*
G75*
G02*
X162356250Y-120962500I-243750J0D01*
G01*
X161443750Y-120962500D01*
G75*
G02*
X161200000Y-120718750I0J243750D01*
G01*
X161200000Y-120231250D01*
G75*
G02*
X161443750Y-119987500I243750J0D01*
G01*
G37*
G04 #@! TD*
G04 #@! TO.C,C8*
G36*
G01*
X136492500Y-108135000D02*
X136147500Y-108135000D01*
G75*
G02*
X136000000Y-107987500I0J147500D01*
G01*
X136000000Y-107692500D01*
G75*
G02*
X136147500Y-107545000I147500J0D01*
G01*
X136492500Y-107545000D01*
G75*
G02*
X136640000Y-107692500I0J-147500D01*
G01*
X136640000Y-107987500D01*
G75*
G02*
X136492500Y-108135000I-147500J0D01*
G01*
G37*
G36*
G01*
X136492500Y-109105000D02*
X136147500Y-109105000D01*
G75*
G02*
X136000000Y-108957500I0J147500D01*
G01*
X136000000Y-108662500D01*
G75*
G02*
X136147500Y-108515000I147500J0D01*
G01*
X136492500Y-108515000D01*
G75*
G02*
X136640000Y-108662500I0J-147500D01*
G01*
X136640000Y-108957500D01*
G75*
G02*
X136492500Y-109105000I-147500J0D01*
G01*
G37*
G04 #@! TD*
G04 #@! TO.C,C9*
G36*
G01*
X142247500Y-117485000D02*
X142592500Y-117485000D01*
G75*
G02*
X142740000Y-117632500I0J-147500D01*
G01*
X142740000Y-117927500D01*
G75*
G02*
X142592500Y-118075000I-147500J0D01*
G01*
X142247500Y-118075000D01*
G75*
G02*
X142100000Y-117927500I0J147500D01*
G01*
X142100000Y-117632500D01*
G75*
G02*
X142247500Y-117485000I147500J0D01*
G01*
G37*
G36*
G01*
X142247500Y-116515000D02*
X142592500Y-116515000D01*
G75*
G02*
X142740000Y-116662500I0J-147500D01*
G01*
X142740000Y-116957500D01*
G75*
G02*
X142592500Y-117105000I-147500J0D01*
G01*
X142247500Y-117105000D01*
G75*
G02*
X142100000Y-116957500I0J147500D01*
G01*
X142100000Y-116662500D01*
G75*
G02*
X142247500Y-116515000I147500J0D01*
G01*
G37*
G04 #@! TD*
G04 #@! TO.C,C10*
G36*
G01*
X135472500Y-109105000D02*
X135127500Y-109105000D01*
G75*
G02*
X134980000Y-108957500I0J147500D01*
G01*
X134980000Y-108662500D01*
G75*
G02*
X135127500Y-108515000I147500J0D01*
G01*
X135472500Y-108515000D01*
G75*
G02*
X135620000Y-108662500I0J-147500D01*
G01*
X135620000Y-108957500D01*
G75*
G02*
X135472500Y-109105000I-147500J0D01*
G01*
G37*
G36*
G01*
X135472500Y-108135000D02*
X135127500Y-108135000D01*
G75*
G02*
X134980000Y-107987500I0J147500D01*
G01*
X134980000Y-107692500D01*
G75*
G02*
X135127500Y-107545000I147500J0D01*
G01*
X135472500Y-107545000D01*
G75*
G02*
X135620000Y-107692500I0J-147500D01*
G01*
X135620000Y-107987500D01*
G75*
G02*
X135472500Y-108135000I-147500J0D01*
G01*
G37*
G04 #@! TD*
G04 #@! TO.C,C11*
G36*
G01*
X134452500Y-108135000D02*
X134107500Y-108135000D01*
G75*
G02*
X133960000Y-107987500I0J147500D01*
G01*
X133960000Y-107692500D01*
G75*
G02*
X134107500Y-107545000I147500J0D01*
G01*
X134452500Y-107545000D01*
G75*
G02*
X134600000Y-107692500I0J-147500D01*
G01*
X134600000Y-107987500D01*
G75*
G02*
X134452500Y-108135000I-147500J0D01*
G01*
G37*
G36*
G01*
X134452500Y-109105000D02*
X134107500Y-109105000D01*
G75*
G02*
X133960000Y-108957500I0J147500D01*
G01*
X133960000Y-108662500D01*
G75*
G02*
X134107500Y-108515000I147500J0D01*
G01*
X134452500Y-108515000D01*
G75*
G02*
X134600000Y-108662500I0J-147500D01*
G01*
X134600000Y-108957500D01*
G75*
G02*
X134452500Y-109105000I-147500J0D01*
G01*
G37*
G04 #@! TD*
G04 #@! TO.C,C12*
G36*
G01*
X132980000Y-115687500D02*
X132980000Y-116032500D01*
G75*
G02*
X132832500Y-116180000I-147500J0D01*
G01*
X132537500Y-116180000D01*
G75*
G02*
X132390000Y-116032500I0J147500D01*
G01*
X132390000Y-115687500D01*
G75*
G02*
X132537500Y-115540000I147500J0D01*
G01*
X132832500Y-115540000D01*
G75*
G02*
X132980000Y-115687500I0J-147500D01*
G01*
G37*
G36*
G01*
X132010000Y-115687500D02*
X132010000Y-116032500D01*
G75*
G02*
X131862500Y-116180000I-147500J0D01*
G01*
X131567500Y-116180000D01*
G75*
G02*
X131420000Y-116032500I0J147500D01*
G01*
X131420000Y-115687500D01*
G75*
G02*
X131567500Y-115540000I147500J0D01*
G01*
X131862500Y-115540000D01*
G75*
G02*
X132010000Y-115687500I0J-147500D01*
G01*
G37*
G04 #@! TD*
G04 #@! TO.C,C13*
G36*
G01*
X140150000Y-118322500D02*
X140150000Y-117977500D01*
G75*
G02*
X140297500Y-117830000I147500J0D01*
G01*
X140592500Y-117830000D01*
G75*
G02*
X140740000Y-117977500I0J-147500D01*
G01*
X140740000Y-118322500D01*
G75*
G02*
X140592500Y-118470000I-147500J0D01*
G01*
X140297500Y-118470000D01*
G75*
G02*
X140150000Y-118322500I0J147500D01*
G01*
G37*
G36*
G01*
X141120000Y-118322500D02*
X141120000Y-117977500D01*
G75*
G02*
X141267500Y-117830000I147500J0D01*
G01*
X141562500Y-117830000D01*
G75*
G02*
X141710000Y-117977500I0J-147500D01*
G01*
X141710000Y-118322500D01*
G75*
G02*
X141562500Y-118470000I-147500J0D01*
G01*
X141267500Y-118470000D01*
G75*
G02*
X141120000Y-118322500I0J147500D01*
G01*
G37*
G04 #@! TD*
G04 #@! TO.C,C15*
G36*
G01*
X142000000Y-106162500D02*
X142000000Y-105817500D01*
G75*
G02*
X142147500Y-105670000I147500J0D01*
G01*
X142442500Y-105670000D01*
G75*
G02*
X142590000Y-105817500I0J-147500D01*
G01*
X142590000Y-106162500D01*
G75*
G02*
X142442500Y-106310000I-147500J0D01*
G01*
X142147500Y-106310000D01*
G75*
G02*
X142000000Y-106162500I0J147500D01*
G01*
G37*
G36*
G01*
X142970000Y-106162500D02*
X142970000Y-105817500D01*
G75*
G02*
X143117500Y-105670000I147500J0D01*
G01*
X143412500Y-105670000D01*
G75*
G02*
X143560000Y-105817500I0J-147500D01*
G01*
X143560000Y-106162500D01*
G75*
G02*
X143412500Y-106310000I-147500J0D01*
G01*
X143117500Y-106310000D01*
G75*
G02*
X142970000Y-106162500I0J147500D01*
G01*
G37*
G04 #@! TD*
G04 #@! TO.C,C16*
G36*
G01*
X139437500Y-107925000D02*
X139092500Y-107925000D01*
G75*
G02*
X138945000Y-107777500I0J147500D01*
G01*
X138945000Y-107482500D01*
G75*
G02*
X139092500Y-107335000I147500J0D01*
G01*
X139437500Y-107335000D01*
G75*
G02*
X139585000Y-107482500I0J-147500D01*
G01*
X139585000Y-107777500D01*
G75*
G02*
X139437500Y-107925000I-147500J0D01*
G01*
G37*
G36*
G01*
X139437500Y-106955000D02*
X139092500Y-106955000D01*
G75*
G02*
X138945000Y-106807500I0J147500D01*
G01*
X138945000Y-106512500D01*
G75*
G02*
X139092500Y-106365000I147500J0D01*
G01*
X139437500Y-106365000D01*
G75*
G02*
X139585000Y-106512500I0J-147500D01*
G01*
X139585000Y-106807500D01*
G75*
G02*
X139437500Y-106955000I-147500J0D01*
G01*
G37*
G04 #@! TD*
G04 #@! TO.C,C18*
G36*
G01*
X147975000Y-123422500D02*
X147975000Y-123077500D01*
G75*
G02*
X148122500Y-122930000I147500J0D01*
G01*
X148417500Y-122930000D01*
G75*
G02*
X148565000Y-123077500I0J-147500D01*
G01*
X148565000Y-123422500D01*
G75*
G02*
X148417500Y-123570000I-147500J0D01*
G01*
X148122500Y-123570000D01*
G75*
G02*
X147975000Y-123422500I0J147500D01*
G01*
G37*
G36*
G01*
X147005000Y-123422500D02*
X147005000Y-123077500D01*
G75*
G02*
X147152500Y-122930000I147500J0D01*
G01*
X147447500Y-122930000D01*
G75*
G02*
X147595000Y-123077500I0J-147500D01*
G01*
X147595000Y-123422500D01*
G75*
G02*
X147447500Y-123570000I-147500J0D01*
G01*
X147152500Y-123570000D01*
G75*
G02*
X147005000Y-123422500I0J147500D01*
G01*
G37*
G04 #@! TD*
G04 #@! TO.C,C19*
G36*
G01*
X144940000Y-123412500D02*
X144940000Y-123067500D01*
G75*
G02*
X145087500Y-122920000I147500J0D01*
G01*
X145382500Y-122920000D01*
G75*
G02*
X145530000Y-123067500I0J-147500D01*
G01*
X145530000Y-123412500D01*
G75*
G02*
X145382500Y-123560000I-147500J0D01*
G01*
X145087500Y-123560000D01*
G75*
G02*
X144940000Y-123412500I0J147500D01*
G01*
G37*
G36*
G01*
X143970000Y-123412500D02*
X143970000Y-123067500D01*
G75*
G02*
X144117500Y-122920000I147500J0D01*
G01*
X144412500Y-122920000D01*
G75*
G02*
X144560000Y-123067500I0J-147500D01*
G01*
X144560000Y-123412500D01*
G75*
G02*
X144412500Y-123560000I-147500J0D01*
G01*
X144117500Y-123560000D01*
G75*
G02*
X143970000Y-123412500I0J147500D01*
G01*
G37*
G04 #@! TD*
D18*
G04 #@! TO.C,CR1*
X144190000Y-96068200D03*
X144190000Y-99471800D03*
G04 #@! TD*
G04 #@! TO.C,CR2*
X140700000Y-99451800D03*
X140700000Y-96048200D03*
G04 #@! TD*
D19*
G04 #@! TO.C,D1*
X124840000Y-81010000D03*
X126140000Y-81010000D03*
G04 #@! TD*
G04 #@! TO.C,D2*
G36*
G01*
X121213750Y-83762500D02*
X121726250Y-83762500D01*
G75*
G02*
X121945000Y-83981250I0J-218750D01*
G01*
X121945000Y-84418750D01*
G75*
G02*
X121726250Y-84637500I-218750J0D01*
G01*
X121213750Y-84637500D01*
G75*
G02*
X120995000Y-84418750I0J218750D01*
G01*
X120995000Y-83981250D01*
G75*
G02*
X121213750Y-83762500I218750J0D01*
G01*
G37*
G36*
G01*
X121213750Y-82187500D02*
X121726250Y-82187500D01*
G75*
G02*
X121945000Y-82406250I0J-218750D01*
G01*
X121945000Y-82843750D01*
G75*
G02*
X121726250Y-83062500I-218750J0D01*
G01*
X121213750Y-83062500D01*
G75*
G02*
X120995000Y-82843750I0J218750D01*
G01*
X120995000Y-82406250D01*
G75*
G02*
X121213750Y-82187500I218750J0D01*
G01*
G37*
G04 #@! TD*
G04 #@! TO.C,D3*
G36*
G01*
X118923750Y-83762500D02*
X119436250Y-83762500D01*
G75*
G02*
X119655000Y-83981250I0J-218750D01*
G01*
X119655000Y-84418750D01*
G75*
G02*
X119436250Y-84637500I-218750J0D01*
G01*
X118923750Y-84637500D01*
G75*
G02*
X118705000Y-84418750I0J218750D01*
G01*
X118705000Y-83981250D01*
G75*
G02*
X118923750Y-83762500I218750J0D01*
G01*
G37*
G36*
G01*
X118923750Y-82187500D02*
X119436250Y-82187500D01*
G75*
G02*
X119655000Y-82406250I0J-218750D01*
G01*
X119655000Y-82843750D01*
G75*
G02*
X119436250Y-83062500I-218750J0D01*
G01*
X118923750Y-83062500D01*
G75*
G02*
X118705000Y-82843750I0J218750D01*
G01*
X118705000Y-82406250D01*
G75*
G02*
X118923750Y-82187500I218750J0D01*
G01*
G37*
G04 #@! TD*
G04 #@! TO.C,D4*
G36*
G01*
X157537500Y-122646250D02*
X157537500Y-122133750D01*
G75*
G02*
X157756250Y-121915000I218750J0D01*
G01*
X158193750Y-121915000D01*
G75*
G02*
X158412500Y-122133750I0J-218750D01*
G01*
X158412500Y-122646250D01*
G75*
G02*
X158193750Y-122865000I-218750J0D01*
G01*
X157756250Y-122865000D01*
G75*
G02*
X157537500Y-122646250I0J218750D01*
G01*
G37*
G36*
G01*
X159112500Y-122646250D02*
X159112500Y-122133750D01*
G75*
G02*
X159331250Y-121915000I218750J0D01*
G01*
X159768750Y-121915000D01*
G75*
G02*
X159987500Y-122133750I0J-218750D01*
G01*
X159987500Y-122646250D01*
G75*
G02*
X159768750Y-122865000I-218750J0D01*
G01*
X159331250Y-122865000D01*
G75*
G02*
X159112500Y-122646250I0J218750D01*
G01*
G37*
G04 #@! TD*
G04 #@! TO.C,D5*
G36*
G01*
X157532500Y-120686250D02*
X157532500Y-120173750D01*
G75*
G02*
X157751250Y-119955000I218750J0D01*
G01*
X158188750Y-119955000D01*
G75*
G02*
X158407500Y-120173750I0J-218750D01*
G01*
X158407500Y-120686250D01*
G75*
G02*
X158188750Y-120905000I-218750J0D01*
G01*
X157751250Y-120905000D01*
G75*
G02*
X157532500Y-120686250I0J218750D01*
G01*
G37*
G36*
G01*
X159107500Y-120686250D02*
X159107500Y-120173750D01*
G75*
G02*
X159326250Y-119955000I218750J0D01*
G01*
X159763750Y-119955000D01*
G75*
G02*
X159982500Y-120173750I0J-218750D01*
G01*
X159982500Y-120686250D01*
G75*
G02*
X159763750Y-120905000I-218750J0D01*
G01*
X159326250Y-120905000D01*
G75*
G02*
X159107500Y-120686250I0J218750D01*
G01*
G37*
G04 #@! TD*
G04 #@! TO.C,D6*
G36*
G01*
X152832500Y-122676250D02*
X152832500Y-122163750D01*
G75*
G02*
X153051250Y-121945000I218750J0D01*
G01*
X153488750Y-121945000D01*
G75*
G02*
X153707500Y-122163750I0J-218750D01*
G01*
X153707500Y-122676250D01*
G75*
G02*
X153488750Y-122895000I-218750J0D01*
G01*
X153051250Y-122895000D01*
G75*
G02*
X152832500Y-122676250I0J218750D01*
G01*
G37*
G36*
G01*
X154407500Y-122676250D02*
X154407500Y-122163750D01*
G75*
G02*
X154626250Y-121945000I218750J0D01*
G01*
X155063750Y-121945000D01*
G75*
G02*
X155282500Y-122163750I0J-218750D01*
G01*
X155282500Y-122676250D01*
G75*
G02*
X155063750Y-122895000I-218750J0D01*
G01*
X154626250Y-122895000D01*
G75*
G02*
X154407500Y-122676250I0J218750D01*
G01*
G37*
G04 #@! TD*
G04 #@! TO.C,D7*
G36*
G01*
X154402500Y-120716250D02*
X154402500Y-120203750D01*
G75*
G02*
X154621250Y-119985000I218750J0D01*
G01*
X155058750Y-119985000D01*
G75*
G02*
X155277500Y-120203750I0J-218750D01*
G01*
X155277500Y-120716250D01*
G75*
G02*
X155058750Y-120935000I-218750J0D01*
G01*
X154621250Y-120935000D01*
G75*
G02*
X154402500Y-120716250I0J218750D01*
G01*
G37*
G36*
G01*
X152827500Y-120716250D02*
X152827500Y-120203750D01*
G75*
G02*
X153046250Y-119985000I218750J0D01*
G01*
X153483750Y-119985000D01*
G75*
G02*
X153702500Y-120203750I0J-218750D01*
G01*
X153702500Y-120716250D01*
G75*
G02*
X153483750Y-120935000I-218750J0D01*
G01*
X153046250Y-120935000D01*
G75*
G02*
X152827500Y-120716250I0J218750D01*
G01*
G37*
G04 #@! TD*
G04 #@! TO.C,L1*
G36*
G01*
X128185000Y-81375000D02*
X130335000Y-81375000D01*
G75*
G02*
X130585000Y-81625000I0J-250000D01*
G01*
X130585000Y-82375000D01*
G75*
G02*
X130335000Y-82625000I-250000J0D01*
G01*
X128185000Y-82625000D01*
G75*
G02*
X127935000Y-82375000I0J250000D01*
G01*
X127935000Y-81625000D01*
G75*
G02*
X128185000Y-81375000I250000J0D01*
G01*
G37*
G36*
G01*
X128185000Y-84175000D02*
X130335000Y-84175000D01*
G75*
G02*
X130585000Y-84425000I0J-250000D01*
G01*
X130585000Y-85175000D01*
G75*
G02*
X130335000Y-85425000I-250000J0D01*
G01*
X128185000Y-85425000D01*
G75*
G02*
X127935000Y-85175000I0J250000D01*
G01*
X127935000Y-84425000D01*
G75*
G02*
X128185000Y-84175000I250000J0D01*
G01*
G37*
G04 #@! TD*
D20*
G04 #@! TO.C,MOSFET2*
X142200000Y-82200000D03*
X140300000Y-82200000D03*
X141250000Y-84200000D03*
G04 #@! TD*
D13*
G04 #@! TO.C,MOSFET3*
X151460398Y-87200000D03*
D12*
X162560399Y-84660000D03*
X162560399Y-89740000D03*
G04 #@! TD*
D21*
G04 #@! TO.C,MOSFET4*
X132910000Y-83100000D03*
X133860000Y-85200000D03*
X131960000Y-85200000D03*
G04 #@! TD*
G04 #@! TO.C,R2*
G36*
G01*
X143407500Y-83930000D02*
X143752500Y-83930000D01*
G75*
G02*
X143900000Y-84077500I0J-147500D01*
G01*
X143900000Y-84372500D01*
G75*
G02*
X143752500Y-84520000I-147500J0D01*
G01*
X143407500Y-84520000D01*
G75*
G02*
X143260000Y-84372500I0J147500D01*
G01*
X143260000Y-84077500D01*
G75*
G02*
X143407500Y-83930000I147500J0D01*
G01*
G37*
G36*
G01*
X143407500Y-82960000D02*
X143752500Y-82960000D01*
G75*
G02*
X143900000Y-83107500I0J-147500D01*
G01*
X143900000Y-83402500D01*
G75*
G02*
X143752500Y-83550000I-147500J0D01*
G01*
X143407500Y-83550000D01*
G75*
G02*
X143260000Y-83402500I0J147500D01*
G01*
X143260000Y-83107500D01*
G75*
G02*
X143407500Y-82960000I147500J0D01*
G01*
G37*
G04 #@! TD*
G04 #@! TO.C,R3*
G36*
G01*
X135327500Y-82305000D02*
X135672500Y-82305000D01*
G75*
G02*
X135820000Y-82452500I0J-147500D01*
G01*
X135820000Y-82747500D01*
G75*
G02*
X135672500Y-82895000I-147500J0D01*
G01*
X135327500Y-82895000D01*
G75*
G02*
X135180000Y-82747500I0J147500D01*
G01*
X135180000Y-82452500D01*
G75*
G02*
X135327500Y-82305000I147500J0D01*
G01*
G37*
G36*
G01*
X135327500Y-83275000D02*
X135672500Y-83275000D01*
G75*
G02*
X135820000Y-83422500I0J-147500D01*
G01*
X135820000Y-83717500D01*
G75*
G02*
X135672500Y-83865000I-147500J0D01*
G01*
X135327500Y-83865000D01*
G75*
G02*
X135180000Y-83717500I0J147500D01*
G01*
X135180000Y-83422500D01*
G75*
G02*
X135327500Y-83275000I147500J0D01*
G01*
G37*
G04 #@! TD*
G04 #@! TO.C,R4*
G36*
G01*
X122085000Y-81147500D02*
X122085000Y-81492500D01*
G75*
G02*
X121937500Y-81640000I-147500J0D01*
G01*
X121642500Y-81640000D01*
G75*
G02*
X121495000Y-81492500I0J147500D01*
G01*
X121495000Y-81147500D01*
G75*
G02*
X121642500Y-81000000I147500J0D01*
G01*
X121937500Y-81000000D01*
G75*
G02*
X122085000Y-81147500I0J-147500D01*
G01*
G37*
G36*
G01*
X121115000Y-81147500D02*
X121115000Y-81492500D01*
G75*
G02*
X120967500Y-81640000I-147500J0D01*
G01*
X120672500Y-81640000D01*
G75*
G02*
X120525000Y-81492500I0J147500D01*
G01*
X120525000Y-81147500D01*
G75*
G02*
X120672500Y-81000000I147500J0D01*
G01*
X120967500Y-81000000D01*
G75*
G02*
X121115000Y-81147500I0J-147500D01*
G01*
G37*
G04 #@! TD*
G04 #@! TO.C,R5*
G36*
G01*
X119535000Y-81492500D02*
X119535000Y-81147500D01*
G75*
G02*
X119682500Y-81000000I147500J0D01*
G01*
X119977500Y-81000000D01*
G75*
G02*
X120125000Y-81147500I0J-147500D01*
G01*
X120125000Y-81492500D01*
G75*
G02*
X119977500Y-81640000I-147500J0D01*
G01*
X119682500Y-81640000D01*
G75*
G02*
X119535000Y-81492500I0J147500D01*
G01*
G37*
G36*
G01*
X118565000Y-81492500D02*
X118565000Y-81147500D01*
G75*
G02*
X118712500Y-81000000I147500J0D01*
G01*
X119007500Y-81000000D01*
G75*
G02*
X119155000Y-81147500I0J-147500D01*
G01*
X119155000Y-81492500D01*
G75*
G02*
X119007500Y-81640000I-147500J0D01*
G01*
X118712500Y-81640000D01*
G75*
G02*
X118565000Y-81492500I0J147500D01*
G01*
G37*
G04 #@! TD*
G04 #@! TO.C,R6*
G36*
G01*
X144940000Y-81972500D02*
X144940000Y-81627500D01*
G75*
G02*
X145087500Y-81480000I147500J0D01*
G01*
X145382500Y-81480000D01*
G75*
G02*
X145530000Y-81627500I0J-147500D01*
G01*
X145530000Y-81972500D01*
G75*
G02*
X145382500Y-82120000I-147500J0D01*
G01*
X145087500Y-82120000D01*
G75*
G02*
X144940000Y-81972500I0J147500D01*
G01*
G37*
G36*
G01*
X143970000Y-81972500D02*
X143970000Y-81627500D01*
G75*
G02*
X144117500Y-81480000I147500J0D01*
G01*
X144412500Y-81480000D01*
G75*
G02*
X144560000Y-81627500I0J-147500D01*
G01*
X144560000Y-81972500D01*
G75*
G02*
X144412500Y-82120000I-147500J0D01*
G01*
X144117500Y-82120000D01*
G75*
G02*
X143970000Y-81972500I0J147500D01*
G01*
G37*
G04 #@! TD*
G04 #@! TO.C,R8*
G36*
G01*
X135327500Y-85240000D02*
X135672500Y-85240000D01*
G75*
G02*
X135820000Y-85387500I0J-147500D01*
G01*
X135820000Y-85682500D01*
G75*
G02*
X135672500Y-85830000I-147500J0D01*
G01*
X135327500Y-85830000D01*
G75*
G02*
X135180000Y-85682500I0J147500D01*
G01*
X135180000Y-85387500D01*
G75*
G02*
X135327500Y-85240000I147500J0D01*
G01*
G37*
G36*
G01*
X135327500Y-84270000D02*
X135672500Y-84270000D01*
G75*
G02*
X135820000Y-84417500I0J-147500D01*
G01*
X135820000Y-84712500D01*
G75*
G02*
X135672500Y-84860000I-147500J0D01*
G01*
X135327500Y-84860000D01*
G75*
G02*
X135180000Y-84712500I0J147500D01*
G01*
X135180000Y-84417500D01*
G75*
G02*
X135327500Y-84270000I147500J0D01*
G01*
G37*
G04 #@! TD*
G04 #@! TO.C,R10*
G36*
G01*
X156517500Y-121445000D02*
X156862500Y-121445000D01*
G75*
G02*
X157010000Y-121592500I0J-147500D01*
G01*
X157010000Y-121887500D01*
G75*
G02*
X156862500Y-122035000I-147500J0D01*
G01*
X156517500Y-122035000D01*
G75*
G02*
X156370000Y-121887500I0J147500D01*
G01*
X156370000Y-121592500D01*
G75*
G02*
X156517500Y-121445000I147500J0D01*
G01*
G37*
G36*
G01*
X156517500Y-122415000D02*
X156862500Y-122415000D01*
G75*
G02*
X157010000Y-122562500I0J-147500D01*
G01*
X157010000Y-122857500D01*
G75*
G02*
X156862500Y-123005000I-147500J0D01*
G01*
X156517500Y-123005000D01*
G75*
G02*
X156370000Y-122857500I0J147500D01*
G01*
X156370000Y-122562500D01*
G75*
G02*
X156517500Y-122415000I147500J0D01*
G01*
G37*
G04 #@! TD*
G04 #@! TO.C,R11*
G36*
G01*
X156517500Y-119475000D02*
X156862500Y-119475000D01*
G75*
G02*
X157010000Y-119622500I0J-147500D01*
G01*
X157010000Y-119917500D01*
G75*
G02*
X156862500Y-120065000I-147500J0D01*
G01*
X156517500Y-120065000D01*
G75*
G02*
X156370000Y-119917500I0J147500D01*
G01*
X156370000Y-119622500D01*
G75*
G02*
X156517500Y-119475000I147500J0D01*
G01*
G37*
G36*
G01*
X156517500Y-120445000D02*
X156862500Y-120445000D01*
G75*
G02*
X157010000Y-120592500I0J-147500D01*
G01*
X157010000Y-120887500D01*
G75*
G02*
X156862500Y-121035000I-147500J0D01*
G01*
X156517500Y-121035000D01*
G75*
G02*
X156370000Y-120887500I0J147500D01*
G01*
X156370000Y-120592500D01*
G75*
G02*
X156517500Y-120445000I147500J0D01*
G01*
G37*
G04 #@! TD*
G04 #@! TO.C,R12*
G36*
G01*
X151797500Y-121475000D02*
X152142500Y-121475000D01*
G75*
G02*
X152290000Y-121622500I0J-147500D01*
G01*
X152290000Y-121917500D01*
G75*
G02*
X152142500Y-122065000I-147500J0D01*
G01*
X151797500Y-122065000D01*
G75*
G02*
X151650000Y-121917500I0J147500D01*
G01*
X151650000Y-121622500D01*
G75*
G02*
X151797500Y-121475000I147500J0D01*
G01*
G37*
G36*
G01*
X151797500Y-122445000D02*
X152142500Y-122445000D01*
G75*
G02*
X152290000Y-122592500I0J-147500D01*
G01*
X152290000Y-122887500D01*
G75*
G02*
X152142500Y-123035000I-147500J0D01*
G01*
X151797500Y-123035000D01*
G75*
G02*
X151650000Y-122887500I0J147500D01*
G01*
X151650000Y-122592500D01*
G75*
G02*
X151797500Y-122445000I147500J0D01*
G01*
G37*
G04 #@! TD*
G04 #@! TO.C,R13*
G36*
G01*
X151797500Y-119505000D02*
X152142500Y-119505000D01*
G75*
G02*
X152290000Y-119652500I0J-147500D01*
G01*
X152290000Y-119947500D01*
G75*
G02*
X152142500Y-120095000I-147500J0D01*
G01*
X151797500Y-120095000D01*
G75*
G02*
X151650000Y-119947500I0J147500D01*
G01*
X151650000Y-119652500D01*
G75*
G02*
X151797500Y-119505000I147500J0D01*
G01*
G37*
G36*
G01*
X151797500Y-120475000D02*
X152142500Y-120475000D01*
G75*
G02*
X152290000Y-120622500I0J-147500D01*
G01*
X152290000Y-120917500D01*
G75*
G02*
X152142500Y-121065000I-147500J0D01*
G01*
X151797500Y-121065000D01*
G75*
G02*
X151650000Y-120917500I0J147500D01*
G01*
X151650000Y-120622500D01*
G75*
G02*
X151797500Y-120475000I147500J0D01*
G01*
G37*
G04 #@! TD*
G04 #@! TO.C,R19*
G36*
G01*
X149562500Y-120693750D02*
X149562500Y-121206250D01*
G75*
G02*
X149343750Y-121425000I-218750J0D01*
G01*
X148906250Y-121425000D01*
G75*
G02*
X148687500Y-121206250I0J218750D01*
G01*
X148687500Y-120693750D01*
G75*
G02*
X148906250Y-120475000I218750J0D01*
G01*
X149343750Y-120475000D01*
G75*
G02*
X149562500Y-120693750I0J-218750D01*
G01*
G37*
G36*
G01*
X147987500Y-120693750D02*
X147987500Y-121206250D01*
G75*
G02*
X147768750Y-121425000I-218750J0D01*
G01*
X147331250Y-121425000D01*
G75*
G02*
X147112500Y-121206250I0J218750D01*
G01*
X147112500Y-120693750D01*
G75*
G02*
X147331250Y-120475000I218750J0D01*
G01*
X147768750Y-120475000D01*
G75*
G02*
X147987500Y-120693750I0J-218750D01*
G01*
G37*
G04 #@! TD*
G04 #@! TO.C,R20*
G36*
G01*
X144947500Y-120693750D02*
X144947500Y-121206250D01*
G75*
G02*
X144728750Y-121425000I-218750J0D01*
G01*
X144291250Y-121425000D01*
G75*
G02*
X144072500Y-121206250I0J218750D01*
G01*
X144072500Y-120693750D01*
G75*
G02*
X144291250Y-120475000I218750J0D01*
G01*
X144728750Y-120475000D01*
G75*
G02*
X144947500Y-120693750I0J-218750D01*
G01*
G37*
G36*
G01*
X146522500Y-120693750D02*
X146522500Y-121206250D01*
G75*
G02*
X146303750Y-121425000I-218750J0D01*
G01*
X145866250Y-121425000D01*
G75*
G02*
X145647500Y-121206250I0J218750D01*
G01*
X145647500Y-120693750D01*
G75*
G02*
X145866250Y-120475000I218750J0D01*
G01*
X146303750Y-120475000D01*
G75*
G02*
X146522500Y-120693750I0J-218750D01*
G01*
G37*
G04 #@! TD*
G04 #@! TO.C,R21*
G36*
G01*
X147005000Y-122402500D02*
X147005000Y-122057500D01*
G75*
G02*
X147152500Y-121910000I147500J0D01*
G01*
X147447500Y-121910000D01*
G75*
G02*
X147595000Y-122057500I0J-147500D01*
G01*
X147595000Y-122402500D01*
G75*
G02*
X147447500Y-122550000I-147500J0D01*
G01*
X147152500Y-122550000D01*
G75*
G02*
X147005000Y-122402500I0J147500D01*
G01*
G37*
G36*
G01*
X147975000Y-122402500D02*
X147975000Y-122057500D01*
G75*
G02*
X148122500Y-121910000I147500J0D01*
G01*
X148417500Y-121910000D01*
G75*
G02*
X148565000Y-122057500I0J-147500D01*
G01*
X148565000Y-122402500D01*
G75*
G02*
X148417500Y-122550000I-147500J0D01*
G01*
X148122500Y-122550000D01*
G75*
G02*
X147975000Y-122402500I0J147500D01*
G01*
G37*
G04 #@! TD*
G04 #@! TO.C,R22*
G36*
G01*
X144945000Y-122392500D02*
X144945000Y-122047500D01*
G75*
G02*
X145092500Y-121900000I147500J0D01*
G01*
X145387500Y-121900000D01*
G75*
G02*
X145535000Y-122047500I0J-147500D01*
G01*
X145535000Y-122392500D01*
G75*
G02*
X145387500Y-122540000I-147500J0D01*
G01*
X145092500Y-122540000D01*
G75*
G02*
X144945000Y-122392500I0J147500D01*
G01*
G37*
G36*
G01*
X143975000Y-122392500D02*
X143975000Y-122047500D01*
G75*
G02*
X144122500Y-121900000I147500J0D01*
G01*
X144417500Y-121900000D01*
G75*
G02*
X144565000Y-122047500I0J-147500D01*
G01*
X144565000Y-122392500D01*
G75*
G02*
X144417500Y-122540000I-147500J0D01*
G01*
X144122500Y-122540000D01*
G75*
G02*
X143975000Y-122392500I0J147500D01*
G01*
G37*
G04 #@! TD*
D22*
G04 #@! TO.C,U1*
X124990000Y-82310000D03*
X124990000Y-82810000D03*
X124990000Y-83310000D03*
X124990000Y-83810000D03*
X126890000Y-83810000D03*
X126890000Y-83310000D03*
X126890000Y-82810000D03*
X126890000Y-82310000D03*
G04 #@! TD*
D23*
G04 #@! TO.C,U2*
X140804400Y-116210000D03*
X140804400Y-115710001D03*
X140804400Y-115209999D03*
X140804400Y-114710000D03*
X140804400Y-114210001D03*
X140804400Y-113710000D03*
X140804400Y-113210000D03*
X140804400Y-112709999D03*
X140804400Y-112210000D03*
X140804400Y-111710001D03*
X140804400Y-111209999D03*
X140804400Y-110710000D03*
D24*
X140100000Y-110005600D03*
X139600001Y-110005600D03*
X139099999Y-110005600D03*
X138600000Y-110005600D03*
X138100001Y-110005600D03*
X137600000Y-110005600D03*
X137100000Y-110005600D03*
X136599999Y-110005600D03*
X136100000Y-110005600D03*
X135600001Y-110005600D03*
X135099999Y-110005600D03*
X134600000Y-110005600D03*
D23*
X133895600Y-110710000D03*
X133895600Y-111209999D03*
X133895600Y-111710001D03*
X133895600Y-112210000D03*
X133895600Y-112709999D03*
X133895600Y-113210000D03*
X133895600Y-113710000D03*
X133895600Y-114210001D03*
X133895600Y-114710000D03*
X133895600Y-115209999D03*
X133895600Y-115710001D03*
X133895600Y-116210000D03*
D24*
X134600000Y-116914400D03*
X135099999Y-116914400D03*
X135600001Y-116914400D03*
X136100000Y-116914400D03*
X136599999Y-116914400D03*
X137100000Y-116914400D03*
X137600000Y-116914400D03*
X138100001Y-116914400D03*
X138600000Y-116914400D03*
X139099999Y-116914400D03*
X139600001Y-116914400D03*
X140100000Y-116914400D03*
D25*
X137350000Y-113460000D03*
G04 #@! TD*
D26*
G04 #@! TO.C,U5*
X167525500Y-121500000D03*
D27*
X163944100Y-120450000D03*
X163944100Y-122550000D03*
G04 #@! TD*
D28*
G04 #@! TO.C,U13*
X145009800Y-104800000D03*
X145009800Y-104150000D03*
X145009800Y-103500000D03*
X145009800Y-102850000D03*
X140590200Y-102850000D03*
X140590200Y-103500000D03*
X140590200Y-104150000D03*
X140590200Y-104800000D03*
G04 #@! TD*
D29*
G04 #@! TO.C,U14*
X125170000Y-117860000D03*
X125170000Y-116910000D03*
X125170000Y-115960000D03*
X127870000Y-117860000D03*
X127870000Y-116910000D03*
X127870000Y-115960000D03*
G04 #@! TD*
G04 #@! TO.C,R1*
G36*
G01*
X146325000Y-90074999D02*
X146325000Y-92925001D01*
G75*
G02*
X146075001Y-93175000I-249999J0D01*
G01*
X145224999Y-93175000D01*
G75*
G02*
X144975000Y-92925001I0J249999D01*
G01*
X144975000Y-90074999D01*
G75*
G02*
X145224999Y-89825000I249999J0D01*
G01*
X146075001Y-89825000D01*
G75*
G02*
X146325000Y-90074999I0J-249999D01*
G01*
G37*
G36*
G01*
X140525000Y-90074999D02*
X140525000Y-92925001D01*
G75*
G02*
X140275001Y-93175000I-249999J0D01*
G01*
X139424999Y-93175000D01*
G75*
G02*
X139175000Y-92925001I0J249999D01*
G01*
X139175000Y-90074999D01*
G75*
G02*
X139424999Y-89825000I249999J0D01*
G01*
X140275001Y-89825000D01*
G75*
G02*
X140525000Y-90074999I0J-249999D01*
G01*
G37*
G04 #@! TD*
G04 #@! TO.C,R17*
G36*
G01*
X140507500Y-108000000D02*
X140162500Y-108000000D01*
G75*
G02*
X140015000Y-107852500I0J147500D01*
G01*
X140015000Y-107557500D01*
G75*
G02*
X140162500Y-107410000I147500J0D01*
G01*
X140507500Y-107410000D01*
G75*
G02*
X140655000Y-107557500I0J-147500D01*
G01*
X140655000Y-107852500D01*
G75*
G02*
X140507500Y-108000000I-147500J0D01*
G01*
G37*
G36*
G01*
X140507500Y-108970000D02*
X140162500Y-108970000D01*
G75*
G02*
X140015000Y-108822500I0J147500D01*
G01*
X140015000Y-108527500D01*
G75*
G02*
X140162500Y-108380000I147500J0D01*
G01*
X140507500Y-108380000D01*
G75*
G02*
X140655000Y-108527500I0J-147500D01*
G01*
X140655000Y-108822500D01*
G75*
G02*
X140507500Y-108970000I-147500J0D01*
G01*
G37*
G04 #@! TD*
G04 #@! TO.C,R18*
G36*
G01*
X138367500Y-107930000D02*
X138022500Y-107930000D01*
G75*
G02*
X137875000Y-107782500I0J147500D01*
G01*
X137875000Y-107487500D01*
G75*
G02*
X138022500Y-107340000I147500J0D01*
G01*
X138367500Y-107340000D01*
G75*
G02*
X138515000Y-107487500I0J-147500D01*
G01*
X138515000Y-107782500D01*
G75*
G02*
X138367500Y-107930000I-147500J0D01*
G01*
G37*
G36*
G01*
X138367500Y-106960000D02*
X138022500Y-106960000D01*
G75*
G02*
X137875000Y-106812500I0J147500D01*
G01*
X137875000Y-106517500D01*
G75*
G02*
X138022500Y-106370000I147500J0D01*
G01*
X138367500Y-106370000D01*
G75*
G02*
X138515000Y-106517500I0J-147500D01*
G01*
X138515000Y-106812500D01*
G75*
G02*
X138367500Y-106960000I-147500J0D01*
G01*
G37*
G04 #@! TD*
M02*
