G04 #@! TF.GenerationSoftware,KiCad,Pcbnew,5.1.6-c6e7f7d~87~ubuntu19.10.1*
G04 #@! TF.CreationDate,2021-03-17T15:36:07-04:00*
G04 #@! TF.ProjectId,icarus,69636172-7573-42e6-9b69-6361645f7063,V1.0*
G04 #@! TF.SameCoordinates,Original*
G04 #@! TF.FileFunction,Paste,Top*
G04 #@! TF.FilePolarity,Positive*
%FSLAX46Y46*%
G04 Gerber Fmt 4.6, Leading zero omitted, Abs format (unit mm)*
G04 Created by KiCad (PCBNEW 5.1.6-c6e7f7d~87~ubuntu19.10.1) date 2021-03-17 15:36:07*
%MOMM*%
%LPD*%
G01*
G04 APERTURE LIST*
%ADD10R,1.193800X0.304800*%
%ADD11R,0.304800X1.193800*%
%ADD12R,1.549400X0.609600*%
%ADD13R,3.810000X2.006600*%
%ADD14R,8.991600X11.506200*%
%ADD15R,0.762000X0.254000*%
%ADD16R,0.400000X1.350000*%
%ADD17R,2.900000X1.900000*%
%ADD18R,0.300000X0.850000*%
%ADD19R,1.651000X2.184400*%
%ADD20R,0.700000X0.500000*%
%ADD21R,0.800000X0.900000*%
%ADD22R,0.600000X1.300000*%
%ADD23R,0.850000X0.300000*%
%ADD24R,5.308600X4.140200*%
%ADD25R,1.346200X1.346200*%
%ADD26R,1.397000X0.431800*%
%ADD27R,1.000000X0.550000*%
G04 APERTURE END LIST*
D10*
G04 #@! TO.C,U2*
X142349999Y-116050000D03*
X142349999Y-115550001D03*
X142349999Y-115049999D03*
X142349999Y-114550000D03*
X142349999Y-114050001D03*
X142349999Y-113550000D03*
X142349999Y-113050000D03*
X142349999Y-112549999D03*
X142349999Y-112050000D03*
X142349999Y-111550001D03*
X142349999Y-111049999D03*
X142349999Y-110550000D03*
D11*
X140850000Y-109050001D03*
X140350001Y-109050001D03*
X139849999Y-109050001D03*
X139350000Y-109050001D03*
X138850001Y-109050001D03*
X138350000Y-109050001D03*
X137850000Y-109050001D03*
X137349999Y-109050001D03*
X136850000Y-109050001D03*
X136350001Y-109050001D03*
X135849999Y-109050001D03*
X135350000Y-109050001D03*
D10*
X133850001Y-110550000D03*
X133850001Y-111049999D03*
X133850001Y-111550001D03*
X133850001Y-112050000D03*
X133850001Y-112549999D03*
X133850001Y-113050000D03*
X133850001Y-113550000D03*
X133850001Y-114050001D03*
X133850001Y-114550000D03*
X133850001Y-115049999D03*
X133850001Y-115550001D03*
X133850001Y-116050000D03*
D11*
X135350000Y-117549999D03*
X135849999Y-117549999D03*
X136350001Y-117549999D03*
X136850000Y-117549999D03*
X137349999Y-117549999D03*
X137850000Y-117549999D03*
X138350000Y-117549999D03*
X138850001Y-117549999D03*
X139350000Y-117549999D03*
X139849999Y-117549999D03*
X140350001Y-117549999D03*
X140850000Y-117549999D03*
G04 #@! TD*
G04 #@! TO.C,R15*
G36*
G01*
X145185000Y-82652500D02*
X145185000Y-82997500D01*
G75*
G02*
X145037500Y-83145000I-147500J0D01*
G01*
X144742500Y-83145000D01*
G75*
G02*
X144595000Y-82997500I0J147500D01*
G01*
X144595000Y-82652500D01*
G75*
G02*
X144742500Y-82505000I147500J0D01*
G01*
X145037500Y-82505000D01*
G75*
G02*
X145185000Y-82652500I0J-147500D01*
G01*
G37*
G36*
G01*
X146155000Y-82652500D02*
X146155000Y-82997500D01*
G75*
G02*
X146007500Y-83145000I-147500J0D01*
G01*
X145712500Y-83145000D01*
G75*
G02*
X145565000Y-82997500I0J147500D01*
G01*
X145565000Y-82652500D01*
G75*
G02*
X145712500Y-82505000I147500J0D01*
G01*
X146007500Y-82505000D01*
G75*
G02*
X146155000Y-82652500I0J-147500D01*
G01*
G37*
G04 #@! TD*
G04 #@! TO.C,R7*
G36*
G01*
X137497500Y-80455000D02*
X137842500Y-80455000D01*
G75*
G02*
X137990000Y-80602500I0J-147500D01*
G01*
X137990000Y-80897500D01*
G75*
G02*
X137842500Y-81045000I-147500J0D01*
G01*
X137497500Y-81045000D01*
G75*
G02*
X137350000Y-80897500I0J147500D01*
G01*
X137350000Y-80602500D01*
G75*
G02*
X137497500Y-80455000I147500J0D01*
G01*
G37*
G36*
G01*
X137497500Y-81425000D02*
X137842500Y-81425000D01*
G75*
G02*
X137990000Y-81572500I0J-147500D01*
G01*
X137990000Y-81867500D01*
G75*
G02*
X137842500Y-82015000I-147500J0D01*
G01*
X137497500Y-82015000D01*
G75*
G02*
X137350000Y-81867500I0J147500D01*
G01*
X137350000Y-81572500D01*
G75*
G02*
X137497500Y-81425000I147500J0D01*
G01*
G37*
G04 #@! TD*
G04 #@! TO.C,R16*
G36*
G01*
X136842500Y-83635000D02*
X136497500Y-83635000D01*
G75*
G02*
X136350000Y-83487500I0J147500D01*
G01*
X136350000Y-83192500D01*
G75*
G02*
X136497500Y-83045000I147500J0D01*
G01*
X136842500Y-83045000D01*
G75*
G02*
X136990000Y-83192500I0J-147500D01*
G01*
X136990000Y-83487500D01*
G75*
G02*
X136842500Y-83635000I-147500J0D01*
G01*
G37*
G36*
G01*
X136842500Y-84605000D02*
X136497500Y-84605000D01*
G75*
G02*
X136350000Y-84457500I0J147500D01*
G01*
X136350000Y-84162500D01*
G75*
G02*
X136497500Y-84015000I147500J0D01*
G01*
X136842500Y-84015000D01*
G75*
G02*
X136990000Y-84162500I0J-147500D01*
G01*
X136990000Y-84457500D01*
G75*
G02*
X136842500Y-84605000I-147500J0D01*
G01*
G37*
G04 #@! TD*
G04 #@! TO.C,R9*
G36*
G01*
X136832500Y-82015000D02*
X136487500Y-82015000D01*
G75*
G02*
X136340000Y-81867500I0J147500D01*
G01*
X136340000Y-81572500D01*
G75*
G02*
X136487500Y-81425000I147500J0D01*
G01*
X136832500Y-81425000D01*
G75*
G02*
X136980000Y-81572500I0J-147500D01*
G01*
X136980000Y-81867500D01*
G75*
G02*
X136832500Y-82015000I-147500J0D01*
G01*
G37*
G36*
G01*
X136832500Y-81045000D02*
X136487500Y-81045000D01*
G75*
G02*
X136340000Y-80897500I0J147500D01*
G01*
X136340000Y-80602500D01*
G75*
G02*
X136487500Y-80455000I147500J0D01*
G01*
X136832500Y-80455000D01*
G75*
G02*
X136980000Y-80602500I0J-147500D01*
G01*
X136980000Y-80897500D01*
G75*
G02*
X136832500Y-81045000I-147500J0D01*
G01*
G37*
G04 #@! TD*
G04 #@! TO.C,C14*
G36*
G01*
X137180000Y-85682500D02*
X137180000Y-85337500D01*
G75*
G02*
X137327500Y-85190000I147500J0D01*
G01*
X137622500Y-85190000D01*
G75*
G02*
X137770000Y-85337500I0J-147500D01*
G01*
X137770000Y-85682500D01*
G75*
G02*
X137622500Y-85830000I-147500J0D01*
G01*
X137327500Y-85830000D01*
G75*
G02*
X137180000Y-85682500I0J147500D01*
G01*
G37*
G36*
G01*
X136210000Y-85682500D02*
X136210000Y-85337500D01*
G75*
G02*
X136357500Y-85190000I147500J0D01*
G01*
X136652500Y-85190000D01*
G75*
G02*
X136800000Y-85337500I0J-147500D01*
G01*
X136800000Y-85682500D01*
G75*
G02*
X136652500Y-85830000I-147500J0D01*
G01*
X136357500Y-85830000D01*
G75*
G02*
X136210000Y-85682500I0J147500D01*
G01*
G37*
G04 #@! TD*
G04 #@! TO.C,R14*
G36*
G01*
X137497500Y-83050000D02*
X137842500Y-83050000D01*
G75*
G02*
X137990000Y-83197500I0J-147500D01*
G01*
X137990000Y-83492500D01*
G75*
G02*
X137842500Y-83640000I-147500J0D01*
G01*
X137497500Y-83640000D01*
G75*
G02*
X137350000Y-83492500I0J147500D01*
G01*
X137350000Y-83197500D01*
G75*
G02*
X137497500Y-83050000I147500J0D01*
G01*
G37*
G36*
G01*
X137497500Y-84020000D02*
X137842500Y-84020000D01*
G75*
G02*
X137990000Y-84167500I0J-147500D01*
G01*
X137990000Y-84462500D01*
G75*
G02*
X137842500Y-84610000I-147500J0D01*
G01*
X137497500Y-84610000D01*
G75*
G02*
X137350000Y-84462500I0J147500D01*
G01*
X137350000Y-84167500D01*
G75*
G02*
X137497500Y-84020000I147500J0D01*
G01*
G37*
G04 #@! TD*
D12*
G04 #@! TO.C,U3*
X130970000Y-112945000D03*
X130970000Y-111675000D03*
X130970000Y-110405000D03*
X130970000Y-109135000D03*
X125570000Y-109135000D03*
X125570000Y-110405000D03*
X125570000Y-111675000D03*
X125570000Y-112945000D03*
G04 #@! TD*
D13*
G04 #@! TO.C,MOSFET5*
X162530399Y-101845000D03*
X162530399Y-96765000D03*
D14*
X151430398Y-99305000D03*
G04 #@! TD*
D13*
G04 #@! TO.C,MOSFET1*
X162505001Y-114765000D03*
X162505001Y-109685000D03*
D14*
X151405000Y-112225000D03*
G04 #@! TD*
D15*
G04 #@! TO.C,U15*
X156694400Y-118170000D03*
X156694400Y-118728800D03*
X157685000Y-118728800D03*
X157685000Y-118170000D03*
G04 #@! TD*
G04 #@! TO.C,C17*
G36*
G01*
X158772500Y-118940000D02*
X159117500Y-118940000D01*
G75*
G02*
X159265000Y-119087500I0J-147500D01*
G01*
X159265000Y-119382500D01*
G75*
G02*
X159117500Y-119530000I-147500J0D01*
G01*
X158772500Y-119530000D01*
G75*
G02*
X158625000Y-119382500I0J147500D01*
G01*
X158625000Y-119087500D01*
G75*
G02*
X158772500Y-118940000I147500J0D01*
G01*
G37*
G36*
G01*
X158772500Y-117970000D02*
X159117500Y-117970000D01*
G75*
G02*
X159265000Y-118117500I0J-147500D01*
G01*
X159265000Y-118412500D01*
G75*
G02*
X159117500Y-118560000I-147500J0D01*
G01*
X158772500Y-118560000D01*
G75*
G02*
X158625000Y-118412500I0J147500D01*
G01*
X158625000Y-118117500D01*
G75*
G02*
X158772500Y-117970000I147500J0D01*
G01*
G37*
G04 #@! TD*
D16*
G04 #@! TO.C,J4*
X122280000Y-120255000D03*
X122930000Y-120255000D03*
X123580000Y-120255000D03*
X124880000Y-120255000D03*
X124230000Y-120255000D03*
D17*
X123580000Y-122930000D03*
D18*
X127080000Y-122930000D03*
X120080000Y-122930000D03*
G04 #@! TD*
G04 #@! TO.C,U8*
G36*
G01*
X139305000Y-86845000D02*
X139305000Y-86635000D01*
G75*
G02*
X139340000Y-86600000I35000J0D01*
G01*
X140740000Y-86600000D01*
G75*
G02*
X140775000Y-86635000I0J-35000D01*
G01*
X140775000Y-86845000D01*
G75*
G02*
X140740000Y-86880000I-35000J0D01*
G01*
X139340000Y-86880000D01*
G75*
G02*
X139305000Y-86845000I0J35000D01*
G01*
G37*
G36*
G01*
X139305000Y-87345000D02*
X139305000Y-87135000D01*
G75*
G02*
X139340000Y-87100000I35000J0D01*
G01*
X140740000Y-87100000D01*
G75*
G02*
X140775000Y-87135000I0J-35000D01*
G01*
X140775000Y-87345000D01*
G75*
G02*
X140740000Y-87380000I-35000J0D01*
G01*
X139340000Y-87380000D01*
G75*
G02*
X139305000Y-87345000I0J35000D01*
G01*
G37*
G36*
G01*
X139305000Y-87845000D02*
X139305000Y-87635000D01*
G75*
G02*
X139340000Y-87600000I35000J0D01*
G01*
X140740000Y-87600000D01*
G75*
G02*
X140775000Y-87635000I0J-35000D01*
G01*
X140775000Y-87845000D01*
G75*
G02*
X140740000Y-87880000I-35000J0D01*
G01*
X139340000Y-87880000D01*
G75*
G02*
X139305000Y-87845000I0J35000D01*
G01*
G37*
G36*
G01*
X139305000Y-88345000D02*
X139305000Y-88135000D01*
G75*
G02*
X139340000Y-88100000I35000J0D01*
G01*
X140740000Y-88100000D01*
G75*
G02*
X140775000Y-88135000I0J-35000D01*
G01*
X140775000Y-88345000D01*
G75*
G02*
X140740000Y-88380000I-35000J0D01*
G01*
X139340000Y-88380000D01*
G75*
G02*
X139305000Y-88345000I0J35000D01*
G01*
G37*
G36*
G01*
X139305000Y-88845000D02*
X139305000Y-88635000D01*
G75*
G02*
X139340000Y-88600000I35000J0D01*
G01*
X140740000Y-88600000D01*
G75*
G02*
X140775000Y-88635000I0J-35000D01*
G01*
X140775000Y-88845000D01*
G75*
G02*
X140740000Y-88880000I-35000J0D01*
G01*
X139340000Y-88880000D01*
G75*
G02*
X139305000Y-88845000I0J35000D01*
G01*
G37*
G36*
G01*
X143605000Y-88845000D02*
X143605000Y-88635000D01*
G75*
G02*
X143640000Y-88600000I35000J0D01*
G01*
X145040000Y-88600000D01*
G75*
G02*
X145075000Y-88635000I0J-35000D01*
G01*
X145075000Y-88845000D01*
G75*
G02*
X145040000Y-88880000I-35000J0D01*
G01*
X143640000Y-88880000D01*
G75*
G02*
X143605000Y-88845000I0J35000D01*
G01*
G37*
G36*
G01*
X143605000Y-88345000D02*
X143605000Y-88135000D01*
G75*
G02*
X143640000Y-88100000I35000J0D01*
G01*
X145040000Y-88100000D01*
G75*
G02*
X145075000Y-88135000I0J-35000D01*
G01*
X145075000Y-88345000D01*
G75*
G02*
X145040000Y-88380000I-35000J0D01*
G01*
X143640000Y-88380000D01*
G75*
G02*
X143605000Y-88345000I0J35000D01*
G01*
G37*
G36*
G01*
X143605000Y-87845000D02*
X143605000Y-87635000D01*
G75*
G02*
X143640000Y-87600000I35000J0D01*
G01*
X145040000Y-87600000D01*
G75*
G02*
X145075000Y-87635000I0J-35000D01*
G01*
X145075000Y-87845000D01*
G75*
G02*
X145040000Y-87880000I-35000J0D01*
G01*
X143640000Y-87880000D01*
G75*
G02*
X143605000Y-87845000I0J35000D01*
G01*
G37*
G36*
G01*
X143605000Y-87345000D02*
X143605000Y-87135000D01*
G75*
G02*
X143640000Y-87100000I35000J0D01*
G01*
X145040000Y-87100000D01*
G75*
G02*
X145075000Y-87135000I0J-35000D01*
G01*
X145075000Y-87345000D01*
G75*
G02*
X145040000Y-87380000I-35000J0D01*
G01*
X143640000Y-87380000D01*
G75*
G02*
X143605000Y-87345000I0J35000D01*
G01*
G37*
G36*
G01*
X143605000Y-86845000D02*
X143605000Y-86635000D01*
G75*
G02*
X143640000Y-86600000I35000J0D01*
G01*
X145040000Y-86600000D01*
G75*
G02*
X145075000Y-86635000I0J-35000D01*
G01*
X145075000Y-86845000D01*
G75*
G02*
X145040000Y-86880000I-35000J0D01*
G01*
X143640000Y-86880000D01*
G75*
G02*
X143605000Y-86845000I0J35000D01*
G01*
G37*
G04 #@! TD*
G04 #@! TO.C,C1*
G36*
G01*
X127490000Y-114532500D02*
X127490000Y-114187500D01*
G75*
G02*
X127637500Y-114040000I147500J0D01*
G01*
X127932500Y-114040000D01*
G75*
G02*
X128080000Y-114187500I0J-147500D01*
G01*
X128080000Y-114532500D01*
G75*
G02*
X127932500Y-114680000I-147500J0D01*
G01*
X127637500Y-114680000D01*
G75*
G02*
X127490000Y-114532500I0J147500D01*
G01*
G37*
G36*
G01*
X128460000Y-114532500D02*
X128460000Y-114187500D01*
G75*
G02*
X128607500Y-114040000I147500J0D01*
G01*
X128902500Y-114040000D01*
G75*
G02*
X129050000Y-114187500I0J-147500D01*
G01*
X129050000Y-114532500D01*
G75*
G02*
X128902500Y-114680000I-147500J0D01*
G01*
X128607500Y-114680000D01*
G75*
G02*
X128460000Y-114532500I0J147500D01*
G01*
G37*
G04 #@! TD*
G04 #@! TO.C,C2*
G36*
G01*
X133110000Y-81756250D02*
X133110000Y-80843750D01*
G75*
G02*
X133353750Y-80600000I243750J0D01*
G01*
X133841250Y-80600000D01*
G75*
G02*
X134085000Y-80843750I0J-243750D01*
G01*
X134085000Y-81756250D01*
G75*
G02*
X133841250Y-82000000I-243750J0D01*
G01*
X133353750Y-82000000D01*
G75*
G02*
X133110000Y-81756250I0J243750D01*
G01*
G37*
G36*
G01*
X131235000Y-81756250D02*
X131235000Y-80843750D01*
G75*
G02*
X131478750Y-80600000I243750J0D01*
G01*
X131966250Y-80600000D01*
G75*
G02*
X132210000Y-80843750I0J-243750D01*
G01*
X132210000Y-81756250D01*
G75*
G02*
X131966250Y-82000000I-243750J0D01*
G01*
X131478750Y-82000000D01*
G75*
G02*
X131235000Y-81756250I0J243750D01*
G01*
G37*
G04 #@! TD*
G04 #@! TO.C,C3*
G36*
G01*
X124435000Y-85122500D02*
X124435000Y-84777500D01*
G75*
G02*
X124582500Y-84630000I147500J0D01*
G01*
X124877500Y-84630000D01*
G75*
G02*
X125025000Y-84777500I0J-147500D01*
G01*
X125025000Y-85122500D01*
G75*
G02*
X124877500Y-85270000I-147500J0D01*
G01*
X124582500Y-85270000D01*
G75*
G02*
X124435000Y-85122500I0J147500D01*
G01*
G37*
G36*
G01*
X125405000Y-85122500D02*
X125405000Y-84777500D01*
G75*
G02*
X125552500Y-84630000I147500J0D01*
G01*
X125847500Y-84630000D01*
G75*
G02*
X125995000Y-84777500I0J-147500D01*
G01*
X125995000Y-85122500D01*
G75*
G02*
X125847500Y-85270000I-147500J0D01*
G01*
X125552500Y-85270000D01*
G75*
G02*
X125405000Y-85122500I0J147500D01*
G01*
G37*
G04 #@! TD*
G04 #@! TO.C,C4*
G36*
G01*
X123716250Y-84645000D02*
X122803750Y-84645000D01*
G75*
G02*
X122560000Y-84401250I0J243750D01*
G01*
X122560000Y-83913750D01*
G75*
G02*
X122803750Y-83670000I243750J0D01*
G01*
X123716250Y-83670000D01*
G75*
G02*
X123960000Y-83913750I0J-243750D01*
G01*
X123960000Y-84401250D01*
G75*
G02*
X123716250Y-84645000I-243750J0D01*
G01*
G37*
G36*
G01*
X123716250Y-82770000D02*
X122803750Y-82770000D01*
G75*
G02*
X122560000Y-82526250I0J243750D01*
G01*
X122560000Y-82038750D01*
G75*
G02*
X122803750Y-81795000I243750J0D01*
G01*
X123716250Y-81795000D01*
G75*
G02*
X123960000Y-82038750I0J-243750D01*
G01*
X123960000Y-82526250D01*
G75*
G02*
X123716250Y-82770000I-243750J0D01*
G01*
G37*
G04 #@! TD*
G04 #@! TO.C,C6*
G36*
G01*
X144210000Y-85277500D02*
X144210000Y-85622500D01*
G75*
G02*
X144062500Y-85770000I-147500J0D01*
G01*
X143767500Y-85770000D01*
G75*
G02*
X143620000Y-85622500I0J147500D01*
G01*
X143620000Y-85277500D01*
G75*
G02*
X143767500Y-85130000I147500J0D01*
G01*
X144062500Y-85130000D01*
G75*
G02*
X144210000Y-85277500I0J-147500D01*
G01*
G37*
G36*
G01*
X145180000Y-85277500D02*
X145180000Y-85622500D01*
G75*
G02*
X145032500Y-85770000I-147500J0D01*
G01*
X144737500Y-85770000D01*
G75*
G02*
X144590000Y-85622500I0J147500D01*
G01*
X144590000Y-85277500D01*
G75*
G02*
X144737500Y-85130000I147500J0D01*
G01*
X145032500Y-85130000D01*
G75*
G02*
X145180000Y-85277500I0J-147500D01*
G01*
G37*
G04 #@! TD*
G04 #@! TO.C,C7*
G36*
G01*
X161443750Y-118112500D02*
X162356250Y-118112500D01*
G75*
G02*
X162600000Y-118356250I0J-243750D01*
G01*
X162600000Y-118843750D01*
G75*
G02*
X162356250Y-119087500I-243750J0D01*
G01*
X161443750Y-119087500D01*
G75*
G02*
X161200000Y-118843750I0J243750D01*
G01*
X161200000Y-118356250D01*
G75*
G02*
X161443750Y-118112500I243750J0D01*
G01*
G37*
G36*
G01*
X161443750Y-119987500D02*
X162356250Y-119987500D01*
G75*
G02*
X162600000Y-120231250I0J-243750D01*
G01*
X162600000Y-120718750D01*
G75*
G02*
X162356250Y-120962500I-243750J0D01*
G01*
X161443750Y-120962500D01*
G75*
G02*
X161200000Y-120718750I0J243750D01*
G01*
X161200000Y-120231250D01*
G75*
G02*
X161443750Y-119987500I243750J0D01*
G01*
G37*
G04 #@! TD*
G04 #@! TO.C,C8*
G36*
G01*
X136805000Y-107522500D02*
X136805000Y-107177500D01*
G75*
G02*
X136952500Y-107030000I147500J0D01*
G01*
X137247500Y-107030000D01*
G75*
G02*
X137395000Y-107177500I0J-147500D01*
G01*
X137395000Y-107522500D01*
G75*
G02*
X137247500Y-107670000I-147500J0D01*
G01*
X136952500Y-107670000D01*
G75*
G02*
X136805000Y-107522500I0J147500D01*
G01*
G37*
G36*
G01*
X135835000Y-107522500D02*
X135835000Y-107177500D01*
G75*
G02*
X135982500Y-107030000I147500J0D01*
G01*
X136277500Y-107030000D01*
G75*
G02*
X136425000Y-107177500I0J-147500D01*
G01*
X136425000Y-107522500D01*
G75*
G02*
X136277500Y-107670000I-147500J0D01*
G01*
X135982500Y-107670000D01*
G75*
G02*
X135835000Y-107522500I0J147500D01*
G01*
G37*
G04 #@! TD*
G04 #@! TO.C,C9*
G36*
G01*
X143185000Y-117312500D02*
X143185000Y-116967500D01*
G75*
G02*
X143332500Y-116820000I147500J0D01*
G01*
X143627500Y-116820000D01*
G75*
G02*
X143775000Y-116967500I0J-147500D01*
G01*
X143775000Y-117312500D01*
G75*
G02*
X143627500Y-117460000I-147500J0D01*
G01*
X143332500Y-117460000D01*
G75*
G02*
X143185000Y-117312500I0J147500D01*
G01*
G37*
G36*
G01*
X142215000Y-117312500D02*
X142215000Y-116967500D01*
G75*
G02*
X142362500Y-116820000I147500J0D01*
G01*
X142657500Y-116820000D01*
G75*
G02*
X142805000Y-116967500I0J-147500D01*
G01*
X142805000Y-117312500D01*
G75*
G02*
X142657500Y-117460000I-147500J0D01*
G01*
X142362500Y-117460000D01*
G75*
G02*
X142215000Y-117312500I0J147500D01*
G01*
G37*
G04 #@! TD*
G04 #@! TO.C,C10*
G36*
G01*
X134372500Y-109095000D02*
X134027500Y-109095000D01*
G75*
G02*
X133880000Y-108947500I0J147500D01*
G01*
X133880000Y-108652500D01*
G75*
G02*
X134027500Y-108505000I147500J0D01*
G01*
X134372500Y-108505000D01*
G75*
G02*
X134520000Y-108652500I0J-147500D01*
G01*
X134520000Y-108947500D01*
G75*
G02*
X134372500Y-109095000I-147500J0D01*
G01*
G37*
G36*
G01*
X134372500Y-108125000D02*
X134027500Y-108125000D01*
G75*
G02*
X133880000Y-107977500I0J147500D01*
G01*
X133880000Y-107682500D01*
G75*
G02*
X134027500Y-107535000I147500J0D01*
G01*
X134372500Y-107535000D01*
G75*
G02*
X134520000Y-107682500I0J-147500D01*
G01*
X134520000Y-107977500D01*
G75*
G02*
X134372500Y-108125000I-147500J0D01*
G01*
G37*
G04 #@! TD*
G04 #@! TO.C,C11*
G36*
G01*
X133352500Y-108125000D02*
X133007500Y-108125000D01*
G75*
G02*
X132860000Y-107977500I0J147500D01*
G01*
X132860000Y-107682500D01*
G75*
G02*
X133007500Y-107535000I147500J0D01*
G01*
X133352500Y-107535000D01*
G75*
G02*
X133500000Y-107682500I0J-147500D01*
G01*
X133500000Y-107977500D01*
G75*
G02*
X133352500Y-108125000I-147500J0D01*
G01*
G37*
G36*
G01*
X133352500Y-109095000D02*
X133007500Y-109095000D01*
G75*
G02*
X132860000Y-108947500I0J147500D01*
G01*
X132860000Y-108652500D01*
G75*
G02*
X133007500Y-108505000I147500J0D01*
G01*
X133352500Y-108505000D01*
G75*
G02*
X133500000Y-108652500I0J-147500D01*
G01*
X133500000Y-108947500D01*
G75*
G02*
X133352500Y-109095000I-147500J0D01*
G01*
G37*
G04 #@! TD*
G04 #@! TO.C,C12*
G36*
G01*
X132332500Y-116950000D02*
X131987500Y-116950000D01*
G75*
G02*
X131840000Y-116802500I0J147500D01*
G01*
X131840000Y-116507500D01*
G75*
G02*
X131987500Y-116360000I147500J0D01*
G01*
X132332500Y-116360000D01*
G75*
G02*
X132480000Y-116507500I0J-147500D01*
G01*
X132480000Y-116802500D01*
G75*
G02*
X132332500Y-116950000I-147500J0D01*
G01*
G37*
G36*
G01*
X132332500Y-115980000D02*
X131987500Y-115980000D01*
G75*
G02*
X131840000Y-115832500I0J147500D01*
G01*
X131840000Y-115537500D01*
G75*
G02*
X131987500Y-115390000I147500J0D01*
G01*
X132332500Y-115390000D01*
G75*
G02*
X132480000Y-115537500I0J-147500D01*
G01*
X132480000Y-115832500D01*
G75*
G02*
X132332500Y-115980000I-147500J0D01*
G01*
G37*
G04 #@! TD*
G04 #@! TO.C,C13*
G36*
G01*
X141615000Y-118312500D02*
X141615000Y-117967500D01*
G75*
G02*
X141762500Y-117820000I147500J0D01*
G01*
X142057500Y-117820000D01*
G75*
G02*
X142205000Y-117967500I0J-147500D01*
G01*
X142205000Y-118312500D01*
G75*
G02*
X142057500Y-118460000I-147500J0D01*
G01*
X141762500Y-118460000D01*
G75*
G02*
X141615000Y-118312500I0J147500D01*
G01*
G37*
G36*
G01*
X142585000Y-118312500D02*
X142585000Y-117967500D01*
G75*
G02*
X142732500Y-117820000I147500J0D01*
G01*
X143027500Y-117820000D01*
G75*
G02*
X143175000Y-117967500I0J-147500D01*
G01*
X143175000Y-118312500D01*
G75*
G02*
X143027500Y-118460000I-147500J0D01*
G01*
X142732500Y-118460000D01*
G75*
G02*
X142585000Y-118312500I0J147500D01*
G01*
G37*
G04 #@! TD*
G04 #@! TO.C,C15*
G36*
G01*
X142000000Y-106162500D02*
X142000000Y-105817500D01*
G75*
G02*
X142147500Y-105670000I147500J0D01*
G01*
X142442500Y-105670000D01*
G75*
G02*
X142590000Y-105817500I0J-147500D01*
G01*
X142590000Y-106162500D01*
G75*
G02*
X142442500Y-106310000I-147500J0D01*
G01*
X142147500Y-106310000D01*
G75*
G02*
X142000000Y-106162500I0J147500D01*
G01*
G37*
G36*
G01*
X142970000Y-106162500D02*
X142970000Y-105817500D01*
G75*
G02*
X143117500Y-105670000I147500J0D01*
G01*
X143412500Y-105670000D01*
G75*
G02*
X143560000Y-105817500I0J-147500D01*
G01*
X143560000Y-106162500D01*
G75*
G02*
X143412500Y-106310000I-147500J0D01*
G01*
X143117500Y-106310000D01*
G75*
G02*
X142970000Y-106162500I0J147500D01*
G01*
G37*
G04 #@! TD*
G04 #@! TO.C,C16*
G36*
G01*
X139847500Y-107615000D02*
X139502500Y-107615000D01*
G75*
G02*
X139355000Y-107467500I0J147500D01*
G01*
X139355000Y-107172500D01*
G75*
G02*
X139502500Y-107025000I147500J0D01*
G01*
X139847500Y-107025000D01*
G75*
G02*
X139995000Y-107172500I0J-147500D01*
G01*
X139995000Y-107467500D01*
G75*
G02*
X139847500Y-107615000I-147500J0D01*
G01*
G37*
G36*
G01*
X139847500Y-106645000D02*
X139502500Y-106645000D01*
G75*
G02*
X139355000Y-106497500I0J147500D01*
G01*
X139355000Y-106202500D01*
G75*
G02*
X139502500Y-106055000I147500J0D01*
G01*
X139847500Y-106055000D01*
G75*
G02*
X139995000Y-106202500I0J-147500D01*
G01*
X139995000Y-106497500D01*
G75*
G02*
X139847500Y-106645000I-147500J0D01*
G01*
G37*
G04 #@! TD*
G04 #@! TO.C,C18*
G36*
G01*
X147975000Y-123422500D02*
X147975000Y-123077500D01*
G75*
G02*
X148122500Y-122930000I147500J0D01*
G01*
X148417500Y-122930000D01*
G75*
G02*
X148565000Y-123077500I0J-147500D01*
G01*
X148565000Y-123422500D01*
G75*
G02*
X148417500Y-123570000I-147500J0D01*
G01*
X148122500Y-123570000D01*
G75*
G02*
X147975000Y-123422500I0J147500D01*
G01*
G37*
G36*
G01*
X147005000Y-123422500D02*
X147005000Y-123077500D01*
G75*
G02*
X147152500Y-122930000I147500J0D01*
G01*
X147447500Y-122930000D01*
G75*
G02*
X147595000Y-123077500I0J-147500D01*
G01*
X147595000Y-123422500D01*
G75*
G02*
X147447500Y-123570000I-147500J0D01*
G01*
X147152500Y-123570000D01*
G75*
G02*
X147005000Y-123422500I0J147500D01*
G01*
G37*
G04 #@! TD*
G04 #@! TO.C,C19*
G36*
G01*
X144940000Y-123412500D02*
X144940000Y-123067500D01*
G75*
G02*
X145087500Y-122920000I147500J0D01*
G01*
X145382500Y-122920000D01*
G75*
G02*
X145530000Y-123067500I0J-147500D01*
G01*
X145530000Y-123412500D01*
G75*
G02*
X145382500Y-123560000I-147500J0D01*
G01*
X145087500Y-123560000D01*
G75*
G02*
X144940000Y-123412500I0J147500D01*
G01*
G37*
G36*
G01*
X143970000Y-123412500D02*
X143970000Y-123067500D01*
G75*
G02*
X144117500Y-122920000I147500J0D01*
G01*
X144412500Y-122920000D01*
G75*
G02*
X144560000Y-123067500I0J-147500D01*
G01*
X144560000Y-123412500D01*
G75*
G02*
X144412500Y-123560000I-147500J0D01*
G01*
X144117500Y-123560000D01*
G75*
G02*
X143970000Y-123412500I0J147500D01*
G01*
G37*
G04 #@! TD*
D19*
G04 #@! TO.C,CR1*
X144190000Y-96068200D03*
X144190000Y-99471800D03*
G04 #@! TD*
G04 #@! TO.C,CR2*
X140700000Y-99451800D03*
X140700000Y-96048200D03*
G04 #@! TD*
D20*
G04 #@! TO.C,D1*
X124840000Y-81010000D03*
X126140000Y-81010000D03*
G04 #@! TD*
G04 #@! TO.C,D2*
G36*
G01*
X121213750Y-83762500D02*
X121726250Y-83762500D01*
G75*
G02*
X121945000Y-83981250I0J-218750D01*
G01*
X121945000Y-84418750D01*
G75*
G02*
X121726250Y-84637500I-218750J0D01*
G01*
X121213750Y-84637500D01*
G75*
G02*
X120995000Y-84418750I0J218750D01*
G01*
X120995000Y-83981250D01*
G75*
G02*
X121213750Y-83762500I218750J0D01*
G01*
G37*
G36*
G01*
X121213750Y-82187500D02*
X121726250Y-82187500D01*
G75*
G02*
X121945000Y-82406250I0J-218750D01*
G01*
X121945000Y-82843750D01*
G75*
G02*
X121726250Y-83062500I-218750J0D01*
G01*
X121213750Y-83062500D01*
G75*
G02*
X120995000Y-82843750I0J218750D01*
G01*
X120995000Y-82406250D01*
G75*
G02*
X121213750Y-82187500I218750J0D01*
G01*
G37*
G04 #@! TD*
G04 #@! TO.C,D3*
G36*
G01*
X118923750Y-83762500D02*
X119436250Y-83762500D01*
G75*
G02*
X119655000Y-83981250I0J-218750D01*
G01*
X119655000Y-84418750D01*
G75*
G02*
X119436250Y-84637500I-218750J0D01*
G01*
X118923750Y-84637500D01*
G75*
G02*
X118705000Y-84418750I0J218750D01*
G01*
X118705000Y-83981250D01*
G75*
G02*
X118923750Y-83762500I218750J0D01*
G01*
G37*
G36*
G01*
X118923750Y-82187500D02*
X119436250Y-82187500D01*
G75*
G02*
X119655000Y-82406250I0J-218750D01*
G01*
X119655000Y-82843750D01*
G75*
G02*
X119436250Y-83062500I-218750J0D01*
G01*
X118923750Y-83062500D01*
G75*
G02*
X118705000Y-82843750I0J218750D01*
G01*
X118705000Y-82406250D01*
G75*
G02*
X118923750Y-82187500I218750J0D01*
G01*
G37*
G04 #@! TD*
G04 #@! TO.C,D4*
G36*
G01*
X157537500Y-122646250D02*
X157537500Y-122133750D01*
G75*
G02*
X157756250Y-121915000I218750J0D01*
G01*
X158193750Y-121915000D01*
G75*
G02*
X158412500Y-122133750I0J-218750D01*
G01*
X158412500Y-122646250D01*
G75*
G02*
X158193750Y-122865000I-218750J0D01*
G01*
X157756250Y-122865000D01*
G75*
G02*
X157537500Y-122646250I0J218750D01*
G01*
G37*
G36*
G01*
X159112500Y-122646250D02*
X159112500Y-122133750D01*
G75*
G02*
X159331250Y-121915000I218750J0D01*
G01*
X159768750Y-121915000D01*
G75*
G02*
X159987500Y-122133750I0J-218750D01*
G01*
X159987500Y-122646250D01*
G75*
G02*
X159768750Y-122865000I-218750J0D01*
G01*
X159331250Y-122865000D01*
G75*
G02*
X159112500Y-122646250I0J218750D01*
G01*
G37*
G04 #@! TD*
G04 #@! TO.C,D5*
G36*
G01*
X157532500Y-120686250D02*
X157532500Y-120173750D01*
G75*
G02*
X157751250Y-119955000I218750J0D01*
G01*
X158188750Y-119955000D01*
G75*
G02*
X158407500Y-120173750I0J-218750D01*
G01*
X158407500Y-120686250D01*
G75*
G02*
X158188750Y-120905000I-218750J0D01*
G01*
X157751250Y-120905000D01*
G75*
G02*
X157532500Y-120686250I0J218750D01*
G01*
G37*
G36*
G01*
X159107500Y-120686250D02*
X159107500Y-120173750D01*
G75*
G02*
X159326250Y-119955000I218750J0D01*
G01*
X159763750Y-119955000D01*
G75*
G02*
X159982500Y-120173750I0J-218750D01*
G01*
X159982500Y-120686250D01*
G75*
G02*
X159763750Y-120905000I-218750J0D01*
G01*
X159326250Y-120905000D01*
G75*
G02*
X159107500Y-120686250I0J218750D01*
G01*
G37*
G04 #@! TD*
G04 #@! TO.C,D6*
G36*
G01*
X152832500Y-122676250D02*
X152832500Y-122163750D01*
G75*
G02*
X153051250Y-121945000I218750J0D01*
G01*
X153488750Y-121945000D01*
G75*
G02*
X153707500Y-122163750I0J-218750D01*
G01*
X153707500Y-122676250D01*
G75*
G02*
X153488750Y-122895000I-218750J0D01*
G01*
X153051250Y-122895000D01*
G75*
G02*
X152832500Y-122676250I0J218750D01*
G01*
G37*
G36*
G01*
X154407500Y-122676250D02*
X154407500Y-122163750D01*
G75*
G02*
X154626250Y-121945000I218750J0D01*
G01*
X155063750Y-121945000D01*
G75*
G02*
X155282500Y-122163750I0J-218750D01*
G01*
X155282500Y-122676250D01*
G75*
G02*
X155063750Y-122895000I-218750J0D01*
G01*
X154626250Y-122895000D01*
G75*
G02*
X154407500Y-122676250I0J218750D01*
G01*
G37*
G04 #@! TD*
G04 #@! TO.C,D7*
G36*
G01*
X154402500Y-120716250D02*
X154402500Y-120203750D01*
G75*
G02*
X154621250Y-119985000I218750J0D01*
G01*
X155058750Y-119985000D01*
G75*
G02*
X155277500Y-120203750I0J-218750D01*
G01*
X155277500Y-120716250D01*
G75*
G02*
X155058750Y-120935000I-218750J0D01*
G01*
X154621250Y-120935000D01*
G75*
G02*
X154402500Y-120716250I0J218750D01*
G01*
G37*
G36*
G01*
X152827500Y-120716250D02*
X152827500Y-120203750D01*
G75*
G02*
X153046250Y-119985000I218750J0D01*
G01*
X153483750Y-119985000D01*
G75*
G02*
X153702500Y-120203750I0J-218750D01*
G01*
X153702500Y-120716250D01*
G75*
G02*
X153483750Y-120935000I-218750J0D01*
G01*
X153046250Y-120935000D01*
G75*
G02*
X152827500Y-120716250I0J218750D01*
G01*
G37*
G04 #@! TD*
G04 #@! TO.C,L1*
G36*
G01*
X128185000Y-81375000D02*
X130335000Y-81375000D01*
G75*
G02*
X130585000Y-81625000I0J-250000D01*
G01*
X130585000Y-82375000D01*
G75*
G02*
X130335000Y-82625000I-250000J0D01*
G01*
X128185000Y-82625000D01*
G75*
G02*
X127935000Y-82375000I0J250000D01*
G01*
X127935000Y-81625000D01*
G75*
G02*
X128185000Y-81375000I250000J0D01*
G01*
G37*
G36*
G01*
X128185000Y-84175000D02*
X130335000Y-84175000D01*
G75*
G02*
X130585000Y-84425000I0J-250000D01*
G01*
X130585000Y-85175000D01*
G75*
G02*
X130335000Y-85425000I-250000J0D01*
G01*
X128185000Y-85425000D01*
G75*
G02*
X127935000Y-85175000I0J250000D01*
G01*
X127935000Y-84425000D01*
G75*
G02*
X128185000Y-84175000I250000J0D01*
G01*
G37*
G04 #@! TD*
D21*
G04 #@! TO.C,MOSFET2*
X142200000Y-82200000D03*
X140300000Y-82200000D03*
X141250000Y-84200000D03*
G04 #@! TD*
D14*
G04 #@! TO.C,MOSFET3*
X151460398Y-87200000D03*
D13*
X162560399Y-84660000D03*
X162560399Y-89740000D03*
G04 #@! TD*
D22*
G04 #@! TO.C,MOSFET4*
X132910000Y-83100000D03*
X133860000Y-85200000D03*
X131960000Y-85200000D03*
G04 #@! TD*
G04 #@! TO.C,R2*
G36*
G01*
X143407500Y-83930000D02*
X143752500Y-83930000D01*
G75*
G02*
X143900000Y-84077500I0J-147500D01*
G01*
X143900000Y-84372500D01*
G75*
G02*
X143752500Y-84520000I-147500J0D01*
G01*
X143407500Y-84520000D01*
G75*
G02*
X143260000Y-84372500I0J147500D01*
G01*
X143260000Y-84077500D01*
G75*
G02*
X143407500Y-83930000I147500J0D01*
G01*
G37*
G36*
G01*
X143407500Y-82960000D02*
X143752500Y-82960000D01*
G75*
G02*
X143900000Y-83107500I0J-147500D01*
G01*
X143900000Y-83402500D01*
G75*
G02*
X143752500Y-83550000I-147500J0D01*
G01*
X143407500Y-83550000D01*
G75*
G02*
X143260000Y-83402500I0J147500D01*
G01*
X143260000Y-83107500D01*
G75*
G02*
X143407500Y-82960000I147500J0D01*
G01*
G37*
G04 #@! TD*
G04 #@! TO.C,R3*
G36*
G01*
X135327500Y-82305000D02*
X135672500Y-82305000D01*
G75*
G02*
X135820000Y-82452500I0J-147500D01*
G01*
X135820000Y-82747500D01*
G75*
G02*
X135672500Y-82895000I-147500J0D01*
G01*
X135327500Y-82895000D01*
G75*
G02*
X135180000Y-82747500I0J147500D01*
G01*
X135180000Y-82452500D01*
G75*
G02*
X135327500Y-82305000I147500J0D01*
G01*
G37*
G36*
G01*
X135327500Y-83275000D02*
X135672500Y-83275000D01*
G75*
G02*
X135820000Y-83422500I0J-147500D01*
G01*
X135820000Y-83717500D01*
G75*
G02*
X135672500Y-83865000I-147500J0D01*
G01*
X135327500Y-83865000D01*
G75*
G02*
X135180000Y-83717500I0J147500D01*
G01*
X135180000Y-83422500D01*
G75*
G02*
X135327500Y-83275000I147500J0D01*
G01*
G37*
G04 #@! TD*
G04 #@! TO.C,R4*
G36*
G01*
X122085000Y-81147500D02*
X122085000Y-81492500D01*
G75*
G02*
X121937500Y-81640000I-147500J0D01*
G01*
X121642500Y-81640000D01*
G75*
G02*
X121495000Y-81492500I0J147500D01*
G01*
X121495000Y-81147500D01*
G75*
G02*
X121642500Y-81000000I147500J0D01*
G01*
X121937500Y-81000000D01*
G75*
G02*
X122085000Y-81147500I0J-147500D01*
G01*
G37*
G36*
G01*
X121115000Y-81147500D02*
X121115000Y-81492500D01*
G75*
G02*
X120967500Y-81640000I-147500J0D01*
G01*
X120672500Y-81640000D01*
G75*
G02*
X120525000Y-81492500I0J147500D01*
G01*
X120525000Y-81147500D01*
G75*
G02*
X120672500Y-81000000I147500J0D01*
G01*
X120967500Y-81000000D01*
G75*
G02*
X121115000Y-81147500I0J-147500D01*
G01*
G37*
G04 #@! TD*
G04 #@! TO.C,R5*
G36*
G01*
X119535000Y-81492500D02*
X119535000Y-81147500D01*
G75*
G02*
X119682500Y-81000000I147500J0D01*
G01*
X119977500Y-81000000D01*
G75*
G02*
X120125000Y-81147500I0J-147500D01*
G01*
X120125000Y-81492500D01*
G75*
G02*
X119977500Y-81640000I-147500J0D01*
G01*
X119682500Y-81640000D01*
G75*
G02*
X119535000Y-81492500I0J147500D01*
G01*
G37*
G36*
G01*
X118565000Y-81492500D02*
X118565000Y-81147500D01*
G75*
G02*
X118712500Y-81000000I147500J0D01*
G01*
X119007500Y-81000000D01*
G75*
G02*
X119155000Y-81147500I0J-147500D01*
G01*
X119155000Y-81492500D01*
G75*
G02*
X119007500Y-81640000I-147500J0D01*
G01*
X118712500Y-81640000D01*
G75*
G02*
X118565000Y-81492500I0J147500D01*
G01*
G37*
G04 #@! TD*
G04 #@! TO.C,R6*
G36*
G01*
X144940000Y-81972500D02*
X144940000Y-81627500D01*
G75*
G02*
X145087500Y-81480000I147500J0D01*
G01*
X145382500Y-81480000D01*
G75*
G02*
X145530000Y-81627500I0J-147500D01*
G01*
X145530000Y-81972500D01*
G75*
G02*
X145382500Y-82120000I-147500J0D01*
G01*
X145087500Y-82120000D01*
G75*
G02*
X144940000Y-81972500I0J147500D01*
G01*
G37*
G36*
G01*
X143970000Y-81972500D02*
X143970000Y-81627500D01*
G75*
G02*
X144117500Y-81480000I147500J0D01*
G01*
X144412500Y-81480000D01*
G75*
G02*
X144560000Y-81627500I0J-147500D01*
G01*
X144560000Y-81972500D01*
G75*
G02*
X144412500Y-82120000I-147500J0D01*
G01*
X144117500Y-82120000D01*
G75*
G02*
X143970000Y-81972500I0J147500D01*
G01*
G37*
G04 #@! TD*
G04 #@! TO.C,R8*
G36*
G01*
X135327500Y-85240000D02*
X135672500Y-85240000D01*
G75*
G02*
X135820000Y-85387500I0J-147500D01*
G01*
X135820000Y-85682500D01*
G75*
G02*
X135672500Y-85830000I-147500J0D01*
G01*
X135327500Y-85830000D01*
G75*
G02*
X135180000Y-85682500I0J147500D01*
G01*
X135180000Y-85387500D01*
G75*
G02*
X135327500Y-85240000I147500J0D01*
G01*
G37*
G36*
G01*
X135327500Y-84270000D02*
X135672500Y-84270000D01*
G75*
G02*
X135820000Y-84417500I0J-147500D01*
G01*
X135820000Y-84712500D01*
G75*
G02*
X135672500Y-84860000I-147500J0D01*
G01*
X135327500Y-84860000D01*
G75*
G02*
X135180000Y-84712500I0J147500D01*
G01*
X135180000Y-84417500D01*
G75*
G02*
X135327500Y-84270000I147500J0D01*
G01*
G37*
G04 #@! TD*
G04 #@! TO.C,R10*
G36*
G01*
X156517500Y-121445000D02*
X156862500Y-121445000D01*
G75*
G02*
X157010000Y-121592500I0J-147500D01*
G01*
X157010000Y-121887500D01*
G75*
G02*
X156862500Y-122035000I-147500J0D01*
G01*
X156517500Y-122035000D01*
G75*
G02*
X156370000Y-121887500I0J147500D01*
G01*
X156370000Y-121592500D01*
G75*
G02*
X156517500Y-121445000I147500J0D01*
G01*
G37*
G36*
G01*
X156517500Y-122415000D02*
X156862500Y-122415000D01*
G75*
G02*
X157010000Y-122562500I0J-147500D01*
G01*
X157010000Y-122857500D01*
G75*
G02*
X156862500Y-123005000I-147500J0D01*
G01*
X156517500Y-123005000D01*
G75*
G02*
X156370000Y-122857500I0J147500D01*
G01*
X156370000Y-122562500D01*
G75*
G02*
X156517500Y-122415000I147500J0D01*
G01*
G37*
G04 #@! TD*
G04 #@! TO.C,R11*
G36*
G01*
X156517500Y-119475000D02*
X156862500Y-119475000D01*
G75*
G02*
X157010000Y-119622500I0J-147500D01*
G01*
X157010000Y-119917500D01*
G75*
G02*
X156862500Y-120065000I-147500J0D01*
G01*
X156517500Y-120065000D01*
G75*
G02*
X156370000Y-119917500I0J147500D01*
G01*
X156370000Y-119622500D01*
G75*
G02*
X156517500Y-119475000I147500J0D01*
G01*
G37*
G36*
G01*
X156517500Y-120445000D02*
X156862500Y-120445000D01*
G75*
G02*
X157010000Y-120592500I0J-147500D01*
G01*
X157010000Y-120887500D01*
G75*
G02*
X156862500Y-121035000I-147500J0D01*
G01*
X156517500Y-121035000D01*
G75*
G02*
X156370000Y-120887500I0J147500D01*
G01*
X156370000Y-120592500D01*
G75*
G02*
X156517500Y-120445000I147500J0D01*
G01*
G37*
G04 #@! TD*
G04 #@! TO.C,R12*
G36*
G01*
X151797500Y-121475000D02*
X152142500Y-121475000D01*
G75*
G02*
X152290000Y-121622500I0J-147500D01*
G01*
X152290000Y-121917500D01*
G75*
G02*
X152142500Y-122065000I-147500J0D01*
G01*
X151797500Y-122065000D01*
G75*
G02*
X151650000Y-121917500I0J147500D01*
G01*
X151650000Y-121622500D01*
G75*
G02*
X151797500Y-121475000I147500J0D01*
G01*
G37*
G36*
G01*
X151797500Y-122445000D02*
X152142500Y-122445000D01*
G75*
G02*
X152290000Y-122592500I0J-147500D01*
G01*
X152290000Y-122887500D01*
G75*
G02*
X152142500Y-123035000I-147500J0D01*
G01*
X151797500Y-123035000D01*
G75*
G02*
X151650000Y-122887500I0J147500D01*
G01*
X151650000Y-122592500D01*
G75*
G02*
X151797500Y-122445000I147500J0D01*
G01*
G37*
G04 #@! TD*
G04 #@! TO.C,R13*
G36*
G01*
X151797500Y-119505000D02*
X152142500Y-119505000D01*
G75*
G02*
X152290000Y-119652500I0J-147500D01*
G01*
X152290000Y-119947500D01*
G75*
G02*
X152142500Y-120095000I-147500J0D01*
G01*
X151797500Y-120095000D01*
G75*
G02*
X151650000Y-119947500I0J147500D01*
G01*
X151650000Y-119652500D01*
G75*
G02*
X151797500Y-119505000I147500J0D01*
G01*
G37*
G36*
G01*
X151797500Y-120475000D02*
X152142500Y-120475000D01*
G75*
G02*
X152290000Y-120622500I0J-147500D01*
G01*
X152290000Y-120917500D01*
G75*
G02*
X152142500Y-121065000I-147500J0D01*
G01*
X151797500Y-121065000D01*
G75*
G02*
X151650000Y-120917500I0J147500D01*
G01*
X151650000Y-120622500D01*
G75*
G02*
X151797500Y-120475000I147500J0D01*
G01*
G37*
G04 #@! TD*
G04 #@! TO.C,R19*
G36*
G01*
X149562500Y-120693750D02*
X149562500Y-121206250D01*
G75*
G02*
X149343750Y-121425000I-218750J0D01*
G01*
X148906250Y-121425000D01*
G75*
G02*
X148687500Y-121206250I0J218750D01*
G01*
X148687500Y-120693750D01*
G75*
G02*
X148906250Y-120475000I218750J0D01*
G01*
X149343750Y-120475000D01*
G75*
G02*
X149562500Y-120693750I0J-218750D01*
G01*
G37*
G36*
G01*
X147987500Y-120693750D02*
X147987500Y-121206250D01*
G75*
G02*
X147768750Y-121425000I-218750J0D01*
G01*
X147331250Y-121425000D01*
G75*
G02*
X147112500Y-121206250I0J218750D01*
G01*
X147112500Y-120693750D01*
G75*
G02*
X147331250Y-120475000I218750J0D01*
G01*
X147768750Y-120475000D01*
G75*
G02*
X147987500Y-120693750I0J-218750D01*
G01*
G37*
G04 #@! TD*
G04 #@! TO.C,R20*
G36*
G01*
X144947500Y-120693750D02*
X144947500Y-121206250D01*
G75*
G02*
X144728750Y-121425000I-218750J0D01*
G01*
X144291250Y-121425000D01*
G75*
G02*
X144072500Y-121206250I0J218750D01*
G01*
X144072500Y-120693750D01*
G75*
G02*
X144291250Y-120475000I218750J0D01*
G01*
X144728750Y-120475000D01*
G75*
G02*
X144947500Y-120693750I0J-218750D01*
G01*
G37*
G36*
G01*
X146522500Y-120693750D02*
X146522500Y-121206250D01*
G75*
G02*
X146303750Y-121425000I-218750J0D01*
G01*
X145866250Y-121425000D01*
G75*
G02*
X145647500Y-121206250I0J218750D01*
G01*
X145647500Y-120693750D01*
G75*
G02*
X145866250Y-120475000I218750J0D01*
G01*
X146303750Y-120475000D01*
G75*
G02*
X146522500Y-120693750I0J-218750D01*
G01*
G37*
G04 #@! TD*
G04 #@! TO.C,R21*
G36*
G01*
X147005000Y-122402500D02*
X147005000Y-122057500D01*
G75*
G02*
X147152500Y-121910000I147500J0D01*
G01*
X147447500Y-121910000D01*
G75*
G02*
X147595000Y-122057500I0J-147500D01*
G01*
X147595000Y-122402500D01*
G75*
G02*
X147447500Y-122550000I-147500J0D01*
G01*
X147152500Y-122550000D01*
G75*
G02*
X147005000Y-122402500I0J147500D01*
G01*
G37*
G36*
G01*
X147975000Y-122402500D02*
X147975000Y-122057500D01*
G75*
G02*
X148122500Y-121910000I147500J0D01*
G01*
X148417500Y-121910000D01*
G75*
G02*
X148565000Y-122057500I0J-147500D01*
G01*
X148565000Y-122402500D01*
G75*
G02*
X148417500Y-122550000I-147500J0D01*
G01*
X148122500Y-122550000D01*
G75*
G02*
X147975000Y-122402500I0J147500D01*
G01*
G37*
G04 #@! TD*
G04 #@! TO.C,R22*
G36*
G01*
X144945000Y-122392500D02*
X144945000Y-122047500D01*
G75*
G02*
X145092500Y-121900000I147500J0D01*
G01*
X145387500Y-121900000D01*
G75*
G02*
X145535000Y-122047500I0J-147500D01*
G01*
X145535000Y-122392500D01*
G75*
G02*
X145387500Y-122540000I-147500J0D01*
G01*
X145092500Y-122540000D01*
G75*
G02*
X144945000Y-122392500I0J147500D01*
G01*
G37*
G36*
G01*
X143975000Y-122392500D02*
X143975000Y-122047500D01*
G75*
G02*
X144122500Y-121900000I147500J0D01*
G01*
X144417500Y-121900000D01*
G75*
G02*
X144565000Y-122047500I0J-147500D01*
G01*
X144565000Y-122392500D01*
G75*
G02*
X144417500Y-122540000I-147500J0D01*
G01*
X144122500Y-122540000D01*
G75*
G02*
X143975000Y-122392500I0J147500D01*
G01*
G37*
G04 #@! TD*
D23*
G04 #@! TO.C,U1*
X124990000Y-82310000D03*
X124990000Y-82810000D03*
X124990000Y-83310000D03*
X124990000Y-83810000D03*
X126890000Y-83810000D03*
X126890000Y-83310000D03*
X126890000Y-82810000D03*
X126890000Y-82310000D03*
G04 #@! TD*
D24*
G04 #@! TO.C,U5*
X167525500Y-121500000D03*
D25*
X163944100Y-120450000D03*
X163944100Y-122550000D03*
G04 #@! TD*
D26*
G04 #@! TO.C,U13*
X145009800Y-104800000D03*
X145009800Y-104150000D03*
X145009800Y-103500000D03*
X145009800Y-102850000D03*
X140590200Y-102850000D03*
X140590200Y-103500000D03*
X140590200Y-104150000D03*
X140590200Y-104800000D03*
G04 #@! TD*
D27*
G04 #@! TO.C,U14*
X125170000Y-117860000D03*
X125170000Y-116910000D03*
X125170000Y-115960000D03*
X127870000Y-117860000D03*
X127870000Y-116910000D03*
X127870000Y-115960000D03*
G04 #@! TD*
G04 #@! TO.C,R1*
G36*
G01*
X146325000Y-90074999D02*
X146325000Y-92925001D01*
G75*
G02*
X146075001Y-93175000I-249999J0D01*
G01*
X145224999Y-93175000D01*
G75*
G02*
X144975000Y-92925001I0J249999D01*
G01*
X144975000Y-90074999D01*
G75*
G02*
X145224999Y-89825000I249999J0D01*
G01*
X146075001Y-89825000D01*
G75*
G02*
X146325000Y-90074999I0J-249999D01*
G01*
G37*
G36*
G01*
X140525000Y-90074999D02*
X140525000Y-92925001D01*
G75*
G02*
X140275001Y-93175000I-249999J0D01*
G01*
X139424999Y-93175000D01*
G75*
G02*
X139175000Y-92925001I0J249999D01*
G01*
X139175000Y-90074999D01*
G75*
G02*
X139424999Y-89825000I249999J0D01*
G01*
X140275001Y-89825000D01*
G75*
G02*
X140525000Y-90074999I0J-249999D01*
G01*
G37*
G04 #@! TD*
G04 #@! TO.C,R17*
G36*
G01*
X142902500Y-108515000D02*
X142557500Y-108515000D01*
G75*
G02*
X142410000Y-108367500I0J147500D01*
G01*
X142410000Y-108072500D01*
G75*
G02*
X142557500Y-107925000I147500J0D01*
G01*
X142902500Y-107925000D01*
G75*
G02*
X143050000Y-108072500I0J-147500D01*
G01*
X143050000Y-108367500D01*
G75*
G02*
X142902500Y-108515000I-147500J0D01*
G01*
G37*
G36*
G01*
X142902500Y-109485000D02*
X142557500Y-109485000D01*
G75*
G02*
X142410000Y-109337500I0J147500D01*
G01*
X142410000Y-109042500D01*
G75*
G02*
X142557500Y-108895000I147500J0D01*
G01*
X142902500Y-108895000D01*
G75*
G02*
X143050000Y-109042500I0J-147500D01*
G01*
X143050000Y-109337500D01*
G75*
G02*
X142902500Y-109485000I-147500J0D01*
G01*
G37*
G04 #@! TD*
G04 #@! TO.C,R18*
G36*
G01*
X138777500Y-107620000D02*
X138432500Y-107620000D01*
G75*
G02*
X138285000Y-107472500I0J147500D01*
G01*
X138285000Y-107177500D01*
G75*
G02*
X138432500Y-107030000I147500J0D01*
G01*
X138777500Y-107030000D01*
G75*
G02*
X138925000Y-107177500I0J-147500D01*
G01*
X138925000Y-107472500D01*
G75*
G02*
X138777500Y-107620000I-147500J0D01*
G01*
G37*
G36*
G01*
X138777500Y-106650000D02*
X138432500Y-106650000D01*
G75*
G02*
X138285000Y-106502500I0J147500D01*
G01*
X138285000Y-106207500D01*
G75*
G02*
X138432500Y-106060000I147500J0D01*
G01*
X138777500Y-106060000D01*
G75*
G02*
X138925000Y-106207500I0J-147500D01*
G01*
X138925000Y-106502500D01*
G75*
G02*
X138777500Y-106650000I-147500J0D01*
G01*
G37*
G04 #@! TD*
G04 #@! TO.C,C5*
G36*
G01*
X134350000Y-117847500D02*
X134350000Y-118192500D01*
G75*
G02*
X134202500Y-118340000I-147500J0D01*
G01*
X133907500Y-118340000D01*
G75*
G02*
X133760000Y-118192500I0J147500D01*
G01*
X133760000Y-117847500D01*
G75*
G02*
X133907500Y-117700000I147500J0D01*
G01*
X134202500Y-117700000D01*
G75*
G02*
X134350000Y-117847500I0J-147500D01*
G01*
G37*
G36*
G01*
X133380000Y-117847500D02*
X133380000Y-118192500D01*
G75*
G02*
X133232500Y-118340000I-147500J0D01*
G01*
X132937500Y-118340000D01*
G75*
G02*
X132790000Y-118192500I0J147500D01*
G01*
X132790000Y-117847500D01*
G75*
G02*
X132937500Y-117700000I147500J0D01*
G01*
X133232500Y-117700000D01*
G75*
G02*
X133380000Y-117847500I0J-147500D01*
G01*
G37*
G04 #@! TD*
M02*
