G04 #@! TF.GenerationSoftware,KiCad,Pcbnew,5.1.6-c6e7f7d~87~ubuntu19.10.1*
G04 #@! TF.CreationDate,2021-03-15T12:51:18-04:00*
G04 #@! TF.ProjectId,icarus,69636172-7573-42e6-9b69-6361645f7063,V1.0*
G04 #@! TF.SameCoordinates,Original*
G04 #@! TF.FileFunction,Legend,Top*
G04 #@! TF.FilePolarity,Positive*
%FSLAX46Y46*%
G04 Gerber Fmt 4.6, Leading zero omitted, Abs format (unit mm)*
G04 Created by KiCad (PCBNEW 5.1.6-c6e7f7d~87~ubuntu19.10.1) date 2021-03-15 12:51:18*
%MOMM*%
%LPD*%
G01*
G04 APERTURE LIST*
%ADD10C,0.152400*%
%ADD11C,0.127000*%
%ADD12C,0.120000*%
%ADD13C,0.200000*%
%ADD14C,0.010000*%
%ADD15C,0.100000*%
%ADD16C,0.150000*%
G04 APERTURE END LIST*
D10*
G04 #@! TO.C,U3*
X130515800Y-108291600D02*
X126604200Y-108291600D01*
X126604200Y-113168400D02*
X128255200Y-113168400D01*
X128255200Y-113168400D02*
X128864800Y-113168400D01*
X128864800Y-113168400D02*
X130515800Y-113168400D01*
X128864800Y-113168400D02*
G75*
G03*
X128255200Y-113168400I-304800J0D01*
G01*
D11*
G04 #@! TO.C,U4*
X134800000Y-107060000D02*
X138800000Y-105060000D01*
X134700000Y-86260000D02*
X138800000Y-88260000D01*
X138800000Y-88260000D02*
X138800000Y-105060000D01*
X112800000Y-86260000D02*
X134700000Y-86260000D01*
X112800000Y-107060000D02*
X112800000Y-86260000D01*
X134800000Y-107060000D02*
X112800000Y-107060000D01*
D10*
G04 #@! TO.C,MOSFET5*
X162657399Y-105731200D02*
G75*
G03*
X162657399Y-105731200I-127000J0D01*
G01*
X163508200Y-100508960D02*
X163508200Y-98101040D01*
X156258938Y-104588200D02*
X163508200Y-104588200D01*
X163508200Y-95428960D02*
X163508200Y-94021800D01*
X163508200Y-94021800D02*
X156258938Y-94021800D01*
X163508200Y-104588200D02*
X163508200Y-103181040D01*
G04 #@! TO.C,MOSFET1*
X162632001Y-118651200D02*
G75*
G03*
X162632001Y-118651200I-127000J0D01*
G01*
X163482802Y-113428960D02*
X163482802Y-111021040D01*
X156233540Y-117508200D02*
X163482802Y-117508200D01*
X163482802Y-108348960D02*
X163482802Y-106941800D01*
X163482802Y-106941800D02*
X156233540Y-106941800D01*
X163482802Y-117508200D02*
X163482802Y-116101040D01*
G04 #@! TO.C,U15*
X155614900Y-118170000D02*
G75*
G03*
X155818100Y-118170000I101600J0D01*
G01*
X155818100Y-118170000D02*
G75*
G03*
X155614900Y-118170000I-101600J0D01*
G01*
D12*
G04 #@! TO.C,J4*
X119710000Y-124130000D02*
X119710000Y-124380000D01*
X127450000Y-124130000D02*
X127450000Y-124380000D01*
X126580000Y-119660000D02*
X127450000Y-119660000D01*
X119710000Y-119660000D02*
X119710000Y-121730000D01*
X127450000Y-119660000D02*
X127450000Y-121730000D01*
X119710000Y-119660000D02*
X120580000Y-119660000D01*
X124880000Y-119430000D02*
X124580000Y-119130000D01*
X124880000Y-119430000D02*
X125180000Y-119130000D01*
X124580000Y-119130000D02*
X125180000Y-119130000D01*
D13*
G04 #@! TO.C,U8*
X138790000Y-86490000D02*
G75*
G03*
X138790000Y-86490000I-100000J0D01*
G01*
D11*
X140690000Y-86240000D02*
X143690000Y-86240000D01*
X140690000Y-89240000D02*
X143690000Y-89240000D01*
D12*
G04 #@! TO.C,C2*
X132401422Y-80590000D02*
X132918578Y-80590000D01*
X132401422Y-82010000D02*
X132918578Y-82010000D01*
G04 #@! TO.C,C4*
X123970000Y-83478578D02*
X123970000Y-82961422D01*
X122550000Y-83478578D02*
X122550000Y-82961422D01*
G04 #@! TO.C,C7*
X161190000Y-119278922D02*
X161190000Y-119796078D01*
X162610000Y-119278922D02*
X162610000Y-119796078D01*
D10*
G04 #@! TO.C,CR1*
X145348240Y-100538600D02*
X145714000Y-100538600D01*
X143031760Y-95001400D02*
X142666000Y-95001400D01*
X145714000Y-95001400D02*
X145348240Y-95001400D01*
X145714000Y-100538600D02*
X145714000Y-95001400D01*
X142666000Y-100538600D02*
X143031760Y-100538600D01*
X142666000Y-95001400D02*
X142666000Y-100538600D01*
X144825000Y-94366400D02*
X143555000Y-94366400D01*
X144190000Y-93604400D02*
X144063000Y-94366400D01*
X144190000Y-93604400D02*
X143936000Y-94366400D01*
X144190000Y-93604400D02*
X143809000Y-94366400D01*
X144190000Y-93604400D02*
X143682000Y-94366400D01*
X144190000Y-93604400D02*
X143555000Y-94366400D01*
X144190000Y-93604400D02*
X144317000Y-94366400D01*
X144190000Y-93604400D02*
X144444000Y-94366400D01*
X144190000Y-93604400D02*
X144571000Y-94366400D01*
X144190000Y-93604400D02*
X144698000Y-94366400D01*
X144190000Y-93604400D02*
X144825000Y-94366400D01*
X144825000Y-93604400D02*
X143555000Y-93604400D01*
X144190000Y-94620400D02*
X144190000Y-93350400D01*
G04 #@! TO.C,CR2*
X140700000Y-94600400D02*
X140700000Y-93330400D01*
X141335000Y-93584400D02*
X140065000Y-93584400D01*
X140700000Y-93584400D02*
X141335000Y-94346400D01*
X140700000Y-93584400D02*
X141208000Y-94346400D01*
X140700000Y-93584400D02*
X141081000Y-94346400D01*
X140700000Y-93584400D02*
X140954000Y-94346400D01*
X140700000Y-93584400D02*
X140827000Y-94346400D01*
X140700000Y-93584400D02*
X140065000Y-94346400D01*
X140700000Y-93584400D02*
X140192000Y-94346400D01*
X140700000Y-93584400D02*
X140319000Y-94346400D01*
X140700000Y-93584400D02*
X140446000Y-94346400D01*
X140700000Y-93584400D02*
X140573000Y-94346400D01*
X141335000Y-94346400D02*
X140065000Y-94346400D01*
X139176000Y-94981400D02*
X139176000Y-100518600D01*
X139176000Y-100518600D02*
X139541760Y-100518600D01*
X142224000Y-100518600D02*
X142224000Y-94981400D01*
X142224000Y-94981400D02*
X141858240Y-94981400D01*
X139541760Y-94981400D02*
X139176000Y-94981400D01*
X141858240Y-100518600D02*
X142224000Y-100518600D01*
D14*
G04 #@! TO.C,D1*
G36*
X126490583Y-80610000D02*
G01*
X126290000Y-80610000D01*
X126290000Y-80409632D01*
X126490583Y-80409632D01*
X126490583Y-80610000D01*
G37*
X126490583Y-80610000D02*
X126290000Y-80610000D01*
X126290000Y-80409632D01*
X126490583Y-80409632D01*
X126490583Y-80610000D01*
G36*
X126490108Y-81610000D02*
G01*
X126290000Y-81610000D01*
X126290000Y-81410046D01*
X126490108Y-81410046D01*
X126490108Y-81610000D01*
G37*
X126490108Y-81610000D02*
X126290000Y-81610000D01*
X126290000Y-81410046D01*
X126490108Y-81410046D01*
X126490108Y-81610000D01*
D12*
G04 #@! TO.C,D2*
X122205000Y-84212500D02*
X122205000Y-81927500D01*
X122205000Y-81927500D02*
X120735000Y-81927500D01*
X120735000Y-81927500D02*
X120735000Y-84212500D01*
G04 #@! TO.C,D3*
X119915000Y-84212500D02*
X119915000Y-81927500D01*
X119915000Y-81927500D02*
X118445000Y-81927500D01*
X118445000Y-81927500D02*
X118445000Y-84212500D01*
G04 #@! TO.C,D4*
X157277500Y-123125000D02*
X159562500Y-123125000D01*
X157277500Y-121655000D02*
X157277500Y-123125000D01*
X159562500Y-121655000D02*
X157277500Y-121655000D01*
G04 #@! TO.C,D5*
X157272500Y-121165000D02*
X159557500Y-121165000D01*
X157272500Y-119695000D02*
X157272500Y-121165000D01*
X159557500Y-119695000D02*
X157272500Y-119695000D01*
G04 #@! TO.C,D6*
X152572500Y-123155000D02*
X154857500Y-123155000D01*
X152572500Y-121685000D02*
X152572500Y-123155000D01*
X154857500Y-121685000D02*
X152572500Y-121685000D01*
G04 #@! TO.C,D7*
X154852500Y-119725000D02*
X152567500Y-119725000D01*
X152567500Y-119725000D02*
X152567500Y-121195000D01*
X152567500Y-121195000D02*
X154852500Y-121195000D01*
G04 #@! TO.C,J3*
X128940000Y-118890000D02*
X128940000Y-120140000D01*
X130190000Y-118890000D02*
X128940000Y-118890000D01*
X140300000Y-123300000D02*
X140300000Y-122800000D01*
X140400000Y-122800000D02*
X140400000Y-123300000D01*
X140200000Y-122800000D02*
X140400000Y-122800000D01*
X140200000Y-123300000D02*
X140200000Y-122800000D01*
X138300000Y-123300000D02*
X138300000Y-122800000D01*
X138400000Y-122800000D02*
X138400000Y-123300000D01*
X138200000Y-122800000D02*
X138400000Y-122800000D01*
X138200000Y-123300000D02*
X138200000Y-122800000D01*
X136300000Y-123300000D02*
X136300000Y-122800000D01*
X136400000Y-122800000D02*
X136400000Y-123300000D01*
X136200000Y-122800000D02*
X136400000Y-122800000D01*
X136200000Y-123300000D02*
X136200000Y-122800000D01*
X134300000Y-123300000D02*
X134300000Y-122800000D01*
X134400000Y-122800000D02*
X134400000Y-123300000D01*
X134200000Y-122800000D02*
X134400000Y-122800000D01*
X134200000Y-123300000D02*
X134200000Y-122800000D01*
X132300000Y-123300000D02*
X132300000Y-122800000D01*
X132400000Y-122800000D02*
X132400000Y-123300000D01*
X132200000Y-122800000D02*
X132400000Y-122800000D01*
X132200000Y-123300000D02*
X132200000Y-122800000D01*
X143360000Y-121800000D02*
X142750000Y-121800000D01*
X143360000Y-120500000D02*
X142750000Y-120500000D01*
X129240000Y-121800000D02*
X129850000Y-121800000D01*
X129240000Y-120500000D02*
X129850000Y-120500000D01*
X140800000Y-119800000D02*
X140800000Y-119190000D01*
X142750000Y-119800000D02*
X140800000Y-119800000D01*
X142750000Y-123300000D02*
X142750000Y-119800000D01*
X129850000Y-123300000D02*
X142750000Y-123300000D01*
X129850000Y-119800000D02*
X129850000Y-123300000D01*
X131800000Y-119800000D02*
X129850000Y-119800000D01*
X131800000Y-119190000D02*
X131800000Y-119800000D01*
X131000000Y-119090000D02*
X130700000Y-119090000D01*
X130700000Y-118990000D02*
X130700000Y-119190000D01*
X131000000Y-118990000D02*
X130700000Y-118990000D01*
X131000000Y-119190000D02*
X131000000Y-118990000D01*
X143360000Y-119190000D02*
X129240000Y-119190000D01*
X143360000Y-123910000D02*
X143360000Y-119190000D01*
X129240000Y-123910000D02*
X143360000Y-123910000D01*
X129240000Y-119190000D02*
X129240000Y-123910000D01*
G04 #@! TO.C,L1*
X127900000Y-82797936D02*
X127900000Y-84002064D01*
X130620000Y-82797936D02*
X130620000Y-84002064D01*
D11*
G04 #@! TO.C,MOSFET2*
X142850000Y-81400000D02*
X139650000Y-81400000D01*
X139650000Y-81400000D02*
X139650000Y-85000000D01*
X139650000Y-85000000D02*
X142850000Y-85000000D01*
X142850000Y-85000000D02*
X142850000Y-81400000D01*
D15*
G36*
X143450000Y-81600000D02*
G01*
X143550000Y-81626795D01*
X143623205Y-81700000D01*
X143650000Y-81800000D01*
X143623205Y-81900000D01*
X143550000Y-81973205D01*
X143450000Y-82000000D01*
X143350000Y-81973205D01*
X143276795Y-81900000D01*
X143250000Y-81800000D01*
X143276795Y-81700000D01*
X143350000Y-81626795D01*
X143450000Y-81600000D01*
G37*
D10*
G04 #@! TO.C,MOSFET3*
X163538200Y-92483200D02*
X163538200Y-91076040D01*
X163538200Y-81916800D02*
X156288938Y-81916800D01*
X163538200Y-83323960D02*
X163538200Y-81916800D01*
X156288938Y-92483200D02*
X163538200Y-92483200D01*
X163538200Y-88403960D02*
X163538200Y-85996040D01*
X162687399Y-93626200D02*
G75*
G03*
X162687399Y-93626200I-127000J0D01*
G01*
D15*
G04 #@! TO.C,MOSFET4*
X131260000Y-83325000D02*
X131560000Y-83325000D01*
X131260000Y-83700000D02*
X131260000Y-83325000D01*
X134560000Y-83325000D02*
X134560000Y-83775000D01*
X134260000Y-83325000D02*
X134560000Y-83325000D01*
X134335000Y-83325000D02*
X134210000Y-83325000D01*
X134560000Y-84975000D02*
X134210000Y-84975000D01*
X134560000Y-84500000D02*
X134560000Y-84975000D01*
X131585000Y-84975000D02*
X131585000Y-85750000D01*
X131535000Y-84975000D02*
X131585000Y-84975000D01*
X131260000Y-84600000D02*
X131535000Y-84975000D01*
X131260000Y-84325000D02*
X131260000Y-84600000D01*
D12*
G04 #@! TO.C,R19*
X148500279Y-120440000D02*
X148174721Y-120440000D01*
X148500279Y-121460000D02*
X148174721Y-121460000D01*
G04 #@! TO.C,R20*
X145460279Y-121460000D02*
X145134721Y-121460000D01*
X145460279Y-120440000D02*
X145134721Y-120440000D01*
G04 #@! TO.C,U1*
X125940000Y-81960000D02*
X126940000Y-81960000D01*
X124940000Y-84160000D02*
X126940000Y-84160000D01*
D10*
G04 #@! TO.C,U2*
X135909500Y-117574800D02*
X136290500Y-117574800D01*
X135909500Y-117828800D02*
X135909500Y-117574800D01*
X136290500Y-117828800D02*
X135909500Y-117828800D01*
X136290500Y-117574800D02*
X136290500Y-117828800D01*
X133235200Y-113400501D02*
X132981200Y-113400501D01*
X133235200Y-113019500D02*
X133235200Y-113400501D01*
X132981200Y-113019500D02*
X133235200Y-113019500D01*
X132981200Y-113400501D02*
X132981200Y-113019500D01*
X136409499Y-109345200D02*
X136790499Y-109345200D01*
X136409499Y-109091200D02*
X136409499Y-109345200D01*
X136790499Y-109091200D02*
X136409499Y-109091200D01*
X136790499Y-109345200D02*
X136790499Y-109091200D01*
X141464800Y-111900501D02*
X141718800Y-111900501D01*
X141464800Y-111519501D02*
X141464800Y-111900501D01*
X141718800Y-111519501D02*
X141464800Y-111519501D01*
X141718800Y-111900501D02*
X141718800Y-111519501D01*
X140585140Y-117143000D02*
X141033000Y-117143000D01*
X133667000Y-116695140D02*
X133667000Y-117143000D01*
X134114860Y-109777000D02*
X133667000Y-109777000D01*
X141033000Y-110224860D02*
X141033000Y-109777000D01*
X141033000Y-117143000D02*
X141033000Y-116695140D01*
X133667000Y-117143000D02*
X134114860Y-117143000D01*
X133667000Y-109777000D02*
X133667000Y-110224860D01*
X141033000Y-109777000D02*
X140585140Y-109777000D01*
G04 #@! TO.C,U5*
X163499600Y-119061600D02*
X163499600Y-119442600D01*
X163499600Y-123938400D02*
X169900400Y-123938400D01*
X169900400Y-119061600D02*
X163499600Y-119061600D01*
X163499600Y-123557400D02*
X163499600Y-123938400D01*
D11*
G04 #@! TO.C,U6*
X172475000Y-107400000D02*
X175875000Y-107400000D01*
X176775000Y-106500000D02*
X175875000Y-107400000D01*
X171575000Y-106500000D02*
X172475000Y-107400000D01*
X176775000Y-97200000D02*
X176775000Y-106500000D01*
X171575000Y-97200000D02*
X176775000Y-97200000D01*
X171575000Y-106500000D02*
X171575000Y-97200000D01*
G04 #@! TO.C,U7*
X171525000Y-117650000D02*
X171525000Y-108350000D01*
X171525000Y-108350000D02*
X176725000Y-108350000D01*
X176725000Y-108350000D02*
X176725000Y-117650000D01*
X171525000Y-117650000D02*
X172425000Y-118550000D01*
X176725000Y-117650000D02*
X175825000Y-118550000D01*
X172425000Y-118550000D02*
X175825000Y-118550000D01*
G04 #@! TO.C,U9*
X166250000Y-118525000D02*
X169650000Y-118525000D01*
X170550000Y-117625000D02*
X169650000Y-118525000D01*
X165350000Y-117625000D02*
X166250000Y-118525000D01*
X170550000Y-108325000D02*
X170550000Y-117625000D01*
X165350000Y-108325000D02*
X170550000Y-108325000D01*
X165350000Y-117625000D02*
X165350000Y-108325000D01*
G04 #@! TO.C,U10*
X171575000Y-95380000D02*
X171575000Y-86080000D01*
X171575000Y-86080000D02*
X176775000Y-86080000D01*
X176775000Y-86080000D02*
X176775000Y-95380000D01*
X171575000Y-95380000D02*
X172475000Y-96280000D01*
X176775000Y-95380000D02*
X175875000Y-96280000D01*
X172475000Y-96280000D02*
X175875000Y-96280000D01*
G04 #@! TO.C,U11*
X166250000Y-107375000D02*
X169650000Y-107375000D01*
X170550000Y-106475000D02*
X169650000Y-107375000D01*
X165350000Y-106475000D02*
X166250000Y-107375000D01*
X170550000Y-97175000D02*
X170550000Y-106475000D01*
X165350000Y-97175000D02*
X170550000Y-97175000D01*
X165350000Y-106475000D02*
X165350000Y-97175000D01*
G04 #@! TO.C,U12*
X165350000Y-95355000D02*
X165350000Y-86055000D01*
X165350000Y-86055000D02*
X170550000Y-86055000D01*
X170550000Y-86055000D02*
X170550000Y-95355000D01*
X165350000Y-95355000D02*
X166250000Y-96255000D01*
X170550000Y-95355000D02*
X169650000Y-96255000D01*
X166250000Y-96255000D02*
X169650000Y-96255000D01*
D10*
G04 #@! TO.C,U13*
X144349400Y-102275600D02*
X141250600Y-102275600D01*
X141250600Y-105374400D02*
X142495200Y-105374400D01*
X142495200Y-105374400D02*
X143104800Y-105374400D01*
X143104800Y-105374400D02*
X144349400Y-105374400D01*
X143104800Y-105374400D02*
G75*
G03*
X142495200Y-105374400I-304800J0D01*
G01*
D15*
G04 #@! TO.C,U14*
X127520000Y-118560000D02*
X127170000Y-118560000D01*
X127520000Y-118210000D02*
X127520000Y-118560000D01*
X125520000Y-118560000D02*
X125520000Y-118210000D01*
X125870000Y-118560000D02*
X125520000Y-118560000D01*
X127520000Y-115260000D02*
X127170000Y-115260000D01*
X127520000Y-115610000D02*
X127520000Y-115260000D01*
X125470000Y-115610000D02*
X125920000Y-115260000D01*
X124870000Y-115610000D02*
X125470000Y-115610000D01*
D12*
G04 #@! TO.C,J1*
X118920000Y-117310000D02*
X120170000Y-117310000D01*
X118920000Y-116060000D02*
X118920000Y-117310000D01*
X123330000Y-111950000D02*
X122830000Y-111950000D01*
X122830000Y-111850000D02*
X123330000Y-111850000D01*
X122830000Y-112050000D02*
X122830000Y-111850000D01*
X123330000Y-112050000D02*
X122830000Y-112050000D01*
X123330000Y-113950000D02*
X122830000Y-113950000D01*
X122830000Y-113850000D02*
X123330000Y-113850000D01*
X122830000Y-114050000D02*
X122830000Y-113850000D01*
X123330000Y-114050000D02*
X122830000Y-114050000D01*
X121830000Y-108890000D02*
X121830000Y-109500000D01*
X120530000Y-108890000D02*
X120530000Y-109500000D01*
X121830000Y-117010000D02*
X121830000Y-116400000D01*
X120530000Y-117010000D02*
X120530000Y-116400000D01*
X119830000Y-111450000D02*
X119220000Y-111450000D01*
X119830000Y-109500000D02*
X119830000Y-111450000D01*
X123330000Y-109500000D02*
X119830000Y-109500000D01*
X123330000Y-116400000D02*
X123330000Y-109500000D01*
X119830000Y-116400000D02*
X123330000Y-116400000D01*
X119830000Y-114450000D02*
X119830000Y-116400000D01*
X119220000Y-114450000D02*
X119830000Y-114450000D01*
X119120000Y-115250000D02*
X119120000Y-115550000D01*
X119020000Y-115550000D02*
X119220000Y-115550000D01*
X119020000Y-115250000D02*
X119020000Y-115550000D01*
X119220000Y-115250000D02*
X119020000Y-115250000D01*
X119220000Y-108890000D02*
X119220000Y-117010000D01*
X123940000Y-108890000D02*
X119220000Y-108890000D01*
X123940000Y-117010000D02*
X123940000Y-108890000D01*
X119220000Y-117010000D02*
X123940000Y-117010000D01*
G04 #@! TO.C,J2*
X113260000Y-117000000D02*
X117980000Y-117000000D01*
X117980000Y-117000000D02*
X117980000Y-108880000D01*
X117980000Y-108880000D02*
X113260000Y-108880000D01*
X113260000Y-108880000D02*
X113260000Y-117000000D01*
X113260000Y-115240000D02*
X113060000Y-115240000D01*
X113060000Y-115240000D02*
X113060000Y-115540000D01*
X113060000Y-115540000D02*
X113260000Y-115540000D01*
X113160000Y-115240000D02*
X113160000Y-115540000D01*
X113260000Y-114440000D02*
X113870000Y-114440000D01*
X113870000Y-114440000D02*
X113870000Y-116390000D01*
X113870000Y-116390000D02*
X117370000Y-116390000D01*
X117370000Y-116390000D02*
X117370000Y-109490000D01*
X117370000Y-109490000D02*
X113870000Y-109490000D01*
X113870000Y-109490000D02*
X113870000Y-111440000D01*
X113870000Y-111440000D02*
X113260000Y-111440000D01*
X114570000Y-117000000D02*
X114570000Y-116390000D01*
X115870000Y-117000000D02*
X115870000Y-116390000D01*
X114570000Y-108880000D02*
X114570000Y-109490000D01*
X115870000Y-108880000D02*
X115870000Y-109490000D01*
X117370000Y-114040000D02*
X116870000Y-114040000D01*
X116870000Y-114040000D02*
X116870000Y-113840000D01*
X116870000Y-113840000D02*
X117370000Y-113840000D01*
X117370000Y-113940000D02*
X116870000Y-113940000D01*
X117370000Y-112040000D02*
X116870000Y-112040000D01*
X116870000Y-112040000D02*
X116870000Y-111840000D01*
X116870000Y-111840000D02*
X117370000Y-111840000D01*
X117370000Y-111940000D02*
X116870000Y-111940000D01*
X112960000Y-116050000D02*
X112960000Y-117300000D01*
X112960000Y-117300000D02*
X114210000Y-117300000D01*
G04 #@! TO.C,R1*
X144802064Y-89790000D02*
X140697936Y-89790000D01*
X144802064Y-93210000D02*
X140697936Y-93210000D01*
G04 #@! TO.C,MOSFET5*
D16*
X155137380Y-99305000D02*
X155375476Y-99305000D01*
X155280238Y-99543095D02*
X155375476Y-99305000D01*
X155280238Y-99066904D01*
X155565952Y-99447857D02*
X155375476Y-99305000D01*
X155565952Y-99162142D01*
G04 #@! TO.C,MOSFET1*
X155111982Y-112225000D02*
X155350078Y-112225000D01*
X155254840Y-112463095D02*
X155350078Y-112225000D01*
X155254840Y-111986904D01*
X155540554Y-112367857D02*
X155350078Y-112225000D01*
X155540554Y-112082142D01*
G04 #@! TO.C,CR1*
X143642380Y-97770000D02*
X143880476Y-97770000D01*
X143785238Y-98008095D02*
X143880476Y-97770000D01*
X143785238Y-97531904D01*
X144070952Y-97912857D02*
X143880476Y-97770000D01*
X144070952Y-97627142D01*
G04 #@! TO.C,CR2*
X140152380Y-97750000D02*
X140390476Y-97750000D01*
X140295238Y-97988095D02*
X140390476Y-97750000D01*
X140295238Y-97511904D01*
X140580952Y-97892857D02*
X140390476Y-97750000D01*
X140580952Y-97607142D01*
G04 #@! TO.C,MOSFET3*
X155167380Y-87200000D02*
X155405476Y-87200000D01*
X155310238Y-87438095D02*
X155405476Y-87200000D01*
X155310238Y-86961904D01*
X155595952Y-87342857D02*
X155405476Y-87200000D01*
X155595952Y-87057142D01*
G04 #@! TO.C,U2*
X141845800Y-115912380D02*
X141845800Y-116150476D01*
X141607704Y-116055238D02*
X141845800Y-116150476D01*
X142083895Y-116055238D01*
X141702942Y-116340952D02*
X141845800Y-116150476D01*
X141988657Y-116340952D01*
X141845800Y-115912380D02*
X141845800Y-116150476D01*
X141607704Y-116055238D02*
X141845800Y-116150476D01*
X142083895Y-116055238D01*
X141702942Y-116340952D02*
X141845800Y-116150476D01*
X141988657Y-116340952D01*
G04 #@! TD*
M02*
