G04 #@! TF.GenerationSoftware,KiCad,Pcbnew,5.1.6-c6e7f7d~87~ubuntu19.10.1*
G04 #@! TF.CreationDate,2021-03-17T15:36:07-04:00*
G04 #@! TF.ProjectId,icarus,69636172-7573-42e6-9b69-6361645f7063,V1.0*
G04 #@! TF.SameCoordinates,Original*
G04 #@! TF.FileFunction,Soldermask,Top*
G04 #@! TF.FilePolarity,Negative*
%FSLAX46Y46*%
G04 Gerber Fmt 4.6, Leading zero omitted, Abs format (unit mm)*
G04 Created by KiCad (PCBNEW 5.1.6-c6e7f7d~87~ubuntu19.10.1) date 2021-03-17 15:36:07*
%MOMM*%
%LPD*%
G01*
G04 APERTURE LIST*
%ADD10R,1.293800X0.404800*%
%ADD11R,0.404800X1.293800*%
%ADD12O,1.300000X1.850000*%
%ADD13R,1.651000X0.711200*%
%ADD14C,4.817600*%
%ADD15C,3.101600*%
%ADD16R,3.910000X2.106600*%
%ADD17R,9.091600X11.606200*%
%ADD18R,0.863600X0.355600*%
%ADD19O,1.150000X1.350000*%
%ADD20R,0.500000X1.450000*%
%ADD21O,1.100000X2.000000*%
%ADD22R,3.000000X2.000000*%
%ADD23R,0.975000X2.000000*%
%ADD24R,1.751000X2.284400*%
%ADD25R,0.800000X0.600000*%
%ADD26C,4.800000*%
%ADD27R,0.901600X1.001600*%
%ADD28R,0.740000X1.440000*%
%ADD29R,0.950000X0.400000*%
%ADD30R,5.410200X4.241800*%
%ADD31R,1.447800X1.447800*%
%ADD32R,1.498600X0.533400*%
%ADD33R,1.100000X0.650000*%
%ADD34O,1.850000X1.300000*%
%ADD35R,1.371600X1.371600*%
G04 APERTURE END LIST*
D10*
G04 #@! TO.C,U2*
X142349999Y-116050000D03*
X142349999Y-115550001D03*
X142349999Y-115049999D03*
X142349999Y-114550000D03*
X142349999Y-114050001D03*
X142349999Y-113550000D03*
X142349999Y-113050000D03*
X142349999Y-112549999D03*
X142349999Y-112050000D03*
X142349999Y-111550001D03*
X142349999Y-111049999D03*
X142349999Y-110550000D03*
D11*
X140850000Y-109050001D03*
X140350001Y-109050001D03*
X139849999Y-109050001D03*
X139350000Y-109050001D03*
X138850001Y-109050001D03*
X138350000Y-109050001D03*
X137850000Y-109050001D03*
X137349999Y-109050001D03*
X136850000Y-109050001D03*
X136350001Y-109050001D03*
X135849999Y-109050001D03*
X135350000Y-109050001D03*
D10*
X133850001Y-110550000D03*
X133850001Y-111049999D03*
X133850001Y-111550001D03*
X133850001Y-112050000D03*
X133850001Y-112549999D03*
X133850001Y-113050000D03*
X133850001Y-113550000D03*
X133850001Y-114050001D03*
X133850001Y-114550000D03*
X133850001Y-115049999D03*
X133850001Y-115550001D03*
X133850001Y-116050000D03*
D11*
X135350000Y-117549999D03*
X135849999Y-117549999D03*
X136350001Y-117549999D03*
X136850000Y-117549999D03*
X137349999Y-117549999D03*
X137850000Y-117549999D03*
X138350000Y-117549999D03*
X138850001Y-117549999D03*
X139350000Y-117549999D03*
X139849999Y-117549999D03*
X140350001Y-117549999D03*
X140850000Y-117549999D03*
G04 #@! TD*
G04 #@! TO.C,J3*
G36*
G01*
X130650000Y-121654168D02*
X130650000Y-120345832D01*
G75*
G02*
X130920832Y-120075000I270832J0D01*
G01*
X131679168Y-120075000D01*
G75*
G02*
X131950000Y-120345832I0J-270832D01*
G01*
X131950000Y-121654168D01*
G75*
G02*
X131679168Y-121925000I-270832J0D01*
G01*
X130920832Y-121925000D01*
G75*
G02*
X130650000Y-121654168I0J270832D01*
G01*
G37*
D12*
X133300000Y-121000000D03*
X135300000Y-121000000D03*
X137300000Y-121000000D03*
X139300000Y-121000000D03*
X141300000Y-121000000D03*
G04 #@! TD*
G04 #@! TO.C,R15*
G36*
G01*
X145235000Y-82627500D02*
X145235000Y-83022500D01*
G75*
G02*
X145062500Y-83195000I-172500J0D01*
G01*
X144717500Y-83195000D01*
G75*
G02*
X144545000Y-83022500I0J172500D01*
G01*
X144545000Y-82627500D01*
G75*
G02*
X144717500Y-82455000I172500J0D01*
G01*
X145062500Y-82455000D01*
G75*
G02*
X145235000Y-82627500I0J-172500D01*
G01*
G37*
G36*
G01*
X146205000Y-82627500D02*
X146205000Y-83022500D01*
G75*
G02*
X146032500Y-83195000I-172500J0D01*
G01*
X145687500Y-83195000D01*
G75*
G02*
X145515000Y-83022500I0J172500D01*
G01*
X145515000Y-82627500D01*
G75*
G02*
X145687500Y-82455000I172500J0D01*
G01*
X146032500Y-82455000D01*
G75*
G02*
X146205000Y-82627500I0J-172500D01*
G01*
G37*
G04 #@! TD*
G04 #@! TO.C,R7*
G36*
G01*
X137472500Y-80405000D02*
X137867500Y-80405000D01*
G75*
G02*
X138040000Y-80577500I0J-172500D01*
G01*
X138040000Y-80922500D01*
G75*
G02*
X137867500Y-81095000I-172500J0D01*
G01*
X137472500Y-81095000D01*
G75*
G02*
X137300000Y-80922500I0J172500D01*
G01*
X137300000Y-80577500D01*
G75*
G02*
X137472500Y-80405000I172500J0D01*
G01*
G37*
G36*
G01*
X137472500Y-81375000D02*
X137867500Y-81375000D01*
G75*
G02*
X138040000Y-81547500I0J-172500D01*
G01*
X138040000Y-81892500D01*
G75*
G02*
X137867500Y-82065000I-172500J0D01*
G01*
X137472500Y-82065000D01*
G75*
G02*
X137300000Y-81892500I0J172500D01*
G01*
X137300000Y-81547500D01*
G75*
G02*
X137472500Y-81375000I172500J0D01*
G01*
G37*
G04 #@! TD*
G04 #@! TO.C,R16*
G36*
G01*
X136867500Y-83685000D02*
X136472500Y-83685000D01*
G75*
G02*
X136300000Y-83512500I0J172500D01*
G01*
X136300000Y-83167500D01*
G75*
G02*
X136472500Y-82995000I172500J0D01*
G01*
X136867500Y-82995000D01*
G75*
G02*
X137040000Y-83167500I0J-172500D01*
G01*
X137040000Y-83512500D01*
G75*
G02*
X136867500Y-83685000I-172500J0D01*
G01*
G37*
G36*
G01*
X136867500Y-84655000D02*
X136472500Y-84655000D01*
G75*
G02*
X136300000Y-84482500I0J172500D01*
G01*
X136300000Y-84137500D01*
G75*
G02*
X136472500Y-83965000I172500J0D01*
G01*
X136867500Y-83965000D01*
G75*
G02*
X137040000Y-84137500I0J-172500D01*
G01*
X137040000Y-84482500D01*
G75*
G02*
X136867500Y-84655000I-172500J0D01*
G01*
G37*
G04 #@! TD*
G04 #@! TO.C,R9*
G36*
G01*
X136857500Y-82065000D02*
X136462500Y-82065000D01*
G75*
G02*
X136290000Y-81892500I0J172500D01*
G01*
X136290000Y-81547500D01*
G75*
G02*
X136462500Y-81375000I172500J0D01*
G01*
X136857500Y-81375000D01*
G75*
G02*
X137030000Y-81547500I0J-172500D01*
G01*
X137030000Y-81892500D01*
G75*
G02*
X136857500Y-82065000I-172500J0D01*
G01*
G37*
G36*
G01*
X136857500Y-81095000D02*
X136462500Y-81095000D01*
G75*
G02*
X136290000Y-80922500I0J172500D01*
G01*
X136290000Y-80577500D01*
G75*
G02*
X136462500Y-80405000I172500J0D01*
G01*
X136857500Y-80405000D01*
G75*
G02*
X137030000Y-80577500I0J-172500D01*
G01*
X137030000Y-80922500D01*
G75*
G02*
X136857500Y-81095000I-172500J0D01*
G01*
G37*
G04 #@! TD*
G04 #@! TO.C,C14*
G36*
G01*
X137130000Y-85707500D02*
X137130000Y-85312500D01*
G75*
G02*
X137302500Y-85140000I172500J0D01*
G01*
X137647500Y-85140000D01*
G75*
G02*
X137820000Y-85312500I0J-172500D01*
G01*
X137820000Y-85707500D01*
G75*
G02*
X137647500Y-85880000I-172500J0D01*
G01*
X137302500Y-85880000D01*
G75*
G02*
X137130000Y-85707500I0J172500D01*
G01*
G37*
G36*
G01*
X136160000Y-85707500D02*
X136160000Y-85312500D01*
G75*
G02*
X136332500Y-85140000I172500J0D01*
G01*
X136677500Y-85140000D01*
G75*
G02*
X136850000Y-85312500I0J-172500D01*
G01*
X136850000Y-85707500D01*
G75*
G02*
X136677500Y-85880000I-172500J0D01*
G01*
X136332500Y-85880000D01*
G75*
G02*
X136160000Y-85707500I0J172500D01*
G01*
G37*
G04 #@! TD*
G04 #@! TO.C,R14*
G36*
G01*
X137472500Y-83000000D02*
X137867500Y-83000000D01*
G75*
G02*
X138040000Y-83172500I0J-172500D01*
G01*
X138040000Y-83517500D01*
G75*
G02*
X137867500Y-83690000I-172500J0D01*
G01*
X137472500Y-83690000D01*
G75*
G02*
X137300000Y-83517500I0J172500D01*
G01*
X137300000Y-83172500D01*
G75*
G02*
X137472500Y-83000000I172500J0D01*
G01*
G37*
G36*
G01*
X137472500Y-83970000D02*
X137867500Y-83970000D01*
G75*
G02*
X138040000Y-84142500I0J-172500D01*
G01*
X138040000Y-84487500D01*
G75*
G02*
X137867500Y-84660000I-172500J0D01*
G01*
X137472500Y-84660000D01*
G75*
G02*
X137300000Y-84487500I0J172500D01*
G01*
X137300000Y-84142500D01*
G75*
G02*
X137472500Y-83970000I172500J0D01*
G01*
G37*
G04 #@! TD*
D13*
G04 #@! TO.C,U3*
X130970000Y-112945000D03*
X130970000Y-111675000D03*
X130970000Y-110405000D03*
X130970000Y-109135000D03*
X125570000Y-109135000D03*
X125570000Y-110405000D03*
X125570000Y-111675000D03*
X125570000Y-112945000D03*
G04 #@! TD*
D14*
G04 #@! TO.C,U4*
X135800000Y-91210000D03*
X135800000Y-102110000D03*
D15*
X126400000Y-106110000D03*
X126400000Y-87210000D03*
G04 #@! TD*
D16*
G04 #@! TO.C,MOSFET5*
X162530399Y-101845000D03*
X162530399Y-96765000D03*
D17*
X151430398Y-99305000D03*
G04 #@! TD*
D16*
G04 #@! TO.C,MOSFET1*
X162505001Y-114765000D03*
X162505001Y-109685000D03*
D17*
X151405000Y-112225000D03*
G04 #@! TD*
D18*
G04 #@! TO.C,U15*
X156694400Y-118170000D03*
X156694400Y-118728800D03*
X157685000Y-118728800D03*
X157685000Y-118170000D03*
G04 #@! TD*
G04 #@! TO.C,C17*
G36*
G01*
X158747500Y-118890000D02*
X159142500Y-118890000D01*
G75*
G02*
X159315000Y-119062500I0J-172500D01*
G01*
X159315000Y-119407500D01*
G75*
G02*
X159142500Y-119580000I-172500J0D01*
G01*
X158747500Y-119580000D01*
G75*
G02*
X158575000Y-119407500I0J172500D01*
G01*
X158575000Y-119062500D01*
G75*
G02*
X158747500Y-118890000I172500J0D01*
G01*
G37*
G36*
G01*
X158747500Y-117920000D02*
X159142500Y-117920000D01*
G75*
G02*
X159315000Y-118092500I0J-172500D01*
G01*
X159315000Y-118437500D01*
G75*
G02*
X159142500Y-118610000I-172500J0D01*
G01*
X158747500Y-118610000D01*
G75*
G02*
X158575000Y-118437500I0J172500D01*
G01*
X158575000Y-118092500D01*
G75*
G02*
X158747500Y-117920000I172500J0D01*
G01*
G37*
G04 #@! TD*
D19*
G04 #@! TO.C,J4*
X121355000Y-119930000D03*
D20*
X122280000Y-120255000D03*
X122930000Y-120255000D03*
X123580000Y-120255000D03*
X124880000Y-120255000D03*
D19*
X125805000Y-119930000D03*
D21*
X119405000Y-122930000D03*
X127755000Y-122930000D03*
D20*
X124230000Y-120255000D03*
D22*
X123580000Y-122930000D03*
D23*
X127317500Y-122930000D03*
X119842500Y-122930000D03*
G04 #@! TD*
G04 #@! TO.C,U8*
G36*
G01*
X139254200Y-86883100D02*
X139254200Y-86596900D01*
G75*
G02*
X139301900Y-86549200I47700J0D01*
G01*
X140778100Y-86549200D01*
G75*
G02*
X140825800Y-86596900I0J-47700D01*
G01*
X140825800Y-86883100D01*
G75*
G02*
X140778100Y-86930800I-47700J0D01*
G01*
X139301900Y-86930800D01*
G75*
G02*
X139254200Y-86883100I0J47700D01*
G01*
G37*
G36*
G01*
X139254200Y-87383100D02*
X139254200Y-87096900D01*
G75*
G02*
X139301900Y-87049200I47700J0D01*
G01*
X140778100Y-87049200D01*
G75*
G02*
X140825800Y-87096900I0J-47700D01*
G01*
X140825800Y-87383100D01*
G75*
G02*
X140778100Y-87430800I-47700J0D01*
G01*
X139301900Y-87430800D01*
G75*
G02*
X139254200Y-87383100I0J47700D01*
G01*
G37*
G36*
G01*
X139254200Y-87883100D02*
X139254200Y-87596900D01*
G75*
G02*
X139301900Y-87549200I47700J0D01*
G01*
X140778100Y-87549200D01*
G75*
G02*
X140825800Y-87596900I0J-47700D01*
G01*
X140825800Y-87883100D01*
G75*
G02*
X140778100Y-87930800I-47700J0D01*
G01*
X139301900Y-87930800D01*
G75*
G02*
X139254200Y-87883100I0J47700D01*
G01*
G37*
G36*
G01*
X139254200Y-88383100D02*
X139254200Y-88096900D01*
G75*
G02*
X139301900Y-88049200I47700J0D01*
G01*
X140778100Y-88049200D01*
G75*
G02*
X140825800Y-88096900I0J-47700D01*
G01*
X140825800Y-88383100D01*
G75*
G02*
X140778100Y-88430800I-47700J0D01*
G01*
X139301900Y-88430800D01*
G75*
G02*
X139254200Y-88383100I0J47700D01*
G01*
G37*
G36*
G01*
X139254200Y-88883100D02*
X139254200Y-88596900D01*
G75*
G02*
X139301900Y-88549200I47700J0D01*
G01*
X140778100Y-88549200D01*
G75*
G02*
X140825800Y-88596900I0J-47700D01*
G01*
X140825800Y-88883100D01*
G75*
G02*
X140778100Y-88930800I-47700J0D01*
G01*
X139301900Y-88930800D01*
G75*
G02*
X139254200Y-88883100I0J47700D01*
G01*
G37*
G36*
G01*
X143554200Y-88883100D02*
X143554200Y-88596900D01*
G75*
G02*
X143601900Y-88549200I47700J0D01*
G01*
X145078100Y-88549200D01*
G75*
G02*
X145125800Y-88596900I0J-47700D01*
G01*
X145125800Y-88883100D01*
G75*
G02*
X145078100Y-88930800I-47700J0D01*
G01*
X143601900Y-88930800D01*
G75*
G02*
X143554200Y-88883100I0J47700D01*
G01*
G37*
G36*
G01*
X143554200Y-88383100D02*
X143554200Y-88096900D01*
G75*
G02*
X143601900Y-88049200I47700J0D01*
G01*
X145078100Y-88049200D01*
G75*
G02*
X145125800Y-88096900I0J-47700D01*
G01*
X145125800Y-88383100D01*
G75*
G02*
X145078100Y-88430800I-47700J0D01*
G01*
X143601900Y-88430800D01*
G75*
G02*
X143554200Y-88383100I0J47700D01*
G01*
G37*
G36*
G01*
X143554200Y-87883100D02*
X143554200Y-87596900D01*
G75*
G02*
X143601900Y-87549200I47700J0D01*
G01*
X145078100Y-87549200D01*
G75*
G02*
X145125800Y-87596900I0J-47700D01*
G01*
X145125800Y-87883100D01*
G75*
G02*
X145078100Y-87930800I-47700J0D01*
G01*
X143601900Y-87930800D01*
G75*
G02*
X143554200Y-87883100I0J47700D01*
G01*
G37*
G36*
G01*
X143554200Y-87383100D02*
X143554200Y-87096900D01*
G75*
G02*
X143601900Y-87049200I47700J0D01*
G01*
X145078100Y-87049200D01*
G75*
G02*
X145125800Y-87096900I0J-47700D01*
G01*
X145125800Y-87383100D01*
G75*
G02*
X145078100Y-87430800I-47700J0D01*
G01*
X143601900Y-87430800D01*
G75*
G02*
X143554200Y-87383100I0J47700D01*
G01*
G37*
G36*
G01*
X143554200Y-86883100D02*
X143554200Y-86596900D01*
G75*
G02*
X143601900Y-86549200I47700J0D01*
G01*
X145078100Y-86549200D01*
G75*
G02*
X145125800Y-86596900I0J-47700D01*
G01*
X145125800Y-86883100D01*
G75*
G02*
X145078100Y-86930800I-47700J0D01*
G01*
X143601900Y-86930800D01*
G75*
G02*
X143554200Y-86883100I0J47700D01*
G01*
G37*
G04 #@! TD*
G04 #@! TO.C,C1*
G36*
G01*
X127440000Y-114557500D02*
X127440000Y-114162500D01*
G75*
G02*
X127612500Y-113990000I172500J0D01*
G01*
X127957500Y-113990000D01*
G75*
G02*
X128130000Y-114162500I0J-172500D01*
G01*
X128130000Y-114557500D01*
G75*
G02*
X127957500Y-114730000I-172500J0D01*
G01*
X127612500Y-114730000D01*
G75*
G02*
X127440000Y-114557500I0J172500D01*
G01*
G37*
G36*
G01*
X128410000Y-114557500D02*
X128410000Y-114162500D01*
G75*
G02*
X128582500Y-113990000I172500J0D01*
G01*
X128927500Y-113990000D01*
G75*
G02*
X129100000Y-114162500I0J-172500D01*
G01*
X129100000Y-114557500D01*
G75*
G02*
X128927500Y-114730000I-172500J0D01*
G01*
X128582500Y-114730000D01*
G75*
G02*
X128410000Y-114557500I0J172500D01*
G01*
G37*
G04 #@! TD*
G04 #@! TO.C,C2*
G36*
G01*
X133060000Y-81781250D02*
X133060000Y-80818750D01*
G75*
G02*
X133328750Y-80550000I268750J0D01*
G01*
X133866250Y-80550000D01*
G75*
G02*
X134135000Y-80818750I0J-268750D01*
G01*
X134135000Y-81781250D01*
G75*
G02*
X133866250Y-82050000I-268750J0D01*
G01*
X133328750Y-82050000D01*
G75*
G02*
X133060000Y-81781250I0J268750D01*
G01*
G37*
G36*
G01*
X131185000Y-81781250D02*
X131185000Y-80818750D01*
G75*
G02*
X131453750Y-80550000I268750J0D01*
G01*
X131991250Y-80550000D01*
G75*
G02*
X132260000Y-80818750I0J-268750D01*
G01*
X132260000Y-81781250D01*
G75*
G02*
X131991250Y-82050000I-268750J0D01*
G01*
X131453750Y-82050000D01*
G75*
G02*
X131185000Y-81781250I0J268750D01*
G01*
G37*
G04 #@! TD*
G04 #@! TO.C,C3*
G36*
G01*
X124385000Y-85147500D02*
X124385000Y-84752500D01*
G75*
G02*
X124557500Y-84580000I172500J0D01*
G01*
X124902500Y-84580000D01*
G75*
G02*
X125075000Y-84752500I0J-172500D01*
G01*
X125075000Y-85147500D01*
G75*
G02*
X124902500Y-85320000I-172500J0D01*
G01*
X124557500Y-85320000D01*
G75*
G02*
X124385000Y-85147500I0J172500D01*
G01*
G37*
G36*
G01*
X125355000Y-85147500D02*
X125355000Y-84752500D01*
G75*
G02*
X125527500Y-84580000I172500J0D01*
G01*
X125872500Y-84580000D01*
G75*
G02*
X126045000Y-84752500I0J-172500D01*
G01*
X126045000Y-85147500D01*
G75*
G02*
X125872500Y-85320000I-172500J0D01*
G01*
X125527500Y-85320000D01*
G75*
G02*
X125355000Y-85147500I0J172500D01*
G01*
G37*
G04 #@! TD*
G04 #@! TO.C,C4*
G36*
G01*
X123741250Y-84695000D02*
X122778750Y-84695000D01*
G75*
G02*
X122510000Y-84426250I0J268750D01*
G01*
X122510000Y-83888750D01*
G75*
G02*
X122778750Y-83620000I268750J0D01*
G01*
X123741250Y-83620000D01*
G75*
G02*
X124010000Y-83888750I0J-268750D01*
G01*
X124010000Y-84426250D01*
G75*
G02*
X123741250Y-84695000I-268750J0D01*
G01*
G37*
G36*
G01*
X123741250Y-82820000D02*
X122778750Y-82820000D01*
G75*
G02*
X122510000Y-82551250I0J268750D01*
G01*
X122510000Y-82013750D01*
G75*
G02*
X122778750Y-81745000I268750J0D01*
G01*
X123741250Y-81745000D01*
G75*
G02*
X124010000Y-82013750I0J-268750D01*
G01*
X124010000Y-82551250D01*
G75*
G02*
X123741250Y-82820000I-268750J0D01*
G01*
G37*
G04 #@! TD*
G04 #@! TO.C,C6*
G36*
G01*
X144260000Y-85252500D02*
X144260000Y-85647500D01*
G75*
G02*
X144087500Y-85820000I-172500J0D01*
G01*
X143742500Y-85820000D01*
G75*
G02*
X143570000Y-85647500I0J172500D01*
G01*
X143570000Y-85252500D01*
G75*
G02*
X143742500Y-85080000I172500J0D01*
G01*
X144087500Y-85080000D01*
G75*
G02*
X144260000Y-85252500I0J-172500D01*
G01*
G37*
G36*
G01*
X145230000Y-85252500D02*
X145230000Y-85647500D01*
G75*
G02*
X145057500Y-85820000I-172500J0D01*
G01*
X144712500Y-85820000D01*
G75*
G02*
X144540000Y-85647500I0J172500D01*
G01*
X144540000Y-85252500D01*
G75*
G02*
X144712500Y-85080000I172500J0D01*
G01*
X145057500Y-85080000D01*
G75*
G02*
X145230000Y-85252500I0J-172500D01*
G01*
G37*
G04 #@! TD*
G04 #@! TO.C,C7*
G36*
G01*
X161418750Y-118062500D02*
X162381250Y-118062500D01*
G75*
G02*
X162650000Y-118331250I0J-268750D01*
G01*
X162650000Y-118868750D01*
G75*
G02*
X162381250Y-119137500I-268750J0D01*
G01*
X161418750Y-119137500D01*
G75*
G02*
X161150000Y-118868750I0J268750D01*
G01*
X161150000Y-118331250D01*
G75*
G02*
X161418750Y-118062500I268750J0D01*
G01*
G37*
G36*
G01*
X161418750Y-119937500D02*
X162381250Y-119937500D01*
G75*
G02*
X162650000Y-120206250I0J-268750D01*
G01*
X162650000Y-120743750D01*
G75*
G02*
X162381250Y-121012500I-268750J0D01*
G01*
X161418750Y-121012500D01*
G75*
G02*
X161150000Y-120743750I0J268750D01*
G01*
X161150000Y-120206250D01*
G75*
G02*
X161418750Y-119937500I268750J0D01*
G01*
G37*
G04 #@! TD*
G04 #@! TO.C,C8*
G36*
G01*
X136755000Y-107547500D02*
X136755000Y-107152500D01*
G75*
G02*
X136927500Y-106980000I172500J0D01*
G01*
X137272500Y-106980000D01*
G75*
G02*
X137445000Y-107152500I0J-172500D01*
G01*
X137445000Y-107547500D01*
G75*
G02*
X137272500Y-107720000I-172500J0D01*
G01*
X136927500Y-107720000D01*
G75*
G02*
X136755000Y-107547500I0J172500D01*
G01*
G37*
G36*
G01*
X135785000Y-107547500D02*
X135785000Y-107152500D01*
G75*
G02*
X135957500Y-106980000I172500J0D01*
G01*
X136302500Y-106980000D01*
G75*
G02*
X136475000Y-107152500I0J-172500D01*
G01*
X136475000Y-107547500D01*
G75*
G02*
X136302500Y-107720000I-172500J0D01*
G01*
X135957500Y-107720000D01*
G75*
G02*
X135785000Y-107547500I0J172500D01*
G01*
G37*
G04 #@! TD*
G04 #@! TO.C,C9*
G36*
G01*
X143135000Y-117337500D02*
X143135000Y-116942500D01*
G75*
G02*
X143307500Y-116770000I172500J0D01*
G01*
X143652500Y-116770000D01*
G75*
G02*
X143825000Y-116942500I0J-172500D01*
G01*
X143825000Y-117337500D01*
G75*
G02*
X143652500Y-117510000I-172500J0D01*
G01*
X143307500Y-117510000D01*
G75*
G02*
X143135000Y-117337500I0J172500D01*
G01*
G37*
G36*
G01*
X142165000Y-117337500D02*
X142165000Y-116942500D01*
G75*
G02*
X142337500Y-116770000I172500J0D01*
G01*
X142682500Y-116770000D01*
G75*
G02*
X142855000Y-116942500I0J-172500D01*
G01*
X142855000Y-117337500D01*
G75*
G02*
X142682500Y-117510000I-172500J0D01*
G01*
X142337500Y-117510000D01*
G75*
G02*
X142165000Y-117337500I0J172500D01*
G01*
G37*
G04 #@! TD*
G04 #@! TO.C,C10*
G36*
G01*
X134397500Y-109145000D02*
X134002500Y-109145000D01*
G75*
G02*
X133830000Y-108972500I0J172500D01*
G01*
X133830000Y-108627500D01*
G75*
G02*
X134002500Y-108455000I172500J0D01*
G01*
X134397500Y-108455000D01*
G75*
G02*
X134570000Y-108627500I0J-172500D01*
G01*
X134570000Y-108972500D01*
G75*
G02*
X134397500Y-109145000I-172500J0D01*
G01*
G37*
G36*
G01*
X134397500Y-108175000D02*
X134002500Y-108175000D01*
G75*
G02*
X133830000Y-108002500I0J172500D01*
G01*
X133830000Y-107657500D01*
G75*
G02*
X134002500Y-107485000I172500J0D01*
G01*
X134397500Y-107485000D01*
G75*
G02*
X134570000Y-107657500I0J-172500D01*
G01*
X134570000Y-108002500D01*
G75*
G02*
X134397500Y-108175000I-172500J0D01*
G01*
G37*
G04 #@! TD*
G04 #@! TO.C,C11*
G36*
G01*
X133377500Y-108175000D02*
X132982500Y-108175000D01*
G75*
G02*
X132810000Y-108002500I0J172500D01*
G01*
X132810000Y-107657500D01*
G75*
G02*
X132982500Y-107485000I172500J0D01*
G01*
X133377500Y-107485000D01*
G75*
G02*
X133550000Y-107657500I0J-172500D01*
G01*
X133550000Y-108002500D01*
G75*
G02*
X133377500Y-108175000I-172500J0D01*
G01*
G37*
G36*
G01*
X133377500Y-109145000D02*
X132982500Y-109145000D01*
G75*
G02*
X132810000Y-108972500I0J172500D01*
G01*
X132810000Y-108627500D01*
G75*
G02*
X132982500Y-108455000I172500J0D01*
G01*
X133377500Y-108455000D01*
G75*
G02*
X133550000Y-108627500I0J-172500D01*
G01*
X133550000Y-108972500D01*
G75*
G02*
X133377500Y-109145000I-172500J0D01*
G01*
G37*
G04 #@! TD*
G04 #@! TO.C,C12*
G36*
G01*
X132357500Y-117000000D02*
X131962500Y-117000000D01*
G75*
G02*
X131790000Y-116827500I0J172500D01*
G01*
X131790000Y-116482500D01*
G75*
G02*
X131962500Y-116310000I172500J0D01*
G01*
X132357500Y-116310000D01*
G75*
G02*
X132530000Y-116482500I0J-172500D01*
G01*
X132530000Y-116827500D01*
G75*
G02*
X132357500Y-117000000I-172500J0D01*
G01*
G37*
G36*
G01*
X132357500Y-116030000D02*
X131962500Y-116030000D01*
G75*
G02*
X131790000Y-115857500I0J172500D01*
G01*
X131790000Y-115512500D01*
G75*
G02*
X131962500Y-115340000I172500J0D01*
G01*
X132357500Y-115340000D01*
G75*
G02*
X132530000Y-115512500I0J-172500D01*
G01*
X132530000Y-115857500D01*
G75*
G02*
X132357500Y-116030000I-172500J0D01*
G01*
G37*
G04 #@! TD*
G04 #@! TO.C,C13*
G36*
G01*
X141565000Y-118337500D02*
X141565000Y-117942500D01*
G75*
G02*
X141737500Y-117770000I172500J0D01*
G01*
X142082500Y-117770000D01*
G75*
G02*
X142255000Y-117942500I0J-172500D01*
G01*
X142255000Y-118337500D01*
G75*
G02*
X142082500Y-118510000I-172500J0D01*
G01*
X141737500Y-118510000D01*
G75*
G02*
X141565000Y-118337500I0J172500D01*
G01*
G37*
G36*
G01*
X142535000Y-118337500D02*
X142535000Y-117942500D01*
G75*
G02*
X142707500Y-117770000I172500J0D01*
G01*
X143052500Y-117770000D01*
G75*
G02*
X143225000Y-117942500I0J-172500D01*
G01*
X143225000Y-118337500D01*
G75*
G02*
X143052500Y-118510000I-172500J0D01*
G01*
X142707500Y-118510000D01*
G75*
G02*
X142535000Y-118337500I0J172500D01*
G01*
G37*
G04 #@! TD*
G04 #@! TO.C,C15*
G36*
G01*
X141950000Y-106187500D02*
X141950000Y-105792500D01*
G75*
G02*
X142122500Y-105620000I172500J0D01*
G01*
X142467500Y-105620000D01*
G75*
G02*
X142640000Y-105792500I0J-172500D01*
G01*
X142640000Y-106187500D01*
G75*
G02*
X142467500Y-106360000I-172500J0D01*
G01*
X142122500Y-106360000D01*
G75*
G02*
X141950000Y-106187500I0J172500D01*
G01*
G37*
G36*
G01*
X142920000Y-106187500D02*
X142920000Y-105792500D01*
G75*
G02*
X143092500Y-105620000I172500J0D01*
G01*
X143437500Y-105620000D01*
G75*
G02*
X143610000Y-105792500I0J-172500D01*
G01*
X143610000Y-106187500D01*
G75*
G02*
X143437500Y-106360000I-172500J0D01*
G01*
X143092500Y-106360000D01*
G75*
G02*
X142920000Y-106187500I0J172500D01*
G01*
G37*
G04 #@! TD*
G04 #@! TO.C,C16*
G36*
G01*
X139872500Y-107665000D02*
X139477500Y-107665000D01*
G75*
G02*
X139305000Y-107492500I0J172500D01*
G01*
X139305000Y-107147500D01*
G75*
G02*
X139477500Y-106975000I172500J0D01*
G01*
X139872500Y-106975000D01*
G75*
G02*
X140045000Y-107147500I0J-172500D01*
G01*
X140045000Y-107492500D01*
G75*
G02*
X139872500Y-107665000I-172500J0D01*
G01*
G37*
G36*
G01*
X139872500Y-106695000D02*
X139477500Y-106695000D01*
G75*
G02*
X139305000Y-106522500I0J172500D01*
G01*
X139305000Y-106177500D01*
G75*
G02*
X139477500Y-106005000I172500J0D01*
G01*
X139872500Y-106005000D01*
G75*
G02*
X140045000Y-106177500I0J-172500D01*
G01*
X140045000Y-106522500D01*
G75*
G02*
X139872500Y-106695000I-172500J0D01*
G01*
G37*
G04 #@! TD*
G04 #@! TO.C,C18*
G36*
G01*
X147925000Y-123447500D02*
X147925000Y-123052500D01*
G75*
G02*
X148097500Y-122880000I172500J0D01*
G01*
X148442500Y-122880000D01*
G75*
G02*
X148615000Y-123052500I0J-172500D01*
G01*
X148615000Y-123447500D01*
G75*
G02*
X148442500Y-123620000I-172500J0D01*
G01*
X148097500Y-123620000D01*
G75*
G02*
X147925000Y-123447500I0J172500D01*
G01*
G37*
G36*
G01*
X146955000Y-123447500D02*
X146955000Y-123052500D01*
G75*
G02*
X147127500Y-122880000I172500J0D01*
G01*
X147472500Y-122880000D01*
G75*
G02*
X147645000Y-123052500I0J-172500D01*
G01*
X147645000Y-123447500D01*
G75*
G02*
X147472500Y-123620000I-172500J0D01*
G01*
X147127500Y-123620000D01*
G75*
G02*
X146955000Y-123447500I0J172500D01*
G01*
G37*
G04 #@! TD*
G04 #@! TO.C,C19*
G36*
G01*
X144890000Y-123437500D02*
X144890000Y-123042500D01*
G75*
G02*
X145062500Y-122870000I172500J0D01*
G01*
X145407500Y-122870000D01*
G75*
G02*
X145580000Y-123042500I0J-172500D01*
G01*
X145580000Y-123437500D01*
G75*
G02*
X145407500Y-123610000I-172500J0D01*
G01*
X145062500Y-123610000D01*
G75*
G02*
X144890000Y-123437500I0J172500D01*
G01*
G37*
G36*
G01*
X143920000Y-123437500D02*
X143920000Y-123042500D01*
G75*
G02*
X144092500Y-122870000I172500J0D01*
G01*
X144437500Y-122870000D01*
G75*
G02*
X144610000Y-123042500I0J-172500D01*
G01*
X144610000Y-123437500D01*
G75*
G02*
X144437500Y-123610000I-172500J0D01*
G01*
X144092500Y-123610000D01*
G75*
G02*
X143920000Y-123437500I0J172500D01*
G01*
G37*
G04 #@! TD*
D24*
G04 #@! TO.C,CR1*
X144190000Y-96068200D03*
X144190000Y-99471800D03*
G04 #@! TD*
G04 #@! TO.C,CR2*
X140700000Y-99451800D03*
X140700000Y-96048200D03*
G04 #@! TD*
D25*
G04 #@! TO.C,D1*
X124840000Y-81010000D03*
X126140000Y-81010000D03*
G04 #@! TD*
G04 #@! TO.C,D2*
G36*
G01*
X121188750Y-83712500D02*
X121751250Y-83712500D01*
G75*
G02*
X121995000Y-83956250I0J-243750D01*
G01*
X121995000Y-84443750D01*
G75*
G02*
X121751250Y-84687500I-243750J0D01*
G01*
X121188750Y-84687500D01*
G75*
G02*
X120945000Y-84443750I0J243750D01*
G01*
X120945000Y-83956250D01*
G75*
G02*
X121188750Y-83712500I243750J0D01*
G01*
G37*
G36*
G01*
X121188750Y-82137500D02*
X121751250Y-82137500D01*
G75*
G02*
X121995000Y-82381250I0J-243750D01*
G01*
X121995000Y-82868750D01*
G75*
G02*
X121751250Y-83112500I-243750J0D01*
G01*
X121188750Y-83112500D01*
G75*
G02*
X120945000Y-82868750I0J243750D01*
G01*
X120945000Y-82381250D01*
G75*
G02*
X121188750Y-82137500I243750J0D01*
G01*
G37*
G04 #@! TD*
G04 #@! TO.C,D3*
G36*
G01*
X118898750Y-83712500D02*
X119461250Y-83712500D01*
G75*
G02*
X119705000Y-83956250I0J-243750D01*
G01*
X119705000Y-84443750D01*
G75*
G02*
X119461250Y-84687500I-243750J0D01*
G01*
X118898750Y-84687500D01*
G75*
G02*
X118655000Y-84443750I0J243750D01*
G01*
X118655000Y-83956250D01*
G75*
G02*
X118898750Y-83712500I243750J0D01*
G01*
G37*
G36*
G01*
X118898750Y-82137500D02*
X119461250Y-82137500D01*
G75*
G02*
X119705000Y-82381250I0J-243750D01*
G01*
X119705000Y-82868750D01*
G75*
G02*
X119461250Y-83112500I-243750J0D01*
G01*
X118898750Y-83112500D01*
G75*
G02*
X118655000Y-82868750I0J243750D01*
G01*
X118655000Y-82381250D01*
G75*
G02*
X118898750Y-82137500I243750J0D01*
G01*
G37*
G04 #@! TD*
G04 #@! TO.C,D4*
G36*
G01*
X157487500Y-122671250D02*
X157487500Y-122108750D01*
G75*
G02*
X157731250Y-121865000I243750J0D01*
G01*
X158218750Y-121865000D01*
G75*
G02*
X158462500Y-122108750I0J-243750D01*
G01*
X158462500Y-122671250D01*
G75*
G02*
X158218750Y-122915000I-243750J0D01*
G01*
X157731250Y-122915000D01*
G75*
G02*
X157487500Y-122671250I0J243750D01*
G01*
G37*
G36*
G01*
X159062500Y-122671250D02*
X159062500Y-122108750D01*
G75*
G02*
X159306250Y-121865000I243750J0D01*
G01*
X159793750Y-121865000D01*
G75*
G02*
X160037500Y-122108750I0J-243750D01*
G01*
X160037500Y-122671250D01*
G75*
G02*
X159793750Y-122915000I-243750J0D01*
G01*
X159306250Y-122915000D01*
G75*
G02*
X159062500Y-122671250I0J243750D01*
G01*
G37*
G04 #@! TD*
G04 #@! TO.C,D5*
G36*
G01*
X157482500Y-120711250D02*
X157482500Y-120148750D01*
G75*
G02*
X157726250Y-119905000I243750J0D01*
G01*
X158213750Y-119905000D01*
G75*
G02*
X158457500Y-120148750I0J-243750D01*
G01*
X158457500Y-120711250D01*
G75*
G02*
X158213750Y-120955000I-243750J0D01*
G01*
X157726250Y-120955000D01*
G75*
G02*
X157482500Y-120711250I0J243750D01*
G01*
G37*
G36*
G01*
X159057500Y-120711250D02*
X159057500Y-120148750D01*
G75*
G02*
X159301250Y-119905000I243750J0D01*
G01*
X159788750Y-119905000D01*
G75*
G02*
X160032500Y-120148750I0J-243750D01*
G01*
X160032500Y-120711250D01*
G75*
G02*
X159788750Y-120955000I-243750J0D01*
G01*
X159301250Y-120955000D01*
G75*
G02*
X159057500Y-120711250I0J243750D01*
G01*
G37*
G04 #@! TD*
G04 #@! TO.C,D6*
G36*
G01*
X152782500Y-122701250D02*
X152782500Y-122138750D01*
G75*
G02*
X153026250Y-121895000I243750J0D01*
G01*
X153513750Y-121895000D01*
G75*
G02*
X153757500Y-122138750I0J-243750D01*
G01*
X153757500Y-122701250D01*
G75*
G02*
X153513750Y-122945000I-243750J0D01*
G01*
X153026250Y-122945000D01*
G75*
G02*
X152782500Y-122701250I0J243750D01*
G01*
G37*
G36*
G01*
X154357500Y-122701250D02*
X154357500Y-122138750D01*
G75*
G02*
X154601250Y-121895000I243750J0D01*
G01*
X155088750Y-121895000D01*
G75*
G02*
X155332500Y-122138750I0J-243750D01*
G01*
X155332500Y-122701250D01*
G75*
G02*
X155088750Y-122945000I-243750J0D01*
G01*
X154601250Y-122945000D01*
G75*
G02*
X154357500Y-122701250I0J243750D01*
G01*
G37*
G04 #@! TD*
G04 #@! TO.C,D7*
G36*
G01*
X154352500Y-120741250D02*
X154352500Y-120178750D01*
G75*
G02*
X154596250Y-119935000I243750J0D01*
G01*
X155083750Y-119935000D01*
G75*
G02*
X155327500Y-120178750I0J-243750D01*
G01*
X155327500Y-120741250D01*
G75*
G02*
X155083750Y-120985000I-243750J0D01*
G01*
X154596250Y-120985000D01*
G75*
G02*
X154352500Y-120741250I0J243750D01*
G01*
G37*
G36*
G01*
X152777500Y-120741250D02*
X152777500Y-120178750D01*
G75*
G02*
X153021250Y-119935000I243750J0D01*
G01*
X153508750Y-119935000D01*
G75*
G02*
X153752500Y-120178750I0J-243750D01*
G01*
X153752500Y-120741250D01*
G75*
G02*
X153508750Y-120985000I-243750J0D01*
G01*
X153021250Y-120985000D01*
G75*
G02*
X152777500Y-120741250I0J243750D01*
G01*
G37*
G04 #@! TD*
D26*
G04 #@! TO.C,H1*
X115720000Y-121410000D03*
G04 #@! TD*
G04 #@! TO.C,H2*
X174465000Y-83160000D03*
G04 #@! TD*
G04 #@! TO.C,H3*
X174465000Y-121420000D03*
G04 #@! TD*
G04 #@! TO.C,H4*
X115720000Y-83160000D03*
G04 #@! TD*
G04 #@! TO.C,L1*
G36*
G01*
X128155000Y-81325000D02*
X130365000Y-81325000D01*
G75*
G02*
X130635000Y-81595000I0J-270000D01*
G01*
X130635000Y-82405000D01*
G75*
G02*
X130365000Y-82675000I-270000J0D01*
G01*
X128155000Y-82675000D01*
G75*
G02*
X127885000Y-82405000I0J270000D01*
G01*
X127885000Y-81595000D01*
G75*
G02*
X128155000Y-81325000I270000J0D01*
G01*
G37*
G36*
G01*
X128155000Y-84125000D02*
X130365000Y-84125000D01*
G75*
G02*
X130635000Y-84395000I0J-270000D01*
G01*
X130635000Y-85205000D01*
G75*
G02*
X130365000Y-85475000I-270000J0D01*
G01*
X128155000Y-85475000D01*
G75*
G02*
X127885000Y-85205000I0J270000D01*
G01*
X127885000Y-84395000D01*
G75*
G02*
X128155000Y-84125000I270000J0D01*
G01*
G37*
G04 #@! TD*
D27*
G04 #@! TO.C,MOSFET2*
X142200000Y-82200000D03*
X140300000Y-82200000D03*
X141250000Y-84200000D03*
G04 #@! TD*
D17*
G04 #@! TO.C,MOSFET3*
X151460398Y-87200000D03*
D16*
X162560399Y-84660000D03*
X162560399Y-89740000D03*
G04 #@! TD*
D28*
G04 #@! TO.C,MOSFET4*
X132910000Y-83100000D03*
X133860000Y-85200000D03*
X131960000Y-85200000D03*
G04 #@! TD*
G04 #@! TO.C,R2*
G36*
G01*
X143382500Y-83880000D02*
X143777500Y-83880000D01*
G75*
G02*
X143950000Y-84052500I0J-172500D01*
G01*
X143950000Y-84397500D01*
G75*
G02*
X143777500Y-84570000I-172500J0D01*
G01*
X143382500Y-84570000D01*
G75*
G02*
X143210000Y-84397500I0J172500D01*
G01*
X143210000Y-84052500D01*
G75*
G02*
X143382500Y-83880000I172500J0D01*
G01*
G37*
G36*
G01*
X143382500Y-82910000D02*
X143777500Y-82910000D01*
G75*
G02*
X143950000Y-83082500I0J-172500D01*
G01*
X143950000Y-83427500D01*
G75*
G02*
X143777500Y-83600000I-172500J0D01*
G01*
X143382500Y-83600000D01*
G75*
G02*
X143210000Y-83427500I0J172500D01*
G01*
X143210000Y-83082500D01*
G75*
G02*
X143382500Y-82910000I172500J0D01*
G01*
G37*
G04 #@! TD*
G04 #@! TO.C,R3*
G36*
G01*
X135302500Y-82255000D02*
X135697500Y-82255000D01*
G75*
G02*
X135870000Y-82427500I0J-172500D01*
G01*
X135870000Y-82772500D01*
G75*
G02*
X135697500Y-82945000I-172500J0D01*
G01*
X135302500Y-82945000D01*
G75*
G02*
X135130000Y-82772500I0J172500D01*
G01*
X135130000Y-82427500D01*
G75*
G02*
X135302500Y-82255000I172500J0D01*
G01*
G37*
G36*
G01*
X135302500Y-83225000D02*
X135697500Y-83225000D01*
G75*
G02*
X135870000Y-83397500I0J-172500D01*
G01*
X135870000Y-83742500D01*
G75*
G02*
X135697500Y-83915000I-172500J0D01*
G01*
X135302500Y-83915000D01*
G75*
G02*
X135130000Y-83742500I0J172500D01*
G01*
X135130000Y-83397500D01*
G75*
G02*
X135302500Y-83225000I172500J0D01*
G01*
G37*
G04 #@! TD*
G04 #@! TO.C,R4*
G36*
G01*
X122135000Y-81122500D02*
X122135000Y-81517500D01*
G75*
G02*
X121962500Y-81690000I-172500J0D01*
G01*
X121617500Y-81690000D01*
G75*
G02*
X121445000Y-81517500I0J172500D01*
G01*
X121445000Y-81122500D01*
G75*
G02*
X121617500Y-80950000I172500J0D01*
G01*
X121962500Y-80950000D01*
G75*
G02*
X122135000Y-81122500I0J-172500D01*
G01*
G37*
G36*
G01*
X121165000Y-81122500D02*
X121165000Y-81517500D01*
G75*
G02*
X120992500Y-81690000I-172500J0D01*
G01*
X120647500Y-81690000D01*
G75*
G02*
X120475000Y-81517500I0J172500D01*
G01*
X120475000Y-81122500D01*
G75*
G02*
X120647500Y-80950000I172500J0D01*
G01*
X120992500Y-80950000D01*
G75*
G02*
X121165000Y-81122500I0J-172500D01*
G01*
G37*
G04 #@! TD*
G04 #@! TO.C,R5*
G36*
G01*
X119485000Y-81517500D02*
X119485000Y-81122500D01*
G75*
G02*
X119657500Y-80950000I172500J0D01*
G01*
X120002500Y-80950000D01*
G75*
G02*
X120175000Y-81122500I0J-172500D01*
G01*
X120175000Y-81517500D01*
G75*
G02*
X120002500Y-81690000I-172500J0D01*
G01*
X119657500Y-81690000D01*
G75*
G02*
X119485000Y-81517500I0J172500D01*
G01*
G37*
G36*
G01*
X118515000Y-81517500D02*
X118515000Y-81122500D01*
G75*
G02*
X118687500Y-80950000I172500J0D01*
G01*
X119032500Y-80950000D01*
G75*
G02*
X119205000Y-81122500I0J-172500D01*
G01*
X119205000Y-81517500D01*
G75*
G02*
X119032500Y-81690000I-172500J0D01*
G01*
X118687500Y-81690000D01*
G75*
G02*
X118515000Y-81517500I0J172500D01*
G01*
G37*
G04 #@! TD*
G04 #@! TO.C,R6*
G36*
G01*
X144890000Y-81997500D02*
X144890000Y-81602500D01*
G75*
G02*
X145062500Y-81430000I172500J0D01*
G01*
X145407500Y-81430000D01*
G75*
G02*
X145580000Y-81602500I0J-172500D01*
G01*
X145580000Y-81997500D01*
G75*
G02*
X145407500Y-82170000I-172500J0D01*
G01*
X145062500Y-82170000D01*
G75*
G02*
X144890000Y-81997500I0J172500D01*
G01*
G37*
G36*
G01*
X143920000Y-81997500D02*
X143920000Y-81602500D01*
G75*
G02*
X144092500Y-81430000I172500J0D01*
G01*
X144437500Y-81430000D01*
G75*
G02*
X144610000Y-81602500I0J-172500D01*
G01*
X144610000Y-81997500D01*
G75*
G02*
X144437500Y-82170000I-172500J0D01*
G01*
X144092500Y-82170000D01*
G75*
G02*
X143920000Y-81997500I0J172500D01*
G01*
G37*
G04 #@! TD*
G04 #@! TO.C,R8*
G36*
G01*
X135302500Y-85190000D02*
X135697500Y-85190000D01*
G75*
G02*
X135870000Y-85362500I0J-172500D01*
G01*
X135870000Y-85707500D01*
G75*
G02*
X135697500Y-85880000I-172500J0D01*
G01*
X135302500Y-85880000D01*
G75*
G02*
X135130000Y-85707500I0J172500D01*
G01*
X135130000Y-85362500D01*
G75*
G02*
X135302500Y-85190000I172500J0D01*
G01*
G37*
G36*
G01*
X135302500Y-84220000D02*
X135697500Y-84220000D01*
G75*
G02*
X135870000Y-84392500I0J-172500D01*
G01*
X135870000Y-84737500D01*
G75*
G02*
X135697500Y-84910000I-172500J0D01*
G01*
X135302500Y-84910000D01*
G75*
G02*
X135130000Y-84737500I0J172500D01*
G01*
X135130000Y-84392500D01*
G75*
G02*
X135302500Y-84220000I172500J0D01*
G01*
G37*
G04 #@! TD*
G04 #@! TO.C,R10*
G36*
G01*
X156492500Y-121395000D02*
X156887500Y-121395000D01*
G75*
G02*
X157060000Y-121567500I0J-172500D01*
G01*
X157060000Y-121912500D01*
G75*
G02*
X156887500Y-122085000I-172500J0D01*
G01*
X156492500Y-122085000D01*
G75*
G02*
X156320000Y-121912500I0J172500D01*
G01*
X156320000Y-121567500D01*
G75*
G02*
X156492500Y-121395000I172500J0D01*
G01*
G37*
G36*
G01*
X156492500Y-122365000D02*
X156887500Y-122365000D01*
G75*
G02*
X157060000Y-122537500I0J-172500D01*
G01*
X157060000Y-122882500D01*
G75*
G02*
X156887500Y-123055000I-172500J0D01*
G01*
X156492500Y-123055000D01*
G75*
G02*
X156320000Y-122882500I0J172500D01*
G01*
X156320000Y-122537500D01*
G75*
G02*
X156492500Y-122365000I172500J0D01*
G01*
G37*
G04 #@! TD*
G04 #@! TO.C,R11*
G36*
G01*
X156492500Y-119425000D02*
X156887500Y-119425000D01*
G75*
G02*
X157060000Y-119597500I0J-172500D01*
G01*
X157060000Y-119942500D01*
G75*
G02*
X156887500Y-120115000I-172500J0D01*
G01*
X156492500Y-120115000D01*
G75*
G02*
X156320000Y-119942500I0J172500D01*
G01*
X156320000Y-119597500D01*
G75*
G02*
X156492500Y-119425000I172500J0D01*
G01*
G37*
G36*
G01*
X156492500Y-120395000D02*
X156887500Y-120395000D01*
G75*
G02*
X157060000Y-120567500I0J-172500D01*
G01*
X157060000Y-120912500D01*
G75*
G02*
X156887500Y-121085000I-172500J0D01*
G01*
X156492500Y-121085000D01*
G75*
G02*
X156320000Y-120912500I0J172500D01*
G01*
X156320000Y-120567500D01*
G75*
G02*
X156492500Y-120395000I172500J0D01*
G01*
G37*
G04 #@! TD*
G04 #@! TO.C,R12*
G36*
G01*
X151772500Y-121425000D02*
X152167500Y-121425000D01*
G75*
G02*
X152340000Y-121597500I0J-172500D01*
G01*
X152340000Y-121942500D01*
G75*
G02*
X152167500Y-122115000I-172500J0D01*
G01*
X151772500Y-122115000D01*
G75*
G02*
X151600000Y-121942500I0J172500D01*
G01*
X151600000Y-121597500D01*
G75*
G02*
X151772500Y-121425000I172500J0D01*
G01*
G37*
G36*
G01*
X151772500Y-122395000D02*
X152167500Y-122395000D01*
G75*
G02*
X152340000Y-122567500I0J-172500D01*
G01*
X152340000Y-122912500D01*
G75*
G02*
X152167500Y-123085000I-172500J0D01*
G01*
X151772500Y-123085000D01*
G75*
G02*
X151600000Y-122912500I0J172500D01*
G01*
X151600000Y-122567500D01*
G75*
G02*
X151772500Y-122395000I172500J0D01*
G01*
G37*
G04 #@! TD*
G04 #@! TO.C,R13*
G36*
G01*
X151772500Y-119455000D02*
X152167500Y-119455000D01*
G75*
G02*
X152340000Y-119627500I0J-172500D01*
G01*
X152340000Y-119972500D01*
G75*
G02*
X152167500Y-120145000I-172500J0D01*
G01*
X151772500Y-120145000D01*
G75*
G02*
X151600000Y-119972500I0J172500D01*
G01*
X151600000Y-119627500D01*
G75*
G02*
X151772500Y-119455000I172500J0D01*
G01*
G37*
G36*
G01*
X151772500Y-120425000D02*
X152167500Y-120425000D01*
G75*
G02*
X152340000Y-120597500I0J-172500D01*
G01*
X152340000Y-120942500D01*
G75*
G02*
X152167500Y-121115000I-172500J0D01*
G01*
X151772500Y-121115000D01*
G75*
G02*
X151600000Y-120942500I0J172500D01*
G01*
X151600000Y-120597500D01*
G75*
G02*
X151772500Y-120425000I172500J0D01*
G01*
G37*
G04 #@! TD*
G04 #@! TO.C,R19*
G36*
G01*
X149612500Y-120668750D02*
X149612500Y-121231250D01*
G75*
G02*
X149368750Y-121475000I-243750J0D01*
G01*
X148881250Y-121475000D01*
G75*
G02*
X148637500Y-121231250I0J243750D01*
G01*
X148637500Y-120668750D01*
G75*
G02*
X148881250Y-120425000I243750J0D01*
G01*
X149368750Y-120425000D01*
G75*
G02*
X149612500Y-120668750I0J-243750D01*
G01*
G37*
G36*
G01*
X148037500Y-120668750D02*
X148037500Y-121231250D01*
G75*
G02*
X147793750Y-121475000I-243750J0D01*
G01*
X147306250Y-121475000D01*
G75*
G02*
X147062500Y-121231250I0J243750D01*
G01*
X147062500Y-120668750D01*
G75*
G02*
X147306250Y-120425000I243750J0D01*
G01*
X147793750Y-120425000D01*
G75*
G02*
X148037500Y-120668750I0J-243750D01*
G01*
G37*
G04 #@! TD*
G04 #@! TO.C,R20*
G36*
G01*
X144997500Y-120668750D02*
X144997500Y-121231250D01*
G75*
G02*
X144753750Y-121475000I-243750J0D01*
G01*
X144266250Y-121475000D01*
G75*
G02*
X144022500Y-121231250I0J243750D01*
G01*
X144022500Y-120668750D01*
G75*
G02*
X144266250Y-120425000I243750J0D01*
G01*
X144753750Y-120425000D01*
G75*
G02*
X144997500Y-120668750I0J-243750D01*
G01*
G37*
G36*
G01*
X146572500Y-120668750D02*
X146572500Y-121231250D01*
G75*
G02*
X146328750Y-121475000I-243750J0D01*
G01*
X145841250Y-121475000D01*
G75*
G02*
X145597500Y-121231250I0J243750D01*
G01*
X145597500Y-120668750D01*
G75*
G02*
X145841250Y-120425000I243750J0D01*
G01*
X146328750Y-120425000D01*
G75*
G02*
X146572500Y-120668750I0J-243750D01*
G01*
G37*
G04 #@! TD*
G04 #@! TO.C,R21*
G36*
G01*
X146955000Y-122427500D02*
X146955000Y-122032500D01*
G75*
G02*
X147127500Y-121860000I172500J0D01*
G01*
X147472500Y-121860000D01*
G75*
G02*
X147645000Y-122032500I0J-172500D01*
G01*
X147645000Y-122427500D01*
G75*
G02*
X147472500Y-122600000I-172500J0D01*
G01*
X147127500Y-122600000D01*
G75*
G02*
X146955000Y-122427500I0J172500D01*
G01*
G37*
G36*
G01*
X147925000Y-122427500D02*
X147925000Y-122032500D01*
G75*
G02*
X148097500Y-121860000I172500J0D01*
G01*
X148442500Y-121860000D01*
G75*
G02*
X148615000Y-122032500I0J-172500D01*
G01*
X148615000Y-122427500D01*
G75*
G02*
X148442500Y-122600000I-172500J0D01*
G01*
X148097500Y-122600000D01*
G75*
G02*
X147925000Y-122427500I0J172500D01*
G01*
G37*
G04 #@! TD*
G04 #@! TO.C,R22*
G36*
G01*
X144895000Y-122417500D02*
X144895000Y-122022500D01*
G75*
G02*
X145067500Y-121850000I172500J0D01*
G01*
X145412500Y-121850000D01*
G75*
G02*
X145585000Y-122022500I0J-172500D01*
G01*
X145585000Y-122417500D01*
G75*
G02*
X145412500Y-122590000I-172500J0D01*
G01*
X145067500Y-122590000D01*
G75*
G02*
X144895000Y-122417500I0J172500D01*
G01*
G37*
G36*
G01*
X143925000Y-122417500D02*
X143925000Y-122022500D01*
G75*
G02*
X144097500Y-121850000I172500J0D01*
G01*
X144442500Y-121850000D01*
G75*
G02*
X144615000Y-122022500I0J-172500D01*
G01*
X144615000Y-122417500D01*
G75*
G02*
X144442500Y-122590000I-172500J0D01*
G01*
X144097500Y-122590000D01*
G75*
G02*
X143925000Y-122417500I0J172500D01*
G01*
G37*
G04 #@! TD*
D29*
G04 #@! TO.C,U1*
X124990000Y-82310000D03*
X124990000Y-82810000D03*
X124990000Y-83310000D03*
X124990000Y-83810000D03*
X126890000Y-83810000D03*
X126890000Y-83310000D03*
X126890000Y-82810000D03*
X126890000Y-82310000D03*
G04 #@! TD*
D30*
G04 #@! TO.C,U5*
X167525500Y-121500000D03*
D31*
X163944100Y-120450000D03*
X163944100Y-122550000D03*
G04 #@! TD*
D15*
G04 #@! TO.C,U6*
X174175000Y-104800000D03*
X174175000Y-99800000D03*
G04 #@! TD*
G04 #@! TO.C,U7*
X174125000Y-110950000D03*
X174125000Y-115950000D03*
G04 #@! TD*
G04 #@! TO.C,U9*
X167950000Y-115925000D03*
X167950000Y-110925000D03*
G04 #@! TD*
G04 #@! TO.C,U10*
X174175000Y-88680000D03*
X174175000Y-93680000D03*
G04 #@! TD*
G04 #@! TO.C,U11*
X167950000Y-104775000D03*
X167950000Y-99775000D03*
G04 #@! TD*
G04 #@! TO.C,U12*
X167950000Y-88655000D03*
X167950000Y-93655000D03*
G04 #@! TD*
D32*
G04 #@! TO.C,U13*
X145009800Y-104800000D03*
X145009800Y-104150000D03*
X145009800Y-103500000D03*
X145009800Y-102850000D03*
X140590200Y-102850000D03*
X140590200Y-103500000D03*
X140590200Y-104150000D03*
X140590200Y-104800000D03*
G04 #@! TD*
D33*
G04 #@! TO.C,U14*
X125170000Y-117860000D03*
X125170000Y-116910000D03*
X125170000Y-115960000D03*
X127870000Y-117860000D03*
X127870000Y-116910000D03*
X127870000Y-115960000D03*
G04 #@! TD*
G04 #@! TO.C,J1*
G36*
G01*
X121684168Y-115600000D02*
X120375832Y-115600000D01*
G75*
G02*
X120105000Y-115329168I0J270832D01*
G01*
X120105000Y-114570832D01*
G75*
G02*
X120375832Y-114300000I270832J0D01*
G01*
X121684168Y-114300000D01*
G75*
G02*
X121955000Y-114570832I0J-270832D01*
G01*
X121955000Y-115329168D01*
G75*
G02*
X121684168Y-115600000I-270832J0D01*
G01*
G37*
D34*
X121030000Y-112950000D03*
X121030000Y-110950000D03*
G04 #@! TD*
G04 #@! TO.C,J2*
X115070000Y-110940000D03*
X115070000Y-112940000D03*
G36*
G01*
X115724168Y-115590000D02*
X114415832Y-115590000D01*
G75*
G02*
X114145000Y-115319168I0J270832D01*
G01*
X114145000Y-114560832D01*
G75*
G02*
X114415832Y-114290000I270832J0D01*
G01*
X115724168Y-114290000D01*
G75*
G02*
X115995000Y-114560832I0J-270832D01*
G01*
X115995000Y-115319168D01*
G75*
G02*
X115724168Y-115590000I-270832J0D01*
G01*
G37*
G04 #@! TD*
G04 #@! TO.C,R1*
G36*
G01*
X146375000Y-90043518D02*
X146375000Y-92956482D01*
G75*
G02*
X146106482Y-93225000I-268518J0D01*
G01*
X145193518Y-93225000D01*
G75*
G02*
X144925000Y-92956482I0J268518D01*
G01*
X144925000Y-90043518D01*
G75*
G02*
X145193518Y-89775000I268518J0D01*
G01*
X146106482Y-89775000D01*
G75*
G02*
X146375000Y-90043518I0J-268518D01*
G01*
G37*
G36*
G01*
X140575000Y-90043518D02*
X140575000Y-92956482D01*
G75*
G02*
X140306482Y-93225000I-268518J0D01*
G01*
X139393518Y-93225000D01*
G75*
G02*
X139125000Y-92956482I0J268518D01*
G01*
X139125000Y-90043518D01*
G75*
G02*
X139393518Y-89775000I268518J0D01*
G01*
X140306482Y-89775000D01*
G75*
G02*
X140575000Y-90043518I0J-268518D01*
G01*
G37*
G04 #@! TD*
G04 #@! TO.C,R17*
G36*
G01*
X142927500Y-108565000D02*
X142532500Y-108565000D01*
G75*
G02*
X142360000Y-108392500I0J172500D01*
G01*
X142360000Y-108047500D01*
G75*
G02*
X142532500Y-107875000I172500J0D01*
G01*
X142927500Y-107875000D01*
G75*
G02*
X143100000Y-108047500I0J-172500D01*
G01*
X143100000Y-108392500D01*
G75*
G02*
X142927500Y-108565000I-172500J0D01*
G01*
G37*
G36*
G01*
X142927500Y-109535000D02*
X142532500Y-109535000D01*
G75*
G02*
X142360000Y-109362500I0J172500D01*
G01*
X142360000Y-109017500D01*
G75*
G02*
X142532500Y-108845000I172500J0D01*
G01*
X142927500Y-108845000D01*
G75*
G02*
X143100000Y-109017500I0J-172500D01*
G01*
X143100000Y-109362500D01*
G75*
G02*
X142927500Y-109535000I-172500J0D01*
G01*
G37*
G04 #@! TD*
G04 #@! TO.C,R18*
G36*
G01*
X138802500Y-107670000D02*
X138407500Y-107670000D01*
G75*
G02*
X138235000Y-107497500I0J172500D01*
G01*
X138235000Y-107152500D01*
G75*
G02*
X138407500Y-106980000I172500J0D01*
G01*
X138802500Y-106980000D01*
G75*
G02*
X138975000Y-107152500I0J-172500D01*
G01*
X138975000Y-107497500D01*
G75*
G02*
X138802500Y-107670000I-172500J0D01*
G01*
G37*
G36*
G01*
X138802500Y-106700000D02*
X138407500Y-106700000D01*
G75*
G02*
X138235000Y-106527500I0J172500D01*
G01*
X138235000Y-106182500D01*
G75*
G02*
X138407500Y-106010000I172500J0D01*
G01*
X138802500Y-106010000D01*
G75*
G02*
X138975000Y-106182500I0J-172500D01*
G01*
X138975000Y-106527500D01*
G75*
G02*
X138802500Y-106700000I-172500J0D01*
G01*
G37*
G04 #@! TD*
D35*
G04 #@! TO.C,JP1*
X129865000Y-102100000D03*
X131135000Y-102100000D03*
G04 #@! TD*
G04 #@! TO.C,C5*
G36*
G01*
X134400000Y-117822500D02*
X134400000Y-118217500D01*
G75*
G02*
X134227500Y-118390000I-172500J0D01*
G01*
X133882500Y-118390000D01*
G75*
G02*
X133710000Y-118217500I0J172500D01*
G01*
X133710000Y-117822500D01*
G75*
G02*
X133882500Y-117650000I172500J0D01*
G01*
X134227500Y-117650000D01*
G75*
G02*
X134400000Y-117822500I0J-172500D01*
G01*
G37*
G36*
G01*
X133430000Y-117822500D02*
X133430000Y-118217500D01*
G75*
G02*
X133257500Y-118390000I-172500J0D01*
G01*
X132912500Y-118390000D01*
G75*
G02*
X132740000Y-118217500I0J172500D01*
G01*
X132740000Y-117822500D01*
G75*
G02*
X132912500Y-117650000I172500J0D01*
G01*
X133257500Y-117650000D01*
G75*
G02*
X133430000Y-117822500I0J-172500D01*
G01*
G37*
G04 #@! TD*
M02*
