G04 #@! TF.GenerationSoftware,KiCad,Pcbnew,5.1.6-c6e7f7d~87~ubuntu19.10.1*
G04 #@! TF.CreationDate,2021-03-15T12:51:18-04:00*
G04 #@! TF.ProjectId,icarus,69636172-7573-42e6-9b69-6361645f7063,V1.0*
G04 #@! TF.SameCoordinates,Original*
G04 #@! TF.FileFunction,Copper,L1,Top*
G04 #@! TF.FilePolarity,Positive*
%FSLAX46Y46*%
G04 Gerber Fmt 4.6, Leading zero omitted, Abs format (unit mm)*
G04 Created by KiCad (PCBNEW 5.1.6-c6e7f7d~87~ubuntu19.10.1) date 2021-03-15 12:51:18*
%MOMM*%
%LPD*%
G01*
G04 APERTURE LIST*
G04 #@! TA.AperFunction,SMDPad,CuDef*
%ADD10R,1.549400X0.609600*%
G04 #@! TD*
G04 #@! TA.AperFunction,ComponentPad*
%ADD11C,4.716000*%
G04 #@! TD*
G04 #@! TA.AperFunction,ComponentPad*
%ADD12C,3.000000*%
G04 #@! TD*
G04 #@! TA.AperFunction,SMDPad,CuDef*
%ADD13R,3.810000X2.006600*%
G04 #@! TD*
G04 #@! TA.AperFunction,SMDPad,CuDef*
%ADD14R,8.991600X11.506200*%
G04 #@! TD*
G04 #@! TA.AperFunction,SMDPad,CuDef*
%ADD15R,0.762000X0.254000*%
G04 #@! TD*
G04 #@! TA.AperFunction,ComponentPad*
%ADD16O,1.050000X1.250000*%
G04 #@! TD*
G04 #@! TA.AperFunction,SMDPad,CuDef*
%ADD17R,0.400000X1.350000*%
G04 #@! TD*
G04 #@! TA.AperFunction,ComponentPad*
%ADD18O,1.000000X1.900000*%
G04 #@! TD*
G04 #@! TA.AperFunction,SMDPad,CuDef*
%ADD19R,2.900000X1.900000*%
G04 #@! TD*
G04 #@! TA.AperFunction,SMDPad,CuDef*
%ADD20R,0.875000X1.900000*%
G04 #@! TD*
G04 #@! TA.AperFunction,SMDPad,CuDef*
%ADD21R,1.651000X2.184400*%
G04 #@! TD*
G04 #@! TA.AperFunction,SMDPad,CuDef*
%ADD22R,0.700000X0.500000*%
G04 #@! TD*
G04 #@! TA.AperFunction,ComponentPad*
%ADD23C,4.700000*%
G04 #@! TD*
G04 #@! TA.AperFunction,ComponentPad*
%ADD24O,1.200000X1.750000*%
G04 #@! TD*
G04 #@! TA.AperFunction,SMDPad,CuDef*
%ADD25R,0.800000X0.900000*%
G04 #@! TD*
G04 #@! TA.AperFunction,SMDPad,CuDef*
%ADD26R,0.600000X1.300000*%
G04 #@! TD*
G04 #@! TA.AperFunction,SMDPad,CuDef*
%ADD27R,0.850000X0.300000*%
G04 #@! TD*
G04 #@! TA.AperFunction,SMDPad,CuDef*
%ADD28R,0.812800X0.304800*%
G04 #@! TD*
G04 #@! TA.AperFunction,SMDPad,CuDef*
%ADD29R,0.304800X0.812800*%
G04 #@! TD*
G04 #@! TA.AperFunction,SMDPad,CuDef*
%ADD30R,5.689600X5.689600*%
G04 #@! TD*
G04 #@! TA.AperFunction,SMDPad,CuDef*
%ADD31R,5.308600X4.140200*%
G04 #@! TD*
G04 #@! TA.AperFunction,SMDPad,CuDef*
%ADD32R,1.346200X1.346200*%
G04 #@! TD*
G04 #@! TA.AperFunction,SMDPad,CuDef*
%ADD33R,1.397000X0.431800*%
G04 #@! TD*
G04 #@! TA.AperFunction,SMDPad,CuDef*
%ADD34R,1.000000X0.550000*%
G04 #@! TD*
G04 #@! TA.AperFunction,ComponentPad*
%ADD35O,1.750000X1.200000*%
G04 #@! TD*
G04 #@! TA.AperFunction,SMDPad,CuDef*
%ADD36R,1.270000X1.270000*%
G04 #@! TD*
G04 #@! TA.AperFunction,ViaPad*
%ADD37C,0.600000*%
G04 #@! TD*
G04 #@! TA.AperFunction,ViaPad*
%ADD38C,0.800000*%
G04 #@! TD*
G04 #@! TA.AperFunction,Conductor*
%ADD39C,0.250000*%
G04 #@! TD*
G04 #@! TA.AperFunction,Conductor*
%ADD40C,0.300000*%
G04 #@! TD*
G04 #@! TA.AperFunction,Conductor*
%ADD41C,0.500000*%
G04 #@! TD*
G04 #@! TA.AperFunction,Conductor*
%ADD42C,0.200000*%
G04 #@! TD*
G04 #@! TA.AperFunction,Conductor*
%ADD43C,1.000000*%
G04 #@! TD*
G04 #@! TA.AperFunction,Conductor*
%ADD44C,0.254000*%
G04 #@! TD*
G04 APERTURE END LIST*
G04 #@! TO.P,R15,2*
G04 #@! TO.N,+3V3*
G04 #@! TA.AperFunction,SMDPad,CuDef*
G36*
G01*
X145185000Y-82652500D02*
X145185000Y-82997500D01*
G75*
G02*
X145037500Y-83145000I-147500J0D01*
G01*
X144742500Y-83145000D01*
G75*
G02*
X144595000Y-82997500I0J147500D01*
G01*
X144595000Y-82652500D01*
G75*
G02*
X144742500Y-82505000I147500J0D01*
G01*
X145037500Y-82505000D01*
G75*
G02*
X145185000Y-82652500I0J-147500D01*
G01*
G37*
G04 #@! TD.AperFunction*
G04 #@! TO.P,R15,1*
G04 #@! TO.N,PG*
G04 #@! TA.AperFunction,SMDPad,CuDef*
G36*
G01*
X146155000Y-82652500D02*
X146155000Y-82997500D01*
G75*
G02*
X146007500Y-83145000I-147500J0D01*
G01*
X145712500Y-83145000D01*
G75*
G02*
X145565000Y-82997500I0J147500D01*
G01*
X145565000Y-82652500D01*
G75*
G02*
X145712500Y-82505000I147500J0D01*
G01*
X146007500Y-82505000D01*
G75*
G02*
X146155000Y-82652500I0J-147500D01*
G01*
G37*
G04 #@! TD.AperFunction*
G04 #@! TD*
G04 #@! TO.P,R7,1*
G04 #@! TO.N,Net-(MOSFET2-PadP$2)*
G04 #@! TA.AperFunction,SMDPad,CuDef*
G36*
G01*
X137497500Y-80455000D02*
X137842500Y-80455000D01*
G75*
G02*
X137990000Y-80602500I0J-147500D01*
G01*
X137990000Y-80897500D01*
G75*
G02*
X137842500Y-81045000I-147500J0D01*
G01*
X137497500Y-81045000D01*
G75*
G02*
X137350000Y-80897500I0J147500D01*
G01*
X137350000Y-80602500D01*
G75*
G02*
X137497500Y-80455000I147500J0D01*
G01*
G37*
G04 #@! TD.AperFunction*
G04 #@! TO.P,R7,2*
G04 #@! TO.N,EN*
G04 #@! TA.AperFunction,SMDPad,CuDef*
G36*
G01*
X137497500Y-81425000D02*
X137842500Y-81425000D01*
G75*
G02*
X137990000Y-81572500I0J-147500D01*
G01*
X137990000Y-81867500D01*
G75*
G02*
X137842500Y-82015000I-147500J0D01*
G01*
X137497500Y-82015000D01*
G75*
G02*
X137350000Y-81867500I0J147500D01*
G01*
X137350000Y-81572500D01*
G75*
G02*
X137497500Y-81425000I147500J0D01*
G01*
G37*
G04 #@! TD.AperFunction*
G04 #@! TD*
G04 #@! TO.P,R16,2*
G04 #@! TO.N,GND*
G04 #@! TA.AperFunction,SMDPad,CuDef*
G36*
G01*
X136842500Y-83635000D02*
X136497500Y-83635000D01*
G75*
G02*
X136350000Y-83487500I0J147500D01*
G01*
X136350000Y-83192500D01*
G75*
G02*
X136497500Y-83045000I147500J0D01*
G01*
X136842500Y-83045000D01*
G75*
G02*
X136990000Y-83192500I0J-147500D01*
G01*
X136990000Y-83487500D01*
G75*
G02*
X136842500Y-83635000I-147500J0D01*
G01*
G37*
G04 #@! TD.AperFunction*
G04 #@! TO.P,R16,1*
G04 #@! TO.N,PROG*
G04 #@! TA.AperFunction,SMDPad,CuDef*
G36*
G01*
X136842500Y-84605000D02*
X136497500Y-84605000D01*
G75*
G02*
X136350000Y-84457500I0J147500D01*
G01*
X136350000Y-84162500D01*
G75*
G02*
X136497500Y-84015000I147500J0D01*
G01*
X136842500Y-84015000D01*
G75*
G02*
X136990000Y-84162500I0J-147500D01*
G01*
X136990000Y-84457500D01*
G75*
G02*
X136842500Y-84605000I-147500J0D01*
G01*
G37*
G04 #@! TD.AperFunction*
G04 #@! TD*
G04 #@! TO.P,R9,1*
G04 #@! TO.N,EN*
G04 #@! TA.AperFunction,SMDPad,CuDef*
G36*
G01*
X136832500Y-82015000D02*
X136487500Y-82015000D01*
G75*
G02*
X136340000Y-81867500I0J147500D01*
G01*
X136340000Y-81572500D01*
G75*
G02*
X136487500Y-81425000I147500J0D01*
G01*
X136832500Y-81425000D01*
G75*
G02*
X136980000Y-81572500I0J-147500D01*
G01*
X136980000Y-81867500D01*
G75*
G02*
X136832500Y-82015000I-147500J0D01*
G01*
G37*
G04 #@! TD.AperFunction*
G04 #@! TO.P,R9,2*
G04 #@! TO.N,GND*
G04 #@! TA.AperFunction,SMDPad,CuDef*
G36*
G01*
X136832500Y-81045000D02*
X136487500Y-81045000D01*
G75*
G02*
X136340000Y-80897500I0J147500D01*
G01*
X136340000Y-80602500D01*
G75*
G02*
X136487500Y-80455000I147500J0D01*
G01*
X136832500Y-80455000D01*
G75*
G02*
X136980000Y-80602500I0J-147500D01*
G01*
X136980000Y-80897500D01*
G75*
G02*
X136832500Y-81045000I-147500J0D01*
G01*
G37*
G04 #@! TD.AperFunction*
G04 #@! TD*
G04 #@! TO.P,C14,2*
G04 #@! TO.N,TIMER*
G04 #@! TA.AperFunction,SMDPad,CuDef*
G36*
G01*
X137180000Y-85682500D02*
X137180000Y-85337500D01*
G75*
G02*
X137327500Y-85190000I147500J0D01*
G01*
X137622500Y-85190000D01*
G75*
G02*
X137770000Y-85337500I0J-147500D01*
G01*
X137770000Y-85682500D01*
G75*
G02*
X137622500Y-85830000I-147500J0D01*
G01*
X137327500Y-85830000D01*
G75*
G02*
X137180000Y-85682500I0J147500D01*
G01*
G37*
G04 #@! TD.AperFunction*
G04 #@! TO.P,C14,1*
G04 #@! TO.N,GND*
G04 #@! TA.AperFunction,SMDPad,CuDef*
G36*
G01*
X136210000Y-85682500D02*
X136210000Y-85337500D01*
G75*
G02*
X136357500Y-85190000I147500J0D01*
G01*
X136652500Y-85190000D01*
G75*
G02*
X136800000Y-85337500I0J-147500D01*
G01*
X136800000Y-85682500D01*
G75*
G02*
X136652500Y-85830000I-147500J0D01*
G01*
X136357500Y-85830000D01*
G75*
G02*
X136210000Y-85682500I0J147500D01*
G01*
G37*
G04 #@! TD.AperFunction*
G04 #@! TD*
G04 #@! TO.P,R14,1*
G04 #@! TO.N,Net-(R14-Pad1)*
G04 #@! TA.AperFunction,SMDPad,CuDef*
G36*
G01*
X137497500Y-83050000D02*
X137842500Y-83050000D01*
G75*
G02*
X137990000Y-83197500I0J-147500D01*
G01*
X137990000Y-83492500D01*
G75*
G02*
X137842500Y-83640000I-147500J0D01*
G01*
X137497500Y-83640000D01*
G75*
G02*
X137350000Y-83492500I0J147500D01*
G01*
X137350000Y-83197500D01*
G75*
G02*
X137497500Y-83050000I147500J0D01*
G01*
G37*
G04 #@! TD.AperFunction*
G04 #@! TO.P,R14,2*
G04 #@! TO.N,PROG*
G04 #@! TA.AperFunction,SMDPad,CuDef*
G36*
G01*
X137497500Y-84020000D02*
X137842500Y-84020000D01*
G75*
G02*
X137990000Y-84167500I0J-147500D01*
G01*
X137990000Y-84462500D01*
G75*
G02*
X137842500Y-84610000I-147500J0D01*
G01*
X137497500Y-84610000D01*
G75*
G02*
X137350000Y-84462500I0J147500D01*
G01*
X137350000Y-84167500D01*
G75*
G02*
X137497500Y-84020000I147500J0D01*
G01*
G37*
G04 #@! TD.AperFunction*
G04 #@! TD*
D10*
G04 #@! TO.P,U3,1*
G04 #@! TO.N,CAN_TX*
X131260000Y-112635000D03*
G04 #@! TO.P,U3,2*
G04 #@! TO.N,GND*
X131260000Y-111365000D03*
G04 #@! TO.P,U3,3*
G04 #@! TO.N,+3V3*
X131260000Y-110095000D03*
G04 #@! TO.P,U3,4*
G04 #@! TO.N,CAN_RX*
X131260000Y-108825000D03*
G04 #@! TO.P,U3,5*
G04 #@! TO.N,CAN_SHDN*
X125860000Y-108825000D03*
G04 #@! TO.P,U3,6*
G04 #@! TO.N,CAN_L*
X125860000Y-110095000D03*
G04 #@! TO.P,U3,7*
G04 #@! TO.N,CAN_H*
X125860000Y-111365000D03*
G04 #@! TO.P,U3,8*
G04 #@! TO.N,GND*
X125860000Y-112635000D03*
G04 #@! TD*
D11*
G04 #@! TO.P,U4,+*
G04 #@! TO.N,VSENSE_HIGH*
X135800000Y-91210000D03*
G04 #@! TO.P,U4,-*
G04 #@! TO.N,GNDPWR*
X135800000Y-102110000D03*
D12*
G04 #@! TO.P,U4,S1*
G04 #@! TO.N,N/C*
X126400000Y-106110000D03*
G04 #@! TO.P,U4,S2*
X126400000Y-87210000D03*
G04 #@! TD*
D13*
G04 #@! TO.P,MOSFET5,1*
G04 #@! TO.N,Net-(MOSFET1-Pad1)*
X162530399Y-101845000D03*
G04 #@! TO.P,MOSFET5,3*
G04 #@! TO.N,OUT*
X162530399Y-96765000D03*
D14*
G04 #@! TO.P,MOSFET5,2*
G04 #@! TO.N,VSENSE_LOW*
X151430398Y-99305000D03*
G04 #@! TD*
D13*
G04 #@! TO.P,MOSFET1,1*
G04 #@! TO.N,Net-(MOSFET1-Pad1)*
X162505001Y-114765000D03*
G04 #@! TO.P,MOSFET1,3*
G04 #@! TO.N,OUT*
X162505001Y-109685000D03*
D14*
G04 #@! TO.P,MOSFET1,2*
G04 #@! TO.N,VSENSE_LOW*
X151405000Y-112225000D03*
G04 #@! TD*
D15*
G04 #@! TO.P,U15,1*
G04 #@! TO.N,MOSFET_TEMP*
X156694400Y-118170000D03*
G04 #@! TO.P,U15,2*
G04 #@! TO.N,Net-(U15-Pad2)*
X156694400Y-118728800D03*
G04 #@! TO.P,U15,3*
G04 #@! TO.N,GND*
X157685000Y-118728800D03*
G04 #@! TO.P,U15,4*
G04 #@! TO.N,+3V3*
X157685000Y-118170000D03*
G04 #@! TD*
G04 #@! TO.P,C17,2*
G04 #@! TO.N,GND*
G04 #@! TA.AperFunction,SMDPad,CuDef*
G36*
G01*
X158772500Y-118940000D02*
X159117500Y-118940000D01*
G75*
G02*
X159265000Y-119087500I0J-147500D01*
G01*
X159265000Y-119382500D01*
G75*
G02*
X159117500Y-119530000I-147500J0D01*
G01*
X158772500Y-119530000D01*
G75*
G02*
X158625000Y-119382500I0J147500D01*
G01*
X158625000Y-119087500D01*
G75*
G02*
X158772500Y-118940000I147500J0D01*
G01*
G37*
G04 #@! TD.AperFunction*
G04 #@! TO.P,C17,1*
G04 #@! TO.N,+3V3*
G04 #@! TA.AperFunction,SMDPad,CuDef*
G36*
G01*
X158772500Y-117970000D02*
X159117500Y-117970000D01*
G75*
G02*
X159265000Y-118117500I0J-147500D01*
G01*
X159265000Y-118412500D01*
G75*
G02*
X159117500Y-118560000I-147500J0D01*
G01*
X158772500Y-118560000D01*
G75*
G02*
X158625000Y-118412500I0J147500D01*
G01*
X158625000Y-118117500D01*
G75*
G02*
X158772500Y-117970000I147500J0D01*
G01*
G37*
G04 #@! TD.AperFunction*
G04 #@! TD*
D16*
G04 #@! TO.P,J4,6*
G04 #@! TO.N,Net-(J4-Pad6)*
X121355000Y-119930000D03*
D17*
G04 #@! TO.P,J4,5*
G04 #@! TO.N,GND*
X122280000Y-120255000D03*
G04 #@! TO.P,J4,4*
G04 #@! TO.N,Net-(J4-Pad4)*
X122930000Y-120255000D03*
G04 #@! TO.P,J4,3*
G04 #@! TO.N,USB_CONN_D+*
X123580000Y-120255000D03*
G04 #@! TO.P,J4,1*
G04 #@! TO.N,+5V*
X124880000Y-120255000D03*
D16*
G04 #@! TO.P,J4,6*
G04 #@! TO.N,Net-(J4-Pad6)*
X125805000Y-119930000D03*
D18*
X119405000Y-122930000D03*
X127755000Y-122930000D03*
D17*
G04 #@! TO.P,J4,2*
G04 #@! TO.N,USB_CONN_D-*
X124230000Y-120255000D03*
D19*
G04 #@! TO.P,J4,6*
G04 #@! TO.N,Net-(J4-Pad6)*
X123580000Y-122930000D03*
D20*
X127317500Y-122930000D03*
X119842500Y-122930000D03*
G04 #@! TD*
G04 #@! TO.P,U8,1*
G04 #@! TO.N,EN*
G04 #@! TA.AperFunction,SMDPad,CuDef*
G36*
G01*
X139305000Y-86845000D02*
X139305000Y-86635000D01*
G75*
G02*
X139340000Y-86600000I35000J0D01*
G01*
X140740000Y-86600000D01*
G75*
G02*
X140775000Y-86635000I0J-35000D01*
G01*
X140775000Y-86845000D01*
G75*
G02*
X140740000Y-86880000I-35000J0D01*
G01*
X139340000Y-86880000D01*
G75*
G02*
X139305000Y-86845000I0J35000D01*
G01*
G37*
G04 #@! TD.AperFunction*
G04 #@! TO.P,U8,2*
G04 #@! TO.N,Net-(R14-Pad1)*
G04 #@! TA.AperFunction,SMDPad,CuDef*
G36*
G01*
X139305000Y-87345000D02*
X139305000Y-87135000D01*
G75*
G02*
X139340000Y-87100000I35000J0D01*
G01*
X140740000Y-87100000D01*
G75*
G02*
X140775000Y-87135000I0J-35000D01*
G01*
X140775000Y-87345000D01*
G75*
G02*
X140740000Y-87380000I-35000J0D01*
G01*
X139340000Y-87380000D01*
G75*
G02*
X139305000Y-87345000I0J35000D01*
G01*
G37*
G04 #@! TD.AperFunction*
G04 #@! TO.P,U8,3*
G04 #@! TO.N,PROG*
G04 #@! TA.AperFunction,SMDPad,CuDef*
G36*
G01*
X139305000Y-87845000D02*
X139305000Y-87635000D01*
G75*
G02*
X139340000Y-87600000I35000J0D01*
G01*
X140740000Y-87600000D01*
G75*
G02*
X140775000Y-87635000I0J-35000D01*
G01*
X140775000Y-87845000D01*
G75*
G02*
X140740000Y-87880000I-35000J0D01*
G01*
X139340000Y-87880000D01*
G75*
G02*
X139305000Y-87845000I0J35000D01*
G01*
G37*
G04 #@! TD.AperFunction*
G04 #@! TO.P,U8,4*
G04 #@! TO.N,TIMER*
G04 #@! TA.AperFunction,SMDPad,CuDef*
G36*
G01*
X139305000Y-88345000D02*
X139305000Y-88135000D01*
G75*
G02*
X139340000Y-88100000I35000J0D01*
G01*
X140740000Y-88100000D01*
G75*
G02*
X140775000Y-88135000I0J-35000D01*
G01*
X140775000Y-88345000D01*
G75*
G02*
X140740000Y-88380000I-35000J0D01*
G01*
X139340000Y-88380000D01*
G75*
G02*
X139305000Y-88345000I0J35000D01*
G01*
G37*
G04 #@! TD.AperFunction*
G04 #@! TO.P,U8,5*
G04 #@! TO.N,GND*
G04 #@! TA.AperFunction,SMDPad,CuDef*
G36*
G01*
X139305000Y-88845000D02*
X139305000Y-88635000D01*
G75*
G02*
X139340000Y-88600000I35000J0D01*
G01*
X140740000Y-88600000D01*
G75*
G02*
X140775000Y-88635000I0J-35000D01*
G01*
X140775000Y-88845000D01*
G75*
G02*
X140740000Y-88880000I-35000J0D01*
G01*
X139340000Y-88880000D01*
G75*
G02*
X139305000Y-88845000I0J35000D01*
G01*
G37*
G04 #@! TD.AperFunction*
G04 #@! TO.P,U8,6*
G04 #@! TO.N,PG*
G04 #@! TA.AperFunction,SMDPad,CuDef*
G36*
G01*
X143605000Y-88845000D02*
X143605000Y-88635000D01*
G75*
G02*
X143640000Y-88600000I35000J0D01*
G01*
X145040000Y-88600000D01*
G75*
G02*
X145075000Y-88635000I0J-35000D01*
G01*
X145075000Y-88845000D01*
G75*
G02*
X145040000Y-88880000I-35000J0D01*
G01*
X143640000Y-88880000D01*
G75*
G02*
X143605000Y-88845000I0J35000D01*
G01*
G37*
G04 #@! TD.AperFunction*
G04 #@! TO.P,U8,7*
G04 #@! TO.N,OUT*
G04 #@! TA.AperFunction,SMDPad,CuDef*
G36*
G01*
X143605000Y-88345000D02*
X143605000Y-88135000D01*
G75*
G02*
X143640000Y-88100000I35000J0D01*
G01*
X145040000Y-88100000D01*
G75*
G02*
X145075000Y-88135000I0J-35000D01*
G01*
X145075000Y-88345000D01*
G75*
G02*
X145040000Y-88380000I-35000J0D01*
G01*
X143640000Y-88380000D01*
G75*
G02*
X143605000Y-88345000I0J35000D01*
G01*
G37*
G04 #@! TD.AperFunction*
G04 #@! TO.P,U8,8*
G04 #@! TO.N,GATE*
G04 #@! TA.AperFunction,SMDPad,CuDef*
G36*
G01*
X143605000Y-87845000D02*
X143605000Y-87635000D01*
G75*
G02*
X143640000Y-87600000I35000J0D01*
G01*
X145040000Y-87600000D01*
G75*
G02*
X145075000Y-87635000I0J-35000D01*
G01*
X145075000Y-87845000D01*
G75*
G02*
X145040000Y-87880000I-35000J0D01*
G01*
X143640000Y-87880000D01*
G75*
G02*
X143605000Y-87845000I0J35000D01*
G01*
G37*
G04 #@! TD.AperFunction*
G04 #@! TO.P,U8,9*
G04 #@! TO.N,VSENSE_LOW*
G04 #@! TA.AperFunction,SMDPad,CuDef*
G36*
G01*
X143605000Y-87345000D02*
X143605000Y-87135000D01*
G75*
G02*
X143640000Y-87100000I35000J0D01*
G01*
X145040000Y-87100000D01*
G75*
G02*
X145075000Y-87135000I0J-35000D01*
G01*
X145075000Y-87345000D01*
G75*
G02*
X145040000Y-87380000I-35000J0D01*
G01*
X143640000Y-87380000D01*
G75*
G02*
X143605000Y-87345000I0J35000D01*
G01*
G37*
G04 #@! TD.AperFunction*
G04 #@! TO.P,U8,10*
G04 #@! TO.N,VSENSE_HIGH*
G04 #@! TA.AperFunction,SMDPad,CuDef*
G36*
G01*
X143605000Y-86845000D02*
X143605000Y-86635000D01*
G75*
G02*
X143640000Y-86600000I35000J0D01*
G01*
X145040000Y-86600000D01*
G75*
G02*
X145075000Y-86635000I0J-35000D01*
G01*
X145075000Y-86845000D01*
G75*
G02*
X145040000Y-86880000I-35000J0D01*
G01*
X143640000Y-86880000D01*
G75*
G02*
X143605000Y-86845000I0J35000D01*
G01*
G37*
G04 #@! TD.AperFunction*
G04 #@! TD*
G04 #@! TO.P,C1,1*
G04 #@! TO.N,GND*
G04 #@! TA.AperFunction,SMDPad,CuDef*
G36*
G01*
X127780000Y-114222500D02*
X127780000Y-113877500D01*
G75*
G02*
X127927500Y-113730000I147500J0D01*
G01*
X128222500Y-113730000D01*
G75*
G02*
X128370000Y-113877500I0J-147500D01*
G01*
X128370000Y-114222500D01*
G75*
G02*
X128222500Y-114370000I-147500J0D01*
G01*
X127927500Y-114370000D01*
G75*
G02*
X127780000Y-114222500I0J147500D01*
G01*
G37*
G04 #@! TD.AperFunction*
G04 #@! TO.P,C1,2*
G04 #@! TO.N,+3V3*
G04 #@! TA.AperFunction,SMDPad,CuDef*
G36*
G01*
X128750000Y-114222500D02*
X128750000Y-113877500D01*
G75*
G02*
X128897500Y-113730000I147500J0D01*
G01*
X129192500Y-113730000D01*
G75*
G02*
X129340000Y-113877500I0J-147500D01*
G01*
X129340000Y-114222500D01*
G75*
G02*
X129192500Y-114370000I-147500J0D01*
G01*
X128897500Y-114370000D01*
G75*
G02*
X128750000Y-114222500I0J147500D01*
G01*
G37*
G04 #@! TD.AperFunction*
G04 #@! TD*
G04 #@! TO.P,C2,2*
G04 #@! TO.N,GND*
G04 #@! TA.AperFunction,SMDPad,CuDef*
G36*
G01*
X133110000Y-81756250D02*
X133110000Y-80843750D01*
G75*
G02*
X133353750Y-80600000I243750J0D01*
G01*
X133841250Y-80600000D01*
G75*
G02*
X134085000Y-80843750I0J-243750D01*
G01*
X134085000Y-81756250D01*
G75*
G02*
X133841250Y-82000000I-243750J0D01*
G01*
X133353750Y-82000000D01*
G75*
G02*
X133110000Y-81756250I0J243750D01*
G01*
G37*
G04 #@! TD.AperFunction*
G04 #@! TO.P,C2,1*
G04 #@! TO.N,VSENSE_HIGH*
G04 #@! TA.AperFunction,SMDPad,CuDef*
G36*
G01*
X131235000Y-81756250D02*
X131235000Y-80843750D01*
G75*
G02*
X131478750Y-80600000I243750J0D01*
G01*
X131966250Y-80600000D01*
G75*
G02*
X132210000Y-80843750I0J-243750D01*
G01*
X132210000Y-81756250D01*
G75*
G02*
X131966250Y-82000000I-243750J0D01*
G01*
X131478750Y-82000000D01*
G75*
G02*
X131235000Y-81756250I0J243750D01*
G01*
G37*
G04 #@! TD.AperFunction*
G04 #@! TD*
G04 #@! TO.P,C3,1*
G04 #@! TO.N,+3V3*
G04 #@! TA.AperFunction,SMDPad,CuDef*
G36*
G01*
X124435000Y-85122500D02*
X124435000Y-84777500D01*
G75*
G02*
X124582500Y-84630000I147500J0D01*
G01*
X124877500Y-84630000D01*
G75*
G02*
X125025000Y-84777500I0J-147500D01*
G01*
X125025000Y-85122500D01*
G75*
G02*
X124877500Y-85270000I-147500J0D01*
G01*
X124582500Y-85270000D01*
G75*
G02*
X124435000Y-85122500I0J147500D01*
G01*
G37*
G04 #@! TD.AperFunction*
G04 #@! TO.P,C3,2*
G04 #@! TO.N,GND*
G04 #@! TA.AperFunction,SMDPad,CuDef*
G36*
G01*
X125405000Y-85122500D02*
X125405000Y-84777500D01*
G75*
G02*
X125552500Y-84630000I147500J0D01*
G01*
X125847500Y-84630000D01*
G75*
G02*
X125995000Y-84777500I0J-147500D01*
G01*
X125995000Y-85122500D01*
G75*
G02*
X125847500Y-85270000I-147500J0D01*
G01*
X125552500Y-85270000D01*
G75*
G02*
X125405000Y-85122500I0J147500D01*
G01*
G37*
G04 #@! TD.AperFunction*
G04 #@! TD*
G04 #@! TO.P,C4,1*
G04 #@! TO.N,Net-(C4-Pad1)*
G04 #@! TA.AperFunction,SMDPad,CuDef*
G36*
G01*
X123716250Y-84645000D02*
X122803750Y-84645000D01*
G75*
G02*
X122560000Y-84401250I0J243750D01*
G01*
X122560000Y-83913750D01*
G75*
G02*
X122803750Y-83670000I243750J0D01*
G01*
X123716250Y-83670000D01*
G75*
G02*
X123960000Y-83913750I0J-243750D01*
G01*
X123960000Y-84401250D01*
G75*
G02*
X123716250Y-84645000I-243750J0D01*
G01*
G37*
G04 #@! TD.AperFunction*
G04 #@! TO.P,C4,2*
G04 #@! TO.N,GND*
G04 #@! TA.AperFunction,SMDPad,CuDef*
G36*
G01*
X123716250Y-82770000D02*
X122803750Y-82770000D01*
G75*
G02*
X122560000Y-82526250I0J243750D01*
G01*
X122560000Y-82038750D01*
G75*
G02*
X122803750Y-81795000I243750J0D01*
G01*
X123716250Y-81795000D01*
G75*
G02*
X123960000Y-82038750I0J-243750D01*
G01*
X123960000Y-82526250D01*
G75*
G02*
X123716250Y-82770000I-243750J0D01*
G01*
G37*
G04 #@! TD.AperFunction*
G04 #@! TD*
G04 #@! TO.P,C5,1*
G04 #@! TO.N,NRST*
G04 #@! TA.AperFunction,SMDPad,CuDef*
G36*
G01*
X142345000Y-113747500D02*
X142345000Y-113402500D01*
G75*
G02*
X142492500Y-113255000I147500J0D01*
G01*
X142787500Y-113255000D01*
G75*
G02*
X142935000Y-113402500I0J-147500D01*
G01*
X142935000Y-113747500D01*
G75*
G02*
X142787500Y-113895000I-147500J0D01*
G01*
X142492500Y-113895000D01*
G75*
G02*
X142345000Y-113747500I0J147500D01*
G01*
G37*
G04 #@! TD.AperFunction*
G04 #@! TO.P,C5,2*
G04 #@! TO.N,GND*
G04 #@! TA.AperFunction,SMDPad,CuDef*
G36*
G01*
X143315000Y-113747500D02*
X143315000Y-113402500D01*
G75*
G02*
X143462500Y-113255000I147500J0D01*
G01*
X143757500Y-113255000D01*
G75*
G02*
X143905000Y-113402500I0J-147500D01*
G01*
X143905000Y-113747500D01*
G75*
G02*
X143757500Y-113895000I-147500J0D01*
G01*
X143462500Y-113895000D01*
G75*
G02*
X143315000Y-113747500I0J147500D01*
G01*
G37*
G04 #@! TD.AperFunction*
G04 #@! TD*
G04 #@! TO.P,C6,2*
G04 #@! TO.N,GND*
G04 #@! TA.AperFunction,SMDPad,CuDef*
G36*
G01*
X144210000Y-85277500D02*
X144210000Y-85622500D01*
G75*
G02*
X144062500Y-85770000I-147500J0D01*
G01*
X143767500Y-85770000D01*
G75*
G02*
X143620000Y-85622500I0J147500D01*
G01*
X143620000Y-85277500D01*
G75*
G02*
X143767500Y-85130000I147500J0D01*
G01*
X144062500Y-85130000D01*
G75*
G02*
X144210000Y-85277500I0J-147500D01*
G01*
G37*
G04 #@! TD.AperFunction*
G04 #@! TO.P,C6,1*
G04 #@! TO.N,VSENSE_HIGH*
G04 #@! TA.AperFunction,SMDPad,CuDef*
G36*
G01*
X145180000Y-85277500D02*
X145180000Y-85622500D01*
G75*
G02*
X145032500Y-85770000I-147500J0D01*
G01*
X144737500Y-85770000D01*
G75*
G02*
X144590000Y-85622500I0J147500D01*
G01*
X144590000Y-85277500D01*
G75*
G02*
X144737500Y-85130000I147500J0D01*
G01*
X145032500Y-85130000D01*
G75*
G02*
X145180000Y-85277500I0J-147500D01*
G01*
G37*
G04 #@! TD.AperFunction*
G04 #@! TD*
G04 #@! TO.P,C7,1*
G04 #@! TO.N,OUT*
G04 #@! TA.AperFunction,SMDPad,CuDef*
G36*
G01*
X161443750Y-118112500D02*
X162356250Y-118112500D01*
G75*
G02*
X162600000Y-118356250I0J-243750D01*
G01*
X162600000Y-118843750D01*
G75*
G02*
X162356250Y-119087500I-243750J0D01*
G01*
X161443750Y-119087500D01*
G75*
G02*
X161200000Y-118843750I0J243750D01*
G01*
X161200000Y-118356250D01*
G75*
G02*
X161443750Y-118112500I243750J0D01*
G01*
G37*
G04 #@! TD.AperFunction*
G04 #@! TO.P,C7,2*
G04 #@! TO.N,GNDPWR*
G04 #@! TA.AperFunction,SMDPad,CuDef*
G36*
G01*
X161443750Y-119987500D02*
X162356250Y-119987500D01*
G75*
G02*
X162600000Y-120231250I0J-243750D01*
G01*
X162600000Y-120718750D01*
G75*
G02*
X162356250Y-120962500I-243750J0D01*
G01*
X161443750Y-120962500D01*
G75*
G02*
X161200000Y-120718750I0J243750D01*
G01*
X161200000Y-120231250D01*
G75*
G02*
X161443750Y-119987500I243750J0D01*
G01*
G37*
G04 #@! TD.AperFunction*
G04 #@! TD*
G04 #@! TO.P,C8,2*
G04 #@! TO.N,GND*
G04 #@! TA.AperFunction,SMDPad,CuDef*
G36*
G01*
X136492500Y-108135000D02*
X136147500Y-108135000D01*
G75*
G02*
X136000000Y-107987500I0J147500D01*
G01*
X136000000Y-107692500D01*
G75*
G02*
X136147500Y-107545000I147500J0D01*
G01*
X136492500Y-107545000D01*
G75*
G02*
X136640000Y-107692500I0J-147500D01*
G01*
X136640000Y-107987500D01*
G75*
G02*
X136492500Y-108135000I-147500J0D01*
G01*
G37*
G04 #@! TD.AperFunction*
G04 #@! TO.P,C8,1*
G04 #@! TO.N,+3V3*
G04 #@! TA.AperFunction,SMDPad,CuDef*
G36*
G01*
X136492500Y-109105000D02*
X136147500Y-109105000D01*
G75*
G02*
X136000000Y-108957500I0J147500D01*
G01*
X136000000Y-108662500D01*
G75*
G02*
X136147500Y-108515000I147500J0D01*
G01*
X136492500Y-108515000D01*
G75*
G02*
X136640000Y-108662500I0J-147500D01*
G01*
X136640000Y-108957500D01*
G75*
G02*
X136492500Y-109105000I-147500J0D01*
G01*
G37*
G04 #@! TD.AperFunction*
G04 #@! TD*
G04 #@! TO.P,C9,2*
G04 #@! TO.N,GND*
G04 #@! TA.AperFunction,SMDPad,CuDef*
G36*
G01*
X142247500Y-117485000D02*
X142592500Y-117485000D01*
G75*
G02*
X142740000Y-117632500I0J-147500D01*
G01*
X142740000Y-117927500D01*
G75*
G02*
X142592500Y-118075000I-147500J0D01*
G01*
X142247500Y-118075000D01*
G75*
G02*
X142100000Y-117927500I0J147500D01*
G01*
X142100000Y-117632500D01*
G75*
G02*
X142247500Y-117485000I147500J0D01*
G01*
G37*
G04 #@! TD.AperFunction*
G04 #@! TO.P,C9,1*
G04 #@! TO.N,+3V3*
G04 #@! TA.AperFunction,SMDPad,CuDef*
G36*
G01*
X142247500Y-116515000D02*
X142592500Y-116515000D01*
G75*
G02*
X142740000Y-116662500I0J-147500D01*
G01*
X142740000Y-116957500D01*
G75*
G02*
X142592500Y-117105000I-147500J0D01*
G01*
X142247500Y-117105000D01*
G75*
G02*
X142100000Y-116957500I0J147500D01*
G01*
X142100000Y-116662500D01*
G75*
G02*
X142247500Y-116515000I147500J0D01*
G01*
G37*
G04 #@! TD.AperFunction*
G04 #@! TD*
G04 #@! TO.P,C10,1*
G04 #@! TO.N,+3V3*
G04 #@! TA.AperFunction,SMDPad,CuDef*
G36*
G01*
X135472500Y-109105000D02*
X135127500Y-109105000D01*
G75*
G02*
X134980000Y-108957500I0J147500D01*
G01*
X134980000Y-108662500D01*
G75*
G02*
X135127500Y-108515000I147500J0D01*
G01*
X135472500Y-108515000D01*
G75*
G02*
X135620000Y-108662500I0J-147500D01*
G01*
X135620000Y-108957500D01*
G75*
G02*
X135472500Y-109105000I-147500J0D01*
G01*
G37*
G04 #@! TD.AperFunction*
G04 #@! TO.P,C10,2*
G04 #@! TO.N,GND*
G04 #@! TA.AperFunction,SMDPad,CuDef*
G36*
G01*
X135472500Y-108135000D02*
X135127500Y-108135000D01*
G75*
G02*
X134980000Y-107987500I0J147500D01*
G01*
X134980000Y-107692500D01*
G75*
G02*
X135127500Y-107545000I147500J0D01*
G01*
X135472500Y-107545000D01*
G75*
G02*
X135620000Y-107692500I0J-147500D01*
G01*
X135620000Y-107987500D01*
G75*
G02*
X135472500Y-108135000I-147500J0D01*
G01*
G37*
G04 #@! TD.AperFunction*
G04 #@! TD*
G04 #@! TO.P,C11,2*
G04 #@! TO.N,GND*
G04 #@! TA.AperFunction,SMDPad,CuDef*
G36*
G01*
X134452500Y-108135000D02*
X134107500Y-108135000D01*
G75*
G02*
X133960000Y-107987500I0J147500D01*
G01*
X133960000Y-107692500D01*
G75*
G02*
X134107500Y-107545000I147500J0D01*
G01*
X134452500Y-107545000D01*
G75*
G02*
X134600000Y-107692500I0J-147500D01*
G01*
X134600000Y-107987500D01*
G75*
G02*
X134452500Y-108135000I-147500J0D01*
G01*
G37*
G04 #@! TD.AperFunction*
G04 #@! TO.P,C11,1*
G04 #@! TO.N,+3V3*
G04 #@! TA.AperFunction,SMDPad,CuDef*
G36*
G01*
X134452500Y-109105000D02*
X134107500Y-109105000D01*
G75*
G02*
X133960000Y-108957500I0J147500D01*
G01*
X133960000Y-108662500D01*
G75*
G02*
X134107500Y-108515000I147500J0D01*
G01*
X134452500Y-108515000D01*
G75*
G02*
X134600000Y-108662500I0J-147500D01*
G01*
X134600000Y-108957500D01*
G75*
G02*
X134452500Y-109105000I-147500J0D01*
G01*
G37*
G04 #@! TD.AperFunction*
G04 #@! TD*
G04 #@! TO.P,C12,1*
G04 #@! TO.N,+3V3*
G04 #@! TA.AperFunction,SMDPad,CuDef*
G36*
G01*
X132980000Y-115687500D02*
X132980000Y-116032500D01*
G75*
G02*
X132832500Y-116180000I-147500J0D01*
G01*
X132537500Y-116180000D01*
G75*
G02*
X132390000Y-116032500I0J147500D01*
G01*
X132390000Y-115687500D01*
G75*
G02*
X132537500Y-115540000I147500J0D01*
G01*
X132832500Y-115540000D01*
G75*
G02*
X132980000Y-115687500I0J-147500D01*
G01*
G37*
G04 #@! TD.AperFunction*
G04 #@! TO.P,C12,2*
G04 #@! TO.N,GND*
G04 #@! TA.AperFunction,SMDPad,CuDef*
G36*
G01*
X132010000Y-115687500D02*
X132010000Y-116032500D01*
G75*
G02*
X131862500Y-116180000I-147500J0D01*
G01*
X131567500Y-116180000D01*
G75*
G02*
X131420000Y-116032500I0J147500D01*
G01*
X131420000Y-115687500D01*
G75*
G02*
X131567500Y-115540000I147500J0D01*
G01*
X131862500Y-115540000D01*
G75*
G02*
X132010000Y-115687500I0J-147500D01*
G01*
G37*
G04 #@! TD.AperFunction*
G04 #@! TD*
G04 #@! TO.P,C13,1*
G04 #@! TO.N,+3V3*
G04 #@! TA.AperFunction,SMDPad,CuDef*
G36*
G01*
X140150000Y-118322500D02*
X140150000Y-117977500D01*
G75*
G02*
X140297500Y-117830000I147500J0D01*
G01*
X140592500Y-117830000D01*
G75*
G02*
X140740000Y-117977500I0J-147500D01*
G01*
X140740000Y-118322500D01*
G75*
G02*
X140592500Y-118470000I-147500J0D01*
G01*
X140297500Y-118470000D01*
G75*
G02*
X140150000Y-118322500I0J147500D01*
G01*
G37*
G04 #@! TD.AperFunction*
G04 #@! TO.P,C13,2*
G04 #@! TO.N,GND*
G04 #@! TA.AperFunction,SMDPad,CuDef*
G36*
G01*
X141120000Y-118322500D02*
X141120000Y-117977500D01*
G75*
G02*
X141267500Y-117830000I147500J0D01*
G01*
X141562500Y-117830000D01*
G75*
G02*
X141710000Y-117977500I0J-147500D01*
G01*
X141710000Y-118322500D01*
G75*
G02*
X141562500Y-118470000I-147500J0D01*
G01*
X141267500Y-118470000D01*
G75*
G02*
X141120000Y-118322500I0J147500D01*
G01*
G37*
G04 #@! TD.AperFunction*
G04 #@! TD*
G04 #@! TO.P,C15,1*
G04 #@! TO.N,Net-(C15-Pad1)*
G04 #@! TA.AperFunction,SMDPad,CuDef*
G36*
G01*
X142000000Y-106162500D02*
X142000000Y-105817500D01*
G75*
G02*
X142147500Y-105670000I147500J0D01*
G01*
X142442500Y-105670000D01*
G75*
G02*
X142590000Y-105817500I0J-147500D01*
G01*
X142590000Y-106162500D01*
G75*
G02*
X142442500Y-106310000I-147500J0D01*
G01*
X142147500Y-106310000D01*
G75*
G02*
X142000000Y-106162500I0J147500D01*
G01*
G37*
G04 #@! TD.AperFunction*
G04 #@! TO.P,C15,2*
G04 #@! TO.N,Net-(C15-Pad2)*
G04 #@! TA.AperFunction,SMDPad,CuDef*
G36*
G01*
X142970000Y-106162500D02*
X142970000Y-105817500D01*
G75*
G02*
X143117500Y-105670000I147500J0D01*
G01*
X143412500Y-105670000D01*
G75*
G02*
X143560000Y-105817500I0J-147500D01*
G01*
X143560000Y-106162500D01*
G75*
G02*
X143412500Y-106310000I-147500J0D01*
G01*
X143117500Y-106310000D01*
G75*
G02*
X142970000Y-106162500I0J147500D01*
G01*
G37*
G04 #@! TD.AperFunction*
G04 #@! TD*
G04 #@! TO.P,C16,1*
G04 #@! TO.N,Net-(C16-Pad1)*
G04 #@! TA.AperFunction,SMDPad,CuDef*
G36*
G01*
X139437500Y-107925000D02*
X139092500Y-107925000D01*
G75*
G02*
X138945000Y-107777500I0J147500D01*
G01*
X138945000Y-107482500D01*
G75*
G02*
X139092500Y-107335000I147500J0D01*
G01*
X139437500Y-107335000D01*
G75*
G02*
X139585000Y-107482500I0J-147500D01*
G01*
X139585000Y-107777500D01*
G75*
G02*
X139437500Y-107925000I-147500J0D01*
G01*
G37*
G04 #@! TD.AperFunction*
G04 #@! TO.P,C16,2*
G04 #@! TO.N,GND*
G04 #@! TA.AperFunction,SMDPad,CuDef*
G36*
G01*
X139437500Y-106955000D02*
X139092500Y-106955000D01*
G75*
G02*
X138945000Y-106807500I0J147500D01*
G01*
X138945000Y-106512500D01*
G75*
G02*
X139092500Y-106365000I147500J0D01*
G01*
X139437500Y-106365000D01*
G75*
G02*
X139585000Y-106512500I0J-147500D01*
G01*
X139585000Y-106807500D01*
G75*
G02*
X139437500Y-106955000I-147500J0D01*
G01*
G37*
G04 #@! TD.AperFunction*
G04 #@! TD*
G04 #@! TO.P,C18,2*
G04 #@! TO.N,GND*
G04 #@! TA.AperFunction,SMDPad,CuDef*
G36*
G01*
X147975000Y-123422500D02*
X147975000Y-123077500D01*
G75*
G02*
X148122500Y-122930000I147500J0D01*
G01*
X148417500Y-122930000D01*
G75*
G02*
X148565000Y-123077500I0J-147500D01*
G01*
X148565000Y-123422500D01*
G75*
G02*
X148417500Y-123570000I-147500J0D01*
G01*
X148122500Y-123570000D01*
G75*
G02*
X147975000Y-123422500I0J147500D01*
G01*
G37*
G04 #@! TD.AperFunction*
G04 #@! TO.P,C18,1*
G04 #@! TO.N,24V_SENSE*
G04 #@! TA.AperFunction,SMDPad,CuDef*
G36*
G01*
X147005000Y-123422500D02*
X147005000Y-123077500D01*
G75*
G02*
X147152500Y-122930000I147500J0D01*
G01*
X147447500Y-122930000D01*
G75*
G02*
X147595000Y-123077500I0J-147500D01*
G01*
X147595000Y-123422500D01*
G75*
G02*
X147447500Y-123570000I-147500J0D01*
G01*
X147152500Y-123570000D01*
G75*
G02*
X147005000Y-123422500I0J147500D01*
G01*
G37*
G04 #@! TD.AperFunction*
G04 #@! TD*
G04 #@! TO.P,C19,2*
G04 #@! TO.N,GND*
G04 #@! TA.AperFunction,SMDPad,CuDef*
G36*
G01*
X144940000Y-123412500D02*
X144940000Y-123067500D01*
G75*
G02*
X145087500Y-122920000I147500J0D01*
G01*
X145382500Y-122920000D01*
G75*
G02*
X145530000Y-123067500I0J-147500D01*
G01*
X145530000Y-123412500D01*
G75*
G02*
X145382500Y-123560000I-147500J0D01*
G01*
X145087500Y-123560000D01*
G75*
G02*
X144940000Y-123412500I0J147500D01*
G01*
G37*
G04 #@! TD.AperFunction*
G04 #@! TO.P,C19,1*
G04 #@! TO.N,VSW_SENSE*
G04 #@! TA.AperFunction,SMDPad,CuDef*
G36*
G01*
X143970000Y-123412500D02*
X143970000Y-123067500D01*
G75*
G02*
X144117500Y-122920000I147500J0D01*
G01*
X144412500Y-122920000D01*
G75*
G02*
X144560000Y-123067500I0J-147500D01*
G01*
X144560000Y-123412500D01*
G75*
G02*
X144412500Y-123560000I-147500J0D01*
G01*
X144117500Y-123560000D01*
G75*
G02*
X143970000Y-123412500I0J147500D01*
G01*
G37*
G04 #@! TD.AperFunction*
G04 #@! TD*
D21*
G04 #@! TO.P,CR1,1*
G04 #@! TO.N,VSENSE_HIGH*
X144190000Y-96068200D03*
G04 #@! TO.P,CR1,2*
G04 #@! TO.N,GNDPWR*
X144190000Y-99471800D03*
G04 #@! TD*
G04 #@! TO.P,CR2,2*
G04 #@! TO.N,GNDPWR*
X140700000Y-99451800D03*
G04 #@! TO.P,CR2,1*
G04 #@! TO.N,VSENSE_HIGH*
X140700000Y-96048200D03*
G04 #@! TD*
D22*
G04 #@! TO.P,D1,A*
G04 #@! TO.N,+5V*
X124840000Y-81010000D03*
G04 #@! TO.P,D1,C*
G04 #@! TO.N,VSENSE_HIGH*
X126140000Y-81010000D03*
G04 #@! TD*
G04 #@! TO.P,D2,2*
G04 #@! TO.N,+3V3*
G04 #@! TA.AperFunction,SMDPad,CuDef*
G36*
G01*
X121213750Y-83762500D02*
X121726250Y-83762500D01*
G75*
G02*
X121945000Y-83981250I0J-218750D01*
G01*
X121945000Y-84418750D01*
G75*
G02*
X121726250Y-84637500I-218750J0D01*
G01*
X121213750Y-84637500D01*
G75*
G02*
X120995000Y-84418750I0J218750D01*
G01*
X120995000Y-83981250D01*
G75*
G02*
X121213750Y-83762500I218750J0D01*
G01*
G37*
G04 #@! TD.AperFunction*
G04 #@! TO.P,D2,1*
G04 #@! TO.N,Net-(D2-Pad1)*
G04 #@! TA.AperFunction,SMDPad,CuDef*
G36*
G01*
X121213750Y-82187500D02*
X121726250Y-82187500D01*
G75*
G02*
X121945000Y-82406250I0J-218750D01*
G01*
X121945000Y-82843750D01*
G75*
G02*
X121726250Y-83062500I-218750J0D01*
G01*
X121213750Y-83062500D01*
G75*
G02*
X120995000Y-82843750I0J218750D01*
G01*
X120995000Y-82406250D01*
G75*
G02*
X121213750Y-82187500I218750J0D01*
G01*
G37*
G04 #@! TD.AperFunction*
G04 #@! TD*
G04 #@! TO.P,D3,2*
G04 #@! TO.N,+3V3*
G04 #@! TA.AperFunction,SMDPad,CuDef*
G36*
G01*
X118923750Y-83762500D02*
X119436250Y-83762500D01*
G75*
G02*
X119655000Y-83981250I0J-218750D01*
G01*
X119655000Y-84418750D01*
G75*
G02*
X119436250Y-84637500I-218750J0D01*
G01*
X118923750Y-84637500D01*
G75*
G02*
X118705000Y-84418750I0J218750D01*
G01*
X118705000Y-83981250D01*
G75*
G02*
X118923750Y-83762500I218750J0D01*
G01*
G37*
G04 #@! TD.AperFunction*
G04 #@! TO.P,D3,1*
G04 #@! TO.N,Net-(D3-Pad1)*
G04 #@! TA.AperFunction,SMDPad,CuDef*
G36*
G01*
X118923750Y-82187500D02*
X119436250Y-82187500D01*
G75*
G02*
X119655000Y-82406250I0J-218750D01*
G01*
X119655000Y-82843750D01*
G75*
G02*
X119436250Y-83062500I-218750J0D01*
G01*
X118923750Y-83062500D01*
G75*
G02*
X118705000Y-82843750I0J218750D01*
G01*
X118705000Y-82406250D01*
G75*
G02*
X118923750Y-82187500I218750J0D01*
G01*
G37*
G04 #@! TD.AperFunction*
G04 #@! TD*
G04 #@! TO.P,D4,1*
G04 #@! TO.N,Net-(D4-Pad1)*
G04 #@! TA.AperFunction,SMDPad,CuDef*
G36*
G01*
X157537500Y-122646250D02*
X157537500Y-122133750D01*
G75*
G02*
X157756250Y-121915000I218750J0D01*
G01*
X158193750Y-121915000D01*
G75*
G02*
X158412500Y-122133750I0J-218750D01*
G01*
X158412500Y-122646250D01*
G75*
G02*
X158193750Y-122865000I-218750J0D01*
G01*
X157756250Y-122865000D01*
G75*
G02*
X157537500Y-122646250I0J218750D01*
G01*
G37*
G04 #@! TD.AperFunction*
G04 #@! TO.P,D4,2*
G04 #@! TO.N,+3V3*
G04 #@! TA.AperFunction,SMDPad,CuDef*
G36*
G01*
X159112500Y-122646250D02*
X159112500Y-122133750D01*
G75*
G02*
X159331250Y-121915000I218750J0D01*
G01*
X159768750Y-121915000D01*
G75*
G02*
X159987500Y-122133750I0J-218750D01*
G01*
X159987500Y-122646250D01*
G75*
G02*
X159768750Y-122865000I-218750J0D01*
G01*
X159331250Y-122865000D01*
G75*
G02*
X159112500Y-122646250I0J218750D01*
G01*
G37*
G04 #@! TD.AperFunction*
G04 #@! TD*
G04 #@! TO.P,D5,1*
G04 #@! TO.N,Net-(D5-Pad1)*
G04 #@! TA.AperFunction,SMDPad,CuDef*
G36*
G01*
X157532500Y-120686250D02*
X157532500Y-120173750D01*
G75*
G02*
X157751250Y-119955000I218750J0D01*
G01*
X158188750Y-119955000D01*
G75*
G02*
X158407500Y-120173750I0J-218750D01*
G01*
X158407500Y-120686250D01*
G75*
G02*
X158188750Y-120905000I-218750J0D01*
G01*
X157751250Y-120905000D01*
G75*
G02*
X157532500Y-120686250I0J218750D01*
G01*
G37*
G04 #@! TD.AperFunction*
G04 #@! TO.P,D5,2*
G04 #@! TO.N,+3V3*
G04 #@! TA.AperFunction,SMDPad,CuDef*
G36*
G01*
X159107500Y-120686250D02*
X159107500Y-120173750D01*
G75*
G02*
X159326250Y-119955000I218750J0D01*
G01*
X159763750Y-119955000D01*
G75*
G02*
X159982500Y-120173750I0J-218750D01*
G01*
X159982500Y-120686250D01*
G75*
G02*
X159763750Y-120905000I-218750J0D01*
G01*
X159326250Y-120905000D01*
G75*
G02*
X159107500Y-120686250I0J218750D01*
G01*
G37*
G04 #@! TD.AperFunction*
G04 #@! TD*
G04 #@! TO.P,D6,1*
G04 #@! TO.N,Net-(D6-Pad1)*
G04 #@! TA.AperFunction,SMDPad,CuDef*
G36*
G01*
X152832500Y-122676250D02*
X152832500Y-122163750D01*
G75*
G02*
X153051250Y-121945000I218750J0D01*
G01*
X153488750Y-121945000D01*
G75*
G02*
X153707500Y-122163750I0J-218750D01*
G01*
X153707500Y-122676250D01*
G75*
G02*
X153488750Y-122895000I-218750J0D01*
G01*
X153051250Y-122895000D01*
G75*
G02*
X152832500Y-122676250I0J218750D01*
G01*
G37*
G04 #@! TD.AperFunction*
G04 #@! TO.P,D6,2*
G04 #@! TO.N,+3V3*
G04 #@! TA.AperFunction,SMDPad,CuDef*
G36*
G01*
X154407500Y-122676250D02*
X154407500Y-122163750D01*
G75*
G02*
X154626250Y-121945000I218750J0D01*
G01*
X155063750Y-121945000D01*
G75*
G02*
X155282500Y-122163750I0J-218750D01*
G01*
X155282500Y-122676250D01*
G75*
G02*
X155063750Y-122895000I-218750J0D01*
G01*
X154626250Y-122895000D01*
G75*
G02*
X154407500Y-122676250I0J218750D01*
G01*
G37*
G04 #@! TD.AperFunction*
G04 #@! TD*
G04 #@! TO.P,D7,2*
G04 #@! TO.N,+3V3*
G04 #@! TA.AperFunction,SMDPad,CuDef*
G36*
G01*
X154402500Y-120716250D02*
X154402500Y-120203750D01*
G75*
G02*
X154621250Y-119985000I218750J0D01*
G01*
X155058750Y-119985000D01*
G75*
G02*
X155277500Y-120203750I0J-218750D01*
G01*
X155277500Y-120716250D01*
G75*
G02*
X155058750Y-120935000I-218750J0D01*
G01*
X154621250Y-120935000D01*
G75*
G02*
X154402500Y-120716250I0J218750D01*
G01*
G37*
G04 #@! TD.AperFunction*
G04 #@! TO.P,D7,1*
G04 #@! TO.N,Net-(D7-Pad1)*
G04 #@! TA.AperFunction,SMDPad,CuDef*
G36*
G01*
X152827500Y-120716250D02*
X152827500Y-120203750D01*
G75*
G02*
X153046250Y-119985000I218750J0D01*
G01*
X153483750Y-119985000D01*
G75*
G02*
X153702500Y-120203750I0J-218750D01*
G01*
X153702500Y-120716250D01*
G75*
G02*
X153483750Y-120935000I-218750J0D01*
G01*
X153046250Y-120935000D01*
G75*
G02*
X152827500Y-120716250I0J218750D01*
G01*
G37*
G04 #@! TD.AperFunction*
G04 #@! TD*
D23*
G04 #@! TO.P,H1,1*
G04 #@! TO.N,GND*
X115720000Y-121410000D03*
G04 #@! TD*
G04 #@! TO.P,H2,1*
G04 #@! TO.N,Net-(H2-Pad1)*
X174465000Y-83160000D03*
G04 #@! TD*
G04 #@! TO.P,H3,1*
G04 #@! TO.N,Net-(H3-Pad1)*
X174465000Y-121420000D03*
G04 #@! TD*
G04 #@! TO.P,H4,1*
G04 #@! TO.N,GND*
X115720000Y-83160000D03*
G04 #@! TD*
G04 #@! TO.P,J3,1*
G04 #@! TO.N,+3V3*
G04 #@! TA.AperFunction,ComponentPad*
G36*
G01*
X130700000Y-121625001D02*
X130700000Y-120374999D01*
G75*
G02*
X130949999Y-120125000I249999J0D01*
G01*
X131650001Y-120125000D01*
G75*
G02*
X131900000Y-120374999I0J-249999D01*
G01*
X131900000Y-121625001D01*
G75*
G02*
X131650001Y-121875000I-249999J0D01*
G01*
X130949999Y-121875000D01*
G75*
G02*
X130700000Y-121625001I0J249999D01*
G01*
G37*
G04 #@! TD.AperFunction*
D24*
G04 #@! TO.P,J3,2*
G04 #@! TO.N,SWO*
X133300000Y-121000000D03*
G04 #@! TO.P,J3,3*
G04 #@! TO.N,SWDIO*
X135300000Y-121000000D03*
G04 #@! TO.P,J3,4*
G04 #@! TO.N,SWCLK*
X137300000Y-121000000D03*
G04 #@! TO.P,J3,5*
G04 #@! TO.N,NRST*
X139300000Y-121000000D03*
G04 #@! TO.P,J3,6*
G04 #@! TO.N,GND*
X141300000Y-121000000D03*
G04 #@! TD*
G04 #@! TO.P,L1,1*
G04 #@! TO.N,Net-(L1-Pad1)*
G04 #@! TA.AperFunction,SMDPad,CuDef*
G36*
G01*
X128185000Y-81375000D02*
X130335000Y-81375000D01*
G75*
G02*
X130585000Y-81625000I0J-250000D01*
G01*
X130585000Y-82375000D01*
G75*
G02*
X130335000Y-82625000I-250000J0D01*
G01*
X128185000Y-82625000D01*
G75*
G02*
X127935000Y-82375000I0J250000D01*
G01*
X127935000Y-81625000D01*
G75*
G02*
X128185000Y-81375000I250000J0D01*
G01*
G37*
G04 #@! TD.AperFunction*
G04 #@! TO.P,L1,2*
G04 #@! TO.N,+3V3*
G04 #@! TA.AperFunction,SMDPad,CuDef*
G36*
G01*
X128185000Y-84175000D02*
X130335000Y-84175000D01*
G75*
G02*
X130585000Y-84425000I0J-250000D01*
G01*
X130585000Y-85175000D01*
G75*
G02*
X130335000Y-85425000I-250000J0D01*
G01*
X128185000Y-85425000D01*
G75*
G02*
X127935000Y-85175000I0J250000D01*
G01*
X127935000Y-84425000D01*
G75*
G02*
X128185000Y-84175000I250000J0D01*
G01*
G37*
G04 #@! TD.AperFunction*
G04 #@! TD*
D25*
G04 #@! TO.P,MOSFET2,P$1*
G04 #@! TO.N,Net-(MOSFET2-PadP$1)*
X142200000Y-82200000D03*
G04 #@! TO.P,MOSFET2,P$2*
G04 #@! TO.N,Net-(MOSFET2-PadP$2)*
X140300000Y-82200000D03*
G04 #@! TO.P,MOSFET2,P$3*
G04 #@! TO.N,VSENSE_HIGH*
X141250000Y-84200000D03*
G04 #@! TD*
D14*
G04 #@! TO.P,MOSFET3,2*
G04 #@! TO.N,VSENSE_LOW*
X151460398Y-87200000D03*
D13*
G04 #@! TO.P,MOSFET3,3*
G04 #@! TO.N,OUT*
X162560399Y-84660000D03*
G04 #@! TO.P,MOSFET3,1*
G04 #@! TO.N,Net-(MOSFET1-Pad1)*
X162560399Y-89740000D03*
G04 #@! TD*
D26*
G04 #@! TO.P,MOSFET4,3*
G04 #@! TO.N,Net-(MOSFET4-Pad3)*
X132910000Y-83100000D03*
G04 #@! TO.P,MOSFET4,2*
G04 #@! TO.N,GND*
X133860000Y-85200000D03*
G04 #@! TO.P,MOSFET4,1*
G04 #@! TO.N,TPS_ENABLE*
X131960000Y-85200000D03*
G04 #@! TD*
G04 #@! TO.P,R2,2*
G04 #@! TO.N,VSENSE_HIGH*
G04 #@! TA.AperFunction,SMDPad,CuDef*
G36*
G01*
X143407500Y-83930000D02*
X143752500Y-83930000D01*
G75*
G02*
X143900000Y-84077500I0J-147500D01*
G01*
X143900000Y-84372500D01*
G75*
G02*
X143752500Y-84520000I-147500J0D01*
G01*
X143407500Y-84520000D01*
G75*
G02*
X143260000Y-84372500I0J147500D01*
G01*
X143260000Y-84077500D01*
G75*
G02*
X143407500Y-83930000I147500J0D01*
G01*
G37*
G04 #@! TD.AperFunction*
G04 #@! TO.P,R2,1*
G04 #@! TO.N,Net-(MOSFET2-PadP$1)*
G04 #@! TA.AperFunction,SMDPad,CuDef*
G36*
G01*
X143407500Y-82960000D02*
X143752500Y-82960000D01*
G75*
G02*
X143900000Y-83107500I0J-147500D01*
G01*
X143900000Y-83402500D01*
G75*
G02*
X143752500Y-83550000I-147500J0D01*
G01*
X143407500Y-83550000D01*
G75*
G02*
X143260000Y-83402500I0J147500D01*
G01*
X143260000Y-83107500D01*
G75*
G02*
X143407500Y-82960000I147500J0D01*
G01*
G37*
G04 #@! TD.AperFunction*
G04 #@! TD*
G04 #@! TO.P,R3,1*
G04 #@! TO.N,Net-(MOSFET4-Pad3)*
G04 #@! TA.AperFunction,SMDPad,CuDef*
G36*
G01*
X135327500Y-82305000D02*
X135672500Y-82305000D01*
G75*
G02*
X135820000Y-82452500I0J-147500D01*
G01*
X135820000Y-82747500D01*
G75*
G02*
X135672500Y-82895000I-147500J0D01*
G01*
X135327500Y-82895000D01*
G75*
G02*
X135180000Y-82747500I0J147500D01*
G01*
X135180000Y-82452500D01*
G75*
G02*
X135327500Y-82305000I147500J0D01*
G01*
G37*
G04 #@! TD.AperFunction*
G04 #@! TO.P,R3,2*
G04 #@! TO.N,Net-(MOSFET2-PadP$1)*
G04 #@! TA.AperFunction,SMDPad,CuDef*
G36*
G01*
X135327500Y-83275000D02*
X135672500Y-83275000D01*
G75*
G02*
X135820000Y-83422500I0J-147500D01*
G01*
X135820000Y-83717500D01*
G75*
G02*
X135672500Y-83865000I-147500J0D01*
G01*
X135327500Y-83865000D01*
G75*
G02*
X135180000Y-83717500I0J147500D01*
G01*
X135180000Y-83422500D01*
G75*
G02*
X135327500Y-83275000I147500J0D01*
G01*
G37*
G04 #@! TD.AperFunction*
G04 #@! TD*
G04 #@! TO.P,R4,1*
G04 #@! TO.N,Net-(D2-Pad1)*
G04 #@! TA.AperFunction,SMDPad,CuDef*
G36*
G01*
X122085000Y-81147500D02*
X122085000Y-81492500D01*
G75*
G02*
X121937500Y-81640000I-147500J0D01*
G01*
X121642500Y-81640000D01*
G75*
G02*
X121495000Y-81492500I0J147500D01*
G01*
X121495000Y-81147500D01*
G75*
G02*
X121642500Y-81000000I147500J0D01*
G01*
X121937500Y-81000000D01*
G75*
G02*
X122085000Y-81147500I0J-147500D01*
G01*
G37*
G04 #@! TD.AperFunction*
G04 #@! TO.P,R4,2*
G04 #@! TO.N,GND*
G04 #@! TA.AperFunction,SMDPad,CuDef*
G36*
G01*
X121115000Y-81147500D02*
X121115000Y-81492500D01*
G75*
G02*
X120967500Y-81640000I-147500J0D01*
G01*
X120672500Y-81640000D01*
G75*
G02*
X120525000Y-81492500I0J147500D01*
G01*
X120525000Y-81147500D01*
G75*
G02*
X120672500Y-81000000I147500J0D01*
G01*
X120967500Y-81000000D01*
G75*
G02*
X121115000Y-81147500I0J-147500D01*
G01*
G37*
G04 #@! TD.AperFunction*
G04 #@! TD*
G04 #@! TO.P,R5,2*
G04 #@! TO.N,GND*
G04 #@! TA.AperFunction,SMDPad,CuDef*
G36*
G01*
X119535000Y-81492500D02*
X119535000Y-81147500D01*
G75*
G02*
X119682500Y-81000000I147500J0D01*
G01*
X119977500Y-81000000D01*
G75*
G02*
X120125000Y-81147500I0J-147500D01*
G01*
X120125000Y-81492500D01*
G75*
G02*
X119977500Y-81640000I-147500J0D01*
G01*
X119682500Y-81640000D01*
G75*
G02*
X119535000Y-81492500I0J147500D01*
G01*
G37*
G04 #@! TD.AperFunction*
G04 #@! TO.P,R5,1*
G04 #@! TO.N,Net-(D3-Pad1)*
G04 #@! TA.AperFunction,SMDPad,CuDef*
G36*
G01*
X118565000Y-81492500D02*
X118565000Y-81147500D01*
G75*
G02*
X118712500Y-81000000I147500J0D01*
G01*
X119007500Y-81000000D01*
G75*
G02*
X119155000Y-81147500I0J-147500D01*
G01*
X119155000Y-81492500D01*
G75*
G02*
X119007500Y-81640000I-147500J0D01*
G01*
X118712500Y-81640000D01*
G75*
G02*
X118565000Y-81492500I0J147500D01*
G01*
G37*
G04 #@! TD.AperFunction*
G04 #@! TD*
G04 #@! TO.P,R6,2*
G04 #@! TO.N,Net-(MOSFET1-Pad1)*
G04 #@! TA.AperFunction,SMDPad,CuDef*
G36*
G01*
X144940000Y-81972500D02*
X144940000Y-81627500D01*
G75*
G02*
X145087500Y-81480000I147500J0D01*
G01*
X145382500Y-81480000D01*
G75*
G02*
X145530000Y-81627500I0J-147500D01*
G01*
X145530000Y-81972500D01*
G75*
G02*
X145382500Y-82120000I-147500J0D01*
G01*
X145087500Y-82120000D01*
G75*
G02*
X144940000Y-81972500I0J147500D01*
G01*
G37*
G04 #@! TD.AperFunction*
G04 #@! TO.P,R6,1*
G04 #@! TO.N,GATE*
G04 #@! TA.AperFunction,SMDPad,CuDef*
G36*
G01*
X143970000Y-81972500D02*
X143970000Y-81627500D01*
G75*
G02*
X144117500Y-81480000I147500J0D01*
G01*
X144412500Y-81480000D01*
G75*
G02*
X144560000Y-81627500I0J-147500D01*
G01*
X144560000Y-81972500D01*
G75*
G02*
X144412500Y-82120000I-147500J0D01*
G01*
X144117500Y-82120000D01*
G75*
G02*
X143970000Y-81972500I0J147500D01*
G01*
G37*
G04 #@! TD.AperFunction*
G04 #@! TD*
G04 #@! TO.P,R8,2*
G04 #@! TO.N,GND*
G04 #@! TA.AperFunction,SMDPad,CuDef*
G36*
G01*
X135327500Y-85240000D02*
X135672500Y-85240000D01*
G75*
G02*
X135820000Y-85387500I0J-147500D01*
G01*
X135820000Y-85682500D01*
G75*
G02*
X135672500Y-85830000I-147500J0D01*
G01*
X135327500Y-85830000D01*
G75*
G02*
X135180000Y-85682500I0J147500D01*
G01*
X135180000Y-85387500D01*
G75*
G02*
X135327500Y-85240000I147500J0D01*
G01*
G37*
G04 #@! TD.AperFunction*
G04 #@! TO.P,R8,1*
G04 #@! TO.N,TPS_ENABLE*
G04 #@! TA.AperFunction,SMDPad,CuDef*
G36*
G01*
X135327500Y-84270000D02*
X135672500Y-84270000D01*
G75*
G02*
X135820000Y-84417500I0J-147500D01*
G01*
X135820000Y-84712500D01*
G75*
G02*
X135672500Y-84860000I-147500J0D01*
G01*
X135327500Y-84860000D01*
G75*
G02*
X135180000Y-84712500I0J147500D01*
G01*
X135180000Y-84417500D01*
G75*
G02*
X135327500Y-84270000I147500J0D01*
G01*
G37*
G04 #@! TD.AperFunction*
G04 #@! TD*
G04 #@! TO.P,R10,1*
G04 #@! TO.N,Net-(D4-Pad1)*
G04 #@! TA.AperFunction,SMDPad,CuDef*
G36*
G01*
X156517500Y-121445000D02*
X156862500Y-121445000D01*
G75*
G02*
X157010000Y-121592500I0J-147500D01*
G01*
X157010000Y-121887500D01*
G75*
G02*
X156862500Y-122035000I-147500J0D01*
G01*
X156517500Y-122035000D01*
G75*
G02*
X156370000Y-121887500I0J147500D01*
G01*
X156370000Y-121592500D01*
G75*
G02*
X156517500Y-121445000I147500J0D01*
G01*
G37*
G04 #@! TD.AperFunction*
G04 #@! TO.P,R10,2*
G04 #@! TO.N,LED1*
G04 #@! TA.AperFunction,SMDPad,CuDef*
G36*
G01*
X156517500Y-122415000D02*
X156862500Y-122415000D01*
G75*
G02*
X157010000Y-122562500I0J-147500D01*
G01*
X157010000Y-122857500D01*
G75*
G02*
X156862500Y-123005000I-147500J0D01*
G01*
X156517500Y-123005000D01*
G75*
G02*
X156370000Y-122857500I0J147500D01*
G01*
X156370000Y-122562500D01*
G75*
G02*
X156517500Y-122415000I147500J0D01*
G01*
G37*
G04 #@! TD.AperFunction*
G04 #@! TD*
G04 #@! TO.P,R11,1*
G04 #@! TO.N,Net-(D5-Pad1)*
G04 #@! TA.AperFunction,SMDPad,CuDef*
G36*
G01*
X156517500Y-119475000D02*
X156862500Y-119475000D01*
G75*
G02*
X157010000Y-119622500I0J-147500D01*
G01*
X157010000Y-119917500D01*
G75*
G02*
X156862500Y-120065000I-147500J0D01*
G01*
X156517500Y-120065000D01*
G75*
G02*
X156370000Y-119917500I0J147500D01*
G01*
X156370000Y-119622500D01*
G75*
G02*
X156517500Y-119475000I147500J0D01*
G01*
G37*
G04 #@! TD.AperFunction*
G04 #@! TO.P,R11,2*
G04 #@! TO.N,LED2*
G04 #@! TA.AperFunction,SMDPad,CuDef*
G36*
G01*
X156517500Y-120445000D02*
X156862500Y-120445000D01*
G75*
G02*
X157010000Y-120592500I0J-147500D01*
G01*
X157010000Y-120887500D01*
G75*
G02*
X156862500Y-121035000I-147500J0D01*
G01*
X156517500Y-121035000D01*
G75*
G02*
X156370000Y-120887500I0J147500D01*
G01*
X156370000Y-120592500D01*
G75*
G02*
X156517500Y-120445000I147500J0D01*
G01*
G37*
G04 #@! TD.AperFunction*
G04 #@! TD*
G04 #@! TO.P,R12,1*
G04 #@! TO.N,Net-(D6-Pad1)*
G04 #@! TA.AperFunction,SMDPad,CuDef*
G36*
G01*
X151797500Y-121475000D02*
X152142500Y-121475000D01*
G75*
G02*
X152290000Y-121622500I0J-147500D01*
G01*
X152290000Y-121917500D01*
G75*
G02*
X152142500Y-122065000I-147500J0D01*
G01*
X151797500Y-122065000D01*
G75*
G02*
X151650000Y-121917500I0J147500D01*
G01*
X151650000Y-121622500D01*
G75*
G02*
X151797500Y-121475000I147500J0D01*
G01*
G37*
G04 #@! TD.AperFunction*
G04 #@! TO.P,R12,2*
G04 #@! TO.N,LED3*
G04 #@! TA.AperFunction,SMDPad,CuDef*
G36*
G01*
X151797500Y-122445000D02*
X152142500Y-122445000D01*
G75*
G02*
X152290000Y-122592500I0J-147500D01*
G01*
X152290000Y-122887500D01*
G75*
G02*
X152142500Y-123035000I-147500J0D01*
G01*
X151797500Y-123035000D01*
G75*
G02*
X151650000Y-122887500I0J147500D01*
G01*
X151650000Y-122592500D01*
G75*
G02*
X151797500Y-122445000I147500J0D01*
G01*
G37*
G04 #@! TD.AperFunction*
G04 #@! TD*
G04 #@! TO.P,R13,1*
G04 #@! TO.N,Net-(D7-Pad1)*
G04 #@! TA.AperFunction,SMDPad,CuDef*
G36*
G01*
X151797500Y-119505000D02*
X152142500Y-119505000D01*
G75*
G02*
X152290000Y-119652500I0J-147500D01*
G01*
X152290000Y-119947500D01*
G75*
G02*
X152142500Y-120095000I-147500J0D01*
G01*
X151797500Y-120095000D01*
G75*
G02*
X151650000Y-119947500I0J147500D01*
G01*
X151650000Y-119652500D01*
G75*
G02*
X151797500Y-119505000I147500J0D01*
G01*
G37*
G04 #@! TD.AperFunction*
G04 #@! TO.P,R13,2*
G04 #@! TO.N,LED4*
G04 #@! TA.AperFunction,SMDPad,CuDef*
G36*
G01*
X151797500Y-120475000D02*
X152142500Y-120475000D01*
G75*
G02*
X152290000Y-120622500I0J-147500D01*
G01*
X152290000Y-120917500D01*
G75*
G02*
X152142500Y-121065000I-147500J0D01*
G01*
X151797500Y-121065000D01*
G75*
G02*
X151650000Y-120917500I0J147500D01*
G01*
X151650000Y-120622500D01*
G75*
G02*
X151797500Y-120475000I147500J0D01*
G01*
G37*
G04 #@! TD.AperFunction*
G04 #@! TD*
G04 #@! TO.P,R19,1*
G04 #@! TO.N,VSENSE_HIGH*
G04 #@! TA.AperFunction,SMDPad,CuDef*
G36*
G01*
X149562500Y-120693750D02*
X149562500Y-121206250D01*
G75*
G02*
X149343750Y-121425000I-218750J0D01*
G01*
X148906250Y-121425000D01*
G75*
G02*
X148687500Y-121206250I0J218750D01*
G01*
X148687500Y-120693750D01*
G75*
G02*
X148906250Y-120475000I218750J0D01*
G01*
X149343750Y-120475000D01*
G75*
G02*
X149562500Y-120693750I0J-218750D01*
G01*
G37*
G04 #@! TD.AperFunction*
G04 #@! TO.P,R19,2*
G04 #@! TO.N,24V_SENSE*
G04 #@! TA.AperFunction,SMDPad,CuDef*
G36*
G01*
X147987500Y-120693750D02*
X147987500Y-121206250D01*
G75*
G02*
X147768750Y-121425000I-218750J0D01*
G01*
X147331250Y-121425000D01*
G75*
G02*
X147112500Y-121206250I0J218750D01*
G01*
X147112500Y-120693750D01*
G75*
G02*
X147331250Y-120475000I218750J0D01*
G01*
X147768750Y-120475000D01*
G75*
G02*
X147987500Y-120693750I0J-218750D01*
G01*
G37*
G04 #@! TD.AperFunction*
G04 #@! TD*
G04 #@! TO.P,R20,2*
G04 #@! TO.N,VSW_SENSE*
G04 #@! TA.AperFunction,SMDPad,CuDef*
G36*
G01*
X144947500Y-120693750D02*
X144947500Y-121206250D01*
G75*
G02*
X144728750Y-121425000I-218750J0D01*
G01*
X144291250Y-121425000D01*
G75*
G02*
X144072500Y-121206250I0J218750D01*
G01*
X144072500Y-120693750D01*
G75*
G02*
X144291250Y-120475000I218750J0D01*
G01*
X144728750Y-120475000D01*
G75*
G02*
X144947500Y-120693750I0J-218750D01*
G01*
G37*
G04 #@! TD.AperFunction*
G04 #@! TO.P,R20,1*
G04 #@! TO.N,OUT*
G04 #@! TA.AperFunction,SMDPad,CuDef*
G36*
G01*
X146522500Y-120693750D02*
X146522500Y-121206250D01*
G75*
G02*
X146303750Y-121425000I-218750J0D01*
G01*
X145866250Y-121425000D01*
G75*
G02*
X145647500Y-121206250I0J218750D01*
G01*
X145647500Y-120693750D01*
G75*
G02*
X145866250Y-120475000I218750J0D01*
G01*
X146303750Y-120475000D01*
G75*
G02*
X146522500Y-120693750I0J-218750D01*
G01*
G37*
G04 #@! TD.AperFunction*
G04 #@! TD*
G04 #@! TO.P,R21,1*
G04 #@! TO.N,24V_SENSE*
G04 #@! TA.AperFunction,SMDPad,CuDef*
G36*
G01*
X147005000Y-122402500D02*
X147005000Y-122057500D01*
G75*
G02*
X147152500Y-121910000I147500J0D01*
G01*
X147447500Y-121910000D01*
G75*
G02*
X147595000Y-122057500I0J-147500D01*
G01*
X147595000Y-122402500D01*
G75*
G02*
X147447500Y-122550000I-147500J0D01*
G01*
X147152500Y-122550000D01*
G75*
G02*
X147005000Y-122402500I0J147500D01*
G01*
G37*
G04 #@! TD.AperFunction*
G04 #@! TO.P,R21,2*
G04 #@! TO.N,GND*
G04 #@! TA.AperFunction,SMDPad,CuDef*
G36*
G01*
X147975000Y-122402500D02*
X147975000Y-122057500D01*
G75*
G02*
X148122500Y-121910000I147500J0D01*
G01*
X148417500Y-121910000D01*
G75*
G02*
X148565000Y-122057500I0J-147500D01*
G01*
X148565000Y-122402500D01*
G75*
G02*
X148417500Y-122550000I-147500J0D01*
G01*
X148122500Y-122550000D01*
G75*
G02*
X147975000Y-122402500I0J147500D01*
G01*
G37*
G04 #@! TD.AperFunction*
G04 #@! TD*
G04 #@! TO.P,R22,2*
G04 #@! TO.N,GND*
G04 #@! TA.AperFunction,SMDPad,CuDef*
G36*
G01*
X144945000Y-122392500D02*
X144945000Y-122047500D01*
G75*
G02*
X145092500Y-121900000I147500J0D01*
G01*
X145387500Y-121900000D01*
G75*
G02*
X145535000Y-122047500I0J-147500D01*
G01*
X145535000Y-122392500D01*
G75*
G02*
X145387500Y-122540000I-147500J0D01*
G01*
X145092500Y-122540000D01*
G75*
G02*
X144945000Y-122392500I0J147500D01*
G01*
G37*
G04 #@! TD.AperFunction*
G04 #@! TO.P,R22,1*
G04 #@! TO.N,VSW_SENSE*
G04 #@! TA.AperFunction,SMDPad,CuDef*
G36*
G01*
X143975000Y-122392500D02*
X143975000Y-122047500D01*
G75*
G02*
X144122500Y-121900000I147500J0D01*
G01*
X144417500Y-121900000D01*
G75*
G02*
X144565000Y-122047500I0J-147500D01*
G01*
X144565000Y-122392500D01*
G75*
G02*
X144417500Y-122540000I-147500J0D01*
G01*
X144122500Y-122540000D01*
G75*
G02*
X143975000Y-122392500I0J147500D01*
G01*
G37*
G04 #@! TD.AperFunction*
G04 #@! TD*
D27*
G04 #@! TO.P,U1,1*
G04 #@! TO.N,VSENSE_HIGH*
X124990000Y-82310000D03*
G04 #@! TO.P,U1,2*
X124990000Y-82810000D03*
G04 #@! TO.P,U1,3*
G04 #@! TO.N,Net-(C4-Pad1)*
X124990000Y-83310000D03*
G04 #@! TO.P,U1,4*
G04 #@! TO.N,+3V3*
X124990000Y-83810000D03*
G04 #@! TO.P,U1,5*
G04 #@! TO.N,Net-(U1-Pad5)*
X126890000Y-83810000D03*
G04 #@! TO.P,U1,6*
G04 #@! TO.N,Net-(U1-Pad6)*
X126890000Y-83310000D03*
G04 #@! TO.P,U1,7*
G04 #@! TO.N,GND*
X126890000Y-82810000D03*
G04 #@! TO.P,U1,8*
G04 #@! TO.N,Net-(L1-Pad1)*
X126890000Y-82310000D03*
G04 #@! TD*
D28*
G04 #@! TO.P,U2,1*
G04 #@! TO.N,+3V3*
X140804400Y-116210000D03*
G04 #@! TO.P,U2,2*
G04 #@! TO.N,LED1*
X140804400Y-115710001D03*
G04 #@! TO.P,U2,3*
G04 #@! TO.N,LED2*
X140804400Y-115209999D03*
G04 #@! TO.P,U2,4*
G04 #@! TO.N,LED3*
X140804400Y-114710000D03*
G04 #@! TO.P,U2,5*
G04 #@! TO.N,LED4*
X140804400Y-114210001D03*
G04 #@! TO.P,U2,6*
G04 #@! TO.N,Net-(U2-Pad6)*
X140804400Y-113710000D03*
G04 #@! TO.P,U2,7*
G04 #@! TO.N,NRST*
X140804400Y-113210000D03*
G04 #@! TO.P,U2,8*
G04 #@! TO.N,MOSFET_TEMP*
X140804400Y-112709999D03*
G04 #@! TO.P,U2,9*
G04 #@! TO.N,I_SENSE*
X140804400Y-112210000D03*
G04 #@! TO.P,U2,10*
G04 #@! TO.N,I_SENSE_BIAS*
X140804400Y-111710001D03*
G04 #@! TO.P,U2,11*
G04 #@! TO.N,Net-(U2-Pad11)*
X140804400Y-111209999D03*
G04 #@! TO.P,U2,12*
G04 #@! TO.N,Net-(U2-Pad12)*
X140804400Y-110710000D03*
D29*
G04 #@! TO.P,U2,13*
G04 #@! TO.N,Net-(U2-Pad13)*
X140100000Y-110005600D03*
G04 #@! TO.P,U2,14*
G04 #@! TO.N,Net-(U2-Pad14)*
X139600001Y-110005600D03*
G04 #@! TO.P,U2,15*
G04 #@! TO.N,Net-(U2-Pad15)*
X139099999Y-110005600D03*
G04 #@! TO.P,U2,16*
G04 #@! TO.N,Net-(U2-Pad16)*
X138600000Y-110005600D03*
G04 #@! TO.P,U2,17*
G04 #@! TO.N,Net-(U2-Pad17)*
X138100001Y-110005600D03*
G04 #@! TO.P,U2,18*
G04 #@! TO.N,Net-(U2-Pad18)*
X137600000Y-110005600D03*
G04 #@! TO.P,U2,19*
G04 #@! TO.N,PG*
X137100000Y-110005600D03*
G04 #@! TO.P,U2,20*
G04 #@! TO.N,+3V3*
X136599999Y-110005600D03*
G04 #@! TO.P,U2,21*
X136100000Y-110005600D03*
G04 #@! TO.P,U2,22*
G04 #@! TO.N,Net-(U2-Pad22)*
X135600001Y-110005600D03*
G04 #@! TO.P,U2,23*
G04 #@! TO.N,+3V3*
X135099999Y-110005600D03*
G04 #@! TO.P,U2,24*
G04 #@! TO.N,TPS_ENABLE*
X134600000Y-110005600D03*
D28*
G04 #@! TO.P,U2,25*
G04 #@! TO.N,CAN_SHDN*
X133895600Y-110710000D03*
G04 #@! TO.P,U2,26*
G04 #@! TO.N,Net-(U2-Pad26)*
X133895600Y-111209999D03*
G04 #@! TO.P,U2,27*
G04 #@! TO.N,Net-(U2-Pad27)*
X133895600Y-111710001D03*
G04 #@! TO.P,U2,28*
G04 #@! TO.N,Net-(U2-Pad28)*
X133895600Y-112210000D03*
G04 #@! TO.P,U2,29*
G04 #@! TO.N,Net-(U2-Pad29)*
X133895600Y-112709999D03*
G04 #@! TO.P,U2,30*
G04 #@! TO.N,Net-(U2-Pad30)*
X133895600Y-113210000D03*
G04 #@! TO.P,U2,31*
G04 #@! TO.N,Net-(U2-Pad31)*
X133895600Y-113710000D03*
G04 #@! TO.P,U2,32*
G04 #@! TO.N,Net-(U2-Pad32)*
X133895600Y-114210001D03*
G04 #@! TO.P,U2,33*
G04 #@! TO.N,USB_D-*
X133895600Y-114710000D03*
G04 #@! TO.P,U2,34*
G04 #@! TO.N,USB_D+*
X133895600Y-115209999D03*
G04 #@! TO.P,U2,35*
G04 #@! TO.N,+3V3*
X133895600Y-115710001D03*
G04 #@! TO.P,U2,36*
G04 #@! TO.N,SWDIO*
X133895600Y-116210000D03*
D29*
G04 #@! TO.P,U2,37*
G04 #@! TO.N,SWCLK*
X134600000Y-116914400D03*
G04 #@! TO.P,U2,38*
G04 #@! TO.N,Net-(U2-Pad38)*
X135099999Y-116914400D03*
G04 #@! TO.P,U2,39*
G04 #@! TO.N,Net-(U2-Pad39)*
X135600001Y-116914400D03*
G04 #@! TO.P,U2,40*
G04 #@! TO.N,Net-(U2-Pad40)*
X136100000Y-116914400D03*
G04 #@! TO.P,U2,41*
G04 #@! TO.N,SWO*
X136599999Y-116914400D03*
G04 #@! TO.P,U2,42*
G04 #@! TO.N,24V_SENSE*
X137100000Y-116914400D03*
G04 #@! TO.P,U2,43*
G04 #@! TO.N,VSW_SENSE*
X137600000Y-116914400D03*
G04 #@! TO.P,U2,44*
G04 #@! TO.N,Net-(U2-Pad44)*
X138100001Y-116914400D03*
G04 #@! TO.P,U2,45*
G04 #@! TO.N,Net-(U2-Pad45)*
X138600000Y-116914400D03*
G04 #@! TO.P,U2,46*
G04 #@! TO.N,CAN_RX*
X139099999Y-116914400D03*
G04 #@! TO.P,U2,47*
G04 #@! TO.N,CAN_TX*
X139600001Y-116914400D03*
G04 #@! TO.P,U2,48*
G04 #@! TO.N,+3V3*
X140100000Y-116914400D03*
D30*
G04 #@! TO.P,U2,49*
G04 #@! TO.N,GND*
X137350000Y-113460000D03*
G04 #@! TD*
D31*
G04 #@! TO.P,U5,3*
G04 #@! TO.N,OUT*
X167525500Y-121500000D03*
D32*
G04 #@! TO.P,U5,2*
G04 #@! TO.N,GNDPWR*
X163944100Y-120450000D03*
G04 #@! TO.P,U5,1*
X163944100Y-122550000D03*
G04 #@! TD*
D12*
G04 #@! TO.P,U6,-*
G04 #@! TO.N,GNDPWR*
X174175000Y-104800000D03*
G04 #@! TO.P,U6,+*
G04 #@! TO.N,OUT*
X174175000Y-99800000D03*
G04 #@! TD*
G04 #@! TO.P,U7,+*
G04 #@! TO.N,OUT*
X174125000Y-110950000D03*
G04 #@! TO.P,U7,-*
G04 #@! TO.N,GNDPWR*
X174125000Y-115950000D03*
G04 #@! TD*
G04 #@! TO.P,U9,-*
G04 #@! TO.N,GNDPWR*
X167950000Y-115925000D03*
G04 #@! TO.P,U9,+*
G04 #@! TO.N,OUT*
X167950000Y-110925000D03*
G04 #@! TD*
G04 #@! TO.P,U10,+*
G04 #@! TO.N,OUT*
X174175000Y-88680000D03*
G04 #@! TO.P,U10,-*
G04 #@! TO.N,GNDPWR*
X174175000Y-93680000D03*
G04 #@! TD*
G04 #@! TO.P,U11,-*
G04 #@! TO.N,GNDPWR*
X167950000Y-104775000D03*
G04 #@! TO.P,U11,+*
G04 #@! TO.N,OUT*
X167950000Y-99775000D03*
G04 #@! TD*
G04 #@! TO.P,U12,+*
G04 #@! TO.N,OUT*
X167950000Y-88655000D03*
G04 #@! TO.P,U12,-*
G04 #@! TO.N,GNDPWR*
X167950000Y-93655000D03*
G04 #@! TD*
D33*
G04 #@! TO.P,U13,1*
G04 #@! TO.N,Net-(C15-Pad2)*
X145009800Y-104800000D03*
G04 #@! TO.P,U13,2*
G04 #@! TO.N,VSENSE_LOW*
X145009800Y-104150000D03*
G04 #@! TO.P,U13,3*
G04 #@! TO.N,Net-(U13-Pad3)*
X145009800Y-103500000D03*
G04 #@! TO.P,U13,4*
G04 #@! TO.N,GND*
X145009800Y-102850000D03*
G04 #@! TO.P,U13,5*
G04 #@! TO.N,I_SENSE*
X140590200Y-102850000D03*
G04 #@! TO.P,U13,6*
G04 #@! TO.N,Net-(C16-Pad1)*
X140590200Y-103500000D03*
G04 #@! TO.P,U13,7*
G04 #@! TO.N,VSENSE_HIGH*
X140590200Y-104150000D03*
G04 #@! TO.P,U13,8*
G04 #@! TO.N,Net-(C15-Pad1)*
X140590200Y-104800000D03*
G04 #@! TD*
D34*
G04 #@! TO.P,U14,3*
G04 #@! TO.N,USB_CONN_D+*
X125170000Y-117860000D03*
G04 #@! TO.P,U14,2*
G04 #@! TO.N,GND*
X125170000Y-116910000D03*
G04 #@! TO.P,U14,1*
G04 #@! TO.N,USB_CONN_D-*
X125170000Y-115960000D03*
G04 #@! TO.P,U14,4*
G04 #@! TO.N,USB_D+*
X127870000Y-117860000D03*
G04 #@! TO.P,U14,5*
G04 #@! TO.N,+5V*
X127870000Y-116910000D03*
G04 #@! TO.P,U14,6*
G04 #@! TO.N,USB_D-*
X127870000Y-115960000D03*
G04 #@! TD*
G04 #@! TO.P,J1,1*
G04 #@! TO.N,CAN_H*
G04 #@! TA.AperFunction,ComponentPad*
G36*
G01*
X121655001Y-115550000D02*
X120404999Y-115550000D01*
G75*
G02*
X120155000Y-115300001I0J249999D01*
G01*
X120155000Y-114599999D01*
G75*
G02*
X120404999Y-114350000I249999J0D01*
G01*
X121655001Y-114350000D01*
G75*
G02*
X121905000Y-114599999I0J-249999D01*
G01*
X121905000Y-115300001D01*
G75*
G02*
X121655001Y-115550000I-249999J0D01*
G01*
G37*
G04 #@! TD.AperFunction*
D35*
G04 #@! TO.P,J1,2*
G04 #@! TO.N,CAN_L*
X121030000Y-112950000D03*
G04 #@! TO.P,J1,3*
G04 #@! TO.N,GND*
X121030000Y-110950000D03*
G04 #@! TD*
G04 #@! TO.P,J2,3*
G04 #@! TO.N,GND*
X115070000Y-110940000D03*
G04 #@! TO.P,J2,2*
G04 #@! TO.N,CAN_L*
X115070000Y-112940000D03*
G04 #@! TO.P,J2,1*
G04 #@! TO.N,CAN_H*
G04 #@! TA.AperFunction,ComponentPad*
G36*
G01*
X115695001Y-115540000D02*
X114444999Y-115540000D01*
G75*
G02*
X114195000Y-115290001I0J249999D01*
G01*
X114195000Y-114589999D01*
G75*
G02*
X114444999Y-114340000I249999J0D01*
G01*
X115695001Y-114340000D01*
G75*
G02*
X115945000Y-114589999I0J-249999D01*
G01*
X115945000Y-115290001D01*
G75*
G02*
X115695001Y-115540000I-249999J0D01*
G01*
G37*
G04 #@! TD.AperFunction*
G04 #@! TD*
G04 #@! TO.P,R1,1*
G04 #@! TO.N,VSENSE_LOW*
G04 #@! TA.AperFunction,SMDPad,CuDef*
G36*
G01*
X146325000Y-90074999D02*
X146325000Y-92925001D01*
G75*
G02*
X146075001Y-93175000I-249999J0D01*
G01*
X145224999Y-93175000D01*
G75*
G02*
X144975000Y-92925001I0J249999D01*
G01*
X144975000Y-90074999D01*
G75*
G02*
X145224999Y-89825000I249999J0D01*
G01*
X146075001Y-89825000D01*
G75*
G02*
X146325000Y-90074999I0J-249999D01*
G01*
G37*
G04 #@! TD.AperFunction*
G04 #@! TO.P,R1,2*
G04 #@! TO.N,VSENSE_HIGH*
G04 #@! TA.AperFunction,SMDPad,CuDef*
G36*
G01*
X140525000Y-90074999D02*
X140525000Y-92925001D01*
G75*
G02*
X140275001Y-93175000I-249999J0D01*
G01*
X139424999Y-93175000D01*
G75*
G02*
X139175000Y-92925001I0J249999D01*
G01*
X139175000Y-90074999D01*
G75*
G02*
X139424999Y-89825000I249999J0D01*
G01*
X140275001Y-89825000D01*
G75*
G02*
X140525000Y-90074999I0J-249999D01*
G01*
G37*
G04 #@! TD.AperFunction*
G04 #@! TD*
G04 #@! TO.P,R17,2*
G04 #@! TO.N,Net-(C16-Pad1)*
G04 #@! TA.AperFunction,SMDPad,CuDef*
G36*
G01*
X140507500Y-108000000D02*
X140162500Y-108000000D01*
G75*
G02*
X140015000Y-107852500I0J147500D01*
G01*
X140015000Y-107557500D01*
G75*
G02*
X140162500Y-107410000I147500J0D01*
G01*
X140507500Y-107410000D01*
G75*
G02*
X140655000Y-107557500I0J-147500D01*
G01*
X140655000Y-107852500D01*
G75*
G02*
X140507500Y-108000000I-147500J0D01*
G01*
G37*
G04 #@! TD.AperFunction*
G04 #@! TO.P,R17,1*
G04 #@! TO.N,I_SENSE_BIAS*
G04 #@! TA.AperFunction,SMDPad,CuDef*
G36*
G01*
X140507500Y-108970000D02*
X140162500Y-108970000D01*
G75*
G02*
X140015000Y-108822500I0J147500D01*
G01*
X140015000Y-108527500D01*
G75*
G02*
X140162500Y-108380000I147500J0D01*
G01*
X140507500Y-108380000D01*
G75*
G02*
X140655000Y-108527500I0J-147500D01*
G01*
X140655000Y-108822500D01*
G75*
G02*
X140507500Y-108970000I-147500J0D01*
G01*
G37*
G04 #@! TD.AperFunction*
G04 #@! TD*
G04 #@! TO.P,R18,1*
G04 #@! TO.N,Net-(C16-Pad1)*
G04 #@! TA.AperFunction,SMDPad,CuDef*
G36*
G01*
X138367500Y-107930000D02*
X138022500Y-107930000D01*
G75*
G02*
X137875000Y-107782500I0J147500D01*
G01*
X137875000Y-107487500D01*
G75*
G02*
X138022500Y-107340000I147500J0D01*
G01*
X138367500Y-107340000D01*
G75*
G02*
X138515000Y-107487500I0J-147500D01*
G01*
X138515000Y-107782500D01*
G75*
G02*
X138367500Y-107930000I-147500J0D01*
G01*
G37*
G04 #@! TD.AperFunction*
G04 #@! TO.P,R18,2*
G04 #@! TO.N,GND*
G04 #@! TA.AperFunction,SMDPad,CuDef*
G36*
G01*
X138367500Y-106960000D02*
X138022500Y-106960000D01*
G75*
G02*
X137875000Y-106812500I0J147500D01*
G01*
X137875000Y-106517500D01*
G75*
G02*
X138022500Y-106370000I147500J0D01*
G01*
X138367500Y-106370000D01*
G75*
G02*
X138515000Y-106517500I0J-147500D01*
G01*
X138515000Y-106812500D01*
G75*
G02*
X138367500Y-106960000I-147500J0D01*
G01*
G37*
G04 #@! TD.AperFunction*
G04 #@! TD*
D36*
G04 #@! TO.P,JP1,1*
G04 #@! TO.N,GND*
X129865000Y-102100000D03*
G04 #@! TO.P,JP1,2*
G04 #@! TO.N,GNDPWR*
X131135000Y-102100000D03*
G04 #@! TD*
D37*
G04 #@! TO.N,+3V3*
X129930000Y-110120000D03*
X129920000Y-114030000D03*
X132750000Y-116570000D03*
X141650000Y-116690000D03*
X140570000Y-117380000D03*
X155580000Y-120460000D03*
X155419990Y-122430000D03*
X160210000Y-122370000D03*
X160260000Y-120440000D03*
X121470000Y-85240000D03*
X119190000Y-85240000D03*
X124510000Y-85690000D03*
X128225000Y-85725000D03*
X129000000Y-85700000D03*
X129775000Y-85775000D03*
X130448495Y-85701658D03*
X128300000Y-83950000D03*
X129025000Y-83925000D03*
X129725000Y-83925000D03*
X130350000Y-83975000D03*
X145580326Y-83619674D03*
X133363659Y-107836341D03*
X134790000Y-108810000D03*
G04 #@! TO.N,GND*
X122280000Y-118850000D03*
X127220000Y-112620000D03*
X131620000Y-116630000D03*
X141560000Y-117520000D03*
X142440010Y-118175816D03*
X149190000Y-122770000D03*
X149110000Y-123580000D03*
X126500000Y-114060000D03*
X137120000Y-107850000D03*
X136440000Y-107140000D03*
X135510000Y-107060000D03*
X137350000Y-106660000D03*
X137350000Y-112065000D03*
X138750000Y-112065000D03*
X135950000Y-112065000D03*
X138750000Y-113465000D03*
X135950000Y-113465000D03*
X137350000Y-113465000D03*
X137350000Y-114865000D03*
X138750000Y-114865000D03*
X126650000Y-84975000D03*
X136800000Y-82725000D03*
X135850000Y-80750000D03*
X134600000Y-81300000D03*
X143745673Y-114354327D03*
X158191200Y-119235000D03*
X130000000Y-111800000D03*
X123696605Y-117403395D03*
X146050000Y-122700000D03*
X146400000Y-123300000D03*
X136500000Y-86350000D03*
X135500000Y-86300000D03*
X133850000Y-86300000D03*
X141550000Y-87981999D03*
X142950000Y-85450000D03*
X128700000Y-101550000D03*
X128150000Y-102250000D03*
X128700000Y-102850000D03*
X142300000Y-102850000D03*
X143500000Y-102850000D03*
X135050000Y-111180000D03*
X139670000Y-111120000D03*
X139580000Y-115760000D03*
X134860000Y-115890000D03*
G04 #@! TO.N,VSENSE_HIGH*
X149250000Y-122000000D03*
X131250000Y-91450000D03*
G04 #@! TO.N,NRST*
X141950000Y-113585001D03*
G04 #@! TO.N,OUT*
X145825000Y-88250000D03*
X162700000Y-86400000D03*
X146400000Y-122000000D03*
X160650000Y-118550000D03*
G04 #@! TO.N,+5V*
X126900000Y-120600000D03*
X123800000Y-81000000D03*
D38*
G04 #@! TO.N,VSENSE_LOW*
X155120000Y-105720000D03*
X153550000Y-105720000D03*
X151870000Y-105720000D03*
X150170000Y-105720000D03*
X148470000Y-105720000D03*
X155240000Y-93220000D03*
X153630000Y-93220000D03*
X151830000Y-93220000D03*
X149930000Y-93220000D03*
X147930000Y-93220000D03*
D37*
G04 #@! TO.N,PG*
X137300000Y-108900000D03*
X145775000Y-89125000D03*
G04 #@! TO.N,TPS_ENABLE*
X131975000Y-107650000D03*
X131975000Y-86450000D03*
G04 #@! TO.N,CAN_TX*
X139585574Y-118159954D03*
X132695362Y-112829638D03*
G04 #@! TO.N,CAN_RX*
X138793968Y-118044360D03*
X132775000Y-109000000D03*
G04 #@! TO.N,Net-(MOSFET2-PadP$1)*
X134390000Y-83549999D03*
X142190000Y-80960000D03*
G04 #@! TO.N,GNDPWR*
X164400000Y-121500000D03*
X163750000Y-121500000D03*
X163100000Y-121500000D03*
X161900000Y-121350000D03*
X161250000Y-121350000D03*
G04 #@! TD*
D39*
G04 #@! TO.N,+3V3*
X140100000Y-117805000D02*
X140445000Y-118150000D01*
X140100000Y-116914400D02*
X140100000Y-117805000D01*
X141820000Y-116210000D02*
X142420000Y-116810000D01*
X140804400Y-116210000D02*
X141820000Y-116210000D01*
X134560799Y-108810000D02*
X134280000Y-108810000D01*
X135099999Y-109349200D02*
X134560799Y-108810000D01*
X135099999Y-110005600D02*
X135099999Y-109349200D01*
X135620000Y-108810000D02*
X135300000Y-108810000D01*
X136100000Y-109290000D02*
X135620000Y-108810000D01*
X136100000Y-110005600D02*
X136100000Y-109290000D01*
X136599999Y-109089999D02*
X136320000Y-108810000D01*
X136599999Y-110005600D02*
X136599999Y-109089999D01*
X132834999Y-115710001D02*
X132685000Y-115860000D01*
X133895600Y-115710001D02*
X132834999Y-115710001D01*
D40*
X130820498Y-110095000D02*
X131260000Y-110095000D01*
X129045000Y-111870498D02*
X130820498Y-110095000D01*
X129045000Y-114050000D02*
X129045000Y-111870498D01*
D41*
X129955000Y-110095000D02*
X129930000Y-110120000D01*
X131260000Y-110095000D02*
X129955000Y-110095000D01*
X129900000Y-114050000D02*
X129920000Y-114030000D01*
X129045000Y-114050000D02*
X129900000Y-114050000D01*
X132685000Y-116505000D02*
X132750000Y-116570000D01*
X132685000Y-115860000D02*
X132685000Y-116505000D01*
D39*
X141770000Y-116810000D02*
X141650000Y-116690000D01*
X142420000Y-116810000D02*
X141770000Y-116810000D01*
X140445000Y-117505000D02*
X140570000Y-117380000D01*
X140445000Y-118150000D02*
X140445000Y-117505000D01*
D41*
X154840000Y-120460000D02*
X155580000Y-120460000D01*
X155409990Y-122420000D02*
X155419990Y-122430000D01*
X154845000Y-122420000D02*
X155409990Y-122420000D01*
X160190000Y-122390000D02*
X160210000Y-122370000D01*
X159550000Y-122390000D02*
X160190000Y-122390000D01*
X160250000Y-120430000D02*
X160260000Y-120440000D01*
X159545000Y-120430000D02*
X160250000Y-120430000D01*
X121470000Y-84200000D02*
X121470000Y-85240000D01*
X119180000Y-85230000D02*
X119190000Y-85240000D01*
X119180000Y-84200000D02*
X119180000Y-85230000D01*
X124730000Y-85470000D02*
X124510000Y-85690000D01*
X124730000Y-84950000D02*
X124730000Y-85470000D01*
D40*
X124730000Y-84070000D02*
X124990000Y-83810000D01*
X124730000Y-84950000D02*
X124730000Y-84070000D01*
D41*
X129150000Y-84800000D02*
X128225000Y-85725000D01*
X129260000Y-84800000D02*
X129150000Y-84800000D01*
X129260000Y-85440000D02*
X129000000Y-85700000D01*
X129260000Y-84800000D02*
X129260000Y-85440000D01*
X129260000Y-85260000D02*
X129775000Y-85775000D01*
X129260000Y-84800000D02*
X129260000Y-85260000D01*
X129546837Y-84800000D02*
X130448495Y-85701658D01*
X129260000Y-84800000D02*
X129546837Y-84800000D01*
X129150000Y-84800000D02*
X128300000Y-83950000D01*
X129260000Y-84160000D02*
X129025000Y-83925000D01*
X129260000Y-84800000D02*
X129260000Y-84160000D01*
X129260000Y-84390000D02*
X129725000Y-83925000D01*
X129260000Y-84800000D02*
X129260000Y-84390000D01*
X129525000Y-84800000D02*
X130350000Y-83975000D01*
X129260000Y-84800000D02*
X129525000Y-84800000D01*
D39*
X159590010Y-120384990D02*
X159545000Y-120430000D01*
X159590010Y-118590010D02*
X159590010Y-120384990D01*
X159265000Y-118265000D02*
X159590010Y-118590010D01*
X158945000Y-118265000D02*
X159265000Y-118265000D01*
D41*
X145546234Y-83619674D02*
X145580326Y-83619674D01*
X144890000Y-82963440D02*
X145546234Y-83619674D01*
X144890000Y-82825000D02*
X144890000Y-82963440D01*
D39*
X133363659Y-107893659D02*
X133363659Y-107836341D01*
X134280000Y-108810000D02*
X133363659Y-107893659D01*
X134280000Y-108810000D02*
X134790000Y-108810000D01*
D41*
X136320000Y-108810000D02*
X134790000Y-108810000D01*
D40*
X158850000Y-118170000D02*
X158945000Y-118265000D01*
X157685000Y-118170000D02*
X158850000Y-118170000D01*
D41*
G04 #@! TO.N,GND*
X115080000Y-110950000D02*
X115070000Y-110940000D01*
X121030000Y-110950000D02*
X115080000Y-110950000D01*
D39*
X134280000Y-107840000D02*
X135300000Y-107840000D01*
X136320000Y-107840000D02*
X135300000Y-107840000D01*
X142050000Y-118150000D02*
X142420000Y-117780000D01*
X141415000Y-118150000D02*
X142050000Y-118150000D01*
X122280000Y-120255000D02*
X122280000Y-118850000D01*
D40*
X127275000Y-114050000D02*
X125860000Y-112635000D01*
X128075000Y-114050000D02*
X127275000Y-114050000D01*
D41*
X127205000Y-112635000D02*
X127220000Y-112620000D01*
X125860000Y-112635000D02*
X127205000Y-112635000D01*
X131715000Y-116535000D02*
X131620000Y-116630000D01*
X131715000Y-115860000D02*
X131715000Y-116535000D01*
D39*
X141415000Y-117665000D02*
X141560000Y-117520000D01*
X141415000Y-118150000D02*
X141415000Y-117665000D01*
X142420000Y-118155806D02*
X142440010Y-118175816D01*
X142420000Y-117780000D02*
X142420000Y-118155806D01*
D41*
X148810000Y-122770000D02*
X149190000Y-122770000D01*
X148270000Y-122230000D02*
X148810000Y-122770000D01*
X148780000Y-123250000D02*
X149110000Y-123580000D01*
X148270000Y-123250000D02*
X148780000Y-123250000D01*
D40*
X119830000Y-81000000D02*
X119830000Y-81320000D01*
X119479990Y-80649990D02*
X119830000Y-81000000D01*
X118230010Y-80649990D02*
X119479990Y-80649990D01*
X120149990Y-80649990D02*
X120820000Y-81320000D01*
X118230010Y-80649990D02*
X120149990Y-80649990D01*
X115720000Y-83160000D02*
X118230010Y-80649990D01*
X122707500Y-81730000D02*
X123260000Y-82282500D01*
X122640000Y-81730000D02*
X122707500Y-81730000D01*
X122435010Y-81525010D02*
X122640000Y-81730000D01*
X122143576Y-80649990D02*
X122435010Y-80941424D01*
X122435010Y-80941424D02*
X122435010Y-81525010D01*
X118230010Y-80649990D02*
X122143576Y-80649990D01*
X125765001Y-84884999D02*
X125700000Y-84950000D01*
X125765001Y-83209999D02*
X125765001Y-84884999D01*
X126165000Y-82810000D02*
X125765001Y-83209999D01*
X126890000Y-82810000D02*
X126165000Y-82810000D01*
D41*
X126510000Y-114050000D02*
X126500000Y-114060000D01*
X128075000Y-114050000D02*
X126510000Y-114050000D01*
X137110000Y-107840000D02*
X137120000Y-107850000D01*
X136320000Y-107840000D02*
X137110000Y-107840000D01*
X135740000Y-107840000D02*
X136440000Y-107140000D01*
X135300000Y-107840000D02*
X135740000Y-107840000D01*
X134730000Y-107840000D02*
X135510000Y-107060000D01*
X134280000Y-107840000D02*
X134730000Y-107840000D01*
X137355000Y-106665000D02*
X137350000Y-106660000D01*
X138195000Y-106665000D02*
X137355000Y-106665000D01*
X126625000Y-84950000D02*
X126650000Y-84975000D01*
X125700000Y-84950000D02*
X126625000Y-84950000D01*
X136670000Y-82855000D02*
X136800000Y-82725000D01*
X136670000Y-83340000D02*
X136670000Y-82855000D01*
X136660000Y-80750000D02*
X135850000Y-80750000D01*
X133597500Y-81300000D02*
X134600000Y-81300000D01*
D39*
X143610000Y-114218654D02*
X143745673Y-114354327D01*
X143610000Y-113575000D02*
X143610000Y-114218654D01*
X157685000Y-118728800D02*
X158191200Y-119235000D01*
X158945000Y-119235000D02*
X158191200Y-119235000D01*
D41*
X138200000Y-106660000D02*
X138195000Y-106665000D01*
X139265000Y-106660000D02*
X138200000Y-106660000D01*
X130435000Y-111365000D02*
X130000000Y-111800000D01*
X131260000Y-111365000D02*
X130435000Y-111365000D01*
X124190000Y-116910000D02*
X123696605Y-117403395D01*
X125170000Y-116910000D02*
X124190000Y-116910000D01*
X145570000Y-122220000D02*
X146050000Y-122700000D01*
X145240000Y-122220000D02*
X145570000Y-122220000D01*
X146340000Y-123240000D02*
X146400000Y-123300000D01*
X145235000Y-123240000D02*
X146340000Y-123240000D01*
X136505000Y-86345000D02*
X136500000Y-86350000D01*
X136505000Y-85510000D02*
X136505000Y-86345000D01*
X135500000Y-85535000D02*
X135500000Y-86300000D01*
X133860000Y-86290000D02*
X133850000Y-86300000D01*
X133860000Y-85200000D02*
X133860000Y-86290000D01*
D39*
X141550000Y-87987564D02*
X141550000Y-87981999D01*
X140797564Y-88740000D02*
X141550000Y-87987564D01*
X140040000Y-88740000D02*
X140797564Y-88740000D01*
D41*
X143915000Y-85450000D02*
X142950000Y-85450000D01*
D39*
X141686532Y-101939089D02*
X142300000Y-102552557D01*
X139392929Y-101939089D02*
X141686532Y-101939089D01*
X138786679Y-102545339D02*
X139392929Y-101939089D01*
X138786679Y-106181679D02*
X138786679Y-102545339D01*
X139265000Y-106660000D02*
X138786679Y-106181679D01*
X142300000Y-102552557D02*
X142300000Y-102850000D01*
X143500000Y-102850000D02*
X145009800Y-102850000D01*
D41*
X145240000Y-123235000D02*
X145235000Y-123240000D01*
X145240000Y-122220000D02*
X145240000Y-123235000D01*
X148270000Y-122230000D02*
X148270000Y-123250000D01*
D39*
G04 #@! TO.N,VSENSE_HIGH*
X139850000Y-91500000D02*
X142829980Y-88520020D01*
X143389456Y-86740000D02*
X144340000Y-86740000D01*
X142829981Y-87299475D02*
X143389456Y-86740000D01*
X142829980Y-88520020D02*
X142829981Y-87299475D01*
D40*
X144885000Y-86195000D02*
X144885000Y-85450000D01*
X144340000Y-86740000D02*
X144885000Y-86195000D01*
D41*
X131209999Y-81812501D02*
X131722500Y-81300000D01*
X131209999Y-89954714D02*
X131209999Y-81812501D01*
X132465285Y-91210000D02*
X131209999Y-89954714D01*
X135800000Y-91210000D02*
X132465285Y-91210000D01*
X126335527Y-80814473D02*
X126140000Y-81010000D01*
X131236973Y-80814473D02*
X126335527Y-80814473D01*
X131722500Y-81300000D02*
X131236973Y-80814473D01*
X126140000Y-81160000D02*
X124990000Y-82310000D01*
X126140000Y-81010000D02*
X126140000Y-81160000D01*
X124990000Y-82310000D02*
X124990000Y-82709999D01*
D39*
X145600000Y-94000000D02*
X142350000Y-94000000D01*
X145989990Y-100102512D02*
X145989990Y-94389990D01*
X142900000Y-102100000D02*
X143992502Y-102100000D01*
X142900000Y-103532398D02*
X142900000Y-102100000D01*
X142350000Y-94000000D02*
X139850000Y-91500000D01*
X145989990Y-94389990D02*
X145600000Y-94000000D01*
X143992502Y-102100000D02*
X145989990Y-100102512D01*
X142282398Y-104150000D02*
X142900000Y-103532398D01*
X140590200Y-104150000D02*
X142282398Y-104150000D01*
X149125000Y-121875000D02*
X149250000Y-122000000D01*
X149125000Y-120950000D02*
X149125000Y-121875000D01*
X135560000Y-91450000D02*
X135800000Y-91210000D01*
X131250000Y-91450000D02*
X135560000Y-91450000D01*
D40*
X143555000Y-84200000D02*
X143580000Y-84225000D01*
X141250000Y-84200000D02*
X143555000Y-84200000D01*
X143660000Y-84225000D02*
X143580000Y-84225000D01*
X144885000Y-85450000D02*
X143660000Y-84225000D01*
D39*
G04 #@! TO.N,Net-(C4-Pad1)*
X124107500Y-83310000D02*
X124990000Y-83310000D01*
X123260000Y-84157500D02*
X124107500Y-83310000D01*
G04 #@! TO.N,NRST*
X142275000Y-113210000D02*
X142640000Y-113575000D01*
X140804400Y-113210000D02*
X142275000Y-113210000D01*
X141960001Y-113575000D02*
X141950000Y-113585001D01*
X142640000Y-113575000D02*
X141960001Y-113575000D01*
G04 #@! TO.N,OUT*
X145815000Y-88240000D02*
X145825000Y-88250000D01*
X144340000Y-88240000D02*
X145815000Y-88240000D01*
D40*
X162675000Y-84049601D02*
X162560399Y-83935000D01*
X162675000Y-85375000D02*
X162675000Y-84049601D01*
D41*
X162700000Y-84799601D02*
X162560399Y-84660000D01*
X162700000Y-86400000D02*
X162700000Y-84799601D01*
D39*
X146085000Y-121685000D02*
X146400000Y-122000000D01*
X146085000Y-120950000D02*
X146085000Y-121685000D01*
X161850000Y-118550000D02*
X161900000Y-118600000D01*
X160650000Y-118550000D02*
X161850000Y-118550000D01*
G04 #@! TO.N,TIMER*
X138953046Y-88240000D02*
X140040000Y-88240000D01*
X137475000Y-86761954D02*
X138953046Y-88240000D01*
X137475000Y-85510000D02*
X137475000Y-86761954D01*
D41*
G04 #@! TO.N,Net-(C15-Pad2)*
X143265000Y-105990000D02*
X143265000Y-105635000D01*
X144100000Y-104800000D02*
X145009800Y-104800000D01*
X143265000Y-105635000D02*
X144100000Y-104800000D01*
G04 #@! TO.N,Net-(C15-Pad1)*
X141105000Y-104800000D02*
X140590200Y-104800000D01*
X142295000Y-105990000D02*
X141105000Y-104800000D01*
G04 #@! TO.N,Net-(C16-Pad1)*
X140265000Y-107635000D02*
X140335000Y-107705000D01*
X138195000Y-107635000D02*
X140265000Y-107635000D01*
D39*
X140335000Y-106798336D02*
X140335000Y-107705000D01*
X139196689Y-105660025D02*
X140335000Y-106798336D01*
X139196689Y-102715170D02*
X139196689Y-105660025D01*
X139562760Y-102349099D02*
X139196689Y-102715170D01*
X141516701Y-102349099D02*
X139562760Y-102349099D01*
X141573701Y-102406099D02*
X141516701Y-102349099D01*
X141573701Y-103464999D02*
X141573701Y-102406099D01*
X141538700Y-103500000D02*
X141573701Y-103464999D01*
X140590200Y-103500000D02*
X141538700Y-103500000D01*
G04 #@! TO.N,24V_SENSE*
X147300000Y-122230000D02*
X147300000Y-123250000D01*
X147550000Y-121980000D02*
X147300000Y-122230000D01*
X147550000Y-120950000D02*
X147550000Y-121980000D01*
X143500000Y-123463232D02*
X143500000Y-120576410D01*
X143921778Y-123885010D02*
X143500000Y-123463232D01*
X146664990Y-123885010D02*
X143921778Y-123885010D01*
X147300000Y-123250000D02*
X146664990Y-123885010D01*
X143500000Y-120576410D02*
X142168610Y-119245020D01*
X138433215Y-119245019D02*
X137100000Y-117911804D01*
X137100000Y-117911804D02*
X137100000Y-116914400D01*
X142168610Y-119245020D02*
X138433215Y-119245019D01*
G04 #@! TO.N,VSW_SENSE*
X144510000Y-121980000D02*
X144270000Y-122220000D01*
X144510000Y-120950000D02*
X144510000Y-121980000D01*
X144270000Y-123235000D02*
X144265000Y-123240000D01*
X144270000Y-122220000D02*
X144270000Y-123235000D01*
X137600000Y-117775394D02*
X137600000Y-116914400D01*
X138619616Y-118795010D02*
X137600000Y-117775394D01*
X142355010Y-118795010D02*
X138619616Y-118795010D01*
X144510000Y-120950000D02*
X142355010Y-118795010D01*
G04 #@! TO.N,+5V*
X127044999Y-116985001D02*
X127120000Y-116910000D01*
X127044999Y-119992096D02*
X127044999Y-116985001D01*
X126157085Y-120880010D02*
X127044999Y-119992096D01*
X125452915Y-120880010D02*
X126157085Y-120880010D01*
X124880000Y-120307095D02*
X125452915Y-120880010D01*
X124880000Y-120255000D02*
X124880000Y-120307095D01*
X127120000Y-116910000D02*
X127870000Y-116910000D01*
D41*
X127044999Y-120455001D02*
X126900000Y-120600000D01*
X127044999Y-119992096D02*
X127044999Y-120455001D01*
X124830000Y-81000000D02*
X124840000Y-81010000D01*
X123800000Y-81000000D02*
X124830000Y-81000000D01*
D39*
G04 #@! TO.N,Net-(D4-Pad1)*
X157325000Y-121740000D02*
X157975000Y-122390000D01*
X156690000Y-121740000D02*
X157325000Y-121740000D01*
G04 #@! TO.N,Net-(D5-Pad1)*
X157310000Y-119770000D02*
X157970000Y-120430000D01*
X156690000Y-119770000D02*
X157310000Y-119770000D01*
G04 #@! TO.N,Net-(D6-Pad1)*
X152620000Y-121770000D02*
X153270000Y-122420000D01*
X151970000Y-121770000D02*
X152620000Y-121770000D01*
G04 #@! TO.N,Net-(D7-Pad1)*
X152605000Y-119800000D02*
X153265000Y-120460000D01*
X151970000Y-119800000D02*
X152605000Y-119800000D01*
D41*
G04 #@! TO.N,CAN_H*
X121020000Y-114940000D02*
X121030000Y-114950000D01*
X115070000Y-114940000D02*
X121020000Y-114940000D01*
X124615000Y-111365000D02*
X125860000Y-111365000D01*
X121030000Y-114950000D02*
X124615000Y-111365000D01*
G04 #@! TO.N,CAN_L*
X121020000Y-112940000D02*
X121030000Y-112950000D01*
X115070000Y-112940000D02*
X121020000Y-112940000D01*
X123885000Y-110095000D02*
X125860000Y-110095000D01*
X121030000Y-112950000D02*
X123885000Y-110095000D01*
D39*
G04 #@! TO.N,SWO*
X137683151Y-122200010D02*
X134500010Y-122200010D01*
X134500010Y-122200010D02*
X133300000Y-121000000D01*
X138225010Y-121658151D02*
X137683151Y-122200010D01*
X138225010Y-120341849D02*
X138225010Y-121658151D01*
X136599999Y-118716838D02*
X138225010Y-120341849D01*
X136599999Y-116914400D02*
X136599999Y-118716838D01*
G04 #@! TO.N,SWDIO*
X133895600Y-116210000D02*
X133895600Y-118232010D01*
X135300000Y-119636410D02*
X135300000Y-121000000D01*
X133895600Y-118232010D02*
X135300000Y-119636410D01*
G04 #@! TO.N,SWCLK*
X134600000Y-118300000D02*
X137300000Y-121000000D01*
X134600000Y-116914400D02*
X134600000Y-118300000D01*
D41*
G04 #@! TO.N,Net-(J4-Pad6)*
X127755000Y-122930000D02*
X119405000Y-122930000D01*
D42*
G04 #@! TO.N,USB_CONN_D+*
X123580000Y-120255000D02*
X123729999Y-120105001D01*
X123729999Y-120105001D02*
X123729999Y-119339999D01*
X125084988Y-117985010D02*
X125170000Y-117985010D01*
X125170000Y-117985010D02*
X125170000Y-117860000D01*
X123729999Y-119339999D02*
X125084988Y-117985010D01*
G04 #@! TO.N,USB_CONN_D-*
X125910001Y-116334999D02*
X125544999Y-116334999D01*
X125970001Y-116394999D02*
X125910001Y-116334999D01*
X124230000Y-120255000D02*
X124230000Y-120241397D01*
X124230000Y-120241397D02*
X124379999Y-120091398D01*
X125544999Y-116334999D02*
X125170000Y-115960000D01*
X124379999Y-120091398D02*
X124379999Y-119339999D01*
X124379999Y-119339999D02*
X125284997Y-118435001D01*
X125284997Y-118435001D02*
X125910001Y-118435001D01*
X125910001Y-118435001D02*
X125970001Y-118375001D01*
X125970001Y-118375001D02*
X125970001Y-116394999D01*
D41*
G04 #@! TO.N,Net-(L1-Pad1)*
X127099990Y-82000000D02*
X126890000Y-82209990D01*
X129260000Y-82000000D02*
X127099990Y-82000000D01*
D39*
G04 #@! TO.N,VSENSE_LOW*
X145650000Y-91500000D02*
X143279990Y-89129990D01*
X143525866Y-87240000D02*
X144340000Y-87240000D01*
X143279990Y-87485876D02*
X143525866Y-87240000D01*
X143279990Y-89129990D02*
X143279990Y-87485876D01*
X145787202Y-104150000D02*
X146400000Y-103537202D01*
X145009800Y-104150000D02*
X145787202Y-104150000D01*
X146400000Y-92250000D02*
X145650000Y-91500000D01*
X146400000Y-103537202D02*
X146400000Y-92250000D01*
G04 #@! TO.N,PG*
X144725000Y-89125000D02*
X144340000Y-88740000D01*
X137100000Y-109100000D02*
X137300000Y-108900000D01*
X137100000Y-110005600D02*
X137100000Y-109100000D01*
X145775000Y-89125000D02*
X144725000Y-89125000D01*
X146410005Y-83375005D02*
X145860000Y-82825000D01*
X146410005Y-88914258D02*
X146410005Y-83375005D01*
X146199264Y-89125000D02*
X146410005Y-88914258D01*
X145775000Y-89125000D02*
X146199264Y-89125000D01*
G04 #@! TO.N,GATE*
X144265000Y-83131664D02*
X144265000Y-81800000D01*
X145465010Y-84331674D02*
X144265000Y-83131664D01*
X145465010Y-87372554D02*
X145465010Y-84331674D01*
X145097564Y-87740000D02*
X145465010Y-87372554D01*
X144340000Y-87740000D02*
X145097564Y-87740000D01*
G04 #@! TO.N,EN*
X140040000Y-86740000D02*
X139180010Y-85880010D01*
X137683232Y-81720000D02*
X137670000Y-81720000D01*
X139180010Y-83216778D02*
X137683232Y-81720000D01*
X139180010Y-85880010D02*
X139180010Y-83216778D01*
D41*
X136660000Y-81720000D02*
X137670000Y-81720000D01*
D40*
G04 #@! TO.N,TPS_ENABLE*
X135134999Y-84199999D02*
X135500000Y-84565000D01*
X132960001Y-84199999D02*
X135134999Y-84199999D01*
X131960000Y-85200000D02*
X132960001Y-84199999D01*
D39*
X132350002Y-107650000D02*
X131975000Y-107650000D01*
X133400001Y-108699999D02*
X132350002Y-107650000D01*
X133400001Y-109208001D02*
X133400001Y-108699999D01*
X134197600Y-110005600D02*
X133400001Y-109208001D01*
X134600000Y-110005600D02*
X134197600Y-110005600D01*
X131975000Y-85215000D02*
X131960000Y-85200000D01*
X131975000Y-86450000D02*
X131975000Y-85215000D01*
G04 #@! TO.N,LED1*
X143065010Y-116466778D02*
X143065010Y-118868600D01*
X142308233Y-115710001D02*
X143065010Y-116466778D01*
X140804400Y-115710001D02*
X142308233Y-115710001D01*
X149568984Y-120149990D02*
X149887510Y-120468516D01*
X144346400Y-120149990D02*
X149568984Y-120149990D01*
X143065010Y-118868600D02*
X144346400Y-120149990D01*
X149887510Y-123012510D02*
X150924990Y-124049991D01*
X149887510Y-120468516D02*
X149887510Y-123012510D01*
X150924990Y-124049991D02*
X156125009Y-124049991D01*
X156690000Y-123485000D02*
X156690000Y-122710000D01*
X156125009Y-124049991D02*
X156690000Y-123485000D01*
G04 #@! TO.N,LED2*
X156044990Y-121385010D02*
X156690000Y-120740000D01*
X156044990Y-123053222D02*
X156044990Y-121385010D01*
X155498231Y-123599981D02*
X156044990Y-123053222D01*
X151111390Y-123599981D02*
X155498231Y-123599981D01*
X150337520Y-122826111D02*
X151111390Y-123599981D01*
X150337520Y-120282116D02*
X150337520Y-122826111D01*
X144532800Y-119699980D02*
X149755385Y-119699981D01*
X149755385Y-119699981D02*
X150337520Y-120282116D01*
X143515020Y-118682200D02*
X144532800Y-119699980D01*
X143515020Y-116280378D02*
X143515020Y-118682200D01*
X142444641Y-115209999D02*
X143515020Y-116280378D01*
X140804400Y-115209999D02*
X142444641Y-115209999D01*
G04 #@! TO.N,LED3*
X151065000Y-122740000D02*
X151970000Y-122740000D01*
X149941786Y-119249972D02*
X150787530Y-120095716D01*
X150787530Y-122462530D02*
X151065000Y-122740000D01*
X144719201Y-119249971D02*
X149941786Y-119249972D01*
X150787530Y-120095716D02*
X150787530Y-122462530D01*
X143965030Y-118495800D02*
X144719201Y-119249971D01*
X143965030Y-116093978D02*
X143965030Y-118495800D01*
X142581052Y-114710000D02*
X143965030Y-116093978D01*
X140804400Y-114710000D02*
X142581052Y-114710000D01*
G04 #@! TO.N,LED4*
X151650000Y-120770000D02*
X151970000Y-120770000D01*
X151237540Y-120357540D02*
X151650000Y-120770000D01*
X151237540Y-119909316D02*
X151237540Y-120357540D01*
X150128187Y-118799963D02*
X151237540Y-119909316D01*
X144415040Y-118309400D02*
X144905602Y-118799962D01*
X144415040Y-115907578D02*
X144415040Y-118309400D01*
X144905602Y-118799962D02*
X150128187Y-118799963D01*
X142717463Y-114210001D02*
X144415040Y-115907578D01*
X140804400Y-114210001D02*
X142717463Y-114210001D01*
D41*
G04 #@! TO.N,PROG*
X136670000Y-84310000D02*
X137665000Y-84310000D01*
D39*
X138095010Y-84740010D02*
X138095010Y-86745554D01*
X137670000Y-84315000D02*
X138095010Y-84740010D01*
X139089456Y-87740000D02*
X140040000Y-87740000D01*
X138095010Y-86745554D02*
X139089456Y-87740000D01*
G04 #@! TO.N,I_SENSE_BIAS*
X141535801Y-109875801D02*
X140335000Y-108675000D01*
X141535801Y-111622400D02*
X141535801Y-109875801D01*
X141448200Y-111710001D02*
X141535801Y-111622400D01*
X140804400Y-111710001D02*
X141448200Y-111710001D01*
G04 #@! TO.N,CAN_TX*
X139600001Y-118145527D02*
X139585574Y-118159954D01*
X139600001Y-116914400D02*
X139600001Y-118145527D01*
X131454638Y-112829638D02*
X131260000Y-112635000D01*
X132695362Y-112829638D02*
X131454638Y-112829638D01*
G04 #@! TO.N,CAN_RX*
X139099999Y-117738329D02*
X138793968Y-118044360D01*
X139099999Y-116914400D02*
X139099999Y-117738329D01*
X131435000Y-109000000D02*
X131260000Y-108825000D01*
X132775000Y-109000000D02*
X131435000Y-109000000D01*
G04 #@! TO.N,CAN_SHDN*
X126489801Y-109454801D02*
X125860000Y-108825000D01*
X132189501Y-109454801D02*
X126489801Y-109454801D01*
X132359701Y-109625001D02*
X132189501Y-109454801D01*
X132810601Y-109625001D02*
X132359701Y-109625001D01*
X133895600Y-110710000D02*
X132810601Y-109625001D01*
G04 #@! TO.N,I_SENSE*
X139606699Y-105243901D02*
X139862798Y-105500000D01*
X139606699Y-102885001D02*
X139606699Y-105243901D01*
X139641700Y-102850000D02*
X139606699Y-102885001D01*
X140590200Y-102850000D02*
X139641700Y-102850000D01*
X139862798Y-105500000D02*
X140700000Y-105500000D01*
X141528042Y-112210000D02*
X140804400Y-112210000D01*
X141945811Y-106745811D02*
X141945811Y-111792231D01*
X141945811Y-111792231D02*
X141528042Y-112210000D01*
X140700000Y-105500000D02*
X141945811Y-106745811D01*
D42*
G04 #@! TO.N,USB_D+*
X133260999Y-115184999D02*
X133285999Y-115209999D01*
X130545001Y-115184999D02*
X133260999Y-115184999D01*
X128670001Y-117059999D02*
X130545001Y-115184999D01*
X128670001Y-117425001D02*
X128670001Y-117059999D01*
X133285999Y-115209999D02*
X133895600Y-115209999D01*
X128610001Y-117485001D02*
X128670001Y-117425001D01*
X128244999Y-117485001D02*
X128610001Y-117485001D01*
X127870000Y-117860000D02*
X128244999Y-117485001D01*
G04 #@! TO.N,USB_D-*
X133260999Y-114735000D02*
X133285999Y-114710000D01*
X127870000Y-115960000D02*
X129133603Y-115960000D01*
X130358603Y-114735000D02*
X133260999Y-114735000D01*
X133285999Y-114710000D02*
X133895600Y-114710000D01*
X129133603Y-115960000D02*
X130358603Y-114735000D01*
D39*
G04 #@! TO.N,MOSFET_TEMP*
X143733231Y-112709999D02*
X144370674Y-113347442D01*
X144370674Y-113347442D02*
X144370674Y-115226802D01*
X140804400Y-112709999D02*
X143733231Y-112709999D01*
X144370674Y-115226802D02*
X144865050Y-115721178D01*
X144865050Y-115721178D02*
X144865050Y-118123000D01*
X144865050Y-118123000D02*
X145092003Y-118349953D01*
X156225801Y-118170000D02*
X156694400Y-118170000D01*
X156045848Y-118349953D02*
X156225801Y-118170000D01*
X145092003Y-118349953D02*
X156045848Y-118349953D01*
G04 #@! TO.N,Net-(MOSFET1-Pad1)*
X158105000Y-114765000D02*
X162505001Y-114765000D01*
X158100000Y-114760000D02*
X158105000Y-114765000D01*
X157200000Y-80660000D02*
X158100000Y-81560000D01*
X146375000Y-80660000D02*
X157200000Y-80660000D01*
X145235000Y-81800000D02*
X146375000Y-80660000D01*
X158105000Y-101845000D02*
X158100000Y-101850000D01*
X162530399Y-101845000D02*
X158105000Y-101845000D01*
X158100000Y-101850000D02*
X158100000Y-114760000D01*
X158110000Y-89740000D02*
X158100000Y-89730000D01*
X162560399Y-89740000D02*
X158110000Y-89740000D01*
X158100000Y-89730000D02*
X158100000Y-101850000D01*
X158100000Y-81560000D02*
X158100000Y-89730000D01*
G04 #@! TO.N,Net-(D2-Pad1)*
X121790000Y-82305000D02*
X121470000Y-82625000D01*
X121790000Y-81320000D02*
X121790000Y-82305000D01*
G04 #@! TO.N,Net-(D3-Pad1)*
X118860000Y-82305000D02*
X119180000Y-82625000D01*
X118860000Y-81320000D02*
X118860000Y-82305000D01*
D40*
G04 #@! TO.N,Net-(MOSFET2-PadP$1)*
X134410001Y-83570000D02*
X134390000Y-83549999D01*
X135500000Y-83570000D02*
X134410001Y-83570000D01*
X142190000Y-82190000D02*
X142200000Y-82200000D01*
X142190000Y-80960000D02*
X142190000Y-82190000D01*
X142525000Y-82200000D02*
X143580000Y-83255000D01*
X142200000Y-82200000D02*
X142525000Y-82200000D01*
G04 #@! TO.N,Net-(MOSFET2-PadP$2)*
X138850000Y-80750000D02*
X137670000Y-80750000D01*
X140300000Y-82200000D02*
X138850000Y-80750000D01*
G04 #@! TO.N,Net-(MOSFET4-Pad3)*
X133410000Y-82600000D02*
X135500000Y-82600000D01*
X132910000Y-83100000D02*
X133410000Y-82600000D01*
D39*
G04 #@! TO.N,Net-(R14-Pad1)*
X138730000Y-84085000D02*
X138730000Y-86744134D01*
X137990000Y-83345000D02*
X138730000Y-84085000D01*
X139225866Y-87240000D02*
X140040000Y-87240000D01*
X138730000Y-86744134D02*
X139225866Y-87240000D01*
X137670000Y-83345000D02*
X137990000Y-83345000D01*
D43*
G04 #@! TO.N,GNDPWR*
X163944100Y-120450000D02*
X163944100Y-122550000D01*
X161925000Y-120450000D02*
X161900000Y-120475000D01*
X163944100Y-120450000D02*
X161925000Y-120450000D01*
X161900000Y-120700000D02*
X161250000Y-121350000D01*
X161900000Y-120475000D02*
X161900000Y-120700000D01*
X163944100Y-122344100D02*
X163100000Y-121500000D01*
X163944100Y-122550000D02*
X163944100Y-122344100D01*
X161900000Y-120475000D02*
X161900000Y-121350000D01*
G04 #@! TD*
D44*
G04 #@! TO.N,VSENSE_LOW*
G36*
X155973000Y-117452488D02*
G01*
X155933554Y-117464454D01*
X155917566Y-117473000D01*
X147027000Y-117473000D01*
X147027000Y-93500000D01*
X147024560Y-93475224D01*
X147017333Y-93451399D01*
X147005597Y-93429443D01*
X146989803Y-93410197D01*
X146970557Y-93394403D01*
X146948601Y-93382667D01*
X146924776Y-93375440D01*
X146900000Y-93373000D01*
X146033992Y-93373000D01*
X146024276Y-93365026D01*
X145892247Y-93294454D01*
X145748986Y-93250997D01*
X145637333Y-93240000D01*
X145637322Y-93240000D01*
X145600000Y-93236324D01*
X145562678Y-93240000D01*
X144827000Y-93240000D01*
X144827000Y-89885000D01*
X145229465Y-89885000D01*
X145332111Y-89953586D01*
X145502271Y-90024068D01*
X145682911Y-90060000D01*
X145867089Y-90060000D01*
X146047729Y-90024068D01*
X146217889Y-89953586D01*
X146335048Y-89875303D01*
X146348250Y-89874003D01*
X146491511Y-89830546D01*
X146498145Y-89827000D01*
X147000000Y-89827000D01*
X147024776Y-89824560D01*
X147048601Y-89817333D01*
X147070557Y-89805597D01*
X147089803Y-89789803D01*
X147105597Y-89770557D01*
X147117333Y-89748601D01*
X147124560Y-89724776D01*
X147127000Y-89700000D01*
X147127000Y-89168762D01*
X147159008Y-89063244D01*
X147170005Y-88951591D01*
X147170005Y-88951580D01*
X147173681Y-88914257D01*
X147170005Y-88876934D01*
X147170005Y-83412338D01*
X147173682Y-83375005D01*
X147169841Y-83336002D01*
X147159008Y-83226019D01*
X147127000Y-83120501D01*
X147127000Y-81527000D01*
X155973000Y-81527000D01*
X155973000Y-117452488D01*
G37*
X155973000Y-117452488D02*
X155933554Y-117464454D01*
X155917566Y-117473000D01*
X147027000Y-117473000D01*
X147027000Y-93500000D01*
X147024560Y-93475224D01*
X147017333Y-93451399D01*
X147005597Y-93429443D01*
X146989803Y-93410197D01*
X146970557Y-93394403D01*
X146948601Y-93382667D01*
X146924776Y-93375440D01*
X146900000Y-93373000D01*
X146033992Y-93373000D01*
X146024276Y-93365026D01*
X145892247Y-93294454D01*
X145748986Y-93250997D01*
X145637333Y-93240000D01*
X145637322Y-93240000D01*
X145600000Y-93236324D01*
X145562678Y-93240000D01*
X144827000Y-93240000D01*
X144827000Y-89885000D01*
X145229465Y-89885000D01*
X145332111Y-89953586D01*
X145502271Y-90024068D01*
X145682911Y-90060000D01*
X145867089Y-90060000D01*
X146047729Y-90024068D01*
X146217889Y-89953586D01*
X146335048Y-89875303D01*
X146348250Y-89874003D01*
X146491511Y-89830546D01*
X146498145Y-89827000D01*
X147000000Y-89827000D01*
X147024776Y-89824560D01*
X147048601Y-89817333D01*
X147070557Y-89805597D01*
X147089803Y-89789803D01*
X147105597Y-89770557D01*
X147117333Y-89748601D01*
X147124560Y-89724776D01*
X147127000Y-89700000D01*
X147127000Y-89168762D01*
X147159008Y-89063244D01*
X147170005Y-88951591D01*
X147170005Y-88951580D01*
X147173681Y-88914257D01*
X147170005Y-88876934D01*
X147170005Y-83412338D01*
X147173682Y-83375005D01*
X147169841Y-83336002D01*
X147159008Y-83226019D01*
X147127000Y-83120501D01*
X147127000Y-81527000D01*
X155973000Y-81527000D01*
X155973000Y-117452488D01*
G04 #@! TO.N,OUT*
G36*
X172497291Y-86174698D02*
G01*
X172513837Y-86193300D01*
X172533694Y-86208317D01*
X172556100Y-86219171D01*
X172580193Y-86225446D01*
X172600000Y-86227000D01*
X176673000Y-86227000D01*
X176673000Y-118473000D01*
X174950036Y-118473000D01*
X174758997Y-118435000D01*
X174171003Y-118435000D01*
X173979964Y-118473000D01*
X172000000Y-118473000D01*
X171975224Y-118475440D01*
X171951399Y-118482667D01*
X171929443Y-118494403D01*
X171910197Y-118510197D01*
X171894403Y-118529443D01*
X171882667Y-118551399D01*
X171878233Y-118563921D01*
X170344581Y-123739999D01*
X165027000Y-123739999D01*
X165027000Y-123708249D01*
X165068385Y-123674285D01*
X165147737Y-123577594D01*
X165206702Y-123467280D01*
X165243012Y-123347582D01*
X165255272Y-123223100D01*
X165255272Y-121878463D01*
X165299068Y-121772729D01*
X165335000Y-121592089D01*
X165335000Y-121407911D01*
X165299068Y-121227271D01*
X165255272Y-121121537D01*
X165255272Y-119776900D01*
X165243012Y-119652418D01*
X165206702Y-119532720D01*
X165147737Y-119422406D01*
X165068385Y-119325715D01*
X165027000Y-119291751D01*
X165027000Y-119100000D01*
X165024560Y-119075224D01*
X165017333Y-119051399D01*
X165005597Y-119029443D01*
X164989803Y-119010197D01*
X164970557Y-118994403D01*
X164948601Y-118982667D01*
X164924776Y-118975440D01*
X164902490Y-118973024D01*
X160350010Y-118883759D01*
X160350010Y-118627343D01*
X160353687Y-118590010D01*
X160339013Y-118441024D01*
X160295556Y-118297763D01*
X160224984Y-118165734D01*
X160130011Y-118050009D01*
X160101008Y-118026207D01*
X159927000Y-117852199D01*
X159927000Y-115525000D01*
X159961929Y-115525000D01*
X159961929Y-115768300D01*
X159974189Y-115892782D01*
X160010499Y-116012480D01*
X160069464Y-116122794D01*
X160148816Y-116219485D01*
X160245507Y-116298837D01*
X160355821Y-116357802D01*
X160475519Y-116394112D01*
X160600001Y-116406372D01*
X164410001Y-116406372D01*
X164534483Y-116394112D01*
X164654181Y-116357802D01*
X164764495Y-116298837D01*
X164861186Y-116219485D01*
X164940538Y-116122794D01*
X164999503Y-116012480D01*
X165035813Y-115892782D01*
X165048073Y-115768300D01*
X165048073Y-115714721D01*
X165815000Y-115714721D01*
X165815000Y-116135279D01*
X165897047Y-116547756D01*
X166057988Y-116936302D01*
X166291637Y-117285983D01*
X166589017Y-117583363D01*
X166938698Y-117817012D01*
X167327244Y-117977953D01*
X167739721Y-118060000D01*
X168160279Y-118060000D01*
X168572756Y-117977953D01*
X168961302Y-117817012D01*
X169310983Y-117583363D01*
X169608363Y-117285983D01*
X169842012Y-116936302D01*
X170002953Y-116547756D01*
X170085000Y-116135279D01*
X170085000Y-115739721D01*
X171990000Y-115739721D01*
X171990000Y-116160279D01*
X172072047Y-116572756D01*
X172232988Y-116961302D01*
X172466637Y-117310983D01*
X172764017Y-117608363D01*
X173113698Y-117842012D01*
X173502244Y-118002953D01*
X173914721Y-118085000D01*
X174335279Y-118085000D01*
X174747756Y-118002953D01*
X175136302Y-117842012D01*
X175485983Y-117608363D01*
X175783363Y-117310983D01*
X176017012Y-116961302D01*
X176177953Y-116572756D01*
X176260000Y-116160279D01*
X176260000Y-115739721D01*
X176177953Y-115327244D01*
X176017012Y-114938698D01*
X175783363Y-114589017D01*
X175485983Y-114291637D01*
X175136302Y-114057988D01*
X174747756Y-113897047D01*
X174335279Y-113815000D01*
X173914721Y-113815000D01*
X173502244Y-113897047D01*
X173113698Y-114057988D01*
X172764017Y-114291637D01*
X172466637Y-114589017D01*
X172232988Y-114938698D01*
X172072047Y-115327244D01*
X171990000Y-115739721D01*
X170085000Y-115739721D01*
X170085000Y-115714721D01*
X170002953Y-115302244D01*
X169842012Y-114913698D01*
X169608363Y-114564017D01*
X169310983Y-114266637D01*
X168961302Y-114032988D01*
X168572756Y-113872047D01*
X168160279Y-113790000D01*
X167739721Y-113790000D01*
X167327244Y-113872047D01*
X166938698Y-114032988D01*
X166589017Y-114266637D01*
X166291637Y-114564017D01*
X166057988Y-114913698D01*
X165897047Y-115302244D01*
X165815000Y-115714721D01*
X165048073Y-115714721D01*
X165048073Y-113761700D01*
X165035813Y-113637218D01*
X164999503Y-113517520D01*
X164940538Y-113407206D01*
X164861186Y-113310515D01*
X164764495Y-113231163D01*
X164654181Y-113172198D01*
X164534483Y-113135888D01*
X164410001Y-113123628D01*
X160600001Y-113123628D01*
X160475519Y-113135888D01*
X160355821Y-113172198D01*
X160245507Y-113231163D01*
X160148816Y-113310515D01*
X160069464Y-113407206D01*
X160010499Y-113517520D01*
X159974189Y-113637218D01*
X159961929Y-113761700D01*
X159961929Y-114005000D01*
X159927000Y-114005000D01*
X159927000Y-104564721D01*
X165815000Y-104564721D01*
X165815000Y-104985279D01*
X165897047Y-105397756D01*
X166057988Y-105786302D01*
X166291637Y-106135983D01*
X166589017Y-106433363D01*
X166938698Y-106667012D01*
X167327244Y-106827953D01*
X167739721Y-106910000D01*
X168160279Y-106910000D01*
X168572756Y-106827953D01*
X168961302Y-106667012D01*
X169310983Y-106433363D01*
X169608363Y-106135983D01*
X169842012Y-105786302D01*
X170002953Y-105397756D01*
X170085000Y-104985279D01*
X170085000Y-104589721D01*
X172040000Y-104589721D01*
X172040000Y-105010279D01*
X172122047Y-105422756D01*
X172282988Y-105811302D01*
X172516637Y-106160983D01*
X172814017Y-106458363D01*
X173163698Y-106692012D01*
X173552244Y-106852953D01*
X173964721Y-106935000D01*
X174385279Y-106935000D01*
X174797756Y-106852953D01*
X175186302Y-106692012D01*
X175535983Y-106458363D01*
X175833363Y-106160983D01*
X176067012Y-105811302D01*
X176227953Y-105422756D01*
X176310000Y-105010279D01*
X176310000Y-104589721D01*
X176227953Y-104177244D01*
X176067012Y-103788698D01*
X175833363Y-103439017D01*
X175535983Y-103141637D01*
X175186302Y-102907988D01*
X174797756Y-102747047D01*
X174385279Y-102665000D01*
X173964721Y-102665000D01*
X173552244Y-102747047D01*
X173163698Y-102907988D01*
X172814017Y-103141637D01*
X172516637Y-103439017D01*
X172282988Y-103788698D01*
X172122047Y-104177244D01*
X172040000Y-104589721D01*
X170085000Y-104589721D01*
X170085000Y-104564721D01*
X170002953Y-104152244D01*
X169842012Y-103763698D01*
X169608363Y-103414017D01*
X169310983Y-103116637D01*
X168961302Y-102882988D01*
X168572756Y-102722047D01*
X168160279Y-102640000D01*
X167739721Y-102640000D01*
X167327244Y-102722047D01*
X166938698Y-102882988D01*
X166589017Y-103116637D01*
X166291637Y-103414017D01*
X166057988Y-103763698D01*
X165897047Y-104152244D01*
X165815000Y-104564721D01*
X159927000Y-104564721D01*
X159927000Y-102605000D01*
X159987327Y-102605000D01*
X159987327Y-102848300D01*
X159999587Y-102972782D01*
X160035897Y-103092480D01*
X160094862Y-103202794D01*
X160174214Y-103299485D01*
X160270905Y-103378837D01*
X160381219Y-103437802D01*
X160500917Y-103474112D01*
X160625399Y-103486372D01*
X164435399Y-103486372D01*
X164559881Y-103474112D01*
X164679579Y-103437802D01*
X164789893Y-103378837D01*
X164886584Y-103299485D01*
X164965936Y-103202794D01*
X165024901Y-103092480D01*
X165061211Y-102972782D01*
X165073471Y-102848300D01*
X165073471Y-100841700D01*
X165061211Y-100717218D01*
X165024901Y-100597520D01*
X164965936Y-100487206D01*
X164886584Y-100390515D01*
X164789893Y-100311163D01*
X164679579Y-100252198D01*
X164559881Y-100215888D01*
X164435399Y-100203628D01*
X160625399Y-100203628D01*
X160500917Y-100215888D01*
X160381219Y-100252198D01*
X160270905Y-100311163D01*
X160174214Y-100390515D01*
X160094862Y-100487206D01*
X160035897Y-100597520D01*
X159999587Y-100717218D01*
X159987327Y-100841700D01*
X159987327Y-101085000D01*
X159927000Y-101085000D01*
X159927000Y-93444721D01*
X165815000Y-93444721D01*
X165815000Y-93865279D01*
X165897047Y-94277756D01*
X166057988Y-94666302D01*
X166291637Y-95015983D01*
X166589017Y-95313363D01*
X166938698Y-95547012D01*
X167327244Y-95707953D01*
X167739721Y-95790000D01*
X168160279Y-95790000D01*
X168572756Y-95707953D01*
X168961302Y-95547012D01*
X169310983Y-95313363D01*
X169608363Y-95015983D01*
X169842012Y-94666302D01*
X170002953Y-94277756D01*
X170085000Y-93865279D01*
X170085000Y-93469721D01*
X172040000Y-93469721D01*
X172040000Y-93890279D01*
X172122047Y-94302756D01*
X172282988Y-94691302D01*
X172516637Y-95040983D01*
X172814017Y-95338363D01*
X173163698Y-95572012D01*
X173552244Y-95732953D01*
X173964721Y-95815000D01*
X174385279Y-95815000D01*
X174797756Y-95732953D01*
X175186302Y-95572012D01*
X175535983Y-95338363D01*
X175833363Y-95040983D01*
X176067012Y-94691302D01*
X176227953Y-94302756D01*
X176310000Y-93890279D01*
X176310000Y-93469721D01*
X176227953Y-93057244D01*
X176067012Y-92668698D01*
X175833363Y-92319017D01*
X175535983Y-92021637D01*
X175186302Y-91787988D01*
X174797756Y-91627047D01*
X174385279Y-91545000D01*
X173964721Y-91545000D01*
X173552244Y-91627047D01*
X173163698Y-91787988D01*
X172814017Y-92021637D01*
X172516637Y-92319017D01*
X172282988Y-92668698D01*
X172122047Y-93057244D01*
X172040000Y-93469721D01*
X170085000Y-93469721D01*
X170085000Y-93444721D01*
X170002953Y-93032244D01*
X169842012Y-92643698D01*
X169608363Y-92294017D01*
X169310983Y-91996637D01*
X168961302Y-91762988D01*
X168572756Y-91602047D01*
X168160279Y-91520000D01*
X167739721Y-91520000D01*
X167327244Y-91602047D01*
X166938698Y-91762988D01*
X166589017Y-91996637D01*
X166291637Y-92294017D01*
X166057988Y-92643698D01*
X165897047Y-93032244D01*
X165815000Y-93444721D01*
X159927000Y-93444721D01*
X159927000Y-90500000D01*
X160017327Y-90500000D01*
X160017327Y-90743300D01*
X160029587Y-90867782D01*
X160065897Y-90987480D01*
X160124862Y-91097794D01*
X160204214Y-91194485D01*
X160300905Y-91273837D01*
X160411219Y-91332802D01*
X160530917Y-91369112D01*
X160655399Y-91381372D01*
X164465399Y-91381372D01*
X164589881Y-91369112D01*
X164709579Y-91332802D01*
X164819893Y-91273837D01*
X164916584Y-91194485D01*
X164995936Y-91097794D01*
X165054901Y-90987480D01*
X165091211Y-90867782D01*
X165103471Y-90743300D01*
X165103471Y-88736700D01*
X165091211Y-88612218D01*
X165054901Y-88492520D01*
X164995936Y-88382206D01*
X164916584Y-88285515D01*
X164819893Y-88206163D01*
X164709579Y-88147198D01*
X164589881Y-88110888D01*
X164465399Y-88098628D01*
X160655399Y-88098628D01*
X160530917Y-88110888D01*
X160411219Y-88147198D01*
X160300905Y-88206163D01*
X160204214Y-88285515D01*
X160124862Y-88382206D01*
X160065897Y-88492520D01*
X160029587Y-88612218D01*
X160017327Y-88736700D01*
X160017327Y-88980000D01*
X159927000Y-88980000D01*
X159927000Y-82927000D01*
X170135329Y-82927000D01*
X172497291Y-86174698D01*
G37*
X172497291Y-86174698D02*
X172513837Y-86193300D01*
X172533694Y-86208317D01*
X172556100Y-86219171D01*
X172580193Y-86225446D01*
X172600000Y-86227000D01*
X176673000Y-86227000D01*
X176673000Y-118473000D01*
X174950036Y-118473000D01*
X174758997Y-118435000D01*
X174171003Y-118435000D01*
X173979964Y-118473000D01*
X172000000Y-118473000D01*
X171975224Y-118475440D01*
X171951399Y-118482667D01*
X171929443Y-118494403D01*
X171910197Y-118510197D01*
X171894403Y-118529443D01*
X171882667Y-118551399D01*
X171878233Y-118563921D01*
X170344581Y-123739999D01*
X165027000Y-123739999D01*
X165027000Y-123708249D01*
X165068385Y-123674285D01*
X165147737Y-123577594D01*
X165206702Y-123467280D01*
X165243012Y-123347582D01*
X165255272Y-123223100D01*
X165255272Y-121878463D01*
X165299068Y-121772729D01*
X165335000Y-121592089D01*
X165335000Y-121407911D01*
X165299068Y-121227271D01*
X165255272Y-121121537D01*
X165255272Y-119776900D01*
X165243012Y-119652418D01*
X165206702Y-119532720D01*
X165147737Y-119422406D01*
X165068385Y-119325715D01*
X165027000Y-119291751D01*
X165027000Y-119100000D01*
X165024560Y-119075224D01*
X165017333Y-119051399D01*
X165005597Y-119029443D01*
X164989803Y-119010197D01*
X164970557Y-118994403D01*
X164948601Y-118982667D01*
X164924776Y-118975440D01*
X164902490Y-118973024D01*
X160350010Y-118883759D01*
X160350010Y-118627343D01*
X160353687Y-118590010D01*
X160339013Y-118441024D01*
X160295556Y-118297763D01*
X160224984Y-118165734D01*
X160130011Y-118050009D01*
X160101008Y-118026207D01*
X159927000Y-117852199D01*
X159927000Y-115525000D01*
X159961929Y-115525000D01*
X159961929Y-115768300D01*
X159974189Y-115892782D01*
X160010499Y-116012480D01*
X160069464Y-116122794D01*
X160148816Y-116219485D01*
X160245507Y-116298837D01*
X160355821Y-116357802D01*
X160475519Y-116394112D01*
X160600001Y-116406372D01*
X164410001Y-116406372D01*
X164534483Y-116394112D01*
X164654181Y-116357802D01*
X164764495Y-116298837D01*
X164861186Y-116219485D01*
X164940538Y-116122794D01*
X164999503Y-116012480D01*
X165035813Y-115892782D01*
X165048073Y-115768300D01*
X165048073Y-115714721D01*
X165815000Y-115714721D01*
X165815000Y-116135279D01*
X165897047Y-116547756D01*
X166057988Y-116936302D01*
X166291637Y-117285983D01*
X166589017Y-117583363D01*
X166938698Y-117817012D01*
X167327244Y-117977953D01*
X167739721Y-118060000D01*
X168160279Y-118060000D01*
X168572756Y-117977953D01*
X168961302Y-117817012D01*
X169310983Y-117583363D01*
X169608363Y-117285983D01*
X169842012Y-116936302D01*
X170002953Y-116547756D01*
X170085000Y-116135279D01*
X170085000Y-115739721D01*
X171990000Y-115739721D01*
X171990000Y-116160279D01*
X172072047Y-116572756D01*
X172232988Y-116961302D01*
X172466637Y-117310983D01*
X172764017Y-117608363D01*
X173113698Y-117842012D01*
X173502244Y-118002953D01*
X173914721Y-118085000D01*
X174335279Y-118085000D01*
X174747756Y-118002953D01*
X175136302Y-117842012D01*
X175485983Y-117608363D01*
X175783363Y-117310983D01*
X176017012Y-116961302D01*
X176177953Y-116572756D01*
X176260000Y-116160279D01*
X176260000Y-115739721D01*
X176177953Y-115327244D01*
X176017012Y-114938698D01*
X175783363Y-114589017D01*
X175485983Y-114291637D01*
X175136302Y-114057988D01*
X174747756Y-113897047D01*
X174335279Y-113815000D01*
X173914721Y-113815000D01*
X173502244Y-113897047D01*
X173113698Y-114057988D01*
X172764017Y-114291637D01*
X172466637Y-114589017D01*
X172232988Y-114938698D01*
X172072047Y-115327244D01*
X171990000Y-115739721D01*
X170085000Y-115739721D01*
X170085000Y-115714721D01*
X170002953Y-115302244D01*
X169842012Y-114913698D01*
X169608363Y-114564017D01*
X169310983Y-114266637D01*
X168961302Y-114032988D01*
X168572756Y-113872047D01*
X168160279Y-113790000D01*
X167739721Y-113790000D01*
X167327244Y-113872047D01*
X166938698Y-114032988D01*
X166589017Y-114266637D01*
X166291637Y-114564017D01*
X166057988Y-114913698D01*
X165897047Y-115302244D01*
X165815000Y-115714721D01*
X165048073Y-115714721D01*
X165048073Y-113761700D01*
X165035813Y-113637218D01*
X164999503Y-113517520D01*
X164940538Y-113407206D01*
X164861186Y-113310515D01*
X164764495Y-113231163D01*
X164654181Y-113172198D01*
X164534483Y-113135888D01*
X164410001Y-113123628D01*
X160600001Y-113123628D01*
X160475519Y-113135888D01*
X160355821Y-113172198D01*
X160245507Y-113231163D01*
X160148816Y-113310515D01*
X160069464Y-113407206D01*
X160010499Y-113517520D01*
X159974189Y-113637218D01*
X159961929Y-113761700D01*
X159961929Y-114005000D01*
X159927000Y-114005000D01*
X159927000Y-104564721D01*
X165815000Y-104564721D01*
X165815000Y-104985279D01*
X165897047Y-105397756D01*
X166057988Y-105786302D01*
X166291637Y-106135983D01*
X166589017Y-106433363D01*
X166938698Y-106667012D01*
X167327244Y-106827953D01*
X167739721Y-106910000D01*
X168160279Y-106910000D01*
X168572756Y-106827953D01*
X168961302Y-106667012D01*
X169310983Y-106433363D01*
X169608363Y-106135983D01*
X169842012Y-105786302D01*
X170002953Y-105397756D01*
X170085000Y-104985279D01*
X170085000Y-104589721D01*
X172040000Y-104589721D01*
X172040000Y-105010279D01*
X172122047Y-105422756D01*
X172282988Y-105811302D01*
X172516637Y-106160983D01*
X172814017Y-106458363D01*
X173163698Y-106692012D01*
X173552244Y-106852953D01*
X173964721Y-106935000D01*
X174385279Y-106935000D01*
X174797756Y-106852953D01*
X175186302Y-106692012D01*
X175535983Y-106458363D01*
X175833363Y-106160983D01*
X176067012Y-105811302D01*
X176227953Y-105422756D01*
X176310000Y-105010279D01*
X176310000Y-104589721D01*
X176227953Y-104177244D01*
X176067012Y-103788698D01*
X175833363Y-103439017D01*
X175535983Y-103141637D01*
X175186302Y-102907988D01*
X174797756Y-102747047D01*
X174385279Y-102665000D01*
X173964721Y-102665000D01*
X173552244Y-102747047D01*
X173163698Y-102907988D01*
X172814017Y-103141637D01*
X172516637Y-103439017D01*
X172282988Y-103788698D01*
X172122047Y-104177244D01*
X172040000Y-104589721D01*
X170085000Y-104589721D01*
X170085000Y-104564721D01*
X170002953Y-104152244D01*
X169842012Y-103763698D01*
X169608363Y-103414017D01*
X169310983Y-103116637D01*
X168961302Y-102882988D01*
X168572756Y-102722047D01*
X168160279Y-102640000D01*
X167739721Y-102640000D01*
X167327244Y-102722047D01*
X166938698Y-102882988D01*
X166589017Y-103116637D01*
X166291637Y-103414017D01*
X166057988Y-103763698D01*
X165897047Y-104152244D01*
X165815000Y-104564721D01*
X159927000Y-104564721D01*
X159927000Y-102605000D01*
X159987327Y-102605000D01*
X159987327Y-102848300D01*
X159999587Y-102972782D01*
X160035897Y-103092480D01*
X160094862Y-103202794D01*
X160174214Y-103299485D01*
X160270905Y-103378837D01*
X160381219Y-103437802D01*
X160500917Y-103474112D01*
X160625399Y-103486372D01*
X164435399Y-103486372D01*
X164559881Y-103474112D01*
X164679579Y-103437802D01*
X164789893Y-103378837D01*
X164886584Y-103299485D01*
X164965936Y-103202794D01*
X165024901Y-103092480D01*
X165061211Y-102972782D01*
X165073471Y-102848300D01*
X165073471Y-100841700D01*
X165061211Y-100717218D01*
X165024901Y-100597520D01*
X164965936Y-100487206D01*
X164886584Y-100390515D01*
X164789893Y-100311163D01*
X164679579Y-100252198D01*
X164559881Y-100215888D01*
X164435399Y-100203628D01*
X160625399Y-100203628D01*
X160500917Y-100215888D01*
X160381219Y-100252198D01*
X160270905Y-100311163D01*
X160174214Y-100390515D01*
X160094862Y-100487206D01*
X160035897Y-100597520D01*
X159999587Y-100717218D01*
X159987327Y-100841700D01*
X159987327Y-101085000D01*
X159927000Y-101085000D01*
X159927000Y-93444721D01*
X165815000Y-93444721D01*
X165815000Y-93865279D01*
X165897047Y-94277756D01*
X166057988Y-94666302D01*
X166291637Y-95015983D01*
X166589017Y-95313363D01*
X166938698Y-95547012D01*
X167327244Y-95707953D01*
X167739721Y-95790000D01*
X168160279Y-95790000D01*
X168572756Y-95707953D01*
X168961302Y-95547012D01*
X169310983Y-95313363D01*
X169608363Y-95015983D01*
X169842012Y-94666302D01*
X170002953Y-94277756D01*
X170085000Y-93865279D01*
X170085000Y-93469721D01*
X172040000Y-93469721D01*
X172040000Y-93890279D01*
X172122047Y-94302756D01*
X172282988Y-94691302D01*
X172516637Y-95040983D01*
X172814017Y-95338363D01*
X173163698Y-95572012D01*
X173552244Y-95732953D01*
X173964721Y-95815000D01*
X174385279Y-95815000D01*
X174797756Y-95732953D01*
X175186302Y-95572012D01*
X175535983Y-95338363D01*
X175833363Y-95040983D01*
X176067012Y-94691302D01*
X176227953Y-94302756D01*
X176310000Y-93890279D01*
X176310000Y-93469721D01*
X176227953Y-93057244D01*
X176067012Y-92668698D01*
X175833363Y-92319017D01*
X175535983Y-92021637D01*
X175186302Y-91787988D01*
X174797756Y-91627047D01*
X174385279Y-91545000D01*
X173964721Y-91545000D01*
X173552244Y-91627047D01*
X173163698Y-91787988D01*
X172814017Y-92021637D01*
X172516637Y-92319017D01*
X172282988Y-92668698D01*
X172122047Y-93057244D01*
X172040000Y-93469721D01*
X170085000Y-93469721D01*
X170085000Y-93444721D01*
X170002953Y-93032244D01*
X169842012Y-92643698D01*
X169608363Y-92294017D01*
X169310983Y-91996637D01*
X168961302Y-91762988D01*
X168572756Y-91602047D01*
X168160279Y-91520000D01*
X167739721Y-91520000D01*
X167327244Y-91602047D01*
X166938698Y-91762988D01*
X166589017Y-91996637D01*
X166291637Y-92294017D01*
X166057988Y-92643698D01*
X165897047Y-93032244D01*
X165815000Y-93444721D01*
X159927000Y-93444721D01*
X159927000Y-90500000D01*
X160017327Y-90500000D01*
X160017327Y-90743300D01*
X160029587Y-90867782D01*
X160065897Y-90987480D01*
X160124862Y-91097794D01*
X160204214Y-91194485D01*
X160300905Y-91273837D01*
X160411219Y-91332802D01*
X160530917Y-91369112D01*
X160655399Y-91381372D01*
X164465399Y-91381372D01*
X164589881Y-91369112D01*
X164709579Y-91332802D01*
X164819893Y-91273837D01*
X164916584Y-91194485D01*
X164995936Y-91097794D01*
X165054901Y-90987480D01*
X165091211Y-90867782D01*
X165103471Y-90743300D01*
X165103471Y-88736700D01*
X165091211Y-88612218D01*
X165054901Y-88492520D01*
X164995936Y-88382206D01*
X164916584Y-88285515D01*
X164819893Y-88206163D01*
X164709579Y-88147198D01*
X164589881Y-88110888D01*
X164465399Y-88098628D01*
X160655399Y-88098628D01*
X160530917Y-88110888D01*
X160411219Y-88147198D01*
X160300905Y-88206163D01*
X160204214Y-88285515D01*
X160124862Y-88382206D01*
X160065897Y-88492520D01*
X160029587Y-88612218D01*
X160017327Y-88736700D01*
X160017327Y-88980000D01*
X159927000Y-88980000D01*
X159927000Y-82927000D01*
X170135329Y-82927000D01*
X172497291Y-86174698D01*
G04 #@! TO.N,VSENSE_HIGH*
G36*
X137873000Y-88234756D02*
G01*
X137873000Y-89600000D01*
X137875440Y-89624776D01*
X137882667Y-89648601D01*
X137894403Y-89670557D01*
X137910197Y-89689803D01*
X137929443Y-89705597D01*
X137951399Y-89717333D01*
X137975224Y-89724560D01*
X138000000Y-89727000D01*
X140573000Y-89727000D01*
X140573000Y-94800000D01*
X140575440Y-94824776D01*
X140582667Y-94848601D01*
X140594403Y-94870557D01*
X140610197Y-94889803D01*
X140629443Y-94905597D01*
X140651399Y-94917333D01*
X140675224Y-94924560D01*
X140700000Y-94927000D01*
X145073000Y-94927000D01*
X145073000Y-97273000D01*
X132527000Y-97273000D01*
X132527000Y-88227000D01*
X137865244Y-88227000D01*
X137873000Y-88234756D01*
G37*
X137873000Y-88234756D02*
X137873000Y-89600000D01*
X137875440Y-89624776D01*
X137882667Y-89648601D01*
X137894403Y-89670557D01*
X137910197Y-89689803D01*
X137929443Y-89705597D01*
X137951399Y-89717333D01*
X137975224Y-89724560D01*
X138000000Y-89727000D01*
X140573000Y-89727000D01*
X140573000Y-94800000D01*
X140575440Y-94824776D01*
X140582667Y-94848601D01*
X140594403Y-94870557D01*
X140610197Y-94889803D01*
X140629443Y-94905597D01*
X140651399Y-94917333D01*
X140675224Y-94924560D01*
X140700000Y-94927000D01*
X145073000Y-94927000D01*
X145073000Y-97273000D01*
X132527000Y-97273000D01*
X132527000Y-88227000D01*
X137865244Y-88227000D01*
X137873000Y-88234756D01*
G04 #@! TO.N,GNDPWR*
G36*
X145073000Y-99873000D02*
G01*
X142900000Y-99873000D01*
X142875224Y-99875440D01*
X142851399Y-99882667D01*
X142829443Y-99894403D01*
X142810197Y-99910197D01*
X142794403Y-99929443D01*
X142782667Y-99951399D01*
X142775440Y-99975224D01*
X142773000Y-100000000D01*
X142773000Y-101073000D01*
X138600000Y-101073000D01*
X138575224Y-101075440D01*
X138551399Y-101082667D01*
X138529443Y-101094403D01*
X138510197Y-101110197D01*
X138494403Y-101129443D01*
X138482667Y-101151399D01*
X138475440Y-101175224D01*
X138473000Y-101200000D01*
X138473000Y-101784217D01*
X138275677Y-101981540D01*
X138246679Y-102005338D01*
X138222881Y-102034336D01*
X138222880Y-102034337D01*
X138151705Y-102121063D01*
X138081133Y-102253093D01*
X138053254Y-102345000D01*
X138037677Y-102396353D01*
X138035060Y-102422923D01*
X138023003Y-102545339D01*
X138026680Y-102582671D01*
X138026679Y-105073000D01*
X130927000Y-105073000D01*
X130927000Y-103206033D01*
X130951185Y-103186185D01*
X131030537Y-103089494D01*
X131089502Y-102979180D01*
X131125812Y-102859482D01*
X131138072Y-102735000D01*
X131138072Y-101465000D01*
X131125812Y-101340518D01*
X131089502Y-101220820D01*
X131030537Y-101110506D01*
X130951185Y-101013815D01*
X130927000Y-100993967D01*
X130927000Y-98327000D01*
X145073000Y-98327000D01*
X145073000Y-99873000D01*
G37*
X145073000Y-99873000D02*
X142900000Y-99873000D01*
X142875224Y-99875440D01*
X142851399Y-99882667D01*
X142829443Y-99894403D01*
X142810197Y-99910197D01*
X142794403Y-99929443D01*
X142782667Y-99951399D01*
X142775440Y-99975224D01*
X142773000Y-100000000D01*
X142773000Y-101073000D01*
X138600000Y-101073000D01*
X138575224Y-101075440D01*
X138551399Y-101082667D01*
X138529443Y-101094403D01*
X138510197Y-101110197D01*
X138494403Y-101129443D01*
X138482667Y-101151399D01*
X138475440Y-101175224D01*
X138473000Y-101200000D01*
X138473000Y-101784217D01*
X138275677Y-101981540D01*
X138246679Y-102005338D01*
X138222881Y-102034336D01*
X138222880Y-102034337D01*
X138151705Y-102121063D01*
X138081133Y-102253093D01*
X138053254Y-102345000D01*
X138037677Y-102396353D01*
X138035060Y-102422923D01*
X138023003Y-102545339D01*
X138026680Y-102582671D01*
X138026679Y-105073000D01*
X130927000Y-105073000D01*
X130927000Y-103206033D01*
X130951185Y-103186185D01*
X131030537Y-103089494D01*
X131089502Y-102979180D01*
X131125812Y-102859482D01*
X131138072Y-102735000D01*
X131138072Y-101465000D01*
X131125812Y-101340518D01*
X131089502Y-101220820D01*
X131030537Y-101110506D01*
X130951185Y-101013815D01*
X130927000Y-100993967D01*
X130927000Y-98327000D01*
X145073000Y-98327000D01*
X145073000Y-99873000D01*
G04 #@! TO.N,GND*
G36*
X129773000Y-103123000D02*
G01*
X127827000Y-103123000D01*
X127827000Y-101177000D01*
X129773000Y-101177000D01*
X129773000Y-103123000D01*
G37*
X129773000Y-103123000D02*
X127827000Y-103123000D01*
X127827000Y-101177000D01*
X129773000Y-101177000D01*
X129773000Y-103123000D01*
G04 #@! TD*
M02*
