G04 #@! TF.GenerationSoftware,KiCad,Pcbnew,5.1.6-c6e7f7d~87~ubuntu19.10.1*
G04 #@! TF.CreationDate,2021-03-15T12:51:18-04:00*
G04 #@! TF.ProjectId,icarus,69636172-7573-42e6-9b69-6361645f7063,V1.0*
G04 #@! TF.SameCoordinates,Original*
G04 #@! TF.FileFunction,Copper,L3,Inr*
G04 #@! TF.FilePolarity,Positive*
%FSLAX46Y46*%
G04 Gerber Fmt 4.6, Leading zero omitted, Abs format (unit mm)*
G04 Created by KiCad (PCBNEW 5.1.6-c6e7f7d~87~ubuntu19.10.1) date 2021-03-15 12:51:18*
%MOMM*%
%LPD*%
G01*
G04 APERTURE LIST*
G04 #@! TA.AperFunction,ViaPad*
%ADD10C,4.716000*%
G04 #@! TD*
G04 #@! TA.AperFunction,ViaPad*
%ADD11C,3.000000*%
G04 #@! TD*
G04 #@! TA.AperFunction,ViaPad*
%ADD12O,1.050000X1.250000*%
G04 #@! TD*
G04 #@! TA.AperFunction,ViaPad*
%ADD13O,1.000000X1.900000*%
G04 #@! TD*
G04 #@! TA.AperFunction,ViaPad*
%ADD14C,4.700000*%
G04 #@! TD*
G04 #@! TA.AperFunction,ViaPad*
%ADD15O,1.200000X1.750000*%
G04 #@! TD*
G04 #@! TA.AperFunction,ViaPad*
%ADD16O,1.750000X1.200000*%
G04 #@! TD*
G04 #@! TA.AperFunction,ViaPad*
%ADD17C,0.600000*%
G04 #@! TD*
G04 #@! TA.AperFunction,ViaPad*
%ADD18C,0.800000*%
G04 #@! TD*
G04 #@! TA.AperFunction,Conductor*
%ADD19C,0.254000*%
G04 #@! TD*
G04 APERTURE END LIST*
D10*
G04 #@! TO.N,VSENSE_HIGH*
G04 #@! TO.C,U4*
X135800000Y-91210000D03*
G04 #@! TO.N,GNDPWR*
X135800000Y-102110000D03*
D11*
G04 #@! TO.N,N/C*
X126400000Y-106110000D03*
X126400000Y-87210000D03*
G04 #@! TD*
D12*
G04 #@! TO.N,Net-(J4-Pad6)*
G04 #@! TO.C,J4*
X121355000Y-119930000D03*
X125805000Y-119930000D03*
D13*
X119405000Y-122930000D03*
X127755000Y-122930000D03*
G04 #@! TD*
D14*
G04 #@! TO.N,GND*
G04 #@! TO.C,H1*
X115720000Y-121410000D03*
G04 #@! TD*
G04 #@! TO.N,Net-(H2-Pad1)*
G04 #@! TO.C,H2*
X174465000Y-83160000D03*
G04 #@! TD*
G04 #@! TO.N,Net-(H3-Pad1)*
G04 #@! TO.C,H3*
X174465000Y-121420000D03*
G04 #@! TD*
G04 #@! TO.N,GND*
G04 #@! TO.C,H4*
X115720000Y-83160000D03*
G04 #@! TD*
G04 #@! TO.N,+3V3*
G04 #@! TO.C,J3*
G04 #@! TA.AperFunction,ViaPad*
G36*
G01*
X130700000Y-121625001D02*
X130700000Y-120374999D01*
G75*
G02*
X130949999Y-120125000I249999J0D01*
G01*
X131650001Y-120125000D01*
G75*
G02*
X131900000Y-120374999I0J-249999D01*
G01*
X131900000Y-121625001D01*
G75*
G02*
X131650001Y-121875000I-249999J0D01*
G01*
X130949999Y-121875000D01*
G75*
G02*
X130700000Y-121625001I0J249999D01*
G01*
G37*
G04 #@! TD.AperFunction*
D15*
G04 #@! TO.N,SWO*
X133300000Y-121000000D03*
G04 #@! TO.N,SWDIO*
X135300000Y-121000000D03*
G04 #@! TO.N,SWCLK*
X137300000Y-121000000D03*
G04 #@! TO.N,NRST*
X139300000Y-121000000D03*
G04 #@! TO.N,GND*
X141300000Y-121000000D03*
G04 #@! TD*
D11*
G04 #@! TO.N,GNDPWR*
G04 #@! TO.C,U6*
X174175000Y-104800000D03*
G04 #@! TO.N,OUT*
X174175000Y-99800000D03*
G04 #@! TD*
G04 #@! TO.N,OUT*
G04 #@! TO.C,U7*
X174125000Y-110950000D03*
G04 #@! TO.N,GNDPWR*
X174125000Y-115950000D03*
G04 #@! TD*
G04 #@! TO.N,GNDPWR*
G04 #@! TO.C,U9*
X167950000Y-115925000D03*
G04 #@! TO.N,OUT*
X167950000Y-110925000D03*
G04 #@! TD*
G04 #@! TO.N,OUT*
G04 #@! TO.C,U10*
X174175000Y-88680000D03*
G04 #@! TO.N,GNDPWR*
X174175000Y-93680000D03*
G04 #@! TD*
G04 #@! TO.N,GNDPWR*
G04 #@! TO.C,U11*
X167950000Y-104775000D03*
G04 #@! TO.N,OUT*
X167950000Y-99775000D03*
G04 #@! TD*
G04 #@! TO.N,OUT*
G04 #@! TO.C,U12*
X167950000Y-88655000D03*
G04 #@! TO.N,GNDPWR*
X167950000Y-93655000D03*
G04 #@! TD*
G04 #@! TO.N,CAN_H*
G04 #@! TO.C,J1*
G04 #@! TA.AperFunction,ViaPad*
G36*
G01*
X121655001Y-115550000D02*
X120404999Y-115550000D01*
G75*
G02*
X120155000Y-115300001I0J249999D01*
G01*
X120155000Y-114599999D01*
G75*
G02*
X120404999Y-114350000I249999J0D01*
G01*
X121655001Y-114350000D01*
G75*
G02*
X121905000Y-114599999I0J-249999D01*
G01*
X121905000Y-115300001D01*
G75*
G02*
X121655001Y-115550000I-249999J0D01*
G01*
G37*
G04 #@! TD.AperFunction*
D16*
G04 #@! TO.N,CAN_L*
X121030000Y-112950000D03*
G04 #@! TO.N,GND*
X121030000Y-110950000D03*
G04 #@! TD*
G04 #@! TO.N,GND*
G04 #@! TO.C,J2*
X115070000Y-110940000D03*
G04 #@! TO.N,CAN_L*
X115070000Y-112940000D03*
G04 #@! TO.N,CAN_H*
G04 #@! TA.AperFunction,ViaPad*
G36*
G01*
X115695001Y-115540000D02*
X114444999Y-115540000D01*
G75*
G02*
X114195000Y-115290001I0J249999D01*
G01*
X114195000Y-114589999D01*
G75*
G02*
X114444999Y-114340000I249999J0D01*
G01*
X115695001Y-114340000D01*
G75*
G02*
X115945000Y-114589999I0J-249999D01*
G01*
X115945000Y-115290001D01*
G75*
G02*
X115695001Y-115540000I-249999J0D01*
G01*
G37*
G04 #@! TD.AperFunction*
G04 #@! TD*
D17*
G04 #@! TO.N,+3V3*
X129930000Y-110120000D03*
X129920000Y-114030000D03*
X132750000Y-116570000D03*
X141650000Y-116690000D03*
X140570000Y-117380000D03*
X155580000Y-120460000D03*
X155419990Y-122430000D03*
X160210000Y-122370000D03*
X160260000Y-120440000D03*
X121470000Y-85240000D03*
X119190000Y-85240000D03*
X124510000Y-85690000D03*
X128225000Y-85725000D03*
X129000000Y-85700000D03*
X129775000Y-85775000D03*
X130448495Y-85701658D03*
X128300000Y-83950000D03*
X129025000Y-83925000D03*
X129725000Y-83925000D03*
X130350000Y-83975000D03*
X145580326Y-83619674D03*
X133363659Y-107836341D03*
X134790000Y-108810000D03*
G04 #@! TO.N,GND*
X122280000Y-118850000D03*
X127220000Y-112620000D03*
X131620000Y-116630000D03*
X141560000Y-117520000D03*
X142440010Y-118175816D03*
X149190000Y-122770000D03*
X149110000Y-123580000D03*
X126500000Y-114060000D03*
X137120000Y-107850000D03*
X136440000Y-107140000D03*
X135510000Y-107060000D03*
X137350000Y-106660000D03*
X137350000Y-112065000D03*
X138750000Y-112065000D03*
X135950000Y-112065000D03*
X138750000Y-113465000D03*
X135950000Y-113465000D03*
X137350000Y-113465000D03*
X137350000Y-114865000D03*
X138750000Y-114865000D03*
X126650000Y-84975000D03*
X136800000Y-82725000D03*
X135850000Y-80750000D03*
X134600000Y-81300000D03*
X143745673Y-114354327D03*
X158191200Y-119235000D03*
X130000000Y-111800000D03*
X123696605Y-117403395D03*
X146050000Y-122700000D03*
X146400000Y-123300000D03*
X136500000Y-86350000D03*
X135500000Y-86300000D03*
X133850000Y-86300000D03*
X141550000Y-87981999D03*
X142950000Y-85450000D03*
X128700000Y-101550000D03*
X128150000Y-102250000D03*
X128700000Y-102850000D03*
X142300000Y-102850000D03*
X143500000Y-102850000D03*
X135050000Y-111180000D03*
X139670000Y-111120000D03*
X139580000Y-115760000D03*
X134860000Y-115890000D03*
G04 #@! TO.N,VSENSE_HIGH*
X149250000Y-122000000D03*
X131250000Y-91450000D03*
G04 #@! TO.N,NRST*
X141950000Y-113585001D03*
G04 #@! TO.N,OUT*
X145825000Y-88250000D03*
X162700000Y-86400000D03*
X146400000Y-122000000D03*
X160650000Y-118550000D03*
G04 #@! TO.N,+5V*
X126900000Y-120600000D03*
X123800000Y-81000000D03*
D18*
G04 #@! TO.N,VSENSE_LOW*
X155120000Y-105720000D03*
X153550000Y-105720000D03*
X151870000Y-105720000D03*
X150170000Y-105720000D03*
X148470000Y-105720000D03*
X155240000Y-93220000D03*
X153630000Y-93220000D03*
X151830000Y-93220000D03*
X149930000Y-93220000D03*
X147930000Y-93220000D03*
D17*
G04 #@! TO.N,PG*
X137300000Y-108900000D03*
X145775000Y-89125000D03*
G04 #@! TO.N,TPS_ENABLE*
X131975000Y-107650000D03*
X131975000Y-86450000D03*
G04 #@! TO.N,CAN_TX*
X139585574Y-118159954D03*
X132695362Y-112829638D03*
G04 #@! TO.N,CAN_RX*
X138793968Y-118044360D03*
X132775000Y-109000000D03*
G04 #@! TO.N,Net-(MOSFET2-PadP$1)*
X134390000Y-83549999D03*
X142190000Y-80960000D03*
G04 #@! TO.N,GNDPWR*
X164400000Y-121500000D03*
X163750000Y-121500000D03*
X163100000Y-121500000D03*
X161900000Y-121350000D03*
X161250000Y-121350000D03*
G04 #@! TD*
D19*
G04 #@! TO.N,VSENSE_HIGH*
G36*
X137873000Y-89600000D02*
G01*
X137875440Y-89624776D01*
X137882667Y-89648601D01*
X137894403Y-89670557D01*
X137910197Y-89689803D01*
X137929443Y-89705597D01*
X137951399Y-89717333D01*
X137975224Y-89724560D01*
X138000000Y-89727000D01*
X140573000Y-89727000D01*
X140573000Y-94800000D01*
X140575440Y-94824776D01*
X140582667Y-94848601D01*
X140594403Y-94870557D01*
X140610197Y-94889803D01*
X140629443Y-94905597D01*
X140651399Y-94917333D01*
X140675224Y-94924560D01*
X140700000Y-94927000D01*
X145073000Y-94927000D01*
X145073000Y-97273000D01*
X132527000Y-97273000D01*
X132527000Y-88227000D01*
X137873000Y-88227000D01*
X137873000Y-89600000D01*
G37*
X137873000Y-89600000D02*
X137875440Y-89624776D01*
X137882667Y-89648601D01*
X137894403Y-89670557D01*
X137910197Y-89689803D01*
X137929443Y-89705597D01*
X137951399Y-89717333D01*
X137975224Y-89724560D01*
X138000000Y-89727000D01*
X140573000Y-89727000D01*
X140573000Y-94800000D01*
X140575440Y-94824776D01*
X140582667Y-94848601D01*
X140594403Y-94870557D01*
X140610197Y-94889803D01*
X140629443Y-94905597D01*
X140651399Y-94917333D01*
X140675224Y-94924560D01*
X140700000Y-94927000D01*
X145073000Y-94927000D01*
X145073000Y-97273000D01*
X132527000Y-97273000D01*
X132527000Y-88227000D01*
X137873000Y-88227000D01*
X137873000Y-89600000D01*
G04 #@! TO.N,GNDPWR*
G36*
X172498769Y-86176690D02*
G01*
X172515676Y-86194965D01*
X172535823Y-86209592D01*
X172558436Y-86220006D01*
X172582647Y-86225809D01*
X172600000Y-86227000D01*
X176773000Y-86227000D01*
X176773000Y-118473000D01*
X174950036Y-118473000D01*
X174758997Y-118435000D01*
X174171003Y-118435000D01*
X173979964Y-118473000D01*
X171900000Y-118473000D01*
X171875224Y-118475440D01*
X171851399Y-118482667D01*
X171829443Y-118494403D01*
X171810197Y-118510197D01*
X171794403Y-118529443D01*
X171782667Y-118551399D01*
X171777064Y-118568128D01*
X170436209Y-123739999D01*
X159724517Y-123740000D01*
X159719029Y-123166459D01*
X159767111Y-123198586D01*
X159937271Y-123269068D01*
X160117911Y-123305000D01*
X160302089Y-123305000D01*
X160482729Y-123269068D01*
X160652889Y-123198586D01*
X160806028Y-123096262D01*
X160936262Y-122966028D01*
X161038586Y-122812889D01*
X161109068Y-122642729D01*
X161145000Y-122462089D01*
X161145000Y-122277911D01*
X161109068Y-122097271D01*
X161038586Y-121927111D01*
X160936262Y-121773972D01*
X160806028Y-121643738D01*
X160652889Y-121541414D01*
X160482729Y-121470932D01*
X160302089Y-121435000D01*
X160117911Y-121435000D01*
X159937271Y-121470932D01*
X159767111Y-121541414D01*
X159703883Y-121583662D01*
X159700119Y-121190415D01*
X159817111Y-121268586D01*
X159987271Y-121339068D01*
X160167911Y-121375000D01*
X160352089Y-121375000D01*
X160532729Y-121339068D01*
X160702889Y-121268586D01*
X160856028Y-121166262D01*
X160986262Y-121036028D01*
X161088586Y-120882889D01*
X161159068Y-120712729D01*
X161195000Y-120532089D01*
X161195000Y-120347911D01*
X161159068Y-120167271D01*
X161088586Y-119997111D01*
X160986262Y-119843972D01*
X160856028Y-119713738D01*
X160702889Y-119611414D01*
X160532729Y-119540932D01*
X160352089Y-119505000D01*
X160167911Y-119505000D01*
X159987271Y-119540932D01*
X159817111Y-119611414D01*
X159685849Y-119699120D01*
X159673972Y-118457911D01*
X159715000Y-118457911D01*
X159715000Y-118642089D01*
X159750932Y-118822729D01*
X159821414Y-118992889D01*
X159923738Y-119146028D01*
X160053972Y-119276262D01*
X160207111Y-119378586D01*
X160377271Y-119449068D01*
X160557911Y-119485000D01*
X160742089Y-119485000D01*
X160922729Y-119449068D01*
X161092889Y-119378586D01*
X161246028Y-119276262D01*
X161376262Y-119146028D01*
X161478586Y-118992889D01*
X161549068Y-118822729D01*
X161585000Y-118642089D01*
X161585000Y-118457911D01*
X161549068Y-118277271D01*
X161478586Y-118107111D01*
X161376262Y-117953972D01*
X161246028Y-117823738D01*
X161092889Y-117721414D01*
X160922729Y-117650932D01*
X160742089Y-117615000D01*
X160557911Y-117615000D01*
X160377271Y-117650932D01*
X160207111Y-117721414D01*
X160053972Y-117823738D01*
X159923738Y-117953972D01*
X159821414Y-118107111D01*
X159750932Y-118277271D01*
X159715000Y-118457911D01*
X159673972Y-118457911D01*
X159666994Y-117728785D01*
X159664317Y-117704033D01*
X159656862Y-117680279D01*
X159644917Y-117658435D01*
X159628939Y-117639342D01*
X159604440Y-117620563D01*
X147876271Y-110714721D01*
X165815000Y-110714721D01*
X165815000Y-111135279D01*
X165897047Y-111547756D01*
X166057988Y-111936302D01*
X166291637Y-112285983D01*
X166589017Y-112583363D01*
X166938698Y-112817012D01*
X167327244Y-112977953D01*
X167739721Y-113060000D01*
X168160279Y-113060000D01*
X168572756Y-112977953D01*
X168961302Y-112817012D01*
X169310983Y-112583363D01*
X169608363Y-112285983D01*
X169842012Y-111936302D01*
X170002953Y-111547756D01*
X170085000Y-111135279D01*
X170085000Y-110739721D01*
X171990000Y-110739721D01*
X171990000Y-111160279D01*
X172072047Y-111572756D01*
X172232988Y-111961302D01*
X172466637Y-112310983D01*
X172764017Y-112608363D01*
X173113698Y-112842012D01*
X173502244Y-113002953D01*
X173914721Y-113085000D01*
X174335279Y-113085000D01*
X174747756Y-113002953D01*
X175136302Y-112842012D01*
X175485983Y-112608363D01*
X175783363Y-112310983D01*
X176017012Y-111961302D01*
X176177953Y-111572756D01*
X176260000Y-111160279D01*
X176260000Y-110739721D01*
X176177953Y-110327244D01*
X176017012Y-109938698D01*
X175783363Y-109589017D01*
X175485983Y-109291637D01*
X175136302Y-109057988D01*
X174747756Y-108897047D01*
X174335279Y-108815000D01*
X173914721Y-108815000D01*
X173502244Y-108897047D01*
X173113698Y-109057988D01*
X172764017Y-109291637D01*
X172466637Y-109589017D01*
X172232988Y-109938698D01*
X172072047Y-110327244D01*
X171990000Y-110739721D01*
X170085000Y-110739721D01*
X170085000Y-110714721D01*
X170002953Y-110302244D01*
X169842012Y-109913698D01*
X169608363Y-109564017D01*
X169310983Y-109266637D01*
X168961302Y-109032988D01*
X168572756Y-108872047D01*
X168160279Y-108790000D01*
X167739721Y-108790000D01*
X167327244Y-108872047D01*
X166938698Y-109032988D01*
X166589017Y-109266637D01*
X166291637Y-109564017D01*
X166057988Y-109913698D01*
X165897047Y-110302244D01*
X165815000Y-110714721D01*
X147876271Y-110714721D01*
X139220629Y-105618061D01*
X147435000Y-105618061D01*
X147435000Y-105821939D01*
X147474774Y-106021898D01*
X147552795Y-106210256D01*
X147666063Y-106379774D01*
X147810226Y-106523937D01*
X147979744Y-106637205D01*
X148168102Y-106715226D01*
X148368061Y-106755000D01*
X148571939Y-106755000D01*
X148771898Y-106715226D01*
X148960256Y-106637205D01*
X149129774Y-106523937D01*
X149273937Y-106379774D01*
X149320000Y-106310836D01*
X149366063Y-106379774D01*
X149510226Y-106523937D01*
X149679744Y-106637205D01*
X149868102Y-106715226D01*
X150068061Y-106755000D01*
X150271939Y-106755000D01*
X150471898Y-106715226D01*
X150660256Y-106637205D01*
X150829774Y-106523937D01*
X150973937Y-106379774D01*
X151020000Y-106310836D01*
X151066063Y-106379774D01*
X151210226Y-106523937D01*
X151379744Y-106637205D01*
X151568102Y-106715226D01*
X151768061Y-106755000D01*
X151971939Y-106755000D01*
X152171898Y-106715226D01*
X152360256Y-106637205D01*
X152529774Y-106523937D01*
X152673937Y-106379774D01*
X152710000Y-106325802D01*
X152746063Y-106379774D01*
X152890226Y-106523937D01*
X153059744Y-106637205D01*
X153248102Y-106715226D01*
X153448061Y-106755000D01*
X153651939Y-106755000D01*
X153851898Y-106715226D01*
X154040256Y-106637205D01*
X154209774Y-106523937D01*
X154335000Y-106398711D01*
X154460226Y-106523937D01*
X154629744Y-106637205D01*
X154818102Y-106715226D01*
X155018061Y-106755000D01*
X155221939Y-106755000D01*
X155421898Y-106715226D01*
X155610256Y-106637205D01*
X155779774Y-106523937D01*
X155923937Y-106379774D01*
X156037205Y-106210256D01*
X156115226Y-106021898D01*
X156155000Y-105821939D01*
X156155000Y-105618061D01*
X156115226Y-105418102D01*
X156037205Y-105229744D01*
X155923937Y-105060226D01*
X155779774Y-104916063D01*
X155610256Y-104802795D01*
X155421898Y-104724774D01*
X155221939Y-104685000D01*
X155018061Y-104685000D01*
X154818102Y-104724774D01*
X154629744Y-104802795D01*
X154460226Y-104916063D01*
X154335000Y-105041289D01*
X154209774Y-104916063D01*
X154040256Y-104802795D01*
X153851898Y-104724774D01*
X153651939Y-104685000D01*
X153448061Y-104685000D01*
X153248102Y-104724774D01*
X153059744Y-104802795D01*
X152890226Y-104916063D01*
X152746063Y-105060226D01*
X152710000Y-105114198D01*
X152673937Y-105060226D01*
X152529774Y-104916063D01*
X152360256Y-104802795D01*
X152171898Y-104724774D01*
X151971939Y-104685000D01*
X151768061Y-104685000D01*
X151568102Y-104724774D01*
X151379744Y-104802795D01*
X151210226Y-104916063D01*
X151066063Y-105060226D01*
X151020000Y-105129164D01*
X150973937Y-105060226D01*
X150829774Y-104916063D01*
X150660256Y-104802795D01*
X150471898Y-104724774D01*
X150271939Y-104685000D01*
X150068061Y-104685000D01*
X149868102Y-104724774D01*
X149679744Y-104802795D01*
X149510226Y-104916063D01*
X149366063Y-105060226D01*
X149320000Y-105129164D01*
X149273937Y-105060226D01*
X149129774Y-104916063D01*
X148960256Y-104802795D01*
X148771898Y-104724774D01*
X148571939Y-104685000D01*
X148368061Y-104685000D01*
X148168102Y-104724774D01*
X147979744Y-104802795D01*
X147810226Y-104916063D01*
X147666063Y-105060226D01*
X147552795Y-105229744D01*
X147474774Y-105418102D01*
X147435000Y-105618061D01*
X139220629Y-105618061D01*
X138664440Y-105290563D01*
X138641851Y-105280094D01*
X138617654Y-105274233D01*
X138600000Y-105273000D01*
X130927000Y-105273000D01*
X130927000Y-102757911D01*
X141365000Y-102757911D01*
X141365000Y-102942089D01*
X141400932Y-103122729D01*
X141471414Y-103292889D01*
X141573738Y-103446028D01*
X141703972Y-103576262D01*
X141857111Y-103678586D01*
X142027271Y-103749068D01*
X142207911Y-103785000D01*
X142392089Y-103785000D01*
X142572729Y-103749068D01*
X142742889Y-103678586D01*
X142896028Y-103576262D01*
X142900000Y-103572290D01*
X142903972Y-103576262D01*
X143057111Y-103678586D01*
X143227271Y-103749068D01*
X143407911Y-103785000D01*
X143592089Y-103785000D01*
X143772729Y-103749068D01*
X143942889Y-103678586D01*
X144096028Y-103576262D01*
X144226262Y-103446028D01*
X144328586Y-103292889D01*
X144399068Y-103122729D01*
X144435000Y-102942089D01*
X144435000Y-102757911D01*
X144399068Y-102577271D01*
X144328586Y-102407111D01*
X144226262Y-102253972D01*
X144096028Y-102123738D01*
X143942889Y-102021414D01*
X143772729Y-101950932D01*
X143592089Y-101915000D01*
X143407911Y-101915000D01*
X143227271Y-101950932D01*
X143057111Y-102021414D01*
X142903972Y-102123738D01*
X142900000Y-102127710D01*
X142896028Y-102123738D01*
X142742889Y-102021414D01*
X142572729Y-101950932D01*
X142392089Y-101915000D01*
X142207911Y-101915000D01*
X142027271Y-101950932D01*
X141857111Y-102021414D01*
X141703972Y-102123738D01*
X141573738Y-102253972D01*
X141471414Y-102407111D01*
X141400932Y-102577271D01*
X141365000Y-102757911D01*
X130927000Y-102757911D01*
X130927000Y-99564721D01*
X165815000Y-99564721D01*
X165815000Y-99985279D01*
X165897047Y-100397756D01*
X166057988Y-100786302D01*
X166291637Y-101135983D01*
X166589017Y-101433363D01*
X166938698Y-101667012D01*
X167327244Y-101827953D01*
X167739721Y-101910000D01*
X168160279Y-101910000D01*
X168572756Y-101827953D01*
X168961302Y-101667012D01*
X169310983Y-101433363D01*
X169608363Y-101135983D01*
X169842012Y-100786302D01*
X170002953Y-100397756D01*
X170085000Y-99985279D01*
X170085000Y-99589721D01*
X172040000Y-99589721D01*
X172040000Y-100010279D01*
X172122047Y-100422756D01*
X172282988Y-100811302D01*
X172516637Y-101160983D01*
X172814017Y-101458363D01*
X173163698Y-101692012D01*
X173552244Y-101852953D01*
X173964721Y-101935000D01*
X174385279Y-101935000D01*
X174797756Y-101852953D01*
X175186302Y-101692012D01*
X175535983Y-101458363D01*
X175833363Y-101160983D01*
X176067012Y-100811302D01*
X176227953Y-100422756D01*
X176310000Y-100010279D01*
X176310000Y-99589721D01*
X176227953Y-99177244D01*
X176067012Y-98788698D01*
X175833363Y-98439017D01*
X175535983Y-98141637D01*
X175186302Y-97907988D01*
X174797756Y-97747047D01*
X174385279Y-97665000D01*
X173964721Y-97665000D01*
X173552244Y-97747047D01*
X173163698Y-97907988D01*
X172814017Y-98141637D01*
X172516637Y-98439017D01*
X172282988Y-98788698D01*
X172122047Y-99177244D01*
X172040000Y-99589721D01*
X170085000Y-99589721D01*
X170085000Y-99564721D01*
X170002953Y-99152244D01*
X169842012Y-98763698D01*
X169608363Y-98414017D01*
X169310983Y-98116637D01*
X168961302Y-97882988D01*
X168572756Y-97722047D01*
X168160279Y-97640000D01*
X167739721Y-97640000D01*
X167327244Y-97722047D01*
X166938698Y-97882988D01*
X166589017Y-98116637D01*
X166291637Y-98414017D01*
X166057988Y-98763698D01*
X165897047Y-99152244D01*
X165815000Y-99564721D01*
X130927000Y-99564721D01*
X130927000Y-98327000D01*
X145200000Y-98327000D01*
X145224776Y-98324560D01*
X145248601Y-98317333D01*
X145270557Y-98305597D01*
X145292165Y-98287377D01*
X149309346Y-94050076D01*
X149439744Y-94137205D01*
X149628102Y-94215226D01*
X149828061Y-94255000D01*
X150031939Y-94255000D01*
X150231898Y-94215226D01*
X150420256Y-94137205D01*
X150589774Y-94023937D01*
X150733937Y-93879774D01*
X150847205Y-93710256D01*
X150880000Y-93631082D01*
X150912795Y-93710256D01*
X151026063Y-93879774D01*
X151170226Y-94023937D01*
X151339744Y-94137205D01*
X151528102Y-94215226D01*
X151728061Y-94255000D01*
X151931939Y-94255000D01*
X152131898Y-94215226D01*
X152320256Y-94137205D01*
X152489774Y-94023937D01*
X152633937Y-93879774D01*
X152730000Y-93736005D01*
X152826063Y-93879774D01*
X152970226Y-94023937D01*
X153139744Y-94137205D01*
X153328102Y-94215226D01*
X153528061Y-94255000D01*
X153731939Y-94255000D01*
X153931898Y-94215226D01*
X154120256Y-94137205D01*
X154289774Y-94023937D01*
X154433937Y-93879774D01*
X154435000Y-93878183D01*
X154436063Y-93879774D01*
X154580226Y-94023937D01*
X154749744Y-94137205D01*
X154938102Y-94215226D01*
X155138061Y-94255000D01*
X155341939Y-94255000D01*
X155541898Y-94215226D01*
X155730256Y-94137205D01*
X155899774Y-94023937D01*
X156043937Y-93879774D01*
X156157205Y-93710256D01*
X156235226Y-93521898D01*
X156275000Y-93321939D01*
X156275000Y-93118061D01*
X156235226Y-92918102D01*
X156157205Y-92729744D01*
X156043937Y-92560226D01*
X155899774Y-92416063D01*
X155730256Y-92302795D01*
X155541898Y-92224774D01*
X155341939Y-92185000D01*
X155138061Y-92185000D01*
X154938102Y-92224774D01*
X154749744Y-92302795D01*
X154580226Y-92416063D01*
X154436063Y-92560226D01*
X154435000Y-92561817D01*
X154433937Y-92560226D01*
X154289774Y-92416063D01*
X154120256Y-92302795D01*
X153931898Y-92224774D01*
X153731939Y-92185000D01*
X153528061Y-92185000D01*
X153328102Y-92224774D01*
X153139744Y-92302795D01*
X152970226Y-92416063D01*
X152826063Y-92560226D01*
X152730000Y-92703995D01*
X152633937Y-92560226D01*
X152489774Y-92416063D01*
X152320256Y-92302795D01*
X152131898Y-92224774D01*
X151931939Y-92185000D01*
X151728061Y-92185000D01*
X151528102Y-92224774D01*
X151339744Y-92302795D01*
X151170226Y-92416063D01*
X151026063Y-92560226D01*
X150912795Y-92729744D01*
X150880000Y-92808918D01*
X150847205Y-92729744D01*
X150733937Y-92560226D01*
X150727707Y-92553996D01*
X154623513Y-88444721D01*
X165815000Y-88444721D01*
X165815000Y-88865279D01*
X165897047Y-89277756D01*
X166057988Y-89666302D01*
X166291637Y-90015983D01*
X166589017Y-90313363D01*
X166938698Y-90547012D01*
X167327244Y-90707953D01*
X167739721Y-90790000D01*
X168160279Y-90790000D01*
X168572756Y-90707953D01*
X168961302Y-90547012D01*
X169310983Y-90313363D01*
X169608363Y-90015983D01*
X169842012Y-89666302D01*
X170002953Y-89277756D01*
X170085000Y-88865279D01*
X170085000Y-88469721D01*
X172040000Y-88469721D01*
X172040000Y-88890279D01*
X172122047Y-89302756D01*
X172282988Y-89691302D01*
X172516637Y-90040983D01*
X172814017Y-90338363D01*
X173163698Y-90572012D01*
X173552244Y-90732953D01*
X173964721Y-90815000D01*
X174385279Y-90815000D01*
X174797756Y-90732953D01*
X175186302Y-90572012D01*
X175535983Y-90338363D01*
X175833363Y-90040983D01*
X176067012Y-89691302D01*
X176227953Y-89302756D01*
X176310000Y-88890279D01*
X176310000Y-88469721D01*
X176227953Y-88057244D01*
X176067012Y-87668698D01*
X175833363Y-87319017D01*
X175535983Y-87021637D01*
X175186302Y-86787988D01*
X174797756Y-86627047D01*
X174385279Y-86545000D01*
X173964721Y-86545000D01*
X173552244Y-86627047D01*
X173163698Y-86787988D01*
X172814017Y-87021637D01*
X172516637Y-87319017D01*
X172282988Y-87668698D01*
X172122047Y-88057244D01*
X172040000Y-88469721D01*
X170085000Y-88469721D01*
X170085000Y-88444721D01*
X170002953Y-88032244D01*
X169842012Y-87643698D01*
X169608363Y-87294017D01*
X169310983Y-86996637D01*
X168961302Y-86762988D01*
X168572756Y-86602047D01*
X168160279Y-86520000D01*
X167739721Y-86520000D01*
X167327244Y-86602047D01*
X166938698Y-86762988D01*
X166589017Y-86996637D01*
X166291637Y-87294017D01*
X166057988Y-87643698D01*
X165897047Y-88032244D01*
X165815000Y-88444721D01*
X154623513Y-88444721D01*
X156649320Y-86307911D01*
X161765000Y-86307911D01*
X161765000Y-86492089D01*
X161800932Y-86672729D01*
X161871414Y-86842889D01*
X161973738Y-86996028D01*
X162103972Y-87126262D01*
X162257111Y-87228586D01*
X162427271Y-87299068D01*
X162607911Y-87335000D01*
X162792089Y-87335000D01*
X162972729Y-87299068D01*
X163142889Y-87228586D01*
X163296028Y-87126262D01*
X163426262Y-86996028D01*
X163528586Y-86842889D01*
X163599068Y-86672729D01*
X163635000Y-86492089D01*
X163635000Y-86307911D01*
X163599068Y-86127271D01*
X163528586Y-85957111D01*
X163426262Y-85803972D01*
X163296028Y-85673738D01*
X163142889Y-85571414D01*
X162972729Y-85500932D01*
X162792089Y-85465000D01*
X162607911Y-85465000D01*
X162427271Y-85500932D01*
X162257111Y-85571414D01*
X162103972Y-85673738D01*
X161973738Y-85803972D01*
X161871414Y-85957111D01*
X161800932Y-86127271D01*
X161765000Y-86307911D01*
X156649320Y-86307911D01*
X159854600Y-82927000D01*
X170036883Y-82927000D01*
X172498769Y-86176690D01*
G37*
X172498769Y-86176690D02*
X172515676Y-86194965D01*
X172535823Y-86209592D01*
X172558436Y-86220006D01*
X172582647Y-86225809D01*
X172600000Y-86227000D01*
X176773000Y-86227000D01*
X176773000Y-118473000D01*
X174950036Y-118473000D01*
X174758997Y-118435000D01*
X174171003Y-118435000D01*
X173979964Y-118473000D01*
X171900000Y-118473000D01*
X171875224Y-118475440D01*
X171851399Y-118482667D01*
X171829443Y-118494403D01*
X171810197Y-118510197D01*
X171794403Y-118529443D01*
X171782667Y-118551399D01*
X171777064Y-118568128D01*
X170436209Y-123739999D01*
X159724517Y-123740000D01*
X159719029Y-123166459D01*
X159767111Y-123198586D01*
X159937271Y-123269068D01*
X160117911Y-123305000D01*
X160302089Y-123305000D01*
X160482729Y-123269068D01*
X160652889Y-123198586D01*
X160806028Y-123096262D01*
X160936262Y-122966028D01*
X161038586Y-122812889D01*
X161109068Y-122642729D01*
X161145000Y-122462089D01*
X161145000Y-122277911D01*
X161109068Y-122097271D01*
X161038586Y-121927111D01*
X160936262Y-121773972D01*
X160806028Y-121643738D01*
X160652889Y-121541414D01*
X160482729Y-121470932D01*
X160302089Y-121435000D01*
X160117911Y-121435000D01*
X159937271Y-121470932D01*
X159767111Y-121541414D01*
X159703883Y-121583662D01*
X159700119Y-121190415D01*
X159817111Y-121268586D01*
X159987271Y-121339068D01*
X160167911Y-121375000D01*
X160352089Y-121375000D01*
X160532729Y-121339068D01*
X160702889Y-121268586D01*
X160856028Y-121166262D01*
X160986262Y-121036028D01*
X161088586Y-120882889D01*
X161159068Y-120712729D01*
X161195000Y-120532089D01*
X161195000Y-120347911D01*
X161159068Y-120167271D01*
X161088586Y-119997111D01*
X160986262Y-119843972D01*
X160856028Y-119713738D01*
X160702889Y-119611414D01*
X160532729Y-119540932D01*
X160352089Y-119505000D01*
X160167911Y-119505000D01*
X159987271Y-119540932D01*
X159817111Y-119611414D01*
X159685849Y-119699120D01*
X159673972Y-118457911D01*
X159715000Y-118457911D01*
X159715000Y-118642089D01*
X159750932Y-118822729D01*
X159821414Y-118992889D01*
X159923738Y-119146028D01*
X160053972Y-119276262D01*
X160207111Y-119378586D01*
X160377271Y-119449068D01*
X160557911Y-119485000D01*
X160742089Y-119485000D01*
X160922729Y-119449068D01*
X161092889Y-119378586D01*
X161246028Y-119276262D01*
X161376262Y-119146028D01*
X161478586Y-118992889D01*
X161549068Y-118822729D01*
X161585000Y-118642089D01*
X161585000Y-118457911D01*
X161549068Y-118277271D01*
X161478586Y-118107111D01*
X161376262Y-117953972D01*
X161246028Y-117823738D01*
X161092889Y-117721414D01*
X160922729Y-117650932D01*
X160742089Y-117615000D01*
X160557911Y-117615000D01*
X160377271Y-117650932D01*
X160207111Y-117721414D01*
X160053972Y-117823738D01*
X159923738Y-117953972D01*
X159821414Y-118107111D01*
X159750932Y-118277271D01*
X159715000Y-118457911D01*
X159673972Y-118457911D01*
X159666994Y-117728785D01*
X159664317Y-117704033D01*
X159656862Y-117680279D01*
X159644917Y-117658435D01*
X159628939Y-117639342D01*
X159604440Y-117620563D01*
X147876271Y-110714721D01*
X165815000Y-110714721D01*
X165815000Y-111135279D01*
X165897047Y-111547756D01*
X166057988Y-111936302D01*
X166291637Y-112285983D01*
X166589017Y-112583363D01*
X166938698Y-112817012D01*
X167327244Y-112977953D01*
X167739721Y-113060000D01*
X168160279Y-113060000D01*
X168572756Y-112977953D01*
X168961302Y-112817012D01*
X169310983Y-112583363D01*
X169608363Y-112285983D01*
X169842012Y-111936302D01*
X170002953Y-111547756D01*
X170085000Y-111135279D01*
X170085000Y-110739721D01*
X171990000Y-110739721D01*
X171990000Y-111160279D01*
X172072047Y-111572756D01*
X172232988Y-111961302D01*
X172466637Y-112310983D01*
X172764017Y-112608363D01*
X173113698Y-112842012D01*
X173502244Y-113002953D01*
X173914721Y-113085000D01*
X174335279Y-113085000D01*
X174747756Y-113002953D01*
X175136302Y-112842012D01*
X175485983Y-112608363D01*
X175783363Y-112310983D01*
X176017012Y-111961302D01*
X176177953Y-111572756D01*
X176260000Y-111160279D01*
X176260000Y-110739721D01*
X176177953Y-110327244D01*
X176017012Y-109938698D01*
X175783363Y-109589017D01*
X175485983Y-109291637D01*
X175136302Y-109057988D01*
X174747756Y-108897047D01*
X174335279Y-108815000D01*
X173914721Y-108815000D01*
X173502244Y-108897047D01*
X173113698Y-109057988D01*
X172764017Y-109291637D01*
X172466637Y-109589017D01*
X172232988Y-109938698D01*
X172072047Y-110327244D01*
X171990000Y-110739721D01*
X170085000Y-110739721D01*
X170085000Y-110714721D01*
X170002953Y-110302244D01*
X169842012Y-109913698D01*
X169608363Y-109564017D01*
X169310983Y-109266637D01*
X168961302Y-109032988D01*
X168572756Y-108872047D01*
X168160279Y-108790000D01*
X167739721Y-108790000D01*
X167327244Y-108872047D01*
X166938698Y-109032988D01*
X166589017Y-109266637D01*
X166291637Y-109564017D01*
X166057988Y-109913698D01*
X165897047Y-110302244D01*
X165815000Y-110714721D01*
X147876271Y-110714721D01*
X139220629Y-105618061D01*
X147435000Y-105618061D01*
X147435000Y-105821939D01*
X147474774Y-106021898D01*
X147552795Y-106210256D01*
X147666063Y-106379774D01*
X147810226Y-106523937D01*
X147979744Y-106637205D01*
X148168102Y-106715226D01*
X148368061Y-106755000D01*
X148571939Y-106755000D01*
X148771898Y-106715226D01*
X148960256Y-106637205D01*
X149129774Y-106523937D01*
X149273937Y-106379774D01*
X149320000Y-106310836D01*
X149366063Y-106379774D01*
X149510226Y-106523937D01*
X149679744Y-106637205D01*
X149868102Y-106715226D01*
X150068061Y-106755000D01*
X150271939Y-106755000D01*
X150471898Y-106715226D01*
X150660256Y-106637205D01*
X150829774Y-106523937D01*
X150973937Y-106379774D01*
X151020000Y-106310836D01*
X151066063Y-106379774D01*
X151210226Y-106523937D01*
X151379744Y-106637205D01*
X151568102Y-106715226D01*
X151768061Y-106755000D01*
X151971939Y-106755000D01*
X152171898Y-106715226D01*
X152360256Y-106637205D01*
X152529774Y-106523937D01*
X152673937Y-106379774D01*
X152710000Y-106325802D01*
X152746063Y-106379774D01*
X152890226Y-106523937D01*
X153059744Y-106637205D01*
X153248102Y-106715226D01*
X153448061Y-106755000D01*
X153651939Y-106755000D01*
X153851898Y-106715226D01*
X154040256Y-106637205D01*
X154209774Y-106523937D01*
X154335000Y-106398711D01*
X154460226Y-106523937D01*
X154629744Y-106637205D01*
X154818102Y-106715226D01*
X155018061Y-106755000D01*
X155221939Y-106755000D01*
X155421898Y-106715226D01*
X155610256Y-106637205D01*
X155779774Y-106523937D01*
X155923937Y-106379774D01*
X156037205Y-106210256D01*
X156115226Y-106021898D01*
X156155000Y-105821939D01*
X156155000Y-105618061D01*
X156115226Y-105418102D01*
X156037205Y-105229744D01*
X155923937Y-105060226D01*
X155779774Y-104916063D01*
X155610256Y-104802795D01*
X155421898Y-104724774D01*
X155221939Y-104685000D01*
X155018061Y-104685000D01*
X154818102Y-104724774D01*
X154629744Y-104802795D01*
X154460226Y-104916063D01*
X154335000Y-105041289D01*
X154209774Y-104916063D01*
X154040256Y-104802795D01*
X153851898Y-104724774D01*
X153651939Y-104685000D01*
X153448061Y-104685000D01*
X153248102Y-104724774D01*
X153059744Y-104802795D01*
X152890226Y-104916063D01*
X152746063Y-105060226D01*
X152710000Y-105114198D01*
X152673937Y-105060226D01*
X152529774Y-104916063D01*
X152360256Y-104802795D01*
X152171898Y-104724774D01*
X151971939Y-104685000D01*
X151768061Y-104685000D01*
X151568102Y-104724774D01*
X151379744Y-104802795D01*
X151210226Y-104916063D01*
X151066063Y-105060226D01*
X151020000Y-105129164D01*
X150973937Y-105060226D01*
X150829774Y-104916063D01*
X150660256Y-104802795D01*
X150471898Y-104724774D01*
X150271939Y-104685000D01*
X150068061Y-104685000D01*
X149868102Y-104724774D01*
X149679744Y-104802795D01*
X149510226Y-104916063D01*
X149366063Y-105060226D01*
X149320000Y-105129164D01*
X149273937Y-105060226D01*
X149129774Y-104916063D01*
X148960256Y-104802795D01*
X148771898Y-104724774D01*
X148571939Y-104685000D01*
X148368061Y-104685000D01*
X148168102Y-104724774D01*
X147979744Y-104802795D01*
X147810226Y-104916063D01*
X147666063Y-105060226D01*
X147552795Y-105229744D01*
X147474774Y-105418102D01*
X147435000Y-105618061D01*
X139220629Y-105618061D01*
X138664440Y-105290563D01*
X138641851Y-105280094D01*
X138617654Y-105274233D01*
X138600000Y-105273000D01*
X130927000Y-105273000D01*
X130927000Y-102757911D01*
X141365000Y-102757911D01*
X141365000Y-102942089D01*
X141400932Y-103122729D01*
X141471414Y-103292889D01*
X141573738Y-103446028D01*
X141703972Y-103576262D01*
X141857111Y-103678586D01*
X142027271Y-103749068D01*
X142207911Y-103785000D01*
X142392089Y-103785000D01*
X142572729Y-103749068D01*
X142742889Y-103678586D01*
X142896028Y-103576262D01*
X142900000Y-103572290D01*
X142903972Y-103576262D01*
X143057111Y-103678586D01*
X143227271Y-103749068D01*
X143407911Y-103785000D01*
X143592089Y-103785000D01*
X143772729Y-103749068D01*
X143942889Y-103678586D01*
X144096028Y-103576262D01*
X144226262Y-103446028D01*
X144328586Y-103292889D01*
X144399068Y-103122729D01*
X144435000Y-102942089D01*
X144435000Y-102757911D01*
X144399068Y-102577271D01*
X144328586Y-102407111D01*
X144226262Y-102253972D01*
X144096028Y-102123738D01*
X143942889Y-102021414D01*
X143772729Y-101950932D01*
X143592089Y-101915000D01*
X143407911Y-101915000D01*
X143227271Y-101950932D01*
X143057111Y-102021414D01*
X142903972Y-102123738D01*
X142900000Y-102127710D01*
X142896028Y-102123738D01*
X142742889Y-102021414D01*
X142572729Y-101950932D01*
X142392089Y-101915000D01*
X142207911Y-101915000D01*
X142027271Y-101950932D01*
X141857111Y-102021414D01*
X141703972Y-102123738D01*
X141573738Y-102253972D01*
X141471414Y-102407111D01*
X141400932Y-102577271D01*
X141365000Y-102757911D01*
X130927000Y-102757911D01*
X130927000Y-99564721D01*
X165815000Y-99564721D01*
X165815000Y-99985279D01*
X165897047Y-100397756D01*
X166057988Y-100786302D01*
X166291637Y-101135983D01*
X166589017Y-101433363D01*
X166938698Y-101667012D01*
X167327244Y-101827953D01*
X167739721Y-101910000D01*
X168160279Y-101910000D01*
X168572756Y-101827953D01*
X168961302Y-101667012D01*
X169310983Y-101433363D01*
X169608363Y-101135983D01*
X169842012Y-100786302D01*
X170002953Y-100397756D01*
X170085000Y-99985279D01*
X170085000Y-99589721D01*
X172040000Y-99589721D01*
X172040000Y-100010279D01*
X172122047Y-100422756D01*
X172282988Y-100811302D01*
X172516637Y-101160983D01*
X172814017Y-101458363D01*
X173163698Y-101692012D01*
X173552244Y-101852953D01*
X173964721Y-101935000D01*
X174385279Y-101935000D01*
X174797756Y-101852953D01*
X175186302Y-101692012D01*
X175535983Y-101458363D01*
X175833363Y-101160983D01*
X176067012Y-100811302D01*
X176227953Y-100422756D01*
X176310000Y-100010279D01*
X176310000Y-99589721D01*
X176227953Y-99177244D01*
X176067012Y-98788698D01*
X175833363Y-98439017D01*
X175535983Y-98141637D01*
X175186302Y-97907988D01*
X174797756Y-97747047D01*
X174385279Y-97665000D01*
X173964721Y-97665000D01*
X173552244Y-97747047D01*
X173163698Y-97907988D01*
X172814017Y-98141637D01*
X172516637Y-98439017D01*
X172282988Y-98788698D01*
X172122047Y-99177244D01*
X172040000Y-99589721D01*
X170085000Y-99589721D01*
X170085000Y-99564721D01*
X170002953Y-99152244D01*
X169842012Y-98763698D01*
X169608363Y-98414017D01*
X169310983Y-98116637D01*
X168961302Y-97882988D01*
X168572756Y-97722047D01*
X168160279Y-97640000D01*
X167739721Y-97640000D01*
X167327244Y-97722047D01*
X166938698Y-97882988D01*
X166589017Y-98116637D01*
X166291637Y-98414017D01*
X166057988Y-98763698D01*
X165897047Y-99152244D01*
X165815000Y-99564721D01*
X130927000Y-99564721D01*
X130927000Y-98327000D01*
X145200000Y-98327000D01*
X145224776Y-98324560D01*
X145248601Y-98317333D01*
X145270557Y-98305597D01*
X145292165Y-98287377D01*
X149309346Y-94050076D01*
X149439744Y-94137205D01*
X149628102Y-94215226D01*
X149828061Y-94255000D01*
X150031939Y-94255000D01*
X150231898Y-94215226D01*
X150420256Y-94137205D01*
X150589774Y-94023937D01*
X150733937Y-93879774D01*
X150847205Y-93710256D01*
X150880000Y-93631082D01*
X150912795Y-93710256D01*
X151026063Y-93879774D01*
X151170226Y-94023937D01*
X151339744Y-94137205D01*
X151528102Y-94215226D01*
X151728061Y-94255000D01*
X151931939Y-94255000D01*
X152131898Y-94215226D01*
X152320256Y-94137205D01*
X152489774Y-94023937D01*
X152633937Y-93879774D01*
X152730000Y-93736005D01*
X152826063Y-93879774D01*
X152970226Y-94023937D01*
X153139744Y-94137205D01*
X153328102Y-94215226D01*
X153528061Y-94255000D01*
X153731939Y-94255000D01*
X153931898Y-94215226D01*
X154120256Y-94137205D01*
X154289774Y-94023937D01*
X154433937Y-93879774D01*
X154435000Y-93878183D01*
X154436063Y-93879774D01*
X154580226Y-94023937D01*
X154749744Y-94137205D01*
X154938102Y-94215226D01*
X155138061Y-94255000D01*
X155341939Y-94255000D01*
X155541898Y-94215226D01*
X155730256Y-94137205D01*
X155899774Y-94023937D01*
X156043937Y-93879774D01*
X156157205Y-93710256D01*
X156235226Y-93521898D01*
X156275000Y-93321939D01*
X156275000Y-93118061D01*
X156235226Y-92918102D01*
X156157205Y-92729744D01*
X156043937Y-92560226D01*
X155899774Y-92416063D01*
X155730256Y-92302795D01*
X155541898Y-92224774D01*
X155341939Y-92185000D01*
X155138061Y-92185000D01*
X154938102Y-92224774D01*
X154749744Y-92302795D01*
X154580226Y-92416063D01*
X154436063Y-92560226D01*
X154435000Y-92561817D01*
X154433937Y-92560226D01*
X154289774Y-92416063D01*
X154120256Y-92302795D01*
X153931898Y-92224774D01*
X153731939Y-92185000D01*
X153528061Y-92185000D01*
X153328102Y-92224774D01*
X153139744Y-92302795D01*
X152970226Y-92416063D01*
X152826063Y-92560226D01*
X152730000Y-92703995D01*
X152633937Y-92560226D01*
X152489774Y-92416063D01*
X152320256Y-92302795D01*
X152131898Y-92224774D01*
X151931939Y-92185000D01*
X151728061Y-92185000D01*
X151528102Y-92224774D01*
X151339744Y-92302795D01*
X151170226Y-92416063D01*
X151026063Y-92560226D01*
X150912795Y-92729744D01*
X150880000Y-92808918D01*
X150847205Y-92729744D01*
X150733937Y-92560226D01*
X150727707Y-92553996D01*
X154623513Y-88444721D01*
X165815000Y-88444721D01*
X165815000Y-88865279D01*
X165897047Y-89277756D01*
X166057988Y-89666302D01*
X166291637Y-90015983D01*
X166589017Y-90313363D01*
X166938698Y-90547012D01*
X167327244Y-90707953D01*
X167739721Y-90790000D01*
X168160279Y-90790000D01*
X168572756Y-90707953D01*
X168961302Y-90547012D01*
X169310983Y-90313363D01*
X169608363Y-90015983D01*
X169842012Y-89666302D01*
X170002953Y-89277756D01*
X170085000Y-88865279D01*
X170085000Y-88469721D01*
X172040000Y-88469721D01*
X172040000Y-88890279D01*
X172122047Y-89302756D01*
X172282988Y-89691302D01*
X172516637Y-90040983D01*
X172814017Y-90338363D01*
X173163698Y-90572012D01*
X173552244Y-90732953D01*
X173964721Y-90815000D01*
X174385279Y-90815000D01*
X174797756Y-90732953D01*
X175186302Y-90572012D01*
X175535983Y-90338363D01*
X175833363Y-90040983D01*
X176067012Y-89691302D01*
X176227953Y-89302756D01*
X176310000Y-88890279D01*
X176310000Y-88469721D01*
X176227953Y-88057244D01*
X176067012Y-87668698D01*
X175833363Y-87319017D01*
X175535983Y-87021637D01*
X175186302Y-86787988D01*
X174797756Y-86627047D01*
X174385279Y-86545000D01*
X173964721Y-86545000D01*
X173552244Y-86627047D01*
X173163698Y-86787988D01*
X172814017Y-87021637D01*
X172516637Y-87319017D01*
X172282988Y-87668698D01*
X172122047Y-88057244D01*
X172040000Y-88469721D01*
X170085000Y-88469721D01*
X170085000Y-88444721D01*
X170002953Y-88032244D01*
X169842012Y-87643698D01*
X169608363Y-87294017D01*
X169310983Y-86996637D01*
X168961302Y-86762988D01*
X168572756Y-86602047D01*
X168160279Y-86520000D01*
X167739721Y-86520000D01*
X167327244Y-86602047D01*
X166938698Y-86762988D01*
X166589017Y-86996637D01*
X166291637Y-87294017D01*
X166057988Y-87643698D01*
X165897047Y-88032244D01*
X165815000Y-88444721D01*
X154623513Y-88444721D01*
X156649320Y-86307911D01*
X161765000Y-86307911D01*
X161765000Y-86492089D01*
X161800932Y-86672729D01*
X161871414Y-86842889D01*
X161973738Y-86996028D01*
X162103972Y-87126262D01*
X162257111Y-87228586D01*
X162427271Y-87299068D01*
X162607911Y-87335000D01*
X162792089Y-87335000D01*
X162972729Y-87299068D01*
X163142889Y-87228586D01*
X163296028Y-87126262D01*
X163426262Y-86996028D01*
X163528586Y-86842889D01*
X163599068Y-86672729D01*
X163635000Y-86492089D01*
X163635000Y-86307911D01*
X163599068Y-86127271D01*
X163528586Y-85957111D01*
X163426262Y-85803972D01*
X163296028Y-85673738D01*
X163142889Y-85571414D01*
X162972729Y-85500932D01*
X162792089Y-85465000D01*
X162607911Y-85465000D01*
X162427271Y-85500932D01*
X162257111Y-85571414D01*
X162103972Y-85673738D01*
X161973738Y-85803972D01*
X161871414Y-85957111D01*
X161800932Y-86127271D01*
X161765000Y-86307911D01*
X156649320Y-86307911D01*
X159854600Y-82927000D01*
X170036883Y-82927000D01*
X172498769Y-86176690D01*
G04 #@! TO.N,+3V3*
G36*
X145573000Y-87346809D02*
G01*
X145552271Y-87350932D01*
X145382111Y-87421414D01*
X145228972Y-87523738D01*
X145098738Y-87653972D01*
X144996414Y-87807111D01*
X144925932Y-87977271D01*
X144890000Y-88157911D01*
X144890000Y-88342089D01*
X144925932Y-88522729D01*
X144946755Y-88573000D01*
X142279621Y-88573000D01*
X142378586Y-88424888D01*
X142449068Y-88254728D01*
X142485000Y-88074088D01*
X142485000Y-87889910D01*
X142449068Y-87709270D01*
X142378586Y-87539110D01*
X142276262Y-87385971D01*
X142146028Y-87255737D01*
X141992889Y-87153413D01*
X141822729Y-87082931D01*
X141642089Y-87046999D01*
X141457911Y-87046999D01*
X141277271Y-87082931D01*
X141107111Y-87153413D01*
X140953972Y-87255737D01*
X140823738Y-87385971D01*
X140721414Y-87539110D01*
X140650932Y-87709270D01*
X140615000Y-87889910D01*
X140615000Y-88074088D01*
X140650932Y-88254728D01*
X140721414Y-88424888D01*
X140820379Y-88573000D01*
X138927000Y-88573000D01*
X138927000Y-86850000D01*
X138924560Y-86825224D01*
X138917333Y-86801399D01*
X138905597Y-86779443D01*
X138889803Y-86760197D01*
X138870557Y-86744403D01*
X138848601Y-86732667D01*
X138824776Y-86725440D01*
X138800000Y-86723000D01*
X137357535Y-86723000D01*
X137399068Y-86622729D01*
X137435000Y-86442089D01*
X137435000Y-86257911D01*
X137399068Y-86077271D01*
X137328586Y-85907111D01*
X137226262Y-85753972D01*
X137096028Y-85623738D01*
X136942889Y-85521414D01*
X136772729Y-85450932D01*
X136592089Y-85415000D01*
X136407911Y-85415000D01*
X136227271Y-85450932D01*
X136057111Y-85521414D01*
X136037415Y-85534574D01*
X135942889Y-85471414D01*
X135772729Y-85400932D01*
X135592089Y-85365000D01*
X135407911Y-85365000D01*
X135227271Y-85400932D01*
X135057111Y-85471414D01*
X134903972Y-85573738D01*
X134773738Y-85703972D01*
X134675000Y-85851744D01*
X134576262Y-85703972D01*
X134446028Y-85573738D01*
X134292889Y-85471414D01*
X134122729Y-85400932D01*
X133942089Y-85365000D01*
X133757911Y-85365000D01*
X133577271Y-85400932D01*
X133407111Y-85471414D01*
X133253972Y-85573738D01*
X133123738Y-85703972D01*
X133021414Y-85857111D01*
X132950932Y-86027271D01*
X132915000Y-86207911D01*
X132915000Y-86392089D01*
X132950932Y-86572729D01*
X133013176Y-86723000D01*
X132873956Y-86723000D01*
X132874068Y-86722729D01*
X132910000Y-86542089D01*
X132910000Y-86357911D01*
X132874068Y-86177271D01*
X132803586Y-86007111D01*
X132701262Y-85853972D01*
X132571028Y-85723738D01*
X132417889Y-85621414D01*
X132247729Y-85550932D01*
X132067089Y-85515000D01*
X131882911Y-85515000D01*
X131702271Y-85550932D01*
X131532111Y-85621414D01*
X131378972Y-85723738D01*
X131248738Y-85853972D01*
X131146414Y-86007111D01*
X131075932Y-86177271D01*
X131040000Y-86357911D01*
X131040000Y-86542089D01*
X131075932Y-86722729D01*
X131124085Y-86838982D01*
X131123000Y-86850000D01*
X131123000Y-90521944D01*
X130977271Y-90550932D01*
X130807111Y-90621414D01*
X130653972Y-90723738D01*
X130523738Y-90853972D01*
X130421414Y-91007111D01*
X130350932Y-91177271D01*
X130315000Y-91357911D01*
X130315000Y-91542089D01*
X130350932Y-91722729D01*
X130421414Y-91892889D01*
X130523738Y-92046028D01*
X130653972Y-92176262D01*
X130807111Y-92278586D01*
X130977271Y-92349068D01*
X131123000Y-92378056D01*
X131123000Y-97223000D01*
X129550000Y-97223000D01*
X129525224Y-97225440D01*
X129501399Y-97232667D01*
X129479443Y-97244403D01*
X129460197Y-97260197D01*
X129444403Y-97279443D01*
X129432667Y-97301399D01*
X129425440Y-97325224D01*
X129423000Y-97350000D01*
X129423000Y-100950710D01*
X129296028Y-100823738D01*
X129142889Y-100721414D01*
X128972729Y-100650932D01*
X128792089Y-100615000D01*
X128607911Y-100615000D01*
X128427271Y-100650932D01*
X128257111Y-100721414D01*
X128103972Y-100823738D01*
X127973738Y-100953972D01*
X127871414Y-101107111D01*
X127800932Y-101277271D01*
X127778110Y-101392006D01*
X127707111Y-101421414D01*
X127553972Y-101523738D01*
X127423738Y-101653972D01*
X127321414Y-101807111D01*
X127250932Y-101977271D01*
X127215000Y-102157911D01*
X127215000Y-102342089D01*
X127250932Y-102522729D01*
X127321414Y-102692889D01*
X127423738Y-102846028D01*
X127553972Y-102976262D01*
X127707111Y-103078586D01*
X127799787Y-103116973D01*
X127800932Y-103122729D01*
X127871414Y-103292889D01*
X127973738Y-103446028D01*
X128103972Y-103576262D01*
X128257111Y-103678586D01*
X128427271Y-103749068D01*
X128607911Y-103785000D01*
X128792089Y-103785000D01*
X128972729Y-103749068D01*
X129142889Y-103678586D01*
X129296028Y-103576262D01*
X129423000Y-103449290D01*
X129423000Y-106350000D01*
X129425440Y-106374776D01*
X129432667Y-106398601D01*
X129444403Y-106420557D01*
X129460197Y-106439803D01*
X129479443Y-106455597D01*
X129501399Y-106467333D01*
X129525224Y-106474560D01*
X129550000Y-106477000D01*
X134775033Y-106477000D01*
X134681414Y-106617111D01*
X134610932Y-106787271D01*
X134575000Y-106967911D01*
X134575000Y-107152089D01*
X134610932Y-107332729D01*
X134681414Y-107502889D01*
X134783738Y-107656028D01*
X134913972Y-107786262D01*
X135067111Y-107888586D01*
X135237271Y-107959068D01*
X135417911Y-107995000D01*
X135602089Y-107995000D01*
X135782729Y-107959068D01*
X135906277Y-107907893D01*
X135997111Y-107968586D01*
X136167271Y-108039068D01*
X136205816Y-108046735D01*
X136220932Y-108122729D01*
X136291414Y-108292889D01*
X136393738Y-108446028D01*
X136451909Y-108504199D01*
X136400932Y-108627271D01*
X136365000Y-108807911D01*
X136365000Y-108992089D01*
X136400932Y-109172729D01*
X136471414Y-109342889D01*
X136573738Y-109496028D01*
X136703972Y-109626262D01*
X136857111Y-109728586D01*
X137027271Y-109799068D01*
X137207911Y-109835000D01*
X137392089Y-109835000D01*
X137572729Y-109799068D01*
X137742889Y-109728586D01*
X137896028Y-109626262D01*
X138026262Y-109496028D01*
X138128586Y-109342889D01*
X138199068Y-109172729D01*
X138235000Y-108992089D01*
X138235000Y-108807911D01*
X138199068Y-108627271D01*
X138128586Y-108457111D01*
X138026262Y-108303972D01*
X137968091Y-108245801D01*
X138019068Y-108122729D01*
X138055000Y-107942089D01*
X138055000Y-107757911D01*
X138019068Y-107577271D01*
X137948586Y-107407111D01*
X137938165Y-107391516D01*
X137946028Y-107386262D01*
X138076262Y-107256028D01*
X138178586Y-107102889D01*
X138249068Y-106932729D01*
X138285000Y-106752089D01*
X138285000Y-106639107D01*
X145423000Y-110921907D01*
X145423000Y-118350000D01*
X145425440Y-118374776D01*
X145432667Y-118398601D01*
X145444403Y-118420557D01*
X145460197Y-118439803D01*
X145479443Y-118455597D01*
X145501399Y-118467333D01*
X145525224Y-118474560D01*
X145549708Y-118477000D01*
X157601176Y-118504726D01*
X157595172Y-118508738D01*
X157464938Y-118638972D01*
X157362614Y-118792111D01*
X157292132Y-118962271D01*
X157256200Y-119142911D01*
X157256200Y-119327089D01*
X157292132Y-119507729D01*
X157362614Y-119677889D01*
X157464938Y-119831028D01*
X157595172Y-119961262D01*
X157748311Y-120063586D01*
X157918471Y-120134068D01*
X158099111Y-120170000D01*
X158283289Y-120170000D01*
X158463929Y-120134068D01*
X158567700Y-120091085D01*
X158791484Y-123740000D01*
X150031492Y-123740000D01*
X150045000Y-123672089D01*
X150045000Y-123487911D01*
X150009068Y-123307271D01*
X149988577Y-123257801D01*
X150018586Y-123212889D01*
X150089068Y-123042729D01*
X150125000Y-122862089D01*
X150125000Y-122677911D01*
X150089068Y-122497271D01*
X150071151Y-122454016D01*
X150078586Y-122442889D01*
X150149068Y-122272729D01*
X150185000Y-122092089D01*
X150185000Y-121907911D01*
X150149068Y-121727271D01*
X150078586Y-121557111D01*
X149976262Y-121403972D01*
X149846028Y-121273738D01*
X149692889Y-121171414D01*
X149522729Y-121100932D01*
X149342089Y-121065000D01*
X149157911Y-121065000D01*
X148977271Y-121100932D01*
X148807111Y-121171414D01*
X148653972Y-121273738D01*
X148523738Y-121403972D01*
X148421414Y-121557111D01*
X148350932Y-121727271D01*
X148315000Y-121907911D01*
X148315000Y-122092089D01*
X148350932Y-122272729D01*
X148368849Y-122315984D01*
X148361414Y-122327111D01*
X148290932Y-122497271D01*
X148255000Y-122677911D01*
X148255000Y-122862089D01*
X148290932Y-123042729D01*
X148311423Y-123092199D01*
X148281414Y-123137111D01*
X148210932Y-123307271D01*
X148175000Y-123487911D01*
X148175000Y-123672089D01*
X148188508Y-123740000D01*
X147229783Y-123740000D01*
X147299068Y-123572729D01*
X147335000Y-123392089D01*
X147335000Y-123207911D01*
X147299068Y-123027271D01*
X147228586Y-122857111D01*
X147126262Y-122703972D01*
X147072290Y-122650000D01*
X147126262Y-122596028D01*
X147228586Y-122442889D01*
X147299068Y-122272729D01*
X147335000Y-122092089D01*
X147335000Y-121907911D01*
X147299068Y-121727271D01*
X147228586Y-121557111D01*
X147126262Y-121403972D01*
X146996028Y-121273738D01*
X146842889Y-121171414D01*
X146672729Y-121100932D01*
X146492089Y-121065000D01*
X146307911Y-121065000D01*
X146127271Y-121100932D01*
X145957111Y-121171414D01*
X145803972Y-121273738D01*
X145673738Y-121403972D01*
X145571414Y-121557111D01*
X145500932Y-121727271D01*
X145465000Y-121907911D01*
X145465000Y-121966369D01*
X145453972Y-121973738D01*
X145323738Y-122103972D01*
X145221414Y-122257111D01*
X145150932Y-122427271D01*
X145115000Y-122607911D01*
X145115000Y-122792089D01*
X145150932Y-122972729D01*
X145221414Y-123142889D01*
X145323738Y-123296028D01*
X145453972Y-123426262D01*
X145474530Y-123439998D01*
X145500932Y-123572729D01*
X145570217Y-123740000D01*
X128831866Y-123740001D01*
X128873577Y-123602499D01*
X128890000Y-123435751D01*
X128890000Y-122424248D01*
X128873577Y-122257501D01*
X128808676Y-122043553D01*
X128703284Y-121846377D01*
X128561449Y-121673551D01*
X128388623Y-121531716D01*
X128191446Y-121426324D01*
X127977498Y-121361423D01*
X127755000Y-121339509D01*
X127532501Y-121361423D01*
X127369324Y-121410923D01*
X127496028Y-121326262D01*
X127626262Y-121196028D01*
X127728586Y-121042889D01*
X127799068Y-120872729D01*
X127835000Y-120692089D01*
X127835000Y-120664336D01*
X132065000Y-120664336D01*
X132065000Y-121335665D01*
X132082870Y-121517102D01*
X132153489Y-121749901D01*
X132268168Y-121964449D01*
X132422499Y-122152502D01*
X132610552Y-122306833D01*
X132825100Y-122421511D01*
X133057899Y-122492130D01*
X133300000Y-122515975D01*
X133542102Y-122492130D01*
X133774901Y-122421511D01*
X133989449Y-122306833D01*
X134177502Y-122152502D01*
X134300001Y-122003237D01*
X134422499Y-122152502D01*
X134610552Y-122306833D01*
X134825100Y-122421511D01*
X135057899Y-122492130D01*
X135300000Y-122515975D01*
X135542102Y-122492130D01*
X135774901Y-122421511D01*
X135989449Y-122306833D01*
X136177502Y-122152502D01*
X136300001Y-122003237D01*
X136422499Y-122152502D01*
X136610552Y-122306833D01*
X136825100Y-122421511D01*
X137057899Y-122492130D01*
X137300000Y-122515975D01*
X137542102Y-122492130D01*
X137774901Y-122421511D01*
X137989449Y-122306833D01*
X138177502Y-122152502D01*
X138300001Y-122003237D01*
X138422499Y-122152502D01*
X138610552Y-122306833D01*
X138825100Y-122421511D01*
X139057899Y-122492130D01*
X139300000Y-122515975D01*
X139542102Y-122492130D01*
X139774901Y-122421511D01*
X139989449Y-122306833D01*
X140177502Y-122152502D01*
X140300001Y-122003237D01*
X140422499Y-122152502D01*
X140610552Y-122306833D01*
X140825100Y-122421511D01*
X141057899Y-122492130D01*
X141300000Y-122515975D01*
X141542102Y-122492130D01*
X141774901Y-122421511D01*
X141989449Y-122306833D01*
X142177502Y-122152502D01*
X142331833Y-121964449D01*
X142446511Y-121749900D01*
X142517130Y-121517101D01*
X142535000Y-121335664D01*
X142535000Y-120664335D01*
X142517130Y-120482898D01*
X142446511Y-120250099D01*
X142331833Y-120035551D01*
X142177502Y-119847498D01*
X141989448Y-119693167D01*
X141774900Y-119578489D01*
X141542101Y-119507870D01*
X141300000Y-119484025D01*
X141057898Y-119507870D01*
X140825099Y-119578489D01*
X140610551Y-119693167D01*
X140422498Y-119847498D01*
X140300000Y-119996763D01*
X140177502Y-119847498D01*
X139989448Y-119693167D01*
X139774900Y-119578489D01*
X139542101Y-119507870D01*
X139300000Y-119484025D01*
X139057898Y-119507870D01*
X138825099Y-119578489D01*
X138610551Y-119693167D01*
X138422498Y-119847498D01*
X138300000Y-119996763D01*
X138177502Y-119847498D01*
X137989448Y-119693167D01*
X137774900Y-119578489D01*
X137542101Y-119507870D01*
X137300000Y-119484025D01*
X137057898Y-119507870D01*
X136825099Y-119578489D01*
X136610551Y-119693167D01*
X136422498Y-119847498D01*
X136300000Y-119996763D01*
X136177502Y-119847498D01*
X135989448Y-119693167D01*
X135774900Y-119578489D01*
X135542101Y-119507870D01*
X135300000Y-119484025D01*
X135057898Y-119507870D01*
X134825099Y-119578489D01*
X134610551Y-119693167D01*
X134422498Y-119847498D01*
X134300000Y-119996763D01*
X134177502Y-119847498D01*
X133989448Y-119693167D01*
X133774900Y-119578489D01*
X133542101Y-119507870D01*
X133300000Y-119484025D01*
X133057898Y-119507870D01*
X132825099Y-119578489D01*
X132610551Y-119693167D01*
X132422498Y-119847498D01*
X132268167Y-120035552D01*
X132153489Y-120250100D01*
X132082870Y-120482899D01*
X132065000Y-120664336D01*
X127835000Y-120664336D01*
X127835000Y-120507911D01*
X127799068Y-120327271D01*
X127728586Y-120157111D01*
X127626262Y-120003972D01*
X127496028Y-119873738D01*
X127342889Y-119771414D01*
X127172729Y-119700932D01*
X126992089Y-119665000D01*
X126954361Y-119665000D01*
X126948215Y-119602600D01*
X126881885Y-119383940D01*
X126774171Y-119182421D01*
X126629212Y-119005788D01*
X126452578Y-118860829D01*
X126251059Y-118753115D01*
X126032399Y-118686785D01*
X125805000Y-118664388D01*
X125577600Y-118686785D01*
X125358940Y-118753115D01*
X125157421Y-118860829D01*
X124980788Y-119005788D01*
X124835829Y-119182422D01*
X124728115Y-119383941D01*
X124661785Y-119602601D01*
X124645000Y-119773022D01*
X124645000Y-120086979D01*
X124661785Y-120257400D01*
X124728115Y-120476060D01*
X124835829Y-120677579D01*
X124980789Y-120854212D01*
X125157422Y-120999171D01*
X125358941Y-121106885D01*
X125577601Y-121173215D01*
X125805000Y-121195612D01*
X126032400Y-121173215D01*
X126137244Y-121141411D01*
X126173738Y-121196028D01*
X126303972Y-121326262D01*
X126457111Y-121428586D01*
X126627271Y-121499068D01*
X126807911Y-121535000D01*
X126992089Y-121535000D01*
X127172729Y-121499068D01*
X127215955Y-121481163D01*
X127121377Y-121531716D01*
X126948551Y-121673551D01*
X126806716Y-121846377D01*
X126701324Y-122043554D01*
X126636423Y-122257502D01*
X126620000Y-122424249D01*
X126620000Y-123435752D01*
X126636423Y-123602499D01*
X126678134Y-123740001D01*
X120481866Y-123740001D01*
X120523577Y-123602499D01*
X120540000Y-123435751D01*
X120540000Y-122424248D01*
X120523577Y-122257501D01*
X120458676Y-122043553D01*
X120353284Y-121846377D01*
X120211449Y-121673551D01*
X120038623Y-121531716D01*
X119841446Y-121426324D01*
X119627498Y-121361423D01*
X119405000Y-121339509D01*
X119182501Y-121361423D01*
X118968553Y-121426324D01*
X118771377Y-121531716D01*
X118705000Y-121586190D01*
X118705000Y-121116003D01*
X118590288Y-120539308D01*
X118365273Y-119996072D01*
X118216236Y-119773022D01*
X120195000Y-119773022D01*
X120195000Y-120086979D01*
X120211785Y-120257400D01*
X120278115Y-120476060D01*
X120385829Y-120677579D01*
X120530789Y-120854212D01*
X120707422Y-120999171D01*
X120908941Y-121106885D01*
X121127601Y-121173215D01*
X121355000Y-121195612D01*
X121582400Y-121173215D01*
X121801060Y-121106885D01*
X122002579Y-120999171D01*
X122179212Y-120854212D01*
X122324171Y-120677578D01*
X122431885Y-120476059D01*
X122498215Y-120257399D01*
X122515000Y-120086978D01*
X122515000Y-119773021D01*
X122513411Y-119756889D01*
X122552729Y-119749068D01*
X122722889Y-119678586D01*
X122876028Y-119576262D01*
X123006262Y-119446028D01*
X123108586Y-119292889D01*
X123179068Y-119122729D01*
X123215000Y-118942089D01*
X123215000Y-118757911D01*
X123179068Y-118577271D01*
X123108586Y-118407111D01*
X123006262Y-118253972D01*
X122876028Y-118123738D01*
X122722889Y-118021414D01*
X122552729Y-117950932D01*
X122372089Y-117915000D01*
X122187911Y-117915000D01*
X122007271Y-117950932D01*
X121837111Y-118021414D01*
X121683972Y-118123738D01*
X121553738Y-118253972D01*
X121451414Y-118407111D01*
X121380932Y-118577271D01*
X121363438Y-118665219D01*
X121355000Y-118664388D01*
X121127600Y-118686785D01*
X120908940Y-118753115D01*
X120707421Y-118860829D01*
X120530788Y-119005788D01*
X120385829Y-119182422D01*
X120278115Y-119383941D01*
X120211785Y-119602601D01*
X120195000Y-119773022D01*
X118216236Y-119773022D01*
X118038601Y-119507174D01*
X117622826Y-119091399D01*
X117133928Y-118764727D01*
X116590692Y-118539712D01*
X116013997Y-118425000D01*
X115426003Y-118425000D01*
X114849308Y-118539712D01*
X114306072Y-118764727D01*
X113817174Y-119091399D01*
X113401399Y-119507174D01*
X113380000Y-119539200D01*
X113380000Y-117311306D01*
X122761605Y-117311306D01*
X122761605Y-117495484D01*
X122797537Y-117676124D01*
X122868019Y-117846284D01*
X122970343Y-117999423D01*
X123100577Y-118129657D01*
X123253716Y-118231981D01*
X123423876Y-118302463D01*
X123604516Y-118338395D01*
X123788694Y-118338395D01*
X123969334Y-118302463D01*
X124139494Y-118231981D01*
X124292633Y-118129657D01*
X124422867Y-117999423D01*
X124454372Y-117952271D01*
X137858968Y-117952271D01*
X137858968Y-118136449D01*
X137894900Y-118317089D01*
X137965382Y-118487249D01*
X138067706Y-118640388D01*
X138197940Y-118770622D01*
X138351079Y-118872946D01*
X138521239Y-118943428D01*
X138701879Y-118979360D01*
X138886057Y-118979360D01*
X139066697Y-118943428D01*
X139071928Y-118941261D01*
X139142685Y-118988540D01*
X139312845Y-119059022D01*
X139493485Y-119094954D01*
X139677663Y-119094954D01*
X139858303Y-119059022D01*
X140028463Y-118988540D01*
X140181602Y-118886216D01*
X140311836Y-118755982D01*
X140414160Y-118602843D01*
X140484642Y-118432683D01*
X140520574Y-118252043D01*
X140520574Y-118067865D01*
X140484642Y-117887225D01*
X140414160Y-117717065D01*
X140311836Y-117563926D01*
X140181602Y-117433692D01*
X140172951Y-117427911D01*
X140625000Y-117427911D01*
X140625000Y-117612089D01*
X140660932Y-117792729D01*
X140731414Y-117962889D01*
X140833738Y-118116028D01*
X140963972Y-118246262D01*
X141117111Y-118348586D01*
X141287271Y-118419068D01*
X141467911Y-118455000D01*
X141543616Y-118455000D01*
X141611424Y-118618705D01*
X141713748Y-118771844D01*
X141843982Y-118902078D01*
X141997121Y-119004402D01*
X142167281Y-119074884D01*
X142347921Y-119110816D01*
X142532099Y-119110816D01*
X142712739Y-119074884D01*
X142882899Y-119004402D01*
X143036038Y-118902078D01*
X143166272Y-118771844D01*
X143268596Y-118618705D01*
X143339078Y-118448545D01*
X143375010Y-118267905D01*
X143375010Y-118083727D01*
X143339078Y-117903087D01*
X143268596Y-117732927D01*
X143166272Y-117579788D01*
X143036038Y-117449554D01*
X142882899Y-117347230D01*
X142712739Y-117276748D01*
X142532099Y-117240816D01*
X142456394Y-117240816D01*
X142388586Y-117077111D01*
X142286262Y-116923972D01*
X142156028Y-116793738D01*
X142002889Y-116691414D01*
X141832729Y-116620932D01*
X141652089Y-116585000D01*
X141467911Y-116585000D01*
X141287271Y-116620932D01*
X141117111Y-116691414D01*
X140963972Y-116793738D01*
X140833738Y-116923972D01*
X140731414Y-117077111D01*
X140660932Y-117247271D01*
X140625000Y-117427911D01*
X140172951Y-117427911D01*
X140028463Y-117331368D01*
X139858303Y-117260886D01*
X139677663Y-117224954D01*
X139493485Y-117224954D01*
X139312845Y-117260886D01*
X139307614Y-117263053D01*
X139236857Y-117215774D01*
X139066697Y-117145292D01*
X138886057Y-117109360D01*
X138701879Y-117109360D01*
X138521239Y-117145292D01*
X138351079Y-117215774D01*
X138197940Y-117318098D01*
X138067706Y-117448332D01*
X137965382Y-117601471D01*
X137894900Y-117771631D01*
X137858968Y-117952271D01*
X124454372Y-117952271D01*
X124525191Y-117846284D01*
X124595673Y-117676124D01*
X124631605Y-117495484D01*
X124631605Y-117311306D01*
X124595673Y-117130666D01*
X124525191Y-116960506D01*
X124422867Y-116807367D01*
X124292633Y-116677133D01*
X124139494Y-116574809D01*
X124050414Y-116537911D01*
X130685000Y-116537911D01*
X130685000Y-116722089D01*
X130720932Y-116902729D01*
X130791414Y-117072889D01*
X130893738Y-117226028D01*
X131023972Y-117356262D01*
X131177111Y-117458586D01*
X131347271Y-117529068D01*
X131527911Y-117565000D01*
X131712089Y-117565000D01*
X131892729Y-117529068D01*
X132062889Y-117458586D01*
X132216028Y-117356262D01*
X132346262Y-117226028D01*
X132448586Y-117072889D01*
X132519068Y-116902729D01*
X132555000Y-116722089D01*
X132555000Y-116537911D01*
X132519068Y-116357271D01*
X132448586Y-116187111D01*
X132346262Y-116033972D01*
X132216028Y-115903738D01*
X132062889Y-115801414D01*
X132054432Y-115797911D01*
X133925000Y-115797911D01*
X133925000Y-115982089D01*
X133960932Y-116162729D01*
X134031414Y-116332889D01*
X134133738Y-116486028D01*
X134263972Y-116616262D01*
X134417111Y-116718586D01*
X134587271Y-116789068D01*
X134767911Y-116825000D01*
X134952089Y-116825000D01*
X135132729Y-116789068D01*
X135302889Y-116718586D01*
X135456028Y-116616262D01*
X135586262Y-116486028D01*
X135688586Y-116332889D01*
X135759068Y-116162729D01*
X135795000Y-115982089D01*
X135795000Y-115797911D01*
X135759068Y-115617271D01*
X135688586Y-115447111D01*
X135586262Y-115293972D01*
X135456028Y-115163738D01*
X135302889Y-115061414D01*
X135132729Y-114990932D01*
X134952089Y-114955000D01*
X134767911Y-114955000D01*
X134587271Y-114990932D01*
X134417111Y-115061414D01*
X134263972Y-115163738D01*
X134133738Y-115293972D01*
X134031414Y-115447111D01*
X133960932Y-115617271D01*
X133925000Y-115797911D01*
X132054432Y-115797911D01*
X131892729Y-115730932D01*
X131712089Y-115695000D01*
X131527911Y-115695000D01*
X131347271Y-115730932D01*
X131177111Y-115801414D01*
X131023972Y-115903738D01*
X130893738Y-116033972D01*
X130791414Y-116187111D01*
X130720932Y-116357271D01*
X130685000Y-116537911D01*
X124050414Y-116537911D01*
X123969334Y-116504327D01*
X123788694Y-116468395D01*
X123604516Y-116468395D01*
X123423876Y-116504327D01*
X123253716Y-116574809D01*
X123100577Y-116677133D01*
X122970343Y-116807367D01*
X122868019Y-116960506D01*
X122797537Y-117130666D01*
X122761605Y-117311306D01*
X113380000Y-117311306D01*
X113380000Y-110940000D01*
X113554025Y-110940000D01*
X113577870Y-111182102D01*
X113648489Y-111414901D01*
X113763167Y-111629449D01*
X113917498Y-111817502D01*
X114066762Y-111940000D01*
X113917498Y-112062498D01*
X113763167Y-112250551D01*
X113648489Y-112465099D01*
X113577870Y-112697898D01*
X113554025Y-112940000D01*
X113577870Y-113182102D01*
X113648489Y-113414901D01*
X113763167Y-113629449D01*
X113917498Y-113817502D01*
X113956111Y-113849191D01*
X113951613Y-113851595D01*
X113817038Y-113962038D01*
X113706595Y-114096613D01*
X113624528Y-114250149D01*
X113573992Y-114416745D01*
X113556928Y-114589999D01*
X113556928Y-115290001D01*
X113573992Y-115463255D01*
X113624528Y-115629851D01*
X113706595Y-115783387D01*
X113817038Y-115917962D01*
X113951613Y-116028405D01*
X114105149Y-116110472D01*
X114271745Y-116161008D01*
X114444999Y-116178072D01*
X115695001Y-116178072D01*
X115868255Y-116161008D01*
X116034851Y-116110472D01*
X116188387Y-116028405D01*
X116322962Y-115917962D01*
X116433405Y-115783387D01*
X116515472Y-115629851D01*
X116566008Y-115463255D01*
X116583072Y-115290001D01*
X116583072Y-114589999D01*
X116566008Y-114416745D01*
X116515472Y-114250149D01*
X116433405Y-114096613D01*
X116322962Y-113962038D01*
X116188387Y-113851595D01*
X116183889Y-113849191D01*
X116222502Y-113817502D01*
X116376833Y-113629449D01*
X116491511Y-113414901D01*
X116562130Y-113182102D01*
X116585975Y-112940000D01*
X116562130Y-112697898D01*
X116491511Y-112465099D01*
X116376833Y-112250551D01*
X116222502Y-112062498D01*
X116073238Y-111940000D01*
X116222502Y-111817502D01*
X116376833Y-111629449D01*
X116491511Y-111414901D01*
X116562130Y-111182102D01*
X116584990Y-110950000D01*
X119514025Y-110950000D01*
X119537870Y-111192102D01*
X119608489Y-111424901D01*
X119723167Y-111639449D01*
X119877498Y-111827502D01*
X120026762Y-111950000D01*
X119877498Y-112072498D01*
X119723167Y-112260551D01*
X119608489Y-112475099D01*
X119537870Y-112707898D01*
X119514025Y-112950000D01*
X119537870Y-113192102D01*
X119608489Y-113424901D01*
X119723167Y-113639449D01*
X119877498Y-113827502D01*
X119916111Y-113859191D01*
X119911613Y-113861595D01*
X119777038Y-113972038D01*
X119666595Y-114106613D01*
X119584528Y-114260149D01*
X119533992Y-114426745D01*
X119516928Y-114599999D01*
X119516928Y-115300001D01*
X119533992Y-115473255D01*
X119584528Y-115639851D01*
X119666595Y-115793387D01*
X119777038Y-115927962D01*
X119911613Y-116038405D01*
X120065149Y-116120472D01*
X120231745Y-116171008D01*
X120404999Y-116188072D01*
X121655001Y-116188072D01*
X121828255Y-116171008D01*
X121994851Y-116120472D01*
X122148387Y-116038405D01*
X122282962Y-115927962D01*
X122393405Y-115793387D01*
X122475472Y-115639851D01*
X122526008Y-115473255D01*
X122543072Y-115300001D01*
X122543072Y-114599999D01*
X122526008Y-114426745D01*
X122475472Y-114260149D01*
X122393405Y-114106613D01*
X122282962Y-113972038D01*
X122277934Y-113967911D01*
X125565000Y-113967911D01*
X125565000Y-114152089D01*
X125600932Y-114332729D01*
X125671414Y-114502889D01*
X125773738Y-114656028D01*
X125903972Y-114786262D01*
X126057111Y-114888586D01*
X126227271Y-114959068D01*
X126407911Y-114995000D01*
X126592089Y-114995000D01*
X126772729Y-114959068D01*
X126942889Y-114888586D01*
X127096028Y-114786262D01*
X127226262Y-114656028D01*
X127328586Y-114502889D01*
X127399068Y-114332729D01*
X127435000Y-114152089D01*
X127435000Y-113967911D01*
X127399068Y-113787271D01*
X127328586Y-113617111D01*
X127287085Y-113555000D01*
X127312089Y-113555000D01*
X127492729Y-113519068D01*
X127662889Y-113448586D01*
X127816028Y-113346262D01*
X127946262Y-113216028D01*
X128048586Y-113062889D01*
X128119068Y-112892729D01*
X128149935Y-112737549D01*
X131760362Y-112737549D01*
X131760362Y-112921727D01*
X131796294Y-113102367D01*
X131866776Y-113272527D01*
X131969100Y-113425666D01*
X132099334Y-113555900D01*
X132252473Y-113658224D01*
X132422633Y-113728706D01*
X132603273Y-113764638D01*
X132787451Y-113764638D01*
X132968091Y-113728706D01*
X133138251Y-113658224D01*
X133291390Y-113555900D01*
X133421624Y-113425666D01*
X133523948Y-113272527D01*
X133594430Y-113102367D01*
X133630362Y-112921727D01*
X133630362Y-112737549D01*
X133594430Y-112556909D01*
X133523948Y-112386749D01*
X133421624Y-112233610D01*
X133291390Y-112103376D01*
X133138251Y-112001052D01*
X132968091Y-111930570D01*
X132787451Y-111894638D01*
X132603273Y-111894638D01*
X132422633Y-111930570D01*
X132252473Y-112001052D01*
X132099334Y-112103376D01*
X131969100Y-112233610D01*
X131866776Y-112386749D01*
X131796294Y-112556909D01*
X131760362Y-112737549D01*
X128149935Y-112737549D01*
X128155000Y-112712089D01*
X128155000Y-112527911D01*
X128119068Y-112347271D01*
X128048586Y-112177111D01*
X127946262Y-112023972D01*
X127816028Y-111893738D01*
X127662889Y-111791414D01*
X127492729Y-111720932D01*
X127427269Y-111707911D01*
X129065000Y-111707911D01*
X129065000Y-111892089D01*
X129100932Y-112072729D01*
X129171414Y-112242889D01*
X129273738Y-112396028D01*
X129403972Y-112526262D01*
X129557111Y-112628586D01*
X129727271Y-112699068D01*
X129907911Y-112735000D01*
X130092089Y-112735000D01*
X130272729Y-112699068D01*
X130442889Y-112628586D01*
X130596028Y-112526262D01*
X130726262Y-112396028D01*
X130828586Y-112242889D01*
X130899068Y-112072729D01*
X130935000Y-111892089D01*
X130935000Y-111707911D01*
X130899068Y-111527271D01*
X130828586Y-111357111D01*
X130726262Y-111203972D01*
X130610201Y-111087911D01*
X134115000Y-111087911D01*
X134115000Y-111272089D01*
X134150932Y-111452729D01*
X134221414Y-111622889D01*
X134323738Y-111776028D01*
X134453972Y-111906262D01*
X134607111Y-112008586D01*
X134777271Y-112079068D01*
X134957911Y-112115000D01*
X135015000Y-112115000D01*
X135015000Y-112157089D01*
X135050932Y-112337729D01*
X135121414Y-112507889D01*
X135223738Y-112661028D01*
X135327710Y-112765000D01*
X135223738Y-112868972D01*
X135121414Y-113022111D01*
X135050932Y-113192271D01*
X135015000Y-113372911D01*
X135015000Y-113557089D01*
X135050932Y-113737729D01*
X135121414Y-113907889D01*
X135223738Y-114061028D01*
X135353972Y-114191262D01*
X135507111Y-114293586D01*
X135677271Y-114364068D01*
X135857911Y-114400000D01*
X136042089Y-114400000D01*
X136222729Y-114364068D01*
X136392889Y-114293586D01*
X136546028Y-114191262D01*
X136650000Y-114087290D01*
X136727710Y-114165000D01*
X136623738Y-114268972D01*
X136521414Y-114422111D01*
X136450932Y-114592271D01*
X136415000Y-114772911D01*
X136415000Y-114957089D01*
X136450932Y-115137729D01*
X136521414Y-115307889D01*
X136623738Y-115461028D01*
X136753972Y-115591262D01*
X136907111Y-115693586D01*
X137077271Y-115764068D01*
X137257911Y-115800000D01*
X137442089Y-115800000D01*
X137622729Y-115764068D01*
X137792889Y-115693586D01*
X137946028Y-115591262D01*
X138050000Y-115487290D01*
X138153972Y-115591262D01*
X138307111Y-115693586D01*
X138477271Y-115764068D01*
X138645000Y-115797432D01*
X138645000Y-115852089D01*
X138680932Y-116032729D01*
X138751414Y-116202889D01*
X138853738Y-116356028D01*
X138983972Y-116486262D01*
X139137111Y-116588586D01*
X139307271Y-116659068D01*
X139487911Y-116695000D01*
X139672089Y-116695000D01*
X139852729Y-116659068D01*
X140022889Y-116588586D01*
X140176028Y-116486262D01*
X140306262Y-116356028D01*
X140408586Y-116202889D01*
X140479068Y-116032729D01*
X140515000Y-115852089D01*
X140515000Y-115667911D01*
X140479068Y-115487271D01*
X140408586Y-115317111D01*
X140306262Y-115163972D01*
X140176028Y-115033738D01*
X140022889Y-114931414D01*
X139852729Y-114860932D01*
X139685000Y-114827568D01*
X139685000Y-114772911D01*
X139649068Y-114592271D01*
X139578586Y-114422111D01*
X139476262Y-114268972D01*
X139372290Y-114165000D01*
X139476262Y-114061028D01*
X139578586Y-113907889D01*
X139649068Y-113737729D01*
X139685000Y-113557089D01*
X139685000Y-113492912D01*
X141015000Y-113492912D01*
X141015000Y-113677090D01*
X141050932Y-113857730D01*
X141121414Y-114027890D01*
X141223738Y-114181029D01*
X141353972Y-114311263D01*
X141507111Y-114413587D01*
X141677271Y-114484069D01*
X141857911Y-114520001D01*
X142042089Y-114520001D01*
X142222729Y-114484069D01*
X142392889Y-114413587D01*
X142546028Y-114311263D01*
X142595053Y-114262238D01*
X142810673Y-114262238D01*
X142810673Y-114446416D01*
X142846605Y-114627056D01*
X142917087Y-114797216D01*
X143019411Y-114950355D01*
X143149645Y-115080589D01*
X143302784Y-115182913D01*
X143472944Y-115253395D01*
X143653584Y-115289327D01*
X143837762Y-115289327D01*
X144018402Y-115253395D01*
X144188562Y-115182913D01*
X144341701Y-115080589D01*
X144471935Y-114950355D01*
X144574259Y-114797216D01*
X144644741Y-114627056D01*
X144680673Y-114446416D01*
X144680673Y-114262238D01*
X144644741Y-114081598D01*
X144574259Y-113911438D01*
X144471935Y-113758299D01*
X144341701Y-113628065D01*
X144188562Y-113525741D01*
X144018402Y-113455259D01*
X143837762Y-113419327D01*
X143653584Y-113419327D01*
X143472944Y-113455259D01*
X143302784Y-113525741D01*
X143149645Y-113628065D01*
X143019411Y-113758299D01*
X142917087Y-113911438D01*
X142846605Y-114081598D01*
X142810673Y-114262238D01*
X142595053Y-114262238D01*
X142676262Y-114181029D01*
X142778586Y-114027890D01*
X142849068Y-113857730D01*
X142885000Y-113677090D01*
X142885000Y-113492912D01*
X142849068Y-113312272D01*
X142778586Y-113142112D01*
X142676262Y-112988973D01*
X142546028Y-112858739D01*
X142392889Y-112756415D01*
X142222729Y-112685933D01*
X142042089Y-112650001D01*
X141857911Y-112650001D01*
X141677271Y-112685933D01*
X141507111Y-112756415D01*
X141353972Y-112858739D01*
X141223738Y-112988973D01*
X141121414Y-113142112D01*
X141050932Y-113312272D01*
X141015000Y-113492912D01*
X139685000Y-113492912D01*
X139685000Y-113372911D01*
X139649068Y-113192271D01*
X139578586Y-113022111D01*
X139476262Y-112868972D01*
X139372290Y-112765000D01*
X139476262Y-112661028D01*
X139578586Y-112507889D01*
X139649068Y-112337729D01*
X139685000Y-112157089D01*
X139685000Y-112055000D01*
X139762089Y-112055000D01*
X139942729Y-112019068D01*
X140112889Y-111948586D01*
X140266028Y-111846262D01*
X140396262Y-111716028D01*
X140498586Y-111562889D01*
X140569068Y-111392729D01*
X140605000Y-111212089D01*
X140605000Y-111027911D01*
X140569068Y-110847271D01*
X140498586Y-110677111D01*
X140396262Y-110523972D01*
X140266028Y-110393738D01*
X140112889Y-110291414D01*
X139942729Y-110220932D01*
X139762089Y-110185000D01*
X139577911Y-110185000D01*
X139397271Y-110220932D01*
X139227111Y-110291414D01*
X139073972Y-110393738D01*
X138943738Y-110523972D01*
X138841414Y-110677111D01*
X138770932Y-110847271D01*
X138735000Y-111027911D01*
X138735000Y-111130000D01*
X138657911Y-111130000D01*
X138477271Y-111165932D01*
X138307111Y-111236414D01*
X138153972Y-111338738D01*
X138050000Y-111442710D01*
X137946028Y-111338738D01*
X137792889Y-111236414D01*
X137622729Y-111165932D01*
X137442089Y-111130000D01*
X137257911Y-111130000D01*
X137077271Y-111165932D01*
X136907111Y-111236414D01*
X136753972Y-111338738D01*
X136650000Y-111442710D01*
X136546028Y-111338738D01*
X136392889Y-111236414D01*
X136222729Y-111165932D01*
X136042089Y-111130000D01*
X135985000Y-111130000D01*
X135985000Y-111087911D01*
X135949068Y-110907271D01*
X135878586Y-110737111D01*
X135776262Y-110583972D01*
X135646028Y-110453738D01*
X135492889Y-110351414D01*
X135322729Y-110280932D01*
X135142089Y-110245000D01*
X134957911Y-110245000D01*
X134777271Y-110280932D01*
X134607111Y-110351414D01*
X134453972Y-110453738D01*
X134323738Y-110583972D01*
X134221414Y-110737111D01*
X134150932Y-110907271D01*
X134115000Y-111087911D01*
X130610201Y-111087911D01*
X130596028Y-111073738D01*
X130442889Y-110971414D01*
X130272729Y-110900932D01*
X130092089Y-110865000D01*
X129907911Y-110865000D01*
X129727271Y-110900932D01*
X129557111Y-110971414D01*
X129403972Y-111073738D01*
X129273738Y-111203972D01*
X129171414Y-111357111D01*
X129100932Y-111527271D01*
X129065000Y-111707911D01*
X127427269Y-111707911D01*
X127312089Y-111685000D01*
X127127911Y-111685000D01*
X126947271Y-111720932D01*
X126777111Y-111791414D01*
X126623972Y-111893738D01*
X126493738Y-112023972D01*
X126391414Y-112177111D01*
X126320932Y-112347271D01*
X126285000Y-112527911D01*
X126285000Y-112712089D01*
X126320932Y-112892729D01*
X126391414Y-113062889D01*
X126432915Y-113125000D01*
X126407911Y-113125000D01*
X126227271Y-113160932D01*
X126057111Y-113231414D01*
X125903972Y-113333738D01*
X125773738Y-113463972D01*
X125671414Y-113617111D01*
X125600932Y-113787271D01*
X125565000Y-113967911D01*
X122277934Y-113967911D01*
X122148387Y-113861595D01*
X122143889Y-113859191D01*
X122182502Y-113827502D01*
X122336833Y-113639449D01*
X122451511Y-113424901D01*
X122522130Y-113192102D01*
X122545975Y-112950000D01*
X122522130Y-112707898D01*
X122451511Y-112475099D01*
X122336833Y-112260551D01*
X122182502Y-112072498D01*
X122033238Y-111950000D01*
X122182502Y-111827502D01*
X122336833Y-111639449D01*
X122451511Y-111424901D01*
X122522130Y-111192102D01*
X122545975Y-110950000D01*
X122522130Y-110707898D01*
X122451511Y-110475099D01*
X122336833Y-110260551D01*
X122182502Y-110072498D01*
X121994449Y-109918167D01*
X121779901Y-109803489D01*
X121547102Y-109732870D01*
X121365665Y-109715000D01*
X120694335Y-109715000D01*
X120512898Y-109732870D01*
X120280099Y-109803489D01*
X120065551Y-109918167D01*
X119877498Y-110072498D01*
X119723167Y-110260551D01*
X119608489Y-110475099D01*
X119537870Y-110707898D01*
X119514025Y-110950000D01*
X116584990Y-110950000D01*
X116585975Y-110940000D01*
X116562130Y-110697898D01*
X116491511Y-110465099D01*
X116376833Y-110250551D01*
X116222502Y-110062498D01*
X116034449Y-109908167D01*
X115819901Y-109793489D01*
X115587102Y-109722870D01*
X115405665Y-109705000D01*
X114734335Y-109705000D01*
X114552898Y-109722870D01*
X114320099Y-109793489D01*
X114105551Y-109908167D01*
X113917498Y-110062498D01*
X113763167Y-110250551D01*
X113648489Y-110465099D01*
X113577870Y-110697898D01*
X113554025Y-110940000D01*
X113380000Y-110940000D01*
X113380000Y-105899721D01*
X124265000Y-105899721D01*
X124265000Y-106320279D01*
X124347047Y-106732756D01*
X124507988Y-107121302D01*
X124741637Y-107470983D01*
X125039017Y-107768363D01*
X125388698Y-108002012D01*
X125777244Y-108162953D01*
X126189721Y-108245000D01*
X126610279Y-108245000D01*
X127022756Y-108162953D01*
X127411302Y-108002012D01*
X127760983Y-107768363D01*
X127971435Y-107557911D01*
X131040000Y-107557911D01*
X131040000Y-107742089D01*
X131075932Y-107922729D01*
X131146414Y-108092889D01*
X131248738Y-108246028D01*
X131378972Y-108376262D01*
X131532111Y-108478586D01*
X131702271Y-108549068D01*
X131882911Y-108585000D01*
X131934862Y-108585000D01*
X131875932Y-108727271D01*
X131840000Y-108907911D01*
X131840000Y-109092089D01*
X131875932Y-109272729D01*
X131946414Y-109442889D01*
X132048738Y-109596028D01*
X132178972Y-109726262D01*
X132332111Y-109828586D01*
X132502271Y-109899068D01*
X132682911Y-109935000D01*
X132867089Y-109935000D01*
X133047729Y-109899068D01*
X133217889Y-109828586D01*
X133371028Y-109726262D01*
X133501262Y-109596028D01*
X133603586Y-109442889D01*
X133674068Y-109272729D01*
X133710000Y-109092089D01*
X133710000Y-108907911D01*
X133674068Y-108727271D01*
X133603586Y-108557111D01*
X133501262Y-108403972D01*
X133371028Y-108273738D01*
X133217889Y-108171414D01*
X133047729Y-108100932D01*
X132867089Y-108065000D01*
X132815138Y-108065000D01*
X132874068Y-107922729D01*
X132910000Y-107742089D01*
X132910000Y-107557911D01*
X132874068Y-107377271D01*
X132803586Y-107207111D01*
X132701262Y-107053972D01*
X132571028Y-106923738D01*
X132417889Y-106821414D01*
X132247729Y-106750932D01*
X132067089Y-106715000D01*
X131882911Y-106715000D01*
X131702271Y-106750932D01*
X131532111Y-106821414D01*
X131378972Y-106923738D01*
X131248738Y-107053972D01*
X131146414Y-107207111D01*
X131075932Y-107377271D01*
X131040000Y-107557911D01*
X127971435Y-107557911D01*
X128058363Y-107470983D01*
X128292012Y-107121302D01*
X128452953Y-106732756D01*
X128535000Y-106320279D01*
X128535000Y-105899721D01*
X128452953Y-105487244D01*
X128292012Y-105098698D01*
X128058363Y-104749017D01*
X127760983Y-104451637D01*
X127411302Y-104217988D01*
X127022756Y-104057047D01*
X126610279Y-103975000D01*
X126189721Y-103975000D01*
X125777244Y-104057047D01*
X125388698Y-104217988D01*
X125039017Y-104451637D01*
X124741637Y-104749017D01*
X124507988Y-105098698D01*
X124347047Y-105487244D01*
X124265000Y-105899721D01*
X113380000Y-105899721D01*
X113380000Y-101752237D01*
X113380017Y-101752063D01*
X113380000Y-101720511D01*
X113380000Y-101687581D01*
X113379982Y-101687400D01*
X113372069Y-86999721D01*
X124265000Y-86999721D01*
X124265000Y-87420279D01*
X124347047Y-87832756D01*
X124507988Y-88221302D01*
X124741637Y-88570983D01*
X125039017Y-88868363D01*
X125388698Y-89102012D01*
X125777244Y-89262953D01*
X126189721Y-89345000D01*
X126610279Y-89345000D01*
X127022756Y-89262953D01*
X127411302Y-89102012D01*
X127760983Y-88868363D01*
X128058363Y-88570983D01*
X128292012Y-88221302D01*
X128452953Y-87832756D01*
X128535000Y-87420279D01*
X128535000Y-86999721D01*
X128452953Y-86587244D01*
X128292012Y-86198698D01*
X128058363Y-85849017D01*
X127760983Y-85551637D01*
X127496411Y-85374856D01*
X127503429Y-85357911D01*
X142015000Y-85357911D01*
X142015000Y-85542089D01*
X142050932Y-85722729D01*
X142121414Y-85892889D01*
X142223738Y-86046028D01*
X142353972Y-86176262D01*
X142507111Y-86278586D01*
X142677271Y-86349068D01*
X142857911Y-86385000D01*
X143042089Y-86385000D01*
X143222729Y-86349068D01*
X143392889Y-86278586D01*
X143546028Y-86176262D01*
X143676262Y-86046028D01*
X143778586Y-85892889D01*
X143849068Y-85722729D01*
X143885000Y-85542089D01*
X143885000Y-85357911D01*
X143849068Y-85177271D01*
X143778586Y-85007111D01*
X143676262Y-84853972D01*
X143546028Y-84723738D01*
X143392889Y-84621414D01*
X143222729Y-84550932D01*
X143042089Y-84515000D01*
X142857911Y-84515000D01*
X142677271Y-84550932D01*
X142507111Y-84621414D01*
X142353972Y-84723738D01*
X142223738Y-84853972D01*
X142121414Y-85007111D01*
X142050932Y-85177271D01*
X142015000Y-85357911D01*
X127503429Y-85357911D01*
X127549068Y-85247729D01*
X127585000Y-85067089D01*
X127585000Y-84882911D01*
X127549068Y-84702271D01*
X127478586Y-84532111D01*
X127376262Y-84378972D01*
X127246028Y-84248738D01*
X127092889Y-84146414D01*
X126922729Y-84075932D01*
X126742089Y-84040000D01*
X126557911Y-84040000D01*
X126377271Y-84075932D01*
X126207111Y-84146414D01*
X126053972Y-84248738D01*
X125923738Y-84378972D01*
X125821414Y-84532111D01*
X125750932Y-84702271D01*
X125715000Y-84882911D01*
X125715000Y-85067089D01*
X125736270Y-85174019D01*
X125388698Y-85317988D01*
X125039017Y-85551637D01*
X124741637Y-85849017D01*
X124507988Y-86198698D01*
X124347047Y-86587244D01*
X124265000Y-86999721D01*
X113372069Y-86999721D01*
X113371000Y-85017331D01*
X113401399Y-85062826D01*
X113817174Y-85478601D01*
X114306072Y-85805273D01*
X114849308Y-86030288D01*
X115426003Y-86145000D01*
X116013997Y-86145000D01*
X116590692Y-86030288D01*
X117133928Y-85805273D01*
X117622826Y-85478601D01*
X118038601Y-85062826D01*
X118365273Y-84573928D01*
X118590288Y-84030692D01*
X118704221Y-83457910D01*
X133455000Y-83457910D01*
X133455000Y-83642088D01*
X133490932Y-83822728D01*
X133561414Y-83992888D01*
X133663738Y-84146027D01*
X133793972Y-84276261D01*
X133947111Y-84378585D01*
X134117271Y-84449067D01*
X134297911Y-84484999D01*
X134482089Y-84484999D01*
X134662729Y-84449067D01*
X134832889Y-84378585D01*
X134986028Y-84276261D01*
X135116262Y-84146027D01*
X135218586Y-83992888D01*
X135289068Y-83822728D01*
X135325000Y-83642088D01*
X135325000Y-83457910D01*
X135289068Y-83277270D01*
X135218586Y-83107110D01*
X135116262Y-82953971D01*
X134986028Y-82823737D01*
X134832889Y-82721413D01*
X134662729Y-82650931D01*
X134572138Y-82632911D01*
X135865000Y-82632911D01*
X135865000Y-82817089D01*
X135900932Y-82997729D01*
X135971414Y-83167889D01*
X136073738Y-83321028D01*
X136203972Y-83451262D01*
X136357111Y-83553586D01*
X136527271Y-83624068D01*
X136707911Y-83660000D01*
X136892089Y-83660000D01*
X137072729Y-83624068D01*
X137242889Y-83553586D01*
X137396028Y-83451262D01*
X137526262Y-83321028D01*
X137628586Y-83167889D01*
X137699068Y-82997729D01*
X137735000Y-82817089D01*
X137735000Y-82632911D01*
X137699068Y-82452271D01*
X137628586Y-82282111D01*
X137526262Y-82128972D01*
X137396028Y-81998738D01*
X137242889Y-81896414D01*
X137072729Y-81825932D01*
X136892089Y-81790000D01*
X136707911Y-81790000D01*
X136527271Y-81825932D01*
X136357111Y-81896414D01*
X136203972Y-81998738D01*
X136073738Y-82128972D01*
X135971414Y-82282111D01*
X135900932Y-82452271D01*
X135865000Y-82632911D01*
X134572138Y-82632911D01*
X134482089Y-82614999D01*
X134297911Y-82614999D01*
X134117271Y-82650931D01*
X133947111Y-82721413D01*
X133793972Y-82823737D01*
X133663738Y-82953971D01*
X133561414Y-83107110D01*
X133490932Y-83277270D01*
X133455000Y-83457910D01*
X118704221Y-83457910D01*
X118705000Y-83453997D01*
X118705000Y-82866003D01*
X118590288Y-82289308D01*
X118365273Y-81746072D01*
X118038601Y-81257174D01*
X117622826Y-80841399D01*
X117590320Y-80819679D01*
X122882730Y-80818779D01*
X122865000Y-80907911D01*
X122865000Y-81092089D01*
X122900932Y-81272729D01*
X122971414Y-81442889D01*
X123073738Y-81596028D01*
X123203972Y-81726262D01*
X123357111Y-81828586D01*
X123527271Y-81899068D01*
X123707911Y-81935000D01*
X123892089Y-81935000D01*
X124072729Y-81899068D01*
X124242889Y-81828586D01*
X124396028Y-81726262D01*
X124526262Y-81596028D01*
X124628586Y-81442889D01*
X124699068Y-81272729D01*
X124735000Y-81092089D01*
X124735000Y-80907911D01*
X124717208Y-80818466D01*
X133798268Y-80816920D01*
X133771414Y-80857111D01*
X133700932Y-81027271D01*
X133665000Y-81207911D01*
X133665000Y-81392089D01*
X133700932Y-81572729D01*
X133771414Y-81742889D01*
X133873738Y-81896028D01*
X134003972Y-82026262D01*
X134157111Y-82128586D01*
X134327271Y-82199068D01*
X134507911Y-82235000D01*
X134692089Y-82235000D01*
X134872729Y-82199068D01*
X135042889Y-82128586D01*
X135196028Y-82026262D01*
X135326262Y-81896028D01*
X135428586Y-81742889D01*
X135483531Y-81610240D01*
X135577271Y-81649068D01*
X135757911Y-81685000D01*
X135942089Y-81685000D01*
X136122729Y-81649068D01*
X136292889Y-81578586D01*
X136446028Y-81476262D01*
X136576262Y-81346028D01*
X136678586Y-81192889D01*
X136749068Y-81022729D01*
X136785000Y-80842089D01*
X136785000Y-80816412D01*
X141265396Y-80815649D01*
X141255000Y-80867911D01*
X141255000Y-81052089D01*
X141290932Y-81232729D01*
X141361414Y-81402889D01*
X141463738Y-81556028D01*
X141593972Y-81686262D01*
X141747111Y-81788586D01*
X141917271Y-81859068D01*
X142097911Y-81895000D01*
X142282089Y-81895000D01*
X142462729Y-81859068D01*
X142632889Y-81788586D01*
X142786028Y-81686262D01*
X142916262Y-81556028D01*
X143018586Y-81402889D01*
X143089068Y-81232729D01*
X143125000Y-81052089D01*
X143125000Y-80867911D01*
X143114542Y-80815335D01*
X145573000Y-80814916D01*
X145573000Y-87346809D01*
G37*
X145573000Y-87346809D02*
X145552271Y-87350932D01*
X145382111Y-87421414D01*
X145228972Y-87523738D01*
X145098738Y-87653972D01*
X144996414Y-87807111D01*
X144925932Y-87977271D01*
X144890000Y-88157911D01*
X144890000Y-88342089D01*
X144925932Y-88522729D01*
X144946755Y-88573000D01*
X142279621Y-88573000D01*
X142378586Y-88424888D01*
X142449068Y-88254728D01*
X142485000Y-88074088D01*
X142485000Y-87889910D01*
X142449068Y-87709270D01*
X142378586Y-87539110D01*
X142276262Y-87385971D01*
X142146028Y-87255737D01*
X141992889Y-87153413D01*
X141822729Y-87082931D01*
X141642089Y-87046999D01*
X141457911Y-87046999D01*
X141277271Y-87082931D01*
X141107111Y-87153413D01*
X140953972Y-87255737D01*
X140823738Y-87385971D01*
X140721414Y-87539110D01*
X140650932Y-87709270D01*
X140615000Y-87889910D01*
X140615000Y-88074088D01*
X140650932Y-88254728D01*
X140721414Y-88424888D01*
X140820379Y-88573000D01*
X138927000Y-88573000D01*
X138927000Y-86850000D01*
X138924560Y-86825224D01*
X138917333Y-86801399D01*
X138905597Y-86779443D01*
X138889803Y-86760197D01*
X138870557Y-86744403D01*
X138848601Y-86732667D01*
X138824776Y-86725440D01*
X138800000Y-86723000D01*
X137357535Y-86723000D01*
X137399068Y-86622729D01*
X137435000Y-86442089D01*
X137435000Y-86257911D01*
X137399068Y-86077271D01*
X137328586Y-85907111D01*
X137226262Y-85753972D01*
X137096028Y-85623738D01*
X136942889Y-85521414D01*
X136772729Y-85450932D01*
X136592089Y-85415000D01*
X136407911Y-85415000D01*
X136227271Y-85450932D01*
X136057111Y-85521414D01*
X136037415Y-85534574D01*
X135942889Y-85471414D01*
X135772729Y-85400932D01*
X135592089Y-85365000D01*
X135407911Y-85365000D01*
X135227271Y-85400932D01*
X135057111Y-85471414D01*
X134903972Y-85573738D01*
X134773738Y-85703972D01*
X134675000Y-85851744D01*
X134576262Y-85703972D01*
X134446028Y-85573738D01*
X134292889Y-85471414D01*
X134122729Y-85400932D01*
X133942089Y-85365000D01*
X133757911Y-85365000D01*
X133577271Y-85400932D01*
X133407111Y-85471414D01*
X133253972Y-85573738D01*
X133123738Y-85703972D01*
X133021414Y-85857111D01*
X132950932Y-86027271D01*
X132915000Y-86207911D01*
X132915000Y-86392089D01*
X132950932Y-86572729D01*
X133013176Y-86723000D01*
X132873956Y-86723000D01*
X132874068Y-86722729D01*
X132910000Y-86542089D01*
X132910000Y-86357911D01*
X132874068Y-86177271D01*
X132803586Y-86007111D01*
X132701262Y-85853972D01*
X132571028Y-85723738D01*
X132417889Y-85621414D01*
X132247729Y-85550932D01*
X132067089Y-85515000D01*
X131882911Y-85515000D01*
X131702271Y-85550932D01*
X131532111Y-85621414D01*
X131378972Y-85723738D01*
X131248738Y-85853972D01*
X131146414Y-86007111D01*
X131075932Y-86177271D01*
X131040000Y-86357911D01*
X131040000Y-86542089D01*
X131075932Y-86722729D01*
X131124085Y-86838982D01*
X131123000Y-86850000D01*
X131123000Y-90521944D01*
X130977271Y-90550932D01*
X130807111Y-90621414D01*
X130653972Y-90723738D01*
X130523738Y-90853972D01*
X130421414Y-91007111D01*
X130350932Y-91177271D01*
X130315000Y-91357911D01*
X130315000Y-91542089D01*
X130350932Y-91722729D01*
X130421414Y-91892889D01*
X130523738Y-92046028D01*
X130653972Y-92176262D01*
X130807111Y-92278586D01*
X130977271Y-92349068D01*
X131123000Y-92378056D01*
X131123000Y-97223000D01*
X129550000Y-97223000D01*
X129525224Y-97225440D01*
X129501399Y-97232667D01*
X129479443Y-97244403D01*
X129460197Y-97260197D01*
X129444403Y-97279443D01*
X129432667Y-97301399D01*
X129425440Y-97325224D01*
X129423000Y-97350000D01*
X129423000Y-100950710D01*
X129296028Y-100823738D01*
X129142889Y-100721414D01*
X128972729Y-100650932D01*
X128792089Y-100615000D01*
X128607911Y-100615000D01*
X128427271Y-100650932D01*
X128257111Y-100721414D01*
X128103972Y-100823738D01*
X127973738Y-100953972D01*
X127871414Y-101107111D01*
X127800932Y-101277271D01*
X127778110Y-101392006D01*
X127707111Y-101421414D01*
X127553972Y-101523738D01*
X127423738Y-101653972D01*
X127321414Y-101807111D01*
X127250932Y-101977271D01*
X127215000Y-102157911D01*
X127215000Y-102342089D01*
X127250932Y-102522729D01*
X127321414Y-102692889D01*
X127423738Y-102846028D01*
X127553972Y-102976262D01*
X127707111Y-103078586D01*
X127799787Y-103116973D01*
X127800932Y-103122729D01*
X127871414Y-103292889D01*
X127973738Y-103446028D01*
X128103972Y-103576262D01*
X128257111Y-103678586D01*
X128427271Y-103749068D01*
X128607911Y-103785000D01*
X128792089Y-103785000D01*
X128972729Y-103749068D01*
X129142889Y-103678586D01*
X129296028Y-103576262D01*
X129423000Y-103449290D01*
X129423000Y-106350000D01*
X129425440Y-106374776D01*
X129432667Y-106398601D01*
X129444403Y-106420557D01*
X129460197Y-106439803D01*
X129479443Y-106455597D01*
X129501399Y-106467333D01*
X129525224Y-106474560D01*
X129550000Y-106477000D01*
X134775033Y-106477000D01*
X134681414Y-106617111D01*
X134610932Y-106787271D01*
X134575000Y-106967911D01*
X134575000Y-107152089D01*
X134610932Y-107332729D01*
X134681414Y-107502889D01*
X134783738Y-107656028D01*
X134913972Y-107786262D01*
X135067111Y-107888586D01*
X135237271Y-107959068D01*
X135417911Y-107995000D01*
X135602089Y-107995000D01*
X135782729Y-107959068D01*
X135906277Y-107907893D01*
X135997111Y-107968586D01*
X136167271Y-108039068D01*
X136205816Y-108046735D01*
X136220932Y-108122729D01*
X136291414Y-108292889D01*
X136393738Y-108446028D01*
X136451909Y-108504199D01*
X136400932Y-108627271D01*
X136365000Y-108807911D01*
X136365000Y-108992089D01*
X136400932Y-109172729D01*
X136471414Y-109342889D01*
X136573738Y-109496028D01*
X136703972Y-109626262D01*
X136857111Y-109728586D01*
X137027271Y-109799068D01*
X137207911Y-109835000D01*
X137392089Y-109835000D01*
X137572729Y-109799068D01*
X137742889Y-109728586D01*
X137896028Y-109626262D01*
X138026262Y-109496028D01*
X138128586Y-109342889D01*
X138199068Y-109172729D01*
X138235000Y-108992089D01*
X138235000Y-108807911D01*
X138199068Y-108627271D01*
X138128586Y-108457111D01*
X138026262Y-108303972D01*
X137968091Y-108245801D01*
X138019068Y-108122729D01*
X138055000Y-107942089D01*
X138055000Y-107757911D01*
X138019068Y-107577271D01*
X137948586Y-107407111D01*
X137938165Y-107391516D01*
X137946028Y-107386262D01*
X138076262Y-107256028D01*
X138178586Y-107102889D01*
X138249068Y-106932729D01*
X138285000Y-106752089D01*
X138285000Y-106639107D01*
X145423000Y-110921907D01*
X145423000Y-118350000D01*
X145425440Y-118374776D01*
X145432667Y-118398601D01*
X145444403Y-118420557D01*
X145460197Y-118439803D01*
X145479443Y-118455597D01*
X145501399Y-118467333D01*
X145525224Y-118474560D01*
X145549708Y-118477000D01*
X157601176Y-118504726D01*
X157595172Y-118508738D01*
X157464938Y-118638972D01*
X157362614Y-118792111D01*
X157292132Y-118962271D01*
X157256200Y-119142911D01*
X157256200Y-119327089D01*
X157292132Y-119507729D01*
X157362614Y-119677889D01*
X157464938Y-119831028D01*
X157595172Y-119961262D01*
X157748311Y-120063586D01*
X157918471Y-120134068D01*
X158099111Y-120170000D01*
X158283289Y-120170000D01*
X158463929Y-120134068D01*
X158567700Y-120091085D01*
X158791484Y-123740000D01*
X150031492Y-123740000D01*
X150045000Y-123672089D01*
X150045000Y-123487911D01*
X150009068Y-123307271D01*
X149988577Y-123257801D01*
X150018586Y-123212889D01*
X150089068Y-123042729D01*
X150125000Y-122862089D01*
X150125000Y-122677911D01*
X150089068Y-122497271D01*
X150071151Y-122454016D01*
X150078586Y-122442889D01*
X150149068Y-122272729D01*
X150185000Y-122092089D01*
X150185000Y-121907911D01*
X150149068Y-121727271D01*
X150078586Y-121557111D01*
X149976262Y-121403972D01*
X149846028Y-121273738D01*
X149692889Y-121171414D01*
X149522729Y-121100932D01*
X149342089Y-121065000D01*
X149157911Y-121065000D01*
X148977271Y-121100932D01*
X148807111Y-121171414D01*
X148653972Y-121273738D01*
X148523738Y-121403972D01*
X148421414Y-121557111D01*
X148350932Y-121727271D01*
X148315000Y-121907911D01*
X148315000Y-122092089D01*
X148350932Y-122272729D01*
X148368849Y-122315984D01*
X148361414Y-122327111D01*
X148290932Y-122497271D01*
X148255000Y-122677911D01*
X148255000Y-122862089D01*
X148290932Y-123042729D01*
X148311423Y-123092199D01*
X148281414Y-123137111D01*
X148210932Y-123307271D01*
X148175000Y-123487911D01*
X148175000Y-123672089D01*
X148188508Y-123740000D01*
X147229783Y-123740000D01*
X147299068Y-123572729D01*
X147335000Y-123392089D01*
X147335000Y-123207911D01*
X147299068Y-123027271D01*
X147228586Y-122857111D01*
X147126262Y-122703972D01*
X147072290Y-122650000D01*
X147126262Y-122596028D01*
X147228586Y-122442889D01*
X147299068Y-122272729D01*
X147335000Y-122092089D01*
X147335000Y-121907911D01*
X147299068Y-121727271D01*
X147228586Y-121557111D01*
X147126262Y-121403972D01*
X146996028Y-121273738D01*
X146842889Y-121171414D01*
X146672729Y-121100932D01*
X146492089Y-121065000D01*
X146307911Y-121065000D01*
X146127271Y-121100932D01*
X145957111Y-121171414D01*
X145803972Y-121273738D01*
X145673738Y-121403972D01*
X145571414Y-121557111D01*
X145500932Y-121727271D01*
X145465000Y-121907911D01*
X145465000Y-121966369D01*
X145453972Y-121973738D01*
X145323738Y-122103972D01*
X145221414Y-122257111D01*
X145150932Y-122427271D01*
X145115000Y-122607911D01*
X145115000Y-122792089D01*
X145150932Y-122972729D01*
X145221414Y-123142889D01*
X145323738Y-123296028D01*
X145453972Y-123426262D01*
X145474530Y-123439998D01*
X145500932Y-123572729D01*
X145570217Y-123740000D01*
X128831866Y-123740001D01*
X128873577Y-123602499D01*
X128890000Y-123435751D01*
X128890000Y-122424248D01*
X128873577Y-122257501D01*
X128808676Y-122043553D01*
X128703284Y-121846377D01*
X128561449Y-121673551D01*
X128388623Y-121531716D01*
X128191446Y-121426324D01*
X127977498Y-121361423D01*
X127755000Y-121339509D01*
X127532501Y-121361423D01*
X127369324Y-121410923D01*
X127496028Y-121326262D01*
X127626262Y-121196028D01*
X127728586Y-121042889D01*
X127799068Y-120872729D01*
X127835000Y-120692089D01*
X127835000Y-120664336D01*
X132065000Y-120664336D01*
X132065000Y-121335665D01*
X132082870Y-121517102D01*
X132153489Y-121749901D01*
X132268168Y-121964449D01*
X132422499Y-122152502D01*
X132610552Y-122306833D01*
X132825100Y-122421511D01*
X133057899Y-122492130D01*
X133300000Y-122515975D01*
X133542102Y-122492130D01*
X133774901Y-122421511D01*
X133989449Y-122306833D01*
X134177502Y-122152502D01*
X134300001Y-122003237D01*
X134422499Y-122152502D01*
X134610552Y-122306833D01*
X134825100Y-122421511D01*
X135057899Y-122492130D01*
X135300000Y-122515975D01*
X135542102Y-122492130D01*
X135774901Y-122421511D01*
X135989449Y-122306833D01*
X136177502Y-122152502D01*
X136300001Y-122003237D01*
X136422499Y-122152502D01*
X136610552Y-122306833D01*
X136825100Y-122421511D01*
X137057899Y-122492130D01*
X137300000Y-122515975D01*
X137542102Y-122492130D01*
X137774901Y-122421511D01*
X137989449Y-122306833D01*
X138177502Y-122152502D01*
X138300001Y-122003237D01*
X138422499Y-122152502D01*
X138610552Y-122306833D01*
X138825100Y-122421511D01*
X139057899Y-122492130D01*
X139300000Y-122515975D01*
X139542102Y-122492130D01*
X139774901Y-122421511D01*
X139989449Y-122306833D01*
X140177502Y-122152502D01*
X140300001Y-122003237D01*
X140422499Y-122152502D01*
X140610552Y-122306833D01*
X140825100Y-122421511D01*
X141057899Y-122492130D01*
X141300000Y-122515975D01*
X141542102Y-122492130D01*
X141774901Y-122421511D01*
X141989449Y-122306833D01*
X142177502Y-122152502D01*
X142331833Y-121964449D01*
X142446511Y-121749900D01*
X142517130Y-121517101D01*
X142535000Y-121335664D01*
X142535000Y-120664335D01*
X142517130Y-120482898D01*
X142446511Y-120250099D01*
X142331833Y-120035551D01*
X142177502Y-119847498D01*
X141989448Y-119693167D01*
X141774900Y-119578489D01*
X141542101Y-119507870D01*
X141300000Y-119484025D01*
X141057898Y-119507870D01*
X140825099Y-119578489D01*
X140610551Y-119693167D01*
X140422498Y-119847498D01*
X140300000Y-119996763D01*
X140177502Y-119847498D01*
X139989448Y-119693167D01*
X139774900Y-119578489D01*
X139542101Y-119507870D01*
X139300000Y-119484025D01*
X139057898Y-119507870D01*
X138825099Y-119578489D01*
X138610551Y-119693167D01*
X138422498Y-119847498D01*
X138300000Y-119996763D01*
X138177502Y-119847498D01*
X137989448Y-119693167D01*
X137774900Y-119578489D01*
X137542101Y-119507870D01*
X137300000Y-119484025D01*
X137057898Y-119507870D01*
X136825099Y-119578489D01*
X136610551Y-119693167D01*
X136422498Y-119847498D01*
X136300000Y-119996763D01*
X136177502Y-119847498D01*
X135989448Y-119693167D01*
X135774900Y-119578489D01*
X135542101Y-119507870D01*
X135300000Y-119484025D01*
X135057898Y-119507870D01*
X134825099Y-119578489D01*
X134610551Y-119693167D01*
X134422498Y-119847498D01*
X134300000Y-119996763D01*
X134177502Y-119847498D01*
X133989448Y-119693167D01*
X133774900Y-119578489D01*
X133542101Y-119507870D01*
X133300000Y-119484025D01*
X133057898Y-119507870D01*
X132825099Y-119578489D01*
X132610551Y-119693167D01*
X132422498Y-119847498D01*
X132268167Y-120035552D01*
X132153489Y-120250100D01*
X132082870Y-120482899D01*
X132065000Y-120664336D01*
X127835000Y-120664336D01*
X127835000Y-120507911D01*
X127799068Y-120327271D01*
X127728586Y-120157111D01*
X127626262Y-120003972D01*
X127496028Y-119873738D01*
X127342889Y-119771414D01*
X127172729Y-119700932D01*
X126992089Y-119665000D01*
X126954361Y-119665000D01*
X126948215Y-119602600D01*
X126881885Y-119383940D01*
X126774171Y-119182421D01*
X126629212Y-119005788D01*
X126452578Y-118860829D01*
X126251059Y-118753115D01*
X126032399Y-118686785D01*
X125805000Y-118664388D01*
X125577600Y-118686785D01*
X125358940Y-118753115D01*
X125157421Y-118860829D01*
X124980788Y-119005788D01*
X124835829Y-119182422D01*
X124728115Y-119383941D01*
X124661785Y-119602601D01*
X124645000Y-119773022D01*
X124645000Y-120086979D01*
X124661785Y-120257400D01*
X124728115Y-120476060D01*
X124835829Y-120677579D01*
X124980789Y-120854212D01*
X125157422Y-120999171D01*
X125358941Y-121106885D01*
X125577601Y-121173215D01*
X125805000Y-121195612D01*
X126032400Y-121173215D01*
X126137244Y-121141411D01*
X126173738Y-121196028D01*
X126303972Y-121326262D01*
X126457111Y-121428586D01*
X126627271Y-121499068D01*
X126807911Y-121535000D01*
X126992089Y-121535000D01*
X127172729Y-121499068D01*
X127215955Y-121481163D01*
X127121377Y-121531716D01*
X126948551Y-121673551D01*
X126806716Y-121846377D01*
X126701324Y-122043554D01*
X126636423Y-122257502D01*
X126620000Y-122424249D01*
X126620000Y-123435752D01*
X126636423Y-123602499D01*
X126678134Y-123740001D01*
X120481866Y-123740001D01*
X120523577Y-123602499D01*
X120540000Y-123435751D01*
X120540000Y-122424248D01*
X120523577Y-122257501D01*
X120458676Y-122043553D01*
X120353284Y-121846377D01*
X120211449Y-121673551D01*
X120038623Y-121531716D01*
X119841446Y-121426324D01*
X119627498Y-121361423D01*
X119405000Y-121339509D01*
X119182501Y-121361423D01*
X118968553Y-121426324D01*
X118771377Y-121531716D01*
X118705000Y-121586190D01*
X118705000Y-121116003D01*
X118590288Y-120539308D01*
X118365273Y-119996072D01*
X118216236Y-119773022D01*
X120195000Y-119773022D01*
X120195000Y-120086979D01*
X120211785Y-120257400D01*
X120278115Y-120476060D01*
X120385829Y-120677579D01*
X120530789Y-120854212D01*
X120707422Y-120999171D01*
X120908941Y-121106885D01*
X121127601Y-121173215D01*
X121355000Y-121195612D01*
X121582400Y-121173215D01*
X121801060Y-121106885D01*
X122002579Y-120999171D01*
X122179212Y-120854212D01*
X122324171Y-120677578D01*
X122431885Y-120476059D01*
X122498215Y-120257399D01*
X122515000Y-120086978D01*
X122515000Y-119773021D01*
X122513411Y-119756889D01*
X122552729Y-119749068D01*
X122722889Y-119678586D01*
X122876028Y-119576262D01*
X123006262Y-119446028D01*
X123108586Y-119292889D01*
X123179068Y-119122729D01*
X123215000Y-118942089D01*
X123215000Y-118757911D01*
X123179068Y-118577271D01*
X123108586Y-118407111D01*
X123006262Y-118253972D01*
X122876028Y-118123738D01*
X122722889Y-118021414D01*
X122552729Y-117950932D01*
X122372089Y-117915000D01*
X122187911Y-117915000D01*
X122007271Y-117950932D01*
X121837111Y-118021414D01*
X121683972Y-118123738D01*
X121553738Y-118253972D01*
X121451414Y-118407111D01*
X121380932Y-118577271D01*
X121363438Y-118665219D01*
X121355000Y-118664388D01*
X121127600Y-118686785D01*
X120908940Y-118753115D01*
X120707421Y-118860829D01*
X120530788Y-119005788D01*
X120385829Y-119182422D01*
X120278115Y-119383941D01*
X120211785Y-119602601D01*
X120195000Y-119773022D01*
X118216236Y-119773022D01*
X118038601Y-119507174D01*
X117622826Y-119091399D01*
X117133928Y-118764727D01*
X116590692Y-118539712D01*
X116013997Y-118425000D01*
X115426003Y-118425000D01*
X114849308Y-118539712D01*
X114306072Y-118764727D01*
X113817174Y-119091399D01*
X113401399Y-119507174D01*
X113380000Y-119539200D01*
X113380000Y-117311306D01*
X122761605Y-117311306D01*
X122761605Y-117495484D01*
X122797537Y-117676124D01*
X122868019Y-117846284D01*
X122970343Y-117999423D01*
X123100577Y-118129657D01*
X123253716Y-118231981D01*
X123423876Y-118302463D01*
X123604516Y-118338395D01*
X123788694Y-118338395D01*
X123969334Y-118302463D01*
X124139494Y-118231981D01*
X124292633Y-118129657D01*
X124422867Y-117999423D01*
X124454372Y-117952271D01*
X137858968Y-117952271D01*
X137858968Y-118136449D01*
X137894900Y-118317089D01*
X137965382Y-118487249D01*
X138067706Y-118640388D01*
X138197940Y-118770622D01*
X138351079Y-118872946D01*
X138521239Y-118943428D01*
X138701879Y-118979360D01*
X138886057Y-118979360D01*
X139066697Y-118943428D01*
X139071928Y-118941261D01*
X139142685Y-118988540D01*
X139312845Y-119059022D01*
X139493485Y-119094954D01*
X139677663Y-119094954D01*
X139858303Y-119059022D01*
X140028463Y-118988540D01*
X140181602Y-118886216D01*
X140311836Y-118755982D01*
X140414160Y-118602843D01*
X140484642Y-118432683D01*
X140520574Y-118252043D01*
X140520574Y-118067865D01*
X140484642Y-117887225D01*
X140414160Y-117717065D01*
X140311836Y-117563926D01*
X140181602Y-117433692D01*
X140172951Y-117427911D01*
X140625000Y-117427911D01*
X140625000Y-117612089D01*
X140660932Y-117792729D01*
X140731414Y-117962889D01*
X140833738Y-118116028D01*
X140963972Y-118246262D01*
X141117111Y-118348586D01*
X141287271Y-118419068D01*
X141467911Y-118455000D01*
X141543616Y-118455000D01*
X141611424Y-118618705D01*
X141713748Y-118771844D01*
X141843982Y-118902078D01*
X141997121Y-119004402D01*
X142167281Y-119074884D01*
X142347921Y-119110816D01*
X142532099Y-119110816D01*
X142712739Y-119074884D01*
X142882899Y-119004402D01*
X143036038Y-118902078D01*
X143166272Y-118771844D01*
X143268596Y-118618705D01*
X143339078Y-118448545D01*
X143375010Y-118267905D01*
X143375010Y-118083727D01*
X143339078Y-117903087D01*
X143268596Y-117732927D01*
X143166272Y-117579788D01*
X143036038Y-117449554D01*
X142882899Y-117347230D01*
X142712739Y-117276748D01*
X142532099Y-117240816D01*
X142456394Y-117240816D01*
X142388586Y-117077111D01*
X142286262Y-116923972D01*
X142156028Y-116793738D01*
X142002889Y-116691414D01*
X141832729Y-116620932D01*
X141652089Y-116585000D01*
X141467911Y-116585000D01*
X141287271Y-116620932D01*
X141117111Y-116691414D01*
X140963972Y-116793738D01*
X140833738Y-116923972D01*
X140731414Y-117077111D01*
X140660932Y-117247271D01*
X140625000Y-117427911D01*
X140172951Y-117427911D01*
X140028463Y-117331368D01*
X139858303Y-117260886D01*
X139677663Y-117224954D01*
X139493485Y-117224954D01*
X139312845Y-117260886D01*
X139307614Y-117263053D01*
X139236857Y-117215774D01*
X139066697Y-117145292D01*
X138886057Y-117109360D01*
X138701879Y-117109360D01*
X138521239Y-117145292D01*
X138351079Y-117215774D01*
X138197940Y-117318098D01*
X138067706Y-117448332D01*
X137965382Y-117601471D01*
X137894900Y-117771631D01*
X137858968Y-117952271D01*
X124454372Y-117952271D01*
X124525191Y-117846284D01*
X124595673Y-117676124D01*
X124631605Y-117495484D01*
X124631605Y-117311306D01*
X124595673Y-117130666D01*
X124525191Y-116960506D01*
X124422867Y-116807367D01*
X124292633Y-116677133D01*
X124139494Y-116574809D01*
X124050414Y-116537911D01*
X130685000Y-116537911D01*
X130685000Y-116722089D01*
X130720932Y-116902729D01*
X130791414Y-117072889D01*
X130893738Y-117226028D01*
X131023972Y-117356262D01*
X131177111Y-117458586D01*
X131347271Y-117529068D01*
X131527911Y-117565000D01*
X131712089Y-117565000D01*
X131892729Y-117529068D01*
X132062889Y-117458586D01*
X132216028Y-117356262D01*
X132346262Y-117226028D01*
X132448586Y-117072889D01*
X132519068Y-116902729D01*
X132555000Y-116722089D01*
X132555000Y-116537911D01*
X132519068Y-116357271D01*
X132448586Y-116187111D01*
X132346262Y-116033972D01*
X132216028Y-115903738D01*
X132062889Y-115801414D01*
X132054432Y-115797911D01*
X133925000Y-115797911D01*
X133925000Y-115982089D01*
X133960932Y-116162729D01*
X134031414Y-116332889D01*
X134133738Y-116486028D01*
X134263972Y-116616262D01*
X134417111Y-116718586D01*
X134587271Y-116789068D01*
X134767911Y-116825000D01*
X134952089Y-116825000D01*
X135132729Y-116789068D01*
X135302889Y-116718586D01*
X135456028Y-116616262D01*
X135586262Y-116486028D01*
X135688586Y-116332889D01*
X135759068Y-116162729D01*
X135795000Y-115982089D01*
X135795000Y-115797911D01*
X135759068Y-115617271D01*
X135688586Y-115447111D01*
X135586262Y-115293972D01*
X135456028Y-115163738D01*
X135302889Y-115061414D01*
X135132729Y-114990932D01*
X134952089Y-114955000D01*
X134767911Y-114955000D01*
X134587271Y-114990932D01*
X134417111Y-115061414D01*
X134263972Y-115163738D01*
X134133738Y-115293972D01*
X134031414Y-115447111D01*
X133960932Y-115617271D01*
X133925000Y-115797911D01*
X132054432Y-115797911D01*
X131892729Y-115730932D01*
X131712089Y-115695000D01*
X131527911Y-115695000D01*
X131347271Y-115730932D01*
X131177111Y-115801414D01*
X131023972Y-115903738D01*
X130893738Y-116033972D01*
X130791414Y-116187111D01*
X130720932Y-116357271D01*
X130685000Y-116537911D01*
X124050414Y-116537911D01*
X123969334Y-116504327D01*
X123788694Y-116468395D01*
X123604516Y-116468395D01*
X123423876Y-116504327D01*
X123253716Y-116574809D01*
X123100577Y-116677133D01*
X122970343Y-116807367D01*
X122868019Y-116960506D01*
X122797537Y-117130666D01*
X122761605Y-117311306D01*
X113380000Y-117311306D01*
X113380000Y-110940000D01*
X113554025Y-110940000D01*
X113577870Y-111182102D01*
X113648489Y-111414901D01*
X113763167Y-111629449D01*
X113917498Y-111817502D01*
X114066762Y-111940000D01*
X113917498Y-112062498D01*
X113763167Y-112250551D01*
X113648489Y-112465099D01*
X113577870Y-112697898D01*
X113554025Y-112940000D01*
X113577870Y-113182102D01*
X113648489Y-113414901D01*
X113763167Y-113629449D01*
X113917498Y-113817502D01*
X113956111Y-113849191D01*
X113951613Y-113851595D01*
X113817038Y-113962038D01*
X113706595Y-114096613D01*
X113624528Y-114250149D01*
X113573992Y-114416745D01*
X113556928Y-114589999D01*
X113556928Y-115290001D01*
X113573992Y-115463255D01*
X113624528Y-115629851D01*
X113706595Y-115783387D01*
X113817038Y-115917962D01*
X113951613Y-116028405D01*
X114105149Y-116110472D01*
X114271745Y-116161008D01*
X114444999Y-116178072D01*
X115695001Y-116178072D01*
X115868255Y-116161008D01*
X116034851Y-116110472D01*
X116188387Y-116028405D01*
X116322962Y-115917962D01*
X116433405Y-115783387D01*
X116515472Y-115629851D01*
X116566008Y-115463255D01*
X116583072Y-115290001D01*
X116583072Y-114589999D01*
X116566008Y-114416745D01*
X116515472Y-114250149D01*
X116433405Y-114096613D01*
X116322962Y-113962038D01*
X116188387Y-113851595D01*
X116183889Y-113849191D01*
X116222502Y-113817502D01*
X116376833Y-113629449D01*
X116491511Y-113414901D01*
X116562130Y-113182102D01*
X116585975Y-112940000D01*
X116562130Y-112697898D01*
X116491511Y-112465099D01*
X116376833Y-112250551D01*
X116222502Y-112062498D01*
X116073238Y-111940000D01*
X116222502Y-111817502D01*
X116376833Y-111629449D01*
X116491511Y-111414901D01*
X116562130Y-111182102D01*
X116584990Y-110950000D01*
X119514025Y-110950000D01*
X119537870Y-111192102D01*
X119608489Y-111424901D01*
X119723167Y-111639449D01*
X119877498Y-111827502D01*
X120026762Y-111950000D01*
X119877498Y-112072498D01*
X119723167Y-112260551D01*
X119608489Y-112475099D01*
X119537870Y-112707898D01*
X119514025Y-112950000D01*
X119537870Y-113192102D01*
X119608489Y-113424901D01*
X119723167Y-113639449D01*
X119877498Y-113827502D01*
X119916111Y-113859191D01*
X119911613Y-113861595D01*
X119777038Y-113972038D01*
X119666595Y-114106613D01*
X119584528Y-114260149D01*
X119533992Y-114426745D01*
X119516928Y-114599999D01*
X119516928Y-115300001D01*
X119533992Y-115473255D01*
X119584528Y-115639851D01*
X119666595Y-115793387D01*
X119777038Y-115927962D01*
X119911613Y-116038405D01*
X120065149Y-116120472D01*
X120231745Y-116171008D01*
X120404999Y-116188072D01*
X121655001Y-116188072D01*
X121828255Y-116171008D01*
X121994851Y-116120472D01*
X122148387Y-116038405D01*
X122282962Y-115927962D01*
X122393405Y-115793387D01*
X122475472Y-115639851D01*
X122526008Y-115473255D01*
X122543072Y-115300001D01*
X122543072Y-114599999D01*
X122526008Y-114426745D01*
X122475472Y-114260149D01*
X122393405Y-114106613D01*
X122282962Y-113972038D01*
X122277934Y-113967911D01*
X125565000Y-113967911D01*
X125565000Y-114152089D01*
X125600932Y-114332729D01*
X125671414Y-114502889D01*
X125773738Y-114656028D01*
X125903972Y-114786262D01*
X126057111Y-114888586D01*
X126227271Y-114959068D01*
X126407911Y-114995000D01*
X126592089Y-114995000D01*
X126772729Y-114959068D01*
X126942889Y-114888586D01*
X127096028Y-114786262D01*
X127226262Y-114656028D01*
X127328586Y-114502889D01*
X127399068Y-114332729D01*
X127435000Y-114152089D01*
X127435000Y-113967911D01*
X127399068Y-113787271D01*
X127328586Y-113617111D01*
X127287085Y-113555000D01*
X127312089Y-113555000D01*
X127492729Y-113519068D01*
X127662889Y-113448586D01*
X127816028Y-113346262D01*
X127946262Y-113216028D01*
X128048586Y-113062889D01*
X128119068Y-112892729D01*
X128149935Y-112737549D01*
X131760362Y-112737549D01*
X131760362Y-112921727D01*
X131796294Y-113102367D01*
X131866776Y-113272527D01*
X131969100Y-113425666D01*
X132099334Y-113555900D01*
X132252473Y-113658224D01*
X132422633Y-113728706D01*
X132603273Y-113764638D01*
X132787451Y-113764638D01*
X132968091Y-113728706D01*
X133138251Y-113658224D01*
X133291390Y-113555900D01*
X133421624Y-113425666D01*
X133523948Y-113272527D01*
X133594430Y-113102367D01*
X133630362Y-112921727D01*
X133630362Y-112737549D01*
X133594430Y-112556909D01*
X133523948Y-112386749D01*
X133421624Y-112233610D01*
X133291390Y-112103376D01*
X133138251Y-112001052D01*
X132968091Y-111930570D01*
X132787451Y-111894638D01*
X132603273Y-111894638D01*
X132422633Y-111930570D01*
X132252473Y-112001052D01*
X132099334Y-112103376D01*
X131969100Y-112233610D01*
X131866776Y-112386749D01*
X131796294Y-112556909D01*
X131760362Y-112737549D01*
X128149935Y-112737549D01*
X128155000Y-112712089D01*
X128155000Y-112527911D01*
X128119068Y-112347271D01*
X128048586Y-112177111D01*
X127946262Y-112023972D01*
X127816028Y-111893738D01*
X127662889Y-111791414D01*
X127492729Y-111720932D01*
X127427269Y-111707911D01*
X129065000Y-111707911D01*
X129065000Y-111892089D01*
X129100932Y-112072729D01*
X129171414Y-112242889D01*
X129273738Y-112396028D01*
X129403972Y-112526262D01*
X129557111Y-112628586D01*
X129727271Y-112699068D01*
X129907911Y-112735000D01*
X130092089Y-112735000D01*
X130272729Y-112699068D01*
X130442889Y-112628586D01*
X130596028Y-112526262D01*
X130726262Y-112396028D01*
X130828586Y-112242889D01*
X130899068Y-112072729D01*
X130935000Y-111892089D01*
X130935000Y-111707911D01*
X130899068Y-111527271D01*
X130828586Y-111357111D01*
X130726262Y-111203972D01*
X130610201Y-111087911D01*
X134115000Y-111087911D01*
X134115000Y-111272089D01*
X134150932Y-111452729D01*
X134221414Y-111622889D01*
X134323738Y-111776028D01*
X134453972Y-111906262D01*
X134607111Y-112008586D01*
X134777271Y-112079068D01*
X134957911Y-112115000D01*
X135015000Y-112115000D01*
X135015000Y-112157089D01*
X135050932Y-112337729D01*
X135121414Y-112507889D01*
X135223738Y-112661028D01*
X135327710Y-112765000D01*
X135223738Y-112868972D01*
X135121414Y-113022111D01*
X135050932Y-113192271D01*
X135015000Y-113372911D01*
X135015000Y-113557089D01*
X135050932Y-113737729D01*
X135121414Y-113907889D01*
X135223738Y-114061028D01*
X135353972Y-114191262D01*
X135507111Y-114293586D01*
X135677271Y-114364068D01*
X135857911Y-114400000D01*
X136042089Y-114400000D01*
X136222729Y-114364068D01*
X136392889Y-114293586D01*
X136546028Y-114191262D01*
X136650000Y-114087290D01*
X136727710Y-114165000D01*
X136623738Y-114268972D01*
X136521414Y-114422111D01*
X136450932Y-114592271D01*
X136415000Y-114772911D01*
X136415000Y-114957089D01*
X136450932Y-115137729D01*
X136521414Y-115307889D01*
X136623738Y-115461028D01*
X136753972Y-115591262D01*
X136907111Y-115693586D01*
X137077271Y-115764068D01*
X137257911Y-115800000D01*
X137442089Y-115800000D01*
X137622729Y-115764068D01*
X137792889Y-115693586D01*
X137946028Y-115591262D01*
X138050000Y-115487290D01*
X138153972Y-115591262D01*
X138307111Y-115693586D01*
X138477271Y-115764068D01*
X138645000Y-115797432D01*
X138645000Y-115852089D01*
X138680932Y-116032729D01*
X138751414Y-116202889D01*
X138853738Y-116356028D01*
X138983972Y-116486262D01*
X139137111Y-116588586D01*
X139307271Y-116659068D01*
X139487911Y-116695000D01*
X139672089Y-116695000D01*
X139852729Y-116659068D01*
X140022889Y-116588586D01*
X140176028Y-116486262D01*
X140306262Y-116356028D01*
X140408586Y-116202889D01*
X140479068Y-116032729D01*
X140515000Y-115852089D01*
X140515000Y-115667911D01*
X140479068Y-115487271D01*
X140408586Y-115317111D01*
X140306262Y-115163972D01*
X140176028Y-115033738D01*
X140022889Y-114931414D01*
X139852729Y-114860932D01*
X139685000Y-114827568D01*
X139685000Y-114772911D01*
X139649068Y-114592271D01*
X139578586Y-114422111D01*
X139476262Y-114268972D01*
X139372290Y-114165000D01*
X139476262Y-114061028D01*
X139578586Y-113907889D01*
X139649068Y-113737729D01*
X139685000Y-113557089D01*
X139685000Y-113492912D01*
X141015000Y-113492912D01*
X141015000Y-113677090D01*
X141050932Y-113857730D01*
X141121414Y-114027890D01*
X141223738Y-114181029D01*
X141353972Y-114311263D01*
X141507111Y-114413587D01*
X141677271Y-114484069D01*
X141857911Y-114520001D01*
X142042089Y-114520001D01*
X142222729Y-114484069D01*
X142392889Y-114413587D01*
X142546028Y-114311263D01*
X142595053Y-114262238D01*
X142810673Y-114262238D01*
X142810673Y-114446416D01*
X142846605Y-114627056D01*
X142917087Y-114797216D01*
X143019411Y-114950355D01*
X143149645Y-115080589D01*
X143302784Y-115182913D01*
X143472944Y-115253395D01*
X143653584Y-115289327D01*
X143837762Y-115289327D01*
X144018402Y-115253395D01*
X144188562Y-115182913D01*
X144341701Y-115080589D01*
X144471935Y-114950355D01*
X144574259Y-114797216D01*
X144644741Y-114627056D01*
X144680673Y-114446416D01*
X144680673Y-114262238D01*
X144644741Y-114081598D01*
X144574259Y-113911438D01*
X144471935Y-113758299D01*
X144341701Y-113628065D01*
X144188562Y-113525741D01*
X144018402Y-113455259D01*
X143837762Y-113419327D01*
X143653584Y-113419327D01*
X143472944Y-113455259D01*
X143302784Y-113525741D01*
X143149645Y-113628065D01*
X143019411Y-113758299D01*
X142917087Y-113911438D01*
X142846605Y-114081598D01*
X142810673Y-114262238D01*
X142595053Y-114262238D01*
X142676262Y-114181029D01*
X142778586Y-114027890D01*
X142849068Y-113857730D01*
X142885000Y-113677090D01*
X142885000Y-113492912D01*
X142849068Y-113312272D01*
X142778586Y-113142112D01*
X142676262Y-112988973D01*
X142546028Y-112858739D01*
X142392889Y-112756415D01*
X142222729Y-112685933D01*
X142042089Y-112650001D01*
X141857911Y-112650001D01*
X141677271Y-112685933D01*
X141507111Y-112756415D01*
X141353972Y-112858739D01*
X141223738Y-112988973D01*
X141121414Y-113142112D01*
X141050932Y-113312272D01*
X141015000Y-113492912D01*
X139685000Y-113492912D01*
X139685000Y-113372911D01*
X139649068Y-113192271D01*
X139578586Y-113022111D01*
X139476262Y-112868972D01*
X139372290Y-112765000D01*
X139476262Y-112661028D01*
X139578586Y-112507889D01*
X139649068Y-112337729D01*
X139685000Y-112157089D01*
X139685000Y-112055000D01*
X139762089Y-112055000D01*
X139942729Y-112019068D01*
X140112889Y-111948586D01*
X140266028Y-111846262D01*
X140396262Y-111716028D01*
X140498586Y-111562889D01*
X140569068Y-111392729D01*
X140605000Y-111212089D01*
X140605000Y-111027911D01*
X140569068Y-110847271D01*
X140498586Y-110677111D01*
X140396262Y-110523972D01*
X140266028Y-110393738D01*
X140112889Y-110291414D01*
X139942729Y-110220932D01*
X139762089Y-110185000D01*
X139577911Y-110185000D01*
X139397271Y-110220932D01*
X139227111Y-110291414D01*
X139073972Y-110393738D01*
X138943738Y-110523972D01*
X138841414Y-110677111D01*
X138770932Y-110847271D01*
X138735000Y-111027911D01*
X138735000Y-111130000D01*
X138657911Y-111130000D01*
X138477271Y-111165932D01*
X138307111Y-111236414D01*
X138153972Y-111338738D01*
X138050000Y-111442710D01*
X137946028Y-111338738D01*
X137792889Y-111236414D01*
X137622729Y-111165932D01*
X137442089Y-111130000D01*
X137257911Y-111130000D01*
X137077271Y-111165932D01*
X136907111Y-111236414D01*
X136753972Y-111338738D01*
X136650000Y-111442710D01*
X136546028Y-111338738D01*
X136392889Y-111236414D01*
X136222729Y-111165932D01*
X136042089Y-111130000D01*
X135985000Y-111130000D01*
X135985000Y-111087911D01*
X135949068Y-110907271D01*
X135878586Y-110737111D01*
X135776262Y-110583972D01*
X135646028Y-110453738D01*
X135492889Y-110351414D01*
X135322729Y-110280932D01*
X135142089Y-110245000D01*
X134957911Y-110245000D01*
X134777271Y-110280932D01*
X134607111Y-110351414D01*
X134453972Y-110453738D01*
X134323738Y-110583972D01*
X134221414Y-110737111D01*
X134150932Y-110907271D01*
X134115000Y-111087911D01*
X130610201Y-111087911D01*
X130596028Y-111073738D01*
X130442889Y-110971414D01*
X130272729Y-110900932D01*
X130092089Y-110865000D01*
X129907911Y-110865000D01*
X129727271Y-110900932D01*
X129557111Y-110971414D01*
X129403972Y-111073738D01*
X129273738Y-111203972D01*
X129171414Y-111357111D01*
X129100932Y-111527271D01*
X129065000Y-111707911D01*
X127427269Y-111707911D01*
X127312089Y-111685000D01*
X127127911Y-111685000D01*
X126947271Y-111720932D01*
X126777111Y-111791414D01*
X126623972Y-111893738D01*
X126493738Y-112023972D01*
X126391414Y-112177111D01*
X126320932Y-112347271D01*
X126285000Y-112527911D01*
X126285000Y-112712089D01*
X126320932Y-112892729D01*
X126391414Y-113062889D01*
X126432915Y-113125000D01*
X126407911Y-113125000D01*
X126227271Y-113160932D01*
X126057111Y-113231414D01*
X125903972Y-113333738D01*
X125773738Y-113463972D01*
X125671414Y-113617111D01*
X125600932Y-113787271D01*
X125565000Y-113967911D01*
X122277934Y-113967911D01*
X122148387Y-113861595D01*
X122143889Y-113859191D01*
X122182502Y-113827502D01*
X122336833Y-113639449D01*
X122451511Y-113424901D01*
X122522130Y-113192102D01*
X122545975Y-112950000D01*
X122522130Y-112707898D01*
X122451511Y-112475099D01*
X122336833Y-112260551D01*
X122182502Y-112072498D01*
X122033238Y-111950000D01*
X122182502Y-111827502D01*
X122336833Y-111639449D01*
X122451511Y-111424901D01*
X122522130Y-111192102D01*
X122545975Y-110950000D01*
X122522130Y-110707898D01*
X122451511Y-110475099D01*
X122336833Y-110260551D01*
X122182502Y-110072498D01*
X121994449Y-109918167D01*
X121779901Y-109803489D01*
X121547102Y-109732870D01*
X121365665Y-109715000D01*
X120694335Y-109715000D01*
X120512898Y-109732870D01*
X120280099Y-109803489D01*
X120065551Y-109918167D01*
X119877498Y-110072498D01*
X119723167Y-110260551D01*
X119608489Y-110475099D01*
X119537870Y-110707898D01*
X119514025Y-110950000D01*
X116584990Y-110950000D01*
X116585975Y-110940000D01*
X116562130Y-110697898D01*
X116491511Y-110465099D01*
X116376833Y-110250551D01*
X116222502Y-110062498D01*
X116034449Y-109908167D01*
X115819901Y-109793489D01*
X115587102Y-109722870D01*
X115405665Y-109705000D01*
X114734335Y-109705000D01*
X114552898Y-109722870D01*
X114320099Y-109793489D01*
X114105551Y-109908167D01*
X113917498Y-110062498D01*
X113763167Y-110250551D01*
X113648489Y-110465099D01*
X113577870Y-110697898D01*
X113554025Y-110940000D01*
X113380000Y-110940000D01*
X113380000Y-105899721D01*
X124265000Y-105899721D01*
X124265000Y-106320279D01*
X124347047Y-106732756D01*
X124507988Y-107121302D01*
X124741637Y-107470983D01*
X125039017Y-107768363D01*
X125388698Y-108002012D01*
X125777244Y-108162953D01*
X126189721Y-108245000D01*
X126610279Y-108245000D01*
X127022756Y-108162953D01*
X127411302Y-108002012D01*
X127760983Y-107768363D01*
X127971435Y-107557911D01*
X131040000Y-107557911D01*
X131040000Y-107742089D01*
X131075932Y-107922729D01*
X131146414Y-108092889D01*
X131248738Y-108246028D01*
X131378972Y-108376262D01*
X131532111Y-108478586D01*
X131702271Y-108549068D01*
X131882911Y-108585000D01*
X131934862Y-108585000D01*
X131875932Y-108727271D01*
X131840000Y-108907911D01*
X131840000Y-109092089D01*
X131875932Y-109272729D01*
X131946414Y-109442889D01*
X132048738Y-109596028D01*
X132178972Y-109726262D01*
X132332111Y-109828586D01*
X132502271Y-109899068D01*
X132682911Y-109935000D01*
X132867089Y-109935000D01*
X133047729Y-109899068D01*
X133217889Y-109828586D01*
X133371028Y-109726262D01*
X133501262Y-109596028D01*
X133603586Y-109442889D01*
X133674068Y-109272729D01*
X133710000Y-109092089D01*
X133710000Y-108907911D01*
X133674068Y-108727271D01*
X133603586Y-108557111D01*
X133501262Y-108403972D01*
X133371028Y-108273738D01*
X133217889Y-108171414D01*
X133047729Y-108100932D01*
X132867089Y-108065000D01*
X132815138Y-108065000D01*
X132874068Y-107922729D01*
X132910000Y-107742089D01*
X132910000Y-107557911D01*
X132874068Y-107377271D01*
X132803586Y-107207111D01*
X132701262Y-107053972D01*
X132571028Y-106923738D01*
X132417889Y-106821414D01*
X132247729Y-106750932D01*
X132067089Y-106715000D01*
X131882911Y-106715000D01*
X131702271Y-106750932D01*
X131532111Y-106821414D01*
X131378972Y-106923738D01*
X131248738Y-107053972D01*
X131146414Y-107207111D01*
X131075932Y-107377271D01*
X131040000Y-107557911D01*
X127971435Y-107557911D01*
X128058363Y-107470983D01*
X128292012Y-107121302D01*
X128452953Y-106732756D01*
X128535000Y-106320279D01*
X128535000Y-105899721D01*
X128452953Y-105487244D01*
X128292012Y-105098698D01*
X128058363Y-104749017D01*
X127760983Y-104451637D01*
X127411302Y-104217988D01*
X127022756Y-104057047D01*
X126610279Y-103975000D01*
X126189721Y-103975000D01*
X125777244Y-104057047D01*
X125388698Y-104217988D01*
X125039017Y-104451637D01*
X124741637Y-104749017D01*
X124507988Y-105098698D01*
X124347047Y-105487244D01*
X124265000Y-105899721D01*
X113380000Y-105899721D01*
X113380000Y-101752237D01*
X113380017Y-101752063D01*
X113380000Y-101720511D01*
X113380000Y-101687581D01*
X113379982Y-101687400D01*
X113372069Y-86999721D01*
X124265000Y-86999721D01*
X124265000Y-87420279D01*
X124347047Y-87832756D01*
X124507988Y-88221302D01*
X124741637Y-88570983D01*
X125039017Y-88868363D01*
X125388698Y-89102012D01*
X125777244Y-89262953D01*
X126189721Y-89345000D01*
X126610279Y-89345000D01*
X127022756Y-89262953D01*
X127411302Y-89102012D01*
X127760983Y-88868363D01*
X128058363Y-88570983D01*
X128292012Y-88221302D01*
X128452953Y-87832756D01*
X128535000Y-87420279D01*
X128535000Y-86999721D01*
X128452953Y-86587244D01*
X128292012Y-86198698D01*
X128058363Y-85849017D01*
X127760983Y-85551637D01*
X127496411Y-85374856D01*
X127503429Y-85357911D01*
X142015000Y-85357911D01*
X142015000Y-85542089D01*
X142050932Y-85722729D01*
X142121414Y-85892889D01*
X142223738Y-86046028D01*
X142353972Y-86176262D01*
X142507111Y-86278586D01*
X142677271Y-86349068D01*
X142857911Y-86385000D01*
X143042089Y-86385000D01*
X143222729Y-86349068D01*
X143392889Y-86278586D01*
X143546028Y-86176262D01*
X143676262Y-86046028D01*
X143778586Y-85892889D01*
X143849068Y-85722729D01*
X143885000Y-85542089D01*
X143885000Y-85357911D01*
X143849068Y-85177271D01*
X143778586Y-85007111D01*
X143676262Y-84853972D01*
X143546028Y-84723738D01*
X143392889Y-84621414D01*
X143222729Y-84550932D01*
X143042089Y-84515000D01*
X142857911Y-84515000D01*
X142677271Y-84550932D01*
X142507111Y-84621414D01*
X142353972Y-84723738D01*
X142223738Y-84853972D01*
X142121414Y-85007111D01*
X142050932Y-85177271D01*
X142015000Y-85357911D01*
X127503429Y-85357911D01*
X127549068Y-85247729D01*
X127585000Y-85067089D01*
X127585000Y-84882911D01*
X127549068Y-84702271D01*
X127478586Y-84532111D01*
X127376262Y-84378972D01*
X127246028Y-84248738D01*
X127092889Y-84146414D01*
X126922729Y-84075932D01*
X126742089Y-84040000D01*
X126557911Y-84040000D01*
X126377271Y-84075932D01*
X126207111Y-84146414D01*
X126053972Y-84248738D01*
X125923738Y-84378972D01*
X125821414Y-84532111D01*
X125750932Y-84702271D01*
X125715000Y-84882911D01*
X125715000Y-85067089D01*
X125736270Y-85174019D01*
X125388698Y-85317988D01*
X125039017Y-85551637D01*
X124741637Y-85849017D01*
X124507988Y-86198698D01*
X124347047Y-86587244D01*
X124265000Y-86999721D01*
X113372069Y-86999721D01*
X113371000Y-85017331D01*
X113401399Y-85062826D01*
X113817174Y-85478601D01*
X114306072Y-85805273D01*
X114849308Y-86030288D01*
X115426003Y-86145000D01*
X116013997Y-86145000D01*
X116590692Y-86030288D01*
X117133928Y-85805273D01*
X117622826Y-85478601D01*
X118038601Y-85062826D01*
X118365273Y-84573928D01*
X118590288Y-84030692D01*
X118704221Y-83457910D01*
X133455000Y-83457910D01*
X133455000Y-83642088D01*
X133490932Y-83822728D01*
X133561414Y-83992888D01*
X133663738Y-84146027D01*
X133793972Y-84276261D01*
X133947111Y-84378585D01*
X134117271Y-84449067D01*
X134297911Y-84484999D01*
X134482089Y-84484999D01*
X134662729Y-84449067D01*
X134832889Y-84378585D01*
X134986028Y-84276261D01*
X135116262Y-84146027D01*
X135218586Y-83992888D01*
X135289068Y-83822728D01*
X135325000Y-83642088D01*
X135325000Y-83457910D01*
X135289068Y-83277270D01*
X135218586Y-83107110D01*
X135116262Y-82953971D01*
X134986028Y-82823737D01*
X134832889Y-82721413D01*
X134662729Y-82650931D01*
X134572138Y-82632911D01*
X135865000Y-82632911D01*
X135865000Y-82817089D01*
X135900932Y-82997729D01*
X135971414Y-83167889D01*
X136073738Y-83321028D01*
X136203972Y-83451262D01*
X136357111Y-83553586D01*
X136527271Y-83624068D01*
X136707911Y-83660000D01*
X136892089Y-83660000D01*
X137072729Y-83624068D01*
X137242889Y-83553586D01*
X137396028Y-83451262D01*
X137526262Y-83321028D01*
X137628586Y-83167889D01*
X137699068Y-82997729D01*
X137735000Y-82817089D01*
X137735000Y-82632911D01*
X137699068Y-82452271D01*
X137628586Y-82282111D01*
X137526262Y-82128972D01*
X137396028Y-81998738D01*
X137242889Y-81896414D01*
X137072729Y-81825932D01*
X136892089Y-81790000D01*
X136707911Y-81790000D01*
X136527271Y-81825932D01*
X136357111Y-81896414D01*
X136203972Y-81998738D01*
X136073738Y-82128972D01*
X135971414Y-82282111D01*
X135900932Y-82452271D01*
X135865000Y-82632911D01*
X134572138Y-82632911D01*
X134482089Y-82614999D01*
X134297911Y-82614999D01*
X134117271Y-82650931D01*
X133947111Y-82721413D01*
X133793972Y-82823737D01*
X133663738Y-82953971D01*
X133561414Y-83107110D01*
X133490932Y-83277270D01*
X133455000Y-83457910D01*
X118704221Y-83457910D01*
X118705000Y-83453997D01*
X118705000Y-82866003D01*
X118590288Y-82289308D01*
X118365273Y-81746072D01*
X118038601Y-81257174D01*
X117622826Y-80841399D01*
X117590320Y-80819679D01*
X122882730Y-80818779D01*
X122865000Y-80907911D01*
X122865000Y-81092089D01*
X122900932Y-81272729D01*
X122971414Y-81442889D01*
X123073738Y-81596028D01*
X123203972Y-81726262D01*
X123357111Y-81828586D01*
X123527271Y-81899068D01*
X123707911Y-81935000D01*
X123892089Y-81935000D01*
X124072729Y-81899068D01*
X124242889Y-81828586D01*
X124396028Y-81726262D01*
X124526262Y-81596028D01*
X124628586Y-81442889D01*
X124699068Y-81272729D01*
X124735000Y-81092089D01*
X124735000Y-80907911D01*
X124717208Y-80818466D01*
X133798268Y-80816920D01*
X133771414Y-80857111D01*
X133700932Y-81027271D01*
X133665000Y-81207911D01*
X133665000Y-81392089D01*
X133700932Y-81572729D01*
X133771414Y-81742889D01*
X133873738Y-81896028D01*
X134003972Y-82026262D01*
X134157111Y-82128586D01*
X134327271Y-82199068D01*
X134507911Y-82235000D01*
X134692089Y-82235000D01*
X134872729Y-82199068D01*
X135042889Y-82128586D01*
X135196028Y-82026262D01*
X135326262Y-81896028D01*
X135428586Y-81742889D01*
X135483531Y-81610240D01*
X135577271Y-81649068D01*
X135757911Y-81685000D01*
X135942089Y-81685000D01*
X136122729Y-81649068D01*
X136292889Y-81578586D01*
X136446028Y-81476262D01*
X136576262Y-81346028D01*
X136678586Y-81192889D01*
X136749068Y-81022729D01*
X136785000Y-80842089D01*
X136785000Y-80816412D01*
X141265396Y-80815649D01*
X141255000Y-80867911D01*
X141255000Y-81052089D01*
X141290932Y-81232729D01*
X141361414Y-81402889D01*
X141463738Y-81556028D01*
X141593972Y-81686262D01*
X141747111Y-81788586D01*
X141917271Y-81859068D01*
X142097911Y-81895000D01*
X142282089Y-81895000D01*
X142462729Y-81859068D01*
X142632889Y-81788586D01*
X142786028Y-81686262D01*
X142916262Y-81556028D01*
X143018586Y-81402889D01*
X143089068Y-81232729D01*
X143125000Y-81052089D01*
X143125000Y-80867911D01*
X143114542Y-80815335D01*
X145573000Y-80814916D01*
X145573000Y-87346809D01*
G04 #@! TD*
M02*
