G04 #@! TF.GenerationSoftware,KiCad,Pcbnew,5.1.6-c6e7f7d~87~ubuntu19.10.1*
G04 #@! TF.CreationDate,2021-03-15T12:51:18-04:00*
G04 #@! TF.ProjectId,icarus,69636172-7573-42e6-9b69-6361645f7063,V1.0*
G04 #@! TF.SameCoordinates,Original*
G04 #@! TF.FileFunction,Soldermask,Bot*
G04 #@! TF.FilePolarity,Negative*
%FSLAX46Y46*%
G04 Gerber Fmt 4.6, Leading zero omitted, Abs format (unit mm)*
G04 Created by KiCad (PCBNEW 5.1.6-c6e7f7d~87~ubuntu19.10.1) date 2021-03-15 12:51:18*
%MOMM*%
%LPD*%
G01*
G04 APERTURE LIST*
%ADD10C,4.817600*%
%ADD11C,3.101600*%
%ADD12O,1.150000X1.350000*%
%ADD13O,1.100000X2.000000*%
%ADD14C,4.800000*%
%ADD15O,1.300000X1.850000*%
%ADD16O,1.850000X1.300000*%
G04 APERTURE END LIST*
D10*
G04 #@! TO.C,U4*
X135800000Y-91210000D03*
X135800000Y-102110000D03*
D11*
X126400000Y-106110000D03*
X126400000Y-87210000D03*
G04 #@! TD*
D12*
G04 #@! TO.C,J4*
X121355000Y-119930000D03*
X125805000Y-119930000D03*
D13*
X119405000Y-122930000D03*
X127755000Y-122930000D03*
G04 #@! TD*
D14*
G04 #@! TO.C,H1*
X115720000Y-121410000D03*
G04 #@! TD*
G04 #@! TO.C,H2*
X174465000Y-83160000D03*
G04 #@! TD*
G04 #@! TO.C,H3*
X174465000Y-121420000D03*
G04 #@! TD*
G04 #@! TO.C,H4*
X115720000Y-83160000D03*
G04 #@! TD*
G04 #@! TO.C,J3*
G36*
G01*
X130650000Y-121654168D02*
X130650000Y-120345832D01*
G75*
G02*
X130920832Y-120075000I270832J0D01*
G01*
X131679168Y-120075000D01*
G75*
G02*
X131950000Y-120345832I0J-270832D01*
G01*
X131950000Y-121654168D01*
G75*
G02*
X131679168Y-121925000I-270832J0D01*
G01*
X130920832Y-121925000D01*
G75*
G02*
X130650000Y-121654168I0J270832D01*
G01*
G37*
D15*
X133300000Y-121000000D03*
X135300000Y-121000000D03*
X137300000Y-121000000D03*
X139300000Y-121000000D03*
X141300000Y-121000000D03*
G04 #@! TD*
D11*
G04 #@! TO.C,U6*
X174175000Y-104800000D03*
X174175000Y-99800000D03*
G04 #@! TD*
G04 #@! TO.C,U7*
X174125000Y-110950000D03*
X174125000Y-115950000D03*
G04 #@! TD*
G04 #@! TO.C,U9*
X167950000Y-115925000D03*
X167950000Y-110925000D03*
G04 #@! TD*
G04 #@! TO.C,U10*
X174175000Y-88680000D03*
X174175000Y-93680000D03*
G04 #@! TD*
G04 #@! TO.C,U11*
X167950000Y-104775000D03*
X167950000Y-99775000D03*
G04 #@! TD*
G04 #@! TO.C,U12*
X167950000Y-88655000D03*
X167950000Y-93655000D03*
G04 #@! TD*
G04 #@! TO.C,J1*
G36*
G01*
X121684168Y-115600000D02*
X120375832Y-115600000D01*
G75*
G02*
X120105000Y-115329168I0J270832D01*
G01*
X120105000Y-114570832D01*
G75*
G02*
X120375832Y-114300000I270832J0D01*
G01*
X121684168Y-114300000D01*
G75*
G02*
X121955000Y-114570832I0J-270832D01*
G01*
X121955000Y-115329168D01*
G75*
G02*
X121684168Y-115600000I-270832J0D01*
G01*
G37*
D16*
X121030000Y-112950000D03*
X121030000Y-110950000D03*
G04 #@! TD*
G04 #@! TO.C,J2*
X115070000Y-110940000D03*
X115070000Y-112940000D03*
G36*
G01*
X115724168Y-115590000D02*
X114415832Y-115590000D01*
G75*
G02*
X114145000Y-115319168I0J270832D01*
G01*
X114145000Y-114560832D01*
G75*
G02*
X114415832Y-114290000I270832J0D01*
G01*
X115724168Y-114290000D01*
G75*
G02*
X115995000Y-114560832I0J-270832D01*
G01*
X115995000Y-115319168D01*
G75*
G02*
X115724168Y-115590000I-270832J0D01*
G01*
G37*
G04 #@! TD*
M02*
