M48
; DRILL file {KiCad 5.1.6-c6e7f7d~87~ubuntu19.10.1} date Wed Mar 17 15:36:04 2021
; FORMAT={-:-/ absolute / inch / decimal}
; #@! TF.CreationDate,2021-03-17T15:36:04-04:00
; #@! TF.GenerationSoftware,Kicad,Pcbnew,5.1.6-c6e7f7d~87~ubuntu19.10.1
; #@! TF.FileFunction,Plated,1,4,PTH
FMAT,2
INCH
T1C0.0118
T2C0.0157
T3C0.0236
T4C0.0256
T5C0.0295
T6C0.0787
T7C0.1063
T8C0.1457
%
G90
G05
T1
X4.6925Y-3.3559
X4.7823Y-3.3559
X4.8142Y-4.6791
X4.8699Y-4.6222
X4.874Y-3.189
X4.902Y-3.3736
X4.9689Y-4.5028
X4.9862Y-3.3455
X4.9961Y-4.748
X4.9972Y-4.4461
X5.0453Y-4.0256
X5.0482Y-3.375
X5.0512Y-3.3051
X5.0669Y-3.998
X5.0669Y-4.0492
X5.0787Y-3.374
X5.0797Y-3.3041
X5.1035Y-4.5016
X5.1039Y-4.3476
X5.1047Y-4.4469
X5.1067Y-4.4138
X5.1073Y-3.3041
X5.1093Y-3.377
X5.1122Y-4.3016
X5.1319Y-3.3061
X5.1358Y-3.3741
X5.1673Y-3.6004
X5.2425Y-4.2161
X5.2697Y-3.3976
X5.2772Y-4.3121
X5.2839Y-4.2177
X5.2909Y-3.2894
X5.2992Y-3.2008
X5.3291Y-4.3378
X5.3346Y-3.3976
X5.3484Y-3.1791
X5.3594Y-4.2004
X5.374Y-3.3996
X5.3858Y-3.2569
X5.3874Y-4.3374
X5.3972Y-4.2016
X5.4476Y-4.1654
X5.4701Y-4.5492
X5.5118Y-4.5535
X5.5728Y-3.4639
X5.598Y-3.1874
X5.628Y-3.3642
X5.6583Y-4.0488
X5.7315Y-3.2921
X5.7411Y-3.4744
X5.75Y-4.8307
X5.7638Y-4.8031
X5.7638Y-4.8543
X5.8705Y-4.8654
X5.8736Y-4.8335
X5.876Y-4.8035
X6.1189Y-4.8201
X6.1252Y-4.7425
X6.228Y-4.6943
X6.3075Y-4.8177
X6.3094Y-4.7417
X6.3248Y-4.6673
X6.3484Y-4.7776
X6.374Y-4.7776
X6.4055Y-3.4016
X6.4213Y-4.7835
X6.4469Y-4.7835
X6.4724Y-4.7835
T2
X5.1689Y-4.5551
X5.1736Y-4.5953
X5.2004Y-3.4083
X5.2071Y-4.6461
X5.2177Y-4.3524
X5.4472Y-4.361
X5.5378Y-4.5803
X5.5469Y-4.539
X5.5799Y-4.6016
X5.6447Y-4.6736
X5.7262Y-3.5048
X5.824Y-3.6701
X5.8453Y-4.1622
X5.9028Y-3.6701
X5.9122Y-4.1622
X5.9776Y-3.6701
X5.9791Y-4.1622
X6.0453Y-4.1622
X6.0484Y-3.6701
X6.1071Y-4.1622
X6.1118Y-3.6701
T5
X4.5303Y-4.3677
X4.5303Y-4.4465
X4.5303Y-4.5252
X5.1693Y-4.7638
X5.248Y-4.7638
X5.3268Y-4.7638
X5.4055Y-4.7638
X5.4843Y-4.7638
X5.563Y-4.7638
X4.765Y-4.3681
X4.765Y-4.4469
X4.765Y-4.5256
T6
X6.6122Y-4.3671
X6.6122Y-4.564
X6.6122Y-3.9281
X6.6122Y-4.125
X6.8553Y-4.3681
X6.8553Y-4.565
X4.9764Y-3.4335
X4.9764Y-4.1776
X6.8573Y-3.9291
X6.8573Y-4.126
X6.6122Y-3.4904
X6.6122Y-3.6872
X6.8573Y-3.4913
X6.8573Y-3.6882
T7
X4.5559Y-4.7799
X6.8687Y-3.274
X4.5559Y-3.274
X6.8687Y-4.7803
T8
X5.3465Y-3.5909
X5.3465Y-4.0201
T3
G00X4.701Y-4.826
M15
G01X4.701Y-4.8535
M16
G05
G00X5.0297Y-4.826
M15
G01X5.0297Y-4.8535
M16
G05
T4
G00X4.7778Y-4.7177
M15
G01X4.7778Y-4.7256
M16
G05
G00X4.953Y-4.7177
M15
G01X4.953Y-4.7256
M16
G05
T0
M30
