G04 #@! TF.GenerationSoftware,KiCad,Pcbnew,5.1.6-c6e7f7d~87~ubuntu19.10.1*
G04 #@! TF.CreationDate,2021-03-17T15:36:07-04:00*
G04 #@! TF.ProjectId,icarus,69636172-7573-42e6-9b69-6361645f7063,V1.0*
G04 #@! TF.SameCoordinates,Original*
G04 #@! TF.FileFunction,Copper,L3,Inr*
G04 #@! TF.FilePolarity,Positive*
%FSLAX46Y46*%
G04 Gerber Fmt 4.6, Leading zero omitted, Abs format (unit mm)*
G04 Created by KiCad (PCBNEW 5.1.6-c6e7f7d~87~ubuntu19.10.1) date 2021-03-17 15:36:07*
%MOMM*%
%LPD*%
G01*
G04 APERTURE LIST*
G04 #@! TA.AperFunction,ViaPad*
%ADD10O,1.200000X1.750000*%
G04 #@! TD*
G04 #@! TA.AperFunction,ViaPad*
%ADD11C,4.716000*%
G04 #@! TD*
G04 #@! TA.AperFunction,ViaPad*
%ADD12C,3.000000*%
G04 #@! TD*
G04 #@! TA.AperFunction,ViaPad*
%ADD13O,1.050000X1.250000*%
G04 #@! TD*
G04 #@! TA.AperFunction,ViaPad*
%ADD14O,1.000000X1.900000*%
G04 #@! TD*
G04 #@! TA.AperFunction,ViaPad*
%ADD15C,4.700000*%
G04 #@! TD*
G04 #@! TA.AperFunction,ViaPad*
%ADD16O,1.750000X1.200000*%
G04 #@! TD*
G04 #@! TA.AperFunction,ViaPad*
%ADD17C,0.600000*%
G04 #@! TD*
G04 #@! TA.AperFunction,ViaPad*
%ADD18C,0.800000*%
G04 #@! TD*
G04 #@! TA.AperFunction,Conductor*
%ADD19C,0.254000*%
G04 #@! TD*
G04 APERTURE END LIST*
G04 #@! TO.N,+3V3*
G04 #@! TO.C,J3*
G04 #@! TA.AperFunction,ViaPad*
G36*
G01*
X130700000Y-121625001D02*
X130700000Y-120374999D01*
G75*
G02*
X130949999Y-120125000I249999J0D01*
G01*
X131650001Y-120125000D01*
G75*
G02*
X131900000Y-120374999I0J-249999D01*
G01*
X131900000Y-121625001D01*
G75*
G02*
X131650001Y-121875000I-249999J0D01*
G01*
X130949999Y-121875000D01*
G75*
G02*
X130700000Y-121625001I0J249999D01*
G01*
G37*
G04 #@! TD.AperFunction*
D10*
G04 #@! TO.N,SWO*
X133300000Y-121000000D03*
G04 #@! TO.N,SWDIO*
X135300000Y-121000000D03*
G04 #@! TO.N,SWCLK*
X137300000Y-121000000D03*
G04 #@! TO.N,NRST*
X139300000Y-121000000D03*
G04 #@! TO.N,GND*
X141300000Y-121000000D03*
G04 #@! TD*
D11*
G04 #@! TO.N,VSENSE_HIGH*
G04 #@! TO.C,U4*
X135800000Y-91210000D03*
G04 #@! TO.N,GNDPWR*
X135800000Y-102110000D03*
D12*
G04 #@! TO.N,N/C*
X126400000Y-106110000D03*
X126400000Y-87210000D03*
G04 #@! TD*
D13*
G04 #@! TO.N,Net-(J4-Pad6)*
G04 #@! TO.C,J4*
X121355000Y-119930000D03*
X125805000Y-119930000D03*
D14*
X119405000Y-122930000D03*
X127755000Y-122930000D03*
G04 #@! TD*
D15*
G04 #@! TO.N,GND*
G04 #@! TO.C,H1*
X115720000Y-121410000D03*
G04 #@! TD*
G04 #@! TO.N,Net-(H2-Pad1)*
G04 #@! TO.C,H2*
X174465000Y-83160000D03*
G04 #@! TD*
G04 #@! TO.N,Net-(H3-Pad1)*
G04 #@! TO.C,H3*
X174465000Y-121420000D03*
G04 #@! TD*
G04 #@! TO.N,GND*
G04 #@! TO.C,H4*
X115720000Y-83160000D03*
G04 #@! TD*
D12*
G04 #@! TO.N,GNDPWR*
G04 #@! TO.C,U6*
X174175000Y-104800000D03*
G04 #@! TO.N,OUT*
X174175000Y-99800000D03*
G04 #@! TD*
G04 #@! TO.N,OUT*
G04 #@! TO.C,U7*
X174125000Y-110950000D03*
G04 #@! TO.N,GNDPWR*
X174125000Y-115950000D03*
G04 #@! TD*
G04 #@! TO.N,GNDPWR*
G04 #@! TO.C,U9*
X167950000Y-115925000D03*
G04 #@! TO.N,OUT*
X167950000Y-110925000D03*
G04 #@! TD*
G04 #@! TO.N,OUT*
G04 #@! TO.C,U10*
X174175000Y-88680000D03*
G04 #@! TO.N,GNDPWR*
X174175000Y-93680000D03*
G04 #@! TD*
G04 #@! TO.N,GNDPWR*
G04 #@! TO.C,U11*
X167950000Y-104775000D03*
G04 #@! TO.N,OUT*
X167950000Y-99775000D03*
G04 #@! TD*
G04 #@! TO.N,OUT*
G04 #@! TO.C,U12*
X167950000Y-88655000D03*
G04 #@! TO.N,GNDPWR*
X167950000Y-93655000D03*
G04 #@! TD*
G04 #@! TO.N,CAN_H*
G04 #@! TO.C,J1*
G04 #@! TA.AperFunction,ViaPad*
G36*
G01*
X121655001Y-115550000D02*
X120404999Y-115550000D01*
G75*
G02*
X120155000Y-115300001I0J249999D01*
G01*
X120155000Y-114599999D01*
G75*
G02*
X120404999Y-114350000I249999J0D01*
G01*
X121655001Y-114350000D01*
G75*
G02*
X121905000Y-114599999I0J-249999D01*
G01*
X121905000Y-115300001D01*
G75*
G02*
X121655001Y-115550000I-249999J0D01*
G01*
G37*
G04 #@! TD.AperFunction*
D16*
G04 #@! TO.N,CAN_L*
X121030000Y-112950000D03*
G04 #@! TO.N,GND*
X121030000Y-110950000D03*
G04 #@! TD*
G04 #@! TO.N,GND*
G04 #@! TO.C,J2*
X115070000Y-110940000D03*
G04 #@! TO.N,CAN_L*
X115070000Y-112940000D03*
G04 #@! TO.N,CAN_H*
G04 #@! TA.AperFunction,ViaPad*
G36*
G01*
X115695001Y-115540000D02*
X114444999Y-115540000D01*
G75*
G02*
X114195000Y-115290001I0J249999D01*
G01*
X114195000Y-114589999D01*
G75*
G02*
X114444999Y-114340000I249999J0D01*
G01*
X115695001Y-114340000D01*
G75*
G02*
X115945000Y-114589999I0J-249999D01*
G01*
X115945000Y-115290001D01*
G75*
G02*
X115695001Y-115540000I-249999J0D01*
G01*
G37*
G04 #@! TD.AperFunction*
G04 #@! TD*
D17*
G04 #@! TO.N,+3V3*
X129640000Y-110430000D03*
X129630000Y-114340000D03*
X155580000Y-120460000D03*
X155419990Y-122430000D03*
X160210000Y-122370000D03*
X160260000Y-120440000D03*
X121470000Y-85240000D03*
X119190000Y-85240000D03*
X124510000Y-85690000D03*
X128225000Y-85725000D03*
X129000000Y-85700000D03*
X129775000Y-85775000D03*
X130448495Y-85701658D03*
X128300000Y-83950000D03*
X129025000Y-83925000D03*
X129725000Y-83925000D03*
X130350000Y-83975000D03*
X145580326Y-83619674D03*
D18*
X131410000Y-116720000D03*
X141730000Y-116880000D03*
X140660000Y-116340000D03*
X140890000Y-115290000D03*
D17*
X136840000Y-110170000D03*
X135360000Y-110180000D03*
X134040000Y-109527599D03*
X136130000Y-106690000D03*
G04 #@! TO.N,GND*
X122280000Y-118850000D03*
X126930000Y-112930000D03*
X149190000Y-122770000D03*
X149110000Y-123580000D03*
X126210000Y-114370000D03*
X126650000Y-84975000D03*
X136800000Y-82725000D03*
X135850000Y-80750000D03*
X134600000Y-81300000D03*
X158191200Y-119235000D03*
X129710000Y-112110000D03*
X123696605Y-117403395D03*
X146050000Y-122700000D03*
X146400000Y-123300000D03*
X136500000Y-86350000D03*
X135500000Y-86300000D03*
X133850000Y-86300000D03*
X141550000Y-87981999D03*
X142950000Y-85450000D03*
X128700000Y-101550000D03*
X128150000Y-102250000D03*
X128700000Y-102850000D03*
D18*
X131290000Y-115700000D03*
X143375010Y-118710000D03*
X132260000Y-118010000D03*
D17*
X133160000Y-107090000D03*
X134210000Y-107130000D03*
X137090000Y-106720000D03*
X138370000Y-105800000D03*
X143720000Y-102840000D03*
G04 #@! TO.N,VSENSE_HIGH*
X131250000Y-91450000D03*
X149250000Y-122010000D03*
G04 #@! TO.N,OUT*
X145825000Y-88250000D03*
X162700000Y-86400000D03*
X146400000Y-122000000D03*
X160650000Y-118550000D03*
G04 #@! TO.N,+5V*
X126900000Y-120600000D03*
X123800000Y-81000000D03*
D18*
G04 #@! TO.N,VSENSE_LOW*
X155120000Y-105720000D03*
X153550000Y-105720000D03*
X151870000Y-105720000D03*
X150170000Y-105720000D03*
X148470000Y-105720000D03*
X155240000Y-93220000D03*
X153630000Y-93220000D03*
X151830000Y-93220000D03*
X149930000Y-93220000D03*
X147930000Y-93220000D03*
G04 #@! TO.N,PG*
X138360000Y-110770000D03*
X145445226Y-89021605D03*
G04 #@! TO.N,TPS_ENABLE*
X132530000Y-110550000D03*
X132090000Y-86570000D03*
D17*
G04 #@! TO.N,CAN_TX*
X129660000Y-112950000D03*
X140000000Y-115660000D03*
G04 #@! TO.N,CAN_RX*
X129850000Y-109260000D03*
X138940000Y-115550000D03*
G04 #@! TO.N,Net-(MOSFET2-PadP$1)*
X134390000Y-83549999D03*
X142190000Y-80960000D03*
G04 #@! TO.N,GNDPWR*
X164400000Y-121500000D03*
X163750000Y-121500000D03*
X163100000Y-121500000D03*
X161900000Y-121350000D03*
X161250000Y-121350000D03*
G04 #@! TD*
D19*
G04 #@! TO.N,VSENSE_HIGH*
G36*
X137873000Y-89600000D02*
G01*
X137875440Y-89624776D01*
X137882667Y-89648601D01*
X137894403Y-89670557D01*
X137910197Y-89689803D01*
X137929443Y-89705597D01*
X137951399Y-89717333D01*
X137975224Y-89724560D01*
X138000000Y-89727000D01*
X140573000Y-89727000D01*
X140573000Y-94800000D01*
X140575440Y-94824776D01*
X140582667Y-94848601D01*
X140594403Y-94870557D01*
X140610197Y-94889803D01*
X140629443Y-94905597D01*
X140651399Y-94917333D01*
X140675224Y-94924560D01*
X140700000Y-94927000D01*
X145073000Y-94927000D01*
X145073000Y-97273000D01*
X132527000Y-97273000D01*
X132527000Y-88227000D01*
X137873000Y-88227000D01*
X137873000Y-89600000D01*
G37*
X137873000Y-89600000D02*
X137875440Y-89624776D01*
X137882667Y-89648601D01*
X137894403Y-89670557D01*
X137910197Y-89689803D01*
X137929443Y-89705597D01*
X137951399Y-89717333D01*
X137975224Y-89724560D01*
X138000000Y-89727000D01*
X140573000Y-89727000D01*
X140573000Y-94800000D01*
X140575440Y-94824776D01*
X140582667Y-94848601D01*
X140594403Y-94870557D01*
X140610197Y-94889803D01*
X140629443Y-94905597D01*
X140651399Y-94917333D01*
X140675224Y-94924560D01*
X140700000Y-94927000D01*
X145073000Y-94927000D01*
X145073000Y-97273000D01*
X132527000Y-97273000D01*
X132527000Y-88227000D01*
X137873000Y-88227000D01*
X137873000Y-89600000D01*
G04 #@! TO.N,GNDPWR*
G36*
X172498769Y-86176690D02*
G01*
X172515676Y-86194965D01*
X172535823Y-86209592D01*
X172558436Y-86220006D01*
X172582647Y-86225809D01*
X172600000Y-86227000D01*
X176773000Y-86227000D01*
X176773000Y-118473000D01*
X174950036Y-118473000D01*
X174758997Y-118435000D01*
X174171003Y-118435000D01*
X173979964Y-118473000D01*
X171900000Y-118473000D01*
X171875224Y-118475440D01*
X171851399Y-118482667D01*
X171829443Y-118494403D01*
X171810197Y-118510197D01*
X171794403Y-118529443D01*
X171782667Y-118551399D01*
X171777064Y-118568128D01*
X170436209Y-123739999D01*
X159724517Y-123740000D01*
X159719029Y-123166459D01*
X159767111Y-123198586D01*
X159937271Y-123269068D01*
X160117911Y-123305000D01*
X160302089Y-123305000D01*
X160482729Y-123269068D01*
X160652889Y-123198586D01*
X160806028Y-123096262D01*
X160936262Y-122966028D01*
X161038586Y-122812889D01*
X161109068Y-122642729D01*
X161145000Y-122462089D01*
X161145000Y-122277911D01*
X161109068Y-122097271D01*
X161038586Y-121927111D01*
X160936262Y-121773972D01*
X160806028Y-121643738D01*
X160652889Y-121541414D01*
X160482729Y-121470932D01*
X160302089Y-121435000D01*
X160117911Y-121435000D01*
X159937271Y-121470932D01*
X159767111Y-121541414D01*
X159703883Y-121583662D01*
X159700119Y-121190415D01*
X159817111Y-121268586D01*
X159987271Y-121339068D01*
X160167911Y-121375000D01*
X160352089Y-121375000D01*
X160532729Y-121339068D01*
X160702889Y-121268586D01*
X160856028Y-121166262D01*
X160986262Y-121036028D01*
X161088586Y-120882889D01*
X161159068Y-120712729D01*
X161195000Y-120532089D01*
X161195000Y-120347911D01*
X161159068Y-120167271D01*
X161088586Y-119997111D01*
X160986262Y-119843972D01*
X160856028Y-119713738D01*
X160702889Y-119611414D01*
X160532729Y-119540932D01*
X160352089Y-119505000D01*
X160167911Y-119505000D01*
X159987271Y-119540932D01*
X159817111Y-119611414D01*
X159685849Y-119699120D01*
X159673972Y-118457911D01*
X159715000Y-118457911D01*
X159715000Y-118642089D01*
X159750932Y-118822729D01*
X159821414Y-118992889D01*
X159923738Y-119146028D01*
X160053972Y-119276262D01*
X160207111Y-119378586D01*
X160377271Y-119449068D01*
X160557911Y-119485000D01*
X160742089Y-119485000D01*
X160922729Y-119449068D01*
X161092889Y-119378586D01*
X161246028Y-119276262D01*
X161376262Y-119146028D01*
X161478586Y-118992889D01*
X161549068Y-118822729D01*
X161585000Y-118642089D01*
X161585000Y-118457911D01*
X161549068Y-118277271D01*
X161478586Y-118107111D01*
X161376262Y-117953972D01*
X161246028Y-117823738D01*
X161092889Y-117721414D01*
X160922729Y-117650932D01*
X160742089Y-117615000D01*
X160557911Y-117615000D01*
X160377271Y-117650932D01*
X160207111Y-117721414D01*
X160053972Y-117823738D01*
X159923738Y-117953972D01*
X159821414Y-118107111D01*
X159750932Y-118277271D01*
X159715000Y-118457911D01*
X159673972Y-118457911D01*
X159666994Y-117728785D01*
X159664317Y-117704033D01*
X159656862Y-117680279D01*
X159644917Y-117658435D01*
X159628939Y-117639342D01*
X159604440Y-117620563D01*
X147876271Y-110714721D01*
X165815000Y-110714721D01*
X165815000Y-111135279D01*
X165897047Y-111547756D01*
X166057988Y-111936302D01*
X166291637Y-112285983D01*
X166589017Y-112583363D01*
X166938698Y-112817012D01*
X167327244Y-112977953D01*
X167739721Y-113060000D01*
X168160279Y-113060000D01*
X168572756Y-112977953D01*
X168961302Y-112817012D01*
X169310983Y-112583363D01*
X169608363Y-112285983D01*
X169842012Y-111936302D01*
X170002953Y-111547756D01*
X170085000Y-111135279D01*
X170085000Y-110739721D01*
X171990000Y-110739721D01*
X171990000Y-111160279D01*
X172072047Y-111572756D01*
X172232988Y-111961302D01*
X172466637Y-112310983D01*
X172764017Y-112608363D01*
X173113698Y-112842012D01*
X173502244Y-113002953D01*
X173914721Y-113085000D01*
X174335279Y-113085000D01*
X174747756Y-113002953D01*
X175136302Y-112842012D01*
X175485983Y-112608363D01*
X175783363Y-112310983D01*
X176017012Y-111961302D01*
X176177953Y-111572756D01*
X176260000Y-111160279D01*
X176260000Y-110739721D01*
X176177953Y-110327244D01*
X176017012Y-109938698D01*
X175783363Y-109589017D01*
X175485983Y-109291637D01*
X175136302Y-109057988D01*
X174747756Y-108897047D01*
X174335279Y-108815000D01*
X173914721Y-108815000D01*
X173502244Y-108897047D01*
X173113698Y-109057988D01*
X172764017Y-109291637D01*
X172466637Y-109589017D01*
X172232988Y-109938698D01*
X172072047Y-110327244D01*
X171990000Y-110739721D01*
X170085000Y-110739721D01*
X170085000Y-110714721D01*
X170002953Y-110302244D01*
X169842012Y-109913698D01*
X169608363Y-109564017D01*
X169310983Y-109266637D01*
X168961302Y-109032988D01*
X168572756Y-108872047D01*
X168160279Y-108790000D01*
X167739721Y-108790000D01*
X167327244Y-108872047D01*
X166938698Y-109032988D01*
X166589017Y-109266637D01*
X166291637Y-109564017D01*
X166057988Y-109913698D01*
X165897047Y-110302244D01*
X165815000Y-110714721D01*
X147876271Y-110714721D01*
X139295950Y-105662412D01*
X139287128Y-105618061D01*
X147435000Y-105618061D01*
X147435000Y-105821939D01*
X147474774Y-106021898D01*
X147552795Y-106210256D01*
X147666063Y-106379774D01*
X147810226Y-106523937D01*
X147979744Y-106637205D01*
X148168102Y-106715226D01*
X148368061Y-106755000D01*
X148571939Y-106755000D01*
X148771898Y-106715226D01*
X148960256Y-106637205D01*
X149129774Y-106523937D01*
X149273937Y-106379774D01*
X149320000Y-106310836D01*
X149366063Y-106379774D01*
X149510226Y-106523937D01*
X149679744Y-106637205D01*
X149868102Y-106715226D01*
X150068061Y-106755000D01*
X150271939Y-106755000D01*
X150471898Y-106715226D01*
X150660256Y-106637205D01*
X150829774Y-106523937D01*
X150973937Y-106379774D01*
X151020000Y-106310836D01*
X151066063Y-106379774D01*
X151210226Y-106523937D01*
X151379744Y-106637205D01*
X151568102Y-106715226D01*
X151768061Y-106755000D01*
X151971939Y-106755000D01*
X152171898Y-106715226D01*
X152360256Y-106637205D01*
X152529774Y-106523937D01*
X152673937Y-106379774D01*
X152710000Y-106325802D01*
X152746063Y-106379774D01*
X152890226Y-106523937D01*
X153059744Y-106637205D01*
X153248102Y-106715226D01*
X153448061Y-106755000D01*
X153651939Y-106755000D01*
X153851898Y-106715226D01*
X154040256Y-106637205D01*
X154209774Y-106523937D01*
X154335000Y-106398711D01*
X154460226Y-106523937D01*
X154629744Y-106637205D01*
X154818102Y-106715226D01*
X155018061Y-106755000D01*
X155221939Y-106755000D01*
X155421898Y-106715226D01*
X155610256Y-106637205D01*
X155779774Y-106523937D01*
X155923937Y-106379774D01*
X156037205Y-106210256D01*
X156115226Y-106021898D01*
X156155000Y-105821939D01*
X156155000Y-105618061D01*
X156115226Y-105418102D01*
X156037205Y-105229744D01*
X155923937Y-105060226D01*
X155779774Y-104916063D01*
X155610256Y-104802795D01*
X155421898Y-104724774D01*
X155221939Y-104685000D01*
X155018061Y-104685000D01*
X154818102Y-104724774D01*
X154629744Y-104802795D01*
X154460226Y-104916063D01*
X154335000Y-105041289D01*
X154209774Y-104916063D01*
X154040256Y-104802795D01*
X153851898Y-104724774D01*
X153651939Y-104685000D01*
X153448061Y-104685000D01*
X153248102Y-104724774D01*
X153059744Y-104802795D01*
X152890226Y-104916063D01*
X152746063Y-105060226D01*
X152710000Y-105114198D01*
X152673937Y-105060226D01*
X152529774Y-104916063D01*
X152360256Y-104802795D01*
X152171898Y-104724774D01*
X151971939Y-104685000D01*
X151768061Y-104685000D01*
X151568102Y-104724774D01*
X151379744Y-104802795D01*
X151210226Y-104916063D01*
X151066063Y-105060226D01*
X151020000Y-105129164D01*
X150973937Y-105060226D01*
X150829774Y-104916063D01*
X150660256Y-104802795D01*
X150471898Y-104724774D01*
X150271939Y-104685000D01*
X150068061Y-104685000D01*
X149868102Y-104724774D01*
X149679744Y-104802795D01*
X149510226Y-104916063D01*
X149366063Y-105060226D01*
X149320000Y-105129164D01*
X149273937Y-105060226D01*
X149129774Y-104916063D01*
X148960256Y-104802795D01*
X148771898Y-104724774D01*
X148571939Y-104685000D01*
X148368061Y-104685000D01*
X148168102Y-104724774D01*
X147979744Y-104802795D01*
X147810226Y-104916063D01*
X147666063Y-105060226D01*
X147552795Y-105229744D01*
X147474774Y-105418102D01*
X147435000Y-105618061D01*
X139287128Y-105618061D01*
X139269068Y-105527271D01*
X139198586Y-105357111D01*
X139096262Y-105203972D01*
X138966028Y-105073738D01*
X138812889Y-104971414D01*
X138642729Y-104900932D01*
X138462089Y-104865000D01*
X138277911Y-104865000D01*
X138097271Y-104900932D01*
X137927111Y-104971414D01*
X137773972Y-105073738D01*
X137643738Y-105203972D01*
X137597615Y-105273000D01*
X130927000Y-105273000D01*
X130927000Y-102747911D01*
X142785000Y-102747911D01*
X142785000Y-102932089D01*
X142820932Y-103112729D01*
X142891414Y-103282889D01*
X142993738Y-103436028D01*
X143123972Y-103566262D01*
X143277111Y-103668586D01*
X143447271Y-103739068D01*
X143627911Y-103775000D01*
X143812089Y-103775000D01*
X143992729Y-103739068D01*
X144162889Y-103668586D01*
X144316028Y-103566262D01*
X144446262Y-103436028D01*
X144548586Y-103282889D01*
X144619068Y-103112729D01*
X144655000Y-102932089D01*
X144655000Y-102747911D01*
X144619068Y-102567271D01*
X144548586Y-102397111D01*
X144446262Y-102243972D01*
X144316028Y-102113738D01*
X144162889Y-102011414D01*
X143992729Y-101940932D01*
X143812089Y-101905000D01*
X143627911Y-101905000D01*
X143447271Y-101940932D01*
X143277111Y-102011414D01*
X143123972Y-102113738D01*
X142993738Y-102243972D01*
X142891414Y-102397111D01*
X142820932Y-102567271D01*
X142785000Y-102747911D01*
X130927000Y-102747911D01*
X130927000Y-99564721D01*
X165815000Y-99564721D01*
X165815000Y-99985279D01*
X165897047Y-100397756D01*
X166057988Y-100786302D01*
X166291637Y-101135983D01*
X166589017Y-101433363D01*
X166938698Y-101667012D01*
X167327244Y-101827953D01*
X167739721Y-101910000D01*
X168160279Y-101910000D01*
X168572756Y-101827953D01*
X168961302Y-101667012D01*
X169310983Y-101433363D01*
X169608363Y-101135983D01*
X169842012Y-100786302D01*
X170002953Y-100397756D01*
X170085000Y-99985279D01*
X170085000Y-99589721D01*
X172040000Y-99589721D01*
X172040000Y-100010279D01*
X172122047Y-100422756D01*
X172282988Y-100811302D01*
X172516637Y-101160983D01*
X172814017Y-101458363D01*
X173163698Y-101692012D01*
X173552244Y-101852953D01*
X173964721Y-101935000D01*
X174385279Y-101935000D01*
X174797756Y-101852953D01*
X175186302Y-101692012D01*
X175535983Y-101458363D01*
X175833363Y-101160983D01*
X176067012Y-100811302D01*
X176227953Y-100422756D01*
X176310000Y-100010279D01*
X176310000Y-99589721D01*
X176227953Y-99177244D01*
X176067012Y-98788698D01*
X175833363Y-98439017D01*
X175535983Y-98141637D01*
X175186302Y-97907988D01*
X174797756Y-97747047D01*
X174385279Y-97665000D01*
X173964721Y-97665000D01*
X173552244Y-97747047D01*
X173163698Y-97907988D01*
X172814017Y-98141637D01*
X172516637Y-98439017D01*
X172282988Y-98788698D01*
X172122047Y-99177244D01*
X172040000Y-99589721D01*
X170085000Y-99589721D01*
X170085000Y-99564721D01*
X170002953Y-99152244D01*
X169842012Y-98763698D01*
X169608363Y-98414017D01*
X169310983Y-98116637D01*
X168961302Y-97882988D01*
X168572756Y-97722047D01*
X168160279Y-97640000D01*
X167739721Y-97640000D01*
X167327244Y-97722047D01*
X166938698Y-97882988D01*
X166589017Y-98116637D01*
X166291637Y-98414017D01*
X166057988Y-98763698D01*
X165897047Y-99152244D01*
X165815000Y-99564721D01*
X130927000Y-99564721D01*
X130927000Y-98327000D01*
X145200000Y-98327000D01*
X145224776Y-98324560D01*
X145248601Y-98317333D01*
X145270557Y-98305597D01*
X145292165Y-98287377D01*
X149309346Y-94050076D01*
X149439744Y-94137205D01*
X149628102Y-94215226D01*
X149828061Y-94255000D01*
X150031939Y-94255000D01*
X150231898Y-94215226D01*
X150420256Y-94137205D01*
X150589774Y-94023937D01*
X150733937Y-93879774D01*
X150847205Y-93710256D01*
X150880000Y-93631082D01*
X150912795Y-93710256D01*
X151026063Y-93879774D01*
X151170226Y-94023937D01*
X151339744Y-94137205D01*
X151528102Y-94215226D01*
X151728061Y-94255000D01*
X151931939Y-94255000D01*
X152131898Y-94215226D01*
X152320256Y-94137205D01*
X152489774Y-94023937D01*
X152633937Y-93879774D01*
X152730000Y-93736005D01*
X152826063Y-93879774D01*
X152970226Y-94023937D01*
X153139744Y-94137205D01*
X153328102Y-94215226D01*
X153528061Y-94255000D01*
X153731939Y-94255000D01*
X153931898Y-94215226D01*
X154120256Y-94137205D01*
X154289774Y-94023937D01*
X154433937Y-93879774D01*
X154435000Y-93878183D01*
X154436063Y-93879774D01*
X154580226Y-94023937D01*
X154749744Y-94137205D01*
X154938102Y-94215226D01*
X155138061Y-94255000D01*
X155341939Y-94255000D01*
X155541898Y-94215226D01*
X155730256Y-94137205D01*
X155899774Y-94023937D01*
X156043937Y-93879774D01*
X156157205Y-93710256D01*
X156235226Y-93521898D01*
X156275000Y-93321939D01*
X156275000Y-93118061D01*
X156235226Y-92918102D01*
X156157205Y-92729744D01*
X156043937Y-92560226D01*
X155899774Y-92416063D01*
X155730256Y-92302795D01*
X155541898Y-92224774D01*
X155341939Y-92185000D01*
X155138061Y-92185000D01*
X154938102Y-92224774D01*
X154749744Y-92302795D01*
X154580226Y-92416063D01*
X154436063Y-92560226D01*
X154435000Y-92561817D01*
X154433937Y-92560226D01*
X154289774Y-92416063D01*
X154120256Y-92302795D01*
X153931898Y-92224774D01*
X153731939Y-92185000D01*
X153528061Y-92185000D01*
X153328102Y-92224774D01*
X153139744Y-92302795D01*
X152970226Y-92416063D01*
X152826063Y-92560226D01*
X152730000Y-92703995D01*
X152633937Y-92560226D01*
X152489774Y-92416063D01*
X152320256Y-92302795D01*
X152131898Y-92224774D01*
X151931939Y-92185000D01*
X151728061Y-92185000D01*
X151528102Y-92224774D01*
X151339744Y-92302795D01*
X151170226Y-92416063D01*
X151026063Y-92560226D01*
X150912795Y-92729744D01*
X150880000Y-92808918D01*
X150847205Y-92729744D01*
X150733937Y-92560226D01*
X150727707Y-92553996D01*
X154623513Y-88444721D01*
X165815000Y-88444721D01*
X165815000Y-88865279D01*
X165897047Y-89277756D01*
X166057988Y-89666302D01*
X166291637Y-90015983D01*
X166589017Y-90313363D01*
X166938698Y-90547012D01*
X167327244Y-90707953D01*
X167739721Y-90790000D01*
X168160279Y-90790000D01*
X168572756Y-90707953D01*
X168961302Y-90547012D01*
X169310983Y-90313363D01*
X169608363Y-90015983D01*
X169842012Y-89666302D01*
X170002953Y-89277756D01*
X170085000Y-88865279D01*
X170085000Y-88469721D01*
X172040000Y-88469721D01*
X172040000Y-88890279D01*
X172122047Y-89302756D01*
X172282988Y-89691302D01*
X172516637Y-90040983D01*
X172814017Y-90338363D01*
X173163698Y-90572012D01*
X173552244Y-90732953D01*
X173964721Y-90815000D01*
X174385279Y-90815000D01*
X174797756Y-90732953D01*
X175186302Y-90572012D01*
X175535983Y-90338363D01*
X175833363Y-90040983D01*
X176067012Y-89691302D01*
X176227953Y-89302756D01*
X176310000Y-88890279D01*
X176310000Y-88469721D01*
X176227953Y-88057244D01*
X176067012Y-87668698D01*
X175833363Y-87319017D01*
X175535983Y-87021637D01*
X175186302Y-86787988D01*
X174797756Y-86627047D01*
X174385279Y-86545000D01*
X173964721Y-86545000D01*
X173552244Y-86627047D01*
X173163698Y-86787988D01*
X172814017Y-87021637D01*
X172516637Y-87319017D01*
X172282988Y-87668698D01*
X172122047Y-88057244D01*
X172040000Y-88469721D01*
X170085000Y-88469721D01*
X170085000Y-88444721D01*
X170002953Y-88032244D01*
X169842012Y-87643698D01*
X169608363Y-87294017D01*
X169310983Y-86996637D01*
X168961302Y-86762988D01*
X168572756Y-86602047D01*
X168160279Y-86520000D01*
X167739721Y-86520000D01*
X167327244Y-86602047D01*
X166938698Y-86762988D01*
X166589017Y-86996637D01*
X166291637Y-87294017D01*
X166057988Y-87643698D01*
X165897047Y-88032244D01*
X165815000Y-88444721D01*
X154623513Y-88444721D01*
X156649320Y-86307911D01*
X161765000Y-86307911D01*
X161765000Y-86492089D01*
X161800932Y-86672729D01*
X161871414Y-86842889D01*
X161973738Y-86996028D01*
X162103972Y-87126262D01*
X162257111Y-87228586D01*
X162427271Y-87299068D01*
X162607911Y-87335000D01*
X162792089Y-87335000D01*
X162972729Y-87299068D01*
X163142889Y-87228586D01*
X163296028Y-87126262D01*
X163426262Y-86996028D01*
X163528586Y-86842889D01*
X163599068Y-86672729D01*
X163635000Y-86492089D01*
X163635000Y-86307911D01*
X163599068Y-86127271D01*
X163528586Y-85957111D01*
X163426262Y-85803972D01*
X163296028Y-85673738D01*
X163142889Y-85571414D01*
X162972729Y-85500932D01*
X162792089Y-85465000D01*
X162607911Y-85465000D01*
X162427271Y-85500932D01*
X162257111Y-85571414D01*
X162103972Y-85673738D01*
X161973738Y-85803972D01*
X161871414Y-85957111D01*
X161800932Y-86127271D01*
X161765000Y-86307911D01*
X156649320Y-86307911D01*
X159854600Y-82927000D01*
X170036883Y-82927000D01*
X172498769Y-86176690D01*
G37*
X172498769Y-86176690D02*
X172515676Y-86194965D01*
X172535823Y-86209592D01*
X172558436Y-86220006D01*
X172582647Y-86225809D01*
X172600000Y-86227000D01*
X176773000Y-86227000D01*
X176773000Y-118473000D01*
X174950036Y-118473000D01*
X174758997Y-118435000D01*
X174171003Y-118435000D01*
X173979964Y-118473000D01*
X171900000Y-118473000D01*
X171875224Y-118475440D01*
X171851399Y-118482667D01*
X171829443Y-118494403D01*
X171810197Y-118510197D01*
X171794403Y-118529443D01*
X171782667Y-118551399D01*
X171777064Y-118568128D01*
X170436209Y-123739999D01*
X159724517Y-123740000D01*
X159719029Y-123166459D01*
X159767111Y-123198586D01*
X159937271Y-123269068D01*
X160117911Y-123305000D01*
X160302089Y-123305000D01*
X160482729Y-123269068D01*
X160652889Y-123198586D01*
X160806028Y-123096262D01*
X160936262Y-122966028D01*
X161038586Y-122812889D01*
X161109068Y-122642729D01*
X161145000Y-122462089D01*
X161145000Y-122277911D01*
X161109068Y-122097271D01*
X161038586Y-121927111D01*
X160936262Y-121773972D01*
X160806028Y-121643738D01*
X160652889Y-121541414D01*
X160482729Y-121470932D01*
X160302089Y-121435000D01*
X160117911Y-121435000D01*
X159937271Y-121470932D01*
X159767111Y-121541414D01*
X159703883Y-121583662D01*
X159700119Y-121190415D01*
X159817111Y-121268586D01*
X159987271Y-121339068D01*
X160167911Y-121375000D01*
X160352089Y-121375000D01*
X160532729Y-121339068D01*
X160702889Y-121268586D01*
X160856028Y-121166262D01*
X160986262Y-121036028D01*
X161088586Y-120882889D01*
X161159068Y-120712729D01*
X161195000Y-120532089D01*
X161195000Y-120347911D01*
X161159068Y-120167271D01*
X161088586Y-119997111D01*
X160986262Y-119843972D01*
X160856028Y-119713738D01*
X160702889Y-119611414D01*
X160532729Y-119540932D01*
X160352089Y-119505000D01*
X160167911Y-119505000D01*
X159987271Y-119540932D01*
X159817111Y-119611414D01*
X159685849Y-119699120D01*
X159673972Y-118457911D01*
X159715000Y-118457911D01*
X159715000Y-118642089D01*
X159750932Y-118822729D01*
X159821414Y-118992889D01*
X159923738Y-119146028D01*
X160053972Y-119276262D01*
X160207111Y-119378586D01*
X160377271Y-119449068D01*
X160557911Y-119485000D01*
X160742089Y-119485000D01*
X160922729Y-119449068D01*
X161092889Y-119378586D01*
X161246028Y-119276262D01*
X161376262Y-119146028D01*
X161478586Y-118992889D01*
X161549068Y-118822729D01*
X161585000Y-118642089D01*
X161585000Y-118457911D01*
X161549068Y-118277271D01*
X161478586Y-118107111D01*
X161376262Y-117953972D01*
X161246028Y-117823738D01*
X161092889Y-117721414D01*
X160922729Y-117650932D01*
X160742089Y-117615000D01*
X160557911Y-117615000D01*
X160377271Y-117650932D01*
X160207111Y-117721414D01*
X160053972Y-117823738D01*
X159923738Y-117953972D01*
X159821414Y-118107111D01*
X159750932Y-118277271D01*
X159715000Y-118457911D01*
X159673972Y-118457911D01*
X159666994Y-117728785D01*
X159664317Y-117704033D01*
X159656862Y-117680279D01*
X159644917Y-117658435D01*
X159628939Y-117639342D01*
X159604440Y-117620563D01*
X147876271Y-110714721D01*
X165815000Y-110714721D01*
X165815000Y-111135279D01*
X165897047Y-111547756D01*
X166057988Y-111936302D01*
X166291637Y-112285983D01*
X166589017Y-112583363D01*
X166938698Y-112817012D01*
X167327244Y-112977953D01*
X167739721Y-113060000D01*
X168160279Y-113060000D01*
X168572756Y-112977953D01*
X168961302Y-112817012D01*
X169310983Y-112583363D01*
X169608363Y-112285983D01*
X169842012Y-111936302D01*
X170002953Y-111547756D01*
X170085000Y-111135279D01*
X170085000Y-110739721D01*
X171990000Y-110739721D01*
X171990000Y-111160279D01*
X172072047Y-111572756D01*
X172232988Y-111961302D01*
X172466637Y-112310983D01*
X172764017Y-112608363D01*
X173113698Y-112842012D01*
X173502244Y-113002953D01*
X173914721Y-113085000D01*
X174335279Y-113085000D01*
X174747756Y-113002953D01*
X175136302Y-112842012D01*
X175485983Y-112608363D01*
X175783363Y-112310983D01*
X176017012Y-111961302D01*
X176177953Y-111572756D01*
X176260000Y-111160279D01*
X176260000Y-110739721D01*
X176177953Y-110327244D01*
X176017012Y-109938698D01*
X175783363Y-109589017D01*
X175485983Y-109291637D01*
X175136302Y-109057988D01*
X174747756Y-108897047D01*
X174335279Y-108815000D01*
X173914721Y-108815000D01*
X173502244Y-108897047D01*
X173113698Y-109057988D01*
X172764017Y-109291637D01*
X172466637Y-109589017D01*
X172232988Y-109938698D01*
X172072047Y-110327244D01*
X171990000Y-110739721D01*
X170085000Y-110739721D01*
X170085000Y-110714721D01*
X170002953Y-110302244D01*
X169842012Y-109913698D01*
X169608363Y-109564017D01*
X169310983Y-109266637D01*
X168961302Y-109032988D01*
X168572756Y-108872047D01*
X168160279Y-108790000D01*
X167739721Y-108790000D01*
X167327244Y-108872047D01*
X166938698Y-109032988D01*
X166589017Y-109266637D01*
X166291637Y-109564017D01*
X166057988Y-109913698D01*
X165897047Y-110302244D01*
X165815000Y-110714721D01*
X147876271Y-110714721D01*
X139295950Y-105662412D01*
X139287128Y-105618061D01*
X147435000Y-105618061D01*
X147435000Y-105821939D01*
X147474774Y-106021898D01*
X147552795Y-106210256D01*
X147666063Y-106379774D01*
X147810226Y-106523937D01*
X147979744Y-106637205D01*
X148168102Y-106715226D01*
X148368061Y-106755000D01*
X148571939Y-106755000D01*
X148771898Y-106715226D01*
X148960256Y-106637205D01*
X149129774Y-106523937D01*
X149273937Y-106379774D01*
X149320000Y-106310836D01*
X149366063Y-106379774D01*
X149510226Y-106523937D01*
X149679744Y-106637205D01*
X149868102Y-106715226D01*
X150068061Y-106755000D01*
X150271939Y-106755000D01*
X150471898Y-106715226D01*
X150660256Y-106637205D01*
X150829774Y-106523937D01*
X150973937Y-106379774D01*
X151020000Y-106310836D01*
X151066063Y-106379774D01*
X151210226Y-106523937D01*
X151379744Y-106637205D01*
X151568102Y-106715226D01*
X151768061Y-106755000D01*
X151971939Y-106755000D01*
X152171898Y-106715226D01*
X152360256Y-106637205D01*
X152529774Y-106523937D01*
X152673937Y-106379774D01*
X152710000Y-106325802D01*
X152746063Y-106379774D01*
X152890226Y-106523937D01*
X153059744Y-106637205D01*
X153248102Y-106715226D01*
X153448061Y-106755000D01*
X153651939Y-106755000D01*
X153851898Y-106715226D01*
X154040256Y-106637205D01*
X154209774Y-106523937D01*
X154335000Y-106398711D01*
X154460226Y-106523937D01*
X154629744Y-106637205D01*
X154818102Y-106715226D01*
X155018061Y-106755000D01*
X155221939Y-106755000D01*
X155421898Y-106715226D01*
X155610256Y-106637205D01*
X155779774Y-106523937D01*
X155923937Y-106379774D01*
X156037205Y-106210256D01*
X156115226Y-106021898D01*
X156155000Y-105821939D01*
X156155000Y-105618061D01*
X156115226Y-105418102D01*
X156037205Y-105229744D01*
X155923937Y-105060226D01*
X155779774Y-104916063D01*
X155610256Y-104802795D01*
X155421898Y-104724774D01*
X155221939Y-104685000D01*
X155018061Y-104685000D01*
X154818102Y-104724774D01*
X154629744Y-104802795D01*
X154460226Y-104916063D01*
X154335000Y-105041289D01*
X154209774Y-104916063D01*
X154040256Y-104802795D01*
X153851898Y-104724774D01*
X153651939Y-104685000D01*
X153448061Y-104685000D01*
X153248102Y-104724774D01*
X153059744Y-104802795D01*
X152890226Y-104916063D01*
X152746063Y-105060226D01*
X152710000Y-105114198D01*
X152673937Y-105060226D01*
X152529774Y-104916063D01*
X152360256Y-104802795D01*
X152171898Y-104724774D01*
X151971939Y-104685000D01*
X151768061Y-104685000D01*
X151568102Y-104724774D01*
X151379744Y-104802795D01*
X151210226Y-104916063D01*
X151066063Y-105060226D01*
X151020000Y-105129164D01*
X150973937Y-105060226D01*
X150829774Y-104916063D01*
X150660256Y-104802795D01*
X150471898Y-104724774D01*
X150271939Y-104685000D01*
X150068061Y-104685000D01*
X149868102Y-104724774D01*
X149679744Y-104802795D01*
X149510226Y-104916063D01*
X149366063Y-105060226D01*
X149320000Y-105129164D01*
X149273937Y-105060226D01*
X149129774Y-104916063D01*
X148960256Y-104802795D01*
X148771898Y-104724774D01*
X148571939Y-104685000D01*
X148368061Y-104685000D01*
X148168102Y-104724774D01*
X147979744Y-104802795D01*
X147810226Y-104916063D01*
X147666063Y-105060226D01*
X147552795Y-105229744D01*
X147474774Y-105418102D01*
X147435000Y-105618061D01*
X139287128Y-105618061D01*
X139269068Y-105527271D01*
X139198586Y-105357111D01*
X139096262Y-105203972D01*
X138966028Y-105073738D01*
X138812889Y-104971414D01*
X138642729Y-104900932D01*
X138462089Y-104865000D01*
X138277911Y-104865000D01*
X138097271Y-104900932D01*
X137927111Y-104971414D01*
X137773972Y-105073738D01*
X137643738Y-105203972D01*
X137597615Y-105273000D01*
X130927000Y-105273000D01*
X130927000Y-102747911D01*
X142785000Y-102747911D01*
X142785000Y-102932089D01*
X142820932Y-103112729D01*
X142891414Y-103282889D01*
X142993738Y-103436028D01*
X143123972Y-103566262D01*
X143277111Y-103668586D01*
X143447271Y-103739068D01*
X143627911Y-103775000D01*
X143812089Y-103775000D01*
X143992729Y-103739068D01*
X144162889Y-103668586D01*
X144316028Y-103566262D01*
X144446262Y-103436028D01*
X144548586Y-103282889D01*
X144619068Y-103112729D01*
X144655000Y-102932089D01*
X144655000Y-102747911D01*
X144619068Y-102567271D01*
X144548586Y-102397111D01*
X144446262Y-102243972D01*
X144316028Y-102113738D01*
X144162889Y-102011414D01*
X143992729Y-101940932D01*
X143812089Y-101905000D01*
X143627911Y-101905000D01*
X143447271Y-101940932D01*
X143277111Y-102011414D01*
X143123972Y-102113738D01*
X142993738Y-102243972D01*
X142891414Y-102397111D01*
X142820932Y-102567271D01*
X142785000Y-102747911D01*
X130927000Y-102747911D01*
X130927000Y-99564721D01*
X165815000Y-99564721D01*
X165815000Y-99985279D01*
X165897047Y-100397756D01*
X166057988Y-100786302D01*
X166291637Y-101135983D01*
X166589017Y-101433363D01*
X166938698Y-101667012D01*
X167327244Y-101827953D01*
X167739721Y-101910000D01*
X168160279Y-101910000D01*
X168572756Y-101827953D01*
X168961302Y-101667012D01*
X169310983Y-101433363D01*
X169608363Y-101135983D01*
X169842012Y-100786302D01*
X170002953Y-100397756D01*
X170085000Y-99985279D01*
X170085000Y-99589721D01*
X172040000Y-99589721D01*
X172040000Y-100010279D01*
X172122047Y-100422756D01*
X172282988Y-100811302D01*
X172516637Y-101160983D01*
X172814017Y-101458363D01*
X173163698Y-101692012D01*
X173552244Y-101852953D01*
X173964721Y-101935000D01*
X174385279Y-101935000D01*
X174797756Y-101852953D01*
X175186302Y-101692012D01*
X175535983Y-101458363D01*
X175833363Y-101160983D01*
X176067012Y-100811302D01*
X176227953Y-100422756D01*
X176310000Y-100010279D01*
X176310000Y-99589721D01*
X176227953Y-99177244D01*
X176067012Y-98788698D01*
X175833363Y-98439017D01*
X175535983Y-98141637D01*
X175186302Y-97907988D01*
X174797756Y-97747047D01*
X174385279Y-97665000D01*
X173964721Y-97665000D01*
X173552244Y-97747047D01*
X173163698Y-97907988D01*
X172814017Y-98141637D01*
X172516637Y-98439017D01*
X172282988Y-98788698D01*
X172122047Y-99177244D01*
X172040000Y-99589721D01*
X170085000Y-99589721D01*
X170085000Y-99564721D01*
X170002953Y-99152244D01*
X169842012Y-98763698D01*
X169608363Y-98414017D01*
X169310983Y-98116637D01*
X168961302Y-97882988D01*
X168572756Y-97722047D01*
X168160279Y-97640000D01*
X167739721Y-97640000D01*
X167327244Y-97722047D01*
X166938698Y-97882988D01*
X166589017Y-98116637D01*
X166291637Y-98414017D01*
X166057988Y-98763698D01*
X165897047Y-99152244D01*
X165815000Y-99564721D01*
X130927000Y-99564721D01*
X130927000Y-98327000D01*
X145200000Y-98327000D01*
X145224776Y-98324560D01*
X145248601Y-98317333D01*
X145270557Y-98305597D01*
X145292165Y-98287377D01*
X149309346Y-94050076D01*
X149439744Y-94137205D01*
X149628102Y-94215226D01*
X149828061Y-94255000D01*
X150031939Y-94255000D01*
X150231898Y-94215226D01*
X150420256Y-94137205D01*
X150589774Y-94023937D01*
X150733937Y-93879774D01*
X150847205Y-93710256D01*
X150880000Y-93631082D01*
X150912795Y-93710256D01*
X151026063Y-93879774D01*
X151170226Y-94023937D01*
X151339744Y-94137205D01*
X151528102Y-94215226D01*
X151728061Y-94255000D01*
X151931939Y-94255000D01*
X152131898Y-94215226D01*
X152320256Y-94137205D01*
X152489774Y-94023937D01*
X152633937Y-93879774D01*
X152730000Y-93736005D01*
X152826063Y-93879774D01*
X152970226Y-94023937D01*
X153139744Y-94137205D01*
X153328102Y-94215226D01*
X153528061Y-94255000D01*
X153731939Y-94255000D01*
X153931898Y-94215226D01*
X154120256Y-94137205D01*
X154289774Y-94023937D01*
X154433937Y-93879774D01*
X154435000Y-93878183D01*
X154436063Y-93879774D01*
X154580226Y-94023937D01*
X154749744Y-94137205D01*
X154938102Y-94215226D01*
X155138061Y-94255000D01*
X155341939Y-94255000D01*
X155541898Y-94215226D01*
X155730256Y-94137205D01*
X155899774Y-94023937D01*
X156043937Y-93879774D01*
X156157205Y-93710256D01*
X156235226Y-93521898D01*
X156275000Y-93321939D01*
X156275000Y-93118061D01*
X156235226Y-92918102D01*
X156157205Y-92729744D01*
X156043937Y-92560226D01*
X155899774Y-92416063D01*
X155730256Y-92302795D01*
X155541898Y-92224774D01*
X155341939Y-92185000D01*
X155138061Y-92185000D01*
X154938102Y-92224774D01*
X154749744Y-92302795D01*
X154580226Y-92416063D01*
X154436063Y-92560226D01*
X154435000Y-92561817D01*
X154433937Y-92560226D01*
X154289774Y-92416063D01*
X154120256Y-92302795D01*
X153931898Y-92224774D01*
X153731939Y-92185000D01*
X153528061Y-92185000D01*
X153328102Y-92224774D01*
X153139744Y-92302795D01*
X152970226Y-92416063D01*
X152826063Y-92560226D01*
X152730000Y-92703995D01*
X152633937Y-92560226D01*
X152489774Y-92416063D01*
X152320256Y-92302795D01*
X152131898Y-92224774D01*
X151931939Y-92185000D01*
X151728061Y-92185000D01*
X151528102Y-92224774D01*
X151339744Y-92302795D01*
X151170226Y-92416063D01*
X151026063Y-92560226D01*
X150912795Y-92729744D01*
X150880000Y-92808918D01*
X150847205Y-92729744D01*
X150733937Y-92560226D01*
X150727707Y-92553996D01*
X154623513Y-88444721D01*
X165815000Y-88444721D01*
X165815000Y-88865279D01*
X165897047Y-89277756D01*
X166057988Y-89666302D01*
X166291637Y-90015983D01*
X166589017Y-90313363D01*
X166938698Y-90547012D01*
X167327244Y-90707953D01*
X167739721Y-90790000D01*
X168160279Y-90790000D01*
X168572756Y-90707953D01*
X168961302Y-90547012D01*
X169310983Y-90313363D01*
X169608363Y-90015983D01*
X169842012Y-89666302D01*
X170002953Y-89277756D01*
X170085000Y-88865279D01*
X170085000Y-88469721D01*
X172040000Y-88469721D01*
X172040000Y-88890279D01*
X172122047Y-89302756D01*
X172282988Y-89691302D01*
X172516637Y-90040983D01*
X172814017Y-90338363D01*
X173163698Y-90572012D01*
X173552244Y-90732953D01*
X173964721Y-90815000D01*
X174385279Y-90815000D01*
X174797756Y-90732953D01*
X175186302Y-90572012D01*
X175535983Y-90338363D01*
X175833363Y-90040983D01*
X176067012Y-89691302D01*
X176227953Y-89302756D01*
X176310000Y-88890279D01*
X176310000Y-88469721D01*
X176227953Y-88057244D01*
X176067012Y-87668698D01*
X175833363Y-87319017D01*
X175535983Y-87021637D01*
X175186302Y-86787988D01*
X174797756Y-86627047D01*
X174385279Y-86545000D01*
X173964721Y-86545000D01*
X173552244Y-86627047D01*
X173163698Y-86787988D01*
X172814017Y-87021637D01*
X172516637Y-87319017D01*
X172282988Y-87668698D01*
X172122047Y-88057244D01*
X172040000Y-88469721D01*
X170085000Y-88469721D01*
X170085000Y-88444721D01*
X170002953Y-88032244D01*
X169842012Y-87643698D01*
X169608363Y-87294017D01*
X169310983Y-86996637D01*
X168961302Y-86762988D01*
X168572756Y-86602047D01*
X168160279Y-86520000D01*
X167739721Y-86520000D01*
X167327244Y-86602047D01*
X166938698Y-86762988D01*
X166589017Y-86996637D01*
X166291637Y-87294017D01*
X166057988Y-87643698D01*
X165897047Y-88032244D01*
X165815000Y-88444721D01*
X154623513Y-88444721D01*
X156649320Y-86307911D01*
X161765000Y-86307911D01*
X161765000Y-86492089D01*
X161800932Y-86672729D01*
X161871414Y-86842889D01*
X161973738Y-86996028D01*
X162103972Y-87126262D01*
X162257111Y-87228586D01*
X162427271Y-87299068D01*
X162607911Y-87335000D01*
X162792089Y-87335000D01*
X162972729Y-87299068D01*
X163142889Y-87228586D01*
X163296028Y-87126262D01*
X163426262Y-86996028D01*
X163528586Y-86842889D01*
X163599068Y-86672729D01*
X163635000Y-86492089D01*
X163635000Y-86307911D01*
X163599068Y-86127271D01*
X163528586Y-85957111D01*
X163426262Y-85803972D01*
X163296028Y-85673738D01*
X163142889Y-85571414D01*
X162972729Y-85500932D01*
X162792089Y-85465000D01*
X162607911Y-85465000D01*
X162427271Y-85500932D01*
X162257111Y-85571414D01*
X162103972Y-85673738D01*
X161973738Y-85803972D01*
X161871414Y-85957111D01*
X161800932Y-86127271D01*
X161765000Y-86307911D01*
X156649320Y-86307911D01*
X159854600Y-82927000D01*
X170036883Y-82927000D01*
X172498769Y-86176690D01*
G04 #@! TO.N,+3V3*
G36*
X145573000Y-87346809D02*
G01*
X145552271Y-87350932D01*
X145382111Y-87421414D01*
X145228972Y-87523738D01*
X145098738Y-87653972D01*
X144996414Y-87807111D01*
X144925932Y-87977271D01*
X144892317Y-88146263D01*
X144785452Y-88217668D01*
X144641289Y-88361831D01*
X144528021Y-88531349D01*
X144510768Y-88573000D01*
X142279621Y-88573000D01*
X142378586Y-88424888D01*
X142449068Y-88254728D01*
X142485000Y-88074088D01*
X142485000Y-87889910D01*
X142449068Y-87709270D01*
X142378586Y-87539110D01*
X142276262Y-87385971D01*
X142146028Y-87255737D01*
X141992889Y-87153413D01*
X141822729Y-87082931D01*
X141642089Y-87046999D01*
X141457911Y-87046999D01*
X141277271Y-87082931D01*
X141107111Y-87153413D01*
X140953972Y-87255737D01*
X140823738Y-87385971D01*
X140721414Y-87539110D01*
X140650932Y-87709270D01*
X140615000Y-87889910D01*
X140615000Y-88074088D01*
X140650932Y-88254728D01*
X140721414Y-88424888D01*
X140820379Y-88573000D01*
X138927000Y-88573000D01*
X138927000Y-86850000D01*
X138924560Y-86825224D01*
X138917333Y-86801399D01*
X138905597Y-86779443D01*
X138889803Y-86760197D01*
X138870557Y-86744403D01*
X138848601Y-86732667D01*
X138824776Y-86725440D01*
X138800000Y-86723000D01*
X137357535Y-86723000D01*
X137399068Y-86622729D01*
X137435000Y-86442089D01*
X137435000Y-86257911D01*
X137399068Y-86077271D01*
X137328586Y-85907111D01*
X137226262Y-85753972D01*
X137096028Y-85623738D01*
X136942889Y-85521414D01*
X136772729Y-85450932D01*
X136592089Y-85415000D01*
X136407911Y-85415000D01*
X136227271Y-85450932D01*
X136057111Y-85521414D01*
X136037415Y-85534574D01*
X135942889Y-85471414D01*
X135772729Y-85400932D01*
X135592089Y-85365000D01*
X135407911Y-85365000D01*
X135227271Y-85400932D01*
X135057111Y-85471414D01*
X134903972Y-85573738D01*
X134773738Y-85703972D01*
X134675000Y-85851744D01*
X134576262Y-85703972D01*
X134446028Y-85573738D01*
X134292889Y-85471414D01*
X134122729Y-85400932D01*
X133942089Y-85365000D01*
X133757911Y-85365000D01*
X133577271Y-85400932D01*
X133407111Y-85471414D01*
X133253972Y-85573738D01*
X133123738Y-85703972D01*
X133021414Y-85857111D01*
X132959049Y-86007674D01*
X132893937Y-85910226D01*
X132749774Y-85766063D01*
X132580256Y-85652795D01*
X132391898Y-85574774D01*
X132191939Y-85535000D01*
X131988061Y-85535000D01*
X131788102Y-85574774D01*
X131599744Y-85652795D01*
X131430226Y-85766063D01*
X131286063Y-85910226D01*
X131172795Y-86079744D01*
X131094774Y-86268102D01*
X131055000Y-86468061D01*
X131055000Y-86671939D01*
X131094774Y-86871898D01*
X131123000Y-86940041D01*
X131123000Y-90521944D01*
X130977271Y-90550932D01*
X130807111Y-90621414D01*
X130653972Y-90723738D01*
X130523738Y-90853972D01*
X130421414Y-91007111D01*
X130350932Y-91177271D01*
X130315000Y-91357911D01*
X130315000Y-91542089D01*
X130350932Y-91722729D01*
X130421414Y-91892889D01*
X130523738Y-92046028D01*
X130653972Y-92176262D01*
X130807111Y-92278586D01*
X130977271Y-92349068D01*
X131123000Y-92378056D01*
X131123000Y-97223000D01*
X129550000Y-97223000D01*
X129525224Y-97225440D01*
X129501399Y-97232667D01*
X129479443Y-97244403D01*
X129460197Y-97260197D01*
X129444403Y-97279443D01*
X129432667Y-97301399D01*
X129425440Y-97325224D01*
X129423000Y-97350000D01*
X129423000Y-100950710D01*
X129296028Y-100823738D01*
X129142889Y-100721414D01*
X128972729Y-100650932D01*
X128792089Y-100615000D01*
X128607911Y-100615000D01*
X128427271Y-100650932D01*
X128257111Y-100721414D01*
X128103972Y-100823738D01*
X127973738Y-100953972D01*
X127871414Y-101107111D01*
X127800932Y-101277271D01*
X127778110Y-101392006D01*
X127707111Y-101421414D01*
X127553972Y-101523738D01*
X127423738Y-101653972D01*
X127321414Y-101807111D01*
X127250932Y-101977271D01*
X127215000Y-102157911D01*
X127215000Y-102342089D01*
X127250932Y-102522729D01*
X127321414Y-102692889D01*
X127423738Y-102846028D01*
X127553972Y-102976262D01*
X127707111Y-103078586D01*
X127799787Y-103116973D01*
X127800932Y-103122729D01*
X127871414Y-103292889D01*
X127973738Y-103446028D01*
X128103972Y-103576262D01*
X128257111Y-103678586D01*
X128427271Y-103749068D01*
X128607911Y-103785000D01*
X128792089Y-103785000D01*
X128972729Y-103749068D01*
X129142889Y-103678586D01*
X129296028Y-103576262D01*
X129423000Y-103449290D01*
X129423000Y-106350000D01*
X129425440Y-106374776D01*
X129432667Y-106398601D01*
X129444403Y-106420557D01*
X129460197Y-106439803D01*
X129479443Y-106455597D01*
X129501399Y-106467333D01*
X129525224Y-106474560D01*
X129550000Y-106477000D01*
X132450710Y-106477000D01*
X132433738Y-106493972D01*
X132331414Y-106647111D01*
X132260932Y-106817271D01*
X132225000Y-106997911D01*
X132225000Y-107182089D01*
X132260932Y-107362729D01*
X132331414Y-107532889D01*
X132433738Y-107686028D01*
X132563972Y-107816262D01*
X132717111Y-107918586D01*
X132887271Y-107989068D01*
X133067911Y-108025000D01*
X133252089Y-108025000D01*
X133432729Y-107989068D01*
X133602889Y-107918586D01*
X133655068Y-107883721D01*
X133767111Y-107958586D01*
X133937271Y-108029068D01*
X134117911Y-108065000D01*
X134302089Y-108065000D01*
X134482729Y-108029068D01*
X134652889Y-107958586D01*
X134806028Y-107856262D01*
X134936262Y-107726028D01*
X135038586Y-107572889D01*
X135109068Y-107402729D01*
X135145000Y-107222089D01*
X135145000Y-107037911D01*
X135109068Y-106857271D01*
X135038586Y-106687111D01*
X134936262Y-106533972D01*
X134879290Y-106477000D01*
X136185018Y-106477000D01*
X136155000Y-106627911D01*
X136155000Y-106812089D01*
X136190932Y-106992729D01*
X136261414Y-107162889D01*
X136363738Y-107316028D01*
X136493972Y-107446262D01*
X136647111Y-107548586D01*
X136817271Y-107619068D01*
X136997911Y-107655000D01*
X137182089Y-107655000D01*
X137362729Y-107619068D01*
X137532889Y-107548586D01*
X137686028Y-107446262D01*
X137816262Y-107316028D01*
X137918586Y-107162889D01*
X137989068Y-106992729D01*
X138025000Y-106812089D01*
X138025000Y-106669133D01*
X138097271Y-106699068D01*
X138277911Y-106735000D01*
X138444822Y-106735000D01*
X145423000Y-110921907D01*
X145423000Y-118350000D01*
X145425440Y-118374776D01*
X145432667Y-118398601D01*
X145444403Y-118420557D01*
X145460197Y-118439803D01*
X145479443Y-118455597D01*
X145501399Y-118467333D01*
X145525224Y-118474560D01*
X145549708Y-118477000D01*
X157601176Y-118504726D01*
X157595172Y-118508738D01*
X157464938Y-118638972D01*
X157362614Y-118792111D01*
X157292132Y-118962271D01*
X157256200Y-119142911D01*
X157256200Y-119327089D01*
X157292132Y-119507729D01*
X157362614Y-119677889D01*
X157464938Y-119831028D01*
X157595172Y-119961262D01*
X157748311Y-120063586D01*
X157918471Y-120134068D01*
X158099111Y-120170000D01*
X158283289Y-120170000D01*
X158463929Y-120134068D01*
X158567700Y-120091085D01*
X158791484Y-123740000D01*
X150031492Y-123740000D01*
X150045000Y-123672089D01*
X150045000Y-123487911D01*
X150009068Y-123307271D01*
X149988577Y-123257801D01*
X150018586Y-123212889D01*
X150089068Y-123042729D01*
X150125000Y-122862089D01*
X150125000Y-122677911D01*
X150089068Y-122497271D01*
X150073708Y-122460189D01*
X150078586Y-122452889D01*
X150149068Y-122282729D01*
X150185000Y-122102089D01*
X150185000Y-121917911D01*
X150149068Y-121737271D01*
X150078586Y-121567111D01*
X149976262Y-121413972D01*
X149846028Y-121283738D01*
X149692889Y-121181414D01*
X149522729Y-121110932D01*
X149342089Y-121075000D01*
X149157911Y-121075000D01*
X148977271Y-121110932D01*
X148807111Y-121181414D01*
X148653972Y-121283738D01*
X148523738Y-121413972D01*
X148421414Y-121567111D01*
X148350932Y-121737271D01*
X148315000Y-121917911D01*
X148315000Y-122102089D01*
X148350932Y-122282729D01*
X148366292Y-122319811D01*
X148361414Y-122327111D01*
X148290932Y-122497271D01*
X148255000Y-122677911D01*
X148255000Y-122862089D01*
X148290932Y-123042729D01*
X148311423Y-123092199D01*
X148281414Y-123137111D01*
X148210932Y-123307271D01*
X148175000Y-123487911D01*
X148175000Y-123672089D01*
X148188508Y-123740000D01*
X147229783Y-123740000D01*
X147299068Y-123572729D01*
X147335000Y-123392089D01*
X147335000Y-123207911D01*
X147299068Y-123027271D01*
X147228586Y-122857111D01*
X147126262Y-122703972D01*
X147072290Y-122650000D01*
X147126262Y-122596028D01*
X147228586Y-122442889D01*
X147299068Y-122272729D01*
X147335000Y-122092089D01*
X147335000Y-121907911D01*
X147299068Y-121727271D01*
X147228586Y-121557111D01*
X147126262Y-121403972D01*
X146996028Y-121273738D01*
X146842889Y-121171414D01*
X146672729Y-121100932D01*
X146492089Y-121065000D01*
X146307911Y-121065000D01*
X146127271Y-121100932D01*
X145957111Y-121171414D01*
X145803972Y-121273738D01*
X145673738Y-121403972D01*
X145571414Y-121557111D01*
X145500932Y-121727271D01*
X145465000Y-121907911D01*
X145465000Y-121966369D01*
X145453972Y-121973738D01*
X145323738Y-122103972D01*
X145221414Y-122257111D01*
X145150932Y-122427271D01*
X145115000Y-122607911D01*
X145115000Y-122792089D01*
X145150932Y-122972729D01*
X145221414Y-123142889D01*
X145323738Y-123296028D01*
X145453972Y-123426262D01*
X145474530Y-123439998D01*
X145500932Y-123572729D01*
X145570217Y-123740000D01*
X128831866Y-123740001D01*
X128873577Y-123602499D01*
X128890000Y-123435751D01*
X128890000Y-122424248D01*
X128873577Y-122257501D01*
X128808676Y-122043553D01*
X128703284Y-121846377D01*
X128561449Y-121673551D01*
X128388623Y-121531716D01*
X128191446Y-121426324D01*
X127977498Y-121361423D01*
X127755000Y-121339509D01*
X127532501Y-121361423D01*
X127369324Y-121410923D01*
X127496028Y-121326262D01*
X127626262Y-121196028D01*
X127728586Y-121042889D01*
X127799068Y-120872729D01*
X127835000Y-120692089D01*
X127835000Y-120664336D01*
X132065000Y-120664336D01*
X132065000Y-121335665D01*
X132082870Y-121517102D01*
X132153489Y-121749901D01*
X132268168Y-121964449D01*
X132422499Y-122152502D01*
X132610552Y-122306833D01*
X132825100Y-122421511D01*
X133057899Y-122492130D01*
X133300000Y-122515975D01*
X133542102Y-122492130D01*
X133774901Y-122421511D01*
X133989449Y-122306833D01*
X134177502Y-122152502D01*
X134300001Y-122003237D01*
X134422499Y-122152502D01*
X134610552Y-122306833D01*
X134825100Y-122421511D01*
X135057899Y-122492130D01*
X135300000Y-122515975D01*
X135542102Y-122492130D01*
X135774901Y-122421511D01*
X135989449Y-122306833D01*
X136177502Y-122152502D01*
X136300001Y-122003237D01*
X136422499Y-122152502D01*
X136610552Y-122306833D01*
X136825100Y-122421511D01*
X137057899Y-122492130D01*
X137300000Y-122515975D01*
X137542102Y-122492130D01*
X137774901Y-122421511D01*
X137989449Y-122306833D01*
X138177502Y-122152502D01*
X138300001Y-122003237D01*
X138422499Y-122152502D01*
X138610552Y-122306833D01*
X138825100Y-122421511D01*
X139057899Y-122492130D01*
X139300000Y-122515975D01*
X139542102Y-122492130D01*
X139774901Y-122421511D01*
X139989449Y-122306833D01*
X140177502Y-122152502D01*
X140300001Y-122003237D01*
X140422499Y-122152502D01*
X140610552Y-122306833D01*
X140825100Y-122421511D01*
X141057899Y-122492130D01*
X141300000Y-122515975D01*
X141542102Y-122492130D01*
X141774901Y-122421511D01*
X141989449Y-122306833D01*
X142177502Y-122152502D01*
X142331833Y-121964449D01*
X142446511Y-121749900D01*
X142517130Y-121517101D01*
X142535000Y-121335664D01*
X142535000Y-120664335D01*
X142517130Y-120482898D01*
X142446511Y-120250099D01*
X142331833Y-120035551D01*
X142177502Y-119847498D01*
X141989448Y-119693167D01*
X141774900Y-119578489D01*
X141542101Y-119507870D01*
X141300000Y-119484025D01*
X141057898Y-119507870D01*
X140825099Y-119578489D01*
X140610551Y-119693167D01*
X140422498Y-119847498D01*
X140300000Y-119996763D01*
X140177502Y-119847498D01*
X139989448Y-119693167D01*
X139774900Y-119578489D01*
X139542101Y-119507870D01*
X139300000Y-119484025D01*
X139057898Y-119507870D01*
X138825099Y-119578489D01*
X138610551Y-119693167D01*
X138422498Y-119847498D01*
X138300000Y-119996763D01*
X138177502Y-119847498D01*
X137989448Y-119693167D01*
X137774900Y-119578489D01*
X137542101Y-119507870D01*
X137300000Y-119484025D01*
X137057898Y-119507870D01*
X136825099Y-119578489D01*
X136610551Y-119693167D01*
X136422498Y-119847498D01*
X136300000Y-119996763D01*
X136177502Y-119847498D01*
X135989448Y-119693167D01*
X135774900Y-119578489D01*
X135542101Y-119507870D01*
X135300000Y-119484025D01*
X135057898Y-119507870D01*
X134825099Y-119578489D01*
X134610551Y-119693167D01*
X134422498Y-119847498D01*
X134300000Y-119996763D01*
X134177502Y-119847498D01*
X133989448Y-119693167D01*
X133774900Y-119578489D01*
X133542101Y-119507870D01*
X133300000Y-119484025D01*
X133057898Y-119507870D01*
X132825099Y-119578489D01*
X132610551Y-119693167D01*
X132422498Y-119847498D01*
X132268167Y-120035552D01*
X132153489Y-120250100D01*
X132082870Y-120482899D01*
X132065000Y-120664336D01*
X127835000Y-120664336D01*
X127835000Y-120507911D01*
X127799068Y-120327271D01*
X127728586Y-120157111D01*
X127626262Y-120003972D01*
X127496028Y-119873738D01*
X127342889Y-119771414D01*
X127172729Y-119700932D01*
X126992089Y-119665000D01*
X126954361Y-119665000D01*
X126948215Y-119602600D01*
X126881885Y-119383940D01*
X126774171Y-119182421D01*
X126629212Y-119005788D01*
X126452578Y-118860829D01*
X126251059Y-118753115D01*
X126032399Y-118686785D01*
X125805000Y-118664388D01*
X125577600Y-118686785D01*
X125358940Y-118753115D01*
X125157421Y-118860829D01*
X124980788Y-119005788D01*
X124835829Y-119182422D01*
X124728115Y-119383941D01*
X124661785Y-119602601D01*
X124645000Y-119773022D01*
X124645000Y-120086979D01*
X124661785Y-120257400D01*
X124728115Y-120476060D01*
X124835829Y-120677579D01*
X124980789Y-120854212D01*
X125157422Y-120999171D01*
X125358941Y-121106885D01*
X125577601Y-121173215D01*
X125805000Y-121195612D01*
X126032400Y-121173215D01*
X126137244Y-121141411D01*
X126173738Y-121196028D01*
X126303972Y-121326262D01*
X126457111Y-121428586D01*
X126627271Y-121499068D01*
X126807911Y-121535000D01*
X126992089Y-121535000D01*
X127172729Y-121499068D01*
X127215955Y-121481163D01*
X127121377Y-121531716D01*
X126948551Y-121673551D01*
X126806716Y-121846377D01*
X126701324Y-122043554D01*
X126636423Y-122257502D01*
X126620000Y-122424249D01*
X126620000Y-123435752D01*
X126636423Y-123602499D01*
X126678134Y-123740001D01*
X120481866Y-123740001D01*
X120523577Y-123602499D01*
X120540000Y-123435751D01*
X120540000Y-122424248D01*
X120523577Y-122257501D01*
X120458676Y-122043553D01*
X120353284Y-121846377D01*
X120211449Y-121673551D01*
X120038623Y-121531716D01*
X119841446Y-121426324D01*
X119627498Y-121361423D01*
X119405000Y-121339509D01*
X119182501Y-121361423D01*
X118968553Y-121426324D01*
X118771377Y-121531716D01*
X118705000Y-121586190D01*
X118705000Y-121116003D01*
X118590288Y-120539308D01*
X118365273Y-119996072D01*
X118216236Y-119773022D01*
X120195000Y-119773022D01*
X120195000Y-120086979D01*
X120211785Y-120257400D01*
X120278115Y-120476060D01*
X120385829Y-120677579D01*
X120530789Y-120854212D01*
X120707422Y-120999171D01*
X120908941Y-121106885D01*
X121127601Y-121173215D01*
X121355000Y-121195612D01*
X121582400Y-121173215D01*
X121801060Y-121106885D01*
X122002579Y-120999171D01*
X122179212Y-120854212D01*
X122324171Y-120677578D01*
X122431885Y-120476059D01*
X122498215Y-120257399D01*
X122515000Y-120086978D01*
X122515000Y-119773021D01*
X122513411Y-119756889D01*
X122552729Y-119749068D01*
X122722889Y-119678586D01*
X122876028Y-119576262D01*
X123006262Y-119446028D01*
X123108586Y-119292889D01*
X123179068Y-119122729D01*
X123215000Y-118942089D01*
X123215000Y-118757911D01*
X123179068Y-118577271D01*
X123108586Y-118407111D01*
X123006262Y-118253972D01*
X122876028Y-118123738D01*
X122722889Y-118021414D01*
X122552729Y-117950932D01*
X122372089Y-117915000D01*
X122187911Y-117915000D01*
X122007271Y-117950932D01*
X121837111Y-118021414D01*
X121683972Y-118123738D01*
X121553738Y-118253972D01*
X121451414Y-118407111D01*
X121380932Y-118577271D01*
X121363438Y-118665219D01*
X121355000Y-118664388D01*
X121127600Y-118686785D01*
X120908940Y-118753115D01*
X120707421Y-118860829D01*
X120530788Y-119005788D01*
X120385829Y-119182422D01*
X120278115Y-119383941D01*
X120211785Y-119602601D01*
X120195000Y-119773022D01*
X118216236Y-119773022D01*
X118038601Y-119507174D01*
X117622826Y-119091399D01*
X117133928Y-118764727D01*
X116590692Y-118539712D01*
X116013997Y-118425000D01*
X115426003Y-118425000D01*
X114849308Y-118539712D01*
X114306072Y-118764727D01*
X113817174Y-119091399D01*
X113401399Y-119507174D01*
X113380000Y-119539200D01*
X113380000Y-117311306D01*
X122761605Y-117311306D01*
X122761605Y-117495484D01*
X122797537Y-117676124D01*
X122868019Y-117846284D01*
X122970343Y-117999423D01*
X123100577Y-118129657D01*
X123253716Y-118231981D01*
X123423876Y-118302463D01*
X123604516Y-118338395D01*
X123788694Y-118338395D01*
X123969334Y-118302463D01*
X124139494Y-118231981D01*
X124292633Y-118129657D01*
X124422867Y-117999423D01*
X124483913Y-117908061D01*
X131225000Y-117908061D01*
X131225000Y-118111939D01*
X131264774Y-118311898D01*
X131342795Y-118500256D01*
X131456063Y-118669774D01*
X131600226Y-118813937D01*
X131769744Y-118927205D01*
X131958102Y-119005226D01*
X132158061Y-119045000D01*
X132361939Y-119045000D01*
X132561898Y-119005226D01*
X132750256Y-118927205D01*
X132919774Y-118813937D01*
X133063937Y-118669774D01*
X133105172Y-118608061D01*
X142340010Y-118608061D01*
X142340010Y-118811939D01*
X142379784Y-119011898D01*
X142457805Y-119200256D01*
X142571073Y-119369774D01*
X142715236Y-119513937D01*
X142884754Y-119627205D01*
X143073112Y-119705226D01*
X143273071Y-119745000D01*
X143476949Y-119745000D01*
X143676908Y-119705226D01*
X143865266Y-119627205D01*
X144034784Y-119513937D01*
X144178947Y-119369774D01*
X144292215Y-119200256D01*
X144370236Y-119011898D01*
X144410010Y-118811939D01*
X144410010Y-118608061D01*
X144370236Y-118408102D01*
X144292215Y-118219744D01*
X144178947Y-118050226D01*
X144034784Y-117906063D01*
X143865266Y-117792795D01*
X143676908Y-117714774D01*
X143476949Y-117675000D01*
X143273071Y-117675000D01*
X143073112Y-117714774D01*
X142884754Y-117792795D01*
X142715236Y-117906063D01*
X142571073Y-118050226D01*
X142457805Y-118219744D01*
X142379784Y-118408102D01*
X142340010Y-118608061D01*
X133105172Y-118608061D01*
X133177205Y-118500256D01*
X133255226Y-118311898D01*
X133295000Y-118111939D01*
X133295000Y-117908061D01*
X133255226Y-117708102D01*
X133177205Y-117519744D01*
X133063937Y-117350226D01*
X132919774Y-117206063D01*
X132750256Y-117092795D01*
X132561898Y-117014774D01*
X132361939Y-116975000D01*
X132158061Y-116975000D01*
X131958102Y-117014774D01*
X131769744Y-117092795D01*
X131600226Y-117206063D01*
X131456063Y-117350226D01*
X131342795Y-117519744D01*
X131264774Y-117708102D01*
X131225000Y-117908061D01*
X124483913Y-117908061D01*
X124525191Y-117846284D01*
X124595673Y-117676124D01*
X124631605Y-117495484D01*
X124631605Y-117311306D01*
X124595673Y-117130666D01*
X124525191Y-116960506D01*
X124422867Y-116807367D01*
X124292633Y-116677133D01*
X124139494Y-116574809D01*
X123969334Y-116504327D01*
X123788694Y-116468395D01*
X123604516Y-116468395D01*
X123423876Y-116504327D01*
X123253716Y-116574809D01*
X123100577Y-116677133D01*
X122970343Y-116807367D01*
X122868019Y-116960506D01*
X122797537Y-117130666D01*
X122761605Y-117311306D01*
X113380000Y-117311306D01*
X113380000Y-110940000D01*
X113554025Y-110940000D01*
X113577870Y-111182102D01*
X113648489Y-111414901D01*
X113763167Y-111629449D01*
X113917498Y-111817502D01*
X114066762Y-111940000D01*
X113917498Y-112062498D01*
X113763167Y-112250551D01*
X113648489Y-112465099D01*
X113577870Y-112697898D01*
X113554025Y-112940000D01*
X113577870Y-113182102D01*
X113648489Y-113414901D01*
X113763167Y-113629449D01*
X113917498Y-113817502D01*
X113956111Y-113849191D01*
X113951613Y-113851595D01*
X113817038Y-113962038D01*
X113706595Y-114096613D01*
X113624528Y-114250149D01*
X113573992Y-114416745D01*
X113556928Y-114589999D01*
X113556928Y-115290001D01*
X113573992Y-115463255D01*
X113624528Y-115629851D01*
X113706595Y-115783387D01*
X113817038Y-115917962D01*
X113951613Y-116028405D01*
X114105149Y-116110472D01*
X114271745Y-116161008D01*
X114444999Y-116178072D01*
X115695001Y-116178072D01*
X115868255Y-116161008D01*
X116034851Y-116110472D01*
X116188387Y-116028405D01*
X116322962Y-115917962D01*
X116433405Y-115783387D01*
X116515472Y-115629851D01*
X116566008Y-115463255D01*
X116583072Y-115290001D01*
X116583072Y-114589999D01*
X116566008Y-114416745D01*
X116515472Y-114250149D01*
X116433405Y-114096613D01*
X116322962Y-113962038D01*
X116188387Y-113851595D01*
X116183889Y-113849191D01*
X116222502Y-113817502D01*
X116376833Y-113629449D01*
X116491511Y-113414901D01*
X116562130Y-113182102D01*
X116585975Y-112940000D01*
X116562130Y-112697898D01*
X116491511Y-112465099D01*
X116376833Y-112250551D01*
X116222502Y-112062498D01*
X116073238Y-111940000D01*
X116222502Y-111817502D01*
X116376833Y-111629449D01*
X116491511Y-111414901D01*
X116562130Y-111182102D01*
X116584990Y-110950000D01*
X119514025Y-110950000D01*
X119537870Y-111192102D01*
X119608489Y-111424901D01*
X119723167Y-111639449D01*
X119877498Y-111827502D01*
X120026762Y-111950000D01*
X119877498Y-112072498D01*
X119723167Y-112260551D01*
X119608489Y-112475099D01*
X119537870Y-112707898D01*
X119514025Y-112950000D01*
X119537870Y-113192102D01*
X119608489Y-113424901D01*
X119723167Y-113639449D01*
X119877498Y-113827502D01*
X119916111Y-113859191D01*
X119911613Y-113861595D01*
X119777038Y-113972038D01*
X119666595Y-114106613D01*
X119584528Y-114260149D01*
X119533992Y-114426745D01*
X119516928Y-114599999D01*
X119516928Y-115300001D01*
X119533992Y-115473255D01*
X119584528Y-115639851D01*
X119666595Y-115793387D01*
X119777038Y-115927962D01*
X119911613Y-116038405D01*
X120065149Y-116120472D01*
X120231745Y-116171008D01*
X120404999Y-116188072D01*
X121655001Y-116188072D01*
X121828255Y-116171008D01*
X121994851Y-116120472D01*
X122148387Y-116038405D01*
X122282962Y-115927962D01*
X122393405Y-115793387D01*
X122475472Y-115639851D01*
X122488148Y-115598061D01*
X130255000Y-115598061D01*
X130255000Y-115801939D01*
X130294774Y-116001898D01*
X130372795Y-116190256D01*
X130486063Y-116359774D01*
X130630226Y-116503937D01*
X130799744Y-116617205D01*
X130988102Y-116695226D01*
X131188061Y-116735000D01*
X131391939Y-116735000D01*
X131591898Y-116695226D01*
X131780256Y-116617205D01*
X131949774Y-116503937D01*
X132093937Y-116359774D01*
X132207205Y-116190256D01*
X132285226Y-116001898D01*
X132325000Y-115801939D01*
X132325000Y-115598061D01*
X132297123Y-115457911D01*
X138005000Y-115457911D01*
X138005000Y-115642089D01*
X138040932Y-115822729D01*
X138111414Y-115992889D01*
X138213738Y-116146028D01*
X138343972Y-116276262D01*
X138497111Y-116378586D01*
X138667271Y-116449068D01*
X138847911Y-116485000D01*
X139032089Y-116485000D01*
X139212729Y-116449068D01*
X139382889Y-116378586D01*
X139390926Y-116373216D01*
X139403972Y-116386262D01*
X139557111Y-116488586D01*
X139727271Y-116559068D01*
X139907911Y-116595000D01*
X140092089Y-116595000D01*
X140272729Y-116559068D01*
X140442889Y-116488586D01*
X140596028Y-116386262D01*
X140726262Y-116256028D01*
X140828586Y-116102889D01*
X140899068Y-115932729D01*
X140935000Y-115752089D01*
X140935000Y-115567911D01*
X140899068Y-115387271D01*
X140828586Y-115217111D01*
X140726262Y-115063972D01*
X140596028Y-114933738D01*
X140442889Y-114831414D01*
X140272729Y-114760932D01*
X140092089Y-114725000D01*
X139907911Y-114725000D01*
X139727271Y-114760932D01*
X139557111Y-114831414D01*
X139549074Y-114836784D01*
X139536028Y-114823738D01*
X139382889Y-114721414D01*
X139212729Y-114650932D01*
X139032089Y-114615000D01*
X138847911Y-114615000D01*
X138667271Y-114650932D01*
X138497111Y-114721414D01*
X138343972Y-114823738D01*
X138213738Y-114953972D01*
X138111414Y-115107111D01*
X138040932Y-115277271D01*
X138005000Y-115457911D01*
X132297123Y-115457911D01*
X132285226Y-115398102D01*
X132207205Y-115209744D01*
X132093937Y-115040226D01*
X131949774Y-114896063D01*
X131780256Y-114782795D01*
X131591898Y-114704774D01*
X131391939Y-114665000D01*
X131188061Y-114665000D01*
X130988102Y-114704774D01*
X130799744Y-114782795D01*
X130630226Y-114896063D01*
X130486063Y-115040226D01*
X130372795Y-115209744D01*
X130294774Y-115398102D01*
X130255000Y-115598061D01*
X122488148Y-115598061D01*
X122526008Y-115473255D01*
X122543072Y-115300001D01*
X122543072Y-114599999D01*
X122526008Y-114426745D01*
X122480861Y-114277911D01*
X125275000Y-114277911D01*
X125275000Y-114462089D01*
X125310932Y-114642729D01*
X125381414Y-114812889D01*
X125483738Y-114966028D01*
X125613972Y-115096262D01*
X125767111Y-115198586D01*
X125937271Y-115269068D01*
X126117911Y-115305000D01*
X126302089Y-115305000D01*
X126482729Y-115269068D01*
X126652889Y-115198586D01*
X126806028Y-115096262D01*
X126936262Y-114966028D01*
X127038586Y-114812889D01*
X127109068Y-114642729D01*
X127145000Y-114462089D01*
X127145000Y-114277911D01*
X127109068Y-114097271D01*
X127038586Y-113927111D01*
X126997085Y-113865000D01*
X127022089Y-113865000D01*
X127202729Y-113829068D01*
X127372889Y-113758586D01*
X127526028Y-113656262D01*
X127656262Y-113526028D01*
X127758586Y-113372889D01*
X127829068Y-113202729D01*
X127865000Y-113022089D01*
X127865000Y-112857911D01*
X128725000Y-112857911D01*
X128725000Y-113042089D01*
X128760932Y-113222729D01*
X128831414Y-113392889D01*
X128933738Y-113546028D01*
X129063972Y-113676262D01*
X129217111Y-113778586D01*
X129387271Y-113849068D01*
X129567911Y-113885000D01*
X129752089Y-113885000D01*
X129932729Y-113849068D01*
X130102889Y-113778586D01*
X130256028Y-113676262D01*
X130386262Y-113546028D01*
X130488586Y-113392889D01*
X130559068Y-113222729D01*
X130595000Y-113042089D01*
X130595000Y-112857911D01*
X130559068Y-112677271D01*
X130519426Y-112581565D01*
X130538586Y-112552889D01*
X130609068Y-112382729D01*
X130645000Y-112202089D01*
X130645000Y-112017911D01*
X130609068Y-111837271D01*
X130538586Y-111667111D01*
X130436262Y-111513972D01*
X130306028Y-111383738D01*
X130152889Y-111281414D01*
X129982729Y-111210932D01*
X129802089Y-111175000D01*
X129617911Y-111175000D01*
X129437271Y-111210932D01*
X129267111Y-111281414D01*
X129113972Y-111383738D01*
X128983738Y-111513972D01*
X128881414Y-111667111D01*
X128810932Y-111837271D01*
X128775000Y-112017911D01*
X128775000Y-112202089D01*
X128810932Y-112382729D01*
X128850574Y-112478435D01*
X128831414Y-112507111D01*
X128760932Y-112677271D01*
X128725000Y-112857911D01*
X127865000Y-112857911D01*
X127865000Y-112837911D01*
X127829068Y-112657271D01*
X127758586Y-112487111D01*
X127656262Y-112333972D01*
X127526028Y-112203738D01*
X127372889Y-112101414D01*
X127202729Y-112030932D01*
X127022089Y-111995000D01*
X126837911Y-111995000D01*
X126657271Y-112030932D01*
X126487111Y-112101414D01*
X126333972Y-112203738D01*
X126203738Y-112333972D01*
X126101414Y-112487111D01*
X126030932Y-112657271D01*
X125995000Y-112837911D01*
X125995000Y-113022089D01*
X126030932Y-113202729D01*
X126101414Y-113372889D01*
X126142915Y-113435000D01*
X126117911Y-113435000D01*
X125937271Y-113470932D01*
X125767111Y-113541414D01*
X125613972Y-113643738D01*
X125483738Y-113773972D01*
X125381414Y-113927111D01*
X125310932Y-114097271D01*
X125275000Y-114277911D01*
X122480861Y-114277911D01*
X122475472Y-114260149D01*
X122393405Y-114106613D01*
X122282962Y-113972038D01*
X122148387Y-113861595D01*
X122143889Y-113859191D01*
X122182502Y-113827502D01*
X122336833Y-113639449D01*
X122451511Y-113424901D01*
X122522130Y-113192102D01*
X122545975Y-112950000D01*
X122522130Y-112707898D01*
X122451511Y-112475099D01*
X122336833Y-112260551D01*
X122182502Y-112072498D01*
X122033238Y-111950000D01*
X122182502Y-111827502D01*
X122336833Y-111639449D01*
X122451511Y-111424901D01*
X122522130Y-111192102D01*
X122545975Y-110950000D01*
X122522130Y-110707898D01*
X122451511Y-110475099D01*
X122437059Y-110448061D01*
X131495000Y-110448061D01*
X131495000Y-110651939D01*
X131534774Y-110851898D01*
X131612795Y-111040256D01*
X131726063Y-111209774D01*
X131870226Y-111353937D01*
X132039744Y-111467205D01*
X132228102Y-111545226D01*
X132428061Y-111585000D01*
X132631939Y-111585000D01*
X132831898Y-111545226D01*
X133020256Y-111467205D01*
X133189774Y-111353937D01*
X133333937Y-111209774D01*
X133447205Y-111040256D01*
X133525226Y-110851898D01*
X133561793Y-110668061D01*
X137325000Y-110668061D01*
X137325000Y-110871939D01*
X137364774Y-111071898D01*
X137442795Y-111260256D01*
X137556063Y-111429774D01*
X137700226Y-111573937D01*
X137869744Y-111687205D01*
X138058102Y-111765226D01*
X138258061Y-111805000D01*
X138461939Y-111805000D01*
X138661898Y-111765226D01*
X138850256Y-111687205D01*
X139019774Y-111573937D01*
X139163937Y-111429774D01*
X139277205Y-111260256D01*
X139355226Y-111071898D01*
X139395000Y-110871939D01*
X139395000Y-110668061D01*
X139355226Y-110468102D01*
X139277205Y-110279744D01*
X139163937Y-110110226D01*
X139019774Y-109966063D01*
X138850256Y-109852795D01*
X138661898Y-109774774D01*
X138461939Y-109735000D01*
X138258061Y-109735000D01*
X138058102Y-109774774D01*
X137869744Y-109852795D01*
X137700226Y-109966063D01*
X137556063Y-110110226D01*
X137442795Y-110279744D01*
X137364774Y-110468102D01*
X137325000Y-110668061D01*
X133561793Y-110668061D01*
X133565000Y-110651939D01*
X133565000Y-110448061D01*
X133525226Y-110248102D01*
X133447205Y-110059744D01*
X133333937Y-109890226D01*
X133189774Y-109746063D01*
X133020256Y-109632795D01*
X132831898Y-109554774D01*
X132631939Y-109515000D01*
X132428061Y-109515000D01*
X132228102Y-109554774D01*
X132039744Y-109632795D01*
X131870226Y-109746063D01*
X131726063Y-109890226D01*
X131612795Y-110059744D01*
X131534774Y-110248102D01*
X131495000Y-110448061D01*
X122437059Y-110448061D01*
X122336833Y-110260551D01*
X122182502Y-110072498D01*
X121994449Y-109918167D01*
X121779901Y-109803489D01*
X121547102Y-109732870D01*
X121365665Y-109715000D01*
X120694335Y-109715000D01*
X120512898Y-109732870D01*
X120280099Y-109803489D01*
X120065551Y-109918167D01*
X119877498Y-110072498D01*
X119723167Y-110260551D01*
X119608489Y-110475099D01*
X119537870Y-110707898D01*
X119514025Y-110950000D01*
X116584990Y-110950000D01*
X116585975Y-110940000D01*
X116562130Y-110697898D01*
X116491511Y-110465099D01*
X116376833Y-110250551D01*
X116222502Y-110062498D01*
X116034449Y-109908167D01*
X115819901Y-109793489D01*
X115587102Y-109722870D01*
X115405665Y-109705000D01*
X114734335Y-109705000D01*
X114552898Y-109722870D01*
X114320099Y-109793489D01*
X114105551Y-109908167D01*
X113917498Y-110062498D01*
X113763167Y-110250551D01*
X113648489Y-110465099D01*
X113577870Y-110697898D01*
X113554025Y-110940000D01*
X113380000Y-110940000D01*
X113380000Y-109167911D01*
X128915000Y-109167911D01*
X128915000Y-109352089D01*
X128950932Y-109532729D01*
X129021414Y-109702889D01*
X129123738Y-109856028D01*
X129253972Y-109986262D01*
X129407111Y-110088586D01*
X129577271Y-110159068D01*
X129757911Y-110195000D01*
X129942089Y-110195000D01*
X130122729Y-110159068D01*
X130292889Y-110088586D01*
X130446028Y-109986262D01*
X130576262Y-109856028D01*
X130678586Y-109702889D01*
X130749068Y-109532729D01*
X130785000Y-109352089D01*
X130785000Y-109167911D01*
X130749068Y-108987271D01*
X130678586Y-108817111D01*
X130576262Y-108663972D01*
X130446028Y-108533738D01*
X130292889Y-108431414D01*
X130122729Y-108360932D01*
X129942089Y-108325000D01*
X129757911Y-108325000D01*
X129577271Y-108360932D01*
X129407111Y-108431414D01*
X129253972Y-108533738D01*
X129123738Y-108663972D01*
X129021414Y-108817111D01*
X128950932Y-108987271D01*
X128915000Y-109167911D01*
X113380000Y-109167911D01*
X113380000Y-105899721D01*
X124265000Y-105899721D01*
X124265000Y-106320279D01*
X124347047Y-106732756D01*
X124507988Y-107121302D01*
X124741637Y-107470983D01*
X125039017Y-107768363D01*
X125388698Y-108002012D01*
X125777244Y-108162953D01*
X126189721Y-108245000D01*
X126610279Y-108245000D01*
X127022756Y-108162953D01*
X127411302Y-108002012D01*
X127760983Y-107768363D01*
X128058363Y-107470983D01*
X128292012Y-107121302D01*
X128452953Y-106732756D01*
X128535000Y-106320279D01*
X128535000Y-105899721D01*
X128452953Y-105487244D01*
X128292012Y-105098698D01*
X128058363Y-104749017D01*
X127760983Y-104451637D01*
X127411302Y-104217988D01*
X127022756Y-104057047D01*
X126610279Y-103975000D01*
X126189721Y-103975000D01*
X125777244Y-104057047D01*
X125388698Y-104217988D01*
X125039017Y-104451637D01*
X124741637Y-104749017D01*
X124507988Y-105098698D01*
X124347047Y-105487244D01*
X124265000Y-105899721D01*
X113380000Y-105899721D01*
X113380000Y-101752237D01*
X113380017Y-101752063D01*
X113380000Y-101720511D01*
X113380000Y-101687581D01*
X113379982Y-101687400D01*
X113372069Y-86999721D01*
X124265000Y-86999721D01*
X124265000Y-87420279D01*
X124347047Y-87832756D01*
X124507988Y-88221302D01*
X124741637Y-88570983D01*
X125039017Y-88868363D01*
X125388698Y-89102012D01*
X125777244Y-89262953D01*
X126189721Y-89345000D01*
X126610279Y-89345000D01*
X127022756Y-89262953D01*
X127411302Y-89102012D01*
X127760983Y-88868363D01*
X128058363Y-88570983D01*
X128292012Y-88221302D01*
X128452953Y-87832756D01*
X128535000Y-87420279D01*
X128535000Y-86999721D01*
X128452953Y-86587244D01*
X128292012Y-86198698D01*
X128058363Y-85849017D01*
X127760983Y-85551637D01*
X127496411Y-85374856D01*
X127503429Y-85357911D01*
X142015000Y-85357911D01*
X142015000Y-85542089D01*
X142050932Y-85722729D01*
X142121414Y-85892889D01*
X142223738Y-86046028D01*
X142353972Y-86176262D01*
X142507111Y-86278586D01*
X142677271Y-86349068D01*
X142857911Y-86385000D01*
X143042089Y-86385000D01*
X143222729Y-86349068D01*
X143392889Y-86278586D01*
X143546028Y-86176262D01*
X143676262Y-86046028D01*
X143778586Y-85892889D01*
X143849068Y-85722729D01*
X143885000Y-85542089D01*
X143885000Y-85357911D01*
X143849068Y-85177271D01*
X143778586Y-85007111D01*
X143676262Y-84853972D01*
X143546028Y-84723738D01*
X143392889Y-84621414D01*
X143222729Y-84550932D01*
X143042089Y-84515000D01*
X142857911Y-84515000D01*
X142677271Y-84550932D01*
X142507111Y-84621414D01*
X142353972Y-84723738D01*
X142223738Y-84853972D01*
X142121414Y-85007111D01*
X142050932Y-85177271D01*
X142015000Y-85357911D01*
X127503429Y-85357911D01*
X127549068Y-85247729D01*
X127585000Y-85067089D01*
X127585000Y-84882911D01*
X127549068Y-84702271D01*
X127478586Y-84532111D01*
X127376262Y-84378972D01*
X127246028Y-84248738D01*
X127092889Y-84146414D01*
X126922729Y-84075932D01*
X126742089Y-84040000D01*
X126557911Y-84040000D01*
X126377271Y-84075932D01*
X126207111Y-84146414D01*
X126053972Y-84248738D01*
X125923738Y-84378972D01*
X125821414Y-84532111D01*
X125750932Y-84702271D01*
X125715000Y-84882911D01*
X125715000Y-85067089D01*
X125736270Y-85174019D01*
X125388698Y-85317988D01*
X125039017Y-85551637D01*
X124741637Y-85849017D01*
X124507988Y-86198698D01*
X124347047Y-86587244D01*
X124265000Y-86999721D01*
X113372069Y-86999721D01*
X113371000Y-85017331D01*
X113401399Y-85062826D01*
X113817174Y-85478601D01*
X114306072Y-85805273D01*
X114849308Y-86030288D01*
X115426003Y-86145000D01*
X116013997Y-86145000D01*
X116590692Y-86030288D01*
X117133928Y-85805273D01*
X117622826Y-85478601D01*
X118038601Y-85062826D01*
X118365273Y-84573928D01*
X118590288Y-84030692D01*
X118704221Y-83457910D01*
X133455000Y-83457910D01*
X133455000Y-83642088D01*
X133490932Y-83822728D01*
X133561414Y-83992888D01*
X133663738Y-84146027D01*
X133793972Y-84276261D01*
X133947111Y-84378585D01*
X134117271Y-84449067D01*
X134297911Y-84484999D01*
X134482089Y-84484999D01*
X134662729Y-84449067D01*
X134832889Y-84378585D01*
X134986028Y-84276261D01*
X135116262Y-84146027D01*
X135218586Y-83992888D01*
X135289068Y-83822728D01*
X135325000Y-83642088D01*
X135325000Y-83457910D01*
X135289068Y-83277270D01*
X135218586Y-83107110D01*
X135116262Y-82953971D01*
X134986028Y-82823737D01*
X134832889Y-82721413D01*
X134662729Y-82650931D01*
X134572138Y-82632911D01*
X135865000Y-82632911D01*
X135865000Y-82817089D01*
X135900932Y-82997729D01*
X135971414Y-83167889D01*
X136073738Y-83321028D01*
X136203972Y-83451262D01*
X136357111Y-83553586D01*
X136527271Y-83624068D01*
X136707911Y-83660000D01*
X136892089Y-83660000D01*
X137072729Y-83624068D01*
X137242889Y-83553586D01*
X137396028Y-83451262D01*
X137526262Y-83321028D01*
X137628586Y-83167889D01*
X137699068Y-82997729D01*
X137735000Y-82817089D01*
X137735000Y-82632911D01*
X137699068Y-82452271D01*
X137628586Y-82282111D01*
X137526262Y-82128972D01*
X137396028Y-81998738D01*
X137242889Y-81896414D01*
X137072729Y-81825932D01*
X136892089Y-81790000D01*
X136707911Y-81790000D01*
X136527271Y-81825932D01*
X136357111Y-81896414D01*
X136203972Y-81998738D01*
X136073738Y-82128972D01*
X135971414Y-82282111D01*
X135900932Y-82452271D01*
X135865000Y-82632911D01*
X134572138Y-82632911D01*
X134482089Y-82614999D01*
X134297911Y-82614999D01*
X134117271Y-82650931D01*
X133947111Y-82721413D01*
X133793972Y-82823737D01*
X133663738Y-82953971D01*
X133561414Y-83107110D01*
X133490932Y-83277270D01*
X133455000Y-83457910D01*
X118704221Y-83457910D01*
X118705000Y-83453997D01*
X118705000Y-82866003D01*
X118590288Y-82289308D01*
X118365273Y-81746072D01*
X118038601Y-81257174D01*
X117622826Y-80841399D01*
X117590320Y-80819679D01*
X122882730Y-80818779D01*
X122865000Y-80907911D01*
X122865000Y-81092089D01*
X122900932Y-81272729D01*
X122971414Y-81442889D01*
X123073738Y-81596028D01*
X123203972Y-81726262D01*
X123357111Y-81828586D01*
X123527271Y-81899068D01*
X123707911Y-81935000D01*
X123892089Y-81935000D01*
X124072729Y-81899068D01*
X124242889Y-81828586D01*
X124396028Y-81726262D01*
X124526262Y-81596028D01*
X124628586Y-81442889D01*
X124699068Y-81272729D01*
X124735000Y-81092089D01*
X124735000Y-80907911D01*
X124717208Y-80818466D01*
X133798268Y-80816920D01*
X133771414Y-80857111D01*
X133700932Y-81027271D01*
X133665000Y-81207911D01*
X133665000Y-81392089D01*
X133700932Y-81572729D01*
X133771414Y-81742889D01*
X133873738Y-81896028D01*
X134003972Y-82026262D01*
X134157111Y-82128586D01*
X134327271Y-82199068D01*
X134507911Y-82235000D01*
X134692089Y-82235000D01*
X134872729Y-82199068D01*
X135042889Y-82128586D01*
X135196028Y-82026262D01*
X135326262Y-81896028D01*
X135428586Y-81742889D01*
X135483531Y-81610240D01*
X135577271Y-81649068D01*
X135757911Y-81685000D01*
X135942089Y-81685000D01*
X136122729Y-81649068D01*
X136292889Y-81578586D01*
X136446028Y-81476262D01*
X136576262Y-81346028D01*
X136678586Y-81192889D01*
X136749068Y-81022729D01*
X136785000Y-80842089D01*
X136785000Y-80816412D01*
X141265396Y-80815649D01*
X141255000Y-80867911D01*
X141255000Y-81052089D01*
X141290932Y-81232729D01*
X141361414Y-81402889D01*
X141463738Y-81556028D01*
X141593972Y-81686262D01*
X141747111Y-81788586D01*
X141917271Y-81859068D01*
X142097911Y-81895000D01*
X142282089Y-81895000D01*
X142462729Y-81859068D01*
X142632889Y-81788586D01*
X142786028Y-81686262D01*
X142916262Y-81556028D01*
X143018586Y-81402889D01*
X143089068Y-81232729D01*
X143125000Y-81052089D01*
X143125000Y-80867911D01*
X143114542Y-80815335D01*
X145573000Y-80814916D01*
X145573000Y-87346809D01*
G37*
X145573000Y-87346809D02*
X145552271Y-87350932D01*
X145382111Y-87421414D01*
X145228972Y-87523738D01*
X145098738Y-87653972D01*
X144996414Y-87807111D01*
X144925932Y-87977271D01*
X144892317Y-88146263D01*
X144785452Y-88217668D01*
X144641289Y-88361831D01*
X144528021Y-88531349D01*
X144510768Y-88573000D01*
X142279621Y-88573000D01*
X142378586Y-88424888D01*
X142449068Y-88254728D01*
X142485000Y-88074088D01*
X142485000Y-87889910D01*
X142449068Y-87709270D01*
X142378586Y-87539110D01*
X142276262Y-87385971D01*
X142146028Y-87255737D01*
X141992889Y-87153413D01*
X141822729Y-87082931D01*
X141642089Y-87046999D01*
X141457911Y-87046999D01*
X141277271Y-87082931D01*
X141107111Y-87153413D01*
X140953972Y-87255737D01*
X140823738Y-87385971D01*
X140721414Y-87539110D01*
X140650932Y-87709270D01*
X140615000Y-87889910D01*
X140615000Y-88074088D01*
X140650932Y-88254728D01*
X140721414Y-88424888D01*
X140820379Y-88573000D01*
X138927000Y-88573000D01*
X138927000Y-86850000D01*
X138924560Y-86825224D01*
X138917333Y-86801399D01*
X138905597Y-86779443D01*
X138889803Y-86760197D01*
X138870557Y-86744403D01*
X138848601Y-86732667D01*
X138824776Y-86725440D01*
X138800000Y-86723000D01*
X137357535Y-86723000D01*
X137399068Y-86622729D01*
X137435000Y-86442089D01*
X137435000Y-86257911D01*
X137399068Y-86077271D01*
X137328586Y-85907111D01*
X137226262Y-85753972D01*
X137096028Y-85623738D01*
X136942889Y-85521414D01*
X136772729Y-85450932D01*
X136592089Y-85415000D01*
X136407911Y-85415000D01*
X136227271Y-85450932D01*
X136057111Y-85521414D01*
X136037415Y-85534574D01*
X135942889Y-85471414D01*
X135772729Y-85400932D01*
X135592089Y-85365000D01*
X135407911Y-85365000D01*
X135227271Y-85400932D01*
X135057111Y-85471414D01*
X134903972Y-85573738D01*
X134773738Y-85703972D01*
X134675000Y-85851744D01*
X134576262Y-85703972D01*
X134446028Y-85573738D01*
X134292889Y-85471414D01*
X134122729Y-85400932D01*
X133942089Y-85365000D01*
X133757911Y-85365000D01*
X133577271Y-85400932D01*
X133407111Y-85471414D01*
X133253972Y-85573738D01*
X133123738Y-85703972D01*
X133021414Y-85857111D01*
X132959049Y-86007674D01*
X132893937Y-85910226D01*
X132749774Y-85766063D01*
X132580256Y-85652795D01*
X132391898Y-85574774D01*
X132191939Y-85535000D01*
X131988061Y-85535000D01*
X131788102Y-85574774D01*
X131599744Y-85652795D01*
X131430226Y-85766063D01*
X131286063Y-85910226D01*
X131172795Y-86079744D01*
X131094774Y-86268102D01*
X131055000Y-86468061D01*
X131055000Y-86671939D01*
X131094774Y-86871898D01*
X131123000Y-86940041D01*
X131123000Y-90521944D01*
X130977271Y-90550932D01*
X130807111Y-90621414D01*
X130653972Y-90723738D01*
X130523738Y-90853972D01*
X130421414Y-91007111D01*
X130350932Y-91177271D01*
X130315000Y-91357911D01*
X130315000Y-91542089D01*
X130350932Y-91722729D01*
X130421414Y-91892889D01*
X130523738Y-92046028D01*
X130653972Y-92176262D01*
X130807111Y-92278586D01*
X130977271Y-92349068D01*
X131123000Y-92378056D01*
X131123000Y-97223000D01*
X129550000Y-97223000D01*
X129525224Y-97225440D01*
X129501399Y-97232667D01*
X129479443Y-97244403D01*
X129460197Y-97260197D01*
X129444403Y-97279443D01*
X129432667Y-97301399D01*
X129425440Y-97325224D01*
X129423000Y-97350000D01*
X129423000Y-100950710D01*
X129296028Y-100823738D01*
X129142889Y-100721414D01*
X128972729Y-100650932D01*
X128792089Y-100615000D01*
X128607911Y-100615000D01*
X128427271Y-100650932D01*
X128257111Y-100721414D01*
X128103972Y-100823738D01*
X127973738Y-100953972D01*
X127871414Y-101107111D01*
X127800932Y-101277271D01*
X127778110Y-101392006D01*
X127707111Y-101421414D01*
X127553972Y-101523738D01*
X127423738Y-101653972D01*
X127321414Y-101807111D01*
X127250932Y-101977271D01*
X127215000Y-102157911D01*
X127215000Y-102342089D01*
X127250932Y-102522729D01*
X127321414Y-102692889D01*
X127423738Y-102846028D01*
X127553972Y-102976262D01*
X127707111Y-103078586D01*
X127799787Y-103116973D01*
X127800932Y-103122729D01*
X127871414Y-103292889D01*
X127973738Y-103446028D01*
X128103972Y-103576262D01*
X128257111Y-103678586D01*
X128427271Y-103749068D01*
X128607911Y-103785000D01*
X128792089Y-103785000D01*
X128972729Y-103749068D01*
X129142889Y-103678586D01*
X129296028Y-103576262D01*
X129423000Y-103449290D01*
X129423000Y-106350000D01*
X129425440Y-106374776D01*
X129432667Y-106398601D01*
X129444403Y-106420557D01*
X129460197Y-106439803D01*
X129479443Y-106455597D01*
X129501399Y-106467333D01*
X129525224Y-106474560D01*
X129550000Y-106477000D01*
X132450710Y-106477000D01*
X132433738Y-106493972D01*
X132331414Y-106647111D01*
X132260932Y-106817271D01*
X132225000Y-106997911D01*
X132225000Y-107182089D01*
X132260932Y-107362729D01*
X132331414Y-107532889D01*
X132433738Y-107686028D01*
X132563972Y-107816262D01*
X132717111Y-107918586D01*
X132887271Y-107989068D01*
X133067911Y-108025000D01*
X133252089Y-108025000D01*
X133432729Y-107989068D01*
X133602889Y-107918586D01*
X133655068Y-107883721D01*
X133767111Y-107958586D01*
X133937271Y-108029068D01*
X134117911Y-108065000D01*
X134302089Y-108065000D01*
X134482729Y-108029068D01*
X134652889Y-107958586D01*
X134806028Y-107856262D01*
X134936262Y-107726028D01*
X135038586Y-107572889D01*
X135109068Y-107402729D01*
X135145000Y-107222089D01*
X135145000Y-107037911D01*
X135109068Y-106857271D01*
X135038586Y-106687111D01*
X134936262Y-106533972D01*
X134879290Y-106477000D01*
X136185018Y-106477000D01*
X136155000Y-106627911D01*
X136155000Y-106812089D01*
X136190932Y-106992729D01*
X136261414Y-107162889D01*
X136363738Y-107316028D01*
X136493972Y-107446262D01*
X136647111Y-107548586D01*
X136817271Y-107619068D01*
X136997911Y-107655000D01*
X137182089Y-107655000D01*
X137362729Y-107619068D01*
X137532889Y-107548586D01*
X137686028Y-107446262D01*
X137816262Y-107316028D01*
X137918586Y-107162889D01*
X137989068Y-106992729D01*
X138025000Y-106812089D01*
X138025000Y-106669133D01*
X138097271Y-106699068D01*
X138277911Y-106735000D01*
X138444822Y-106735000D01*
X145423000Y-110921907D01*
X145423000Y-118350000D01*
X145425440Y-118374776D01*
X145432667Y-118398601D01*
X145444403Y-118420557D01*
X145460197Y-118439803D01*
X145479443Y-118455597D01*
X145501399Y-118467333D01*
X145525224Y-118474560D01*
X145549708Y-118477000D01*
X157601176Y-118504726D01*
X157595172Y-118508738D01*
X157464938Y-118638972D01*
X157362614Y-118792111D01*
X157292132Y-118962271D01*
X157256200Y-119142911D01*
X157256200Y-119327089D01*
X157292132Y-119507729D01*
X157362614Y-119677889D01*
X157464938Y-119831028D01*
X157595172Y-119961262D01*
X157748311Y-120063586D01*
X157918471Y-120134068D01*
X158099111Y-120170000D01*
X158283289Y-120170000D01*
X158463929Y-120134068D01*
X158567700Y-120091085D01*
X158791484Y-123740000D01*
X150031492Y-123740000D01*
X150045000Y-123672089D01*
X150045000Y-123487911D01*
X150009068Y-123307271D01*
X149988577Y-123257801D01*
X150018586Y-123212889D01*
X150089068Y-123042729D01*
X150125000Y-122862089D01*
X150125000Y-122677911D01*
X150089068Y-122497271D01*
X150073708Y-122460189D01*
X150078586Y-122452889D01*
X150149068Y-122282729D01*
X150185000Y-122102089D01*
X150185000Y-121917911D01*
X150149068Y-121737271D01*
X150078586Y-121567111D01*
X149976262Y-121413972D01*
X149846028Y-121283738D01*
X149692889Y-121181414D01*
X149522729Y-121110932D01*
X149342089Y-121075000D01*
X149157911Y-121075000D01*
X148977271Y-121110932D01*
X148807111Y-121181414D01*
X148653972Y-121283738D01*
X148523738Y-121413972D01*
X148421414Y-121567111D01*
X148350932Y-121737271D01*
X148315000Y-121917911D01*
X148315000Y-122102089D01*
X148350932Y-122282729D01*
X148366292Y-122319811D01*
X148361414Y-122327111D01*
X148290932Y-122497271D01*
X148255000Y-122677911D01*
X148255000Y-122862089D01*
X148290932Y-123042729D01*
X148311423Y-123092199D01*
X148281414Y-123137111D01*
X148210932Y-123307271D01*
X148175000Y-123487911D01*
X148175000Y-123672089D01*
X148188508Y-123740000D01*
X147229783Y-123740000D01*
X147299068Y-123572729D01*
X147335000Y-123392089D01*
X147335000Y-123207911D01*
X147299068Y-123027271D01*
X147228586Y-122857111D01*
X147126262Y-122703972D01*
X147072290Y-122650000D01*
X147126262Y-122596028D01*
X147228586Y-122442889D01*
X147299068Y-122272729D01*
X147335000Y-122092089D01*
X147335000Y-121907911D01*
X147299068Y-121727271D01*
X147228586Y-121557111D01*
X147126262Y-121403972D01*
X146996028Y-121273738D01*
X146842889Y-121171414D01*
X146672729Y-121100932D01*
X146492089Y-121065000D01*
X146307911Y-121065000D01*
X146127271Y-121100932D01*
X145957111Y-121171414D01*
X145803972Y-121273738D01*
X145673738Y-121403972D01*
X145571414Y-121557111D01*
X145500932Y-121727271D01*
X145465000Y-121907911D01*
X145465000Y-121966369D01*
X145453972Y-121973738D01*
X145323738Y-122103972D01*
X145221414Y-122257111D01*
X145150932Y-122427271D01*
X145115000Y-122607911D01*
X145115000Y-122792089D01*
X145150932Y-122972729D01*
X145221414Y-123142889D01*
X145323738Y-123296028D01*
X145453972Y-123426262D01*
X145474530Y-123439998D01*
X145500932Y-123572729D01*
X145570217Y-123740000D01*
X128831866Y-123740001D01*
X128873577Y-123602499D01*
X128890000Y-123435751D01*
X128890000Y-122424248D01*
X128873577Y-122257501D01*
X128808676Y-122043553D01*
X128703284Y-121846377D01*
X128561449Y-121673551D01*
X128388623Y-121531716D01*
X128191446Y-121426324D01*
X127977498Y-121361423D01*
X127755000Y-121339509D01*
X127532501Y-121361423D01*
X127369324Y-121410923D01*
X127496028Y-121326262D01*
X127626262Y-121196028D01*
X127728586Y-121042889D01*
X127799068Y-120872729D01*
X127835000Y-120692089D01*
X127835000Y-120664336D01*
X132065000Y-120664336D01*
X132065000Y-121335665D01*
X132082870Y-121517102D01*
X132153489Y-121749901D01*
X132268168Y-121964449D01*
X132422499Y-122152502D01*
X132610552Y-122306833D01*
X132825100Y-122421511D01*
X133057899Y-122492130D01*
X133300000Y-122515975D01*
X133542102Y-122492130D01*
X133774901Y-122421511D01*
X133989449Y-122306833D01*
X134177502Y-122152502D01*
X134300001Y-122003237D01*
X134422499Y-122152502D01*
X134610552Y-122306833D01*
X134825100Y-122421511D01*
X135057899Y-122492130D01*
X135300000Y-122515975D01*
X135542102Y-122492130D01*
X135774901Y-122421511D01*
X135989449Y-122306833D01*
X136177502Y-122152502D01*
X136300001Y-122003237D01*
X136422499Y-122152502D01*
X136610552Y-122306833D01*
X136825100Y-122421511D01*
X137057899Y-122492130D01*
X137300000Y-122515975D01*
X137542102Y-122492130D01*
X137774901Y-122421511D01*
X137989449Y-122306833D01*
X138177502Y-122152502D01*
X138300001Y-122003237D01*
X138422499Y-122152502D01*
X138610552Y-122306833D01*
X138825100Y-122421511D01*
X139057899Y-122492130D01*
X139300000Y-122515975D01*
X139542102Y-122492130D01*
X139774901Y-122421511D01*
X139989449Y-122306833D01*
X140177502Y-122152502D01*
X140300001Y-122003237D01*
X140422499Y-122152502D01*
X140610552Y-122306833D01*
X140825100Y-122421511D01*
X141057899Y-122492130D01*
X141300000Y-122515975D01*
X141542102Y-122492130D01*
X141774901Y-122421511D01*
X141989449Y-122306833D01*
X142177502Y-122152502D01*
X142331833Y-121964449D01*
X142446511Y-121749900D01*
X142517130Y-121517101D01*
X142535000Y-121335664D01*
X142535000Y-120664335D01*
X142517130Y-120482898D01*
X142446511Y-120250099D01*
X142331833Y-120035551D01*
X142177502Y-119847498D01*
X141989448Y-119693167D01*
X141774900Y-119578489D01*
X141542101Y-119507870D01*
X141300000Y-119484025D01*
X141057898Y-119507870D01*
X140825099Y-119578489D01*
X140610551Y-119693167D01*
X140422498Y-119847498D01*
X140300000Y-119996763D01*
X140177502Y-119847498D01*
X139989448Y-119693167D01*
X139774900Y-119578489D01*
X139542101Y-119507870D01*
X139300000Y-119484025D01*
X139057898Y-119507870D01*
X138825099Y-119578489D01*
X138610551Y-119693167D01*
X138422498Y-119847498D01*
X138300000Y-119996763D01*
X138177502Y-119847498D01*
X137989448Y-119693167D01*
X137774900Y-119578489D01*
X137542101Y-119507870D01*
X137300000Y-119484025D01*
X137057898Y-119507870D01*
X136825099Y-119578489D01*
X136610551Y-119693167D01*
X136422498Y-119847498D01*
X136300000Y-119996763D01*
X136177502Y-119847498D01*
X135989448Y-119693167D01*
X135774900Y-119578489D01*
X135542101Y-119507870D01*
X135300000Y-119484025D01*
X135057898Y-119507870D01*
X134825099Y-119578489D01*
X134610551Y-119693167D01*
X134422498Y-119847498D01*
X134300000Y-119996763D01*
X134177502Y-119847498D01*
X133989448Y-119693167D01*
X133774900Y-119578489D01*
X133542101Y-119507870D01*
X133300000Y-119484025D01*
X133057898Y-119507870D01*
X132825099Y-119578489D01*
X132610551Y-119693167D01*
X132422498Y-119847498D01*
X132268167Y-120035552D01*
X132153489Y-120250100D01*
X132082870Y-120482899D01*
X132065000Y-120664336D01*
X127835000Y-120664336D01*
X127835000Y-120507911D01*
X127799068Y-120327271D01*
X127728586Y-120157111D01*
X127626262Y-120003972D01*
X127496028Y-119873738D01*
X127342889Y-119771414D01*
X127172729Y-119700932D01*
X126992089Y-119665000D01*
X126954361Y-119665000D01*
X126948215Y-119602600D01*
X126881885Y-119383940D01*
X126774171Y-119182421D01*
X126629212Y-119005788D01*
X126452578Y-118860829D01*
X126251059Y-118753115D01*
X126032399Y-118686785D01*
X125805000Y-118664388D01*
X125577600Y-118686785D01*
X125358940Y-118753115D01*
X125157421Y-118860829D01*
X124980788Y-119005788D01*
X124835829Y-119182422D01*
X124728115Y-119383941D01*
X124661785Y-119602601D01*
X124645000Y-119773022D01*
X124645000Y-120086979D01*
X124661785Y-120257400D01*
X124728115Y-120476060D01*
X124835829Y-120677579D01*
X124980789Y-120854212D01*
X125157422Y-120999171D01*
X125358941Y-121106885D01*
X125577601Y-121173215D01*
X125805000Y-121195612D01*
X126032400Y-121173215D01*
X126137244Y-121141411D01*
X126173738Y-121196028D01*
X126303972Y-121326262D01*
X126457111Y-121428586D01*
X126627271Y-121499068D01*
X126807911Y-121535000D01*
X126992089Y-121535000D01*
X127172729Y-121499068D01*
X127215955Y-121481163D01*
X127121377Y-121531716D01*
X126948551Y-121673551D01*
X126806716Y-121846377D01*
X126701324Y-122043554D01*
X126636423Y-122257502D01*
X126620000Y-122424249D01*
X126620000Y-123435752D01*
X126636423Y-123602499D01*
X126678134Y-123740001D01*
X120481866Y-123740001D01*
X120523577Y-123602499D01*
X120540000Y-123435751D01*
X120540000Y-122424248D01*
X120523577Y-122257501D01*
X120458676Y-122043553D01*
X120353284Y-121846377D01*
X120211449Y-121673551D01*
X120038623Y-121531716D01*
X119841446Y-121426324D01*
X119627498Y-121361423D01*
X119405000Y-121339509D01*
X119182501Y-121361423D01*
X118968553Y-121426324D01*
X118771377Y-121531716D01*
X118705000Y-121586190D01*
X118705000Y-121116003D01*
X118590288Y-120539308D01*
X118365273Y-119996072D01*
X118216236Y-119773022D01*
X120195000Y-119773022D01*
X120195000Y-120086979D01*
X120211785Y-120257400D01*
X120278115Y-120476060D01*
X120385829Y-120677579D01*
X120530789Y-120854212D01*
X120707422Y-120999171D01*
X120908941Y-121106885D01*
X121127601Y-121173215D01*
X121355000Y-121195612D01*
X121582400Y-121173215D01*
X121801060Y-121106885D01*
X122002579Y-120999171D01*
X122179212Y-120854212D01*
X122324171Y-120677578D01*
X122431885Y-120476059D01*
X122498215Y-120257399D01*
X122515000Y-120086978D01*
X122515000Y-119773021D01*
X122513411Y-119756889D01*
X122552729Y-119749068D01*
X122722889Y-119678586D01*
X122876028Y-119576262D01*
X123006262Y-119446028D01*
X123108586Y-119292889D01*
X123179068Y-119122729D01*
X123215000Y-118942089D01*
X123215000Y-118757911D01*
X123179068Y-118577271D01*
X123108586Y-118407111D01*
X123006262Y-118253972D01*
X122876028Y-118123738D01*
X122722889Y-118021414D01*
X122552729Y-117950932D01*
X122372089Y-117915000D01*
X122187911Y-117915000D01*
X122007271Y-117950932D01*
X121837111Y-118021414D01*
X121683972Y-118123738D01*
X121553738Y-118253972D01*
X121451414Y-118407111D01*
X121380932Y-118577271D01*
X121363438Y-118665219D01*
X121355000Y-118664388D01*
X121127600Y-118686785D01*
X120908940Y-118753115D01*
X120707421Y-118860829D01*
X120530788Y-119005788D01*
X120385829Y-119182422D01*
X120278115Y-119383941D01*
X120211785Y-119602601D01*
X120195000Y-119773022D01*
X118216236Y-119773022D01*
X118038601Y-119507174D01*
X117622826Y-119091399D01*
X117133928Y-118764727D01*
X116590692Y-118539712D01*
X116013997Y-118425000D01*
X115426003Y-118425000D01*
X114849308Y-118539712D01*
X114306072Y-118764727D01*
X113817174Y-119091399D01*
X113401399Y-119507174D01*
X113380000Y-119539200D01*
X113380000Y-117311306D01*
X122761605Y-117311306D01*
X122761605Y-117495484D01*
X122797537Y-117676124D01*
X122868019Y-117846284D01*
X122970343Y-117999423D01*
X123100577Y-118129657D01*
X123253716Y-118231981D01*
X123423876Y-118302463D01*
X123604516Y-118338395D01*
X123788694Y-118338395D01*
X123969334Y-118302463D01*
X124139494Y-118231981D01*
X124292633Y-118129657D01*
X124422867Y-117999423D01*
X124483913Y-117908061D01*
X131225000Y-117908061D01*
X131225000Y-118111939D01*
X131264774Y-118311898D01*
X131342795Y-118500256D01*
X131456063Y-118669774D01*
X131600226Y-118813937D01*
X131769744Y-118927205D01*
X131958102Y-119005226D01*
X132158061Y-119045000D01*
X132361939Y-119045000D01*
X132561898Y-119005226D01*
X132750256Y-118927205D01*
X132919774Y-118813937D01*
X133063937Y-118669774D01*
X133105172Y-118608061D01*
X142340010Y-118608061D01*
X142340010Y-118811939D01*
X142379784Y-119011898D01*
X142457805Y-119200256D01*
X142571073Y-119369774D01*
X142715236Y-119513937D01*
X142884754Y-119627205D01*
X143073112Y-119705226D01*
X143273071Y-119745000D01*
X143476949Y-119745000D01*
X143676908Y-119705226D01*
X143865266Y-119627205D01*
X144034784Y-119513937D01*
X144178947Y-119369774D01*
X144292215Y-119200256D01*
X144370236Y-119011898D01*
X144410010Y-118811939D01*
X144410010Y-118608061D01*
X144370236Y-118408102D01*
X144292215Y-118219744D01*
X144178947Y-118050226D01*
X144034784Y-117906063D01*
X143865266Y-117792795D01*
X143676908Y-117714774D01*
X143476949Y-117675000D01*
X143273071Y-117675000D01*
X143073112Y-117714774D01*
X142884754Y-117792795D01*
X142715236Y-117906063D01*
X142571073Y-118050226D01*
X142457805Y-118219744D01*
X142379784Y-118408102D01*
X142340010Y-118608061D01*
X133105172Y-118608061D01*
X133177205Y-118500256D01*
X133255226Y-118311898D01*
X133295000Y-118111939D01*
X133295000Y-117908061D01*
X133255226Y-117708102D01*
X133177205Y-117519744D01*
X133063937Y-117350226D01*
X132919774Y-117206063D01*
X132750256Y-117092795D01*
X132561898Y-117014774D01*
X132361939Y-116975000D01*
X132158061Y-116975000D01*
X131958102Y-117014774D01*
X131769744Y-117092795D01*
X131600226Y-117206063D01*
X131456063Y-117350226D01*
X131342795Y-117519744D01*
X131264774Y-117708102D01*
X131225000Y-117908061D01*
X124483913Y-117908061D01*
X124525191Y-117846284D01*
X124595673Y-117676124D01*
X124631605Y-117495484D01*
X124631605Y-117311306D01*
X124595673Y-117130666D01*
X124525191Y-116960506D01*
X124422867Y-116807367D01*
X124292633Y-116677133D01*
X124139494Y-116574809D01*
X123969334Y-116504327D01*
X123788694Y-116468395D01*
X123604516Y-116468395D01*
X123423876Y-116504327D01*
X123253716Y-116574809D01*
X123100577Y-116677133D01*
X122970343Y-116807367D01*
X122868019Y-116960506D01*
X122797537Y-117130666D01*
X122761605Y-117311306D01*
X113380000Y-117311306D01*
X113380000Y-110940000D01*
X113554025Y-110940000D01*
X113577870Y-111182102D01*
X113648489Y-111414901D01*
X113763167Y-111629449D01*
X113917498Y-111817502D01*
X114066762Y-111940000D01*
X113917498Y-112062498D01*
X113763167Y-112250551D01*
X113648489Y-112465099D01*
X113577870Y-112697898D01*
X113554025Y-112940000D01*
X113577870Y-113182102D01*
X113648489Y-113414901D01*
X113763167Y-113629449D01*
X113917498Y-113817502D01*
X113956111Y-113849191D01*
X113951613Y-113851595D01*
X113817038Y-113962038D01*
X113706595Y-114096613D01*
X113624528Y-114250149D01*
X113573992Y-114416745D01*
X113556928Y-114589999D01*
X113556928Y-115290001D01*
X113573992Y-115463255D01*
X113624528Y-115629851D01*
X113706595Y-115783387D01*
X113817038Y-115917962D01*
X113951613Y-116028405D01*
X114105149Y-116110472D01*
X114271745Y-116161008D01*
X114444999Y-116178072D01*
X115695001Y-116178072D01*
X115868255Y-116161008D01*
X116034851Y-116110472D01*
X116188387Y-116028405D01*
X116322962Y-115917962D01*
X116433405Y-115783387D01*
X116515472Y-115629851D01*
X116566008Y-115463255D01*
X116583072Y-115290001D01*
X116583072Y-114589999D01*
X116566008Y-114416745D01*
X116515472Y-114250149D01*
X116433405Y-114096613D01*
X116322962Y-113962038D01*
X116188387Y-113851595D01*
X116183889Y-113849191D01*
X116222502Y-113817502D01*
X116376833Y-113629449D01*
X116491511Y-113414901D01*
X116562130Y-113182102D01*
X116585975Y-112940000D01*
X116562130Y-112697898D01*
X116491511Y-112465099D01*
X116376833Y-112250551D01*
X116222502Y-112062498D01*
X116073238Y-111940000D01*
X116222502Y-111817502D01*
X116376833Y-111629449D01*
X116491511Y-111414901D01*
X116562130Y-111182102D01*
X116584990Y-110950000D01*
X119514025Y-110950000D01*
X119537870Y-111192102D01*
X119608489Y-111424901D01*
X119723167Y-111639449D01*
X119877498Y-111827502D01*
X120026762Y-111950000D01*
X119877498Y-112072498D01*
X119723167Y-112260551D01*
X119608489Y-112475099D01*
X119537870Y-112707898D01*
X119514025Y-112950000D01*
X119537870Y-113192102D01*
X119608489Y-113424901D01*
X119723167Y-113639449D01*
X119877498Y-113827502D01*
X119916111Y-113859191D01*
X119911613Y-113861595D01*
X119777038Y-113972038D01*
X119666595Y-114106613D01*
X119584528Y-114260149D01*
X119533992Y-114426745D01*
X119516928Y-114599999D01*
X119516928Y-115300001D01*
X119533992Y-115473255D01*
X119584528Y-115639851D01*
X119666595Y-115793387D01*
X119777038Y-115927962D01*
X119911613Y-116038405D01*
X120065149Y-116120472D01*
X120231745Y-116171008D01*
X120404999Y-116188072D01*
X121655001Y-116188072D01*
X121828255Y-116171008D01*
X121994851Y-116120472D01*
X122148387Y-116038405D01*
X122282962Y-115927962D01*
X122393405Y-115793387D01*
X122475472Y-115639851D01*
X122488148Y-115598061D01*
X130255000Y-115598061D01*
X130255000Y-115801939D01*
X130294774Y-116001898D01*
X130372795Y-116190256D01*
X130486063Y-116359774D01*
X130630226Y-116503937D01*
X130799744Y-116617205D01*
X130988102Y-116695226D01*
X131188061Y-116735000D01*
X131391939Y-116735000D01*
X131591898Y-116695226D01*
X131780256Y-116617205D01*
X131949774Y-116503937D01*
X132093937Y-116359774D01*
X132207205Y-116190256D01*
X132285226Y-116001898D01*
X132325000Y-115801939D01*
X132325000Y-115598061D01*
X132297123Y-115457911D01*
X138005000Y-115457911D01*
X138005000Y-115642089D01*
X138040932Y-115822729D01*
X138111414Y-115992889D01*
X138213738Y-116146028D01*
X138343972Y-116276262D01*
X138497111Y-116378586D01*
X138667271Y-116449068D01*
X138847911Y-116485000D01*
X139032089Y-116485000D01*
X139212729Y-116449068D01*
X139382889Y-116378586D01*
X139390926Y-116373216D01*
X139403972Y-116386262D01*
X139557111Y-116488586D01*
X139727271Y-116559068D01*
X139907911Y-116595000D01*
X140092089Y-116595000D01*
X140272729Y-116559068D01*
X140442889Y-116488586D01*
X140596028Y-116386262D01*
X140726262Y-116256028D01*
X140828586Y-116102889D01*
X140899068Y-115932729D01*
X140935000Y-115752089D01*
X140935000Y-115567911D01*
X140899068Y-115387271D01*
X140828586Y-115217111D01*
X140726262Y-115063972D01*
X140596028Y-114933738D01*
X140442889Y-114831414D01*
X140272729Y-114760932D01*
X140092089Y-114725000D01*
X139907911Y-114725000D01*
X139727271Y-114760932D01*
X139557111Y-114831414D01*
X139549074Y-114836784D01*
X139536028Y-114823738D01*
X139382889Y-114721414D01*
X139212729Y-114650932D01*
X139032089Y-114615000D01*
X138847911Y-114615000D01*
X138667271Y-114650932D01*
X138497111Y-114721414D01*
X138343972Y-114823738D01*
X138213738Y-114953972D01*
X138111414Y-115107111D01*
X138040932Y-115277271D01*
X138005000Y-115457911D01*
X132297123Y-115457911D01*
X132285226Y-115398102D01*
X132207205Y-115209744D01*
X132093937Y-115040226D01*
X131949774Y-114896063D01*
X131780256Y-114782795D01*
X131591898Y-114704774D01*
X131391939Y-114665000D01*
X131188061Y-114665000D01*
X130988102Y-114704774D01*
X130799744Y-114782795D01*
X130630226Y-114896063D01*
X130486063Y-115040226D01*
X130372795Y-115209744D01*
X130294774Y-115398102D01*
X130255000Y-115598061D01*
X122488148Y-115598061D01*
X122526008Y-115473255D01*
X122543072Y-115300001D01*
X122543072Y-114599999D01*
X122526008Y-114426745D01*
X122480861Y-114277911D01*
X125275000Y-114277911D01*
X125275000Y-114462089D01*
X125310932Y-114642729D01*
X125381414Y-114812889D01*
X125483738Y-114966028D01*
X125613972Y-115096262D01*
X125767111Y-115198586D01*
X125937271Y-115269068D01*
X126117911Y-115305000D01*
X126302089Y-115305000D01*
X126482729Y-115269068D01*
X126652889Y-115198586D01*
X126806028Y-115096262D01*
X126936262Y-114966028D01*
X127038586Y-114812889D01*
X127109068Y-114642729D01*
X127145000Y-114462089D01*
X127145000Y-114277911D01*
X127109068Y-114097271D01*
X127038586Y-113927111D01*
X126997085Y-113865000D01*
X127022089Y-113865000D01*
X127202729Y-113829068D01*
X127372889Y-113758586D01*
X127526028Y-113656262D01*
X127656262Y-113526028D01*
X127758586Y-113372889D01*
X127829068Y-113202729D01*
X127865000Y-113022089D01*
X127865000Y-112857911D01*
X128725000Y-112857911D01*
X128725000Y-113042089D01*
X128760932Y-113222729D01*
X128831414Y-113392889D01*
X128933738Y-113546028D01*
X129063972Y-113676262D01*
X129217111Y-113778586D01*
X129387271Y-113849068D01*
X129567911Y-113885000D01*
X129752089Y-113885000D01*
X129932729Y-113849068D01*
X130102889Y-113778586D01*
X130256028Y-113676262D01*
X130386262Y-113546028D01*
X130488586Y-113392889D01*
X130559068Y-113222729D01*
X130595000Y-113042089D01*
X130595000Y-112857911D01*
X130559068Y-112677271D01*
X130519426Y-112581565D01*
X130538586Y-112552889D01*
X130609068Y-112382729D01*
X130645000Y-112202089D01*
X130645000Y-112017911D01*
X130609068Y-111837271D01*
X130538586Y-111667111D01*
X130436262Y-111513972D01*
X130306028Y-111383738D01*
X130152889Y-111281414D01*
X129982729Y-111210932D01*
X129802089Y-111175000D01*
X129617911Y-111175000D01*
X129437271Y-111210932D01*
X129267111Y-111281414D01*
X129113972Y-111383738D01*
X128983738Y-111513972D01*
X128881414Y-111667111D01*
X128810932Y-111837271D01*
X128775000Y-112017911D01*
X128775000Y-112202089D01*
X128810932Y-112382729D01*
X128850574Y-112478435D01*
X128831414Y-112507111D01*
X128760932Y-112677271D01*
X128725000Y-112857911D01*
X127865000Y-112857911D01*
X127865000Y-112837911D01*
X127829068Y-112657271D01*
X127758586Y-112487111D01*
X127656262Y-112333972D01*
X127526028Y-112203738D01*
X127372889Y-112101414D01*
X127202729Y-112030932D01*
X127022089Y-111995000D01*
X126837911Y-111995000D01*
X126657271Y-112030932D01*
X126487111Y-112101414D01*
X126333972Y-112203738D01*
X126203738Y-112333972D01*
X126101414Y-112487111D01*
X126030932Y-112657271D01*
X125995000Y-112837911D01*
X125995000Y-113022089D01*
X126030932Y-113202729D01*
X126101414Y-113372889D01*
X126142915Y-113435000D01*
X126117911Y-113435000D01*
X125937271Y-113470932D01*
X125767111Y-113541414D01*
X125613972Y-113643738D01*
X125483738Y-113773972D01*
X125381414Y-113927111D01*
X125310932Y-114097271D01*
X125275000Y-114277911D01*
X122480861Y-114277911D01*
X122475472Y-114260149D01*
X122393405Y-114106613D01*
X122282962Y-113972038D01*
X122148387Y-113861595D01*
X122143889Y-113859191D01*
X122182502Y-113827502D01*
X122336833Y-113639449D01*
X122451511Y-113424901D01*
X122522130Y-113192102D01*
X122545975Y-112950000D01*
X122522130Y-112707898D01*
X122451511Y-112475099D01*
X122336833Y-112260551D01*
X122182502Y-112072498D01*
X122033238Y-111950000D01*
X122182502Y-111827502D01*
X122336833Y-111639449D01*
X122451511Y-111424901D01*
X122522130Y-111192102D01*
X122545975Y-110950000D01*
X122522130Y-110707898D01*
X122451511Y-110475099D01*
X122437059Y-110448061D01*
X131495000Y-110448061D01*
X131495000Y-110651939D01*
X131534774Y-110851898D01*
X131612795Y-111040256D01*
X131726063Y-111209774D01*
X131870226Y-111353937D01*
X132039744Y-111467205D01*
X132228102Y-111545226D01*
X132428061Y-111585000D01*
X132631939Y-111585000D01*
X132831898Y-111545226D01*
X133020256Y-111467205D01*
X133189774Y-111353937D01*
X133333937Y-111209774D01*
X133447205Y-111040256D01*
X133525226Y-110851898D01*
X133561793Y-110668061D01*
X137325000Y-110668061D01*
X137325000Y-110871939D01*
X137364774Y-111071898D01*
X137442795Y-111260256D01*
X137556063Y-111429774D01*
X137700226Y-111573937D01*
X137869744Y-111687205D01*
X138058102Y-111765226D01*
X138258061Y-111805000D01*
X138461939Y-111805000D01*
X138661898Y-111765226D01*
X138850256Y-111687205D01*
X139019774Y-111573937D01*
X139163937Y-111429774D01*
X139277205Y-111260256D01*
X139355226Y-111071898D01*
X139395000Y-110871939D01*
X139395000Y-110668061D01*
X139355226Y-110468102D01*
X139277205Y-110279744D01*
X139163937Y-110110226D01*
X139019774Y-109966063D01*
X138850256Y-109852795D01*
X138661898Y-109774774D01*
X138461939Y-109735000D01*
X138258061Y-109735000D01*
X138058102Y-109774774D01*
X137869744Y-109852795D01*
X137700226Y-109966063D01*
X137556063Y-110110226D01*
X137442795Y-110279744D01*
X137364774Y-110468102D01*
X137325000Y-110668061D01*
X133561793Y-110668061D01*
X133565000Y-110651939D01*
X133565000Y-110448061D01*
X133525226Y-110248102D01*
X133447205Y-110059744D01*
X133333937Y-109890226D01*
X133189774Y-109746063D01*
X133020256Y-109632795D01*
X132831898Y-109554774D01*
X132631939Y-109515000D01*
X132428061Y-109515000D01*
X132228102Y-109554774D01*
X132039744Y-109632795D01*
X131870226Y-109746063D01*
X131726063Y-109890226D01*
X131612795Y-110059744D01*
X131534774Y-110248102D01*
X131495000Y-110448061D01*
X122437059Y-110448061D01*
X122336833Y-110260551D01*
X122182502Y-110072498D01*
X121994449Y-109918167D01*
X121779901Y-109803489D01*
X121547102Y-109732870D01*
X121365665Y-109715000D01*
X120694335Y-109715000D01*
X120512898Y-109732870D01*
X120280099Y-109803489D01*
X120065551Y-109918167D01*
X119877498Y-110072498D01*
X119723167Y-110260551D01*
X119608489Y-110475099D01*
X119537870Y-110707898D01*
X119514025Y-110950000D01*
X116584990Y-110950000D01*
X116585975Y-110940000D01*
X116562130Y-110697898D01*
X116491511Y-110465099D01*
X116376833Y-110250551D01*
X116222502Y-110062498D01*
X116034449Y-109908167D01*
X115819901Y-109793489D01*
X115587102Y-109722870D01*
X115405665Y-109705000D01*
X114734335Y-109705000D01*
X114552898Y-109722870D01*
X114320099Y-109793489D01*
X114105551Y-109908167D01*
X113917498Y-110062498D01*
X113763167Y-110250551D01*
X113648489Y-110465099D01*
X113577870Y-110697898D01*
X113554025Y-110940000D01*
X113380000Y-110940000D01*
X113380000Y-109167911D01*
X128915000Y-109167911D01*
X128915000Y-109352089D01*
X128950932Y-109532729D01*
X129021414Y-109702889D01*
X129123738Y-109856028D01*
X129253972Y-109986262D01*
X129407111Y-110088586D01*
X129577271Y-110159068D01*
X129757911Y-110195000D01*
X129942089Y-110195000D01*
X130122729Y-110159068D01*
X130292889Y-110088586D01*
X130446028Y-109986262D01*
X130576262Y-109856028D01*
X130678586Y-109702889D01*
X130749068Y-109532729D01*
X130785000Y-109352089D01*
X130785000Y-109167911D01*
X130749068Y-108987271D01*
X130678586Y-108817111D01*
X130576262Y-108663972D01*
X130446028Y-108533738D01*
X130292889Y-108431414D01*
X130122729Y-108360932D01*
X129942089Y-108325000D01*
X129757911Y-108325000D01*
X129577271Y-108360932D01*
X129407111Y-108431414D01*
X129253972Y-108533738D01*
X129123738Y-108663972D01*
X129021414Y-108817111D01*
X128950932Y-108987271D01*
X128915000Y-109167911D01*
X113380000Y-109167911D01*
X113380000Y-105899721D01*
X124265000Y-105899721D01*
X124265000Y-106320279D01*
X124347047Y-106732756D01*
X124507988Y-107121302D01*
X124741637Y-107470983D01*
X125039017Y-107768363D01*
X125388698Y-108002012D01*
X125777244Y-108162953D01*
X126189721Y-108245000D01*
X126610279Y-108245000D01*
X127022756Y-108162953D01*
X127411302Y-108002012D01*
X127760983Y-107768363D01*
X128058363Y-107470983D01*
X128292012Y-107121302D01*
X128452953Y-106732756D01*
X128535000Y-106320279D01*
X128535000Y-105899721D01*
X128452953Y-105487244D01*
X128292012Y-105098698D01*
X128058363Y-104749017D01*
X127760983Y-104451637D01*
X127411302Y-104217988D01*
X127022756Y-104057047D01*
X126610279Y-103975000D01*
X126189721Y-103975000D01*
X125777244Y-104057047D01*
X125388698Y-104217988D01*
X125039017Y-104451637D01*
X124741637Y-104749017D01*
X124507988Y-105098698D01*
X124347047Y-105487244D01*
X124265000Y-105899721D01*
X113380000Y-105899721D01*
X113380000Y-101752237D01*
X113380017Y-101752063D01*
X113380000Y-101720511D01*
X113380000Y-101687581D01*
X113379982Y-101687400D01*
X113372069Y-86999721D01*
X124265000Y-86999721D01*
X124265000Y-87420279D01*
X124347047Y-87832756D01*
X124507988Y-88221302D01*
X124741637Y-88570983D01*
X125039017Y-88868363D01*
X125388698Y-89102012D01*
X125777244Y-89262953D01*
X126189721Y-89345000D01*
X126610279Y-89345000D01*
X127022756Y-89262953D01*
X127411302Y-89102012D01*
X127760983Y-88868363D01*
X128058363Y-88570983D01*
X128292012Y-88221302D01*
X128452953Y-87832756D01*
X128535000Y-87420279D01*
X128535000Y-86999721D01*
X128452953Y-86587244D01*
X128292012Y-86198698D01*
X128058363Y-85849017D01*
X127760983Y-85551637D01*
X127496411Y-85374856D01*
X127503429Y-85357911D01*
X142015000Y-85357911D01*
X142015000Y-85542089D01*
X142050932Y-85722729D01*
X142121414Y-85892889D01*
X142223738Y-86046028D01*
X142353972Y-86176262D01*
X142507111Y-86278586D01*
X142677271Y-86349068D01*
X142857911Y-86385000D01*
X143042089Y-86385000D01*
X143222729Y-86349068D01*
X143392889Y-86278586D01*
X143546028Y-86176262D01*
X143676262Y-86046028D01*
X143778586Y-85892889D01*
X143849068Y-85722729D01*
X143885000Y-85542089D01*
X143885000Y-85357911D01*
X143849068Y-85177271D01*
X143778586Y-85007111D01*
X143676262Y-84853972D01*
X143546028Y-84723738D01*
X143392889Y-84621414D01*
X143222729Y-84550932D01*
X143042089Y-84515000D01*
X142857911Y-84515000D01*
X142677271Y-84550932D01*
X142507111Y-84621414D01*
X142353972Y-84723738D01*
X142223738Y-84853972D01*
X142121414Y-85007111D01*
X142050932Y-85177271D01*
X142015000Y-85357911D01*
X127503429Y-85357911D01*
X127549068Y-85247729D01*
X127585000Y-85067089D01*
X127585000Y-84882911D01*
X127549068Y-84702271D01*
X127478586Y-84532111D01*
X127376262Y-84378972D01*
X127246028Y-84248738D01*
X127092889Y-84146414D01*
X126922729Y-84075932D01*
X126742089Y-84040000D01*
X126557911Y-84040000D01*
X126377271Y-84075932D01*
X126207111Y-84146414D01*
X126053972Y-84248738D01*
X125923738Y-84378972D01*
X125821414Y-84532111D01*
X125750932Y-84702271D01*
X125715000Y-84882911D01*
X125715000Y-85067089D01*
X125736270Y-85174019D01*
X125388698Y-85317988D01*
X125039017Y-85551637D01*
X124741637Y-85849017D01*
X124507988Y-86198698D01*
X124347047Y-86587244D01*
X124265000Y-86999721D01*
X113372069Y-86999721D01*
X113371000Y-85017331D01*
X113401399Y-85062826D01*
X113817174Y-85478601D01*
X114306072Y-85805273D01*
X114849308Y-86030288D01*
X115426003Y-86145000D01*
X116013997Y-86145000D01*
X116590692Y-86030288D01*
X117133928Y-85805273D01*
X117622826Y-85478601D01*
X118038601Y-85062826D01*
X118365273Y-84573928D01*
X118590288Y-84030692D01*
X118704221Y-83457910D01*
X133455000Y-83457910D01*
X133455000Y-83642088D01*
X133490932Y-83822728D01*
X133561414Y-83992888D01*
X133663738Y-84146027D01*
X133793972Y-84276261D01*
X133947111Y-84378585D01*
X134117271Y-84449067D01*
X134297911Y-84484999D01*
X134482089Y-84484999D01*
X134662729Y-84449067D01*
X134832889Y-84378585D01*
X134986028Y-84276261D01*
X135116262Y-84146027D01*
X135218586Y-83992888D01*
X135289068Y-83822728D01*
X135325000Y-83642088D01*
X135325000Y-83457910D01*
X135289068Y-83277270D01*
X135218586Y-83107110D01*
X135116262Y-82953971D01*
X134986028Y-82823737D01*
X134832889Y-82721413D01*
X134662729Y-82650931D01*
X134572138Y-82632911D01*
X135865000Y-82632911D01*
X135865000Y-82817089D01*
X135900932Y-82997729D01*
X135971414Y-83167889D01*
X136073738Y-83321028D01*
X136203972Y-83451262D01*
X136357111Y-83553586D01*
X136527271Y-83624068D01*
X136707911Y-83660000D01*
X136892089Y-83660000D01*
X137072729Y-83624068D01*
X137242889Y-83553586D01*
X137396028Y-83451262D01*
X137526262Y-83321028D01*
X137628586Y-83167889D01*
X137699068Y-82997729D01*
X137735000Y-82817089D01*
X137735000Y-82632911D01*
X137699068Y-82452271D01*
X137628586Y-82282111D01*
X137526262Y-82128972D01*
X137396028Y-81998738D01*
X137242889Y-81896414D01*
X137072729Y-81825932D01*
X136892089Y-81790000D01*
X136707911Y-81790000D01*
X136527271Y-81825932D01*
X136357111Y-81896414D01*
X136203972Y-81998738D01*
X136073738Y-82128972D01*
X135971414Y-82282111D01*
X135900932Y-82452271D01*
X135865000Y-82632911D01*
X134572138Y-82632911D01*
X134482089Y-82614999D01*
X134297911Y-82614999D01*
X134117271Y-82650931D01*
X133947111Y-82721413D01*
X133793972Y-82823737D01*
X133663738Y-82953971D01*
X133561414Y-83107110D01*
X133490932Y-83277270D01*
X133455000Y-83457910D01*
X118704221Y-83457910D01*
X118705000Y-83453997D01*
X118705000Y-82866003D01*
X118590288Y-82289308D01*
X118365273Y-81746072D01*
X118038601Y-81257174D01*
X117622826Y-80841399D01*
X117590320Y-80819679D01*
X122882730Y-80818779D01*
X122865000Y-80907911D01*
X122865000Y-81092089D01*
X122900932Y-81272729D01*
X122971414Y-81442889D01*
X123073738Y-81596028D01*
X123203972Y-81726262D01*
X123357111Y-81828586D01*
X123527271Y-81899068D01*
X123707911Y-81935000D01*
X123892089Y-81935000D01*
X124072729Y-81899068D01*
X124242889Y-81828586D01*
X124396028Y-81726262D01*
X124526262Y-81596028D01*
X124628586Y-81442889D01*
X124699068Y-81272729D01*
X124735000Y-81092089D01*
X124735000Y-80907911D01*
X124717208Y-80818466D01*
X133798268Y-80816920D01*
X133771414Y-80857111D01*
X133700932Y-81027271D01*
X133665000Y-81207911D01*
X133665000Y-81392089D01*
X133700932Y-81572729D01*
X133771414Y-81742889D01*
X133873738Y-81896028D01*
X134003972Y-82026262D01*
X134157111Y-82128586D01*
X134327271Y-82199068D01*
X134507911Y-82235000D01*
X134692089Y-82235000D01*
X134872729Y-82199068D01*
X135042889Y-82128586D01*
X135196028Y-82026262D01*
X135326262Y-81896028D01*
X135428586Y-81742889D01*
X135483531Y-81610240D01*
X135577271Y-81649068D01*
X135757911Y-81685000D01*
X135942089Y-81685000D01*
X136122729Y-81649068D01*
X136292889Y-81578586D01*
X136446028Y-81476262D01*
X136576262Y-81346028D01*
X136678586Y-81192889D01*
X136749068Y-81022729D01*
X136785000Y-80842089D01*
X136785000Y-80816412D01*
X141265396Y-80815649D01*
X141255000Y-80867911D01*
X141255000Y-81052089D01*
X141290932Y-81232729D01*
X141361414Y-81402889D01*
X141463738Y-81556028D01*
X141593972Y-81686262D01*
X141747111Y-81788586D01*
X141917271Y-81859068D01*
X142097911Y-81895000D01*
X142282089Y-81895000D01*
X142462729Y-81859068D01*
X142632889Y-81788586D01*
X142786028Y-81686262D01*
X142916262Y-81556028D01*
X143018586Y-81402889D01*
X143089068Y-81232729D01*
X143125000Y-81052089D01*
X143125000Y-80867911D01*
X143114542Y-80815335D01*
X145573000Y-80814916D01*
X145573000Y-87346809D01*
G04 #@! TD*
M02*
