G04 #@! TF.GenerationSoftware,KiCad,Pcbnew,5.1.6-c6e7f7d~87~ubuntu19.10.1*
G04 #@! TF.CreationDate,2021-03-17T15:36:07-04:00*
G04 #@! TF.ProjectId,icarus,69636172-7573-42e6-9b69-6361645f7063,V1.0*
G04 #@! TF.SameCoordinates,Original*
G04 #@! TF.FileFunction,Copper,L2,Inr*
G04 #@! TF.FilePolarity,Positive*
%FSLAX46Y46*%
G04 Gerber Fmt 4.6, Leading zero omitted, Abs format (unit mm)*
G04 Created by KiCad (PCBNEW 5.1.6-c6e7f7d~87~ubuntu19.10.1) date 2021-03-17 15:36:07*
%MOMM*%
%LPD*%
G01*
G04 APERTURE LIST*
G04 #@! TA.AperFunction,ViaPad*
%ADD10O,1.200000X1.750000*%
G04 #@! TD*
G04 #@! TA.AperFunction,ViaPad*
%ADD11C,4.716000*%
G04 #@! TD*
G04 #@! TA.AperFunction,ViaPad*
%ADD12C,3.000000*%
G04 #@! TD*
G04 #@! TA.AperFunction,ViaPad*
%ADD13O,1.050000X1.250000*%
G04 #@! TD*
G04 #@! TA.AperFunction,ViaPad*
%ADD14O,1.000000X1.900000*%
G04 #@! TD*
G04 #@! TA.AperFunction,ViaPad*
%ADD15C,4.700000*%
G04 #@! TD*
G04 #@! TA.AperFunction,ViaPad*
%ADD16O,1.750000X1.200000*%
G04 #@! TD*
G04 #@! TA.AperFunction,ViaPad*
%ADD17C,0.600000*%
G04 #@! TD*
G04 #@! TA.AperFunction,ViaPad*
%ADD18C,0.800000*%
G04 #@! TD*
G04 #@! TA.AperFunction,Conductor*
%ADD19C,0.254000*%
G04 #@! TD*
G04 APERTURE END LIST*
G04 #@! TO.N,+3V3*
G04 #@! TO.C,J3*
G04 #@! TA.AperFunction,ViaPad*
G36*
G01*
X130700000Y-121625001D02*
X130700000Y-120374999D01*
G75*
G02*
X130949999Y-120125000I249999J0D01*
G01*
X131650001Y-120125000D01*
G75*
G02*
X131900000Y-120374999I0J-249999D01*
G01*
X131900000Y-121625001D01*
G75*
G02*
X131650001Y-121875000I-249999J0D01*
G01*
X130949999Y-121875000D01*
G75*
G02*
X130700000Y-121625001I0J249999D01*
G01*
G37*
G04 #@! TD.AperFunction*
D10*
G04 #@! TO.N,SWO*
X133300000Y-121000000D03*
G04 #@! TO.N,SWDIO*
X135300000Y-121000000D03*
G04 #@! TO.N,SWCLK*
X137300000Y-121000000D03*
G04 #@! TO.N,NRST*
X139300000Y-121000000D03*
G04 #@! TO.N,GND*
X141300000Y-121000000D03*
G04 #@! TD*
D11*
G04 #@! TO.N,VSENSE_HIGH*
G04 #@! TO.C,U4*
X135800000Y-91210000D03*
G04 #@! TO.N,GNDPWR*
X135800000Y-102110000D03*
D12*
G04 #@! TO.N,N/C*
X126400000Y-106110000D03*
X126400000Y-87210000D03*
G04 #@! TD*
D13*
G04 #@! TO.N,Net-(J4-Pad6)*
G04 #@! TO.C,J4*
X121355000Y-119930000D03*
X125805000Y-119930000D03*
D14*
X119405000Y-122930000D03*
X127755000Y-122930000D03*
G04 #@! TD*
D15*
G04 #@! TO.N,GND*
G04 #@! TO.C,H1*
X115720000Y-121410000D03*
G04 #@! TD*
G04 #@! TO.N,Net-(H2-Pad1)*
G04 #@! TO.C,H2*
X174465000Y-83160000D03*
G04 #@! TD*
G04 #@! TO.N,Net-(H3-Pad1)*
G04 #@! TO.C,H3*
X174465000Y-121420000D03*
G04 #@! TD*
G04 #@! TO.N,GND*
G04 #@! TO.C,H4*
X115720000Y-83160000D03*
G04 #@! TD*
D12*
G04 #@! TO.N,GNDPWR*
G04 #@! TO.C,U6*
X174175000Y-104800000D03*
G04 #@! TO.N,OUT*
X174175000Y-99800000D03*
G04 #@! TD*
G04 #@! TO.N,OUT*
G04 #@! TO.C,U7*
X174125000Y-110950000D03*
G04 #@! TO.N,GNDPWR*
X174125000Y-115950000D03*
G04 #@! TD*
G04 #@! TO.N,GNDPWR*
G04 #@! TO.C,U9*
X167950000Y-115925000D03*
G04 #@! TO.N,OUT*
X167950000Y-110925000D03*
G04 #@! TD*
G04 #@! TO.N,OUT*
G04 #@! TO.C,U10*
X174175000Y-88680000D03*
G04 #@! TO.N,GNDPWR*
X174175000Y-93680000D03*
G04 #@! TD*
G04 #@! TO.N,GNDPWR*
G04 #@! TO.C,U11*
X167950000Y-104775000D03*
G04 #@! TO.N,OUT*
X167950000Y-99775000D03*
G04 #@! TD*
G04 #@! TO.N,OUT*
G04 #@! TO.C,U12*
X167950000Y-88655000D03*
G04 #@! TO.N,GNDPWR*
X167950000Y-93655000D03*
G04 #@! TD*
G04 #@! TO.N,CAN_H*
G04 #@! TO.C,J1*
G04 #@! TA.AperFunction,ViaPad*
G36*
G01*
X121655001Y-115550000D02*
X120404999Y-115550000D01*
G75*
G02*
X120155000Y-115300001I0J249999D01*
G01*
X120155000Y-114599999D01*
G75*
G02*
X120404999Y-114350000I249999J0D01*
G01*
X121655001Y-114350000D01*
G75*
G02*
X121905000Y-114599999I0J-249999D01*
G01*
X121905000Y-115300001D01*
G75*
G02*
X121655001Y-115550000I-249999J0D01*
G01*
G37*
G04 #@! TD.AperFunction*
D16*
G04 #@! TO.N,CAN_L*
X121030000Y-112950000D03*
G04 #@! TO.N,GND*
X121030000Y-110950000D03*
G04 #@! TD*
G04 #@! TO.N,GND*
G04 #@! TO.C,J2*
X115070000Y-110940000D03*
G04 #@! TO.N,CAN_L*
X115070000Y-112940000D03*
G04 #@! TO.N,CAN_H*
G04 #@! TA.AperFunction,ViaPad*
G36*
G01*
X115695001Y-115540000D02*
X114444999Y-115540000D01*
G75*
G02*
X114195000Y-115290001I0J249999D01*
G01*
X114195000Y-114589999D01*
G75*
G02*
X114444999Y-114340000I249999J0D01*
G01*
X115695001Y-114340000D01*
G75*
G02*
X115945000Y-114589999I0J-249999D01*
G01*
X115945000Y-115290001D01*
G75*
G02*
X115695001Y-115540000I-249999J0D01*
G01*
G37*
G04 #@! TD.AperFunction*
G04 #@! TD*
D17*
G04 #@! TO.N,+3V3*
X129640000Y-110430000D03*
X129630000Y-114340000D03*
X155580000Y-120460000D03*
X155419990Y-122430000D03*
X160210000Y-122370000D03*
X160260000Y-120440000D03*
X121470000Y-85240000D03*
X119190000Y-85240000D03*
X124510000Y-85690000D03*
X128225000Y-85725000D03*
X129000000Y-85700000D03*
X129775000Y-85775000D03*
X130448495Y-85701658D03*
X128300000Y-83950000D03*
X129025000Y-83925000D03*
X129725000Y-83925000D03*
X130350000Y-83975000D03*
X145580326Y-83619674D03*
D18*
X131410000Y-116720000D03*
X141730000Y-116880000D03*
X140660000Y-116340000D03*
X140890000Y-115290000D03*
D17*
X136840000Y-110170000D03*
X135360000Y-110180000D03*
X134040000Y-109527599D03*
X136130000Y-106690000D03*
G04 #@! TO.N,GND*
X122280000Y-118850000D03*
X126930000Y-112930000D03*
X149190000Y-122770000D03*
X149110000Y-123580000D03*
X126210000Y-114370000D03*
X126650000Y-84975000D03*
X136800000Y-82725000D03*
X135850000Y-80750000D03*
X134600000Y-81300000D03*
X158191200Y-119235000D03*
X129710000Y-112110000D03*
X123696605Y-117403395D03*
X146050000Y-122700000D03*
X146400000Y-123300000D03*
X136500000Y-86350000D03*
X135500000Y-86300000D03*
X133850000Y-86300000D03*
X141550000Y-87981999D03*
X142950000Y-85450000D03*
X128700000Y-101550000D03*
X128150000Y-102250000D03*
X128700000Y-102850000D03*
D18*
X131290000Y-115700000D03*
X143375010Y-118710000D03*
X132260000Y-118010000D03*
D17*
X133160000Y-107090000D03*
X134210000Y-107130000D03*
X137090000Y-106720000D03*
X138370000Y-105800000D03*
X143720000Y-102840000D03*
G04 #@! TO.N,VSENSE_HIGH*
X131250000Y-91450000D03*
X149250000Y-122010000D03*
G04 #@! TO.N,OUT*
X145825000Y-88250000D03*
X162700000Y-86400000D03*
X146400000Y-122000000D03*
X160650000Y-118550000D03*
G04 #@! TO.N,+5V*
X126900000Y-120600000D03*
X123800000Y-81000000D03*
D18*
G04 #@! TO.N,VSENSE_LOW*
X155120000Y-105720000D03*
X153550000Y-105720000D03*
X151870000Y-105720000D03*
X150170000Y-105720000D03*
X148470000Y-105720000D03*
X155240000Y-93220000D03*
X153630000Y-93220000D03*
X151830000Y-93220000D03*
X149930000Y-93220000D03*
X147930000Y-93220000D03*
G04 #@! TO.N,PG*
X138360000Y-110770000D03*
X145445226Y-89021605D03*
G04 #@! TO.N,TPS_ENABLE*
X132530000Y-110550000D03*
X132090000Y-86570000D03*
D17*
G04 #@! TO.N,CAN_TX*
X129660000Y-112950000D03*
X140000000Y-115660000D03*
G04 #@! TO.N,CAN_RX*
X129850000Y-109260000D03*
X138940000Y-115550000D03*
G04 #@! TO.N,Net-(MOSFET2-PadP$1)*
X134390000Y-83549999D03*
X142190000Y-80960000D03*
G04 #@! TO.N,GNDPWR*
X164400000Y-121500000D03*
X163750000Y-121500000D03*
X163100000Y-121500000D03*
X161900000Y-121350000D03*
X161250000Y-121350000D03*
G04 #@! TD*
D19*
G04 #@! TO.N,VSENSE_LOW*
G36*
X155973000Y-117473000D02*
G01*
X147027000Y-117473000D01*
X147027000Y-93500000D01*
X147024560Y-93475224D01*
X147017333Y-93451399D01*
X147005597Y-93429443D01*
X146989803Y-93410197D01*
X146970557Y-93394403D01*
X146948601Y-93382667D01*
X146924776Y-93375440D01*
X146900000Y-93373000D01*
X144827000Y-93373000D01*
X144827000Y-89853303D01*
X144954970Y-89938810D01*
X145143328Y-90016831D01*
X145343287Y-90056605D01*
X145547165Y-90056605D01*
X145747124Y-90016831D01*
X145935482Y-89938810D01*
X146102818Y-89827000D01*
X147000000Y-89827000D01*
X147024776Y-89824560D01*
X147048601Y-89817333D01*
X147070557Y-89805597D01*
X147089803Y-89789803D01*
X147105597Y-89770557D01*
X147117333Y-89748601D01*
X147124560Y-89724776D01*
X147127000Y-89700000D01*
X147127000Y-81527000D01*
X155973000Y-81527000D01*
X155973000Y-117473000D01*
G37*
X155973000Y-117473000D02*
X147027000Y-117473000D01*
X147027000Y-93500000D01*
X147024560Y-93475224D01*
X147017333Y-93451399D01*
X147005597Y-93429443D01*
X146989803Y-93410197D01*
X146970557Y-93394403D01*
X146948601Y-93382667D01*
X146924776Y-93375440D01*
X146900000Y-93373000D01*
X144827000Y-93373000D01*
X144827000Y-89853303D01*
X144954970Y-89938810D01*
X145143328Y-90016831D01*
X145343287Y-90056605D01*
X145547165Y-90056605D01*
X145747124Y-90016831D01*
X145935482Y-89938810D01*
X146102818Y-89827000D01*
X147000000Y-89827000D01*
X147024776Y-89824560D01*
X147048601Y-89817333D01*
X147070557Y-89805597D01*
X147089803Y-89789803D01*
X147105597Y-89770557D01*
X147117333Y-89748601D01*
X147124560Y-89724776D01*
X147127000Y-89700000D01*
X147127000Y-81527000D01*
X155973000Y-81527000D01*
X155973000Y-117473000D01*
G04 #@! TO.N,OUT*
G36*
X172497291Y-86174698D02*
G01*
X172513837Y-86193300D01*
X172533694Y-86208317D01*
X172556100Y-86219171D01*
X172580193Y-86225446D01*
X172600000Y-86227000D01*
X176673000Y-86227000D01*
X176673000Y-118473000D01*
X174950036Y-118473000D01*
X174758997Y-118435000D01*
X174171003Y-118435000D01*
X173979964Y-118473000D01*
X172000000Y-118473000D01*
X171975224Y-118475440D01*
X171951399Y-118482667D01*
X171929443Y-118494403D01*
X171910197Y-118510197D01*
X171894403Y-118529443D01*
X171882667Y-118551399D01*
X171878233Y-118563921D01*
X170344581Y-123739999D01*
X165027000Y-123739999D01*
X165027000Y-122195290D01*
X165126262Y-122096028D01*
X165228586Y-121942889D01*
X165299068Y-121772729D01*
X165335000Y-121592089D01*
X165335000Y-121407911D01*
X165299068Y-121227271D01*
X165228586Y-121057111D01*
X165126262Y-120903972D01*
X165027000Y-120804710D01*
X165027000Y-119100000D01*
X165024560Y-119075224D01*
X165017333Y-119051399D01*
X165005597Y-119029443D01*
X164989803Y-119010197D01*
X164970557Y-118994403D01*
X164948601Y-118982667D01*
X164924776Y-118975440D01*
X164902490Y-118973024D01*
X159927000Y-118875465D01*
X159927000Y-115714721D01*
X165815000Y-115714721D01*
X165815000Y-116135279D01*
X165897047Y-116547756D01*
X166057988Y-116936302D01*
X166291637Y-117285983D01*
X166589017Y-117583363D01*
X166938698Y-117817012D01*
X167327244Y-117977953D01*
X167739721Y-118060000D01*
X168160279Y-118060000D01*
X168572756Y-117977953D01*
X168961302Y-117817012D01*
X169310983Y-117583363D01*
X169608363Y-117285983D01*
X169842012Y-116936302D01*
X170002953Y-116547756D01*
X170085000Y-116135279D01*
X170085000Y-115739721D01*
X171990000Y-115739721D01*
X171990000Y-116160279D01*
X172072047Y-116572756D01*
X172232988Y-116961302D01*
X172466637Y-117310983D01*
X172764017Y-117608363D01*
X173113698Y-117842012D01*
X173502244Y-118002953D01*
X173914721Y-118085000D01*
X174335279Y-118085000D01*
X174747756Y-118002953D01*
X175136302Y-117842012D01*
X175485983Y-117608363D01*
X175783363Y-117310983D01*
X176017012Y-116961302D01*
X176177953Y-116572756D01*
X176260000Y-116160279D01*
X176260000Y-115739721D01*
X176177953Y-115327244D01*
X176017012Y-114938698D01*
X175783363Y-114589017D01*
X175485983Y-114291637D01*
X175136302Y-114057988D01*
X174747756Y-113897047D01*
X174335279Y-113815000D01*
X173914721Y-113815000D01*
X173502244Y-113897047D01*
X173113698Y-114057988D01*
X172764017Y-114291637D01*
X172466637Y-114589017D01*
X172232988Y-114938698D01*
X172072047Y-115327244D01*
X171990000Y-115739721D01*
X170085000Y-115739721D01*
X170085000Y-115714721D01*
X170002953Y-115302244D01*
X169842012Y-114913698D01*
X169608363Y-114564017D01*
X169310983Y-114266637D01*
X168961302Y-114032988D01*
X168572756Y-113872047D01*
X168160279Y-113790000D01*
X167739721Y-113790000D01*
X167327244Y-113872047D01*
X166938698Y-114032988D01*
X166589017Y-114266637D01*
X166291637Y-114564017D01*
X166057988Y-114913698D01*
X165897047Y-115302244D01*
X165815000Y-115714721D01*
X159927000Y-115714721D01*
X159927000Y-104564721D01*
X165815000Y-104564721D01*
X165815000Y-104985279D01*
X165897047Y-105397756D01*
X166057988Y-105786302D01*
X166291637Y-106135983D01*
X166589017Y-106433363D01*
X166938698Y-106667012D01*
X167327244Y-106827953D01*
X167739721Y-106910000D01*
X168160279Y-106910000D01*
X168572756Y-106827953D01*
X168961302Y-106667012D01*
X169310983Y-106433363D01*
X169608363Y-106135983D01*
X169842012Y-105786302D01*
X170002953Y-105397756D01*
X170085000Y-104985279D01*
X170085000Y-104589721D01*
X172040000Y-104589721D01*
X172040000Y-105010279D01*
X172122047Y-105422756D01*
X172282988Y-105811302D01*
X172516637Y-106160983D01*
X172814017Y-106458363D01*
X173163698Y-106692012D01*
X173552244Y-106852953D01*
X173964721Y-106935000D01*
X174385279Y-106935000D01*
X174797756Y-106852953D01*
X175186302Y-106692012D01*
X175535983Y-106458363D01*
X175833363Y-106160983D01*
X176067012Y-105811302D01*
X176227953Y-105422756D01*
X176310000Y-105010279D01*
X176310000Y-104589721D01*
X176227953Y-104177244D01*
X176067012Y-103788698D01*
X175833363Y-103439017D01*
X175535983Y-103141637D01*
X175186302Y-102907988D01*
X174797756Y-102747047D01*
X174385279Y-102665000D01*
X173964721Y-102665000D01*
X173552244Y-102747047D01*
X173163698Y-102907988D01*
X172814017Y-103141637D01*
X172516637Y-103439017D01*
X172282988Y-103788698D01*
X172122047Y-104177244D01*
X172040000Y-104589721D01*
X170085000Y-104589721D01*
X170085000Y-104564721D01*
X170002953Y-104152244D01*
X169842012Y-103763698D01*
X169608363Y-103414017D01*
X169310983Y-103116637D01*
X168961302Y-102882988D01*
X168572756Y-102722047D01*
X168160279Y-102640000D01*
X167739721Y-102640000D01*
X167327244Y-102722047D01*
X166938698Y-102882988D01*
X166589017Y-103116637D01*
X166291637Y-103414017D01*
X166057988Y-103763698D01*
X165897047Y-104152244D01*
X165815000Y-104564721D01*
X159927000Y-104564721D01*
X159927000Y-93444721D01*
X165815000Y-93444721D01*
X165815000Y-93865279D01*
X165897047Y-94277756D01*
X166057988Y-94666302D01*
X166291637Y-95015983D01*
X166589017Y-95313363D01*
X166938698Y-95547012D01*
X167327244Y-95707953D01*
X167739721Y-95790000D01*
X168160279Y-95790000D01*
X168572756Y-95707953D01*
X168961302Y-95547012D01*
X169310983Y-95313363D01*
X169608363Y-95015983D01*
X169842012Y-94666302D01*
X170002953Y-94277756D01*
X170085000Y-93865279D01*
X170085000Y-93469721D01*
X172040000Y-93469721D01*
X172040000Y-93890279D01*
X172122047Y-94302756D01*
X172282988Y-94691302D01*
X172516637Y-95040983D01*
X172814017Y-95338363D01*
X173163698Y-95572012D01*
X173552244Y-95732953D01*
X173964721Y-95815000D01*
X174385279Y-95815000D01*
X174797756Y-95732953D01*
X175186302Y-95572012D01*
X175535983Y-95338363D01*
X175833363Y-95040983D01*
X176067012Y-94691302D01*
X176227953Y-94302756D01*
X176310000Y-93890279D01*
X176310000Y-93469721D01*
X176227953Y-93057244D01*
X176067012Y-92668698D01*
X175833363Y-92319017D01*
X175535983Y-92021637D01*
X175186302Y-91787988D01*
X174797756Y-91627047D01*
X174385279Y-91545000D01*
X173964721Y-91545000D01*
X173552244Y-91627047D01*
X173163698Y-91787988D01*
X172814017Y-92021637D01*
X172516637Y-92319017D01*
X172282988Y-92668698D01*
X172122047Y-93057244D01*
X172040000Y-93469721D01*
X170085000Y-93469721D01*
X170085000Y-93444721D01*
X170002953Y-93032244D01*
X169842012Y-92643698D01*
X169608363Y-92294017D01*
X169310983Y-91996637D01*
X168961302Y-91762988D01*
X168572756Y-91602047D01*
X168160279Y-91520000D01*
X167739721Y-91520000D01*
X167327244Y-91602047D01*
X166938698Y-91762988D01*
X166589017Y-91996637D01*
X166291637Y-92294017D01*
X166057988Y-92643698D01*
X165897047Y-93032244D01*
X165815000Y-93444721D01*
X159927000Y-93444721D01*
X159927000Y-82927000D01*
X170135329Y-82927000D01*
X172497291Y-86174698D01*
G37*
X172497291Y-86174698D02*
X172513837Y-86193300D01*
X172533694Y-86208317D01*
X172556100Y-86219171D01*
X172580193Y-86225446D01*
X172600000Y-86227000D01*
X176673000Y-86227000D01*
X176673000Y-118473000D01*
X174950036Y-118473000D01*
X174758997Y-118435000D01*
X174171003Y-118435000D01*
X173979964Y-118473000D01*
X172000000Y-118473000D01*
X171975224Y-118475440D01*
X171951399Y-118482667D01*
X171929443Y-118494403D01*
X171910197Y-118510197D01*
X171894403Y-118529443D01*
X171882667Y-118551399D01*
X171878233Y-118563921D01*
X170344581Y-123739999D01*
X165027000Y-123739999D01*
X165027000Y-122195290D01*
X165126262Y-122096028D01*
X165228586Y-121942889D01*
X165299068Y-121772729D01*
X165335000Y-121592089D01*
X165335000Y-121407911D01*
X165299068Y-121227271D01*
X165228586Y-121057111D01*
X165126262Y-120903972D01*
X165027000Y-120804710D01*
X165027000Y-119100000D01*
X165024560Y-119075224D01*
X165017333Y-119051399D01*
X165005597Y-119029443D01*
X164989803Y-119010197D01*
X164970557Y-118994403D01*
X164948601Y-118982667D01*
X164924776Y-118975440D01*
X164902490Y-118973024D01*
X159927000Y-118875465D01*
X159927000Y-115714721D01*
X165815000Y-115714721D01*
X165815000Y-116135279D01*
X165897047Y-116547756D01*
X166057988Y-116936302D01*
X166291637Y-117285983D01*
X166589017Y-117583363D01*
X166938698Y-117817012D01*
X167327244Y-117977953D01*
X167739721Y-118060000D01*
X168160279Y-118060000D01*
X168572756Y-117977953D01*
X168961302Y-117817012D01*
X169310983Y-117583363D01*
X169608363Y-117285983D01*
X169842012Y-116936302D01*
X170002953Y-116547756D01*
X170085000Y-116135279D01*
X170085000Y-115739721D01*
X171990000Y-115739721D01*
X171990000Y-116160279D01*
X172072047Y-116572756D01*
X172232988Y-116961302D01*
X172466637Y-117310983D01*
X172764017Y-117608363D01*
X173113698Y-117842012D01*
X173502244Y-118002953D01*
X173914721Y-118085000D01*
X174335279Y-118085000D01*
X174747756Y-118002953D01*
X175136302Y-117842012D01*
X175485983Y-117608363D01*
X175783363Y-117310983D01*
X176017012Y-116961302D01*
X176177953Y-116572756D01*
X176260000Y-116160279D01*
X176260000Y-115739721D01*
X176177953Y-115327244D01*
X176017012Y-114938698D01*
X175783363Y-114589017D01*
X175485983Y-114291637D01*
X175136302Y-114057988D01*
X174747756Y-113897047D01*
X174335279Y-113815000D01*
X173914721Y-113815000D01*
X173502244Y-113897047D01*
X173113698Y-114057988D01*
X172764017Y-114291637D01*
X172466637Y-114589017D01*
X172232988Y-114938698D01*
X172072047Y-115327244D01*
X171990000Y-115739721D01*
X170085000Y-115739721D01*
X170085000Y-115714721D01*
X170002953Y-115302244D01*
X169842012Y-114913698D01*
X169608363Y-114564017D01*
X169310983Y-114266637D01*
X168961302Y-114032988D01*
X168572756Y-113872047D01*
X168160279Y-113790000D01*
X167739721Y-113790000D01*
X167327244Y-113872047D01*
X166938698Y-114032988D01*
X166589017Y-114266637D01*
X166291637Y-114564017D01*
X166057988Y-114913698D01*
X165897047Y-115302244D01*
X165815000Y-115714721D01*
X159927000Y-115714721D01*
X159927000Y-104564721D01*
X165815000Y-104564721D01*
X165815000Y-104985279D01*
X165897047Y-105397756D01*
X166057988Y-105786302D01*
X166291637Y-106135983D01*
X166589017Y-106433363D01*
X166938698Y-106667012D01*
X167327244Y-106827953D01*
X167739721Y-106910000D01*
X168160279Y-106910000D01*
X168572756Y-106827953D01*
X168961302Y-106667012D01*
X169310983Y-106433363D01*
X169608363Y-106135983D01*
X169842012Y-105786302D01*
X170002953Y-105397756D01*
X170085000Y-104985279D01*
X170085000Y-104589721D01*
X172040000Y-104589721D01*
X172040000Y-105010279D01*
X172122047Y-105422756D01*
X172282988Y-105811302D01*
X172516637Y-106160983D01*
X172814017Y-106458363D01*
X173163698Y-106692012D01*
X173552244Y-106852953D01*
X173964721Y-106935000D01*
X174385279Y-106935000D01*
X174797756Y-106852953D01*
X175186302Y-106692012D01*
X175535983Y-106458363D01*
X175833363Y-106160983D01*
X176067012Y-105811302D01*
X176227953Y-105422756D01*
X176310000Y-105010279D01*
X176310000Y-104589721D01*
X176227953Y-104177244D01*
X176067012Y-103788698D01*
X175833363Y-103439017D01*
X175535983Y-103141637D01*
X175186302Y-102907988D01*
X174797756Y-102747047D01*
X174385279Y-102665000D01*
X173964721Y-102665000D01*
X173552244Y-102747047D01*
X173163698Y-102907988D01*
X172814017Y-103141637D01*
X172516637Y-103439017D01*
X172282988Y-103788698D01*
X172122047Y-104177244D01*
X172040000Y-104589721D01*
X170085000Y-104589721D01*
X170085000Y-104564721D01*
X170002953Y-104152244D01*
X169842012Y-103763698D01*
X169608363Y-103414017D01*
X169310983Y-103116637D01*
X168961302Y-102882988D01*
X168572756Y-102722047D01*
X168160279Y-102640000D01*
X167739721Y-102640000D01*
X167327244Y-102722047D01*
X166938698Y-102882988D01*
X166589017Y-103116637D01*
X166291637Y-103414017D01*
X166057988Y-103763698D01*
X165897047Y-104152244D01*
X165815000Y-104564721D01*
X159927000Y-104564721D01*
X159927000Y-93444721D01*
X165815000Y-93444721D01*
X165815000Y-93865279D01*
X165897047Y-94277756D01*
X166057988Y-94666302D01*
X166291637Y-95015983D01*
X166589017Y-95313363D01*
X166938698Y-95547012D01*
X167327244Y-95707953D01*
X167739721Y-95790000D01*
X168160279Y-95790000D01*
X168572756Y-95707953D01*
X168961302Y-95547012D01*
X169310983Y-95313363D01*
X169608363Y-95015983D01*
X169842012Y-94666302D01*
X170002953Y-94277756D01*
X170085000Y-93865279D01*
X170085000Y-93469721D01*
X172040000Y-93469721D01*
X172040000Y-93890279D01*
X172122047Y-94302756D01*
X172282988Y-94691302D01*
X172516637Y-95040983D01*
X172814017Y-95338363D01*
X173163698Y-95572012D01*
X173552244Y-95732953D01*
X173964721Y-95815000D01*
X174385279Y-95815000D01*
X174797756Y-95732953D01*
X175186302Y-95572012D01*
X175535983Y-95338363D01*
X175833363Y-95040983D01*
X176067012Y-94691302D01*
X176227953Y-94302756D01*
X176310000Y-93890279D01*
X176310000Y-93469721D01*
X176227953Y-93057244D01*
X176067012Y-92668698D01*
X175833363Y-92319017D01*
X175535983Y-92021637D01*
X175186302Y-91787988D01*
X174797756Y-91627047D01*
X174385279Y-91545000D01*
X173964721Y-91545000D01*
X173552244Y-91627047D01*
X173163698Y-91787988D01*
X172814017Y-92021637D01*
X172516637Y-92319017D01*
X172282988Y-92668698D01*
X172122047Y-93057244D01*
X172040000Y-93469721D01*
X170085000Y-93469721D01*
X170085000Y-93444721D01*
X170002953Y-93032244D01*
X169842012Y-92643698D01*
X169608363Y-92294017D01*
X169310983Y-91996637D01*
X168961302Y-91762988D01*
X168572756Y-91602047D01*
X168160279Y-91520000D01*
X167739721Y-91520000D01*
X167327244Y-91602047D01*
X166938698Y-91762988D01*
X166589017Y-91996637D01*
X166291637Y-92294017D01*
X166057988Y-92643698D01*
X165897047Y-93032244D01*
X165815000Y-93444721D01*
X159927000Y-93444721D01*
X159927000Y-82927000D01*
X170135329Y-82927000D01*
X172497291Y-86174698D01*
G04 #@! TO.N,VSENSE_HIGH*
G36*
X137873000Y-89600000D02*
G01*
X137875440Y-89624776D01*
X137882667Y-89648601D01*
X137894403Y-89670557D01*
X137910197Y-89689803D01*
X137929443Y-89705597D01*
X137951399Y-89717333D01*
X137975224Y-89724560D01*
X138000000Y-89727000D01*
X140573000Y-89727000D01*
X140573000Y-94800000D01*
X140575440Y-94824776D01*
X140582667Y-94848601D01*
X140594403Y-94870557D01*
X140610197Y-94889803D01*
X140629443Y-94905597D01*
X140651399Y-94917333D01*
X140675224Y-94924560D01*
X140700000Y-94927000D01*
X145073000Y-94927000D01*
X145073000Y-97273000D01*
X132527000Y-97273000D01*
X132527000Y-88227000D01*
X137873000Y-88227000D01*
X137873000Y-89600000D01*
G37*
X137873000Y-89600000D02*
X137875440Y-89624776D01*
X137882667Y-89648601D01*
X137894403Y-89670557D01*
X137910197Y-89689803D01*
X137929443Y-89705597D01*
X137951399Y-89717333D01*
X137975224Y-89724560D01*
X138000000Y-89727000D01*
X140573000Y-89727000D01*
X140573000Y-94800000D01*
X140575440Y-94824776D01*
X140582667Y-94848601D01*
X140594403Y-94870557D01*
X140610197Y-94889803D01*
X140629443Y-94905597D01*
X140651399Y-94917333D01*
X140675224Y-94924560D01*
X140700000Y-94927000D01*
X145073000Y-94927000D01*
X145073000Y-97273000D01*
X132527000Y-97273000D01*
X132527000Y-88227000D01*
X137873000Y-88227000D01*
X137873000Y-89600000D01*
G04 #@! TO.N,GNDPWR*
G36*
X145073000Y-99873000D02*
G01*
X142900000Y-99873000D01*
X142875224Y-99875440D01*
X142851399Y-99882667D01*
X142829443Y-99894403D01*
X142810197Y-99910197D01*
X142794403Y-99929443D01*
X142782667Y-99951399D01*
X142775440Y-99975224D01*
X142773000Y-100000000D01*
X142773000Y-101073000D01*
X138600000Y-101073000D01*
X138575224Y-101075440D01*
X138551399Y-101082667D01*
X138529443Y-101094403D01*
X138510197Y-101110197D01*
X138494403Y-101129443D01*
X138482667Y-101151399D01*
X138475440Y-101175224D01*
X138473000Y-101200000D01*
X138473000Y-104867170D01*
X138462089Y-104865000D01*
X138277911Y-104865000D01*
X138097271Y-104900932D01*
X137927111Y-104971414D01*
X137775076Y-105073000D01*
X130927000Y-105073000D01*
X130927000Y-98327000D01*
X145073000Y-98327000D01*
X145073000Y-99873000D01*
G37*
X145073000Y-99873000D02*
X142900000Y-99873000D01*
X142875224Y-99875440D01*
X142851399Y-99882667D01*
X142829443Y-99894403D01*
X142810197Y-99910197D01*
X142794403Y-99929443D01*
X142782667Y-99951399D01*
X142775440Y-99975224D01*
X142773000Y-100000000D01*
X142773000Y-101073000D01*
X138600000Y-101073000D01*
X138575224Y-101075440D01*
X138551399Y-101082667D01*
X138529443Y-101094403D01*
X138510197Y-101110197D01*
X138494403Y-101129443D01*
X138482667Y-101151399D01*
X138475440Y-101175224D01*
X138473000Y-101200000D01*
X138473000Y-104867170D01*
X138462089Y-104865000D01*
X138277911Y-104865000D01*
X138097271Y-104900932D01*
X137927111Y-104971414D01*
X137775076Y-105073000D01*
X130927000Y-105073000D01*
X130927000Y-98327000D01*
X145073000Y-98327000D01*
X145073000Y-99873000D01*
G04 #@! TO.N,GND*
G36*
X145573000Y-82684674D02*
G01*
X145488237Y-82684674D01*
X145307597Y-82720606D01*
X145137437Y-82791088D01*
X144984298Y-82893412D01*
X144854064Y-83023646D01*
X144751740Y-83176785D01*
X144681258Y-83346945D01*
X144645326Y-83527585D01*
X144645326Y-83711763D01*
X144681258Y-83892403D01*
X144751740Y-84062563D01*
X144854064Y-84215702D01*
X144984298Y-84345936D01*
X145137437Y-84448260D01*
X145307597Y-84518742D01*
X145488237Y-84554674D01*
X145573000Y-84554674D01*
X145573000Y-87346809D01*
X145552271Y-87350932D01*
X145382111Y-87421414D01*
X145228972Y-87523738D01*
X145098738Y-87653972D01*
X144996414Y-87807111D01*
X144925932Y-87977271D01*
X144892317Y-88146263D01*
X144785452Y-88217668D01*
X144641289Y-88361831D01*
X144528021Y-88531349D01*
X144510768Y-88573000D01*
X138927000Y-88573000D01*
X138927000Y-86850000D01*
X138924560Y-86825224D01*
X138917333Y-86801399D01*
X138905597Y-86779443D01*
X138889803Y-86760197D01*
X138870557Y-86744403D01*
X138848601Y-86732667D01*
X138824776Y-86725440D01*
X138800000Y-86723000D01*
X133114843Y-86723000D01*
X133125000Y-86671939D01*
X133125000Y-86468061D01*
X133085226Y-86268102D01*
X133007205Y-86079744D01*
X132893937Y-85910226D01*
X132749774Y-85766063D01*
X132580256Y-85652795D01*
X132391898Y-85574774D01*
X132191939Y-85535000D01*
X131988061Y-85535000D01*
X131788102Y-85574774D01*
X131599744Y-85652795D01*
X131430226Y-85766063D01*
X131378765Y-85817524D01*
X131383495Y-85793747D01*
X131383495Y-85609569D01*
X131347563Y-85428929D01*
X131277081Y-85258769D01*
X131174757Y-85105630D01*
X131044523Y-84975396D01*
X130891384Y-84873072D01*
X130758259Y-84817930D01*
X130792889Y-84803586D01*
X130946028Y-84701262D01*
X131076262Y-84571028D01*
X131178586Y-84417889D01*
X131249068Y-84247729D01*
X131285000Y-84067089D01*
X131285000Y-83882911D01*
X131249068Y-83702271D01*
X131178586Y-83532111D01*
X131129007Y-83457910D01*
X133455000Y-83457910D01*
X133455000Y-83642088D01*
X133490932Y-83822728D01*
X133561414Y-83992888D01*
X133663738Y-84146027D01*
X133793972Y-84276261D01*
X133947111Y-84378585D01*
X134117271Y-84449067D01*
X134297911Y-84484999D01*
X134482089Y-84484999D01*
X134662729Y-84449067D01*
X134832889Y-84378585D01*
X134986028Y-84276261D01*
X135116262Y-84146027D01*
X135218586Y-83992888D01*
X135289068Y-83822728D01*
X135325000Y-83642088D01*
X135325000Y-83457910D01*
X135289068Y-83277270D01*
X135218586Y-83107110D01*
X135116262Y-82953971D01*
X134986028Y-82823737D01*
X134832889Y-82721413D01*
X134662729Y-82650931D01*
X134482089Y-82614999D01*
X134297911Y-82614999D01*
X134117271Y-82650931D01*
X133947111Y-82721413D01*
X133793972Y-82823737D01*
X133663738Y-82953971D01*
X133561414Y-83107110D01*
X133490932Y-83277270D01*
X133455000Y-83457910D01*
X131129007Y-83457910D01*
X131076262Y-83378972D01*
X130946028Y-83248738D01*
X130792889Y-83146414D01*
X130622729Y-83075932D01*
X130442089Y-83040000D01*
X130257911Y-83040000D01*
X130105084Y-83070400D01*
X129997729Y-83025932D01*
X129817089Y-82990000D01*
X129632911Y-82990000D01*
X129452271Y-83025932D01*
X129375000Y-83057938D01*
X129297729Y-83025932D01*
X129117089Y-82990000D01*
X128932911Y-82990000D01*
X128752271Y-83025932D01*
X128632322Y-83075616D01*
X128572729Y-83050932D01*
X128392089Y-83015000D01*
X128207911Y-83015000D01*
X128027271Y-83050932D01*
X127857111Y-83121414D01*
X127703972Y-83223738D01*
X127573738Y-83353972D01*
X127471414Y-83507111D01*
X127400932Y-83677271D01*
X127365000Y-83857911D01*
X127365000Y-84042089D01*
X127400932Y-84222729D01*
X127471414Y-84392889D01*
X127573738Y-84546028D01*
X127703972Y-84676262D01*
X127857111Y-84778586D01*
X127965204Y-84823359D01*
X127952271Y-84825932D01*
X127782111Y-84896414D01*
X127628972Y-84998738D01*
X127498738Y-85128972D01*
X127396414Y-85282111D01*
X127385910Y-85307470D01*
X127022756Y-85157047D01*
X126610279Y-85075000D01*
X126189721Y-85075000D01*
X125777244Y-85157047D01*
X125388698Y-85317988D01*
X125372443Y-85328849D01*
X125338586Y-85247111D01*
X125236262Y-85093972D01*
X125106028Y-84963738D01*
X124952889Y-84861414D01*
X124782729Y-84790932D01*
X124602089Y-84755000D01*
X124417911Y-84755000D01*
X124237271Y-84790932D01*
X124067111Y-84861414D01*
X123913972Y-84963738D01*
X123783738Y-85093972D01*
X123681414Y-85247111D01*
X123610932Y-85417271D01*
X123575000Y-85597911D01*
X123575000Y-85782089D01*
X123610932Y-85962729D01*
X123681414Y-86132889D01*
X123783738Y-86286028D01*
X123913972Y-86416262D01*
X124067111Y-86518586D01*
X124237271Y-86589068D01*
X124342520Y-86610004D01*
X124265000Y-86999721D01*
X124265000Y-87420279D01*
X124347047Y-87832756D01*
X124507988Y-88221302D01*
X124741637Y-88570983D01*
X125039017Y-88868363D01*
X125388698Y-89102012D01*
X125777244Y-89262953D01*
X126189721Y-89345000D01*
X126610279Y-89345000D01*
X127022756Y-89262953D01*
X127411302Y-89102012D01*
X127760983Y-88868363D01*
X128058363Y-88570983D01*
X128292012Y-88221302D01*
X128452953Y-87832756D01*
X128535000Y-87420279D01*
X128535000Y-86999721D01*
X128461703Y-86631234D01*
X128497729Y-86624068D01*
X128642678Y-86564029D01*
X128727271Y-86599068D01*
X128907911Y-86635000D01*
X129092089Y-86635000D01*
X129272729Y-86599068D01*
X129305212Y-86585613D01*
X129332111Y-86603586D01*
X129502271Y-86674068D01*
X129682911Y-86710000D01*
X129867089Y-86710000D01*
X130047729Y-86674068D01*
X130208888Y-86607314D01*
X130356406Y-86636658D01*
X130540584Y-86636658D01*
X130721224Y-86600726D01*
X130891384Y-86530244D01*
X131044523Y-86427920D01*
X131067568Y-86404875D01*
X131055000Y-86468061D01*
X131055000Y-86671939D01*
X131094774Y-86871898D01*
X131123000Y-86940041D01*
X131123000Y-90521944D01*
X130977271Y-90550932D01*
X130807111Y-90621414D01*
X130653972Y-90723738D01*
X130523738Y-90853972D01*
X130421414Y-91007111D01*
X130350932Y-91177271D01*
X130315000Y-91357911D01*
X130315000Y-91542089D01*
X130350932Y-91722729D01*
X130421414Y-91892889D01*
X130523738Y-92046028D01*
X130653972Y-92176262D01*
X130807111Y-92278586D01*
X130977271Y-92349068D01*
X131123000Y-92378056D01*
X131123000Y-97223000D01*
X129550000Y-97223000D01*
X129525224Y-97225440D01*
X129501399Y-97232667D01*
X129479443Y-97244403D01*
X129460197Y-97260197D01*
X129444403Y-97279443D01*
X129432667Y-97301399D01*
X129425440Y-97325224D01*
X129423000Y-97350000D01*
X129423000Y-106350000D01*
X129425440Y-106374776D01*
X129432667Y-106398601D01*
X129444403Y-106420557D01*
X129460197Y-106439803D01*
X129479443Y-106455597D01*
X129501399Y-106467333D01*
X129525224Y-106474560D01*
X129550000Y-106477000D01*
X135219051Y-106477000D01*
X135195000Y-106597911D01*
X135195000Y-106782089D01*
X135230932Y-106962729D01*
X135301414Y-107132889D01*
X135403738Y-107286028D01*
X135533972Y-107416262D01*
X135687111Y-107518586D01*
X135857271Y-107589068D01*
X136037911Y-107625000D01*
X136222089Y-107625000D01*
X136402729Y-107589068D01*
X136572889Y-107518586D01*
X136726028Y-107416262D01*
X136856262Y-107286028D01*
X136958586Y-107132889D01*
X137029068Y-106962729D01*
X137065000Y-106782089D01*
X137065000Y-106597911D01*
X137040949Y-106477000D01*
X138014822Y-106477000D01*
X145423000Y-110921907D01*
X145423000Y-118350000D01*
X145425440Y-118374776D01*
X145432667Y-118398601D01*
X145444403Y-118420557D01*
X145460197Y-118439803D01*
X145479443Y-118455597D01*
X145501399Y-118467333D01*
X145525224Y-118474560D01*
X145549708Y-118477000D01*
X158470533Y-118506726D01*
X158791484Y-123740000D01*
X128831866Y-123740001D01*
X128873577Y-123602499D01*
X128890000Y-123435751D01*
X128890000Y-122424248D01*
X128873577Y-122257501D01*
X128808676Y-122043553D01*
X128703284Y-121846377D01*
X128561449Y-121673551D01*
X128388623Y-121531716D01*
X128191446Y-121426324D01*
X127977498Y-121361423D01*
X127755000Y-121339509D01*
X127532501Y-121361423D01*
X127369324Y-121410923D01*
X127496028Y-121326262D01*
X127626262Y-121196028D01*
X127728586Y-121042889D01*
X127799068Y-120872729D01*
X127835000Y-120692089D01*
X127835000Y-120507911D01*
X127808562Y-120374999D01*
X130061928Y-120374999D01*
X130061928Y-121625001D01*
X130078992Y-121798255D01*
X130129528Y-121964851D01*
X130211595Y-122118387D01*
X130322038Y-122252962D01*
X130456613Y-122363405D01*
X130610149Y-122445472D01*
X130776745Y-122496008D01*
X130949999Y-122513072D01*
X131650001Y-122513072D01*
X131823255Y-122496008D01*
X131989851Y-122445472D01*
X132143387Y-122363405D01*
X132277962Y-122252962D01*
X132388405Y-122118387D01*
X132390810Y-122113888D01*
X132422499Y-122152502D01*
X132610552Y-122306833D01*
X132825100Y-122421511D01*
X133057899Y-122492130D01*
X133300000Y-122515975D01*
X133542102Y-122492130D01*
X133774901Y-122421511D01*
X133989449Y-122306833D01*
X134177502Y-122152502D01*
X134300001Y-122003237D01*
X134422499Y-122152502D01*
X134610552Y-122306833D01*
X134825100Y-122421511D01*
X135057899Y-122492130D01*
X135300000Y-122515975D01*
X135542102Y-122492130D01*
X135774901Y-122421511D01*
X135989449Y-122306833D01*
X136177502Y-122152502D01*
X136300001Y-122003237D01*
X136422499Y-122152502D01*
X136610552Y-122306833D01*
X136825100Y-122421511D01*
X137057899Y-122492130D01*
X137300000Y-122515975D01*
X137542102Y-122492130D01*
X137774901Y-122421511D01*
X137989449Y-122306833D01*
X138177502Y-122152502D01*
X138300001Y-122003237D01*
X138422499Y-122152502D01*
X138610552Y-122306833D01*
X138825100Y-122421511D01*
X139057899Y-122492130D01*
X139300000Y-122515975D01*
X139542102Y-122492130D01*
X139774901Y-122421511D01*
X139989449Y-122306833D01*
X140177502Y-122152502D01*
X140331833Y-121964449D01*
X140362052Y-121907911D01*
X145465000Y-121907911D01*
X145465000Y-122092089D01*
X145500932Y-122272729D01*
X145571414Y-122442889D01*
X145673738Y-122596028D01*
X145803972Y-122726262D01*
X145957111Y-122828586D01*
X146127271Y-122899068D01*
X146307911Y-122935000D01*
X146492089Y-122935000D01*
X146672729Y-122899068D01*
X146842889Y-122828586D01*
X146996028Y-122726262D01*
X147126262Y-122596028D01*
X147228586Y-122442889D01*
X147299068Y-122272729D01*
X147335000Y-122092089D01*
X147335000Y-121917911D01*
X148315000Y-121917911D01*
X148315000Y-122102089D01*
X148350932Y-122282729D01*
X148421414Y-122452889D01*
X148523738Y-122606028D01*
X148653972Y-122736262D01*
X148807111Y-122838586D01*
X148977271Y-122909068D01*
X149157911Y-122945000D01*
X149342089Y-122945000D01*
X149522729Y-122909068D01*
X149692889Y-122838586D01*
X149846028Y-122736262D01*
X149976262Y-122606028D01*
X150078586Y-122452889D01*
X150126211Y-122337911D01*
X154484990Y-122337911D01*
X154484990Y-122522089D01*
X154520922Y-122702729D01*
X154591404Y-122872889D01*
X154693728Y-123026028D01*
X154823962Y-123156262D01*
X154977101Y-123258586D01*
X155147261Y-123329068D01*
X155327901Y-123365000D01*
X155512079Y-123365000D01*
X155692719Y-123329068D01*
X155862879Y-123258586D01*
X156016018Y-123156262D01*
X156146252Y-123026028D01*
X156248576Y-122872889D01*
X156319058Y-122702729D01*
X156354990Y-122522089D01*
X156354990Y-122337911D01*
X156319058Y-122157271D01*
X156248576Y-121987111D01*
X156146252Y-121833972D01*
X156016018Y-121703738D01*
X155862879Y-121601414D01*
X155692719Y-121530932D01*
X155512079Y-121495000D01*
X155327901Y-121495000D01*
X155147261Y-121530932D01*
X154977101Y-121601414D01*
X154823962Y-121703738D01*
X154693728Y-121833972D01*
X154591404Y-121987111D01*
X154520922Y-122157271D01*
X154484990Y-122337911D01*
X150126211Y-122337911D01*
X150149068Y-122282729D01*
X150185000Y-122102089D01*
X150185000Y-121917911D01*
X150149068Y-121737271D01*
X150078586Y-121567111D01*
X149976262Y-121413972D01*
X149846028Y-121283738D01*
X149692889Y-121181414D01*
X149522729Y-121110932D01*
X149342089Y-121075000D01*
X149157911Y-121075000D01*
X148977271Y-121110932D01*
X148807111Y-121181414D01*
X148653972Y-121283738D01*
X148523738Y-121413972D01*
X148421414Y-121567111D01*
X148350932Y-121737271D01*
X148315000Y-121917911D01*
X147335000Y-121917911D01*
X147335000Y-121907911D01*
X147299068Y-121727271D01*
X147228586Y-121557111D01*
X147126262Y-121403972D01*
X146996028Y-121273738D01*
X146842889Y-121171414D01*
X146672729Y-121100932D01*
X146492089Y-121065000D01*
X146307911Y-121065000D01*
X146127271Y-121100932D01*
X145957111Y-121171414D01*
X145803972Y-121273738D01*
X145673738Y-121403972D01*
X145571414Y-121557111D01*
X145500932Y-121727271D01*
X145465000Y-121907911D01*
X140362052Y-121907911D01*
X140446511Y-121749900D01*
X140517130Y-121517101D01*
X140535000Y-121335664D01*
X140535000Y-120664335D01*
X140517130Y-120482898D01*
X140482249Y-120367911D01*
X154645000Y-120367911D01*
X154645000Y-120552089D01*
X154680932Y-120732729D01*
X154751414Y-120902889D01*
X154853738Y-121056028D01*
X154983972Y-121186262D01*
X155137111Y-121288586D01*
X155307271Y-121359068D01*
X155487911Y-121395000D01*
X155672089Y-121395000D01*
X155852729Y-121359068D01*
X156022889Y-121288586D01*
X156176028Y-121186262D01*
X156306262Y-121056028D01*
X156408586Y-120902889D01*
X156479068Y-120732729D01*
X156515000Y-120552089D01*
X156515000Y-120367911D01*
X156479068Y-120187271D01*
X156408586Y-120017111D01*
X156306262Y-119863972D01*
X156176028Y-119733738D01*
X156022889Y-119631414D01*
X155852729Y-119560932D01*
X155672089Y-119525000D01*
X155487911Y-119525000D01*
X155307271Y-119560932D01*
X155137111Y-119631414D01*
X154983972Y-119733738D01*
X154853738Y-119863972D01*
X154751414Y-120017111D01*
X154680932Y-120187271D01*
X154645000Y-120367911D01*
X140482249Y-120367911D01*
X140446511Y-120250099D01*
X140331833Y-120035551D01*
X140177502Y-119847498D01*
X139989448Y-119693167D01*
X139774900Y-119578489D01*
X139542101Y-119507870D01*
X139300000Y-119484025D01*
X139057898Y-119507870D01*
X138825099Y-119578489D01*
X138610551Y-119693167D01*
X138422498Y-119847498D01*
X138300000Y-119996763D01*
X138177502Y-119847498D01*
X137989448Y-119693167D01*
X137774900Y-119578489D01*
X137542101Y-119507870D01*
X137300000Y-119484025D01*
X137057898Y-119507870D01*
X136825099Y-119578489D01*
X136610551Y-119693167D01*
X136422498Y-119847498D01*
X136300000Y-119996763D01*
X136177502Y-119847498D01*
X135989448Y-119693167D01*
X135774900Y-119578489D01*
X135542101Y-119507870D01*
X135300000Y-119484025D01*
X135057898Y-119507870D01*
X134825099Y-119578489D01*
X134610551Y-119693167D01*
X134422498Y-119847498D01*
X134300000Y-119996763D01*
X134177502Y-119847498D01*
X133989448Y-119693167D01*
X133774900Y-119578489D01*
X133542101Y-119507870D01*
X133300000Y-119484025D01*
X133057898Y-119507870D01*
X132825099Y-119578489D01*
X132610551Y-119693167D01*
X132422498Y-119847498D01*
X132390809Y-119886111D01*
X132388405Y-119881613D01*
X132277962Y-119747038D01*
X132143387Y-119636595D01*
X131989851Y-119554528D01*
X131823255Y-119503992D01*
X131650001Y-119486928D01*
X130949999Y-119486928D01*
X130776745Y-119503992D01*
X130610149Y-119554528D01*
X130456613Y-119636595D01*
X130322038Y-119747038D01*
X130211595Y-119881613D01*
X130129528Y-120035149D01*
X130078992Y-120201745D01*
X130061928Y-120374999D01*
X127808562Y-120374999D01*
X127799068Y-120327271D01*
X127728586Y-120157111D01*
X127626262Y-120003972D01*
X127496028Y-119873738D01*
X127342889Y-119771414D01*
X127172729Y-119700932D01*
X126992089Y-119665000D01*
X126954361Y-119665000D01*
X126948215Y-119602600D01*
X126881885Y-119383940D01*
X126774171Y-119182421D01*
X126629212Y-119005788D01*
X126452578Y-118860829D01*
X126251059Y-118753115D01*
X126032399Y-118686785D01*
X125805000Y-118664388D01*
X125577600Y-118686785D01*
X125358940Y-118753115D01*
X125157421Y-118860829D01*
X124980788Y-119005788D01*
X124835829Y-119182422D01*
X124728115Y-119383941D01*
X124661785Y-119602601D01*
X124645000Y-119773022D01*
X124645000Y-120086979D01*
X124661785Y-120257400D01*
X124728115Y-120476060D01*
X124835829Y-120677579D01*
X124980789Y-120854212D01*
X125157422Y-120999171D01*
X125358941Y-121106885D01*
X125577601Y-121173215D01*
X125805000Y-121195612D01*
X126032400Y-121173215D01*
X126137244Y-121141411D01*
X126173738Y-121196028D01*
X126303972Y-121326262D01*
X126457111Y-121428586D01*
X126627271Y-121499068D01*
X126807911Y-121535000D01*
X126992089Y-121535000D01*
X127172729Y-121499068D01*
X127215955Y-121481163D01*
X127121377Y-121531716D01*
X126948551Y-121673551D01*
X126806716Y-121846377D01*
X126701324Y-122043554D01*
X126636423Y-122257502D01*
X126620000Y-122424249D01*
X126620000Y-123435752D01*
X126636423Y-123602499D01*
X126678134Y-123740001D01*
X120481866Y-123740001D01*
X120523577Y-123602499D01*
X120540000Y-123435751D01*
X120540000Y-122424248D01*
X120523577Y-122257501D01*
X120458676Y-122043553D01*
X120353284Y-121846377D01*
X120211449Y-121673551D01*
X120038623Y-121531716D01*
X119841446Y-121426324D01*
X119627498Y-121361423D01*
X119405000Y-121339509D01*
X119182501Y-121361423D01*
X118968553Y-121426324D01*
X118771377Y-121531716D01*
X118598551Y-121673551D01*
X118456716Y-121846377D01*
X118351324Y-122043554D01*
X118286423Y-122257502D01*
X118270000Y-122424249D01*
X118270000Y-123435752D01*
X118286423Y-123602499D01*
X118328134Y-123740001D01*
X115742289Y-123740001D01*
X115258049Y-123692521D01*
X114823314Y-123561267D01*
X114422345Y-123348068D01*
X114070434Y-123061055D01*
X113780966Y-122711148D01*
X113564976Y-122311684D01*
X113430689Y-121877872D01*
X113380000Y-121395595D01*
X113380000Y-119773022D01*
X120195000Y-119773022D01*
X120195000Y-120086979D01*
X120211785Y-120257400D01*
X120278115Y-120476060D01*
X120385829Y-120677579D01*
X120530789Y-120854212D01*
X120707422Y-120999171D01*
X120908941Y-121106885D01*
X121127601Y-121173215D01*
X121355000Y-121195612D01*
X121582400Y-121173215D01*
X121801060Y-121106885D01*
X122002579Y-120999171D01*
X122179212Y-120854212D01*
X122324171Y-120677578D01*
X122431885Y-120476059D01*
X122498215Y-120257399D01*
X122515000Y-120086978D01*
X122515000Y-119773021D01*
X122498215Y-119602600D01*
X122431885Y-119383940D01*
X122324171Y-119182421D01*
X122179212Y-119005788D01*
X122002578Y-118860829D01*
X121801059Y-118753115D01*
X121582399Y-118686785D01*
X121355000Y-118664388D01*
X121127600Y-118686785D01*
X120908940Y-118753115D01*
X120707421Y-118860829D01*
X120530788Y-119005788D01*
X120385829Y-119182422D01*
X120278115Y-119383941D01*
X120211785Y-119602601D01*
X120195000Y-119773022D01*
X113380000Y-119773022D01*
X113380000Y-116618061D01*
X130375000Y-116618061D01*
X130375000Y-116821939D01*
X130414774Y-117021898D01*
X130492795Y-117210256D01*
X130606063Y-117379774D01*
X130750226Y-117523937D01*
X130919744Y-117637205D01*
X131108102Y-117715226D01*
X131308061Y-117755000D01*
X131511939Y-117755000D01*
X131711898Y-117715226D01*
X131900256Y-117637205D01*
X132069774Y-117523937D01*
X132213937Y-117379774D01*
X132327205Y-117210256D01*
X132405226Y-117021898D01*
X132445000Y-116821939D01*
X132445000Y-116618061D01*
X132405226Y-116418102D01*
X132327205Y-116229744D01*
X132213937Y-116060226D01*
X132069774Y-115916063D01*
X131900256Y-115802795D01*
X131711898Y-115724774D01*
X131511939Y-115685000D01*
X131308061Y-115685000D01*
X131108102Y-115724774D01*
X130919744Y-115802795D01*
X130750226Y-115916063D01*
X130606063Y-116060226D01*
X130492795Y-116229744D01*
X130414774Y-116418102D01*
X130375000Y-116618061D01*
X113380000Y-116618061D01*
X113380000Y-112940000D01*
X113554025Y-112940000D01*
X113577870Y-113182102D01*
X113648489Y-113414901D01*
X113763167Y-113629449D01*
X113917498Y-113817502D01*
X113956111Y-113849191D01*
X113951613Y-113851595D01*
X113817038Y-113962038D01*
X113706595Y-114096613D01*
X113624528Y-114250149D01*
X113573992Y-114416745D01*
X113556928Y-114589999D01*
X113556928Y-115290001D01*
X113573992Y-115463255D01*
X113624528Y-115629851D01*
X113706595Y-115783387D01*
X113817038Y-115917962D01*
X113951613Y-116028405D01*
X114105149Y-116110472D01*
X114271745Y-116161008D01*
X114444999Y-116178072D01*
X115695001Y-116178072D01*
X115868255Y-116161008D01*
X116034851Y-116110472D01*
X116188387Y-116028405D01*
X116322962Y-115917962D01*
X116433405Y-115783387D01*
X116515472Y-115629851D01*
X116566008Y-115463255D01*
X116583072Y-115290001D01*
X116583072Y-114589999D01*
X116566008Y-114416745D01*
X116515472Y-114250149D01*
X116433405Y-114096613D01*
X116322962Y-113962038D01*
X116188387Y-113851595D01*
X116183889Y-113849191D01*
X116222502Y-113817502D01*
X116376833Y-113629449D01*
X116491511Y-113414901D01*
X116562130Y-113182102D01*
X116584990Y-112950000D01*
X119514025Y-112950000D01*
X119537870Y-113192102D01*
X119608489Y-113424901D01*
X119723167Y-113639449D01*
X119877498Y-113827502D01*
X119916111Y-113859191D01*
X119911613Y-113861595D01*
X119777038Y-113972038D01*
X119666595Y-114106613D01*
X119584528Y-114260149D01*
X119533992Y-114426745D01*
X119516928Y-114599999D01*
X119516928Y-115300001D01*
X119533992Y-115473255D01*
X119584528Y-115639851D01*
X119666595Y-115793387D01*
X119777038Y-115927962D01*
X119911613Y-116038405D01*
X120065149Y-116120472D01*
X120231745Y-116171008D01*
X120404999Y-116188072D01*
X121655001Y-116188072D01*
X121828255Y-116171008D01*
X121994851Y-116120472D01*
X122148387Y-116038405D01*
X122282962Y-115927962D01*
X122393405Y-115793387D01*
X122475472Y-115639851D01*
X122526008Y-115473255D01*
X122527519Y-115457911D01*
X138005000Y-115457911D01*
X138005000Y-115642089D01*
X138040932Y-115822729D01*
X138111414Y-115992889D01*
X138213738Y-116146028D01*
X138343972Y-116276262D01*
X138497111Y-116378586D01*
X138667271Y-116449068D01*
X138847911Y-116485000D01*
X139032089Y-116485000D01*
X139212729Y-116449068D01*
X139382889Y-116378586D01*
X139390926Y-116373216D01*
X139403972Y-116386262D01*
X139557111Y-116488586D01*
X139641207Y-116523420D01*
X139664774Y-116641898D01*
X139742795Y-116830256D01*
X139856063Y-116999774D01*
X140000226Y-117143937D01*
X140169744Y-117257205D01*
X140358102Y-117335226D01*
X140558061Y-117375000D01*
X140761939Y-117375000D01*
X140810739Y-117365293D01*
X140812795Y-117370256D01*
X140926063Y-117539774D01*
X141070226Y-117683937D01*
X141239744Y-117797205D01*
X141428102Y-117875226D01*
X141628061Y-117915000D01*
X141831939Y-117915000D01*
X142031898Y-117875226D01*
X142220256Y-117797205D01*
X142389774Y-117683937D01*
X142533937Y-117539774D01*
X142647205Y-117370256D01*
X142725226Y-117181898D01*
X142765000Y-116981939D01*
X142765000Y-116778061D01*
X142725226Y-116578102D01*
X142647205Y-116389744D01*
X142533937Y-116220226D01*
X142389774Y-116076063D01*
X142220256Y-115962795D01*
X142031898Y-115884774D01*
X141831939Y-115845000D01*
X141763945Y-115845000D01*
X141807205Y-115780256D01*
X141885226Y-115591898D01*
X141925000Y-115391939D01*
X141925000Y-115188061D01*
X141885226Y-114988102D01*
X141807205Y-114799744D01*
X141693937Y-114630226D01*
X141549774Y-114486063D01*
X141380256Y-114372795D01*
X141191898Y-114294774D01*
X140991939Y-114255000D01*
X140788061Y-114255000D01*
X140588102Y-114294774D01*
X140399744Y-114372795D01*
X140230226Y-114486063D01*
X140086063Y-114630226D01*
X140022737Y-114725000D01*
X139907911Y-114725000D01*
X139727271Y-114760932D01*
X139557111Y-114831414D01*
X139549074Y-114836784D01*
X139536028Y-114823738D01*
X139382889Y-114721414D01*
X139212729Y-114650932D01*
X139032089Y-114615000D01*
X138847911Y-114615000D01*
X138667271Y-114650932D01*
X138497111Y-114721414D01*
X138343972Y-114823738D01*
X138213738Y-114953972D01*
X138111414Y-115107111D01*
X138040932Y-115277271D01*
X138005000Y-115457911D01*
X122527519Y-115457911D01*
X122543072Y-115300001D01*
X122543072Y-114599999D01*
X122526008Y-114426745D01*
X122475472Y-114260149D01*
X122468931Y-114247911D01*
X128695000Y-114247911D01*
X128695000Y-114432089D01*
X128730932Y-114612729D01*
X128801414Y-114782889D01*
X128903738Y-114936028D01*
X129033972Y-115066262D01*
X129187111Y-115168586D01*
X129357271Y-115239068D01*
X129537911Y-115275000D01*
X129722089Y-115275000D01*
X129902729Y-115239068D01*
X130072889Y-115168586D01*
X130226028Y-115066262D01*
X130356262Y-114936028D01*
X130458586Y-114782889D01*
X130529068Y-114612729D01*
X130565000Y-114432089D01*
X130565000Y-114247911D01*
X130529068Y-114067271D01*
X130458586Y-113897111D01*
X130356262Y-113743972D01*
X130272290Y-113660000D01*
X130386262Y-113546028D01*
X130488586Y-113392889D01*
X130559068Y-113222729D01*
X130595000Y-113042089D01*
X130595000Y-112857911D01*
X130559068Y-112677271D01*
X130488586Y-112507111D01*
X130386262Y-112353972D01*
X130256028Y-112223738D01*
X130102889Y-112121414D01*
X129932729Y-112050932D01*
X129752089Y-112015000D01*
X129567911Y-112015000D01*
X129387271Y-112050932D01*
X129217111Y-112121414D01*
X129063972Y-112223738D01*
X128933738Y-112353972D01*
X128831414Y-112507111D01*
X128760932Y-112677271D01*
X128725000Y-112857911D01*
X128725000Y-113042089D01*
X128760932Y-113222729D01*
X128831414Y-113392889D01*
X128933738Y-113546028D01*
X129017710Y-113630000D01*
X128903738Y-113743972D01*
X128801414Y-113897111D01*
X128730932Y-114067271D01*
X128695000Y-114247911D01*
X122468931Y-114247911D01*
X122393405Y-114106613D01*
X122282962Y-113972038D01*
X122148387Y-113861595D01*
X122143889Y-113859191D01*
X122182502Y-113827502D01*
X122336833Y-113639449D01*
X122451511Y-113424901D01*
X122522130Y-113192102D01*
X122545975Y-112950000D01*
X122522130Y-112707898D01*
X122451511Y-112475099D01*
X122336833Y-112260551D01*
X122182502Y-112072498D01*
X121994449Y-111918167D01*
X121779901Y-111803489D01*
X121547102Y-111732870D01*
X121365665Y-111715000D01*
X120694335Y-111715000D01*
X120512898Y-111732870D01*
X120280099Y-111803489D01*
X120065551Y-111918167D01*
X119877498Y-112072498D01*
X119723167Y-112260551D01*
X119608489Y-112475099D01*
X119537870Y-112707898D01*
X119514025Y-112950000D01*
X116584990Y-112950000D01*
X116585975Y-112940000D01*
X116562130Y-112697898D01*
X116491511Y-112465099D01*
X116376833Y-112250551D01*
X116222502Y-112062498D01*
X116034449Y-111908167D01*
X115819901Y-111793489D01*
X115587102Y-111722870D01*
X115405665Y-111705000D01*
X114734335Y-111705000D01*
X114552898Y-111722870D01*
X114320099Y-111793489D01*
X114105551Y-111908167D01*
X113917498Y-112062498D01*
X113763167Y-112250551D01*
X113648489Y-112465099D01*
X113577870Y-112697898D01*
X113554025Y-112940000D01*
X113380000Y-112940000D01*
X113380000Y-110337911D01*
X128705000Y-110337911D01*
X128705000Y-110522089D01*
X128740932Y-110702729D01*
X128811414Y-110872889D01*
X128913738Y-111026028D01*
X129043972Y-111156262D01*
X129197111Y-111258586D01*
X129367271Y-111329068D01*
X129547911Y-111365000D01*
X129732089Y-111365000D01*
X129912729Y-111329068D01*
X130082889Y-111258586D01*
X130236028Y-111156262D01*
X130366262Y-111026028D01*
X130468586Y-110872889D01*
X130539068Y-110702729D01*
X130575000Y-110522089D01*
X130575000Y-110448061D01*
X131495000Y-110448061D01*
X131495000Y-110651939D01*
X131534774Y-110851898D01*
X131612795Y-111040256D01*
X131726063Y-111209774D01*
X131870226Y-111353937D01*
X132039744Y-111467205D01*
X132228102Y-111545226D01*
X132428061Y-111585000D01*
X132631939Y-111585000D01*
X132831898Y-111545226D01*
X133020256Y-111467205D01*
X133189774Y-111353937D01*
X133333937Y-111209774D01*
X133447205Y-111040256D01*
X133525226Y-110851898D01*
X133565000Y-110651939D01*
X133565000Y-110448061D01*
X133539002Y-110317358D01*
X133597111Y-110356185D01*
X133767271Y-110426667D01*
X133947911Y-110462599D01*
X134132089Y-110462599D01*
X134312729Y-110426667D01*
X134444861Y-110371937D01*
X134460932Y-110452729D01*
X134531414Y-110622889D01*
X134633738Y-110776028D01*
X134763972Y-110906262D01*
X134917111Y-111008586D01*
X135087271Y-111079068D01*
X135267911Y-111115000D01*
X135452089Y-111115000D01*
X135632729Y-111079068D01*
X135802889Y-111008586D01*
X135956028Y-110906262D01*
X136086262Y-110776028D01*
X136103341Y-110750468D01*
X136113738Y-110766028D01*
X136243972Y-110896262D01*
X136397111Y-110998586D01*
X136567271Y-111069068D01*
X136747911Y-111105000D01*
X136932089Y-111105000D01*
X137112729Y-111069068D01*
X137282889Y-110998586D01*
X137342296Y-110958892D01*
X137364774Y-111071898D01*
X137442795Y-111260256D01*
X137556063Y-111429774D01*
X137700226Y-111573937D01*
X137869744Y-111687205D01*
X138058102Y-111765226D01*
X138258061Y-111805000D01*
X138461939Y-111805000D01*
X138661898Y-111765226D01*
X138850256Y-111687205D01*
X139019774Y-111573937D01*
X139163937Y-111429774D01*
X139277205Y-111260256D01*
X139355226Y-111071898D01*
X139395000Y-110871939D01*
X139395000Y-110668061D01*
X139355226Y-110468102D01*
X139277205Y-110279744D01*
X139163937Y-110110226D01*
X139019774Y-109966063D01*
X138850256Y-109852795D01*
X138661898Y-109774774D01*
X138461939Y-109735000D01*
X138258061Y-109735000D01*
X138058102Y-109774774D01*
X137869744Y-109852795D01*
X137746590Y-109935084D01*
X137739068Y-109897271D01*
X137668586Y-109727111D01*
X137566262Y-109573972D01*
X137436028Y-109443738D01*
X137282889Y-109341414D01*
X137112729Y-109270932D01*
X136932089Y-109235000D01*
X136747911Y-109235000D01*
X136567271Y-109270932D01*
X136397111Y-109341414D01*
X136243972Y-109443738D01*
X136113738Y-109573972D01*
X136096659Y-109599532D01*
X136086262Y-109583972D01*
X135956028Y-109453738D01*
X135802889Y-109351414D01*
X135632729Y-109280932D01*
X135452089Y-109245000D01*
X135267911Y-109245000D01*
X135087271Y-109280932D01*
X134955139Y-109335662D01*
X134939068Y-109254870D01*
X134868586Y-109084710D01*
X134766262Y-108931571D01*
X134636028Y-108801337D01*
X134482889Y-108699013D01*
X134312729Y-108628531D01*
X134132089Y-108592599D01*
X133947911Y-108592599D01*
X133767271Y-108628531D01*
X133597111Y-108699013D01*
X133443972Y-108801337D01*
X133313738Y-108931571D01*
X133211414Y-109084710D01*
X133140932Y-109254870D01*
X133105000Y-109435510D01*
X133105000Y-109619688D01*
X133120997Y-109700108D01*
X133020256Y-109632795D01*
X132831898Y-109554774D01*
X132631939Y-109515000D01*
X132428061Y-109515000D01*
X132228102Y-109554774D01*
X132039744Y-109632795D01*
X131870226Y-109746063D01*
X131726063Y-109890226D01*
X131612795Y-110059744D01*
X131534774Y-110248102D01*
X131495000Y-110448061D01*
X130575000Y-110448061D01*
X130575000Y-110337911D01*
X130539068Y-110157271D01*
X130468586Y-109987111D01*
X130459210Y-109973080D01*
X130576262Y-109856028D01*
X130678586Y-109702889D01*
X130749068Y-109532729D01*
X130785000Y-109352089D01*
X130785000Y-109167911D01*
X130749068Y-108987271D01*
X130678586Y-108817111D01*
X130576262Y-108663972D01*
X130446028Y-108533738D01*
X130292889Y-108431414D01*
X130122729Y-108360932D01*
X129942089Y-108325000D01*
X129757911Y-108325000D01*
X129577271Y-108360932D01*
X129407111Y-108431414D01*
X129253972Y-108533738D01*
X129123738Y-108663972D01*
X129021414Y-108817111D01*
X128950932Y-108987271D01*
X128915000Y-109167911D01*
X128915000Y-109352089D01*
X128950932Y-109532729D01*
X129021414Y-109702889D01*
X129030790Y-109716920D01*
X128913738Y-109833972D01*
X128811414Y-109987111D01*
X128740932Y-110157271D01*
X128705000Y-110337911D01*
X113380000Y-110337911D01*
X113380000Y-105899721D01*
X124265000Y-105899721D01*
X124265000Y-106320279D01*
X124347047Y-106732756D01*
X124507988Y-107121302D01*
X124741637Y-107470983D01*
X125039017Y-107768363D01*
X125388698Y-108002012D01*
X125777244Y-108162953D01*
X126189721Y-108245000D01*
X126610279Y-108245000D01*
X127022756Y-108162953D01*
X127411302Y-108002012D01*
X127760983Y-107768363D01*
X128058363Y-107470983D01*
X128292012Y-107121302D01*
X128452953Y-106732756D01*
X128535000Y-106320279D01*
X128535000Y-105899721D01*
X128452953Y-105487244D01*
X128292012Y-105098698D01*
X128058363Y-104749017D01*
X127760983Y-104451637D01*
X127411302Y-104217988D01*
X127022756Y-104057047D01*
X126610279Y-103975000D01*
X126189721Y-103975000D01*
X125777244Y-104057047D01*
X125388698Y-104217988D01*
X125039017Y-104451637D01*
X124741637Y-104749017D01*
X124507988Y-105098698D01*
X124347047Y-105487244D01*
X124265000Y-105899721D01*
X113380000Y-105899721D01*
X113380000Y-101752237D01*
X113380017Y-101752063D01*
X113380000Y-101720511D01*
X113380000Y-101687581D01*
X113379982Y-101687400D01*
X113371071Y-85147911D01*
X118255000Y-85147911D01*
X118255000Y-85332089D01*
X118290932Y-85512729D01*
X118361414Y-85682889D01*
X118463738Y-85836028D01*
X118593972Y-85966262D01*
X118747111Y-86068586D01*
X118917271Y-86139068D01*
X119097911Y-86175000D01*
X119282089Y-86175000D01*
X119462729Y-86139068D01*
X119632889Y-86068586D01*
X119786028Y-85966262D01*
X119916262Y-85836028D01*
X120018586Y-85682889D01*
X120089068Y-85512729D01*
X120125000Y-85332089D01*
X120125000Y-85147911D01*
X120535000Y-85147911D01*
X120535000Y-85332089D01*
X120570932Y-85512729D01*
X120641414Y-85682889D01*
X120743738Y-85836028D01*
X120873972Y-85966262D01*
X121027111Y-86068586D01*
X121197271Y-86139068D01*
X121377911Y-86175000D01*
X121562089Y-86175000D01*
X121742729Y-86139068D01*
X121912889Y-86068586D01*
X122066028Y-85966262D01*
X122196262Y-85836028D01*
X122298586Y-85682889D01*
X122369068Y-85512729D01*
X122405000Y-85332089D01*
X122405000Y-85147911D01*
X122369068Y-84967271D01*
X122298586Y-84797111D01*
X122196262Y-84643972D01*
X122066028Y-84513738D01*
X121912889Y-84411414D01*
X121742729Y-84340932D01*
X121562089Y-84305000D01*
X121377911Y-84305000D01*
X121197271Y-84340932D01*
X121027111Y-84411414D01*
X120873972Y-84513738D01*
X120743738Y-84643972D01*
X120641414Y-84797111D01*
X120570932Y-84967271D01*
X120535000Y-85147911D01*
X120125000Y-85147911D01*
X120089068Y-84967271D01*
X120018586Y-84797111D01*
X119916262Y-84643972D01*
X119786028Y-84513738D01*
X119632889Y-84411414D01*
X119462729Y-84340932D01*
X119282089Y-84305000D01*
X119097911Y-84305000D01*
X118917271Y-84340932D01*
X118747111Y-84411414D01*
X118593972Y-84513738D01*
X118463738Y-84643972D01*
X118361414Y-84797111D01*
X118290932Y-84967271D01*
X118255000Y-85147911D01*
X113371071Y-85147911D01*
X113370017Y-83192106D01*
X113417670Y-82706107D01*
X113549489Y-82269502D01*
X113763600Y-81866815D01*
X114051848Y-81513388D01*
X114403261Y-81222673D01*
X114804439Y-81005758D01*
X115240113Y-80870894D01*
X115724372Y-80819997D01*
X122882730Y-80818779D01*
X122865000Y-80907911D01*
X122865000Y-81092089D01*
X122900932Y-81272729D01*
X122971414Y-81442889D01*
X123073738Y-81596028D01*
X123203972Y-81726262D01*
X123357111Y-81828586D01*
X123527271Y-81899068D01*
X123707911Y-81935000D01*
X123892089Y-81935000D01*
X124072729Y-81899068D01*
X124242889Y-81828586D01*
X124396028Y-81726262D01*
X124526262Y-81596028D01*
X124628586Y-81442889D01*
X124699068Y-81272729D01*
X124735000Y-81092089D01*
X124735000Y-80907911D01*
X124717208Y-80818466D01*
X141265396Y-80815649D01*
X141255000Y-80867911D01*
X141255000Y-81052089D01*
X141290932Y-81232729D01*
X141361414Y-81402889D01*
X141463738Y-81556028D01*
X141593972Y-81686262D01*
X141747111Y-81788586D01*
X141917271Y-81859068D01*
X142097911Y-81895000D01*
X142282089Y-81895000D01*
X142462729Y-81859068D01*
X142632889Y-81788586D01*
X142786028Y-81686262D01*
X142916262Y-81556028D01*
X143018586Y-81402889D01*
X143089068Y-81232729D01*
X143125000Y-81052089D01*
X143125000Y-80867911D01*
X143114542Y-80815335D01*
X145573000Y-80814916D01*
X145573000Y-82684674D01*
G37*
X145573000Y-82684674D02*
X145488237Y-82684674D01*
X145307597Y-82720606D01*
X145137437Y-82791088D01*
X144984298Y-82893412D01*
X144854064Y-83023646D01*
X144751740Y-83176785D01*
X144681258Y-83346945D01*
X144645326Y-83527585D01*
X144645326Y-83711763D01*
X144681258Y-83892403D01*
X144751740Y-84062563D01*
X144854064Y-84215702D01*
X144984298Y-84345936D01*
X145137437Y-84448260D01*
X145307597Y-84518742D01*
X145488237Y-84554674D01*
X145573000Y-84554674D01*
X145573000Y-87346809D01*
X145552271Y-87350932D01*
X145382111Y-87421414D01*
X145228972Y-87523738D01*
X145098738Y-87653972D01*
X144996414Y-87807111D01*
X144925932Y-87977271D01*
X144892317Y-88146263D01*
X144785452Y-88217668D01*
X144641289Y-88361831D01*
X144528021Y-88531349D01*
X144510768Y-88573000D01*
X138927000Y-88573000D01*
X138927000Y-86850000D01*
X138924560Y-86825224D01*
X138917333Y-86801399D01*
X138905597Y-86779443D01*
X138889803Y-86760197D01*
X138870557Y-86744403D01*
X138848601Y-86732667D01*
X138824776Y-86725440D01*
X138800000Y-86723000D01*
X133114843Y-86723000D01*
X133125000Y-86671939D01*
X133125000Y-86468061D01*
X133085226Y-86268102D01*
X133007205Y-86079744D01*
X132893937Y-85910226D01*
X132749774Y-85766063D01*
X132580256Y-85652795D01*
X132391898Y-85574774D01*
X132191939Y-85535000D01*
X131988061Y-85535000D01*
X131788102Y-85574774D01*
X131599744Y-85652795D01*
X131430226Y-85766063D01*
X131378765Y-85817524D01*
X131383495Y-85793747D01*
X131383495Y-85609569D01*
X131347563Y-85428929D01*
X131277081Y-85258769D01*
X131174757Y-85105630D01*
X131044523Y-84975396D01*
X130891384Y-84873072D01*
X130758259Y-84817930D01*
X130792889Y-84803586D01*
X130946028Y-84701262D01*
X131076262Y-84571028D01*
X131178586Y-84417889D01*
X131249068Y-84247729D01*
X131285000Y-84067089D01*
X131285000Y-83882911D01*
X131249068Y-83702271D01*
X131178586Y-83532111D01*
X131129007Y-83457910D01*
X133455000Y-83457910D01*
X133455000Y-83642088D01*
X133490932Y-83822728D01*
X133561414Y-83992888D01*
X133663738Y-84146027D01*
X133793972Y-84276261D01*
X133947111Y-84378585D01*
X134117271Y-84449067D01*
X134297911Y-84484999D01*
X134482089Y-84484999D01*
X134662729Y-84449067D01*
X134832889Y-84378585D01*
X134986028Y-84276261D01*
X135116262Y-84146027D01*
X135218586Y-83992888D01*
X135289068Y-83822728D01*
X135325000Y-83642088D01*
X135325000Y-83457910D01*
X135289068Y-83277270D01*
X135218586Y-83107110D01*
X135116262Y-82953971D01*
X134986028Y-82823737D01*
X134832889Y-82721413D01*
X134662729Y-82650931D01*
X134482089Y-82614999D01*
X134297911Y-82614999D01*
X134117271Y-82650931D01*
X133947111Y-82721413D01*
X133793972Y-82823737D01*
X133663738Y-82953971D01*
X133561414Y-83107110D01*
X133490932Y-83277270D01*
X133455000Y-83457910D01*
X131129007Y-83457910D01*
X131076262Y-83378972D01*
X130946028Y-83248738D01*
X130792889Y-83146414D01*
X130622729Y-83075932D01*
X130442089Y-83040000D01*
X130257911Y-83040000D01*
X130105084Y-83070400D01*
X129997729Y-83025932D01*
X129817089Y-82990000D01*
X129632911Y-82990000D01*
X129452271Y-83025932D01*
X129375000Y-83057938D01*
X129297729Y-83025932D01*
X129117089Y-82990000D01*
X128932911Y-82990000D01*
X128752271Y-83025932D01*
X128632322Y-83075616D01*
X128572729Y-83050932D01*
X128392089Y-83015000D01*
X128207911Y-83015000D01*
X128027271Y-83050932D01*
X127857111Y-83121414D01*
X127703972Y-83223738D01*
X127573738Y-83353972D01*
X127471414Y-83507111D01*
X127400932Y-83677271D01*
X127365000Y-83857911D01*
X127365000Y-84042089D01*
X127400932Y-84222729D01*
X127471414Y-84392889D01*
X127573738Y-84546028D01*
X127703972Y-84676262D01*
X127857111Y-84778586D01*
X127965204Y-84823359D01*
X127952271Y-84825932D01*
X127782111Y-84896414D01*
X127628972Y-84998738D01*
X127498738Y-85128972D01*
X127396414Y-85282111D01*
X127385910Y-85307470D01*
X127022756Y-85157047D01*
X126610279Y-85075000D01*
X126189721Y-85075000D01*
X125777244Y-85157047D01*
X125388698Y-85317988D01*
X125372443Y-85328849D01*
X125338586Y-85247111D01*
X125236262Y-85093972D01*
X125106028Y-84963738D01*
X124952889Y-84861414D01*
X124782729Y-84790932D01*
X124602089Y-84755000D01*
X124417911Y-84755000D01*
X124237271Y-84790932D01*
X124067111Y-84861414D01*
X123913972Y-84963738D01*
X123783738Y-85093972D01*
X123681414Y-85247111D01*
X123610932Y-85417271D01*
X123575000Y-85597911D01*
X123575000Y-85782089D01*
X123610932Y-85962729D01*
X123681414Y-86132889D01*
X123783738Y-86286028D01*
X123913972Y-86416262D01*
X124067111Y-86518586D01*
X124237271Y-86589068D01*
X124342520Y-86610004D01*
X124265000Y-86999721D01*
X124265000Y-87420279D01*
X124347047Y-87832756D01*
X124507988Y-88221302D01*
X124741637Y-88570983D01*
X125039017Y-88868363D01*
X125388698Y-89102012D01*
X125777244Y-89262953D01*
X126189721Y-89345000D01*
X126610279Y-89345000D01*
X127022756Y-89262953D01*
X127411302Y-89102012D01*
X127760983Y-88868363D01*
X128058363Y-88570983D01*
X128292012Y-88221302D01*
X128452953Y-87832756D01*
X128535000Y-87420279D01*
X128535000Y-86999721D01*
X128461703Y-86631234D01*
X128497729Y-86624068D01*
X128642678Y-86564029D01*
X128727271Y-86599068D01*
X128907911Y-86635000D01*
X129092089Y-86635000D01*
X129272729Y-86599068D01*
X129305212Y-86585613D01*
X129332111Y-86603586D01*
X129502271Y-86674068D01*
X129682911Y-86710000D01*
X129867089Y-86710000D01*
X130047729Y-86674068D01*
X130208888Y-86607314D01*
X130356406Y-86636658D01*
X130540584Y-86636658D01*
X130721224Y-86600726D01*
X130891384Y-86530244D01*
X131044523Y-86427920D01*
X131067568Y-86404875D01*
X131055000Y-86468061D01*
X131055000Y-86671939D01*
X131094774Y-86871898D01*
X131123000Y-86940041D01*
X131123000Y-90521944D01*
X130977271Y-90550932D01*
X130807111Y-90621414D01*
X130653972Y-90723738D01*
X130523738Y-90853972D01*
X130421414Y-91007111D01*
X130350932Y-91177271D01*
X130315000Y-91357911D01*
X130315000Y-91542089D01*
X130350932Y-91722729D01*
X130421414Y-91892889D01*
X130523738Y-92046028D01*
X130653972Y-92176262D01*
X130807111Y-92278586D01*
X130977271Y-92349068D01*
X131123000Y-92378056D01*
X131123000Y-97223000D01*
X129550000Y-97223000D01*
X129525224Y-97225440D01*
X129501399Y-97232667D01*
X129479443Y-97244403D01*
X129460197Y-97260197D01*
X129444403Y-97279443D01*
X129432667Y-97301399D01*
X129425440Y-97325224D01*
X129423000Y-97350000D01*
X129423000Y-106350000D01*
X129425440Y-106374776D01*
X129432667Y-106398601D01*
X129444403Y-106420557D01*
X129460197Y-106439803D01*
X129479443Y-106455597D01*
X129501399Y-106467333D01*
X129525224Y-106474560D01*
X129550000Y-106477000D01*
X135219051Y-106477000D01*
X135195000Y-106597911D01*
X135195000Y-106782089D01*
X135230932Y-106962729D01*
X135301414Y-107132889D01*
X135403738Y-107286028D01*
X135533972Y-107416262D01*
X135687111Y-107518586D01*
X135857271Y-107589068D01*
X136037911Y-107625000D01*
X136222089Y-107625000D01*
X136402729Y-107589068D01*
X136572889Y-107518586D01*
X136726028Y-107416262D01*
X136856262Y-107286028D01*
X136958586Y-107132889D01*
X137029068Y-106962729D01*
X137065000Y-106782089D01*
X137065000Y-106597911D01*
X137040949Y-106477000D01*
X138014822Y-106477000D01*
X145423000Y-110921907D01*
X145423000Y-118350000D01*
X145425440Y-118374776D01*
X145432667Y-118398601D01*
X145444403Y-118420557D01*
X145460197Y-118439803D01*
X145479443Y-118455597D01*
X145501399Y-118467333D01*
X145525224Y-118474560D01*
X145549708Y-118477000D01*
X158470533Y-118506726D01*
X158791484Y-123740000D01*
X128831866Y-123740001D01*
X128873577Y-123602499D01*
X128890000Y-123435751D01*
X128890000Y-122424248D01*
X128873577Y-122257501D01*
X128808676Y-122043553D01*
X128703284Y-121846377D01*
X128561449Y-121673551D01*
X128388623Y-121531716D01*
X128191446Y-121426324D01*
X127977498Y-121361423D01*
X127755000Y-121339509D01*
X127532501Y-121361423D01*
X127369324Y-121410923D01*
X127496028Y-121326262D01*
X127626262Y-121196028D01*
X127728586Y-121042889D01*
X127799068Y-120872729D01*
X127835000Y-120692089D01*
X127835000Y-120507911D01*
X127808562Y-120374999D01*
X130061928Y-120374999D01*
X130061928Y-121625001D01*
X130078992Y-121798255D01*
X130129528Y-121964851D01*
X130211595Y-122118387D01*
X130322038Y-122252962D01*
X130456613Y-122363405D01*
X130610149Y-122445472D01*
X130776745Y-122496008D01*
X130949999Y-122513072D01*
X131650001Y-122513072D01*
X131823255Y-122496008D01*
X131989851Y-122445472D01*
X132143387Y-122363405D01*
X132277962Y-122252962D01*
X132388405Y-122118387D01*
X132390810Y-122113888D01*
X132422499Y-122152502D01*
X132610552Y-122306833D01*
X132825100Y-122421511D01*
X133057899Y-122492130D01*
X133300000Y-122515975D01*
X133542102Y-122492130D01*
X133774901Y-122421511D01*
X133989449Y-122306833D01*
X134177502Y-122152502D01*
X134300001Y-122003237D01*
X134422499Y-122152502D01*
X134610552Y-122306833D01*
X134825100Y-122421511D01*
X135057899Y-122492130D01*
X135300000Y-122515975D01*
X135542102Y-122492130D01*
X135774901Y-122421511D01*
X135989449Y-122306833D01*
X136177502Y-122152502D01*
X136300001Y-122003237D01*
X136422499Y-122152502D01*
X136610552Y-122306833D01*
X136825100Y-122421511D01*
X137057899Y-122492130D01*
X137300000Y-122515975D01*
X137542102Y-122492130D01*
X137774901Y-122421511D01*
X137989449Y-122306833D01*
X138177502Y-122152502D01*
X138300001Y-122003237D01*
X138422499Y-122152502D01*
X138610552Y-122306833D01*
X138825100Y-122421511D01*
X139057899Y-122492130D01*
X139300000Y-122515975D01*
X139542102Y-122492130D01*
X139774901Y-122421511D01*
X139989449Y-122306833D01*
X140177502Y-122152502D01*
X140331833Y-121964449D01*
X140362052Y-121907911D01*
X145465000Y-121907911D01*
X145465000Y-122092089D01*
X145500932Y-122272729D01*
X145571414Y-122442889D01*
X145673738Y-122596028D01*
X145803972Y-122726262D01*
X145957111Y-122828586D01*
X146127271Y-122899068D01*
X146307911Y-122935000D01*
X146492089Y-122935000D01*
X146672729Y-122899068D01*
X146842889Y-122828586D01*
X146996028Y-122726262D01*
X147126262Y-122596028D01*
X147228586Y-122442889D01*
X147299068Y-122272729D01*
X147335000Y-122092089D01*
X147335000Y-121917911D01*
X148315000Y-121917911D01*
X148315000Y-122102089D01*
X148350932Y-122282729D01*
X148421414Y-122452889D01*
X148523738Y-122606028D01*
X148653972Y-122736262D01*
X148807111Y-122838586D01*
X148977271Y-122909068D01*
X149157911Y-122945000D01*
X149342089Y-122945000D01*
X149522729Y-122909068D01*
X149692889Y-122838586D01*
X149846028Y-122736262D01*
X149976262Y-122606028D01*
X150078586Y-122452889D01*
X150126211Y-122337911D01*
X154484990Y-122337911D01*
X154484990Y-122522089D01*
X154520922Y-122702729D01*
X154591404Y-122872889D01*
X154693728Y-123026028D01*
X154823962Y-123156262D01*
X154977101Y-123258586D01*
X155147261Y-123329068D01*
X155327901Y-123365000D01*
X155512079Y-123365000D01*
X155692719Y-123329068D01*
X155862879Y-123258586D01*
X156016018Y-123156262D01*
X156146252Y-123026028D01*
X156248576Y-122872889D01*
X156319058Y-122702729D01*
X156354990Y-122522089D01*
X156354990Y-122337911D01*
X156319058Y-122157271D01*
X156248576Y-121987111D01*
X156146252Y-121833972D01*
X156016018Y-121703738D01*
X155862879Y-121601414D01*
X155692719Y-121530932D01*
X155512079Y-121495000D01*
X155327901Y-121495000D01*
X155147261Y-121530932D01*
X154977101Y-121601414D01*
X154823962Y-121703738D01*
X154693728Y-121833972D01*
X154591404Y-121987111D01*
X154520922Y-122157271D01*
X154484990Y-122337911D01*
X150126211Y-122337911D01*
X150149068Y-122282729D01*
X150185000Y-122102089D01*
X150185000Y-121917911D01*
X150149068Y-121737271D01*
X150078586Y-121567111D01*
X149976262Y-121413972D01*
X149846028Y-121283738D01*
X149692889Y-121181414D01*
X149522729Y-121110932D01*
X149342089Y-121075000D01*
X149157911Y-121075000D01*
X148977271Y-121110932D01*
X148807111Y-121181414D01*
X148653972Y-121283738D01*
X148523738Y-121413972D01*
X148421414Y-121567111D01*
X148350932Y-121737271D01*
X148315000Y-121917911D01*
X147335000Y-121917911D01*
X147335000Y-121907911D01*
X147299068Y-121727271D01*
X147228586Y-121557111D01*
X147126262Y-121403972D01*
X146996028Y-121273738D01*
X146842889Y-121171414D01*
X146672729Y-121100932D01*
X146492089Y-121065000D01*
X146307911Y-121065000D01*
X146127271Y-121100932D01*
X145957111Y-121171414D01*
X145803972Y-121273738D01*
X145673738Y-121403972D01*
X145571414Y-121557111D01*
X145500932Y-121727271D01*
X145465000Y-121907911D01*
X140362052Y-121907911D01*
X140446511Y-121749900D01*
X140517130Y-121517101D01*
X140535000Y-121335664D01*
X140535000Y-120664335D01*
X140517130Y-120482898D01*
X140482249Y-120367911D01*
X154645000Y-120367911D01*
X154645000Y-120552089D01*
X154680932Y-120732729D01*
X154751414Y-120902889D01*
X154853738Y-121056028D01*
X154983972Y-121186262D01*
X155137111Y-121288586D01*
X155307271Y-121359068D01*
X155487911Y-121395000D01*
X155672089Y-121395000D01*
X155852729Y-121359068D01*
X156022889Y-121288586D01*
X156176028Y-121186262D01*
X156306262Y-121056028D01*
X156408586Y-120902889D01*
X156479068Y-120732729D01*
X156515000Y-120552089D01*
X156515000Y-120367911D01*
X156479068Y-120187271D01*
X156408586Y-120017111D01*
X156306262Y-119863972D01*
X156176028Y-119733738D01*
X156022889Y-119631414D01*
X155852729Y-119560932D01*
X155672089Y-119525000D01*
X155487911Y-119525000D01*
X155307271Y-119560932D01*
X155137111Y-119631414D01*
X154983972Y-119733738D01*
X154853738Y-119863972D01*
X154751414Y-120017111D01*
X154680932Y-120187271D01*
X154645000Y-120367911D01*
X140482249Y-120367911D01*
X140446511Y-120250099D01*
X140331833Y-120035551D01*
X140177502Y-119847498D01*
X139989448Y-119693167D01*
X139774900Y-119578489D01*
X139542101Y-119507870D01*
X139300000Y-119484025D01*
X139057898Y-119507870D01*
X138825099Y-119578489D01*
X138610551Y-119693167D01*
X138422498Y-119847498D01*
X138300000Y-119996763D01*
X138177502Y-119847498D01*
X137989448Y-119693167D01*
X137774900Y-119578489D01*
X137542101Y-119507870D01*
X137300000Y-119484025D01*
X137057898Y-119507870D01*
X136825099Y-119578489D01*
X136610551Y-119693167D01*
X136422498Y-119847498D01*
X136300000Y-119996763D01*
X136177502Y-119847498D01*
X135989448Y-119693167D01*
X135774900Y-119578489D01*
X135542101Y-119507870D01*
X135300000Y-119484025D01*
X135057898Y-119507870D01*
X134825099Y-119578489D01*
X134610551Y-119693167D01*
X134422498Y-119847498D01*
X134300000Y-119996763D01*
X134177502Y-119847498D01*
X133989448Y-119693167D01*
X133774900Y-119578489D01*
X133542101Y-119507870D01*
X133300000Y-119484025D01*
X133057898Y-119507870D01*
X132825099Y-119578489D01*
X132610551Y-119693167D01*
X132422498Y-119847498D01*
X132390809Y-119886111D01*
X132388405Y-119881613D01*
X132277962Y-119747038D01*
X132143387Y-119636595D01*
X131989851Y-119554528D01*
X131823255Y-119503992D01*
X131650001Y-119486928D01*
X130949999Y-119486928D01*
X130776745Y-119503992D01*
X130610149Y-119554528D01*
X130456613Y-119636595D01*
X130322038Y-119747038D01*
X130211595Y-119881613D01*
X130129528Y-120035149D01*
X130078992Y-120201745D01*
X130061928Y-120374999D01*
X127808562Y-120374999D01*
X127799068Y-120327271D01*
X127728586Y-120157111D01*
X127626262Y-120003972D01*
X127496028Y-119873738D01*
X127342889Y-119771414D01*
X127172729Y-119700932D01*
X126992089Y-119665000D01*
X126954361Y-119665000D01*
X126948215Y-119602600D01*
X126881885Y-119383940D01*
X126774171Y-119182421D01*
X126629212Y-119005788D01*
X126452578Y-118860829D01*
X126251059Y-118753115D01*
X126032399Y-118686785D01*
X125805000Y-118664388D01*
X125577600Y-118686785D01*
X125358940Y-118753115D01*
X125157421Y-118860829D01*
X124980788Y-119005788D01*
X124835829Y-119182422D01*
X124728115Y-119383941D01*
X124661785Y-119602601D01*
X124645000Y-119773022D01*
X124645000Y-120086979D01*
X124661785Y-120257400D01*
X124728115Y-120476060D01*
X124835829Y-120677579D01*
X124980789Y-120854212D01*
X125157422Y-120999171D01*
X125358941Y-121106885D01*
X125577601Y-121173215D01*
X125805000Y-121195612D01*
X126032400Y-121173215D01*
X126137244Y-121141411D01*
X126173738Y-121196028D01*
X126303972Y-121326262D01*
X126457111Y-121428586D01*
X126627271Y-121499068D01*
X126807911Y-121535000D01*
X126992089Y-121535000D01*
X127172729Y-121499068D01*
X127215955Y-121481163D01*
X127121377Y-121531716D01*
X126948551Y-121673551D01*
X126806716Y-121846377D01*
X126701324Y-122043554D01*
X126636423Y-122257502D01*
X126620000Y-122424249D01*
X126620000Y-123435752D01*
X126636423Y-123602499D01*
X126678134Y-123740001D01*
X120481866Y-123740001D01*
X120523577Y-123602499D01*
X120540000Y-123435751D01*
X120540000Y-122424248D01*
X120523577Y-122257501D01*
X120458676Y-122043553D01*
X120353284Y-121846377D01*
X120211449Y-121673551D01*
X120038623Y-121531716D01*
X119841446Y-121426324D01*
X119627498Y-121361423D01*
X119405000Y-121339509D01*
X119182501Y-121361423D01*
X118968553Y-121426324D01*
X118771377Y-121531716D01*
X118598551Y-121673551D01*
X118456716Y-121846377D01*
X118351324Y-122043554D01*
X118286423Y-122257502D01*
X118270000Y-122424249D01*
X118270000Y-123435752D01*
X118286423Y-123602499D01*
X118328134Y-123740001D01*
X115742289Y-123740001D01*
X115258049Y-123692521D01*
X114823314Y-123561267D01*
X114422345Y-123348068D01*
X114070434Y-123061055D01*
X113780966Y-122711148D01*
X113564976Y-122311684D01*
X113430689Y-121877872D01*
X113380000Y-121395595D01*
X113380000Y-119773022D01*
X120195000Y-119773022D01*
X120195000Y-120086979D01*
X120211785Y-120257400D01*
X120278115Y-120476060D01*
X120385829Y-120677579D01*
X120530789Y-120854212D01*
X120707422Y-120999171D01*
X120908941Y-121106885D01*
X121127601Y-121173215D01*
X121355000Y-121195612D01*
X121582400Y-121173215D01*
X121801060Y-121106885D01*
X122002579Y-120999171D01*
X122179212Y-120854212D01*
X122324171Y-120677578D01*
X122431885Y-120476059D01*
X122498215Y-120257399D01*
X122515000Y-120086978D01*
X122515000Y-119773021D01*
X122498215Y-119602600D01*
X122431885Y-119383940D01*
X122324171Y-119182421D01*
X122179212Y-119005788D01*
X122002578Y-118860829D01*
X121801059Y-118753115D01*
X121582399Y-118686785D01*
X121355000Y-118664388D01*
X121127600Y-118686785D01*
X120908940Y-118753115D01*
X120707421Y-118860829D01*
X120530788Y-119005788D01*
X120385829Y-119182422D01*
X120278115Y-119383941D01*
X120211785Y-119602601D01*
X120195000Y-119773022D01*
X113380000Y-119773022D01*
X113380000Y-116618061D01*
X130375000Y-116618061D01*
X130375000Y-116821939D01*
X130414774Y-117021898D01*
X130492795Y-117210256D01*
X130606063Y-117379774D01*
X130750226Y-117523937D01*
X130919744Y-117637205D01*
X131108102Y-117715226D01*
X131308061Y-117755000D01*
X131511939Y-117755000D01*
X131711898Y-117715226D01*
X131900256Y-117637205D01*
X132069774Y-117523937D01*
X132213937Y-117379774D01*
X132327205Y-117210256D01*
X132405226Y-117021898D01*
X132445000Y-116821939D01*
X132445000Y-116618061D01*
X132405226Y-116418102D01*
X132327205Y-116229744D01*
X132213937Y-116060226D01*
X132069774Y-115916063D01*
X131900256Y-115802795D01*
X131711898Y-115724774D01*
X131511939Y-115685000D01*
X131308061Y-115685000D01*
X131108102Y-115724774D01*
X130919744Y-115802795D01*
X130750226Y-115916063D01*
X130606063Y-116060226D01*
X130492795Y-116229744D01*
X130414774Y-116418102D01*
X130375000Y-116618061D01*
X113380000Y-116618061D01*
X113380000Y-112940000D01*
X113554025Y-112940000D01*
X113577870Y-113182102D01*
X113648489Y-113414901D01*
X113763167Y-113629449D01*
X113917498Y-113817502D01*
X113956111Y-113849191D01*
X113951613Y-113851595D01*
X113817038Y-113962038D01*
X113706595Y-114096613D01*
X113624528Y-114250149D01*
X113573992Y-114416745D01*
X113556928Y-114589999D01*
X113556928Y-115290001D01*
X113573992Y-115463255D01*
X113624528Y-115629851D01*
X113706595Y-115783387D01*
X113817038Y-115917962D01*
X113951613Y-116028405D01*
X114105149Y-116110472D01*
X114271745Y-116161008D01*
X114444999Y-116178072D01*
X115695001Y-116178072D01*
X115868255Y-116161008D01*
X116034851Y-116110472D01*
X116188387Y-116028405D01*
X116322962Y-115917962D01*
X116433405Y-115783387D01*
X116515472Y-115629851D01*
X116566008Y-115463255D01*
X116583072Y-115290001D01*
X116583072Y-114589999D01*
X116566008Y-114416745D01*
X116515472Y-114250149D01*
X116433405Y-114096613D01*
X116322962Y-113962038D01*
X116188387Y-113851595D01*
X116183889Y-113849191D01*
X116222502Y-113817502D01*
X116376833Y-113629449D01*
X116491511Y-113414901D01*
X116562130Y-113182102D01*
X116584990Y-112950000D01*
X119514025Y-112950000D01*
X119537870Y-113192102D01*
X119608489Y-113424901D01*
X119723167Y-113639449D01*
X119877498Y-113827502D01*
X119916111Y-113859191D01*
X119911613Y-113861595D01*
X119777038Y-113972038D01*
X119666595Y-114106613D01*
X119584528Y-114260149D01*
X119533992Y-114426745D01*
X119516928Y-114599999D01*
X119516928Y-115300001D01*
X119533992Y-115473255D01*
X119584528Y-115639851D01*
X119666595Y-115793387D01*
X119777038Y-115927962D01*
X119911613Y-116038405D01*
X120065149Y-116120472D01*
X120231745Y-116171008D01*
X120404999Y-116188072D01*
X121655001Y-116188072D01*
X121828255Y-116171008D01*
X121994851Y-116120472D01*
X122148387Y-116038405D01*
X122282962Y-115927962D01*
X122393405Y-115793387D01*
X122475472Y-115639851D01*
X122526008Y-115473255D01*
X122527519Y-115457911D01*
X138005000Y-115457911D01*
X138005000Y-115642089D01*
X138040932Y-115822729D01*
X138111414Y-115992889D01*
X138213738Y-116146028D01*
X138343972Y-116276262D01*
X138497111Y-116378586D01*
X138667271Y-116449068D01*
X138847911Y-116485000D01*
X139032089Y-116485000D01*
X139212729Y-116449068D01*
X139382889Y-116378586D01*
X139390926Y-116373216D01*
X139403972Y-116386262D01*
X139557111Y-116488586D01*
X139641207Y-116523420D01*
X139664774Y-116641898D01*
X139742795Y-116830256D01*
X139856063Y-116999774D01*
X140000226Y-117143937D01*
X140169744Y-117257205D01*
X140358102Y-117335226D01*
X140558061Y-117375000D01*
X140761939Y-117375000D01*
X140810739Y-117365293D01*
X140812795Y-117370256D01*
X140926063Y-117539774D01*
X141070226Y-117683937D01*
X141239744Y-117797205D01*
X141428102Y-117875226D01*
X141628061Y-117915000D01*
X141831939Y-117915000D01*
X142031898Y-117875226D01*
X142220256Y-117797205D01*
X142389774Y-117683937D01*
X142533937Y-117539774D01*
X142647205Y-117370256D01*
X142725226Y-117181898D01*
X142765000Y-116981939D01*
X142765000Y-116778061D01*
X142725226Y-116578102D01*
X142647205Y-116389744D01*
X142533937Y-116220226D01*
X142389774Y-116076063D01*
X142220256Y-115962795D01*
X142031898Y-115884774D01*
X141831939Y-115845000D01*
X141763945Y-115845000D01*
X141807205Y-115780256D01*
X141885226Y-115591898D01*
X141925000Y-115391939D01*
X141925000Y-115188061D01*
X141885226Y-114988102D01*
X141807205Y-114799744D01*
X141693937Y-114630226D01*
X141549774Y-114486063D01*
X141380256Y-114372795D01*
X141191898Y-114294774D01*
X140991939Y-114255000D01*
X140788061Y-114255000D01*
X140588102Y-114294774D01*
X140399744Y-114372795D01*
X140230226Y-114486063D01*
X140086063Y-114630226D01*
X140022737Y-114725000D01*
X139907911Y-114725000D01*
X139727271Y-114760932D01*
X139557111Y-114831414D01*
X139549074Y-114836784D01*
X139536028Y-114823738D01*
X139382889Y-114721414D01*
X139212729Y-114650932D01*
X139032089Y-114615000D01*
X138847911Y-114615000D01*
X138667271Y-114650932D01*
X138497111Y-114721414D01*
X138343972Y-114823738D01*
X138213738Y-114953972D01*
X138111414Y-115107111D01*
X138040932Y-115277271D01*
X138005000Y-115457911D01*
X122527519Y-115457911D01*
X122543072Y-115300001D01*
X122543072Y-114599999D01*
X122526008Y-114426745D01*
X122475472Y-114260149D01*
X122468931Y-114247911D01*
X128695000Y-114247911D01*
X128695000Y-114432089D01*
X128730932Y-114612729D01*
X128801414Y-114782889D01*
X128903738Y-114936028D01*
X129033972Y-115066262D01*
X129187111Y-115168586D01*
X129357271Y-115239068D01*
X129537911Y-115275000D01*
X129722089Y-115275000D01*
X129902729Y-115239068D01*
X130072889Y-115168586D01*
X130226028Y-115066262D01*
X130356262Y-114936028D01*
X130458586Y-114782889D01*
X130529068Y-114612729D01*
X130565000Y-114432089D01*
X130565000Y-114247911D01*
X130529068Y-114067271D01*
X130458586Y-113897111D01*
X130356262Y-113743972D01*
X130272290Y-113660000D01*
X130386262Y-113546028D01*
X130488586Y-113392889D01*
X130559068Y-113222729D01*
X130595000Y-113042089D01*
X130595000Y-112857911D01*
X130559068Y-112677271D01*
X130488586Y-112507111D01*
X130386262Y-112353972D01*
X130256028Y-112223738D01*
X130102889Y-112121414D01*
X129932729Y-112050932D01*
X129752089Y-112015000D01*
X129567911Y-112015000D01*
X129387271Y-112050932D01*
X129217111Y-112121414D01*
X129063972Y-112223738D01*
X128933738Y-112353972D01*
X128831414Y-112507111D01*
X128760932Y-112677271D01*
X128725000Y-112857911D01*
X128725000Y-113042089D01*
X128760932Y-113222729D01*
X128831414Y-113392889D01*
X128933738Y-113546028D01*
X129017710Y-113630000D01*
X128903738Y-113743972D01*
X128801414Y-113897111D01*
X128730932Y-114067271D01*
X128695000Y-114247911D01*
X122468931Y-114247911D01*
X122393405Y-114106613D01*
X122282962Y-113972038D01*
X122148387Y-113861595D01*
X122143889Y-113859191D01*
X122182502Y-113827502D01*
X122336833Y-113639449D01*
X122451511Y-113424901D01*
X122522130Y-113192102D01*
X122545975Y-112950000D01*
X122522130Y-112707898D01*
X122451511Y-112475099D01*
X122336833Y-112260551D01*
X122182502Y-112072498D01*
X121994449Y-111918167D01*
X121779901Y-111803489D01*
X121547102Y-111732870D01*
X121365665Y-111715000D01*
X120694335Y-111715000D01*
X120512898Y-111732870D01*
X120280099Y-111803489D01*
X120065551Y-111918167D01*
X119877498Y-112072498D01*
X119723167Y-112260551D01*
X119608489Y-112475099D01*
X119537870Y-112707898D01*
X119514025Y-112950000D01*
X116584990Y-112950000D01*
X116585975Y-112940000D01*
X116562130Y-112697898D01*
X116491511Y-112465099D01*
X116376833Y-112250551D01*
X116222502Y-112062498D01*
X116034449Y-111908167D01*
X115819901Y-111793489D01*
X115587102Y-111722870D01*
X115405665Y-111705000D01*
X114734335Y-111705000D01*
X114552898Y-111722870D01*
X114320099Y-111793489D01*
X114105551Y-111908167D01*
X113917498Y-112062498D01*
X113763167Y-112250551D01*
X113648489Y-112465099D01*
X113577870Y-112697898D01*
X113554025Y-112940000D01*
X113380000Y-112940000D01*
X113380000Y-110337911D01*
X128705000Y-110337911D01*
X128705000Y-110522089D01*
X128740932Y-110702729D01*
X128811414Y-110872889D01*
X128913738Y-111026028D01*
X129043972Y-111156262D01*
X129197111Y-111258586D01*
X129367271Y-111329068D01*
X129547911Y-111365000D01*
X129732089Y-111365000D01*
X129912729Y-111329068D01*
X130082889Y-111258586D01*
X130236028Y-111156262D01*
X130366262Y-111026028D01*
X130468586Y-110872889D01*
X130539068Y-110702729D01*
X130575000Y-110522089D01*
X130575000Y-110448061D01*
X131495000Y-110448061D01*
X131495000Y-110651939D01*
X131534774Y-110851898D01*
X131612795Y-111040256D01*
X131726063Y-111209774D01*
X131870226Y-111353937D01*
X132039744Y-111467205D01*
X132228102Y-111545226D01*
X132428061Y-111585000D01*
X132631939Y-111585000D01*
X132831898Y-111545226D01*
X133020256Y-111467205D01*
X133189774Y-111353937D01*
X133333937Y-111209774D01*
X133447205Y-111040256D01*
X133525226Y-110851898D01*
X133565000Y-110651939D01*
X133565000Y-110448061D01*
X133539002Y-110317358D01*
X133597111Y-110356185D01*
X133767271Y-110426667D01*
X133947911Y-110462599D01*
X134132089Y-110462599D01*
X134312729Y-110426667D01*
X134444861Y-110371937D01*
X134460932Y-110452729D01*
X134531414Y-110622889D01*
X134633738Y-110776028D01*
X134763972Y-110906262D01*
X134917111Y-111008586D01*
X135087271Y-111079068D01*
X135267911Y-111115000D01*
X135452089Y-111115000D01*
X135632729Y-111079068D01*
X135802889Y-111008586D01*
X135956028Y-110906262D01*
X136086262Y-110776028D01*
X136103341Y-110750468D01*
X136113738Y-110766028D01*
X136243972Y-110896262D01*
X136397111Y-110998586D01*
X136567271Y-111069068D01*
X136747911Y-111105000D01*
X136932089Y-111105000D01*
X137112729Y-111069068D01*
X137282889Y-110998586D01*
X137342296Y-110958892D01*
X137364774Y-111071898D01*
X137442795Y-111260256D01*
X137556063Y-111429774D01*
X137700226Y-111573937D01*
X137869744Y-111687205D01*
X138058102Y-111765226D01*
X138258061Y-111805000D01*
X138461939Y-111805000D01*
X138661898Y-111765226D01*
X138850256Y-111687205D01*
X139019774Y-111573937D01*
X139163937Y-111429774D01*
X139277205Y-111260256D01*
X139355226Y-111071898D01*
X139395000Y-110871939D01*
X139395000Y-110668061D01*
X139355226Y-110468102D01*
X139277205Y-110279744D01*
X139163937Y-110110226D01*
X139019774Y-109966063D01*
X138850256Y-109852795D01*
X138661898Y-109774774D01*
X138461939Y-109735000D01*
X138258061Y-109735000D01*
X138058102Y-109774774D01*
X137869744Y-109852795D01*
X137746590Y-109935084D01*
X137739068Y-109897271D01*
X137668586Y-109727111D01*
X137566262Y-109573972D01*
X137436028Y-109443738D01*
X137282889Y-109341414D01*
X137112729Y-109270932D01*
X136932089Y-109235000D01*
X136747911Y-109235000D01*
X136567271Y-109270932D01*
X136397111Y-109341414D01*
X136243972Y-109443738D01*
X136113738Y-109573972D01*
X136096659Y-109599532D01*
X136086262Y-109583972D01*
X135956028Y-109453738D01*
X135802889Y-109351414D01*
X135632729Y-109280932D01*
X135452089Y-109245000D01*
X135267911Y-109245000D01*
X135087271Y-109280932D01*
X134955139Y-109335662D01*
X134939068Y-109254870D01*
X134868586Y-109084710D01*
X134766262Y-108931571D01*
X134636028Y-108801337D01*
X134482889Y-108699013D01*
X134312729Y-108628531D01*
X134132089Y-108592599D01*
X133947911Y-108592599D01*
X133767271Y-108628531D01*
X133597111Y-108699013D01*
X133443972Y-108801337D01*
X133313738Y-108931571D01*
X133211414Y-109084710D01*
X133140932Y-109254870D01*
X133105000Y-109435510D01*
X133105000Y-109619688D01*
X133120997Y-109700108D01*
X133020256Y-109632795D01*
X132831898Y-109554774D01*
X132631939Y-109515000D01*
X132428061Y-109515000D01*
X132228102Y-109554774D01*
X132039744Y-109632795D01*
X131870226Y-109746063D01*
X131726063Y-109890226D01*
X131612795Y-110059744D01*
X131534774Y-110248102D01*
X131495000Y-110448061D01*
X130575000Y-110448061D01*
X130575000Y-110337911D01*
X130539068Y-110157271D01*
X130468586Y-109987111D01*
X130459210Y-109973080D01*
X130576262Y-109856028D01*
X130678586Y-109702889D01*
X130749068Y-109532729D01*
X130785000Y-109352089D01*
X130785000Y-109167911D01*
X130749068Y-108987271D01*
X130678586Y-108817111D01*
X130576262Y-108663972D01*
X130446028Y-108533738D01*
X130292889Y-108431414D01*
X130122729Y-108360932D01*
X129942089Y-108325000D01*
X129757911Y-108325000D01*
X129577271Y-108360932D01*
X129407111Y-108431414D01*
X129253972Y-108533738D01*
X129123738Y-108663972D01*
X129021414Y-108817111D01*
X128950932Y-108987271D01*
X128915000Y-109167911D01*
X128915000Y-109352089D01*
X128950932Y-109532729D01*
X129021414Y-109702889D01*
X129030790Y-109716920D01*
X128913738Y-109833972D01*
X128811414Y-109987111D01*
X128740932Y-110157271D01*
X128705000Y-110337911D01*
X113380000Y-110337911D01*
X113380000Y-105899721D01*
X124265000Y-105899721D01*
X124265000Y-106320279D01*
X124347047Y-106732756D01*
X124507988Y-107121302D01*
X124741637Y-107470983D01*
X125039017Y-107768363D01*
X125388698Y-108002012D01*
X125777244Y-108162953D01*
X126189721Y-108245000D01*
X126610279Y-108245000D01*
X127022756Y-108162953D01*
X127411302Y-108002012D01*
X127760983Y-107768363D01*
X128058363Y-107470983D01*
X128292012Y-107121302D01*
X128452953Y-106732756D01*
X128535000Y-106320279D01*
X128535000Y-105899721D01*
X128452953Y-105487244D01*
X128292012Y-105098698D01*
X128058363Y-104749017D01*
X127760983Y-104451637D01*
X127411302Y-104217988D01*
X127022756Y-104057047D01*
X126610279Y-103975000D01*
X126189721Y-103975000D01*
X125777244Y-104057047D01*
X125388698Y-104217988D01*
X125039017Y-104451637D01*
X124741637Y-104749017D01*
X124507988Y-105098698D01*
X124347047Y-105487244D01*
X124265000Y-105899721D01*
X113380000Y-105899721D01*
X113380000Y-101752237D01*
X113380017Y-101752063D01*
X113380000Y-101720511D01*
X113380000Y-101687581D01*
X113379982Y-101687400D01*
X113371071Y-85147911D01*
X118255000Y-85147911D01*
X118255000Y-85332089D01*
X118290932Y-85512729D01*
X118361414Y-85682889D01*
X118463738Y-85836028D01*
X118593972Y-85966262D01*
X118747111Y-86068586D01*
X118917271Y-86139068D01*
X119097911Y-86175000D01*
X119282089Y-86175000D01*
X119462729Y-86139068D01*
X119632889Y-86068586D01*
X119786028Y-85966262D01*
X119916262Y-85836028D01*
X120018586Y-85682889D01*
X120089068Y-85512729D01*
X120125000Y-85332089D01*
X120125000Y-85147911D01*
X120535000Y-85147911D01*
X120535000Y-85332089D01*
X120570932Y-85512729D01*
X120641414Y-85682889D01*
X120743738Y-85836028D01*
X120873972Y-85966262D01*
X121027111Y-86068586D01*
X121197271Y-86139068D01*
X121377911Y-86175000D01*
X121562089Y-86175000D01*
X121742729Y-86139068D01*
X121912889Y-86068586D01*
X122066028Y-85966262D01*
X122196262Y-85836028D01*
X122298586Y-85682889D01*
X122369068Y-85512729D01*
X122405000Y-85332089D01*
X122405000Y-85147911D01*
X122369068Y-84967271D01*
X122298586Y-84797111D01*
X122196262Y-84643972D01*
X122066028Y-84513738D01*
X121912889Y-84411414D01*
X121742729Y-84340932D01*
X121562089Y-84305000D01*
X121377911Y-84305000D01*
X121197271Y-84340932D01*
X121027111Y-84411414D01*
X120873972Y-84513738D01*
X120743738Y-84643972D01*
X120641414Y-84797111D01*
X120570932Y-84967271D01*
X120535000Y-85147911D01*
X120125000Y-85147911D01*
X120089068Y-84967271D01*
X120018586Y-84797111D01*
X119916262Y-84643972D01*
X119786028Y-84513738D01*
X119632889Y-84411414D01*
X119462729Y-84340932D01*
X119282089Y-84305000D01*
X119097911Y-84305000D01*
X118917271Y-84340932D01*
X118747111Y-84411414D01*
X118593972Y-84513738D01*
X118463738Y-84643972D01*
X118361414Y-84797111D01*
X118290932Y-84967271D01*
X118255000Y-85147911D01*
X113371071Y-85147911D01*
X113370017Y-83192106D01*
X113417670Y-82706107D01*
X113549489Y-82269502D01*
X113763600Y-81866815D01*
X114051848Y-81513388D01*
X114403261Y-81222673D01*
X114804439Y-81005758D01*
X115240113Y-80870894D01*
X115724372Y-80819997D01*
X122882730Y-80818779D01*
X122865000Y-80907911D01*
X122865000Y-81092089D01*
X122900932Y-81272729D01*
X122971414Y-81442889D01*
X123073738Y-81596028D01*
X123203972Y-81726262D01*
X123357111Y-81828586D01*
X123527271Y-81899068D01*
X123707911Y-81935000D01*
X123892089Y-81935000D01*
X124072729Y-81899068D01*
X124242889Y-81828586D01*
X124396028Y-81726262D01*
X124526262Y-81596028D01*
X124628586Y-81442889D01*
X124699068Y-81272729D01*
X124735000Y-81092089D01*
X124735000Y-80907911D01*
X124717208Y-80818466D01*
X141265396Y-80815649D01*
X141255000Y-80867911D01*
X141255000Y-81052089D01*
X141290932Y-81232729D01*
X141361414Y-81402889D01*
X141463738Y-81556028D01*
X141593972Y-81686262D01*
X141747111Y-81788586D01*
X141917271Y-81859068D01*
X142097911Y-81895000D01*
X142282089Y-81895000D01*
X142462729Y-81859068D01*
X142632889Y-81788586D01*
X142786028Y-81686262D01*
X142916262Y-81556028D01*
X143018586Y-81402889D01*
X143089068Y-81232729D01*
X143125000Y-81052089D01*
X143125000Y-80867911D01*
X143114542Y-80815335D01*
X145573000Y-80814916D01*
X145573000Y-82684674D01*
G04 #@! TD*
M02*
